<?xml version="1.0" encoding="UTF-8" standalone="no"?>
<!DOCTYPE svg PUBLIC "-//W3C//DTD SVG 1.1//EN"
 "http://www.w3.org/Graphics/SVG/1.1/DTD/svg11.dtd">
<!-- Generated by graphviz version 2.40.1 (20161225.0304)
 -->
<!-- Title: %3 Pages: 1 -->
<svg width="1263pt" height="521pt"
 viewBox="0.00 0.00 1262.50 520.98" xmlns="http://www.w3.org/2000/svg" xmlns:xlink="http://www.w3.org/1999/xlink">
<g id="graph0" class="graph" transform="scale(1 1) rotate(0) translate(4 516.9848)">
<title>%3</title>
<polygon fill="#ffffff" stroke="transparent" points="-4,4 -4,-516.9848 1258.5,-516.9848 1258.5,4 -4,4"/>
<!-- num_lane_1 -->
<g id="node1" class="node">
<title>num_lane_1</title>
<polygon fill="#d3d3d3" stroke="#000000" points="1173,-187.066 1113,-187.066 1113,-169.066 1173,-169.066 1173,-187.066"/>
<text text-anchor="middle" x="1143" y="-175.866" font-family="Times,serif" font-size="9.00" fill="#000000">num_lane_1</text>
</g>
<!-- 0 -->
<g id="node18" class="node">
<title>0</title>
<ellipse fill="#add8e6" stroke="#000000" cx="662" cy="-21.2132" rx="14.7" ry="14.7"/>
<text text-anchor="middle" x="662" y="-19.0132" font-family="Times,serif" font-size="9.00" fill="#000000">0</text>
</g>
<!-- num_lane_1&#45;&gt;0 -->
<g id="edge1" class="edge">
<title>num_lane_1&#45;&gt;0</title>
<path fill="none" stroke="#ff0000" stroke-width=".2765" stroke-dasharray="1,5" d="M1140.2172,-169.0266C1133.5144,-148.928 1114.4279,-100.5667 1080,-78.4264 1014.2475,-36.1414 767.5251,-24.5947 687.344,-21.9248"/>
<polygon fill="#ff0000" stroke="#ff0000" stroke-width=".2765" points="687.2767,-18.421 677.1715,-21.6047 687.0565,-25.4176 687.2767,-18.421"/>
</g>
<!-- 526 -->
<g id="node27" class="node">
<title>526</title>
<ellipse fill="#ffffff" stroke="#000000" cx="1153" cy="-99.6396" rx="21.4286" ry="21.4286"/>
<text text-anchor="middle" x="1153" y="-97.4396" font-family="Times,serif" font-size="9.00" fill="#000000">526</text>
</g>
<!-- num_lane_1&#45;&gt;526 -->
<g id="edge48" class="edge">
<title>num_lane_1&#45;&gt;526</title>
<path fill="none" stroke="#00ff00" stroke-width=".2251" d="M1144.1864,-168.7615C1145.382,-159.3849 1147.2938,-144.391 1149.0318,-130.7609"/>
<polygon fill="#00ff00" stroke="#00ff00" stroke-width=".2251" points="1152.5191,-131.0817 1150.3122,-120.7193 1145.5754,-130.1963 1152.5191,-131.0817"/>
</g>
<!-- num_lane_2 -->
<g id="node2" class="node">
<title>num_lane_2</title>
<polygon fill="#d3d3d3" stroke="#000000" points="841,-265.4924 781,-265.4924 781,-247.4924 841,-247.4924 841,-265.4924"/>
<text text-anchor="middle" x="811" y="-254.2924" font-family="Times,serif" font-size="9.00" fill="#000000">num_lane_2</text>
</g>
<!-- num_lane_2&#45;&gt;0 -->
<g id="edge2" class="edge">
<title>num_lane_2&#45;&gt;0</title>
<path fill="none" stroke="#ff0000" stroke-width=".5589" d="M806.4191,-247.2756C792.9063,-220.3801 751.4882,-140.0077 709,-78.4264 699.8086,-65.1047 688.2896,-51.0476 678.9557,-40.2008"/>
<polygon fill="#ff0000" stroke="#ff0000" stroke-width=".5589" points="681.5315,-37.8294 672.3187,-32.5974 676.258,-42.4326 681.5315,-37.8294"/>
</g>
<!-- 2 -->
<g id="node20" class="node">
<title>2</title>
<ellipse fill="#add8e6" stroke="#000000" cx="907" cy="-178.066" rx="14.7" ry="14.7"/>
<text text-anchor="middle" x="907" y="-175.866" font-family="Times,serif" font-size="9.00" fill="#000000">2</text>
</g>
<!-- num_lane_2&#45;&gt;2 -->
<g id="edge3" class="edge">
<title>num_lane_2&#45;&gt;2</title>
<path fill="none" stroke="#00ff00" stroke-width=".5457" d="M822.3894,-247.1879C838.3973,-234.1104 867.78,-210.1065 887.3551,-194.1147"/>
<polygon fill="#00ff00" stroke="#00ff00" stroke-width=".5457" points="889.796,-196.6402 895.326,-187.603 885.3674,-191.2192 889.796,-196.6402"/>
</g>
<!-- ego_velocity -->
<g id="node3" class="node">
<title>ego_velocity</title>
<polygon fill="#d3d3d3" stroke="#000000" points="667,-265.4924 605,-265.4924 605,-247.4924 667,-247.4924 667,-265.4924"/>
<text text-anchor="middle" x="636" y="-254.2924" font-family="Times,serif" font-size="9.00" fill="#000000">ego_velocity</text>
</g>
<!-- ego_velocity&#45;&gt;0 -->
<g id="edge4" class="edge">
<title>ego_velocity&#45;&gt;0</title>
<path fill="none" stroke="#00ff00" stroke-width=".2867" stroke-dasharray="1,5" d="M637.0192,-247.2692C640.7192,-213.7877 653.5228,-97.9247 659.2241,-46.3331"/>
<polygon fill="#00ff00" stroke="#00ff00" stroke-width=".2867" points="662.7383,-46.3964 660.358,-36.0724 655.7807,-45.6275 662.7383,-46.3964"/>
</g>
<!-- 1 -->
<g id="node19" class="node">
<title>1</title>
<ellipse fill="#add8e6" stroke="#000000" cx="504" cy="-178.066" rx="14.7" ry="14.7"/>
<text text-anchor="middle" x="504" y="-175.866" font-family="Times,serif" font-size="9.00" fill="#000000">1</text>
</g>
<!-- ego_velocity&#45;&gt;1 -->
<g id="edge5" class="edge">
<title>ego_velocity&#45;&gt;1</title>
<path fill="none" stroke="#ff0000" stroke-width=".1795" stroke-dasharray="1,5" d="M620.5996,-247.3424C597.1171,-233.3906 552.2773,-206.7495 525.5666,-190.8796"/>
<polygon fill="#ff0000" stroke="#ff0000" stroke-width=".1795" points="527.3244,-187.8528 516.9395,-185.7539 523.7488,-193.8708 527.3244,-187.8528"/>
</g>
<!-- ego_velocity&#45;&gt;2 -->
<g id="edge6" class="edge">
<title>ego_velocity&#45;&gt;2</title>
<path fill="none" stroke="#00ff00" stroke-width=".1925" stroke-dasharray="1,5" d="M651.1627,-247.3204C658.4717,-243.1966 667.4831,-238.5357 676,-235.2792 748.5993,-207.5205 839.2423,-189.6631 882.2049,-182.1451"/>
<polygon fill="#00ff00" stroke="#00ff00" stroke-width=".1925" points="883.0313,-185.5546 892.2971,-180.4171 881.8499,-178.655 883.0313,-185.5546"/>
</g>
<!-- dx1 -->
<g id="node4" class="node">
<title>dx1</title>
<polygon fill="#d3d3d3" stroke="#000000" points="715,-265.4924 685,-265.4924 685,-247.4924 715,-247.4924 715,-265.4924"/>
<text text-anchor="middle" x="700" y="-254.2924" font-family="Times,serif" font-size="9.00" fill="#000000">dx1</text>
</g>
<!-- dx1&#45;&gt;0 -->
<g id="edge7" class="edge">
<title>dx1&#45;&gt;0</title>
<path fill="none" stroke="#00ff00" stroke-width=".2688" stroke-dasharray="1,5" d="M698.5104,-247.2692C693.0914,-213.7175 674.3112,-97.4386 666.0048,-46.0094"/>
<polygon fill="#00ff00" stroke="#00ff00" stroke-width=".2688" points="669.4497,-45.3864 664.3999,-36.0724 662.5392,-46.5026 669.4497,-45.3864"/>
</g>
<!-- dx1&#45;&gt;1 -->
<g id="edge8" class="edge">
<title>dx1&#45;&gt;1</title>
<path fill="none" stroke="#00ff00" stroke-width=".2487" d="M691.333,-247.2869C687.0419,-243.1557 681.5901,-238.4983 676,-235.2792 627.5222,-207.3628 563.4361,-190.6294 528.7922,-183.0088"/>
<polygon fill="#00ff00" stroke="#00ff00" stroke-width=".2487" points="529.1448,-179.5057 518.6359,-180.8522 527.6907,-186.3531 529.1448,-179.5057"/>
</g>
<!-- dx1&#45;&gt;2 -->
<g id="edge9" class="edge">
<title>dx1&#45;&gt;2</title>
<path fill="none" stroke="#00ff00" stroke-width=".4632" d="M709.0653,-247.2602C713.5433,-243.1232 719.2184,-238.4686 725,-235.2792 777.0396,-206.5716 845.5438,-189.9991 881.8645,-182.6541"/>
<polygon fill="#00ff00" stroke="#00ff00" stroke-width=".4632" points="882.9043,-186.0173 892.0493,-180.6676 881.5642,-179.1467 882.9043,-186.0173"/>
</g>
<!-- dy1 -->
<g id="node5" class="node">
<title>dy1</title>
<polygon fill="#d3d3d3" stroke="#000000" points="663,-422.3452 633,-422.3452 633,-404.3452 663,-404.3452 663,-422.3452"/>
<text text-anchor="middle" x="648" y="-411.1452" font-family="Times,serif" font-size="9.00" fill="#000000">dy1</text>
</g>
<!-- dy1&#45;&gt;1 -->
<g id="edge10" class="edge">
<title>dy1&#45;&gt;1</title>
<path fill="none" stroke="#ff0000" stroke-width=".193" d="M640.3382,-404.265C622.702,-383.082 578.4898,-328.3437 549,-277.7056 534.4547,-252.7294 521.2917,-222.2125 513.0127,-201.583"/>
<polygon fill="#ff0000" stroke="#ff0000" stroke-width=".193" points="516.1769,-200.0663 509.2517,-192.0481 509.6652,-202.6349 516.1769,-200.0663"/>
</g>
<!-- dy1&#45;&gt;2 -->
<g id="edge11" class="edge">
<title>dy1&#45;&gt;2</title>
<path fill="none" stroke="#00ff00" stroke-width=".3752" stroke-dasharray="1,5" d="M663.0562,-410.9205C709.5638,-402.5265 851.1581,-369.9866 907,-277.7056 920.7139,-255.0429 918.0216,-223.8415 913.6434,-202.425"/>
<polygon fill="#00ff00" stroke="#00ff00" stroke-width=".3752" points="917.011,-201.4525 911.3509,-192.4963 910.1905,-203.0274 917.011,-201.4525"/>
</g>
<!-- 372 -->
<g id="node30" class="node">
<title>372</title>
<ellipse fill="#ffffff" stroke="#000000" cx="518" cy="-334.9188" rx="21.4286" ry="21.4286"/>
<text text-anchor="middle" x="518" y="-332.7188" font-family="Times,serif" font-size="9.00" fill="#000000">372</text>
</g>
<!-- dy1&#45;&gt;372 -->
<g id="edge41" class="edge">
<title>dy1&#45;&gt;372</title>
<path fill="none" stroke="#ff0000" stroke-width=".2048" stroke-dasharray="1,5" d="M636.3949,-404.3135C631.1872,-400.4036 624.899,-395.8754 619,-392.132 590.7876,-374.2294 581.9614,-372.7957 553,-356.132 550.3152,-354.5873 547.5299,-352.9535 544.7561,-351.3058"/>
<polygon fill="#ff0000" stroke="#ff0000" stroke-width=".2048" points="546.4464,-348.2382 536.0723,-346.087 542.8406,-354.2381 546.4464,-348.2382"/>
</g>
<!-- dx2 -->
<g id="node6" class="node">
<title>dx2</title>
<polygon fill="#d3d3d3" stroke="#000000" points="1169,-265.4924 1139,-265.4924 1139,-247.4924 1169,-247.4924 1169,-265.4924"/>
<text text-anchor="middle" x="1154" y="-254.2924" font-family="Times,serif" font-size="9.00" fill="#000000">dx2</text>
</g>
<!-- dx2&#45;&gt;0 -->
<g id="edge12" class="edge">
<title>dx2&#45;&gt;0</title>
<path fill="none" stroke="#ff0000" stroke-width=".1322" stroke-dasharray="1,5" d="M1144.713,-247.1381C1140.4619,-243.1685 1135.2161,-238.6827 1130,-235.2792 1098.0239,-214.4152 1083.2801,-221.1729 1052,-199.2792 1020.9937,-177.5772 965.2339,-96.5337 932,-78.4264 889.4082,-55.2206 745.3213,-32.9367 686.9072,-24.6297"/>
<polygon fill="#ff0000" stroke="#ff0000" stroke-width=".1322" points="687.1201,-21.1254 676.7306,-23.2013 686.147,-28.0574 687.1201,-21.1254"/>
</g>
<!-- dx2&#45;&gt;1 -->
<g id="edge13" class="edge">
<title>dx2&#45;&gt;1</title>
<path fill="none" stroke="#00ff00" stroke-width=".2487" stroke-dasharray="1,5" d="M1146.0639,-247.1319C1141.7831,-242.7502 1136.1268,-237.9238 1130,-235.2792 1074.0572,-211.1315 639.3028,-185.5737 529.2498,-179.4437"/>
<polygon fill="#00ff00" stroke="#00ff00" stroke-width=".2487" points="529.2665,-175.9394 519.0885,-178.8817 528.8799,-182.9287 529.2665,-175.9394"/>
</g>
<!-- 415 -->
<g id="node36" class="node">
<title>415</title>
<ellipse fill="#ffffff" stroke="#000000" cx="979" cy="-178.066" rx="21.4286" ry="21.4286"/>
<text text-anchor="middle" x="979" y="-175.866" font-family="Times,serif" font-size="9.00" fill="#000000">415</text>
</g>
<!-- dx2&#45;&gt;415 -->
<g id="edge49" class="edge">
<title>dx2&#45;&gt;415</title>
<path fill="none" stroke="#ff0000" stroke-width=".1995" d="M1145.3619,-247.2361C1141.0772,-243.0937 1135.6223,-238.4417 1130,-235.2792 1082.951,-208.8148 1063.2256,-221.4337 1014,-199.2792 1011.1754,-198.008 1008.2979,-196.5546 1005.4673,-195.0179"/>
<polygon fill="#ff0000" stroke="#ff0000" stroke-width=".1995" points="1007.1161,-191.9282 996.7082,-189.9465 1003.6086,-197.9861 1007.1161,-191.9282"/>
</g>
<!-- dy2 -->
<g id="node7" class="node">
<title>dy2</title>
<polygon fill="#d3d3d3" stroke="#000000" points="172,-343.9188 142,-343.9188 142,-325.9188 172,-325.9188 172,-343.9188"/>
<text text-anchor="middle" x="157" y="-332.7188" font-family="Times,serif" font-size="9.00" fill="#000000">dy2</text>
</g>
<!-- dy2&#45;&gt;0 -->
<g id="edge14" class="edge">
<title>dy2&#45;&gt;0</title>
<path fill="none" stroke="#ff0000" stroke-width=".1376" stroke-dasharray="1,5" d="M151.9592,-325.6156C137.6353,-297.8014 99.8087,-213.6899 133,-156.8528 168.7701,-95.5997 204.8873,-101.39 272,-78.4264 404.2389,-33.1789 573.7072,-23.713 636.8331,-21.7349"/>
<polygon fill="#ff0000" stroke="#ff0000" stroke-width=".1376" points="637.1229,-25.2283 647.0224,-21.4535 636.9295,-18.231 637.1229,-25.2283"/>
</g>
<!-- 499 -->
<g id="node31" class="node">
<title>499</title>
<ellipse fill="#ffffff" stroke="#000000" cx="480" cy="-256.4924" rx="21.4286" ry="21.4286"/>
<text text-anchor="middle" x="480" y="-254.2924" font-family="Times,serif" font-size="9.00" fill="#000000">499</text>
</g>
<!-- dy2&#45;&gt;499 -->
<g id="edge43" class="edge">
<title>dy2&#45;&gt;499</title>
<path fill="none" stroke="#ff0000" stroke-width=".32" d="M172.2878,-334.1867C216.8734,-331.5868 349.9285,-320.5067 450,-277.7056 451.5725,-277.033 453.1448,-276.2686 454.6995,-275.439"/>
<polygon fill="#ff0000" stroke="#ff0000" stroke-width=".32" points="456.6044,-278.3766 463.293,-270.1599 452.9403,-272.4121 456.6044,-278.3766"/>
</g>
<!-- &#45;8 -->
<g id="node8" class="node">
<title>&#45;8</title>
<polygon fill="#d3d3d3" stroke="#000000" points="345,-500.7716 321,-500.7716 321,-482.7716 345,-482.7716 345,-500.7716"/>
<text text-anchor="middle" x="333" y="-489.5716" font-family="Times,serif" font-size="9.00" fill="#000000">&#45;8</text>
</g>
<!-- &#45;8&#45;&gt;0 -->
<g id="edge15" class="edge">
<title>&#45;8&#45;&gt;0</title>
<path fill="none" stroke="#ff0000" stroke-width=".2551" d="M320.7534,-488.8862C260.6758,-474.3844 0,-407.2911 0,-334.9188 0,-334.9188 0,-334.9188 0,-178.066 0,-112.1022 49.7597,-105.3026 110,-78.4264 206.3791,-35.4268 542.051,-24.1231 636.877,-21.7569"/>
<polygon fill="#ff0000" stroke="#ff0000" stroke-width=".2551" points="637.0642,-25.2536 646.978,-21.5165 636.8975,-18.2556 637.0642,-25.2536"/>
</g>
<!-- &#45;8&#45;&gt;2 -->
<g id="edge16" class="edge">
<title>&#45;8&#45;&gt;2</title>
<path fill="none" stroke="#00ff00" stroke-width=".1389" stroke-dasharray="1,5" d="M345.2075,-489.7902C403.9989,-480.2376 655.7921,-439.2073 672,-434.5584 759.8145,-409.3706 788.6645,-410.6089 862,-356.132 898.1151,-329.3041 910.9023,-320.086 926,-277.7056 935.1416,-252.0445 926.2984,-221.0148 917.8672,-200.4736"/>
<polygon fill="#00ff00" stroke="#00ff00" stroke-width=".1389" points="921.0657,-199.0522 913.842,-191.3018 914.6559,-201.8654 921.0657,-199.0522"/>
</g>
<!-- 433 -->
<g id="node28" class="node">
<title>433</title>
<ellipse fill="#ffffff" stroke="#000000" cx="163" cy="-178.066" rx="21.4286" ry="21.4286"/>
<text text-anchor="middle" x="163" y="-175.866" font-family="Times,serif" font-size="9.00" fill="#000000">433</text>
</g>
<!-- &#45;8&#45;&gt;433 -->
<g id="edge54" class="edge">
<title>&#45;8&#45;&gt;433</title>
<path fill="none" stroke="#00ff00" stroke-width=".4201" d="M320.8747,-488.5593C282.994,-477.7462 167.348,-438.63 133,-356.132 112.3548,-306.5458 120.1557,-287.4332 133,-235.2792 135.6149,-224.6613 140.5896,-213.8323 145.7473,-204.4931"/>
<polygon fill="#00ff00" stroke="#00ff00" stroke-width=".4201" points="148.8552,-206.112 150.8854,-195.7135 142.8137,-202.5764 148.8552,-206.112"/>
</g>
<!-- &#45;8&#45;&gt;372 -->
<g id="edge39" class="edge">
<title>&#45;8&#45;&gt;372</title>
<path fill="none" stroke="#00ff00" stroke-width=".5162" stroke-dasharray="1,5" d="M343.746,-482.6606C372.7487,-458.0706 453.1647,-389.8896 493.8139,-355.4251"/>
<polygon fill="#00ff00" stroke="#00ff00" stroke-width=".5162" points="496.2552,-357.9439 501.6193,-348.8073 491.7283,-352.6047 496.2552,-357.9439"/>
</g>
<!-- 596 -->
<g id="node32" class="node">
<title>596</title>
<ellipse fill="#ffffff" stroke="#000000" cx="242" cy="-413.3452" rx="21.4286" ry="21.4286"/>
<text text-anchor="middle" x="242" y="-411.1452" font-family="Times,serif" font-size="9.00" fill="#000000">596</text>
</g>
<!-- &#45;8&#45;&gt;596 -->
<g id="edge55" class="edge">
<title>&#45;8&#45;&gt;596</title>
<path fill="none" stroke="#ff0000" stroke-width=".1867" d="M322.2038,-482.4671C308.4858,-470.6446 284.4062,-449.8921 266.2011,-434.2025"/>
<polygon fill="#ff0000" stroke="#ff0000" stroke-width=".1867" points="268.1683,-431.2774 258.3084,-427.4002 263.5984,-436.5799 268.1683,-431.2774"/>
</g>
<!-- 316 -->
<g id="node34" class="node">
<title>316</title>
<ellipse fill="#ffffff" stroke="#000000" cx="504" cy="-99.6396" rx="21.4286" ry="21.4286"/>
<text text-anchor="middle" x="504" y="-97.4396" font-family="Times,serif" font-size="9.00" fill="#000000">316</text>
</g>
<!-- &#45;8&#45;&gt;316 -->
<g id="edge33" class="edge">
<title>&#45;8&#45;&gt;316</title>
<path fill="none" stroke="#00ff00" stroke-width=".7135" stroke-dasharray="1,5" d="M332.8978,-482.3379C332.8863,-447.5185 336.1052,-323.6719 380,-235.2792 404.0232,-186.9027 450.499,-143.1926 479.227,-119.1322"/>
<polygon fill="#00ff00" stroke="#00ff00" stroke-width=".7135" points="481.6753,-121.6503 487.1769,-112.5958 477.2297,-116.2432 481.6753,-121.6503"/>
</g>
<!-- 638 -->
<g id="node35" class="node">
<title>638</title>
<ellipse fill="#ffffff" stroke="#000000" cx="496" cy="-413.3452" rx="21.4286" ry="21.4286"/>
<text text-anchor="middle" x="496" y="-411.1452" font-family="Times,serif" font-size="9.00" fill="#000000">638</text>
</g>
<!-- &#45;8&#45;&gt;638 -->
<g id="edge59" class="edge">
<title>&#45;8&#45;&gt;638</title>
<path fill="none" stroke="#ff0000" stroke-width=".3489" d="M345.238,-486.8988C368.3015,-477.5856 419.6029,-456.2479 461,-434.5584 463.7437,-433.1209 466.5679,-431.5578 469.3656,-429.9536"/>
<polygon fill="#ff0000" stroke="#ff0000" stroke-width=".3489" points="471.2599,-432.8996 478.0812,-424.7927 467.6932,-426.8764 471.2599,-432.8996"/>
</g>
<!-- &#45;9 -->
<g id="node9" class="node">
<title>&#45;9</title>
<polygon fill="#d3d3d3" stroke="#000000" points="1073,-265.4924 1049,-265.4924 1049,-247.4924 1073,-247.4924 1073,-265.4924"/>
<text text-anchor="middle" x="1061" y="-254.2924" font-family="Times,serif" font-size="9.00" fill="#000000">&#45;9</text>
</g>
<!-- &#45;9&#45;&gt;2 -->
<g id="edge17" class="edge">
<title>&#45;9&#45;&gt;2</title>
<path fill="none" stroke="#00ff00" stroke-width=".2359" d="M1050.8861,-247.0938C1046.2709,-243.116 1040.595,-238.6361 1035,-235.2792 999.4685,-213.9613 986.628,-216.6306 949,-199.2792 942.6713,-196.3609 935.8963,-193.0318 929.6754,-189.8897"/>
<polygon fill="#00ff00" stroke="#00ff00" stroke-width=".2359" points="930.9957,-186.6337 920.4993,-185.1922 927.8058,-192.8647 930.9957,-186.6337"/>
</g>
<!-- &#45;10 -->
<g id="node10" class="node">
<title>&#45;10</title>
<polygon fill="#d3d3d3" stroke="#000000" points="762.5,-265.4924 733.5,-265.4924 733.5,-247.4924 762.5,-247.4924 762.5,-265.4924"/>
<text text-anchor="middle" x="748" y="-254.2924" font-family="Times,serif" font-size="9.00" fill="#000000">&#45;10</text>
</g>
<!-- &#45;10&#45;&gt;0 -->
<g id="edge18" class="edge">
<title>&#45;10&#45;&gt;0</title>
<path fill="none" stroke="#ff0000" stroke-width=".3069" d="M745.3197,-247.4833C737.4099,-221.1509 713.1412,-142.1526 688,-78.4264 683.4486,-66.8897 677.8128,-54.318 672.9531,-43.905"/>
<polygon fill="#ff0000" stroke="#ff0000" stroke-width=".3069" points="676.0326,-42.2298 668.5923,-34.6871 669.7049,-45.2234 676.0326,-42.2298"/>
</g>
<!-- &#45;10&#45;&gt;1 -->
<g id="edge19" class="edge">
<title>&#45;10&#45;&gt;1</title>
<path fill="none" stroke="#00ff00" stroke-width=".6165" d="M739.4265,-247.118C735.1559,-242.9499 729.6943,-238.3102 724,-235.2792 658.7832,-200.566 571.3031,-186.0272 528.9951,-180.72"/>
<polygon fill="#00ff00" stroke="#00ff00" stroke-width=".6165" points="529.3605,-177.2389 519.0179,-179.5367 528.536,-184.1902 529.3605,-177.2389"/>
</g>
<!-- &#45;10&#45;&gt;2 -->
<g id="edge20" class="edge">
<title>&#45;10&#45;&gt;2</title>
<path fill="none" stroke="#00ff00" stroke-width=".8382" stroke-dasharray="1,5" d="M756.7861,-247.4845C761.1033,-243.3966 766.5426,-238.7186 772,-235.2792 808.0912,-212.5337 854.7845,-195.0493 882.7312,-185.6855"/>
<polygon fill="#00ff00" stroke="#00ff00" stroke-width=".8382" points="884.0478,-188.9374 892.4629,-182.5004 881.8703,-182.2846 884.0478,-188.9374"/>
</g>
<!-- &#45;11 -->
<g id="node11" class="node">
<title>&#45;11</title>
<polygon fill="#d3d3d3" stroke="#000000" points="171.5,-265.4924 142.5,-265.4924 142.5,-247.4924 171.5,-247.4924 171.5,-265.4924"/>
<text text-anchor="middle" x="157" y="-254.2924" font-family="Times,serif" font-size="9.00" fill="#000000">&#45;11</text>
</g>
<!-- &#45;11&#45;&gt;1 -->
<g id="edge21" class="edge">
<title>&#45;11&#45;&gt;1</title>
<path fill="none" stroke="#ff0000" stroke-width=".2498" stroke-dasharray="1,5" d="M171.6132,-250.8828C184.0714,-246.2483 202.526,-239.7303 219,-235.2792 313.8904,-209.6408 429.3628,-189.8972 479.1721,-181.9193"/>
<polygon fill="#ff0000" stroke="#ff0000" stroke-width=".2498" points="479.98,-185.335 489.3093,-180.3136 478.8848,-178.4212 479.98,-185.335"/>
</g>
<!-- &#45;11&#45;&gt;433 -->
<g id="edge38" class="edge">
<title>&#45;11&#45;&gt;433</title>
<path fill="none" stroke="#ff0000" stroke-width=".1952" d="M157.7118,-247.1879C158.4242,-237.876 159.5605,-223.024 160.5975,-209.4695"/>
<polygon fill="#ff0000" stroke="#ff0000" stroke-width=".1952" points="164.0893,-209.7083 161.3625,-199.4705 157.1097,-209.1743 164.0893,-209.7083"/>
</g>
<!-- &#45;12 -->
<g id="node12" class="node">
<title>&#45;12</title>
<polygon fill="#d3d3d3" stroke="#000000" points="1254.5,-265.4924 1225.5,-265.4924 1225.5,-247.4924 1254.5,-247.4924 1254.5,-265.4924"/>
<text text-anchor="middle" x="1240" y="-254.2924" font-family="Times,serif" font-size="9.00" fill="#000000">&#45;12</text>
</g>
<!-- &#45;12&#45;&gt;0 -->
<g id="edge22" class="edge">
<title>&#45;12&#45;&gt;0</title>
<path fill="none" stroke="#00ff00" stroke-width=".15" d="M1229.2313,-247.3854C1223.9815,-243.2758 1217.4248,-238.6081 1211,-235.2792 1166.4499,-212.1963 1147.4045,-224.4503 1104,-199.2792 1034.05,-158.7139 1040.6109,-114.0102 968,-78.4264 918.1086,-53.9765 750.9739,-31.8953 687.1051,-24.1492"/>
<polygon fill="#00ff00" stroke="#00ff00" stroke-width=".15" points="687.4452,-20.665 677.1,-22.9511 686.6128,-27.6153 687.4452,-20.665"/>
</g>
<!-- &#45;12&#45;&gt;2 -->
<g id="edge23" class="edge">
<title>&#45;12&#45;&gt;2</title>
<path fill="none" stroke="#00ff00" stroke-width=".4686" d="M1225.4332,-250.7036C1213.0033,-245.9597 1194.5642,-239.3819 1178,-235.2792 1077.9941,-210.5095 1047.0596,-230.8867 949,-199.2792 942.2649,-197.1083 935.2788,-193.9776 928.9828,-190.7853"/>
<polygon fill="#00ff00" stroke="#00ff00" stroke-width=".4686" points="930.2578,-187.4972 919.7922,-185.8472 926.9446,-193.6635 930.2578,-187.4972"/>
</g>
<!-- 467 -->
<g id="node29" class="node">
<title>467</title>
<ellipse fill="#ffffff" stroke="#000000" cx="1182" cy="-21.2132" rx="21.4286" ry="21.4286"/>
<text text-anchor="middle" x="1182" y="-19.0132" font-family="Times,serif" font-size="9.00" fill="#000000">467</text>
</g>
<!-- &#45;12&#45;&gt;467 -->
<g id="edge40" class="edge">
<title>&#45;12&#45;&gt;467</title>
<path fill="none" stroke="#00ff00" stroke-width="1.3371" stroke-dasharray="1,5" d="M1237.7263,-247.2692C1229.7545,-214.9311 1202.8378,-105.7427 1189.5495,-51.8381"/>
<polygon fill="#00ff00" stroke="#00ff00" stroke-width="1.3371" points="1192.8751,-50.705 1187.0832,-41.8334 1186.0785,-52.3805 1192.8751,-50.705"/>
</g>
<!-- &#45;13 -->
<g id="node13" class="node">
<title>&#45;13</title>
<polygon fill="#d3d3d3" stroke="#000000" points="594.5,-500.7716 565.5,-500.7716 565.5,-482.7716 594.5,-482.7716 594.5,-500.7716"/>
<text text-anchor="middle" x="580" y="-489.5716" font-family="Times,serif" font-size="9.00" fill="#000000">&#45;13</text>
</g>
<!-- &#45;13&#45;&gt;1 -->
<g id="edge24" class="edge">
<title>&#45;13&#45;&gt;1</title>
<path fill="none" stroke="#ff0000" stroke-width=".4934" d="M565.3328,-486.0084C528.5507,-471.5525 435.2921,-434.8801 435,-434.5584 386.2486,-380.8638 400.0984,-349.5237 390,-277.7056 387.3745,-259.0331 380.0987,-251.3267 390,-235.2792 409.4013,-203.8347 451.9392,-189.075 479.213,-182.6086"/>
<polygon fill="#ff0000" stroke="#ff0000" stroke-width=".4934" points="480.144,-185.9882 489.1774,-180.4522 478.6634,-179.1466 480.144,-185.9882"/>
</g>
<!-- &#45;13&#45;&gt;2 -->
<g id="edge25" class="edge">
<title>&#45;13&#45;&gt;2</title>
<path fill="none" stroke="#00ff00" stroke-width=".4323" stroke-dasharray="1,5" d="M594.7197,-490.8806C665.6474,-486.4406 969.8624,-465.6736 997,-434.5584 1055.2156,-367.8102 1039.6383,-312.9089 997,-235.2792 989.5969,-221.8006 953.9071,-201.7247 929.7571,-189.2882"/>
<polygon fill="#00ff00" stroke="#00ff00" stroke-width=".4323" points="931.0391,-186.0143 920.5364,-184.6201 927.8773,-192.2596 931.0391,-186.0143"/>
</g>
<!-- 567 -->
<g id="node21" class="node">
<title>567</title>
<ellipse fill="#ffffff" stroke="#000000" cx="556" cy="-413.3452" rx="21.4286" ry="21.4286"/>
<text text-anchor="middle" x="556" y="-411.1452" font-family="Times,serif" font-size="9.00" fill="#000000">567</text>
</g>
<!-- &#45;13&#45;&gt;567 -->
<g id="edge50" class="edge">
<title>&#45;13&#45;&gt;567</title>
<path fill="none" stroke="#ff0000" stroke-width=".954" d="M577.1526,-482.4671C574.2151,-472.868 569.4761,-457.3818 565.2275,-443.4985"/>
<polygon fill="#ff0000" stroke="#ff0000" stroke-width=".954" points="568.5264,-442.3177 562.2533,-433.7797 561.8328,-444.3662 568.5264,-442.3177"/>
</g>
<!-- 583 -->
<g id="node22" class="node">
<title>583</title>
<ellipse fill="#ffffff" stroke="#000000" cx="420" cy="-256.4924" rx="21.4286" ry="21.4286"/>
<text text-anchor="middle" x="420" y="-254.2924" font-family="Times,serif" font-size="9.00" fill="#000000">583</text>
</g>
<!-- &#45;13&#45;&gt;583 -->
<g id="edge68" class="edge">
<title>&#45;13&#45;&gt;583</title>
<path fill="none" stroke="#ff0000" stroke-width=".2306" d="M565.412,-485.8466C538.1798,-474.5658 481.0046,-449.7738 466,-434.5584 427.1861,-395.1994 419.832,-327.637 419.1381,-288.0187"/>
<polygon fill="#ff0000" stroke="#ff0000" stroke-width=".2306" points="422.6376,-287.8549 419.0961,-277.8695 415.6377,-287.8839 422.6376,-287.8549"/>
</g>
<!-- &#45;13&#45;&gt;372 -->
<g id="edge45" class="edge">
<title>&#45;13&#45;&gt;372</title>
<path fill="none" stroke="#ff0000" stroke-width=".2937" d="M583.2888,-482.7142C589.3151,-464.5447 600.2613,-422.7686 586,-392.132 581.3838,-382.2154 561.0191,-365.7313 543.7681,-352.9976"/>
<polygon fill="#ff0000" stroke="#ff0000" stroke-width=".2937" points="545.7812,-350.134 535.6322,-347.093 541.6696,-355.7993 545.7812,-350.134"/>
</g>
<!-- &#45;13&#45;&gt;415 -->
<g id="edge36" class="edge">
<title>&#45;13&#45;&gt;415</title>
<path fill="none" stroke="#ff0000" stroke-width=".3254" d="M594.511,-491.1703C662.0587,-488.1811 945.706,-473.4822 1024,-434.5584 1111.4813,-391.0673 1141.028,-368.1353 1178,-277.7056 1185.1359,-260.2519 1189.3862,-250.3095 1178,-235.2792 1142.3152,-188.1736 1106.7577,-215.7386 1050,-199.2792 1036.5457,-195.3776 1021.6914,-190.9571 1009.0622,-187.165"/>
<polygon fill="#ff0000" stroke="#ff0000" stroke-width=".3254" points="1010.0647,-183.8117 999.4802,-184.2805 1008.0468,-190.5146 1010.0647,-183.8117"/>
</g>
<!-- &#45;14 -->
<g id="node14" class="node">
<title>&#45;14</title>
<polygon fill="#d3d3d3" stroke="#000000" points="1120.5,-265.4924 1091.5,-265.4924 1091.5,-247.4924 1120.5,-247.4924 1120.5,-265.4924"/>
<text text-anchor="middle" x="1106" y="-254.2924" font-family="Times,serif" font-size="9.00" fill="#000000">&#45;14</text>
</g>
<!-- &#45;14&#45;&gt;2 -->
<g id="edge26" class="edge">
<title>&#45;14&#45;&gt;2</title>
<path fill="none" stroke="#00ff00" stroke-width=".3039" d="M1097.4129,-247.1434C1093.1394,-242.9807 1087.6792,-238.3384 1082,-235.2792 1028.0858,-206.2381 1006.1817,-221.1966 949,-199.2792 942.3924,-196.7466 935.4475,-193.499 929.1502,-190.3103"/>
<polygon fill="#00ff00" stroke="#00ff00" stroke-width=".3039" points="930.4086,-187.0176 919.929,-185.4592 927.1495,-193.2126 930.4086,-187.0176"/>
</g>
<!-- &#45;15 -->
<g id="node15" class="node">
<title>&#45;15</title>
<polygon fill="#d3d3d3" stroke="#000000" points="257.5,-265.4924 228.5,-265.4924 228.5,-247.4924 257.5,-247.4924 257.5,-265.4924"/>
<text text-anchor="middle" x="243" y="-254.2924" font-family="Times,serif" font-size="9.00" fill="#000000">&#45;15</text>
</g>
<!-- &#45;15&#45;&gt;1 -->
<g id="edge27" class="edge">
<title>&#45;15&#45;&gt;1</title>
<path fill="none" stroke="#00ff00" stroke-width=".5137" stroke-dasharray="1,5" d="M251.1253,-247.0617C255.1981,-242.8811 260.4416,-238.2473 266,-235.2792 337.3408,-197.1846 434.1398,-184.1106 479.1208,-179.9093"/>
<polygon fill="#00ff00" stroke="#00ff00" stroke-width=".5137" points="479.4859,-183.3909 489.147,-179.042 478.8825,-176.4169 479.4859,-183.3909"/>
</g>
<!-- &#45;15&#45;&gt;433 -->
<g id="edge65" class="edge">
<title>&#45;15&#45;&gt;433</title>
<path fill="none" stroke="#00ff00" stroke-width=".4201" d="M233.5088,-247.1879C221.7711,-235.6811 201.4043,-215.7149 185.5687,-200.1908"/>
<polygon fill="#00ff00" stroke="#00ff00" stroke-width=".4201" points="187.8077,-197.4844 178.2165,-192.9832 182.9073,-202.4831 187.8077,-197.4844"/>
</g>
<!-- &#45;16 -->
<g id="node16" class="node">
<title>&#45;16</title>
<polygon fill="#d3d3d3" stroke="#000000" points="586.5,-265.4924 557.5,-265.4924 557.5,-247.4924 586.5,-247.4924 586.5,-265.4924"/>
<text text-anchor="middle" x="572" y="-254.2924" font-family="Times,serif" font-size="9.00" fill="#000000">&#45;16</text>
</g>
<!-- &#45;16&#45;&gt;0 -->
<g id="edge28" class="edge">
<title>&#45;16&#45;&gt;0</title>
<path fill="none" stroke="#ff0000" stroke-width=".1749" stroke-dasharray="1,5" d="M575.5281,-247.2692C588.4805,-213.4088 633.663,-95.2923 653.0514,-44.6067"/>
<polygon fill="#ff0000" stroke="#ff0000" stroke-width=".1749" points="656.3685,-45.7312 656.6724,-35.1407 649.8305,-43.2302 656.3685,-45.7312"/>
</g>
<!-- &#45;16&#45;&gt;1 -->
<g id="edge29" class="edge">
<title>&#45;16&#45;&gt;1</title>
<path fill="none" stroke="#00ff00" stroke-width=".1839" d="M563.9325,-247.1879C553.2672,-234.8874 534.2204,-212.9201 520.4566,-197.0459"/>
<polygon fill="#00ff00" stroke="#00ff00" stroke-width=".1839" points="523.0083,-194.6461 513.8129,-189.3835 517.7195,-199.2318 523.0083,-194.6461"/>
</g>
<!-- &#45;17 -->
<g id="node17" class="node">
<title>&#45;17</title>
<polygon fill="#d3d3d3" stroke="#000000" points="304.5,-265.4924 275.5,-265.4924 275.5,-247.4924 304.5,-247.4924 304.5,-265.4924"/>
<text text-anchor="middle" x="290" y="-254.2924" font-family="Times,serif" font-size="9.00" fill="#000000">&#45;17</text>
</g>
<!-- &#45;17&#45;&gt;0 -->
<g id="edge30" class="edge">
<title>&#45;17&#45;&gt;0</title>
<path fill="none" stroke="#00ff00" stroke-width=".5277" stroke-dasharray="1,5" d="M292.199,-247.3119C299.8238,-217.5898 328.0603,-123.325 389,-78.4264 428.6383,-49.222 577.5504,-30.3148 637.1324,-23.7724"/>
<polygon fill="#00ff00" stroke="#00ff00" stroke-width=".5277" points="637.6022,-27.2422 647.1716,-22.695 636.8552,-20.2821 637.6022,-27.2422"/>
</g>
<!-- &#45;17&#45;&gt;1 -->
<g id="edge31" class="edge">
<title>&#45;17&#45;&gt;1</title>
<path fill="none" stroke="#00ff00" stroke-width=".239" stroke-dasharray="1,5" d="M304.7091,-251.1019C341.1643,-237.7418 435.9463,-203.0062 480.3721,-186.7251"/>
<polygon fill="#00ff00" stroke="#00ff00" stroke-width=".239" points="481.8448,-189.9131 490.0298,-183.1858 479.4361,-183.3406 481.8448,-189.9131"/>
</g>
<!-- 670 -->
<g id="node26" class="node">
<title>670</title>
<ellipse fill="#ffffff" stroke="#000000" cx="266" cy="-178.066" rx="21.4286" ry="21.4286"/>
<text text-anchor="middle" x="266" y="-175.866" font-family="Times,serif" font-size="9.00" fill="#000000">670</text>
</g>
<!-- &#45;17&#45;&gt;670 -->
<g id="edge72" class="edge">
<title>&#45;17&#45;&gt;670</title>
<path fill="none" stroke="#00ff00" stroke-width=".2437" d="M287.1526,-247.1879C284.2151,-237.5888 279.4761,-222.1026 275.2275,-208.2193"/>
<polygon fill="#00ff00" stroke="#00ff00" stroke-width=".2437" points="278.5264,-207.0385 272.2533,-198.5004 271.8328,-209.0869 278.5264,-207.0385"/>
</g>
<!-- 1&#45;&gt;316 -->
<g id="edge67" class="edge">
<title>1&#45;&gt;316</title>
<path fill="none" stroke="#00ff00" stroke-width=".1826" d="M504,-162.9446C504,-153.9046 504,-142.0757 504,-131.0927"/>
<polygon fill="#00ff00" stroke="#00ff00" stroke-width=".1826" points="507.5001,-130.9405 504,-120.9405 500.5001,-130.9405 507.5001,-130.9405"/>
</g>
<!-- 2&#45;&gt;2 -->
<g id="edge32" class="edge">
<title>2&#45;&gt;2</title>
<path fill="none" stroke="#ff0000" stroke-width=".1426" stroke-dasharray="1,5" d="M917.0894,-189.2597C927.7861,-196.2699 939.8492,-192.5387 939.8492,-178.066 939.8492,-167.8899 933.8854,-163.0242 926.6261,-163.4689"/>
<polygon fill="#ff0000" stroke="#ff0000" stroke-width=".1426" points="925.3312,-160.2148 917.0894,-166.8723 927.6841,-166.8075 925.3312,-160.2148"/>
</g>
<!-- 535 -->
<g id="node33" class="node">
<title>535</title>
<ellipse fill="#ffffff" stroke="#000000" cx="458" cy="-334.9188" rx="21.4286" ry="21.4286"/>
<text text-anchor="middle" x="458" y="-332.7188" font-family="Times,serif" font-size="9.00" fill="#000000">535</text>
</g>
<!-- 567&#45;&gt;535 -->
<g id="edge51" class="edge">
<title>567&#45;&gt;535</title>
<path fill="none" stroke="#00ff00" stroke-width=".1813" d="M539.3756,-400.0413C523.8889,-387.6477 500.5922,-369.0041 482.8887,-354.8365"/>
<polygon fill="#00ff00" stroke="#00ff00" stroke-width=".1813" points="484.7005,-351.8036 474.7059,-348.2881 480.3267,-357.269 484.7005,-351.8036"/>
</g>
<!-- 583&#45;&gt;1 -->
<g id="edge53" class="edge">
<title>583&#45;&gt;1</title>
<path fill="none" stroke="#ff0000" stroke-width=".5746" d="M435.7998,-241.741C449.9147,-228.5627 470.6028,-209.2472 485.4887,-195.3491"/>
<polygon fill="#ff0000" stroke="#ff0000" stroke-width=".5746" points="488.1622,-197.6413 493.0831,-188.2586 483.3851,-192.5247 488.1622,-197.6413"/>
</g>
<!-- 491 -->
<g id="node25" class="node">
<title>491</title>
<ellipse fill="#ffffff" stroke="#000000" cx="419" cy="-99.6396" rx="21.4286" ry="21.4286"/>
<text text-anchor="middle" x="419" y="-97.4396" font-family="Times,serif" font-size="9.00" fill="#000000">491</text>
</g>
<!-- 583&#45;&gt;491 -->
<g id="edge69" class="edge">
<title>583&#45;&gt;491</title>
<path fill="none" stroke="#ff0000" stroke-width=".181" d="M419.8631,-235.0116C419.6917,-208.1425 419.3971,-161.9254 419.2004,-131.0753"/>
<polygon fill="#ff0000" stroke="#ff0000" stroke-width=".181" points="422.6991,-130.8385 419.1353,-120.861 415.6992,-130.8832 422.6991,-130.8385"/>
</g>
<!-- 680 -->
<g id="node23" class="node">
<title>680</title>
<ellipse fill="#ffffff" stroke="#000000" cx="496" cy="-491.7716" rx="21.4286" ry="21.4286"/>
<text text-anchor="middle" x="496" y="-489.5716" font-family="Times,serif" font-size="9.00" fill="#000000">680</text>
</g>
<!-- 680&#45;&gt;638 -->
<g id="edge66" class="edge">
<title>680&#45;&gt;638</title>
<path fill="none" stroke="#ff0000" stroke-width=".3646" d="M496,-470.3413C496,-462.474 496,-453.3951 496,-444.8287"/>
<polygon fill="#ff0000" stroke="#ff0000" stroke-width=".3646" points="499.5001,-444.7497 496,-434.7497 492.5001,-444.7497 499.5001,-444.7497"/>
</g>
<!-- 713 -->
<g id="node24" class="node">
<title>713</title>
<ellipse fill="#ffffff" stroke="#000000" cx="867" cy="-99.6396" rx="21.4286" ry="21.4286"/>
<text text-anchor="middle" x="867" y="-97.4396" font-family="Times,serif" font-size="9.00" fill="#000000">713</text>
</g>
<!-- 713&#45;&gt;0 -->
<g id="edge71" class="edge">
<title>713&#45;&gt;0</title>
<path fill="none" stroke="#00ff00" stroke-width=".3925" d="M846.9705,-91.977C808.7978,-77.3733 725.8267,-45.6313 685.2653,-30.1138"/>
<polygon fill="#00ff00" stroke="#00ff00" stroke-width=".3925" points="686.5104,-26.8427 675.9199,-26.5385 684.0091,-33.3806 686.5104,-26.8427"/>
</g>
<!-- 491&#45;&gt;0 -->
<g id="edge42" class="edge">
<title>491&#45;&gt;0</title>
<path fill="none" stroke="#00ff00" stroke-width="1.498" d="M438.729,-91.6305C449.1506,-87.5016 462.1951,-82.4932 474,-78.4264 532.1295,-58.4008 601.5809,-38.2175 637.6084,-28.0221"/>
<polygon fill="#00ff00" stroke="#00ff00" stroke-width="1.498" points="638.5807,-31.3846 647.2574,-25.3046 636.683,-24.6467 638.5807,-31.3846"/>
</g>
<!-- 491&#45;&gt;491 -->
<g id="edge57" class="edge">
<title>491&#45;&gt;491</title>
<path fill="none" stroke="#00ff00" stroke-width=".2832" stroke-dasharray="1,5" d="M435.9286,-112.9756C447.2212,-116.7295 458.2132,-112.2841 458.2132,-99.6396 458.2132,-90.9465 453.0178,-86.1288 446.1011,-85.1865"/>
<polygon fill="#00ff00" stroke="#00ff00" stroke-width=".2832" points="445.4868,-81.7328 435.9286,-86.3036 446.2509,-88.691 445.4868,-81.7328"/>
</g>
<!-- 670&#45;&gt;0 -->
<g id="edge63" class="edge">
<title>670&#45;&gt;0</title>
<path fill="none" stroke="#ff0000" stroke-width="1.17" d="M267.3161,-156.5907C269.9426,-133.5933 277.7663,-97.8015 301,-78.4264 352.3375,-35.6149 563.6827,-24.5191 636.8959,-21.9323"/>
<polygon fill="#ff0000" stroke="#ff0000" stroke-width="1.17" points="637.1594,-25.4256 647.0387,-21.5981 636.9288,-18.4294 637.1594,-25.4256"/>
</g>
<!-- 526&#45;&gt;0 -->
<g id="edge46" class="edge">
<title>526&#45;&gt;0</title>
<path fill="none" stroke="#00ff00" stroke-width=".321" d="M1135.5545,-87.0994C1130.1585,-83.7737 1124.0396,-80.5279 1118,-78.4264 1037.0476,-50.2587 770.7815,-29.0721 687.2797,-22.9891"/>
<polygon fill="#00ff00" stroke="#00ff00" stroke-width=".321" points="687.3965,-19.4886 677.1711,-22.2619 686.8942,-26.4705 687.3965,-19.4886"/>
</g>
<!-- 526&#45;&gt;467 -->
<g id="edge52" class="edge">
<title>526&#45;&gt;467</title>
<path fill="none" stroke="#ff0000" stroke-width="1.0636" d="M1160.4682,-79.4429C1163.6818,-70.7523 1167.5033,-60.4176 1171.0285,-50.884"/>
<polygon fill="#ff0000" stroke="#ff0000" stroke-width="1.0636" points="1174.3716,-51.9347 1174.5571,-41.3415 1167.806,-49.5069 1174.3716,-51.9347"/>
</g>
<!-- 372&#45;&gt;2 -->
<g id="edge35" class="edge">
<title>372&#45;&gt;2</title>
<path fill="none" stroke="#00ff00" stroke-width=".1379" stroke-dasharray="1,5" d="M539.6792,-334.5725C610.352,-332.9933 832.4298,-324.3426 883,-277.7056 903.3458,-258.9424 907.8276,-226.1951 908.2121,-203.3844"/>
<polygon fill="#00ff00" stroke="#00ff00" stroke-width=".1379" points="911.7095,-203.0588 908.1233,-193.0894 904.7098,-203.1193 911.7095,-203.0588"/>
</g>
<!-- 372&#45;&gt;499 -->
<g id="edge61" class="edge">
<title>372&#45;&gt;499</title>
<path fill="none" stroke="#00ff00" stroke-width=".1793" d="M508.6067,-315.5325C504.0971,-306.2252 498.6075,-294.8957 493.6478,-284.6595"/>
<polygon fill="#00ff00" stroke="#00ff00" stroke-width=".1793" points="496.7954,-283.1288 489.2852,-275.6557 490.4959,-286.1812 496.7954,-283.1288"/>
</g>
<!-- 499&#45;&gt;1 -->
<g id="edge44" class="edge">
<title>499&#45;&gt;1</title>
<path fill="none" stroke="#ff0000" stroke-width=".3978" d="M486.3057,-235.8868C489.4631,-225.5691 493.3052,-213.0141 496.6014,-202.2428"/>
<polygon fill="#ff0000" stroke="#ff0000" stroke-width=".3978" points="499.9748,-203.18 499.5543,-192.5935 493.2812,-201.1316 499.9748,-203.18"/>
</g>
<!-- 596&#45;&gt;0 -->
<g id="edge56" class="edge">
<title>596&#45;&gt;0</title>
<path fill="none" stroke="#ff0000" stroke-width=".3303" d="M221.1307,-408.3193C196.0923,-401.1515 154.7726,-385.4847 133,-356.132 59.1474,-256.5681 56.4219,-148.0319 159,-78.4264 198.9191,-51.3388 540.3488,-28.6309 636.7489,-22.7146"/>
<polygon fill="#ff0000" stroke="#ff0000" stroke-width=".3303" points="637.2436,-26.1911 647.0132,-22.0916 636.8194,-19.204 637.2436,-26.1911"/>
</g>
<!-- 596&#45;&gt;670 -->
<g id="edge62" class="edge">
<title>596&#45;&gt;670</title>
<path fill="none" stroke="#00ff00" stroke-width=".8121" d="M233.7089,-393.7394C220.7939,-360.248 199.2969,-290.3037 219,-235.2792 223.7872,-221.9101 233.1947,-209.4254 242.3435,-199.5514"/>
<polygon fill="#00ff00" stroke="#00ff00" stroke-width=".8121" points="245.0265,-201.8144 249.532,-192.2252 240.0301,-196.9117 245.0265,-201.8144"/>
</g>
<!-- 596&#45;&gt;535 -->
<g id="edge64" class="edge">
<title>596&#45;&gt;535</title>
<path fill="none" stroke="#00ff00" stroke-width=".2151" stroke-dasharray="1,5" d="M262.3208,-405.9671C300.6916,-392.0352 383.9459,-361.8068 428.4855,-345.6351"/>
<polygon fill="#00ff00" stroke="#00ff00" stroke-width=".2151" points="429.6855,-348.923 437.8906,-342.2203 427.2965,-342.3433 429.6855,-348.923"/>
</g>
<!-- 535&#45;&gt;2 -->
<g id="edge47" class="edge">
<title>535&#45;&gt;2</title>
<path fill="none" stroke="#00ff00" stroke-width=".5583" stroke-dasharray="1,5" d="M474.2629,-321.1565C478.4967,-318.2313 483.2192,-315.4904 488,-313.7056 639.4713,-257.1577 714.3302,-365.6542 850,-277.7056 864.1611,-268.5256 884.5328,-227.8817 896.6995,-201.4233"/>
<polygon fill="#00ff00" stroke="#00ff00" stroke-width=".5583" points="899.9968,-202.6262 900.9307,-192.0726 893.6193,-199.7403 899.9968,-202.6262"/>
</g>
<!-- 535&#45;&gt;499 -->
<g id="edge58" class="edge">
<title>535&#45;&gt;499</title>
<path fill="none" stroke="#ff0000" stroke-width=".5035" d="M463.7802,-314.3132C466.155,-305.8478 468.9522,-295.8761 471.5489,-286.6193"/>
<polygon fill="#ff0000" stroke="#ff0000" stroke-width=".5035" points="474.9273,-287.5341 474.2584,-276.9604 468.1874,-285.6434 474.9273,-287.5341"/>
</g>
<!-- 316&#45;&gt;0 -->
<g id="edge34" class="edge">
<title>316&#45;&gt;0</title>
<path fill="none" stroke="#00ff00" stroke-width=".6031" stroke-dasharray="1,5" d="M523.0585,-90.1796C552.2386,-75.6954 607.8873,-48.0731 639.1763,-32.5422"/>
<polygon fill="#00ff00" stroke="#00ff00" stroke-width=".6031" points="641.0136,-35.5377 648.4147,-27.9565 637.9013,-29.2676 641.0136,-35.5377"/>
</g>
<!-- 638&#45;&gt;372 -->
<g id="edge60" class="edge">
<title>638&#45;&gt;372</title>
<path fill="none" stroke="#00ff00" stroke-width=".3933" d="M501.7802,-392.7396C504.155,-384.2742 506.9522,-374.3025 509.5489,-365.0457"/>
<polygon fill="#00ff00" stroke="#00ff00" stroke-width=".3933" points="512.9273,-365.9605 512.2584,-355.3868 506.1874,-364.0698 512.9273,-365.9605"/>
</g>
<!-- 415&#45;&gt;0 -->
<g id="edge37" class="edge">
<title>415&#45;&gt;0</title>
<path fill="none" stroke="#ff0000" stroke-width=".1723" stroke-dasharray="1,5" d="M968.6145,-159.1421C955.1342,-136.4082 929.4476,-98.7925 897,-78.4264 829.3165,-35.9441 732.3951,-25.006 687.1104,-22.1897"/>
<polygon fill="#ff0000" stroke="#ff0000" stroke-width=".1723" points="687.1812,-18.6885 677.0074,-21.6456 686.8047,-25.6784 687.1812,-18.6885"/>
</g>
<!-- 415&#45;&gt;713 -->
<g id="edge70" class="edge">
<title>415&#45;&gt;713</title>
<path fill="none" stroke="#ff0000" stroke-width=".1783" d="M961.5632,-165.7086C957.447,-162.7991 953.0715,-159.7127 949,-156.8528 930.3029,-143.7199 909.1548,-128.9669 893.019,-117.7316"/>
<polygon fill="#ff0000" stroke="#ff0000" stroke-width=".1783" points="894.8248,-114.7242 884.6176,-111.8843 890.826,-120.4696 894.8248,-114.7242"/>
</g>
</g>
</svg>
