<?xml version="1.0" encoding="UTF-8" standalone="no"?>
<!DOCTYPE svg PUBLIC "-//W3C//DTD SVG 1.1//EN"
 "http://www.w3.org/Graphics/SVG/1.1/DTD/svg11.dtd">
<!-- Generated by graphviz version 2.40.1 (20161225.0304)
 -->
<!-- Title: %3 Pages: 1 -->
<svg width="981pt" height="405pt"
 viewBox="0.00 0.00 981.32 405.40" xmlns="http://www.w3.org/2000/svg" xmlns:xlink="http://www.w3.org/1999/xlink">
<g id="graph0" class="graph" transform="scale(1 1) rotate(0) translate(4 401.4041)">
<title>%3</title>
<polygon fill="#ffffff" stroke="transparent" points="-4,4 -4,-401.4041 977.3218,-401.4041 977.3218,4 -4,4"/>
<!-- num_lane_1 -->
<g id="node1" class="node">
<title>num_lane_1</title>
<polygon fill="#d3d3d3" stroke="#000000" points="464.0086,-331.1909 404.0086,-331.1909 404.0086,-313.1909 464.0086,-313.1909 464.0086,-331.1909"/>
<text text-anchor="middle" x="434.0086" y="-319.9909" font-family="Times,serif" font-size="9.00" fill="#000000">num_lane_1</text>
</g>
<!-- 0 -->
<g id="node8" class="node">
<title>0</title>
<ellipse fill="#add8e6" stroke="#000000" cx="342.0086" cy="-86.9117" rx="14.7" ry="14.7"/>
<text text-anchor="middle" x="342.0086" y="-84.7117" font-family="Times,serif" font-size="9.00" fill="#000000">0</text>
</g>
<!-- num_lane_1&#45;&gt;0 -->
<g id="edge18" class="edge">
<title>num_lane_1&#45;&gt;0</title>
<path fill="none" stroke="#00ff00" stroke-width=".3833" d="M418.8903,-313.1909C403.5486,-303.2792 380.2303,-285.9348 367.0086,-264.9777 337.1197,-217.6024 336.8482,-149.1566 339.3592,-112.4536"/>
<polygon fill="#00ff00" stroke="#00ff00" stroke-width=".3833" points="342.8758,-112.3915 340.1981,-102.1406 335.8988,-111.8239 342.8758,-112.3915"/>
</g>
<!-- 1 -->
<g id="node9" class="node">
<title>1</title>
<ellipse fill="#add8e6" stroke="#000000" cx="266.0086" cy="-14.8492" rx="14.7" ry="14.7"/>
<text text-anchor="middle" x="266.0086" y="-12.6492" font-family="Times,serif" font-size="9.00" fill="#000000">1</text>
</g>
<!-- num_lane_1&#45;&gt;1 -->
<g id="edge19" class="edge">
<title>num_lane_1&#45;&gt;1</title>
<path fill="none" stroke="#ff0000" stroke-width=".3814" d="M417.1475,-313.0109C394.362,-300.3342 355.3888,-277.6074 345.0086,-264.9777 289.0767,-196.925 272.5656,-88.9083 267.8357,-40.1739"/>
<polygon fill="#ff0000" stroke="#ff0000" stroke-width=".3814" points="271.2958,-39.5658 266.9319,-29.9115 264.3228,-40.18 271.2958,-39.5658"/>
</g>
<!-- 2 -->
<g id="node10" class="node">
<title>2</title>
<ellipse fill="#add8e6" stroke="#000000" cx="738.0086" cy="-86.9117" rx="14.7" ry="14.7"/>
<text text-anchor="middle" x="738.0086" y="-84.7117" font-family="Times,serif" font-size="9.00" fill="#000000">2</text>
</g>
<!-- num_lane_1&#45;&gt;2 -->
<g id="edge20" class="edge">
<title>num_lane_1&#45;&gt;2</title>
<path fill="none" stroke="#00ff00" stroke-width=".2507" stroke-dasharray="1,5" d="M463.5643,-313.1595C491.8312,-303.7192 534.928,-287.1802 568.0086,-264.9777 590.3007,-250.0161 588.4639,-237.1296 611.0086,-222.5513 648.2272,-198.4843 673.3091,-218.5198 704.0086,-186.5513 723.5922,-166.1581 731.9231,-134.0301 735.4498,-111.7945"/>
<polygon fill="#00ff00" stroke="#00ff00" stroke-width=".2507" points="738.9335,-112.1509 736.8234,-101.7683 731.9983,-111.2007 738.9335,-112.1509"/>
</g>
<!-- 55 -->
<g id="node13" class="node">
<title>55</title>
<ellipse fill="#ffffff" stroke="#000000" cx="812.0086" cy="-165.3381" rx="18.2703" ry="18.2703"/>
<text text-anchor="middle" x="812.0086" y="-163.1381" font-family="Times,serif" font-size="9.00" fill="#000000">55</text>
</g>
<!-- num_lane_1&#45;&gt;55 -->
<g id="edge1" class="edge">
<title>num_lane_1&#45;&gt;55</title>
<path fill="none" stroke="#00ff00" stroke-width=".4624" d="M464.1409,-320.1192C513.904,-315.714 615.3765,-302.5254 692.0086,-264.9777 732.0326,-245.367 770.1955,-209.7847 792.3454,-186.8751"/>
<polygon fill="#00ff00" stroke="#00ff00" stroke-width=".4624" points="795.1444,-189.0102 799.4891,-179.3472 790.0667,-184.1918 795.1444,-189.0102"/>
</g>
<!-- 56 -->
<g id="node14" class="node">
<title>56</title>
<ellipse fill="#ffffff" stroke="#000000" cx="394.0086" cy="-243.7645" rx="18.2703" ry="18.2703"/>
<text text-anchor="middle" x="394.0086" y="-241.5645" font-family="Times,serif" font-size="9.00" fill="#000000">56</text>
</g>
<!-- num_lane_1&#45;&gt;56 -->
<g id="edge2" class="edge">
<title>num_lane_1&#45;&gt;56</title>
<path fill="none" stroke="#00ff00" stroke-width=".2022" d="M429.263,-312.8864C423.8307,-302.2355 414.7018,-284.3368 407.0946,-269.4218"/>
<polygon fill="#00ff00" stroke="#00ff00" stroke-width=".2022" points="410.031,-267.4755 402.3695,-260.1575 403.7952,-270.656 410.031,-267.4755"/>
</g>
<!-- num_lane_2 -->
<g id="node2" class="node">
<title>num_lane_2</title>
<polygon fill="#d3d3d3" stroke="#000000" points="958.0086,-331.1909 898.0086,-331.1909 898.0086,-313.1909 958.0086,-313.1909 958.0086,-331.1909"/>
<text text-anchor="middle" x="928.0086" y="-319.9909" font-family="Times,serif" font-size="9.00" fill="#000000">num_lane_2</text>
</g>
<!-- num_lane_2&#45;&gt;0 -->
<g id="edge21" class="edge">
<title>num_lane_2&#45;&gt;0</title>
<path fill="none" stroke="#ff0000" stroke-width=".7818" d="M906.9759,-313.1063C896.3658,-308.8487 883.1926,-304.049 871.0086,-300.9777 757.8892,-272.4628 718.8734,-309.4104 611.0086,-264.9777 528.2807,-230.8996 525.5498,-192.0701 450.0086,-144.1249 421.734,-126.1793 387.273,-108.6149 365.0005,-97.7827"/>
<polygon fill="#ff0000" stroke="#ff0000" stroke-width=".7818" points="366.2195,-94.4851 355.6909,-93.3022 363.1838,-100.7927 366.2195,-94.4851"/>
</g>
<!-- num_lane_2&#45;&gt;1 -->
<g id="edge22" class="edge">
<title>num_lane_2&#45;&gt;1</title>
<path fill="none" stroke="#00ff00" stroke-width=".7236" d="M929.2565,-313.1591C932.5868,-286.1029 939.7128,-203.8903 913.0086,-144.1249 893.4585,-100.3707 882.1302,-86.6068 839.0086,-65.6985 789.1535,-41.5253 395.1618,-21.0515 291.1271,-16.028"/>
<polygon fill="#00ff00" stroke="#00ff00" stroke-width=".7236" points="291.0962,-12.5226 280.9404,-15.5409 290.7619,-19.5146 291.0962,-12.5226"/>
</g>
<!-- num_lane_2&#45;&gt;2 -->
<g id="edge23" class="edge">
<title>num_lane_2&#45;&gt;2</title>
<path fill="none" stroke="#ff0000" stroke-width=".2154" d="M927.4753,-313.0258C925.3087,-284.14 914.7648,-193.9682 866.0086,-144.1249 837.3323,-114.8092 790.9622,-99.2998 762.6073,-92.1215"/>
<polygon fill="#ff0000" stroke="#ff0000" stroke-width=".2154" points="763.2348,-88.6733 752.6966,-89.7669 761.6167,-95.4837 763.2348,-88.6733"/>
</g>
<!-- num_lane_2&#45;&gt;55 -->
<g id="edge3" class="edge">
<title>num_lane_2&#45;&gt;55</title>
<path fill="none" stroke="#00ff00" stroke-width=".1001" d="M923.9014,-313.1435C915.4387,-294.9922 894.8414,-253.247 871.0086,-222.5513 860.0598,-208.4497 845.719,-194.4649 833.9177,-183.8517"/>
<polygon fill="#00ff00" stroke="#00ff00" stroke-width=".1001" points="836.0454,-181.0618 826.2261,-177.0826 831.4208,-186.3166 836.0454,-181.0618"/>
</g>
<!-- num_lane_2&#45;&gt;56 -->
<g id="edge4" class="edge">
<title>num_lane_2&#45;&gt;56</title>
<path fill="none" stroke="#00ff00" stroke-width=".191" stroke-dasharray="1,5" d="M907.5591,-313.1115C896.8726,-308.7464 883.4578,-303.8502 871.0086,-300.9777 710.4485,-263.9309 665.0437,-288.885 502.0086,-264.9777 474.7129,-260.9751 443.8548,-254.7402 422.1339,-250.0639"/>
<polygon fill="#00ff00" stroke="#00ff00" stroke-width=".191" points="422.7768,-246.6219 412.2606,-247.91 421.2848,-253.461 422.7768,-246.6219"/>
</g>
<!-- ego_velocity -->
<g id="node3" class="node">
<title>ego_velocity</title>
<polygon fill="#d3d3d3" stroke="#000000" points="386.0086,-331.1909 324.0086,-331.1909 324.0086,-313.1909 386.0086,-313.1909 386.0086,-331.1909"/>
<text text-anchor="middle" x="355.0086" y="-319.9909" font-family="Times,serif" font-size="9.00" fill="#000000">ego_velocity</text>
</g>
<!-- ego_velocity&#45;&gt;0 -->
<g id="edge24" class="edge">
<title>ego_velocity&#45;&gt;0</title>
<path fill="none" stroke="#ff0000" stroke-width=".4341" stroke-dasharray="1,5" d="M338.3248,-313.1549C322.5437,-303.5545 299.8538,-286.7593 290.0086,-264.9777 267.8857,-216.0329 270.643,-194.2247 290.0086,-144.1249 296.4571,-127.4424 310.2808,-112.626 322.0551,-102.2527"/>
<polygon fill="#ff0000" stroke="#ff0000" stroke-width=".4341" points="324.3331,-104.9104 329.7632,-95.8128 319.845,-99.5384 324.3331,-104.9104"/>
</g>
<!-- ego_velocity&#45;&gt;1 -->
<g id="edge25" class="edge">
<title>ego_velocity&#45;&gt;1</title>
<path fill="none" stroke="#00ff00" stroke-width=".1649" d="M331.7812,-313.1396C290.98,-295.7803 207.7578,-253.4855 176.0086,-186.5513 152.9893,-138.0216 148.936,-112.0891 176.0086,-65.6985 190.0009,-41.7218 219.944,-28.155 241.4526,-21.172"/>
<polygon fill="#00ff00" stroke="#00ff00" stroke-width=".1649" points="242.6448,-24.4689 251.2269,-18.2561 240.6437,-17.761 242.6448,-24.4689"/>
</g>
<!-- ego_velocity&#45;&gt;2 -->
<g id="edge26" class="edge">
<title>ego_velocity&#45;&gt;2</title>
<path fill="none" stroke="#ff0000" stroke-width=".1774" d="M371.6268,-313.0818C378.7712,-309.2429 387.2478,-304.7901 395.0086,-300.9777 470.7803,-263.7553 489.8897,-254.5559 568.0086,-222.5513 610.9462,-204.9601 629.0286,-214.5793 666.0086,-186.5513 680.6269,-175.4717 708.075,-134.3491 724.5332,-108.5233"/>
<polygon fill="#ff0000" stroke="#ff0000" stroke-width=".1774" points="727.6721,-110.1079 730.0555,-99.7846 721.7546,-106.3684 727.6721,-110.1079"/>
</g>
<!-- ego_velocity&#45;&gt;55 -->
<g id="edge5" class="edge">
<title>ego_velocity&#45;&gt;55</title>
<path fill="none" stroke="#ff0000" stroke-width=".3714" stroke-dasharray="1,5" d="M369.2792,-313.0395C376.6798,-308.7112 386.0301,-303.8693 395.0086,-300.9777 507.7263,-264.6757 556.3971,-324.0877 659.0086,-264.9777 679.7083,-253.0535 673.3931,-237.5223 692.0086,-222.5513 707.1978,-210.3357 754.5824,-189.3334 785.0657,-176.4568"/>
<polygon fill="#ff0000" stroke="#ff0000" stroke-width=".3714" points="786.8145,-179.5189 794.6847,-172.4259 784.1091,-173.0629 786.8145,-179.5189"/>
</g>
<!-- ego_velocity&#45;&gt;56 -->
<g id="edge6" class="edge">
<title>ego_velocity&#45;&gt;56</title>
<path fill="none" stroke="#ff0000" stroke-width=".1798" d="M359.6356,-312.8864C364.8989,-302.3021 373.7216,-284.5602 381.1105,-269.7018"/>
<polygon fill="#ff0000" stroke="#ff0000" stroke-width=".1798" points="384.3883,-270.9707 385.7071,-260.4582 378.1205,-267.8538 384.3883,-270.9707"/>
</g>
<!-- dx1 -->
<g id="node4" class="node">
<title>dx1</title>
<polygon fill="#d3d3d3" stroke="#000000" points="807.0086,-397.4041 777.0086,-397.4041 777.0086,-379.4041 807.0086,-379.4041 807.0086,-397.4041"/>
<text text-anchor="middle" x="792.0086" y="-386.2041" font-family="Times,serif" font-size="9.00" fill="#000000">dx1</text>
</g>
<!-- dx1&#45;&gt;0 -->
<g id="edge27" class="edge">
<title>dx1&#45;&gt;0</title>
<path fill="none" stroke="#00ff00" stroke-width=".5073" stroke-dasharray="1,5" d="M776.7925,-387.869C684.1391,-384.5394 199.0645,-366.0596 178.0086,-343.4041 131.2979,-293.1447 153.962,-247.7672 245.0086,-144.1249 265.1708,-121.1733 296.8575,-104.9249 318.4889,-95.7474"/>
<polygon fill="#00ff00" stroke="#00ff00" stroke-width=".5073" points="319.9727,-98.9225 327.9239,-91.9205 317.3416,-92.4358 319.9727,-98.9225"/>
</g>
<!-- dx1&#45;&gt;1 -->
<g id="edge28" class="edge">
<title>dx1&#45;&gt;1</title>
<path fill="none" stroke="#ff0000" stroke-width=".2372" stroke-dasharray="1,5" d="M776.9301,-387.8006C686.0393,-384.102 213.0277,-363.9795 152.0086,-343.4041 75.4664,-317.5944 .0086,-324.541 .0086,-243.7645 .0086,-243.7645 .0086,-243.7645 .0086,-165.3381 .0086,-118.4012 -.1289,-96.8181 35.0086,-65.6985 65.5659,-38.6353 187.9726,-22.9397 241.1442,-17.2771"/>
<polygon fill="#ff0000" stroke="#ff0000" stroke-width=".2372" points="241.5078,-20.7582 251.0952,-16.2491 240.7885,-13.7953 241.5078,-20.7582"/>
</g>
<!-- dx1&#45;&gt;2 -->
<g id="edge29" class="edge">
<title>dx1&#45;&gt;2</title>
<path fill="none" stroke="#00ff00" stroke-width=".9797" stroke-dasharray="1,5" d="M807.1622,-386.847C845.9582,-382.5171 947.2093,-368.9387 967.0086,-343.4041 978.563,-328.5027 971.0346,-319.3991 967.0086,-300.9777 950.6309,-226.0405 951.3964,-196.1271 895.0086,-144.1249 857.2916,-109.3413 796.7552,-95.3118 762.931,-89.9618"/>
<polygon fill="#00ff00" stroke="#00ff00" stroke-width=".9797" points="763.3493,-86.4859 752.9505,-88.5144 762.3447,-93.4134 763.3493,-86.4859"/>
</g>
<!-- dx1&#45;&gt;55 -->
<g id="edge7" class="edge">
<title>dx1&#45;&gt;55</title>
<path fill="none" stroke="#00ff00" stroke-width=".4384" stroke-dasharray="1,5" d="M792.8174,-379.3834C795.6079,-348.2604 804.9101,-244.5096 809.4594,-193.7701"/>
<polygon fill="#00ff00" stroke="#00ff00" stroke-width=".4384" points="812.9469,-194.0653 810.354,-183.7927 805.9748,-193.4402 812.9469,-194.0653"/>
</g>
<!-- 215 -->
<g id="node16" class="node">
<title>215</title>
<ellipse fill="#ffffff" stroke="#000000" cx="841.0086" cy="-322.1909" rx="21.4286" ry="21.4286"/>
<text text-anchor="middle" x="841.0086" y="-319.9909" font-family="Times,serif" font-size="9.00" fill="#000000">215</text>
</g>
<!-- dx1&#45;&gt;215 -->
<g id="edge39" class="edge">
<title>dx1&#45;&gt;215</title>
<path fill="none" stroke="#00ff00" stroke-width=".146" d="M798.8218,-379.1975C804.8569,-371.0423 813.9578,-358.7443 822.1636,-347.656"/>
<polygon fill="#00ff00" stroke="#00ff00" stroke-width=".146" points="825.0632,-349.6215 828.1984,-339.5012 819.4364,-345.4574 825.0632,-349.6215"/>
</g>
<!-- dy1 -->
<g id="node5" class="node">
<title>dy1</title>
<polygon fill="#d3d3d3" stroke="#000000" points="650.0086,-252.7645 620.0086,-252.7645 620.0086,-234.7645 650.0086,-234.7645 650.0086,-252.7645"/>
<text text-anchor="middle" x="635.0086" y="-241.5645" font-family="Times,serif" font-size="9.00" fill="#000000">dy1</text>
</g>
<!-- dy1&#45;&gt;2 -->
<g id="edge30" class="edge">
<title>dy1&#45;&gt;2</title>
<path fill="none" stroke="#ff0000" stroke-width=".3363" d="M646.2212,-234.7542C651.459,-230.7596 657.8801,-226.1584 664.0086,-222.5513 696.9131,-203.1845 721.4309,-218.7124 742.0086,-186.5513 756.4419,-163.9934 751.9721,-132.3166 746.1738,-110.7774"/>
<polygon fill="#ff0000" stroke="#ff0000" stroke-width=".3363" points="749.5021,-109.6903 743.2976,-101.1023 742.7923,-111.6851 749.5021,-109.6903"/>
</g>
<!-- dy1&#45;&gt;55 -->
<g id="edge8" class="edge">
<title>dy1&#45;&gt;55</title>
<path fill="none" stroke="#00ff00" stroke-width=".2586" stroke-dasharray="1,5" d="M645.7424,-234.5892C650.9846,-230.4646 657.5449,-225.8041 664.0086,-222.5513 712.2283,-198.2853 731.2419,-209.6982 780.0086,-186.5513 782.8669,-185.1946 785.7655,-183.6117 788.5911,-181.9331"/>
<polygon fill="#00ff00" stroke="#00ff00" stroke-width=".2586" points="790.6938,-184.7428 797.2301,-176.4045 786.9206,-178.8468 790.6938,-184.7428"/>
</g>
<!-- 159 -->
<g id="node17" class="node">
<title>159</title>
<ellipse fill="#ffffff" stroke="#000000" cx="603.0086" cy="-165.3381" rx="21.4286" ry="21.4286"/>
<text text-anchor="middle" x="603.0086" y="-163.1381" font-family="Times,serif" font-size="9.00" fill="#000000">159</text>
</g>
<!-- dy1&#45;&gt;159 -->
<g id="edge42" class="edge">
<title>dy1&#45;&gt;159</title>
<path fill="none" stroke="#00ff00" stroke-width=".1642" d="M631.2121,-234.46C627.2036,-224.6358 620.679,-208.6453 614.9146,-194.5176"/>
<polygon fill="#00ff00" stroke="#00ff00" stroke-width=".1642" points="618.104,-193.0698 611.0855,-185.1331 611.6228,-195.7143 618.104,-193.0698"/>
</g>
<!-- dx2 -->
<g id="node6" class="node">
<title>dx2</title>
<polygon fill="#d3d3d3" stroke="#000000" points="217.0086,-331.1909 187.0086,-331.1909 187.0086,-313.1909 217.0086,-313.1909 217.0086,-331.1909"/>
<text text-anchor="middle" x="202.0086" y="-319.9909" font-family="Times,serif" font-size="9.00" fill="#000000">dx2</text>
</g>
<!-- dx2&#45;&gt;0 -->
<g id="edge31" class="edge">
<title>dx2&#45;&gt;0</title>
<path fill="none" stroke="#ff0000" stroke-width=".3139" d="M203.9893,-312.8828C210.2517,-285.0551 231.6959,-200.9099 273.0086,-144.1249 285.8971,-126.4095 305.477,-110.876 320.4911,-100.4822"/>
<polygon fill="#ff0000" stroke="#ff0000" stroke-width=".3139" points="322.776,-103.1651 329.1488,-94.7012 318.8888,-97.3436 322.776,-103.1651"/>
</g>
<!-- dx2&#45;&gt;1 -->
<g id="edge32" class="edge">
<title>dx2&#45;&gt;1</title>
<path fill="none" stroke="#00ff00" stroke-width=".1081" stroke-dasharray="1,5" d="M187.0019,-317.0922C165.3128,-309.0603 125.0646,-291.5837 100.0086,-264.9777 38.1934,-199.3385 6.4956,-136.7473 62.0086,-65.6985 83.9981,-37.555 191.5822,-22.7246 241.0449,-17.2995"/>
<polygon fill="#00ff00" stroke="#00ff00" stroke-width=".1081" points="241.6301,-20.7573 251.2081,-16.2283 240.8962,-13.7959 241.6301,-20.7573"/>
</g>
<!-- dx2&#45;&gt;2 -->
<g id="edge33" class="edge">
<title>dx2&#45;&gt;2</title>
<path fill="none" stroke="#00ff00" stroke-width=".2864" stroke-dasharray="1,5" d="M217.1735,-319.23C260.6295,-310.5899 384.8034,-284.7695 421.0086,-264.9777 445.4127,-251.6371 442.3299,-235.3768 467.0086,-222.5513 533.9953,-187.7383 569.113,-226.7572 633.0086,-186.5513 653.2275,-173.8287 649.2047,-161.1042 666.0086,-144.1249 681.9687,-127.9982 702.3964,-112.1454 717.4135,-101.232"/>
<polygon fill="#00ff00" stroke="#00ff00" stroke-width=".2864" points="719.4552,-104.0748 725.5554,-95.4123 715.3847,-98.3799 719.4552,-104.0748"/>
</g>
<!-- dx2&#45;&gt;56 -->
<g id="edge9" class="edge">
<title>dx2&#45;&gt;56</title>
<path fill="none" stroke="#ff0000" stroke-width=".2388" d="M217.0745,-316.0369C249.5787,-302.7599 326.6456,-271.2803 367.5086,-254.589"/>
<polygon fill="#ff0000" stroke="#ff0000" stroke-width=".2388" points="368.8987,-257.802 376.8326,-250.7804 366.2516,-251.3217 368.8987,-257.802"/>
</g>
<!-- dy2 -->
<g id="node7" class="node">
<title>dy2</title>
<polygon fill="#d3d3d3" stroke="#000000" points="764.0086,-331.1909 734.0086,-331.1909 734.0086,-313.1909 764.0086,-313.1909 764.0086,-331.1909"/>
<text text-anchor="middle" x="749.0086" y="-319.9909" font-family="Times,serif" font-size="9.00" fill="#000000">dy2</text>
</g>
<!-- dy2&#45;&gt;0 -->
<g id="edge34" class="edge">
<title>dy2&#45;&gt;0</title>
<path fill="none" stroke="#00ff00" stroke-width=".2084" stroke-dasharray="1,5" d="M733.7093,-320.144C685.9629,-313.5287 540.5936,-291.6007 502.0086,-264.9777 448.7872,-228.2558 465.8927,-190.6698 421.0086,-144.1249 403.8501,-126.3315 380.5746,-110.2284 363.7363,-99.6729"/>
<polygon fill="#00ff00" stroke="#00ff00" stroke-width=".2084" points="365.4805,-96.637 355.1237,-94.404 361.8275,-102.6082 365.4805,-96.637"/>
</g>
<!-- dy2&#45;&gt;1 -->
<g id="edge35" class="edge">
<title>dy2&#45;&gt;1</title>
<path fill="none" stroke="#ff0000" stroke-width=".5677" stroke-dasharray="1,5" d="M764.231,-317.0009C798.7775,-305.0742 880.6929,-275.9 888.0086,-264.9777 942.6108,-183.4565 880.9837,-109.1437 793.0086,-65.6985 747.6259,-43.2869 390.2096,-21.7983 291.3002,-16.2352"/>
<polygon fill="#ff0000" stroke="#ff0000" stroke-width=".5677" points="291.2283,-12.7259 281.049,-15.6639 290.8387,-19.715 291.2283,-12.7259"/>
</g>
<!-- dy2&#45;&gt;2 -->
<g id="edge36" class="edge">
<title>dy2&#45;&gt;2</title>
<path fill="none" stroke="#ff0000" stroke-width=".3056" stroke-dasharray="1,5" d="M764.4043,-317.2726C794.3919,-307.3477 858.7742,-284.228 871.0086,-264.9777 881.1227,-249.0635 874.6383,-241.0548 871.0086,-222.5513 863.762,-185.6093 863.8715,-172.3926 839.0086,-144.1249 818.0024,-120.242 784.5082,-104.0612 761.9084,-95.1633"/>
<polygon fill="#ff0000" stroke="#ff0000" stroke-width=".3056" points="762.9675,-91.8224 752.3753,-91.586 760.5082,-98.3762 762.9675,-91.8224"/>
</g>
<!-- dy2&#45;&gt;55 -->
<g id="edge10" class="edge">
<title>dy2&#45;&gt;55</title>
<path fill="none" stroke="#ff0000" stroke-width=".6285" stroke-dasharray="1,5" d="M750.8377,-313.13C754.6106,-295.3009 764.0858,-254.6103 778.0086,-222.5513 782.942,-211.1914 789.7047,-199.3143 795.9,-189.3445"/>
<polygon fill="#ff0000" stroke="#ff0000" stroke-width=".6285" points="798.9279,-191.106 801.3613,-180.7944 793.0286,-187.3379 798.9279,-191.106"/>
</g>
<!-- dy2&#45;&gt;56 -->
<g id="edge11" class="edge">
<title>dy2&#45;&gt;56</title>
<path fill="none" stroke="#00ff00" stroke-width=".7837" d="M733.7541,-319.6612C690.9288,-312.4451 566.0584,-290.6206 464.0086,-264.9777 449.8205,-261.4125 434.2263,-256.7602 421.3647,-252.7212"/>
<polygon fill="#00ff00" stroke="#00ff00" stroke-width=".7837" points="422.3056,-249.3476 411.7149,-249.6459 420.18,-256.0171 422.3056,-249.3476"/>
</g>
<!-- 238 -->
<g id="node11" class="node">
<title>238</title>
<ellipse fill="#ffffff" stroke="#000000" cx="478.0086" cy="-86.9117" rx="21.4286" ry="21.4286"/>
<text text-anchor="middle" x="478.0086" y="-84.7117" font-family="Times,serif" font-size="9.00" fill="#000000">238</text>
</g>
<!-- 238&#45;&gt;1 -->
<g id="edge41" class="edge">
<title>238&#45;&gt;1</title>
<path fill="none" stroke="#ff0000" stroke-width=".2178" d="M457.6811,-80.002C418.3187,-66.6221 331.8789,-37.2397 289.8688,-22.9597"/>
<polygon fill="#ff0000" stroke="#ff0000" stroke-width=".2178" points="290.7956,-19.5782 280.2012,-19.6736 288.5427,-26.2057 290.7956,-19.5782"/>
</g>
<!-- 437 -->
<g id="node12" class="node">
<title>437</title>
<ellipse fill="#ffffff" stroke="#000000" cx="841.0086" cy="-243.7645" rx="21.4286" ry="21.4286"/>
<text text-anchor="middle" x="841.0086" y="-241.5645" font-family="Times,serif" font-size="9.00" fill="#000000">437</text>
</g>
<!-- 437&#45;&gt;55 -->
<g id="edge47" class="edge">
<title>437&#45;&gt;55</title>
<path fill="none" stroke="#ff0000" stroke-width=".484" d="M833.5404,-223.5678C830.0413,-214.105 825.8213,-202.6927 822.0479,-192.4881"/>
<polygon fill="#ff0000" stroke="#ff0000" stroke-width=".484" points="825.2176,-190.9682 818.4666,-182.8028 818.6521,-193.396 825.2176,-190.9682"/>
</g>
<!-- 55&#45;&gt;0 -->
<g id="edge12" class="edge">
<title>55&#45;&gt;0</title>
<path fill="none" stroke="#00ff00" stroke-width=".1842" stroke-dasharray="1,5" d="M793.7838,-162.7476C740.4746,-155.1112 580.2542,-131.7403 448.0086,-108.1249 420.0335,-103.1293 388.0681,-96.622 366.6197,-92.1388"/>
<polygon fill="#00ff00" stroke="#00ff00" stroke-width=".1842" points="367.2254,-88.6897 356.7191,-90.057 365.7849,-95.5399 367.2254,-88.6897"/>
</g>
<!-- 55&#45;&gt;1 -->
<g id="edge13" class="edge">
<title>55&#45;&gt;1</title>
<path fill="none" stroke="#ff0000" stroke-width=".2512" stroke-dasharray="1,5" d="M808.4371,-147.1046C802.8652,-123.9811 789.7281,-84.8229 762.0086,-65.6985 722.9427,-38.7459 386.777,-20.6537 291.2372,-16.0221"/>
<polygon fill="#ff0000" stroke="#ff0000" stroke-width=".2512" points="291.2095,-12.5168 281.0539,-15.5355 290.8754,-19.5089 291.2095,-12.5168"/>
</g>
<!-- 55&#45;&gt;2 -->
<g id="edge14" class="edge">
<title>55&#45;&gt;2</title>
<path fill="none" stroke="#ff0000" stroke-width=".1767" stroke-dasharray="1,5" d="M799.1188,-151.6773C786.96,-138.7912 768.6487,-119.3846 755.2405,-105.1743"/>
<polygon fill="#ff0000" stroke="#ff0000" stroke-width=".1767" points="757.7747,-102.7602 748.3661,-97.8888 752.6833,-107.5642 757.7747,-102.7602"/>
</g>
<!-- 56&#45;&gt;0 -->
<g id="edge15" class="edge">
<title>56&#45;&gt;0</title>
<path fill="none" stroke="#ff0000" stroke-width=".2141" stroke-dasharray="1,5" d="M383.2666,-228.4379C375.9458,-217.2993 366.6006,-201.5992 361.0086,-186.5513 351.9089,-162.0644 346.9753,-132.5 344.4351,-111.9643"/>
<polygon fill="#ff0000" stroke="#ff0000" stroke-width=".2141" points="347.8925,-111.3903 343.2871,-101.8488 340.9372,-112.1797 347.8925,-111.3903"/>
</g>
<!-- 56&#45;&gt;1 -->
<g id="edge16" class="edge">
<title>56&#45;&gt;1</title>
<path fill="none" stroke="#ff0000" stroke-width=".2393" d="M381.0911,-230.4502C370.7482,-219.3304 356.3157,-202.7372 346.0086,-186.5513 314.3123,-136.7764 287.7456,-72.4216 274.69,-38.3801"/>
<polygon fill="#ff0000" stroke="#ff0000" stroke-width=".2393" points="277.8925,-36.9537 271.0813,-28.8384 271.3452,-39.43 277.8925,-36.9537"/>
</g>
<!-- 56&#45;&gt;2 -->
<g id="edge17" class="edge">
<title>56&#45;&gt;2</title>
<path fill="none" stroke="#ff0000" stroke-width=".3159" stroke-dasharray="1,5" d="M409.4433,-233.1041C414.639,-229.6313 420.5129,-225.8288 426.0086,-222.5513 489.6075,-184.6227 505.1531,-173.7733 573.0086,-144.1249 621.6827,-122.8575 681.0127,-103.9036 713.6175,-94.0571"/>
<polygon fill="#ff0000" stroke="#ff0000" stroke-width=".3159" points="715.016,-97.2923 723.5962,-91.0769 713.0128,-90.585 715.016,-97.2923"/>
</g>
<!-- 56&#45;&gt;238 -->
<g id="edge40" class="edge">
<title>56&#45;&gt;238</title>
<path fill="none" stroke="#00ff00" stroke-width=".3054" d="M402.8393,-227.275C417.101,-200.6441 445.372,-147.8538 462.8874,-115.1474"/>
<polygon fill="#00ff00" stroke="#00ff00" stroke-width=".3054" points="466.1005,-116.5612 467.7361,-106.0934 459.9297,-113.2565 466.1005,-116.5612"/>
</g>
<!-- 409 -->
<g id="node15" class="node">
<title>409</title>
<ellipse fill="#ffffff" stroke="#000000" cx="391.0086" cy="-165.3381" rx="21.4286" ry="21.4286"/>
<text text-anchor="middle" x="391.0086" y="-163.1381" font-family="Times,serif" font-size="9.00" fill="#000000">409</text>
</g>
<!-- 56&#45;&gt;409 -->
<g id="edge44" class="edge">
<title>56&#45;&gt;409</title>
<path fill="none" stroke="#ff0000" stroke-width=".1161" stroke-dasharray="1,5" d="M393.2976,-225.1785C392.9719,-216.6628 392.5767,-206.3327 392.2071,-196.6689"/>
<polygon fill="#ff0000" stroke="#ff0000" stroke-width=".1161" points="395.7002,-196.4203 391.8204,-186.5614 388.7053,-196.6879 395.7002,-196.4203"/>
</g>
<!-- 56&#45;&gt;159 -->
<g id="edge37" class="edge">
<title>56&#45;&gt;159</title>
<path fill="none" stroke="#00ff00" stroke-width=".3299" d="M408.7052,-232.5196C413.9465,-228.9245 420.0358,-225.196 426.0086,-222.5513 485.5412,-196.1907 507.9543,-211.7007 568.0086,-186.5513 570.8657,-185.3548 573.7646,-183.9507 576.6083,-182.4443"/>
<polygon fill="#00ff00" stroke="#00ff00" stroke-width=".3299" points="578.4499,-185.423 585.385,-177.4133 574.9686,-179.35 578.4499,-185.423"/>
</g>
<!-- 409&#45;&gt;0 -->
<g id="edge45" class="edge">
<title>409&#45;&gt;0</title>
<path fill="none" stroke="#ff0000" stroke-width=".4237" d="M379.6438,-147.1484C372.4346,-135.6096 363.071,-120.6228 355.4872,-108.4847"/>
<polygon fill="#ff0000" stroke="#ff0000" stroke-width=".4237" points="358.367,-106.4885 350.0999,-99.8622 352.4304,-110.1976 358.367,-106.4885"/>
</g>
<!-- 215&#45;&gt;437 -->
<g id="edge46" class="edge">
<title>215&#45;&gt;437</title>
<path fill="none" stroke="#00ff00" stroke-width=".268" d="M841.0086,-300.7605C841.0086,-292.8933 841.0086,-283.8144 841.0086,-275.248"/>
<polygon fill="#00ff00" stroke="#00ff00" stroke-width=".268" points="844.5087,-275.1689 841.0086,-265.169 837.5087,-275.169 844.5087,-275.1689"/>
</g>
<!-- 159&#45;&gt;2 -->
<g id="edge38" class="edge">
<title>159&#45;&gt;2</title>
<path fill="none" stroke="#00ff00" stroke-width=".3737" stroke-dasharray="1,5" d="M621.1221,-154.2408C626.5368,-150.9556 632.4985,-147.3703 638.0086,-144.1249 664.7894,-128.3514 695.9029,-110.6469 716.222,-99.1674"/>
<polygon fill="#00ff00" stroke="#00ff00" stroke-width=".3737" points="718.0131,-102.1755 725.0036,-94.214 714.5741,-96.0785 718.0131,-102.1755"/>
</g>
<!-- 159&#45;&gt;238 -->
<g id="edge43" class="edge">
<title>159&#45;&gt;238</title>
<path fill="none" stroke="#ff0000" stroke-width=".6386" d="M584.8325,-153.9342C563.818,-140.7495 529.0299,-118.9231 504.8873,-103.7757"/>
<polygon fill="#ff0000" stroke="#ff0000" stroke-width=".6386" points="506.5376,-100.6793 496.2066,-98.3293 502.8173,-106.6088 506.5376,-100.6793"/>
</g>
</g>
</svg>
