<?xml version="1.0" encoding="UTF-8" standalone="no"?>
<!DOCTYPE svg PUBLIC "-//W3C//DTD SVG 1.1//EN"
 "http://www.w3.org/Graphics/SVG/1.1/DTD/svg11.dtd">
<!-- Generated by graphviz version 2.40.1 (20161225.0304)
 -->
<!-- Title: %3 Pages: 1 -->
<svg width="779pt" height="249pt"
 viewBox="0.00 0.00 779.48 248.55" xmlns="http://www.w3.org/2000/svg" xmlns:xlink="http://www.w3.org/1999/xlink">
<g id="graph0" class="graph" transform="scale(1 1) rotate(0) translate(4 244.5513)">
<title>%3</title>
<polygon fill="#ffffff" stroke="transparent" points="-4,4 -4,-244.5513 775.4817,-244.5513 775.4817,4 -4,4"/>
<!-- num_lane_1 -->
<g id="node1" class="node">
<title>num_lane_1</title>
<polygon fill="#d3d3d3" stroke="#000000" points="150.4603,-174.3381 90.4603,-174.3381 90.4603,-156.3381 150.4603,-156.3381 150.4603,-174.3381"/>
<text text-anchor="middle" x="120.4603" y="-163.1381" font-family="Times,serif" font-size="9.00" fill="#000000">num_lane_1</text>
</g>
<!-- 0 -->
<g id="node8" class="node">
<title>0</title>
<ellipse fill="#add8e6" stroke="#000000" cx="375.4603" cy="-14.8492" rx="14.7" ry="14.7"/>
<text text-anchor="middle" x="375.4603" y="-12.6492" font-family="Times,serif" font-size="9.00" fill="#000000">0</text>
</g>
<!-- num_lane_1&#45;&gt;0 -->
<g id="edge18" class="edge">
<title>num_lane_1&#45;&gt;0</title>
<path fill="none" stroke="#ff0000" stroke-width=".3959" stroke-dasharray="1,5" d="M112.7423,-156.222C97.6038,-137.2042 67.4163,-92.8198 90.4603,-65.6985 122.5368,-27.9464 261.8447,-39.2196 310.4603,-29.6985 323.9028,-27.0658 338.8066,-23.6942 350.9484,-20.8292"/>
<polygon fill="#ff0000" stroke="#ff0000" stroke-width=".3959" points="351.8894,-24.203 360.8013,-18.4733 350.2615,-17.3949 351.8894,-24.203"/>
</g>
<!-- 1 -->
<g id="node9" class="node">
<title>1</title>
<ellipse fill="#add8e6" stroke="#000000" cx="286.4603" cy="-14.8492" rx="14.7" ry="14.7"/>
<text text-anchor="middle" x="286.4603" y="-12.6492" font-family="Times,serif" font-size="9.00" fill="#000000">1</text>
</g>
<!-- num_lane_1&#45;&gt;1 -->
<g id="edge19" class="edge">
<title>num_lane_1&#45;&gt;1</title>
<path fill="none" stroke="#ff0000" stroke-width=".1559" d="M90.2009,-157.3046C66.3146,-149.1929 34.5805,-134.0676 19.4603,-108.1249 9.9653,-91.8338 7.4387,-80.2256 19.4603,-65.6985 50.0471,-28.7368 200.5015,-18.4109 261.1009,-15.7269"/>
<polygon fill="#ff0000" stroke="#ff0000" stroke-width=".1559" points="261.4724,-19.2147 271.3213,-15.31 261.187,-12.2206 261.4724,-19.2147"/>
</g>
<!-- 2 -->
<g id="node10" class="node">
<title>2</title>
<ellipse fill="#add8e6" stroke="#000000" cx="569.4603" cy="-14.8492" rx="14.7" ry="14.7"/>
<text text-anchor="middle" x="569.4603" y="-12.6492" font-family="Times,serif" font-size="9.00" fill="#000000">2</text>
</g>
<!-- num_lane_1&#45;&gt;2 -->
<g id="edge20" class="edge">
<title>num_lane_1&#45;&gt;2</title>
<path fill="none" stroke="#ff0000" stroke-width=".5962" d="M130.2767,-156.0954C152.2154,-136.0176 207.6899,-88.4028 263.4603,-65.6985 314.7368,-44.8236 481.0317,-24.6799 544.5162,-17.5581"/>
<polygon fill="#ff0000" stroke="#ff0000" stroke-width=".5962" points="544.9066,-21.0363 554.4597,-16.4552 544.1348,-14.079 544.9066,-21.0363"/>
</g>
<!-- 421 -->
<g id="node11" class="node">
<title>421</title>
<ellipse fill="#ffffff" stroke="#000000" cx="120.4603" cy="-86.9117" rx="21.4286" ry="21.4286"/>
<text text-anchor="middle" x="120.4603" y="-84.7117" font-family="Times,serif" font-size="9.00" fill="#000000">421</text>
</g>
<!-- num_lane_1&#45;&gt;421 -->
<g id="edge39" class="edge">
<title>num_lane_1&#45;&gt;421</title>
<path fill="none" stroke="#00ff00" stroke-width=".3997" d="M120.4603,-156.0336C120.4603,-146.8129 120.4603,-132.1604 120.4603,-118.7142"/>
<polygon fill="#00ff00" stroke="#00ff00" stroke-width=".3997" points="123.9604,-118.3161 120.4603,-108.3161 116.9604,-118.3162 123.9604,-118.3161"/>
</g>
<!-- 81 -->
<g id="node13" class="node">
<title>81</title>
<ellipse fill="#ffffff" stroke="#000000" cx="329.4603" cy="-86.9117" rx="18.2703" ry="18.2703"/>
<text text-anchor="middle" x="329.4603" y="-84.7117" font-family="Times,serif" font-size="9.00" fill="#000000">81</text>
</g>
<!-- num_lane_1&#45;&gt;81 -->
<g id="edge1" class="edge">
<title>num_lane_1&#45;&gt;81</title>
<path fill="none" stroke="#00ff00" stroke-width=".427" stroke-dasharray="1,5" d="M143.2791,-156.2532C152.8879,-152.459 164.2005,-148.0332 174.4603,-144.1249 219.0138,-127.1531 271.0523,-108.1019 302.0753,-96.8257"/>
<polygon fill="#00ff00" stroke="#00ff00" stroke-width=".427" points="303.5438,-100.0162 311.7493,-93.3139 301.1552,-93.4363 303.5438,-100.0162"/>
</g>
<!-- num_lane_2 -->
<g id="node2" class="node">
<title>num_lane_2</title>
<polygon fill="#d3d3d3" stroke="#000000" points="691.4603,-174.3381 631.4603,-174.3381 631.4603,-156.3381 691.4603,-156.3381 691.4603,-174.3381"/>
<text text-anchor="middle" x="661.4603" y="-163.1381" font-family="Times,serif" font-size="9.00" fill="#000000">num_lane_2</text>
</g>
<!-- num_lane_2&#45;&gt;0 -->
<g id="edge21" class="edge">
<title>num_lane_2&#45;&gt;0</title>
<path fill="none" stroke="#ff0000" stroke-width=".1653" d="M666.3262,-156.0732C675.7127,-136.7739 693.5331,-91.8864 671.4603,-65.6985 653.9528,-44.9269 468.7939,-24.2766 400.541,-17.3152"/>
<polygon fill="#ff0000" stroke="#ff0000" stroke-width=".1653" points="400.5783,-13.8014 390.2781,-16.2822 399.8772,-20.7662 400.5783,-13.8014"/>
</g>
<!-- num_lane_2&#45;&gt;1 -->
<g id="edge22" class="edge">
<title>num_lane_2&#45;&gt;1</title>
<path fill="none" stroke="#ff0000" stroke-width=".6216" d="M662.4475,-156.2397C664.036,-136.4497 664.6838,-89.3731 638.4603,-65.6985 590.7497,-22.6253 414.7596,-40.8701 351.4603,-29.6985 337.9708,-27.3178 323.0635,-23.9651 310.9315,-21.0478"/>
<polygon fill="#ff0000" stroke="#ff0000" stroke-width=".6216" points="311.636,-17.6168 301.0898,-18.6315 309.9669,-24.415 311.636,-17.6168"/>
</g>
<!-- num_lane_2&#45;&gt;2 -->
<g id="edge23" class="edge">
<title>num_lane_2&#45;&gt;2</title>
<path fill="none" stroke="#00ff00" stroke-width=".1027" d="M686.9493,-156.2291C707.414,-147.4024 734.7563,-131.835 747.4603,-108.1249 756.3658,-91.5042 758.8157,-80.7521 747.4603,-65.6985 728.9543,-41.1655 638.7703,-24.9104 594.322,-18.2557"/>
<polygon fill="#00ff00" stroke="#00ff00" stroke-width=".1027" points="594.7248,-14.7776 584.326,-16.8062 593.7201,-21.7051 594.7248,-14.7776"/>
</g>
<!-- num_lane_2&#45;&gt;81 -->
<g id="edge2" class="edge">
<title>num_lane_2&#45;&gt;81</title>
<path fill="none" stroke="#00ff00" stroke-width=".4095" d="M631.1948,-156.638C617.0406,-152.6624 599.931,-147.9891 584.4603,-144.1249 502.5801,-123.6731 405.0606,-102.7361 357.858,-92.8166"/>
<polygon fill="#00ff00" stroke="#00ff00" stroke-width=".4095" points="358.2798,-89.329 347.7746,-90.7045 356.8446,-96.1804 358.2798,-89.329"/>
</g>
<!-- 83 -->
<g id="node14" class="node">
<title>83</title>
<ellipse fill="#ffffff" stroke="#000000" cx="611.4603" cy="-86.9117" rx="18.2703" ry="18.2703"/>
<text text-anchor="middle" x="611.4603" y="-84.7117" font-family="Times,serif" font-size="9.00" fill="#000000">83</text>
</g>
<!-- num_lane_2&#45;&gt;83 -->
<g id="edge3" class="edge">
<title>num_lane_2&#45;&gt;83</title>
<path fill="none" stroke="#ff0000" stroke-width=".4075" d="M655.5283,-156.0336C648.5221,-145.0441 636.5967,-126.3388 626.9171,-111.1561"/>
<polygon fill="#ff0000" stroke="#ff0000" stroke-width=".4075" points="629.8586,-109.2593 621.5315,-102.7087 623.9561,-113.0224 629.8586,-109.2593"/>
</g>
<!-- ego_velocity -->
<g id="node3" class="node">
<title>ego_velocity</title>
<polygon fill="#d3d3d3" stroke="#000000" points="245.4603,-174.3381 183.4603,-174.3381 183.4603,-156.3381 245.4603,-156.3381 245.4603,-174.3381"/>
<text text-anchor="middle" x="214.4603" y="-163.1381" font-family="Times,serif" font-size="9.00" fill="#000000">ego_velocity</text>
</g>
<!-- ego_velocity&#45;&gt;0 -->
<g id="edge24" class="edge">
<title>ego_velocity&#45;&gt;0</title>
<path fill="none" stroke="#ff0000" stroke-width="1.0184" d="M217.3685,-156.1592C223.8466,-137.0226 241.1618,-92.426 269.4603,-65.6985 292.8797,-43.5792 327.712,-29.4063 350.9832,-21.789"/>
<polygon fill="#ff0000" stroke="#ff0000" stroke-width="1.0184" points="352.268,-25.055 360.7793,-18.7455 350.1911,-18.3702 352.268,-25.055"/>
</g>
<!-- ego_velocity&#45;&gt;1 -->
<g id="edge25" class="edge">
<title>ego_velocity&#45;&gt;1</title>
<path fill="none" stroke="#ff0000" stroke-width=".1172" stroke-dasharray="1,5" d="M191.3881,-156.2633C157.1588,-142.5715 96.3067,-117.2612 90.4603,-108.1249 80.2967,-92.2423 78.9219,-80.6123 90.4603,-65.6985 111.3651,-38.6782 213.5046,-23.3763 261.4789,-17.5741"/>
<polygon fill="#ff0000" stroke="#ff0000" stroke-width=".1172" points="262.1121,-21.024 271.6398,-16.39 261.3018,-14.0711 262.1121,-21.024"/>
</g>
<!-- ego_velocity&#45;&gt;2 -->
<g id="edge26" class="edge">
<title>ego_velocity&#45;&gt;2</title>
<path fill="none" stroke="#ff0000" stroke-width=".61" stroke-dasharray="1,5" d="M223.2558,-156.1726C233.9087,-144.9969 252.309,-125.4528 267.4603,-108.1249 283.5507,-89.723 281.4266,-78.153 302.4603,-65.6985 343.466,-41.4181 485.9757,-23.7976 544.2908,-17.4426"/>
<polygon fill="#ff0000" stroke="#ff0000" stroke-width=".61" points="544.8954,-20.8981 554.467,-16.3555 544.1518,-13.9377 544.8954,-20.8981"/>
</g>
<!-- ego_velocity&#45;&gt;81 -->
<g id="edge4" class="edge">
<title>ego_velocity&#45;&gt;81</title>
<path fill="none" stroke="#ff0000" stroke-width=".2695" d="M228.1039,-156.0336C247.2019,-143.0094 282.1916,-119.1475 305.6403,-103.1562"/>
<polygon fill="#ff0000" stroke="#ff0000" stroke-width=".2695" points="307.7153,-105.9776 314.005,-97.4517 303.7713,-100.1944 307.7153,-105.9776"/>
</g>
<!-- dx1 -->
<g id="node4" class="node">
<title>dx1</title>
<polygon fill="#d3d3d3" stroke="#000000" points="344.4603,-240.5513 314.4603,-240.5513 314.4603,-222.5513 344.4603,-222.5513 344.4603,-240.5513"/>
<text text-anchor="middle" x="329.4603" y="-229.3513" font-family="Times,serif" font-size="9.00" fill="#000000">dx1</text>
</g>
<!-- dx1&#45;&gt;1 -->
<g id="edge27" class="edge">
<title>dx1&#45;&gt;1</title>
<path fill="none" stroke="#00ff00" stroke-width=".1" stroke-dasharray="1,5" d="M314.2873,-230.0496C266.9066,-225.1677 122.4258,-208.7697 81.4603,-186.5513 39.3342,-163.7035 25.1551,-152.6617 7.4603,-108.1249 .498,-90.6011 -4.6187,-80.1779 7.4603,-65.6985 39.7423,-27.0011 198.7974,-17.6774 261.2366,-15.4947"/>
<polygon fill="#00ff00" stroke="#00ff00" stroke-width=".1" points="261.5057,-18.9881 271.3902,-15.174 261.2846,-11.9915 261.5057,-18.9881"/>
</g>
<!-- dx1&#45;&gt;2 -->
<g id="edge28" class="edge">
<title>dx1&#45;&gt;2</title>
<path fill="none" stroke="#ff0000" stroke-width=".3325" stroke-dasharray="1,5" d="M344.8469,-231.1978C406.8,-229.5469 637.6641,-221.1449 700.4603,-186.5513 739.8659,-164.8433 749.3625,-150.5053 764.4603,-108.1249 770.7881,-90.3622 775.9894,-80.6195 764.4603,-65.6985 743.7217,-38.8586 642.5332,-23.5057 594.6586,-17.6362"/>
<polygon fill="#ff0000" stroke="#ff0000" stroke-width=".3325" points="594.8465,-14.1341 584.5048,-16.4363 594.0249,-21.0858 594.8465,-14.1341"/>
</g>
<!-- 268 -->
<g id="node12" class="node">
<title>268</title>
<ellipse fill="#ffffff" stroke="#000000" cx="329.4603" cy="-165.3381" rx="21.4286" ry="21.4286"/>
<text text-anchor="middle" x="329.4603" y="-163.1381" font-family="Times,serif" font-size="9.00" fill="#000000">268</text>
</g>
<!-- dx1&#45;&gt;268 -->
<g id="edge37" class="edge">
<title>dx1&#45;&gt;268</title>
<path fill="none" stroke="#ff0000" stroke-width=".3083" d="M329.4603,-222.3446C329.4603,-215.6836 329.4603,-206.2587 329.4603,-196.9866"/>
<polygon fill="#ff0000" stroke="#ff0000" stroke-width=".3083" points="332.9604,-196.7384 329.4603,-186.7385 325.9604,-196.7385 332.9604,-196.7384"/>
</g>
<!-- dx1&#45;&gt;81 -->
<g id="edge5" class="edge">
<title>dx1&#45;&gt;81</title>
<path fill="none" stroke="#ff0000" stroke-width=".1539" stroke-dasharray="1,5" d="M320.9634,-222.4036C313.6557,-213.864 303.6505,-200.3906 299.4603,-186.5513 293.9961,-168.5042 294.9512,-162.434 299.4603,-144.1249 302.3057,-132.5711 307.9452,-120.7674 313.5742,-110.9052"/>
<polygon fill="#ff0000" stroke="#ff0000" stroke-width=".1539" points="316.7077,-112.4867 318.8763,-102.1161 310.7139,-108.8708 316.7077,-112.4867"/>
</g>
<!-- dx1&#45;&gt;83 -->
<g id="edge6" class="edge">
<title>dx1&#45;&gt;83</title>
<path fill="none" stroke="#00ff00" stroke-width=".492" stroke-dasharray="1,5" d="M344.5855,-230.9512C393.8956,-228.6893 548.8694,-219.0766 584.4603,-186.5513 604.1048,-168.5989 610.0443,-137.9511 611.5683,-115.3746"/>
<polygon fill="#00ff00" stroke="#00ff00" stroke-width=".492" points="615.067,-115.4783 611.9971,-105.338 608.0734,-115.1795 615.067,-115.4783"/>
</g>
<!-- dy1 -->
<g id="node5" class="node">
<title>dy1</title>
<polygon fill="#d3d3d3" stroke="#000000" points="504.4603,-174.3381 474.4603,-174.3381 474.4603,-156.3381 504.4603,-156.3381 504.4603,-174.3381"/>
<text text-anchor="middle" x="489.4603" y="-163.1381" font-family="Times,serif" font-size="9.00" fill="#000000">dy1</text>
</g>
<!-- dy1&#45;&gt;0 -->
<g id="edge29" class="edge">
<title>dy1&#45;&gt;0</title>
<path fill="none" stroke="#00ff00" stroke-width=".338" stroke-dasharray="1,5" d="M484.6669,-156.0589C475.0533,-137.8471 452.2091,-96.5168 427.4603,-65.6985 417.6035,-53.4244 405.0145,-41.0454 394.6921,-31.5747"/>
<polygon fill="#00ff00" stroke="#00ff00" stroke-width=".338" points="396.7734,-28.7395 386.9952,-24.6605 392.0954,-33.947 396.7734,-28.7395"/>
</g>
<!-- dy1&#45;&gt;1 -->
<g id="edge30" class="edge">
<title>dy1&#45;&gt;1</title>
<path fill="none" stroke="#00ff00" stroke-width=".4769" stroke-dasharray="1,5" d="M477.4016,-156.211C454.1085,-138.6014 401.2692,-98.7555 356.4603,-65.6985 339.9015,-53.4825 321.0196,-39.7795 307.0427,-29.6792"/>
<polygon fill="#00ff00" stroke="#00ff00" stroke-width=".4769" points="308.7967,-26.6287 298.6399,-23.6139 304.6997,-32.3046 308.7967,-26.6287"/>
</g>
<!-- dy1&#45;&gt;2 -->
<g id="edge31" class="edge">
<title>dy1&#45;&gt;2</title>
<path fill="none" stroke="#ff0000" stroke-width=".3668" d="M494.4646,-155.9243C506.9804,-132.3809 539.9066,-70.443 557.6806,-37.0082"/>
<polygon fill="#ff0000" stroke="#ff0000" stroke-width=".3668" points="560.8634,-38.4772 562.467,-28.0044 554.6825,-35.1914 560.8634,-38.4772"/>
</g>
<!-- dy1&#45;&gt;81 -->
<g id="edge7" class="edge">
<title>dy1&#45;&gt;81</title>
<path fill="none" stroke="#ff0000" stroke-width=".4964" d="M474.4079,-157.9599C447.0778,-144.5637 389.0079,-116.0999 355.2518,-99.5538"/>
<polygon fill="#ff0000" stroke="#ff0000" stroke-width=".4964" points="356.5389,-96.2868 346.019,-95.0282 353.4579,-102.5724 356.5389,-96.2868"/>
</g>
<!-- dy1&#45;&gt;83 -->
<g id="edge8" class="edge">
<title>dy1&#45;&gt;83</title>
<path fill="none" stroke="#ff0000" stroke-width=".2396" d="M503.9344,-156.0336C524.5089,-142.8074 562.4694,-118.405 587.3385,-102.4181"/>
<polygon fill="#ff0000" stroke="#ff0000" stroke-width=".2396" points="589.3328,-105.297 595.852,-96.9453 585.5475,-99.4087 589.3328,-105.297"/>
</g>
<!-- dx2 -->
<g id="node6" class="node">
<title>dx2</title>
<polygon fill="#d3d3d3" stroke="#000000" points="398.4603,-174.3381 368.4603,-174.3381 368.4603,-156.3381 398.4603,-156.3381 398.4603,-174.3381"/>
<text text-anchor="middle" x="383.4603" y="-163.1381" font-family="Times,serif" font-size="9.00" fill="#000000">dx2</text>
</g>
<!-- dx2&#45;&gt;0 -->
<g id="edge32" class="edge">
<title>dx2&#45;&gt;0</title>
<path fill="none" stroke="#00ff00" stroke-width=".3773" d="M382.9598,-155.9243C381.7437,-133.0475 378.6005,-73.9195 376.7928,-39.9152"/>
<polygon fill="#00ff00" stroke="#00ff00" stroke-width=".3773" points="380.283,-39.6354 376.2569,-29.8354 373.2928,-40.0071 380.283,-39.6354"/>
</g>
<!-- dx2&#45;&gt;1 -->
<g id="edge33" class="edge">
<title>dx2&#45;&gt;1</title>
<path fill="none" stroke="#ff0000" stroke-width=".3709" stroke-dasharray="1,5" d="M373.9513,-156.3007C369.6592,-152.3898 364.4426,-147.8623 359.4603,-144.1249 335.4913,-126.1453 319.0976,-133.0443 302.4603,-108.1249 288.9894,-87.9483 285.7352,-60.016 285.3936,-39.987"/>
<polygon fill="#ff0000" stroke="#ff0000" stroke-width=".3709" points="288.8947,-39.7938 285.457,-29.7723 281.8949,-39.7503 288.8947,-39.7938"/>
</g>
<!-- dx2&#45;&gt;81 -->
<g id="edge9" class="edge">
<title>dx2&#45;&gt;81</title>
<path fill="none" stroke="#ff0000" stroke-width=".4061" d="M377.0537,-156.0336C369.3936,-144.9085 356.2887,-125.8758 345.7675,-110.5954"/>
<polygon fill="#ff0000" stroke="#ff0000" stroke-width=".4061" points="348.486,-108.3718 339.932,-102.1203 342.7205,-112.3416 348.486,-108.3718"/>
</g>
<!-- dx2&#45;&gt;83 -->
<g id="edge10" class="edge">
<title>dx2&#45;&gt;83</title>
<path fill="none" stroke="#00ff00" stroke-width=".6949" stroke-dasharray="1,5" d="M398.774,-160.0705C436.8189,-146.984 536.0356,-112.8559 584.3017,-96.2536"/>
<polygon fill="#00ff00" stroke="#00ff00" stroke-width=".6949" points="585.7413,-99.4597 594.0591,-92.8973 583.4644,-92.8404 585.7413,-99.4597"/>
</g>
<!-- dy2 -->
<g id="node7" class="node">
<title>dy2</title>
<polygon fill="#d3d3d3" stroke="#000000" points="575.4603,-174.3381 545.4603,-174.3381 545.4603,-156.3381 575.4603,-156.3381 575.4603,-174.3381"/>
<text text-anchor="middle" x="560.4603" y="-163.1381" font-family="Times,serif" font-size="9.00" fill="#000000">dy2</text>
</g>
<!-- dy2&#45;&gt;0 -->
<g id="edge34" class="edge">
<title>dy2&#45;&gt;0</title>
<path fill="none" stroke="#ff0000" stroke-width=".4184" d="M551.9966,-156.1977C534.7934,-137.8793 494.0921,-95.8485 455.4603,-65.6985 436.9151,-51.225 414.1374,-37.0607 397.636,-27.373"/>
<polygon fill="#ff0000" stroke="#ff0000" stroke-width=".4184" points="399.1335,-24.1959 388.725,-22.2178 395.6282,-30.255 399.1335,-24.1959"/>
</g>
<!-- dy2&#45;&gt;1 -->
<g id="edge35" class="edge">
<title>dy2&#45;&gt;1</title>
<path fill="none" stroke="#00ff00" stroke-width=".3028" stroke-dasharray="1,5" d="M545.2786,-156.2951C526.4868,-145.0788 493.5288,-125.3317 465.4603,-108.1249 435.0905,-89.5073 428.8287,-82.5792 397.4603,-65.6985 368.0008,-49.845 332.6756,-34.212 309.9146,-24.5534"/>
<polygon fill="#00ff00" stroke="#00ff00" stroke-width=".3028" points="310.9821,-21.2055 300.4072,-20.5567 308.2694,-27.6585 310.9821,-21.2055"/>
</g>
<!-- dy2&#45;&gt;2 -->
<g id="edge36" class="edge">
<title>dy2&#45;&gt;2</title>
<path fill="none" stroke="#00ff00" stroke-width="1.6642" d="M575.6002,-159.3685C594.3244,-151.0585 625.329,-134.0417 638.4603,-108.1249 646.9826,-91.3045 646.9638,-82.5284 638.4603,-65.6985 628.9573,-46.8905 608.8545,-33.331 592.7865,-24.9685"/>
<polygon fill="#00ff00" stroke="#00ff00" stroke-width="1.6642" points="593.9592,-21.6473 583.4342,-20.4327 590.9046,-27.9457 593.9592,-21.6473"/>
</g>
<!-- dy2&#45;&gt;81 -->
<g id="edge11" class="edge">
<title>dy2&#45;&gt;81</title>
<path fill="none" stroke="#ff0000" stroke-width=".4268" d="M545.4186,-157.9811C536.2912,-153.6601 524.3411,-148.2543 513.4603,-144.1249 459.0893,-123.4906 393.7138,-104.4978 357.3511,-94.4321"/>
<polygon fill="#ff0000" stroke="#ff0000" stroke-width=".4268" points="358.0392,-90.9916 347.4694,-91.7193 356.186,-97.7418 358.0392,-90.9916"/>
</g>
<!-- dy2&#45;&gt;83 -->
<g id="edge12" class="edge">
<title>dy2&#45;&gt;83</title>
<path fill="none" stroke="#ff0000" stroke-width=".3581" d="M566.5109,-156.0336C573.7014,-144.9763 585.9715,-126.1076 595.8769,-110.8753"/>
<polygon fill="#ff0000" stroke="#ff0000" stroke-width=".3581" points="598.8621,-112.705 601.3796,-102.4135 592.9938,-108.8888 598.8621,-112.705"/>
</g>
<!-- 421&#45;&gt;0 -->
<g id="edge40" class="edge">
<title>421&#45;&gt;0</title>
<path fill="none" stroke="#ff0000" stroke-width=".4332" d="M138.0514,-74.7576C143.4514,-71.4428 149.536,-68.1061 155.4603,-65.6985 157.7579,-64.7647 294.0117,-33.5062 350.9119,-20.4703"/>
<polygon fill="#ff0000" stroke="#ff0000" stroke-width=".4332" points="351.9014,-23.8344 360.8675,-18.1899 350.3384,-17.0111 351.9014,-23.8344"/>
</g>
<!-- 268&#45;&gt;81 -->
<g id="edge38" class="edge">
<title>268&#45;&gt;81</title>
<path fill="none" stroke="#ff0000" stroke-width=".1243" stroke-dasharray="1,5" d="M329.4603,-143.9077C329.4603,-135.1426 329.4603,-124.8736 329.4603,-115.4849"/>
<polygon fill="#ff0000" stroke="#ff0000" stroke-width=".1243" points="332.9604,-115.3859 329.4603,-105.3859 325.9604,-115.386 332.9604,-115.3859"/>
</g>
<!-- 81&#45;&gt;0 -->
<g id="edge13" class="edge">
<title>81&#45;&gt;0</title>
<path fill="none" stroke="#00ff00" stroke-width=".2519" stroke-dasharray="1,5" d="M339.4416,-71.2752C346.0302,-60.9537 354.744,-47.3028 361.9505,-36.0134"/>
<polygon fill="#00ff00" stroke="#00ff00" stroke-width=".2519" points="364.9069,-37.8868 367.3373,-27.5744 359.0065,-34.1203 364.9069,-37.8868"/>
</g>
<!-- 81&#45;&gt;1 -->
<g id="edge14" class="edge">
<title>81&#45;&gt;1</title>
<path fill="none" stroke="#ff0000" stroke-width=".5689" d="M319.9172,-70.9187C313.8862,-60.8116 306.0147,-47.62 299.4221,-36.5715"/>
<polygon fill="#ff0000" stroke="#ff0000" stroke-width=".5689" points="302.3833,-34.7036 294.2535,-27.9096 296.3721,-38.2905 302.3833,-34.7036"/>
</g>
<!-- 81&#45;&gt;2 -->
<g id="edge15" class="edge">
<title>81&#45;&gt;2</title>
<path fill="none" stroke="#ff0000" stroke-width=".5544" stroke-dasharray="1,5" d="M347.1081,-81.6128C389.5667,-68.8641 497.4596,-36.4682 545.6175,-22.0083"/>
<polygon fill="#ff0000" stroke="#ff0000" stroke-width=".5544" points="546.6331,-25.3578 555.2041,-19.1298 544.62,-18.6535 546.6331,-25.3578"/>
</g>
<!-- 83&#45;&gt;0 -->
<g id="edge16" class="edge">
<title>83&#45;&gt;0</title>
<path fill="none" stroke="#ff0000" stroke-width=".1006" stroke-dasharray="1,5" d="M596.7698,-75.6531C591.5289,-72.057 585.4383,-68.3312 579.4603,-65.6985 518.0876,-38.67 439.7333,-24.2464 400.3833,-18.2566"/>
<polygon fill="#ff0000" stroke="#ff0000" stroke-width=".1006" points="400.7674,-14.7756 390.3654,-16.7874 399.7516,-21.7015 400.7674,-14.7756"/>
</g>
<!-- 83&#45;&gt;2 -->
<g id="edge17" class="edge">
<title>83&#45;&gt;2</title>
<path fill="none" stroke="#00ff00" stroke-width=".3358" stroke-dasharray="1,5" d="M602.1391,-70.9187C596.2484,-60.8116 588.56,-47.62 582.1206,-36.5715"/>
<polygon fill="#00ff00" stroke="#00ff00" stroke-width=".3358" points="585.1316,-34.7869 577.0722,-27.9096 579.0839,-38.3118 585.1316,-34.7869"/>
</g>
</g>
</svg>
