<?xml version="1.0" encoding="UTF-8" standalone="no"?>
<!DOCTYPE svg PUBLIC "-//W3C//DTD SVG 1.1//EN"
 "http://www.w3.org/Graphics/SVG/1.1/DTD/svg11.dtd">
<!-- Generated by graphviz version 2.40.1 (20161225.0304)
 -->
<!-- Title: %3 Pages: 1 -->
<svg width="803pt" height="249pt"
 viewBox="0.00 0.00 802.77 248.55" xmlns="http://www.w3.org/2000/svg" xmlns:xlink="http://www.w3.org/1999/xlink">
<g id="graph0" class="graph" transform="scale(1 1) rotate(0) translate(4 244.5513)">
<title>%3</title>
<polygon fill="#ffffff" stroke="transparent" points="-4,4 -4,-244.5513 798.7702,-244.5513 798.7702,4 -4,4"/>
<!-- &#45;1 -->
<g id="node1" class="node">
<title>&#45;1</title>
<polygon fill="#d3d3d3" stroke="#000000" points="638.5721,-174.3381 614.5721,-174.3381 614.5721,-156.3381 638.5721,-156.3381 638.5721,-174.3381"/>
<text text-anchor="middle" x="626.5721" y="-163.1381" font-family="Times,serif" font-size="9.00" fill="#000000">&#45;1</text>
</g>
<!-- 0 -->
<g id="node8" class="node">
<title>0</title>
<ellipse fill="#add8e6" stroke="#000000" cx="321.5721" cy="-14.8492" rx="14.7" ry="14.7"/>
<text text-anchor="middle" x="321.5721" y="-12.6492" font-family="Times,serif" font-size="9.00" fill="#000000">0</text>
</g>
<!-- &#45;1&#45;&gt;0 -->
<g id="edge20" class="edge">
<title>&#45;1&#45;&gt;0</title>
<path fill="none" stroke="#ff0000" stroke-width=".1667" d="M627.3615,-156.3342C628.5391,-136.7324 628.3173,-90.0081 602.5721,-65.6985 597.8771,-61.2652 414.6108,-30.3526 346.6188,-19.0099"/>
<polygon fill="#ff0000" stroke="#ff0000" stroke-width=".1667" points="346.8251,-15.4961 336.3859,-17.3055 345.6749,-22.401 346.8251,-15.4961"/>
</g>
<!-- 1 -->
<g id="node9" class="node">
<title>1</title>
<ellipse fill="#add8e6" stroke="#000000" cx="195.5721" cy="-14.8492" rx="14.7" ry="14.7"/>
<text text-anchor="middle" x="195.5721" y="-12.6492" font-family="Times,serif" font-size="9.00" fill="#000000">1</text>
</g>
<!-- &#45;1&#45;&gt;1 -->
<g id="edge21" class="edge">
<title>&#45;1&#45;&gt;1</title>
<path fill="none" stroke="#ff0000" stroke-width=".199" stroke-dasharray="1,5" d="M622.561,-156.0777C612.6233,-133.5746 586.4476,-77.0313 569.5721,-65.6985 518.9553,-31.7064 357.9634,-38.0905 297.5721,-29.6985 271.2794,-26.0448 241.2094,-21.6395 220.5678,-18.5805"/>
<polygon fill="#ff0000" stroke="#ff0000" stroke-width=".199" points="220.8346,-15.0818 210.4287,-17.0738 219.8056,-22.0057 220.8346,-15.0818"/>
</g>
<!-- 2 -->
<g id="node10" class="node">
<title>2</title>
<ellipse fill="#add8e6" stroke="#000000" cx="435.5721" cy="-14.8492" rx="14.7" ry="14.7"/>
<text text-anchor="middle" x="435.5721" y="-12.6492" font-family="Times,serif" font-size="9.00" fill="#000000">2</text>
</g>
<!-- &#45;1&#45;&gt;2 -->
<g id="edge22" class="edge">
<title>&#45;1&#45;&gt;2</title>
<path fill="none" stroke="#ff0000" stroke-width=".4351" d="M631.8389,-156.2194C642.0549,-137.1966 661.7752,-92.8034 640.5721,-65.6985 618.4649,-37.4378 510.3587,-22.6694 460.6565,-17.28"/>
<polygon fill="#ff0000" stroke="#ff0000" stroke-width=".4351" points="460.753,-13.7712 450.4442,-16.2164 460.0278,-20.7336 460.753,-13.7712"/>
</g>
<!-- 96 -->
<g id="node11" class="node">
<title>96</title>
<ellipse fill="#ffffff" stroke="#000000" cx="710.5721" cy="-86.9117" rx="18.2703" ry="18.2703"/>
<text text-anchor="middle" x="710.5721" y="-84.7117" font-family="Times,serif" font-size="9.00" fill="#000000">96</text>
</g>
<!-- &#45;1&#45;&gt;96 -->
<g id="edge43" class="edge">
<title>&#45;1&#45;&gt;96</title>
<path fill="none" stroke="#00ff00" stroke-width=".2155" d="M636.5379,-156.0336C649.46,-143.9689 672.3426,-122.6046 689.2584,-106.8112"/>
<polygon fill="#00ff00" stroke="#00ff00" stroke-width=".2155" points="692.0925,-108.9535 697.0134,-99.5708 687.3154,-103.8369 692.0925,-108.9535"/>
</g>
<!-- 71 -->
<g id="node13" class="node">
<title>71</title>
<ellipse fill="#ffffff" stroke="#000000" cx="542.5721" cy="-86.9117" rx="18.2703" ry="18.2703"/>
<text text-anchor="middle" x="542.5721" y="-84.7117" font-family="Times,serif" font-size="9.00" fill="#000000">71</text>
</g>
<!-- &#45;1&#45;&gt;71 -->
<g id="edge1" class="edge">
<title>&#45;1&#45;&gt;71</title>
<path fill="none" stroke="#00ff00" stroke-width=".4515" d="M616.6064,-156.0336C603.6843,-143.9689 580.8016,-122.6046 563.8859,-106.8112"/>
<polygon fill="#00ff00" stroke="#00ff00" stroke-width=".4515" points="565.8289,-103.8369 556.1309,-99.5708 561.0518,-108.9535 565.8289,-103.8369"/>
</g>
<!-- &#45;2 -->
<g id="node2" class="node">
<title>&#45;2</title>
<polygon fill="#d3d3d3" stroke="#000000" points="89.5721,-174.3381 65.5721,-174.3381 65.5721,-156.3381 89.5721,-156.3381 89.5721,-174.3381"/>
<text text-anchor="middle" x="77.5721" y="-163.1381" font-family="Times,serif" font-size="9.00" fill="#000000">&#45;2</text>
</g>
<!-- &#45;2&#45;&gt;0 -->
<g id="edge23" class="edge">
<title>&#45;2&#45;&gt;0</title>
<path fill="none" stroke="#ff0000" stroke-width=".2945" d="M72.2016,-156.1361C61.789,-136.9557 41.7175,-92.2808 63.5721,-65.6985 71.0407,-56.6143 233.6724,-29.2045 296.8171,-18.8598"/>
<polygon fill="#ff0000" stroke="#ff0000" stroke-width=".2945" points="297.4221,-22.3074 306.7279,-17.2426 296.2948,-15.3988 297.4221,-22.3074"/>
</g>
<!-- &#45;2&#45;&gt;1 -->
<g id="edge24" class="edge">
<title>&#45;2&#45;&gt;1</title>
<path fill="none" stroke="#ff0000" stroke-width=".1387" d="M76.0839,-156.054C73.577,-137.1054 70.5725,-93.4319 90.5721,-65.6985 109.6638,-39.2241 146.3276,-25.9309 170.8746,-19.7148"/>
<polygon fill="#ff0000" stroke="#ff0000" stroke-width=".1387" points="171.926,-23.0641 180.8799,-17.4003 170.3484,-16.2442 171.926,-23.0641"/>
</g>
<!-- &#45;2&#45;&gt;2 -->
<g id="edge25" class="edge">
<title>&#45;2&#45;&gt;2</title>
<path fill="none" stroke="#00ff00" stroke-width=".3521" stroke-dasharray="1,5" d="M84.7014,-156.1665C100.736,-136.2305 141.8353,-88.881 187.5721,-65.6985 207.5013,-55.597 352.2414,-29.4606 410.9409,-19.1361"/>
<polygon fill="#00ff00" stroke="#00ff00" stroke-width=".3521" points="411.6048,-22.5732 420.8507,-17.3997 410.3966,-15.6782 411.6048,-22.5732"/>
</g>
<!-- 69 -->
<g id="node12" class="node">
<title>69</title>
<ellipse fill="#ffffff" stroke="#000000" cx="237.5721" cy="-86.9117" rx="18.2703" ry="18.2703"/>
<text text-anchor="middle" x="237.5721" y="-84.7117" font-family="Times,serif" font-size="9.00" fill="#000000">69</text>
</g>
<!-- &#45;2&#45;&gt;69 -->
<g id="edge2" class="edge">
<title>&#45;2&#45;&gt;69</title>
<path fill="none" stroke="#ff0000" stroke-width=".2665" d="M89.5981,-159.4434C115.3729,-146.8095 176.4403,-116.8764 211.5396,-99.6719"/>
<polygon fill="#ff0000" stroke="#ff0000" stroke-width=".2665" points="213.2611,-102.726 220.6999,-95.1819 210.1801,-96.4405 213.2611,-102.726"/>
</g>
<!-- &#45;2&#45;&gt;71 -->
<g id="edge3" class="edge">
<title>&#45;2&#45;&gt;71</title>
<path fill="none" stroke="#ff0000" stroke-width=".3052" d="M89.8146,-162.0508C107.5115,-157.4123 141.3278,-148.9724 170.5721,-144.1249 322.2266,-118.9866 371.6051,-164.6176 514.5721,-108.1249 516.4864,-107.3685 518.3826,-106.4428 520.2322,-105.4057"/>
<polygon fill="#ff0000" stroke="#ff0000" stroke-width=".3052" points="522.6003,-108.0321 528.9601,-99.5584 518.7041,-102.2166 522.6003,-108.0321"/>
</g>
<!-- &#45;3 -->
<g id="node3" class="node">
<title>&#45;3</title>
<polygon fill="#d3d3d3" stroke="#000000" points="399.5721,-240.5513 375.5721,-240.5513 375.5721,-222.5513 399.5721,-222.5513 399.5721,-240.5513"/>
<text text-anchor="middle" x="387.5721" y="-229.3513" font-family="Times,serif" font-size="9.00" fill="#000000">&#45;3</text>
</g>
<!-- &#45;3&#45;&gt;0 -->
<g id="edge26" class="edge">
<title>&#45;3&#45;&gt;0</title>
<path fill="none" stroke="#ff0000" stroke-width=".1912" stroke-dasharray="1,5" d="M375.5516,-230.8002C318.7438,-227.1355 79.0012,-210.3387 56.5721,-186.5513 19.6786,-147.4233 16.23,-107.0838 50.5721,-65.6985 58.4827,-56.1655 230.8253,-28.7969 296.4792,-18.6738"/>
<polygon fill="#ff0000" stroke="#ff0000" stroke-width=".1912" points="297.397,-22.074 306.7499,-17.0968 296.3346,-15.1551 297.397,-22.074"/>
</g>
<!-- &#45;3&#45;&gt;1 -->
<g id="edge27" class="edge">
<title>&#45;3&#45;&gt;1</title>
<path fill="none" stroke="#00ff00" stroke-width=".3828" d="M375.2524,-230.9522C314.7008,-227.8859 50.5849,-213.0545 26.5721,-186.5513 -9.497,-146.7414 -7.5469,-108.7586 24.5721,-65.6985 42.1559,-42.125 127.7527,-25.5439 170.7792,-18.5534"/>
<polygon fill="#00ff00" stroke="#00ff00" stroke-width=".3828" points="171.4006,-21.9988 180.7337,-16.9844 170.3106,-15.0841 171.4006,-21.9988"/>
</g>
<!-- &#45;3&#45;&gt;2 -->
<g id="edge28" class="edge">
<title>&#45;3&#45;&gt;2</title>
<path fill="none" stroke="#00ff00" stroke-width=".1271" d="M399.6418,-231.2445C453.7355,-229.6808 673.7257,-221.2569 731.5721,-186.5513 768.2992,-164.5165 774.5046,-148.9128 787.5721,-108.1249 793.3252,-90.1678 799.9156,-79.9531 787.5721,-65.6985 766.0947,-40.8956 537.6356,-22.2264 460.6976,-16.6032"/>
<polygon fill="#00ff00" stroke="#00ff00" stroke-width=".1271" points="460.7135,-13.0954 450.4882,-15.869 460.2114,-20.0773 460.7135,-13.0954"/>
</g>
<!-- &#45;3&#45;&gt;69 -->
<g id="edge4" class="edge">
<title>&#45;3&#45;&gt;69</title>
<path fill="none" stroke="#00ff00" stroke-width=".5661" stroke-dasharray="1,5" d="M375.3867,-227.5839C357.3545,-221.2358 323.2566,-207.3544 300.5721,-186.5513 277.8409,-165.7054 260.0406,-134.8739 249.2429,-113.037"/>
<polygon fill="#00ff00" stroke="#00ff00" stroke-width=".5661" points="252.3897,-111.5047 244.916,-103.9951 246.0755,-114.5263 252.3897,-111.5047"/>
</g>
<!-- &#45;3&#45;&gt;71 -->
<g id="edge5" class="edge">
<title>&#45;3&#45;&gt;71</title>
<path fill="none" stroke="#00ff00" stroke-width=".1614" stroke-dasharray="1,5" d="M397.2681,-222.5034C421.9336,-199.4866 487.5139,-138.2898 521.4962,-106.5789"/>
<polygon fill="#00ff00" stroke="#00ff00" stroke-width=".1614" points="524.0993,-108.937 529.0226,-99.5556 519.3235,-103.8192 524.0993,-108.937"/>
</g>
<!-- 117 -->
<g id="node14" class="node">
<title>117</title>
<ellipse fill="#ffffff" stroke="#000000" cx="528.5721" cy="-165.3381" rx="21.4286" ry="21.4286"/>
<text text-anchor="middle" x="528.5721" y="-163.1381" font-family="Times,serif" font-size="9.00" fill="#000000">117</text>
</g>
<!-- &#45;3&#45;&gt;117 -->
<g id="edge41" class="edge">
<title>&#45;3&#45;&gt;117</title>
<path fill="none" stroke="#00ff00" stroke-width=".1373" d="M399.5937,-225.906C421.5879,-215.5776 468.8721,-193.3731 499.6693,-178.9108"/>
<polygon fill="#00ff00" stroke="#00ff00" stroke-width=".1373" points="501.4722,-181.9309 509.0361,-174.5121 498.4967,-175.5947 501.4722,-181.9309"/>
</g>
<!-- &#45;4 -->
<g id="node4" class="node">
<title>&#45;4</title>
<polygon fill="#d3d3d3" stroke="#000000" points="722.5721,-174.3381 698.5721,-174.3381 698.5721,-156.3381 722.5721,-156.3381 722.5721,-174.3381"/>
<text text-anchor="middle" x="710.5721" y="-163.1381" font-family="Times,serif" font-size="9.00" fill="#000000">&#45;4</text>
</g>
<!-- &#45;4&#45;&gt;0 -->
<g id="edge29" class="edge">
<title>&#45;4&#45;&gt;0</title>
<path fill="none" stroke="#00ff00" stroke-width=".139" d="M717.9671,-156.0912C732.4411,-136.8257 761.1281,-91.9989 737.5721,-65.6985 688.9454,-11.4063 483.7765,-39.6345 411.5721,-29.6985 389.3816,-26.6448 364.2374,-22.4324 346.1778,-19.274"/>
<polygon fill="#00ff00" stroke="#00ff00" stroke-width=".139" points="346.6457,-15.8025 336.189,-17.5082 345.427,-22.6956 346.6457,-15.8025"/>
</g>
<!-- &#45;4&#45;&gt;2 -->
<g id="edge30" class="edge">
<title>&#45;4&#45;&gt;2</title>
<path fill="none" stroke="#00ff00" stroke-width=".2093" stroke-dasharray="1,5" d="M722.8193,-158.0873C737.3675,-148.6772 760.8837,-130.7504 770.5721,-108.1249 777.9946,-90.791 782.8644,-79.9973 770.5721,-65.6985 750.3281,-42.1497 535.5571,-22.8529 460.9414,-16.8154"/>
<polygon fill="#00ff00" stroke="#00ff00" stroke-width=".2093" points="460.8501,-13.2972 450.6036,-15.9917 460.294,-20.275 460.8501,-13.2972"/>
</g>
<!-- &#45;4&#45;&gt;96 -->
<g id="edge40" class="edge">
<title>&#45;4&#45;&gt;96</title>
<path fill="none" stroke="#ff0000" stroke-width=".2573" d="M710.5721,-156.0336C710.5721,-146.1396 710.5721,-129.9915 710.5721,-115.7906"/>
<polygon fill="#ff0000" stroke="#ff0000" stroke-width=".2573" points="714.0722,-115.4464 710.5721,-105.4464 707.0722,-115.4465 714.0722,-115.4464"/>
</g>
<!-- &#45;4&#45;&gt;69 -->
<g id="edge6" class="edge">
<title>&#45;4&#45;&gt;69</title>
<path fill="none" stroke="#00ff00" stroke-width=".859" d="M698.2204,-160.4151C685.6604,-155.5918 665.544,-148.3655 647.5721,-144.1249 506.7683,-110.9009 333.9012,-94.5518 266.4493,-89.0815"/>
<polygon fill="#00ff00" stroke="#00ff00" stroke-width=".859" points="266.4333,-85.5693 256.1879,-88.268 265.88,-92.5475 266.4333,-85.5693"/>
</g>
<!-- &#45;4&#45;&gt;71 -->
<g id="edge7" class="edge">
<title>&#45;4&#45;&gt;71</title>
<path fill="none" stroke="#ff0000" stroke-width=".4415" stroke-dasharray="1,5" d="M698.49,-159.6979C671.4167,-147.0594 605.3822,-116.2329 568.5249,-99.0271"/>
<polygon fill="#ff0000" stroke="#ff0000" stroke-width=".4415" points="569.9334,-95.8221 559.3916,-94.7634 566.9724,-102.165 569.9334,-95.8221"/>
</g>
<!-- &#45;5 -->
<g id="node5" class="node">
<title>&#45;5</title>
<polygon fill="#d3d3d3" stroke="#000000" points="416.5721,-174.3381 392.5721,-174.3381 392.5721,-156.3381 416.5721,-156.3381 416.5721,-174.3381"/>
<text text-anchor="middle" x="404.5721" y="-163.1381" font-family="Times,serif" font-size="9.00" fill="#000000">&#45;5</text>
</g>
<!-- &#45;5&#45;&gt;0 -->
<g id="edge31" class="edge">
<title>&#45;5&#45;&gt;0</title>
<path fill="none" stroke="#ff0000" stroke-width=".2355" d="M399.3801,-155.9243C386.395,-132.3809 352.2341,-70.443 333.7936,-37.0082"/>
<polygon fill="#ff0000" stroke="#ff0000" stroke-width=".2355" points="336.722,-35.0706 328.8277,-28.0044 330.5925,-38.4513 336.722,-35.0706"/>
</g>
<!-- &#45;5&#45;&gt;1 -->
<g id="edge32" class="edge">
<title>&#45;5&#45;&gt;1</title>
<path fill="none" stroke="#00ff00" stroke-width=".1418" d="M392.432,-156.5967C357.9459,-131.7652 259.1147,-60.6026 216.0464,-29.5916"/>
<polygon fill="#00ff00" stroke="#00ff00" stroke-width=".1418" points="217.9061,-26.6178 207.7457,-23.6148 213.8158,-32.2984 217.9061,-26.6178"/>
</g>
<!-- &#45;5&#45;&gt;2 -->
<g id="edge33" class="edge">
<title>&#45;5&#45;&gt;2</title>
<path fill="none" stroke="#ff0000" stroke-width=".1386" d="M406.5113,-155.9243C411.2239,-133.0475 423.4039,-73.9195 430.4087,-39.9152"/>
<polygon fill="#ff0000" stroke="#ff0000" stroke-width=".1386" points="433.8954,-40.3359 432.4851,-29.8354 427.0394,-38.9235 433.8954,-40.3359"/>
</g>
<!-- &#45;5&#45;&gt;69 -->
<g id="edge8" class="edge">
<title>&#45;5&#45;&gt;69</title>
<path fill="none" stroke="#ff0000" stroke-width=".27" stroke-dasharray="1,5" d="M392.3068,-161.0097C368.1701,-152.3047 313.0719,-131.5022 269.5721,-108.1249 266.7851,-106.6271 263.9314,-104.9554 261.1316,-103.2258"/>
<polygon fill="#ff0000" stroke="#ff0000" stroke-width=".27" points="262.8144,-100.1457 252.5189,-97.6453 259.008,-106.0204 262.8144,-100.1457"/>
</g>
<!-- &#45;5&#45;&gt;71 -->
<g id="edge9" class="edge">
<title>&#45;5&#45;&gt;71</title>
<path fill="none" stroke="#00ff00" stroke-width=".1804" stroke-dasharray="1,5" d="M416.8679,-156.8765C422.975,-152.8188 430.536,-148.0084 437.5721,-144.1249 470.6466,-125.87 482.2252,-127.64 514.5721,-108.1249 516.2954,-107.0853 518.0396,-105.9611 519.7708,-104.7916"/>
<polygon fill="#00ff00" stroke="#00ff00" stroke-width=".1804" points="522.0933,-107.4321 528.1603,-98.7464 518.001,-101.7529 522.0933,-107.4321"/>
</g>
<!-- 156 -->
<g id="node15" class="node">
<title>156</title>
<ellipse fill="#ffffff" stroke="#000000" cx="484.5721" cy="-86.9117" rx="21.4286" ry="21.4286"/>
<text text-anchor="middle" x="484.5721" y="-84.7117" font-family="Times,serif" font-size="9.00" fill="#000000">156</text>
</g>
<!-- &#45;5&#45;&gt;156 -->
<g id="edge44" class="edge">
<title>&#45;5&#45;&gt;156</title>
<path fill="none" stroke="#00ff00" stroke-width=".2646" stroke-dasharray="1,5" d="M414.0633,-156.0336C425.801,-144.5268 446.1678,-124.5606 462.0034,-109.0365"/>
<polygon fill="#00ff00" stroke="#00ff00" stroke-width=".2646" points="464.6648,-111.3288 469.3556,-101.8289 459.7644,-106.3301 464.6648,-111.3288"/>
</g>
<!-- &#45;6 -->
<g id="node6" class="node">
<title>&#45;6</title>
<polygon fill="#d3d3d3" stroke="#000000" points="333.5721,-174.3381 309.5721,-174.3381 309.5721,-156.3381 333.5721,-156.3381 333.5721,-174.3381"/>
<text text-anchor="middle" x="321.5721" y="-163.1381" font-family="Times,serif" font-size="9.00" fill="#000000">&#45;6</text>
</g>
<!-- &#45;6&#45;&gt;0 -->
<g id="edge34" class="edge">
<title>&#45;6&#45;&gt;0</title>
<path fill="none" stroke="#ff0000" stroke-width=".4249" d="M321.5721,-155.9243C321.5721,-133.0475 321.5721,-73.9195 321.5721,-39.9152"/>
<polygon fill="#ff0000" stroke="#ff0000" stroke-width=".4249" points="325.0722,-39.8353 321.5721,-29.8354 318.0722,-39.8354 325.0722,-39.8353"/>
</g>
<!-- &#45;6&#45;&gt;1 -->
<g id="edge35" class="edge">
<title>&#45;6&#45;&gt;1</title>
<path fill="none" stroke="#00ff00" stroke-width=".1712" d="M309.537,-162.8886C286.2728,-157.4768 235.2547,-142.1802 210.5721,-108.1249 196.2123,-88.3122 193.495,-59.914 193.7274,-39.6657"/>
<polygon fill="#00ff00" stroke="#00ff00" stroke-width=".1712" points="197.2264,-39.7546 194.0881,-29.6353 190.2309,-39.503 197.2264,-39.7546"/>
</g>
<!-- &#45;6&#45;&gt;2 -->
<g id="edge36" class="edge">
<title>&#45;6&#45;&gt;2</title>
<path fill="none" stroke="#00ff00" stroke-width=".3712" stroke-dasharray="1,5" d="M328.7033,-155.9243C346.9598,-131.8244 395.6925,-67.4935 420.5452,-34.6859"/>
<polygon fill="#00ff00" stroke="#00ff00" stroke-width=".3712" points="423.3485,-36.7816 426.597,-26.6971 417.7687,-32.5548 423.3485,-36.7816"/>
</g>
<!-- &#45;6&#45;&gt;69 -->
<g id="edge10" class="edge">
<title>&#45;6&#45;&gt;69</title>
<path fill="none" stroke="#00ff00" stroke-width=".353" d="M311.6064,-156.0336C298.6843,-143.9689 275.8016,-122.6046 258.8859,-106.8112"/>
<polygon fill="#00ff00" stroke="#00ff00" stroke-width=".353" points="260.8289,-103.8369 251.1309,-99.5708 256.0518,-108.9535 260.8289,-103.8369"/>
</g>
<!-- &#45;6&#45;&gt;71 -->
<g id="edge11" class="edge">
<title>&#45;6&#45;&gt;71</title>
<path fill="none" stroke="#ff0000" stroke-width=".3426" d="M333.8507,-160.8876C346.307,-156.4317 366.177,-149.4854 383.5721,-144.1249 441.2751,-126.3431 460.4216,-134.8373 514.5721,-108.1249 516.5719,-107.1384 518.5716,-106.001 520.5304,-104.7759"/>
<polygon fill="#ff0000" stroke="#ff0000" stroke-width=".3426" points="522.5424,-107.6399 528.7302,-99.0398 518.5298,-101.904 522.5424,-107.6399"/>
</g>
<!-- &#45;7 -->
<g id="node7" class="node">
<title>&#45;7</title>
<polygon fill="#d3d3d3" stroke="#000000" points="203.5721,-174.3381 179.5721,-174.3381 179.5721,-156.3381 203.5721,-156.3381 203.5721,-174.3381"/>
<text text-anchor="middle" x="191.5721" y="-163.1381" font-family="Times,serif" font-size="9.00" fill="#000000">&#45;7</text>
</g>
<!-- &#45;7&#45;&gt;0 -->
<g id="edge37" class="edge">
<title>&#45;7&#45;&gt;0</title>
<path fill="none" stroke="#00ff00" stroke-width=".1935" d="M186.367,-156.0899C176.5102,-137.2077 157.7993,-93.65 177.5721,-65.6985 191.5776,-45.8999 259.1031,-28.4306 296.5041,-20.0722"/>
<polygon fill="#00ff00" stroke="#00ff00" stroke-width=".1935" points="297.5924,-23.4173 306.6188,-17.8698 296.1031,-16.5776 297.5924,-23.4173"/>
</g>
<!-- &#45;7&#45;&gt;1 -->
<g id="edge38" class="edge">
<title>&#45;7&#45;&gt;1</title>
<path fill="none" stroke="#00ff00" stroke-width=".1334" d="M179.4423,-161.8302C159.012,-155.1883 118.3293,-138.6339 101.5721,-108.1249 92.4945,-91.5976 91.9185,-81.8961 101.5721,-65.6985 116.4967,-40.6568 148.5092,-27.1996 171.0128,-20.5397"/>
<polygon fill="#00ff00" stroke="#00ff00" stroke-width=".1334" points="172.1453,-23.8592 180.8835,-17.868 170.3163,-17.1023 172.1453,-23.8592"/>
</g>
<!-- &#45;7&#45;&gt;2 -->
<g id="edge39" class="edge">
<title>&#45;7&#45;&gt;2</title>
<path fill="none" stroke="#00ff00" stroke-width=".16" d="M190.3241,-156.1724C188.2248,-136.6629 186.3372,-90.7677 210.5721,-65.6985 224.533,-51.257 354.8006,-28.2207 410.5034,-18.9305"/>
<polygon fill="#00ff00" stroke="#00ff00" stroke-width=".16" points="411.298,-22.3467 420.5932,-17.2623 410.1562,-15.4404 411.298,-22.3467"/>
</g>
<!-- &#45;7&#45;&gt;69 -->
<g id="edge12" class="edge">
<title>&#45;7&#45;&gt;69</title>
<path fill="none" stroke="#00ff00" stroke-width=".2417" d="M197.0296,-156.0336C203.3756,-145.214 214.1085,-126.9154 222.9374,-111.8628"/>
<polygon fill="#00ff00" stroke="#00ff00" stroke-width=".2417" points="226.092,-113.4023 228.1324,-103.0058 220.054,-109.8607 226.092,-113.4023"/>
</g>
<!-- &#45;7&#45;&gt;71 -->
<g id="edge13" class="edge">
<title>&#45;7&#45;&gt;71</title>
<path fill="none" stroke="#00ff00" stroke-width=".1773" d="M203.6504,-162.8828C223.7366,-158.8231 265.2896,-150.5248 300.5721,-144.1249 395.4711,-126.9112 426.0227,-146.3494 514.5721,-108.1249 516.4619,-107.3091 518.34,-106.3398 520.1768,-105.2715"/>
<polygon fill="#00ff00" stroke="#00ff00" stroke-width=".1773" points="522.5738,-107.8742 528.8776,-99.3588 518.6394,-102.0846 522.5738,-107.8742"/>
</g>
<!-- 69&#45;&gt;0 -->
<g id="edge14" class="edge">
<title>69&#45;&gt;0</title>
<path fill="none" stroke="#ff0000" stroke-width=".4964" stroke-dasharray="1,5" d="M251.8216,-74.6873C265.7235,-62.761 286.9674,-44.5362 302.3576,-31.3331"/>
<polygon fill="#ff0000" stroke="#ff0000" stroke-width=".4964" points="304.9108,-33.7543 310.2217,-24.5866 300.353,-28.4414 304.9108,-33.7543"/>
</g>
<!-- 69&#45;&gt;1 -->
<g id="edge15" class="edge">
<title>69&#45;&gt;1</title>
<path fill="none" stroke="#ff0000" stroke-width=".3233" d="M228.251,-70.9187C222.3602,-60.8116 214.6718,-47.62 208.2325,-36.5715"/>
<polygon fill="#ff0000" stroke="#ff0000" stroke-width=".3233" points="211.2435,-34.7869 203.1841,-27.9096 205.1957,-38.3118 211.2435,-34.7869"/>
</g>
<!-- 69&#45;&gt;2 -->
<g id="edge16" class="edge">
<title>69&#45;&gt;2</title>
<path fill="none" stroke="#00ff00" stroke-width=".2706" d="M255.1433,-80.5166C290.8402,-67.5247 371.8564,-38.0387 412.051,-23.4098"/>
<polygon fill="#00ff00" stroke="#00ff00" stroke-width=".2706" points="413.3629,-26.657 421.5629,-19.9479 410.9688,-20.0791 413.3629,-26.657"/>
</g>
<!-- 71&#45;&gt;0 -->
<g id="edge17" class="edge">
<title>71&#45;&gt;0</title>
<path fill="none" stroke="#ff0000" stroke-width=".4063" d="M528.7463,-74.7507C524.4332,-71.4357 519.5074,-68.1007 514.5721,-65.6985 458.0008,-38.1628 384.5849,-24.107 346.6795,-18.2616"/>
<polygon fill="#ff0000" stroke="#ff0000" stroke-width=".4063" points="346.9466,-14.7632 336.5427,-16.7656 345.9245,-21.6882 346.9466,-14.7632"/>
</g>
<!-- 71&#45;&gt;1 -->
<g id="edge18" class="edge">
<title>71&#45;&gt;1</title>
<path fill="none" stroke="#ff0000" stroke-width=".1182" d="M528.8893,-74.4373C524.5803,-71.1134 519.6208,-67.8522 514.5721,-65.6985 500.9873,-59.9034 293.7018,-29.2063 220.7429,-18.5203"/>
<polygon fill="#ff0000" stroke="#ff0000" stroke-width=".1182" points="221.0145,-15.0229 210.6132,-17.0389 220.0015,-21.9492 221.0145,-15.0229"/>
</g>
<!-- 71&#45;&gt;2 -->
<g id="edge19" class="edge">
<title>71&#45;&gt;2</title>
<path fill="none" stroke="#00ff00" stroke-width=".3668" d="M527.9061,-75.468C523.6538,-72.2411 518.9706,-68.7735 514.5721,-65.6985 495.4634,-52.3393 473.0632,-38.0449 457.0053,-28.025"/>
<polygon fill="#00ff00" stroke="#00ff00" stroke-width=".3668" points="458.6989,-24.9568 448.3563,-22.6587 455.0084,-30.905 458.6989,-24.9568"/>
</g>
<!-- 117&#45;&gt;71 -->
<g id="edge42" class="edge">
<title>117&#45;&gt;71</title>
<path fill="none" stroke="#ff0000" stroke-width=".153" d="M532.3239,-144.3213C533.9299,-135.3247 535.829,-124.6862 537.5533,-115.0268"/>
<polygon fill="#ff0000" stroke="#ff0000" stroke-width=".153" points="541.0217,-115.5131 539.3336,-105.0536 534.1306,-114.2829 541.0217,-115.5131"/>
</g>
</g>
</svg>
