<?xml version="1.0" encoding="UTF-8" standalone="no"?>
<!DOCTYPE svg PUBLIC "-//W3C//DTD SVG 1.1//EN"
 "http://www.w3.org/Graphics/SVG/1.1/DTD/svg11.dtd">
<!-- Generated by graphviz version 2.43.0 (0)
 -->
<!-- Title: %3 Pages: 1 -->
<svg width="3578pt" height="282pt"
 viewBox="0.00 0.00 3577.98 282.49" xmlns="http://www.w3.org/2000/svg" xmlns:xlink="http://www.w3.org/1999/xlink">
<g id="graph0" class="graph" transform="scale(1 1) rotate(0) translate(4 278.49)">
<title>%3</title>
<polygon fill="white" stroke="transparent" points="-4,4 -4,-278.49 3573.98,-278.49 3573.98,4 -4,4"/>
<!-- group_1_ped_1_location -->
<g id="node1" class="node">
<title>group_1_ped_1_location</title>
<polygon fill="lightgray" stroke="black" points="2703.99,-200.5 2575.99,-200.5 2575.99,-182.5 2703.99,-182.5 2703.99,-200.5"/>
<text text-anchor="middle" x="2639.99" y="-189.3" font-family="Times,serif" font-size="9.00">group_1_ped_1_location</text>
</g>
<!-- 0 -->
<g id="node26" class="node">
<title>0</title>
<ellipse fill="lightblue" stroke="black" cx="1881.99" cy="-110.25" rx="16.03" ry="16.03"/>
<text text-anchor="middle" x="1881.99" y="-108.05" font-family="Times,serif" font-size="9.00">0</text>
</g>
<!-- group_1_ped_1_location&#45;&gt;0 -->
<g id="edge1" class="edge">
<title>group_1_ped_1_location&#45;&gt;0</title>
<path fill="none" stroke="red" stroke-width="0.76" d="M2623.32,-182.5C2608.8,-175.92 2586.99,-166.99 2566.99,-162.51 2437.89,-133.58 2018.01,-116.29 1908.37,-112.19"/>
<polygon fill="red" stroke="red" stroke-width="0.76" points="1908.32,-108.69 1898.2,-111.82 1908.06,-115.68 1908.32,-108.69"/>
</g>
<!-- 1 -->
<g id="node27" class="node">
<title>1</title>
<ellipse fill="lightblue" stroke="black" cx="2329.99" cy="-110.25" rx="16.03" ry="16.03"/>
<text text-anchor="middle" x="2329.99" y="-108.05" font-family="Times,serif" font-size="9.00">1</text>
</g>
<!-- group_1_ped_1_location&#45;&gt;1 -->
<g id="edge2" class="edge">
<title>group_1_ped_1_location&#45;&gt;1</title>
<path fill="none" stroke="green" stroke-width="0.29" stroke-dasharray="1,5" d="M2621.36,-182.45C2606.77,-176.36 2585.85,-168.13 2566.99,-162.51 2491.68,-140.07 2400.18,-123.1 2356.15,-115.55"/>
<polygon fill="green" stroke="green" stroke-width="0.29" points="2356.46,-112.05 2346.01,-113.84 2355.29,-118.96 2356.46,-112.05"/>
</g>
<!-- 2 -->
<g id="node28" class="node">
<title>2</title>
<ellipse fill="lightblue" stroke="black" cx="1135.99" cy="-110.25" rx="16.03" ry="16.03"/>
<text text-anchor="middle" x="1135.99" y="-108.05" font-family="Times,serif" font-size="9.00">2</text>
</g>
<!-- group_1_ped_1_location&#45;&gt;2 -->
<g id="edge3" class="edge">
<title>group_1_ped_1_location&#45;&gt;2</title>
<path fill="none" stroke="green" stroke-width="0.62" d="M2623.65,-182.43C2609.15,-175.72 2587.21,-166.63 2566.99,-162.51 2424.51,-133.48 1347.16,-114.69 1162.79,-111.67"/>
<polygon fill="green" stroke="green" stroke-width="0.62" points="1162.68,-108.17 1152.63,-111.51 1162.57,-115.17 1162.68,-108.17"/>
</g>
<!-- group_1_ped_1_age -->
<g id="node2" class="node">
<title>group_1_ped_1_age</title>
<polygon fill="lightgray" stroke="black" points="791.99,-200.5 683.99,-200.5 683.99,-182.5 791.99,-182.5 791.99,-200.5"/>
<text text-anchor="middle" x="737.99" y="-189.3" font-family="Times,serif" font-size="9.00">group_1_ped_1_age</text>
</g>
<!-- group_1_ped_1_age&#45;&gt;0 -->
<g id="edge4" class="edge">
<title>group_1_ped_1_age&#45;&gt;0</title>
<path fill="none" stroke="red" stroke-width="0.25" stroke-dasharray="1,5" d="M751.97,-182.47C764.4,-175.79 783.29,-166.71 800.99,-162.51 906.44,-137.51 1699.81,-115.94 1855.52,-111.92"/>
<polygon fill="red" stroke="red" stroke-width="0.25" points="1855.7,-115.41 1865.61,-111.66 1855.52,-108.42 1855.7,-115.41"/>
</g>
<!-- group_1_ped_1_age&#45;&gt;1 -->
<g id="edge5" class="edge">
<title>group_1_ped_1_age&#45;&gt;1</title>
<path fill="none" stroke="green" stroke-width="0.16" d="M751.96,-182.41C764.37,-175.68 783.26,-166.57 800.99,-162.51 1044.59,-106.74 1675.24,-135.22 1924.99,-126.51 2067.91,-121.53 2239.17,-114.84 2303.69,-112.29"/>
<polygon fill="green" stroke="green" stroke-width="0.16" points="2303.93,-115.78 2313.79,-111.89 2303.66,-108.79 2303.93,-115.78"/>
</g>
<!-- group_1_ped_1_age&#45;&gt;2 -->
<g id="edge6" class="edge">
<title>group_1_ped_1_age&#45;&gt;2</title>
<path fill="none" stroke="green" stroke-width="0.26" stroke-dasharray="1,5" d="M753.09,-182.42C765.59,-176.07 783.99,-167.49 800.99,-162.51 912.92,-129.72 1052.36,-116.97 1109.61,-112.89"/>
<polygon fill="green" stroke="green" stroke-width="0.26" points="1109.88,-116.38 1119.62,-112.21 1109.41,-109.4 1109.88,-116.38"/>
</g>
<!-- group_1_ped_2_location -->
<g id="node3" class="node">
<title>group_1_ped_2_location</title>
<polygon fill="lightgray" stroke="black" points="2083.99,-200.5 1955.99,-200.5 1955.99,-182.5 2083.99,-182.5 2083.99,-200.5"/>
<text text-anchor="middle" x="2019.99" y="-189.3" font-family="Times,serif" font-size="9.00">group_1_ped_2_location</text>
</g>
<!-- group_1_ped_2_location&#45;&gt;0 -->
<g id="edge7" class="edge">
<title>group_1_ped_2_location&#45;&gt;0</title>
<path fill="none" stroke="red" stroke-width="0.13" d="M2006,-182.47C1982.24,-168.82 1933.77,-140.98 1904.97,-124.44"/>
<polygon fill="red" stroke="red" stroke-width="0.13" points="1906.43,-121.25 1896.02,-119.3 1902.95,-127.32 1906.43,-121.25"/>
</g>
<!-- group_1_ped_2_location&#45;&gt;1 -->
<g id="edge8" class="edge">
<title>group_1_ped_2_location&#45;&gt;1</title>
<path fill="none" stroke="red" stroke-width="0.14" stroke-dasharray="1,5" d="M2051.42,-182.47C2112.88,-166.75 2247.89,-132.24 2304.36,-117.8"/>
<polygon fill="red" stroke="red" stroke-width="0.14" points="2305.44,-121.14 2314.26,-115.27 2303.71,-114.35 2305.44,-121.14"/>
</g>
<!-- group_1_ped_2_location&#45;&gt;2 -->
<g id="edge9" class="edge">
<title>group_1_ped_2_location&#45;&gt;2</title>
<path fill="none" stroke="red" stroke-width="0.17" stroke-dasharray="1,5" d="M1993.8,-182.47C1971.49,-175.97 1938.44,-167.16 1908.99,-162.51 1618.96,-116.71 1261.43,-111.74 1162.46,-111.27"/>
<polygon fill="red" stroke="red" stroke-width="0.17" points="1162.44,-107.77 1152.43,-111.24 1162.42,-114.77 1162.44,-107.77"/>
</g>
<!-- group_1_ped_2_age -->
<g id="node4" class="node">
<title>group_1_ped_2_age</title>
<polygon fill="lightgray" stroke="black" points="2247.99,-200.5 2139.99,-200.5 2139.99,-182.5 2247.99,-182.5 2247.99,-200.5"/>
<text text-anchor="middle" x="2193.99" y="-189.3" font-family="Times,serif" font-size="9.00">group_1_ped_2_age</text>
</g>
<!-- group_1_ped_2_age&#45;&gt;1 -->
<g id="edge10" class="edge">
<title>group_1_ped_2_age&#45;&gt;1</title>
<path fill="none" stroke="green" stroke-width="0.27" d="M2207.78,-182.47C2231.2,-168.82 2278.96,-140.98 2307.35,-124.44"/>
<polygon fill="green" stroke="green" stroke-width="0.27" points="2309.29,-127.36 2316.17,-119.3 2305.76,-121.31 2309.29,-127.36"/>
</g>
<!-- group_1_ped_2_age&#45;&gt;2 -->
<g id="edge11" class="edge">
<title>group_1_ped_2_age&#45;&gt;2</title>
<path fill="none" stroke="green" stroke-width="0.42" d="M2170.64,-182.47C2150.37,-175.88 2120.11,-166.94 2092.99,-162.51 1906.52,-132.05 1297.69,-115.29 1162.67,-111.89"/>
<polygon fill="green" stroke="green" stroke-width="0.42" points="1162.51,-108.39 1152.43,-111.64 1162.34,-115.39 1162.51,-108.39"/>
</g>
<!-- group_1_ped_3_location -->
<g id="node5" class="node">
<title>group_1_ped_3_location</title>
<polygon fill="lightgray" stroke="black" points="393.99,-200.5 265.99,-200.5 265.99,-182.5 393.99,-182.5 393.99,-200.5"/>
<text text-anchor="middle" x="329.99" y="-189.3" font-family="Times,serif" font-size="9.00">group_1_ped_3_location</text>
</g>
<!-- group_1_ped_3_location&#45;&gt;0 -->
<g id="edge12" class="edge">
<title>group_1_ped_3_location&#45;&gt;0</title>
<path fill="none" stroke="red" stroke-width="0.65" d="M346.34,-182.43C360.83,-175.71 382.77,-166.62 402.99,-162.51 477.01,-147.47 1663.29,-116.8 1855.71,-111.91"/>
<polygon fill="red" stroke="red" stroke-width="0.65" points="1855.87,-115.41 1865.78,-111.65 1855.7,-108.41 1855.87,-115.41"/>
</g>
<!-- group_1_ped_3_location&#45;&gt;2 -->
<g id="edge13" class="edge">
<title>group_1_ped_3_location&#45;&gt;2</title>
<path fill="none" stroke="red" stroke-width="0.19" stroke-dasharray="1,5" d="M346.66,-182.47C361.18,-175.88 382.98,-166.94 402.99,-162.51 541.76,-131.77 994.31,-115.7 1109.25,-112.06"/>
<polygon fill="red" stroke="red" stroke-width="0.19" points="1109.7,-115.54 1119.59,-111.73 1109.48,-108.55 1109.7,-115.54"/>
</g>
<!-- group_1_ped_3_age -->
<g id="node6" class="node">
<title>group_1_ped_3_age</title>
<polygon fill="lightgray" stroke="black" points="3139.99,-200.5 3031.99,-200.5 3031.99,-182.5 3139.99,-182.5 3139.99,-200.5"/>
<text text-anchor="middle" x="3085.99" y="-189.3" font-family="Times,serif" font-size="9.00">group_1_ped_3_age</text>
</g>
<!-- group_1_ped_3_age&#45;&gt;0 -->
<g id="edge14" class="edge">
<title>group_1_ped_3_age&#45;&gt;0</title>
<path fill="none" stroke="green" stroke-width="0.12" d="M3072.01,-182.46C3059.59,-175.77 3040.7,-166.68 3022.99,-162.51 2967.04,-149.32 2076.01,-117.96 1908.89,-112.17"/>
<polygon fill="green" stroke="green" stroke-width="0.12" points="1908.65,-108.66 1898.54,-111.81 1908.41,-115.66 1908.65,-108.66"/>
</g>
<!-- group_1_ped_3_age&#45;&gt;1 -->
<g id="edge15" class="edge">
<title>group_1_ped_3_age&#45;&gt;1</title>
<path fill="none" stroke="red" stroke-width="0.17" d="M3071.74,-182.46C3059.29,-175.86 3040.52,-166.91 3022.99,-162.51 2893.18,-129.92 2467.81,-115.31 2356.72,-112"/>
<polygon fill="red" stroke="red" stroke-width="0.17" points="2356.51,-108.49 2346.42,-111.7 2356.31,-115.49 2356.51,-108.49"/>
</g>
<!-- group_1_ped_4_location -->
<g id="node7" class="node">
<title>group_1_ped_4_location</title>
<polygon fill="lightgray" stroke="black" points="2393.99,-200.5 2265.99,-200.5 2265.99,-182.5 2393.99,-182.5 2393.99,-200.5"/>
<text text-anchor="middle" x="2329.99" y="-189.3" font-family="Times,serif" font-size="9.00">group_1_ped_4_location</text>
</g>
<!-- group_1_ped_4_location&#45;&gt;0 -->
<g id="edge16" class="edge">
<title>group_1_ped_4_location&#45;&gt;0</title>
<path fill="none" stroke="red" stroke-width="0.18" d="M2312.37,-182.42C2297.81,-176.08 2276.45,-167.5 2256.99,-162.51 2128.79,-129.64 1970.2,-116.76 1908.39,-112.76"/>
<polygon fill="red" stroke="red" stroke-width="0.18" points="1908.53,-109.26 1898.33,-112.13 1908.09,-116.25 1908.53,-109.26"/>
</g>
<!-- group_1_ped_4_location&#45;&gt;1 -->
<g id="edge17" class="edge">
<title>group_1_ped_4_location&#45;&gt;1</title>
<path fill="none" stroke="red" stroke-width="0.31" d="M2329.99,-182.32C2329.99,-171.65 2329.99,-152.49 2329.99,-136.76"/>
<polygon fill="red" stroke="red" stroke-width="0.31" points="2333.49,-136.55 2329.99,-126.55 2326.49,-136.55 2333.49,-136.55"/>
</g>
<!-- group_1_ped_4_location&#45;&gt;2 -->
<g id="edge18" class="edge">
<title>group_1_ped_4_location&#45;&gt;2</title>
<path fill="none" stroke="green" stroke-width="0.31" stroke-dasharray="1,5" d="M2313.64,-182.48C2299.14,-175.81 2277.19,-166.73 2256.99,-162.51 2038.15,-116.8 1310.71,-111.85 1162.49,-111.31"/>
<polygon fill="green" stroke="green" stroke-width="0.31" points="1162.48,-107.81 1152.47,-111.28 1162.46,-114.81 1162.48,-107.81"/>
</g>
<!-- group_1_ped_4_age -->
<g id="node8" class="node">
<title>group_1_ped_4_age</title>
<polygon fill="lightgray" stroke="black" points="2557.99,-200.5 2449.99,-200.5 2449.99,-182.5 2557.99,-182.5 2557.99,-200.5"/>
<text text-anchor="middle" x="2503.99" y="-189.3" font-family="Times,serif" font-size="9.00">group_1_ped_4_age</text>
</g>
<!-- group_1_ped_4_age&#45;&gt;1 -->
<g id="edge19" class="edge">
<title>group_1_ped_4_age&#45;&gt;1</title>
<path fill="none" stroke="green" stroke-width="0.41" stroke-dasharray="1,5" d="M2486.35,-182.47C2454.92,-168.15 2389.21,-138.22 2353.81,-122.09"/>
<polygon fill="green" stroke="green" stroke-width="0.41" points="2355.23,-118.9 2344.68,-117.94 2352.33,-125.27 2355.23,-118.9"/>
</g>
<!-- group_1_ped_4_age&#45;&gt;2 -->
<g id="edge20" class="edge">
<title>group_1_ped_4_age&#45;&gt;2</title>
<path fill="none" stroke="green" stroke-width="0.15" d="M2480.66,-182.38C2460.4,-175.74 2430.14,-166.76 2402.99,-162.51 2276.5,-142.69 1333.57,-116.56 1162.55,-111.95"/>
<polygon fill="green" stroke="green" stroke-width="0.15" points="1162.51,-108.45 1152.42,-111.68 1162.32,-115.45 1162.51,-108.45"/>
</g>
<!-- group_2_ped_1_location -->
<g id="node9" class="node">
<title>group_2_ped_1_location</title>
<polygon fill="lightgray" stroke="black" points="2849.99,-200.5 2721.99,-200.5 2721.99,-182.5 2849.99,-182.5 2849.99,-200.5"/>
<text text-anchor="middle" x="2785.99" y="-189.3" font-family="Times,serif" font-size="9.00">group_2_ped_1_location</text>
</g>
<!-- group_2_ped_1_location&#45;&gt;0 -->
<g id="edge21" class="edge">
<title>group_2_ped_1_location&#45;&gt;0</title>
<path fill="none" stroke="green" stroke-width="0.26" stroke-dasharray="1,5" d="M2769.33,-182.43C2754.82,-175.82 2733.02,-166.86 2712.99,-162.51 2632.79,-145.09 2040.84,-118.23 1908.28,-112.39"/>
<polygon fill="green" stroke="green" stroke-width="0.26" points="1908.35,-108.89 1898.21,-111.95 1908.05,-115.88 1908.35,-108.89"/>
</g>
<!-- group_2_ped_1_location&#45;&gt;1 -->
<g id="edge22" class="edge">
<title>group_2_ped_1_location&#45;&gt;1</title>
<path fill="none" stroke="green" stroke-width="0.27" d="M2768.37,-182.41C2753.81,-176.05 2732.46,-167.47 2712.99,-162.51 2581.76,-129.06 2419.32,-116.48 2356.51,-112.67"/>
<polygon fill="green" stroke="green" stroke-width="0.27" points="2356.49,-109.16 2346.3,-112.07 2356.08,-116.15 2356.49,-109.16"/>
</g>
<!-- group_2_ped_1_location&#45;&gt;2 -->
<g id="edge23" class="edge">
<title>group_2_ped_1_location&#45;&gt;2</title>
<path fill="none" stroke="green" stroke-width="0.21" d="M2769.65,-182.42C2755.16,-175.7 2733.21,-166.59 2712.99,-162.51 2633.85,-146.52 1362.64,-116.5 1162.44,-111.86"/>
<polygon fill="green" stroke="green" stroke-width="0.21" points="1162.33,-108.35 1152.25,-111.62 1162.17,-115.35 1162.33,-108.35"/>
</g>
<!-- group_2_ped_1_age -->
<g id="node10" class="node">
<title>group_2_ped_1_age</title>
<polygon fill="lightgray" stroke="black" points="3013.99,-200.5 2905.99,-200.5 2905.99,-182.5 3013.99,-182.5 3013.99,-200.5"/>
<text text-anchor="middle" x="2959.99" y="-189.3" font-family="Times,serif" font-size="9.00">group_2_ped_1_age</text>
</g>
<!-- group_2_ped_1_age&#45;&gt;0 -->
<g id="edge24" class="edge">
<title>group_2_ped_1_age&#45;&gt;0</title>
<path fill="none" stroke="green" stroke-width="0.14" d="M2944.82,-182.5C2931.35,-175.83 2910.93,-166.76 2891.99,-162.51 2842.63,-151.44 2063.47,-118.75 1908.63,-112.34"/>
<polygon fill="green" stroke="green" stroke-width="0.14" points="1908.33,-108.83 1898.19,-111.91 1908.04,-115.82 1908.33,-108.83"/>
</g>
<!-- group_2_ped_1_age&#45;&gt;1 -->
<g id="edge25" class="edge">
<title>group_2_ped_1_age&#45;&gt;1</title>
<path fill="none" stroke="green" stroke-width="0.27" d="M2944.24,-182.43C2930.74,-175.9 2910.59,-167.08 2891.99,-162.51 2690.7,-113.1 2438.31,-110.34 2356.73,-110.88"/>
<polygon fill="green" stroke="green" stroke-width="0.27" points="2356.35,-107.38 2346.38,-110.97 2356.41,-114.38 2356.35,-107.38"/>
</g>
<!-- group_2_ped_1_age&#45;&gt;2 -->
<g id="edge26" class="edge">
<title>group_2_ped_1_age&#45;&gt;2</title>
<path fill="none" stroke="green" stroke-width="0.26" stroke-dasharray="1,5" d="M2937.07,-182.44C2916.82,-175.74 2886.34,-166.64 2858.99,-162.51 2771.46,-149.28 1373.49,-116.7 1162.56,-111.85"/>
<polygon fill="green" stroke="green" stroke-width="0.26" points="1162.47,-108.35 1152.39,-111.62 1162.31,-115.35 1162.47,-108.35"/>
</g>
<!-- group_2_ped_2_location -->
<g id="node11" class="node">
<title>group_2_ped_2_location</title>
<polygon fill="lightgray" stroke="black" points="665.99,-200.5 537.99,-200.5 537.99,-182.5 665.99,-182.5 665.99,-200.5"/>
<text text-anchor="middle" x="601.99" y="-189.3" font-family="Times,serif" font-size="9.00">group_2_ped_2_location</text>
</g>
<!-- group_2_ped_2_location&#45;&gt;0 -->
<g id="edge27" class="edge">
<title>group_2_ped_2_location&#45;&gt;0</title>
<path fill="none" stroke="green" stroke-width="0.63" stroke-dasharray="1,5" d="M618.34,-182.47C632.84,-175.78 654.79,-166.7 674.99,-162.51 794.07,-137.84 1688.01,-115.8 1855.13,-111.87"/>
<polygon fill="green" stroke="green" stroke-width="0.63" points="1855.56,-115.36 1865.48,-111.62 1855.4,-108.36 1855.56,-115.36"/>
</g>
<!-- group_2_ped_2_location&#45;&gt;1 -->
<g id="edge28" class="edge">
<title>group_2_ped_2_location&#45;&gt;1</title>
<path fill="none" stroke="red" stroke-width="0.75" stroke-dasharray="1,5" d="M618.33,-182.4C632.82,-175.67 654.76,-166.56 674.99,-162.51 947.48,-107.99 1647.25,-135.74 1924.99,-126.51 2067.92,-121.76 2239.17,-114.93 2303.69,-112.32"/>
<polygon fill="red" stroke="red" stroke-width="0.75" points="2303.94,-115.81 2313.79,-111.91 2303.65,-108.82 2303.94,-115.81"/>
</g>
<!-- group_2_ped_2_location&#45;&gt;2 -->
<g id="edge29" class="edge">
<title>group_2_ped_2_location&#45;&gt;2</title>
<path fill="none" stroke="red" stroke-width="0.87" d="M619.29,-182.42C633.83,-175.99 655.34,-167.29 674.99,-162.51 836.54,-123.24 1037.35,-113.97 1109.03,-111.85"/>
<polygon fill="red" stroke="red" stroke-width="0.87" points="1109.49,-115.34 1119.4,-111.57 1109.3,-108.34 1109.49,-115.34"/>
</g>
<!-- group_2_ped_2_age -->
<g id="node12" class="node">
<title>group_2_ped_2_age</title>
<polygon fill="lightgray" stroke="black" points="917.99,-200.5 809.99,-200.5 809.99,-182.5 917.99,-182.5 917.99,-200.5"/>
<text text-anchor="middle" x="863.99" y="-189.3" font-family="Times,serif" font-size="9.00">group_2_ped_2_age</text>
</g>
<!-- group_2_ped_2_age&#45;&gt;1 -->
<g id="edge30" class="edge">
<title>group_2_ped_2_age&#45;&gt;1</title>
<path fill="none" stroke="green" stroke-width="0.18" stroke-dasharray="1,5" d="M877.96,-182.42C890.38,-175.71 909.27,-166.61 926.99,-162.51 1143.22,-112.55 1703.22,-134.69 1924.99,-126.51 2067.9,-121.24 2239.17,-114.72 2303.69,-112.25"/>
<polygon fill="green" stroke="green" stroke-width="0.18" points="2303.93,-115.75 2313.79,-111.87 2303.66,-108.75 2303.93,-115.75"/>
</g>
<!-- group_2_ped_2_age&#45;&gt;2 -->
<g id="edge31" class="edge">
<title>group_2_ped_2_age&#45;&gt;2</title>
<path fill="none" stroke="green" stroke-width="0.56" d="M879.99,-182.44C892.54,-176.36 910.57,-168.12 926.99,-162.51 991.43,-140.49 1070.07,-123.83 1110.01,-116.07"/>
<polygon fill="green" stroke="green" stroke-width="0.56" points="1110.82,-119.48 1119.98,-114.16 1109.5,-112.61 1110.82,-119.48"/>
</g>
<!-- group_2_ped_3_location -->
<g id="node13" class="node">
<title>group_2_ped_3_location</title>
<polygon fill="lightgray" stroke="black" points="1753.99,-200.5 1625.99,-200.5 1625.99,-182.5 1753.99,-182.5 1753.99,-200.5"/>
<text text-anchor="middle" x="1689.99" y="-189.3" font-family="Times,serif" font-size="9.00">group_2_ped_3_location</text>
</g>
<!-- group_2_ped_3_location&#45;&gt;0 -->
<g id="edge32" class="edge">
<title>group_2_ped_3_location&#45;&gt;0</title>
<path fill="none" stroke="green" stroke-width="0.21" d="M1709.46,-182.47C1744.73,-167.91 1819.1,-137.21 1857.66,-121.29"/>
<polygon fill="green" stroke="green" stroke-width="0.21" points="1859.18,-124.45 1867.09,-117.4 1856.51,-117.98 1859.18,-124.45"/>
</g>
<!-- group_2_ped_3_location&#45;&gt;1 -->
<g id="edge33" class="edge">
<title>group_2_ped_3_location&#45;&gt;1</title>
<path fill="none" stroke="green" stroke-width="0.14" stroke-dasharray="1,5" d="M1706.97,-182.45C1721.51,-175.93 1743.16,-167.11 1762.99,-162.51 1966.87,-115.17 2221.43,-111.07 2303.32,-111.07"/>
<polygon fill="green" stroke="green" stroke-width="0.14" points="2303.49,-114.57 2313.49,-111.09 2303.5,-107.57 2303.49,-114.57"/>
</g>
<!-- group_2_ped_3_location&#45;&gt;2 -->
<g id="edge34" class="edge">
<title>group_2_ped_3_location&#45;&gt;2</title>
<path fill="none" stroke="red" stroke-width="0.31" stroke-dasharray="1,5" d="M1672.7,-182.4C1658.16,-175.95 1636.65,-167.24 1616.99,-162.51 1447.3,-121.67 1236.11,-113.35 1162.65,-111.67"/>
<polygon fill="red" stroke="red" stroke-width="0.31" points="1162.52,-108.17 1152.45,-111.46 1162.37,-115.17 1162.52,-108.17"/>
</g>
<!-- group_2_ped_3_age -->
<g id="node14" class="node">
<title>group_2_ped_3_age</title>
<polygon fill="lightgray" stroke="black" points="3265.99,-200.5 3157.99,-200.5 3157.99,-182.5 3265.99,-182.5 3265.99,-200.5"/>
<text text-anchor="middle" x="3211.99" y="-189.3" font-family="Times,serif" font-size="9.00">group_2_ped_3_age</text>
</g>
<!-- group_2_ped_3_age&#45;&gt;0 -->
<g id="edge35" class="edge">
<title>group_2_ped_3_age&#45;&gt;0</title>
<path fill="none" stroke="red" stroke-width="0.35" stroke-dasharray="1,5" d="M3198.02,-182.44C3185.6,-175.74 3166.71,-166.64 3148.99,-162.51 3133.32,-158.85 2089.01,-119.1 1908.44,-112.25"/>
<polygon fill="red" stroke="red" stroke-width="0.35" points="1908.38,-108.74 1898.26,-111.86 1908.12,-115.74 1908.38,-108.74"/>
</g>
<!-- group_2_ped_3_age&#45;&gt;1 -->
<g id="edge36" class="edge">
<title>group_2_ped_3_age&#45;&gt;1</title>
<path fill="none" stroke="red" stroke-width="0.91" d="M3197.75,-182.41C3185.31,-175.78 3166.54,-166.81 3148.99,-162.51 2993.51,-124.41 2479.85,-113.7 2356.7,-111.65"/>
<polygon fill="red" stroke="red" stroke-width="0.91" points="2356.38,-108.14 2346.33,-111.48 2356.27,-115.14 2356.38,-108.14"/>
</g>
<!-- group_2_ped_4_location -->
<g id="node15" class="node">
<title>group_2_ped_4_location</title>
<polygon fill="lightgray" stroke="black" points="1063.99,-200.5 935.99,-200.5 935.99,-182.5 1063.99,-182.5 1063.99,-200.5"/>
<text text-anchor="middle" x="999.99" y="-189.3" font-family="Times,serif" font-size="9.00">group_2_ped_4_location</text>
</g>
<!-- group_2_ped_4_location&#45;&gt;0 -->
<g id="edge37" class="edge">
<title>group_2_ped_4_location&#45;&gt;0</title>
<path fill="none" stroke="green" stroke-width="0.12" stroke-dasharray="1,5" d="M1016.65,-182.44C1031.17,-175.83 1052.97,-166.88 1072.99,-162.51 1227.33,-128.85 1733.1,-114.8 1855.26,-111.86"/>
<polygon fill="green" stroke="green" stroke-width="0.12" points="1855.64,-115.35 1865.55,-111.61 1855.47,-108.35 1855.64,-115.35"/>
</g>
<!-- group_2_ped_4_location&#45;&gt;1 -->
<g id="edge38" class="edge">
<title>group_2_ped_4_location&#45;&gt;1</title>
<path fill="none" stroke="green" stroke-width="0.36" stroke-dasharray="1,5" d="M1016.34,-182.46C1030.84,-175.76 1052.79,-166.68 1072.99,-162.51 1088.61,-159.29 2122.45,-119.26 2303.18,-112.28"/>
<polygon fill="green" stroke="green" stroke-width="0.36" points="2303.54,-115.77 2313.4,-111.89 2303.27,-108.77 2303.54,-115.77"/>
</g>
<!-- group_2_ped_4_location&#45;&gt;2 -->
<g id="edge39" class="edge">
<title>group_2_ped_4_location&#45;&gt;2</title>
<path fill="none" stroke="green" stroke-width="0.25" d="M1013.78,-182.47C1037.2,-168.82 1084.96,-140.98 1113.35,-124.44"/>
<polygon fill="green" stroke="green" stroke-width="0.25" points="1115.29,-127.36 1122.17,-119.3 1111.76,-121.31 1115.29,-127.36"/>
</g>
<!-- group_2_ped_4_age -->
<g id="node16" class="node">
<title>group_2_ped_4_age</title>
<polygon fill="lightgray" stroke="black" points="1189.99,-200.5 1081.99,-200.5 1081.99,-182.5 1189.99,-182.5 1189.99,-200.5"/>
<text text-anchor="middle" x="1135.99" y="-189.3" font-family="Times,serif" font-size="9.00">group_2_ped_4_age</text>
</g>
<!-- group_2_ped_4_age&#45;&gt;0 -->
<g id="edge40" class="edge">
<title>group_2_ped_4_age&#45;&gt;0</title>
<path fill="none" stroke="red" stroke-width="0.3" d="M1150.25,-182.46C1162.7,-175.87 1181.47,-166.92 1198.99,-162.51 1326.78,-130.35 1745.25,-115.45 1855.29,-112.03"/>
<polygon fill="red" stroke="red" stroke-width="0.3" points="1855.62,-115.52 1865.51,-111.72 1855.41,-108.53 1855.62,-115.52"/>
</g>
<!-- group_2_ped_4_age&#45;&gt;1 -->
<g id="edge41" class="edge">
<title>group_2_ped_4_age&#45;&gt;1</title>
<path fill="none" stroke="red" stroke-width="0.11" stroke-dasharray="1,5" d="M1149.97,-182.46C1162.4,-175.77 1181.29,-166.69 1198.99,-162.51 1226.76,-155.96 2135.27,-119.09 2303.38,-112.32"/>
<polygon fill="red" stroke="red" stroke-width="0.11" points="2303.72,-115.81 2313.57,-111.91 2303.44,-108.81 2303.72,-115.81"/>
</g>
<!-- group_2_ped_4_age&#45;&gt;2 -->
<g id="edge42" class="edge">
<title>group_2_ped_4_age&#45;&gt;2</title>
<path fill="none" stroke="green" stroke-width="0.12" d="M1135.99,-182.32C1135.99,-171.65 1135.99,-152.49 1135.99,-136.76"/>
<polygon fill="green" stroke="green" stroke-width="0.12" points="1139.49,-136.55 1135.99,-126.55 1132.49,-136.55 1139.49,-136.55"/>
</g>
<!-- group_3_ped_1_location -->
<g id="node17" class="node">
<title>group_3_ped_1_location</title>
<polygon fill="lightgray" stroke="black" points="1335.99,-200.5 1207.99,-200.5 1207.99,-182.5 1335.99,-182.5 1335.99,-200.5"/>
<text text-anchor="middle" x="1271.99" y="-189.3" font-family="Times,serif" font-size="9.00">group_3_ped_1_location</text>
</g>
<!-- group_3_ped_1_location&#45;&gt;0 -->
<g id="edge43" class="edge">
<title>group_3_ped_1_location&#45;&gt;0</title>
<path fill="none" stroke="red" stroke-width="0.43" stroke-dasharray="1,5" d="M1288.98,-182.47C1303.51,-175.97 1325.17,-167.16 1344.99,-162.51 1537,-117.42 1776.5,-111.82 1855.43,-111.26"/>
<polygon fill="red" stroke="red" stroke-width="0.43" points="1855.49,-114.76 1865.47,-111.21 1855.46,-107.76 1855.49,-114.76"/>
</g>
<!-- group_3_ped_1_location&#45;&gt;1 -->
<g id="edge44" class="edge">
<title>group_3_ped_1_location&#45;&gt;1</title>
<path fill="none" stroke="green" stroke-width="0.29" d="M1288.64,-182.38C1303.15,-175.74 1324.94,-166.76 1344.99,-162.51 1393.2,-152.28 2151.42,-118.99 2303.54,-112.39"/>
<polygon fill="green" stroke="green" stroke-width="0.29" points="2303.96,-115.87 2313.8,-111.94 2303.66,-108.88 2303.96,-115.87"/>
</g>
<!-- group_3_ped_1_location&#45;&gt;2 -->
<g id="edge45" class="edge">
<title>group_3_ped_1_location&#45;&gt;2</title>
<path fill="none" stroke="green" stroke-width="0.13" stroke-dasharray="1,5" d="M1258.2,-182.47C1234.78,-168.82 1187.02,-140.98 1158.64,-124.44"/>
<polygon fill="green" stroke="green" stroke-width="0.13" points="1160.22,-121.31 1149.82,-119.3 1156.69,-127.36 1160.22,-121.31"/>
</g>
<!-- group_3_ped_1_age -->
<g id="node18" class="node">
<title>group_3_ped_1_age</title>
<polygon fill="lightgray" stroke="black" points="519.99,-200.5 411.99,-200.5 411.99,-182.5 519.99,-182.5 519.99,-200.5"/>
<text text-anchor="middle" x="465.99" y="-189.3" font-family="Times,serif" font-size="9.00">group_3_ped_1_age</text>
</g>
<!-- group_3_ped_1_age&#45;&gt;0 -->
<g id="edge46" class="edge">
<title>group_3_ped_1_age&#45;&gt;0</title>
<path fill="none" stroke="green" stroke-width="0.2" d="M479.96,-182.43C492.38,-175.72 511.27,-166.62 528.99,-162.51 596.03,-146.96 1672.93,-116.95 1855.72,-111.96"/>
<polygon fill="green" stroke="green" stroke-width="0.2" points="1855.89,-115.46 1865.79,-111.68 1855.7,-108.46 1855.89,-115.46"/>
</g>
<!-- group_3_ped_1_age&#45;&gt;2 -->
<g id="edge47" class="edge">
<title>group_3_ped_1_age&#45;&gt;2</title>
<path fill="none" stroke="red" stroke-width="0.2" d="M480.51,-182.37C492.96,-175.81 511.6,-166.97 528.99,-162.51 641.54,-133.63 1008.11,-116.56 1109.69,-112.3"/>
<polygon fill="red" stroke="red" stroke-width="0.2" points="1109.86,-115.8 1119.71,-111.89 1109.57,-108.8 1109.86,-115.8"/>
</g>
<!-- group_3_ped_2_location -->
<g id="node19" class="node">
<title>group_3_ped_2_location</title>
<polygon fill="lightgray" stroke="black" points="1070.99,-274.49 942.99,-274.49 942.99,-256.49 1070.99,-256.49 1070.99,-274.49"/>
<text text-anchor="middle" x="1006.99" y="-263.29" font-family="Times,serif" font-size="9.00">group_3_ped_2_location</text>
</g>
<!-- group_3_ped_2_location&#45;&gt;0 -->
<g id="edge48" class="edge">
<title>group_3_ped_2_location&#45;&gt;0</title>
<path fill="none" stroke="red" stroke-width="0.33" d="M1071.29,-263.76C1272.75,-261.14 1880.15,-250.77 1908.99,-220.49 1931.69,-196.66 1912.82,-156.88 1897.26,-132.47"/>
<polygon fill="red" stroke="red" stroke-width="0.33" points="1900.02,-130.3 1891.55,-123.93 1894.2,-134.19 1900.02,-130.3"/>
</g>
<!-- group_3_ped_2_location&#45;&gt;1 -->
<g id="edge49" class="edge">
<title>group_3_ped_2_location&#45;&gt;1</title>
<path fill="none" stroke="red" stroke-width="0.45" d="M1071.21,-263.55C1439.3,-258.11 3265.07,-230.6 3274.99,-220.49 3293.04,-202.09 3292.71,-181.22 3274.99,-162.51 3242.54,-128.25 2507.2,-114.19 2356.74,-111.67"/>
<polygon fill="red" stroke="red" stroke-width="0.45" points="2356.62,-108.17 2346.56,-111.5 2356.5,-115.17 2356.62,-108.17"/>
</g>
<!-- group_3_ped_2_location&#45;&gt;2 -->
<g id="edge50" class="edge">
<title>group_3_ped_2_location&#45;&gt;2</title>
<path fill="none" stroke="green" stroke-width="0.13" stroke-dasharray="1,5" d="M942.7,-263.74C741.99,-261.08 138.65,-250.59 109.99,-220.49 92.22,-201.83 92.23,-181.18 109.99,-162.51 127.75,-143.84 950.28,-117.08 1109.47,-112.07"/>
<polygon fill="green" stroke="green" stroke-width="0.13" points="1109.88,-115.56 1119.77,-111.75 1109.66,-108.56 1109.88,-115.56"/>
</g>
<!-- 1158 -->
<g id="node29" class="node">
<title>1158</title>
<ellipse fill="white" stroke="black" cx="28.99" cy="-191.5" rx="28.98" ry="28.98"/>
<text text-anchor="middle" x="28.99" y="-189.3" font-family="Times,serif" font-size="9.00">1158</text>
</g>
<!-- group_3_ped_2_location&#45;&gt;1158 -->
<g id="edge71" class="edge">
<title>group_3_ped_2_location&#45;&gt;1158</title>
<path fill="none" stroke="red" stroke-width="0.35" d="M942.99,-263.42C745.55,-259.85 154.25,-247.03 71.99,-220.49 67.99,-219.2 63.99,-217.43 60.15,-215.41"/>
<polygon fill="red" stroke="red" stroke-width="0.35" points="61.89,-212.37 51.5,-210.32 58.34,-218.4 61.89,-212.37"/>
</g>
<!-- group_3_ped_2_age -->
<g id="node20" class="node">
<title>group_3_ped_2_age</title>
<polygon fill="lightgray" stroke="black" points="1681.99,-274.49 1573.99,-274.49 1573.99,-256.49 1681.99,-256.49 1681.99,-274.49"/>
<text text-anchor="middle" x="1627.99" y="-263.29" font-family="Times,serif" font-size="9.00">group_3_ped_2_age</text>
</g>
<!-- group_3_ped_2_age&#45;&gt;0 -->
<g id="edge51" class="edge">
<title>group_3_ped_2_age&#45;&gt;0</title>
<path fill="none" stroke="red" stroke-width="0.5" d="M1682.41,-263.37C1799.25,-260.39 2065.81,-250.37 2092.99,-220.49 2110.33,-201.43 2108.92,-182.77 2092.99,-162.51 2070.26,-133.6 1959.6,-118.98 1908.26,-113.66"/>
<polygon fill="red" stroke="red" stroke-width="0.5" points="1908.55,-110.17 1898.25,-112.66 1907.86,-117.14 1908.55,-110.17"/>
</g>
<!-- group_3_ped_2_age&#45;&gt;1 -->
<g id="edge52" class="edge">
<title>group_3_ped_2_age&#45;&gt;1</title>
<path fill="none" stroke="green" stroke-width="0.28" stroke-dasharray="1,5" d="M1682.38,-264.1C1967.61,-261.92 3278.96,-250.29 3307.99,-220.49 3325.97,-202.03 3325.73,-181.2 3307.99,-162.51 3274.31,-127.01 2510.14,-113.9 2356.69,-111.62"/>
<polygon fill="green" stroke="green" stroke-width="0.28" points="2356.38,-108.12 2346.33,-111.47 2356.28,-115.12 2356.38,-108.12"/>
</g>
<!-- group_3_ped_2_age&#45;&gt;2 -->
<g id="edge53" class="edge">
<title>group_3_ped_2_age&#45;&gt;2</title>
<path fill="none" stroke="green" stroke-width="0.29" stroke-dasharray="1,5" d="M1573.88,-263.4C1308.4,-257.95 155.71,-233.59 142.99,-220.49 125.04,-202 125.25,-181.2 142.99,-162.51 160.13,-144.46 952.89,-117.31 1109.34,-112.12"/>
<polygon fill="green" stroke="green" stroke-width="0.29" points="1109.61,-115.61 1119.49,-111.78 1109.38,-108.62 1109.61,-115.61"/>
</g>
<!-- 1391 -->
<g id="node30" class="node">
<title>1391</title>
<ellipse fill="white" stroke="black" cx="180.99" cy="-191.5" rx="28.98" ry="28.98"/>
<text text-anchor="middle" x="180.99" y="-189.3" font-family="Times,serif" font-size="9.00">1391</text>
</g>
<!-- group_3_ped_2_age&#45;&gt;1391 -->
<g id="edge78" class="edge">
<title>group_3_ped_2_age&#45;&gt;1391</title>
<path fill="none" stroke="green" stroke-width="0.27" d="M1573.68,-263.61C1323.25,-259.44 289.39,-241.02 223.99,-220.49 219.98,-219.23 215.98,-217.48 212.13,-215.47"/>
<polygon fill="green" stroke="green" stroke-width="0.27" points="213.87,-212.43 203.47,-210.39 210.33,-218.47 213.87,-212.43"/>
</g>
<!-- group_3_ped_3_location -->
<g id="node21" class="node">
<title>group_3_ped_3_location</title>
<polygon fill="lightgray" stroke="black" points="1481.99,-200.5 1353.99,-200.5 1353.99,-182.5 1481.99,-182.5 1481.99,-200.5"/>
<text text-anchor="middle" x="1417.99" y="-189.3" font-family="Times,serif" font-size="9.00">group_3_ped_3_location</text>
</g>
<!-- group_3_ped_3_location&#45;&gt;0 -->
<g id="edge54" class="edge">
<title>group_3_ped_3_location&#45;&gt;0</title>
<path fill="none" stroke="green" stroke-width="0.5" stroke-dasharray="1,5" d="M1435.61,-182.39C1450.16,-176.03 1471.52,-167.45 1490.99,-162.51 1625.28,-128.47 1791.57,-116.21 1855.37,-112.57"/>
<polygon fill="green" stroke="green" stroke-width="0.5" points="1855.93,-116.05 1865.72,-112.01 1855.54,-109.06 1855.93,-116.05"/>
</g>
<!-- group_3_ped_3_location&#45;&gt;1 -->
<g id="edge55" class="edge">
<title>group_3_ped_3_location&#45;&gt;1</title>
<path fill="none" stroke="green" stroke-width="0.46" d="M1434.65,-182.43C1449.16,-175.81 1470.96,-166.85 1490.99,-162.51 1571.97,-144.95 2169.62,-118.2 2303.45,-112.39"/>
<polygon fill="green" stroke="green" stroke-width="0.46" points="2303.78,-115.88 2313.62,-111.95 2303.47,-108.88 2303.78,-115.88"/>
</g>
<!-- group_3_ped_3_location&#45;&gt;2 -->
<g id="edge56" class="edge">
<title>group_3_ped_3_location&#45;&gt;2</title>
<path fill="none" stroke="red" stroke-width="0.12" stroke-dasharray="1,5" d="M1399.01,-182.47C1384.41,-176.48 1363.64,-168.35 1344.99,-162.51 1280,-142.17 1201.59,-124.8 1161.83,-116.49"/>
<polygon fill="red" stroke="red" stroke-width="0.12" points="1162.41,-113.04 1151.91,-114.44 1160.99,-119.89 1162.41,-113.04"/>
</g>
<!-- group_3_ped_3_age -->
<g id="node22" class="node">
<title>group_3_ped_3_age</title>
<polygon fill="lightgray" stroke="black" points="1607.99,-200.5 1499.99,-200.5 1499.99,-182.5 1607.99,-182.5 1607.99,-200.5"/>
<text text-anchor="middle" x="1553.99" y="-189.3" font-family="Times,serif" font-size="9.00">group_3_ped_3_age</text>
</g>
<!-- group_3_ped_3_age&#45;&gt;0 -->
<g id="edge57" class="edge">
<title>group_3_ped_3_age&#45;&gt;0</title>
<path fill="none" stroke="red" stroke-width="0.29" stroke-dasharray="1,5" d="M1569.4,-182.47C1581.93,-176.23 1600.21,-167.79 1616.99,-162.51 1702.22,-135.72 1807.48,-120.4 1855.66,-114.32"/>
<polygon fill="red" stroke="red" stroke-width="0.29" points="1856.35,-117.77 1865.85,-113.07 1855.5,-110.82 1856.35,-117.77"/>
</g>
<!-- group_3_ped_3_age&#45;&gt;1 -->
<g id="edge58" class="edge">
<title>group_3_ped_3_age&#45;&gt;1</title>
<path fill="none" stroke="red" stroke-width="0.37" stroke-dasharray="1,5" d="M1568.24,-182.45C1580.69,-175.84 1599.46,-166.89 1616.99,-162.51 1750.99,-129.02 2191,-115.01 2303.57,-111.93"/>
<polygon fill="red" stroke="red" stroke-width="0.37" points="2303.8,-115.42 2313.71,-111.65 2303.62,-108.42 2303.8,-115.42"/>
</g>
<!-- group_3_ped_3_age&#45;&gt;2 -->
<g id="edge59" class="edge">
<title>group_3_ped_3_age&#45;&gt;2</title>
<path fill="none" stroke="green" stroke-width="0.16" d="M1538.9,-182.38C1526.41,-176.01 1508.01,-167.42 1490.99,-162.51 1371.3,-127.99 1221.89,-116.12 1162.3,-112.58"/>
<polygon fill="green" stroke="green" stroke-width="0.16" points="1162.43,-109.08 1152.24,-112.01 1162.03,-116.07 1162.43,-109.08"/>
</g>
<!-- group_3_ped_4_location -->
<g id="node23" class="node">
<title>group_3_ped_4_location</title>
<polygon fill="lightgray" stroke="black" points="1899.99,-200.5 1771.99,-200.5 1771.99,-182.5 1899.99,-182.5 1899.99,-200.5"/>
<text text-anchor="middle" x="1835.99" y="-189.3" font-family="Times,serif" font-size="9.00">group_3_ped_4_location</text>
</g>
<!-- group_3_ped_4_location&#45;&gt;0 -->
<g id="edge60" class="edge">
<title>group_3_ped_4_location&#45;&gt;0</title>
<path fill="none" stroke="red" stroke-width="0.44" stroke-dasharray="1,5" d="M1840.74,-182.32C1847.34,-170.94 1859.54,-149.93 1868.97,-133.69"/>
<polygon fill="red" stroke="red" stroke-width="0.44" points="1872.14,-135.19 1874.13,-124.79 1866.09,-131.68 1872.14,-135.19"/>
</g>
<!-- group_3_ped_4_location&#45;&gt;1 -->
<g id="edge61" class="edge">
<title>group_3_ped_4_location&#45;&gt;1</title>
<path fill="none" stroke="red" stroke-width="0.28" stroke-dasharray="1,5" d="M1864.08,-182.47C1886.4,-176.32 1918.5,-167.99 1946.99,-162.51 2079.99,-136.93 2241.4,-119.81 2303.71,-113.72"/>
<polygon fill="red" stroke="red" stroke-width="0.28" points="2304.21,-117.19 2313.83,-112.74 2303.54,-110.22 2304.21,-117.19"/>
</g>
<!-- group_3_ped_4_location&#45;&gt;2 -->
<g id="edge62" class="edge">
<title>group_3_ped_4_location&#45;&gt;2</title>
<path fill="none" stroke="red" stroke-width="0.86" stroke-dasharray="1,5" d="M1819.02,-182.4C1804.49,-175.86 1782.84,-167.03 1762.99,-162.51 1535.25,-110.66 1250.46,-109.66 1162.86,-110.74"/>
<polygon fill="red" stroke="red" stroke-width="0.86" points="1162.67,-107.24 1152.72,-110.89 1162.77,-114.24 1162.67,-107.24"/>
</g>
<!-- group_3_ped_4_age -->
<g id="node24" class="node">
<title>group_3_ped_4_age</title>
<polygon fill="lightgray" stroke="black" points="3537.99,-274.49 3429.99,-274.49 3429.99,-256.49 3537.99,-256.49 3537.99,-274.49"/>
<text text-anchor="middle" x="3483.99" y="-263.29" font-family="Times,serif" font-size="9.00">group_3_ped_4_age</text>
</g>
<!-- group_3_ped_4_age&#45;&gt;0 -->
<g id="edge63" class="edge">
<title>group_3_ped_4_age&#45;&gt;0</title>
<path fill="none" stroke="green" stroke-width="0.24" stroke-dasharray="1,5" d="M3429.76,-263.14C3293.09,-259.37 2942.22,-247.16 2896.99,-220.49 2870.45,-204.84 2885.71,-177.86 2858.99,-162.51 2837.78,-150.32 2062.92,-118.53 1908.57,-112.31"/>
<polygon fill="green" stroke="green" stroke-width="0.24" points="1908.68,-108.81 1898.55,-111.91 1908.4,-115.81 1908.68,-108.81"/>
</g>
<!-- group_3_ped_4_age&#45;&gt;1 -->
<g id="edge64" class="edge">
<title>group_3_ped_4_age&#45;&gt;1</title>
<path fill="none" stroke="green" stroke-width="0.34" stroke-dasharray="1,5" d="M3485.43,-256.27C3488.36,-236.57 3492.58,-186.5 3464.99,-162.51 3421.8,-124.94 2523.46,-113.35 2356.55,-111.52"/>
<polygon fill="green" stroke="green" stroke-width="0.34" points="2356.26,-108.02 2346.22,-111.41 2356.19,-115.02 2356.26,-108.02"/>
</g>
<!-- 1433 -->
<g id="node33" class="node">
<title>1433</title>
<ellipse fill="white" stroke="black" cx="3540.99" cy="-191.5" rx="28.98" ry="28.98"/>
<text text-anchor="middle" x="3540.99" y="-189.3" font-family="Times,serif" font-size="9.00">1433</text>
</g>
<!-- group_3_ped_4_age&#45;&gt;1433 -->
<g id="edge80" class="edge">
<title>group_3_ped_4_age&#45;&gt;1433</title>
<path fill="none" stroke="red" stroke-width="0.32" d="M3490.53,-256.23C3497.05,-247.99 3507.48,-234.83 3517.16,-222.6"/>
<polygon fill="red" stroke="red" stroke-width="0.32" points="3519.9,-224.77 3523.37,-214.76 3514.41,-220.43 3519.9,-224.77"/>
</g>
<!-- ego_vehicle_velocity -->
<g id="node25" class="node">
<title>ego_vehicle_velocity</title>
<polygon fill="lightgray" stroke="black" points="2944.49,-274.49 2833.49,-274.49 2833.49,-256.49 2944.49,-256.49 2944.49,-274.49"/>
<text text-anchor="middle" x="2888.99" y="-263.29" font-family="Times,serif" font-size="9.00">ego_vehicle_velocity</text>
</g>
<!-- ego_vehicle_velocity&#45;&gt;0 -->
<g id="edge65" class="edge">
<title>ego_vehicle_velocity&#45;&gt;0</title>
<path fill="none" stroke="green" stroke-width="0.32" stroke-dasharray="1,5" d="M2833.49,-264.91C2728.53,-264.75 2505.68,-259.64 2440.99,-220.49 2414.63,-204.54 2429.35,-178.47 2402.99,-162.51 2318.57,-111.4 2002.5,-110.11 1908.51,-110.9"/>
<polygon fill="green" stroke="green" stroke-width="0.32" points="1908.38,-107.4 1898.42,-111 1908.45,-114.4 1908.38,-107.4"/>
</g>
<!-- ego_vehicle_velocity&#45;&gt;1 -->
<g id="edge66" class="edge">
<title>ego_vehicle_velocity&#45;&gt;1</title>
<path fill="none" stroke="green" stroke-width="0.12" stroke-dasharray="1,5" d="M2944.65,-263.24C3060.59,-260.05 3319.46,-249.7 3345.99,-220.49 3363.32,-201.42 3363.75,-181.19 3345.99,-162.51 3310.89,-125.6 2513.86,-113.58 2356.75,-111.57"/>
<polygon fill="green" stroke="green" stroke-width="0.12" points="2356.6,-108.07 2346.56,-111.44 2356.51,-115.06 2356.6,-108.07"/>
</g>
<!-- ego_vehicle_velocity&#45;&gt;2 -->
<g id="edge67" class="edge">
<title>ego_vehicle_velocity&#45;&gt;2</title>
<path fill="none" stroke="red" stroke-width="0.48" d="M2833.33,-264.09C2455.43,-261.31 280.4,-244.29 256.99,-220.49 238.92,-202.12 239.31,-181.25 256.99,-162.51 286.99,-130.71 965.44,-114.8 1109.33,-111.78"/>
<polygon fill="red" stroke="red" stroke-width="0.48" points="1109.54,-115.28 1119.46,-111.57 1109.39,-108.28 1109.54,-115.28"/>
</g>
<!-- 1236 -->
<g id="node31" class="node">
<title>1236</title>
<ellipse fill="white" stroke="black" cx="3426.99" cy="-191.5" rx="28.98" ry="28.98"/>
<text text-anchor="middle" x="3426.99" y="-189.3" font-family="Times,serif" font-size="9.00">1236</text>
</g>
<!-- ego_vehicle_velocity&#45;&gt;1236 -->
<g id="edge73" class="edge">
<title>ego_vehicle_velocity&#45;&gt;1236</title>
<path fill="none" stroke="green" stroke-width="0.21" d="M2944.65,-262.93C3056.37,-259.23 3304.08,-248.12 3383.99,-220.49 3387.97,-219.12 3391.94,-217.3 3395.78,-215.24"/>
<polygon fill="green" stroke="green" stroke-width="0.21" points="3397.6,-218.23 3404.42,-210.12 3394.03,-212.21 3397.6,-218.23"/>
</g>
<!-- 0&#45;&gt;0 -->
<g id="edge68" class="edge">
<title>0&#45;&gt;0</title>
<path fill="none" stroke="green" stroke-width="0.27" stroke-dasharray="1,5" d="M1893.22,-122.17C1904.2,-128.75 1916.25,-124.78 1916.25,-110.25 1916.25,-100.03 1910.29,-95.03 1902.94,-95.25"/>
<polygon fill="green" stroke="green" stroke-width="0.27" points="1901.7,-91.97 1893.22,-98.33 1903.81,-98.65 1901.7,-91.97"/>
</g>
<!-- 1&#45;&gt;1 -->
<g id="edge69" class="edge">
<title>1&#45;&gt;1</title>
<path fill="none" stroke="green" stroke-width="0.19" stroke-dasharray="1,5" d="M2341.22,-122.17C2352.2,-128.75 2364.25,-124.78 2364.25,-110.25 2364.25,-100.03 2358.29,-95.03 2350.94,-95.25"/>
<polygon fill="green" stroke="green" stroke-width="0.19" points="2349.7,-91.97 2341.22,-98.33 2351.81,-98.65 2349.7,-91.97"/>
</g>
<!-- 2&#45;&gt;2 -->
<g id="edge70" class="edge">
<title>2&#45;&gt;2</title>
<path fill="none" stroke="red" stroke-width="0.11" d="M1147.22,-122.17C1158.2,-128.75 1170.25,-124.78 1170.25,-110.25 1170.25,-100.03 1164.29,-95.03 1156.94,-95.25"/>
<polygon fill="red" stroke="red" stroke-width="0.11" points="1155.7,-91.97 1147.22,-98.33 1157.81,-98.65 1155.7,-91.97"/>
</g>
<!-- 1364 -->
<g id="node32" class="node">
<title>1364</title>
<ellipse fill="white" stroke="black" cx="1135.99" cy="-28.99" rx="28.98" ry="28.98"/>
<text text-anchor="middle" x="1135.99" y="-26.79" font-family="Times,serif" font-size="9.00">1364</text>
</g>
<!-- 2&#45;&gt;1364 -->
<g id="edge77" class="edge">
<title>2&#45;&gt;1364</title>
<path fill="none" stroke="red" stroke-width="0.5" d="M1130.63,-94.71C1129.63,-87.03 1129.17,-77.22 1129.25,-67.56"/>
<polygon fill="red" stroke="red" stroke-width="0.5" points="1132.76,-67.36 1129.54,-57.26 1125.76,-67.16 1132.76,-67.36"/>
</g>
<!-- 1158&#45;&gt;2 -->
<g id="edge72" class="edge">
<title>1158&#45;&gt;2</title>
<path fill="none" stroke="green" stroke-width="0.26" stroke-dasharray="1,5" d="M51.5,-172.69C57.79,-168.62 64.87,-164.81 71.99,-162.51 122.85,-146.07 949.69,-117.51 1109.4,-112.13"/>
<polygon fill="green" stroke="green" stroke-width="0.26" points="1109.85,-115.62 1119.73,-111.79 1109.62,-108.62 1109.85,-115.62"/>
</g>
<!-- 1158&#45;&gt;1364 -->
<g id="edge75" class="edge">
<title>1158&#45;&gt;1364</title>
<path fill="none" stroke="green" stroke-width="0.27" d="M54.53,-177.33C66.01,-171.93 79.9,-166.12 92.99,-162.51 474.11,-57.3 956.99,-35.26 1096.57,-30.97"/>
<polygon fill="green" stroke="green" stroke-width="0.27" points="1096.88,-34.46 1106.78,-30.67 1096.68,-27.46 1096.88,-34.46"/>
</g>
<!-- 1391&#45;&gt;2 -->
<g id="edge79" class="edge">
<title>1391&#45;&gt;2</title>
<path fill="none" stroke="red" stroke-width="0.13" d="M203.51,-172.73C209.81,-168.65 216.88,-164.84 223.99,-162.51 310.01,-134.33 968.02,-115.64 1109.32,-111.93"/>
<polygon fill="red" stroke="red" stroke-width="0.13" points="1109.74,-115.42 1119.64,-111.66 1109.56,-108.42 1109.74,-115.42"/>
</g>
<!-- 1236&#45;&gt;1 -->
<g id="edge74" class="edge">
<title>1236&#45;&gt;1</title>
<path fill="none" stroke="red" stroke-width="0.16" stroke-dasharray="1,5" d="M3404.48,-172.69C3398.19,-168.62 3391.11,-164.81 3383.99,-162.51 3283.66,-130.06 2511.26,-114.51 2356.82,-111.71"/>
<polygon fill="red" stroke="red" stroke-width="0.16" points="2356.46,-108.21 2346.4,-111.53 2356.34,-115.21 2356.46,-108.21"/>
</g>
<!-- 1364&#45;&gt;2 -->
<g id="edge76" class="edge">
<title>1364&#45;&gt;2</title>
<path fill="none" stroke="green" stroke-width="0.12" d="M1142.44,-57.26C1142.88,-66.1 1142.84,-75.86 1142.3,-84.5"/>
<polygon fill="green" stroke="green" stroke-width="0.12" points="1138.79,-84.43 1141.36,-94.71 1145.76,-85.07 1138.79,-84.43"/>
</g>
<!-- 1433&#45;&gt;1 -->
<g id="edge81" class="edge">
<title>1433&#45;&gt;1</title>
<path fill="none" stroke="green" stroke-width="0.17" d="M3518.49,-172.67C3512.19,-168.59 3505.12,-164.8 3497.99,-162.51 3386.05,-126.6 2520.13,-113.7 2356.59,-111.57"/>
<polygon fill="green" stroke="green" stroke-width="0.17" points="2356.49,-108.07 2346.45,-111.44 2356.4,-115.07 2356.49,-108.07"/>
</g>
</g>
</svg>
