<?xml version="1.0" encoding="UTF-8" standalone="no"?>
<!DOCTYPE svg PUBLIC "-//W3C//DTD SVG 1.1//EN"
 "http://www.w3.org/Graphics/SVG/1.1/DTD/svg11.dtd">
<!-- Generated by graphviz version 2.40.1 (20161225.0304)
 -->
<!-- Title: %3 Pages: 1 -->
<svg width="2830pt" height="348pt"
 viewBox="0.00 0.00 2829.64 348.19" xmlns="http://www.w3.org/2000/svg" xmlns:xlink="http://www.w3.org/1999/xlink">
<g id="graph0" class="graph" transform="scale(1 1) rotate(0) translate(4 344.1909)">
<title>%3</title>
<polygon fill="#ffffff" stroke="transparent" points="-4,4 -4,-344.1909 2825.6364,-344.1909 2825.6364,4 -4,4"/>
<!-- group_1_ped_1_location -->
<g id="node1" class="node">
<title>group_1_ped_1_location</title>
<polygon fill="#d3d3d3" stroke="#000000" points="193.9113,-184.9447 88.9113,-184.9447 88.9113,-166.9447 193.9113,-166.9447 193.9113,-184.9447"/>
<text text-anchor="middle" x="141.4113" y="-173.7447" font-family="Times,serif" font-size="9.00" fill="#000000">group_1_ped_1_location</text>
</g>
<!-- 0 -->
<g id="node26" class="node">
<title>0</title>
<ellipse fill="#add8e6" stroke="#000000" cx="1124.4113" cy="-90.4472" rx="14.7" ry="14.7"/>
<text text-anchor="middle" x="1124.4113" y="-88.2472" font-family="Times,serif" font-size="9.00" fill="#000000">0</text>
</g>
<!-- group_1_ped_1_location&#45;&gt;0 -->
<g id="edge1" class="edge">
<title>group_1_ped_1_location&#45;&gt;0</title>
<path fill="none" stroke="#00ff00" stroke-width=".1728" d="M159.0473,-166.9214C170.9614,-161.2989 187.2283,-154.522 202.4113,-151.196 543.1431,-76.5545 639.7722,-154.0666 986.4113,-115.196 1026.3438,-110.7181 1072.1618,-101.7236 1099.6684,-95.8999"/>
<polygon fill="#00ff00" stroke="#00ff00" stroke-width=".1728" points="1100.5563,-99.2891 1109.5978,-93.7663 1099.0857,-92.4453 1100.5563,-99.2891"/>
</g>
<!-- 1 -->
<g id="node27" class="node">
<title>1</title>
<ellipse fill="#add8e6" stroke="#000000" cx="1703.4113" cy="-90.4472" rx="14.7" ry="14.7"/>
<text text-anchor="middle" x="1703.4113" y="-88.2472" font-family="Times,serif" font-size="9.00" fill="#000000">1</text>
</g>
<!-- group_1_ped_1_location&#45;&gt;1 -->
<g id="edge2" class="edge">
<title>group_1_ped_1_location&#45;&gt;1</title>
<path fill="none" stroke="#ff0000" stroke-width=".2575" d="M159.0387,-166.8821C170.9492,-161.243 187.2153,-154.4624 202.4113,-151.196 408.0877,-106.9853 938.2163,-123.8819 1148.4113,-115.196 1352.7785,-106.7509 1599.4168,-95.3139 1678.0452,-91.6374"/>
<polygon fill="#ff0000" stroke="#ff0000" stroke-width=".2575" points="1678.5767,-95.1164 1688.4021,-91.1525 1678.2493,-88.1241 1678.5767,-95.1164"/>
</g>
<!-- 2 -->
<g id="node28" class="node">
<title>2</title>
<ellipse fill="#add8e6" stroke="#000000" cx="1481.4113" cy="-14.8492" rx="14.7" ry="14.7"/>
<text text-anchor="middle" x="1481.4113" y="-12.6492" font-family="Times,serif" font-size="9.00" fill="#000000">2</text>
</g>
<!-- group_1_ped_1_location&#45;&gt;2 -->
<g id="edge3" class="edge">
<title>group_1_ped_1_location&#45;&gt;2</title>
<path fill="none" stroke="#00ff00" stroke-width=".3452" d="M139.6512,-166.7485C136.1305,-145.2449 130.8978,-91.5474 160.4113,-65.6985 211.0391,-21.3569 1278.1466,-15.5821 1456.2964,-14.9263"/>
<polygon fill="#00ff00" stroke="#00ff00" stroke-width=".3452" points="1456.312,-18.4264 1466.2997,-14.8915 1456.2876,-11.4264 1456.312,-18.4264"/>
</g>
<!-- 2477 -->
<g id="node31" class="node">
<title>2477</title>
<ellipse fill="#ffffff" stroke="#000000" cx="340.4113" cy="-90.4472" rx="25" ry="25"/>
<text text-anchor="middle" x="340.4113" y="-88.2472" font-family="Times,serif" font-size="9.00" fill="#000000">2477</text>
</g>
<!-- group_1_ped_1_location&#45;&gt;2477 -->
<g id="edge76" class="edge">
<title>group_1_ped_1_location&#45;&gt;2477</title>
<path fill="none" stroke="#00ff00" stroke-width=".121" d="M163.0731,-166.931C174.6962,-162.1516 189.2905,-156.2412 202.4113,-151.196 246.1106,-134.3923 259.3994,-135.86 301.4113,-115.196 304.6021,-113.6265 307.8577,-111.8582 311.0599,-110.007"/>
<polygon fill="#00ff00" stroke="#00ff00" stroke-width=".121" points="313.1178,-112.852 319.8448,-104.6668 309.4817,-106.8704 313.1178,-112.852"/>
</g>
<!-- group_1_ped_1_age -->
<g id="node2" class="node">
<title>group_1_ped_1_age</title>
<polygon fill="#d3d3d3" stroke="#000000" points="1640.9113,-184.9447 1551.9113,-184.9447 1551.9113,-166.9447 1640.9113,-166.9447 1640.9113,-184.9447"/>
<text text-anchor="middle" x="1596.4113" y="-173.7447" font-family="Times,serif" font-size="9.00" fill="#000000">group_1_ped_1_age</text>
</g>
<!-- group_1_ped_1_age&#45;&gt;0 -->
<g id="edge4" class="edge">
<title>group_1_ped_1_age&#45;&gt;0</title>
<path fill="none" stroke="#ff0000" stroke-width=".2827" d="M1580.193,-166.852C1569.9444,-161.4945 1556.2547,-155.0345 1543.4113,-151.196 1398.6126,-107.9193 1216.1295,-94.972 1149.8957,-91.5516"/>
<polygon fill="#ff0000" stroke="#ff0000" stroke-width=".2827" points="1149.7562,-88.0407 1139.5976,-91.0496 1149.4153,-95.0324 1149.7562,-88.0407"/>
</g>
<!-- group_1_ped_1_age&#45;&gt;1 -->
<g id="edge5" class="edge">
<title>group_1_ped_1_age&#45;&gt;1</title>
<path fill="none" stroke="#00ff00" stroke-width=".6713" stroke-dasharray="1,5" d="M1607.8621,-166.795C1625.948,-152.3436 1661.3533,-124.0533 1683.6178,-106.263"/>
<polygon fill="#00ff00" stroke="#00ff00" stroke-width=".6713" points="1686.0908,-108.7671 1691.7183,-99.7904 1681.7211,-103.2984 1686.0908,-108.7671"/>
</g>
<!-- group_1_ped_2_location -->
<g id="node3" class="node">
<title>group_1_ped_2_location</title>
<polygon fill="#d3d3d3" stroke="#000000" points="462.9113,-270.4422 357.9113,-270.4422 357.9113,-252.4422 462.9113,-252.4422 462.9113,-270.4422"/>
<text text-anchor="middle" x="410.4113" y="-259.2422" font-family="Times,serif" font-size="9.00" fill="#000000">group_1_ped_2_location</text>
</g>
<!-- group_1_ped_2_location&#45;&gt;0 -->
<g id="edge6" class="edge">
<title>group_1_ped_2_location&#45;&gt;0</title>
<path fill="none" stroke="#00ff00" stroke-width=".2364" d="M405.7969,-252.2478C395.9698,-231.2156 375.9427,-179.2539 402.4113,-151.196 449.5344,-101.2432 951.4586,-125.1103 1019.4113,-115.196 1047.4728,-111.1018 1079.0725,-103.1926 1100.2077,-97.4137"/>
<polygon fill="#00ff00" stroke="#00ff00" stroke-width=".2364" points="1101.2638,-100.7529 1109.9565,-94.6958 1099.3839,-94.01 1101.2638,-100.7529"/>
</g>
<!-- group_1_ped_2_location&#45;&gt;1 -->
<g id="edge7" class="edge">
<title>group_1_ped_2_location&#45;&gt;1</title>
<path fill="none" stroke="#00ff00" stroke-width=".3543" d="M463.3279,-260.423C736.5628,-255.0386 1976.0903,-229.0761 2003.4113,-200.6934 2018.6675,-184.8443 2017.3851,-168.1866 2003.4113,-151.196 1950.7575,-87.1749 1901.6288,-131.7736 1820.4113,-115.196 1788.4814,-108.6786 1751.7224,-100.8495 1728.0592,-95.7672"/>
<polygon fill="#00ff00" stroke="#00ff00" stroke-width=".3543" points="1728.6854,-92.3219 1718.1729,-93.64 1727.2129,-99.1653 1728.6854,-92.3219"/>
</g>
<!-- group_1_ped_2_location&#45;&gt;2 -->
<g id="edge60" class="edge">
<title>group_1_ped_2_location&#45;&gt;2</title>
<path fill="none" stroke="#00ff00" stroke-width=".6249" d="M391.9076,-252.3553C380.0429,-246.9294 364.1541,-240.3939 349.4113,-236.6934 199.5376,-199.0746 -58.9122,-288.2735 12.4113,-151.196 42.9727,-92.4596 71.6552,-86.8088 134.4113,-65.6985 264.1586,-22.0531 1281.9884,-15.7123 1456.1118,-14.9444"/>
<polygon fill="#00ff00" stroke="#00ff00" stroke-width=".6249" points="1456.1483,-18.4444 1466.1335,-14.9024 1456.1189,-11.4444 1456.1483,-18.4444"/>
</g>
<!-- 2451 -->
<g id="node33" class="node">
<title>2451</title>
<ellipse fill="#ffffff" stroke="#000000" cx="46.4113" cy="-175.9447" rx="25" ry="25"/>
<text text-anchor="middle" x="46.4113" y="-173.7447" font-family="Times,serif" font-size="9.00" fill="#000000">2451</text>
</g>
<!-- group_1_ped_2_location&#45;&gt;2451 -->
<g id="edge64" class="edge">
<title>group_1_ped_2_location&#45;&gt;2451</title>
<path fill="none" stroke="#ff0000" stroke-width=".105" d="M391.6047,-252.367C379.7563,-247.0162 363.994,-240.557 349.4113,-236.6934 232.3868,-205.6891 191.4737,-246.4973 79.4113,-200.6934 77.522,-199.9212 75.6444,-199.0142 73.7993,-198.012"/>
<polygon fill="#ff0000" stroke="#ff0000" stroke-width=".105" points="75.2595,-194.7934 64.9406,-192.3907 71.5089,-200.7039 75.2595,-194.7934"/>
</g>
<!-- 2010 -->
<g id="node34" class="node">
<title>2010</title>
<ellipse fill="#ffffff" stroke="#000000" cx="436.4113" cy="-175.9447" rx="25" ry="25"/>
<text text-anchor="middle" x="436.4113" y="-173.7447" font-family="Times,serif" font-size="9.00" fill="#000000">2010</text>
</g>
<!-- group_1_ped_2_location&#45;&gt;2010 -->
<g id="edge61" class="edge">
<title>group_1_ped_2_location&#45;&gt;2010</title>
<path fill="none" stroke="#00ff00" stroke-width=".2285" d="M413.1937,-252.2924C416.2886,-242.1152 421.4707,-225.0746 426.1549,-209.6713"/>
<polygon fill="#00ff00" stroke="#00ff00" stroke-width=".2285" points="429.5733,-210.4599 429.1342,-199.8742 422.8761,-208.4233 429.5733,-210.4599"/>
</g>
<!-- group_1_ped_2_age -->
<g id="node4" class="node">
<title>group_1_ped_2_age</title>
<polygon fill="#d3d3d3" stroke="#000000" points="1196.9113,-184.9447 1107.9113,-184.9447 1107.9113,-166.9447 1196.9113,-166.9447 1196.9113,-184.9447"/>
<text text-anchor="middle" x="1152.4113" y="-173.7447" font-family="Times,serif" font-size="9.00" fill="#000000">group_1_ped_2_age</text>
</g>
<!-- group_1_ped_2_age&#45;&gt;0 -->
<g id="edge8" class="edge">
<title>group_1_ped_2_age&#45;&gt;0</title>
<path fill="none" stroke="#ff0000" stroke-width=".217" d="M1149.4148,-166.795C1145.3343,-154.3353 1137.8848,-131.5884 1132.1748,-114.1532"/>
<polygon fill="#ff0000" stroke="#ff0000" stroke-width=".217" points="1135.4911,-113.0334 1129.0526,-104.6193 1128.8387,-115.212 1135.4911,-113.0334"/>
</g>
<!-- group_1_ped_2_age&#45;&gt;1 -->
<g id="edge9" class="edge">
<title>group_1_ped_2_age&#45;&gt;1</title>
<path fill="none" stroke="#00ff00" stroke-width=".6051" stroke-dasharray="1,5" d="M1168.9264,-166.7583C1179.3649,-161.3656 1193.3125,-154.9014 1206.4113,-151.196 1382.2394,-101.4562 1604.4159,-92.4419 1678.2723,-90.8086"/>
<polygon fill="#00ff00" stroke="#00ff00" stroke-width=".6051" points="1678.5175,-94.3046 1688.4476,-90.6109 1678.3814,-87.3059 1678.5175,-94.3046"/>
</g>
<!-- group_1_ped_3_location -->
<g id="node5" class="node">
<title>group_1_ped_3_location</title>
<polygon fill="#d3d3d3" stroke="#000000" points="1533.9113,-184.9447 1428.9113,-184.9447 1428.9113,-166.9447 1533.9113,-166.9447 1533.9113,-184.9447"/>
<text text-anchor="middle" x="1481.4113" y="-173.7447" font-family="Times,serif" font-size="9.00" fill="#000000">group_1_ped_3_location</text>
</g>
<!-- group_1_ped_3_location&#45;&gt;0 -->
<g id="edge10" class="edge">
<title>group_1_ped_3_location&#45;&gt;0</title>
<path fill="none" stroke="#ff0000" stroke-width=".2775" d="M1461.687,-166.8689C1449.901,-161.718 1434.522,-155.4672 1420.4113,-151.196 1321.9438,-121.3908 1200.6343,-101.6006 1149.2642,-93.9722"/>
<polygon fill="#ff0000" stroke="#ff0000" stroke-width=".2775" points="1149.5236,-90.473 1139.1226,-92.4903 1148.5114,-97.3995 1149.5236,-90.473"/>
</g>
<!-- group_1_ped_3_location&#45;&gt;1 -->
<g id="edge11" class="edge">
<title>group_1_ped_3_location&#45;&gt;1</title>
<path fill="none" stroke="#ff0000" stroke-width=".5357" d="M1503.7593,-166.918C1515.5369,-162.1878 1530.2354,-156.3266 1543.4113,-151.196 1591.6697,-132.4044 1648.3834,-111.0409 1679.6685,-99.3186"/>
<polygon fill="#ff0000" stroke="#ff0000" stroke-width=".5357" points="1681.116,-102.514 1689.2544,-95.7305 1678.662,-95.9582 1681.116,-102.514"/>
</g>
<!-- group_1_ped_3_location&#45;&gt;2 -->
<g id="edge12" class="edge">
<title>group_1_ped_3_location&#45;&gt;2</title>
<path fill="none" stroke="#ff0000" stroke-width=".1316" d="M1481.4113,-166.8219C1481.4113,-142.7543 1481.4113,-76.8819 1481.4113,-40.2572"/>
<polygon fill="#ff0000" stroke="#ff0000" stroke-width=".1316" points="1484.9113,-39.9085 1481.4113,-29.9086 1477.9113,-39.9086 1484.9113,-39.9085"/>
</g>
<!-- group_1_ped_3_age -->
<g id="node6" class="node">
<title>group_1_ped_3_age</title>
<polygon fill="#d3d3d3" stroke="#000000" points="820.9113,-184.9447 731.9113,-184.9447 731.9113,-166.9447 820.9113,-166.9447 820.9113,-184.9447"/>
<text text-anchor="middle" x="776.4113" y="-173.7447" font-family="Times,serif" font-size="9.00" fill="#000000">group_1_ped_3_age</text>
</g>
<!-- group_1_ped_3_age&#45;&gt;0 -->
<g id="edge13" class="edge">
<title>group_1_ped_3_age&#45;&gt;0</title>
<path fill="none" stroke="#ff0000" stroke-width=".1151" stroke-dasharray="1,5" d="M793.4968,-166.8231C803.914,-161.5911 817.6396,-155.2727 830.4113,-151.196 911.872,-125.1932 935.7769,-133.0088 1019.4113,-115.196 1047.1477,-109.2885 1078.8069,-101.7111 1100.045,-96.5059"/>
<polygon fill="#ff0000" stroke="#ff0000" stroke-width=".1151" points="1100.9758,-99.8813 1109.8479,-94.0903 1099.3009,-93.0846 1100.9758,-99.8813"/>
</g>
<!-- group_1_ped_3_age&#45;&gt;1 -->
<g id="edge14" class="edge">
<title>group_1_ped_3_age&#45;&gt;1</title>
<path fill="none" stroke="#ff0000" stroke-width=".4758" d="M792.3906,-166.7656C802.8529,-161.2304 817.0205,-154.6096 830.4113,-151.196 914.5383,-129.7499 1544.4039,-98.1711 1678.3958,-91.6511"/>
<polygon fill="#ff0000" stroke="#ff0000" stroke-width=".4758" points="1678.6787,-95.1416 1688.4975,-91.1614 1678.3397,-88.1498 1678.6787,-95.1416"/>
</g>
<!-- group_1_ped_3_age&#45;&gt;2 -->
<g id="edge15" class="edge">
<title>group_1_ped_3_age&#45;&gt;2</title>
<path fill="none" stroke="#ff0000" stroke-width=".3126" d="M781.6764,-166.7104C794.8373,-144.6338 831.5739,-88.9138 879.4113,-65.6985 931.9284,-40.212 1348.3573,-20.5986 1456.0562,-15.9173"/>
<polygon fill="#ff0000" stroke="#ff0000" stroke-width=".3126" points="1456.4602,-19.4033 1466.3006,-15.4768 1456.1594,-12.4098 1456.4602,-19.4033"/>
</g>
<!-- group_1_ped_4_location -->
<g id="node7" class="node">
<title>group_1_ped_4_location</title>
<polygon fill="#d3d3d3" stroke="#000000" points="316.9113,-184.9447 211.9113,-184.9447 211.9113,-166.9447 316.9113,-166.9447 316.9113,-184.9447"/>
<text text-anchor="middle" x="264.4113" y="-173.7447" font-family="Times,serif" font-size="9.00" fill="#000000">group_1_ped_4_location</text>
</g>
<!-- group_1_ped_4_location&#45;&gt;0 -->
<g id="edge16" class="edge">
<title>group_1_ped_4_location&#45;&gt;0</title>
<path fill="none" stroke="#00ff00" stroke-width=".1866" d="M284.177,-166.847C297.2795,-161.2697 315.015,-154.5719 331.4113,-151.196 631.3164,-89.4468 716.2917,-158.4927 1019.4113,-115.196 1047.4849,-111.186 1079.0824,-103.2614 1100.2138,-97.4559"/>
<polygon fill="#00ff00" stroke="#00ff00" stroke-width=".1866" points="1101.2763,-100.7931 1109.9605,-94.7239 1099.387,-94.0528 1101.2763,-100.7931"/>
</g>
<!-- group_1_ped_4_location&#45;&gt;1 -->
<g id="edge17" class="edge">
<title>group_1_ped_4_location&#45;&gt;1</title>
<path fill="none" stroke="#ff0000" stroke-width=".3355" stroke-dasharray="1,5" d="M306.4799,-166.9247C333.7086,-161.453 369.9995,-154.8432 402.4113,-151.196 435.3557,-147.4888 1500.3942,-99.5641 1678.3216,-91.5732"/>
<polygon fill="#ff0000" stroke="#ff0000" stroke-width=".3355" points="1678.4803,-95.0697 1688.3132,-91.1246 1678.1663,-88.0768 1678.4803,-95.0697"/>
</g>
<!-- group_1_ped_4_location&#45;&gt;2 -->
<g id="edge18" class="edge">
<title>group_1_ped_4_location&#45;&gt;2</title>
<path fill="none" stroke="#00ff00" stroke-width=".4059" d="M286.0326,-166.8846C300.3437,-161.3228 319.6744,-154.6281 337.4113,-151.196 479.2247,-123.755 860.9949,-186.8534 986.4113,-115.196 1009.3681,-102.0794 996.8183,-79.4324 1019.4113,-65.6985 1056.975,-42.8641 1365.3393,-22.06 1456.2675,-16.3748"/>
<polygon fill="#00ff00" stroke="#00ff00" stroke-width=".4059" points="1456.7101,-19.8542 1466.4749,-15.7433 1456.2778,-12.8675 1456.7101,-19.8542"/>
</g>
<!-- group_1_ped_4_location&#45;&gt;2477 -->
<g id="edge68" class="edge">
<title>group_1_ped_4_location&#45;&gt;2477</title>
<path fill="none" stroke="#00ff00" stroke-width=".148" d="M272.5446,-166.795C283.1044,-154.9155 301.9769,-133.6846 317.1442,-116.6219"/>
<polygon fill="#00ff00" stroke="#00ff00" stroke-width=".148" points="319.7812,-118.9235 323.809,-109.1242 314.5494,-114.2728 319.7812,-118.9235"/>
</g>
<!-- group_1_ped_4_age -->
<g id="node8" class="node">
<title>group_1_ped_4_age</title>
<polygon fill="#d3d3d3" stroke="#000000" points="258.9113,-99.4472 169.9113,-99.4472 169.9113,-81.4472 258.9113,-81.4472 258.9113,-99.4472"/>
<text text-anchor="middle" x="214.4113" y="-88.2472" font-family="Times,serif" font-size="9.00" fill="#000000">group_1_ped_4_age</text>
</g>
<!-- group_1_ped_4_age&#45;&gt;2 -->
<g id="edge19" class="edge">
<title>group_1_ped_4_age&#45;&gt;2</title>
<path fill="none" stroke="#ff0000" stroke-width=".5147" stroke-dasharray="1,5" d="M231.4305,-81.4009C242.9377,-75.7687 258.6676,-68.9896 273.4113,-65.6985 392.5746,-39.0984 1292.956,-18.8473 1456.1025,-15.3766"/>
<polygon fill="#ff0000" stroke="#ff0000" stroke-width=".5147" points="1456.6303,-18.8663 1466.5542,-15.1559 1456.4825,-11.8679 1456.6303,-18.8663"/>
</g>
<!-- group_2_ped_1_location -->
<g id="node9" class="node">
<title>group_2_ped_1_location</title>
<polygon fill="#d3d3d3" stroke="#000000" points="1089.9113,-184.9447 984.9113,-184.9447 984.9113,-166.9447 1089.9113,-166.9447 1089.9113,-184.9447"/>
<text text-anchor="middle" x="1037.4113" y="-173.7447" font-family="Times,serif" font-size="9.00" fill="#000000">group_2_ped_1_location</text>
</g>
<!-- group_2_ped_1_location&#45;&gt;0 -->
<g id="edge20" class="edge">
<title>group_2_ped_1_location&#45;&gt;0</title>
<path fill="none" stroke="#ff0000" stroke-width=".1031" stroke-dasharray="1,5" d="M1046.7218,-166.795C1060.9901,-152.773 1088.5161,-125.7224 1106.676,-107.8761"/>
<polygon fill="#ff0000" stroke="#ff0000" stroke-width=".1031" points="1109.1403,-110.3617 1113.8195,-100.8561 1104.2338,-105.369 1109.1403,-110.3617"/>
</g>
<!-- group_2_ped_1_location&#45;&gt;1 -->
<g id="edge21" class="edge">
<title>group_2_ped_1_location&#45;&gt;1</title>
<path fill="none" stroke="#ff0000" stroke-width=".2337" stroke-dasharray="1,5" d="M1056.2265,-166.8327C1068.289,-161.3971 1084.4387,-154.8603 1099.4113,-151.196 1212.3886,-123.5465 1579.5623,-98.4154 1678.6035,-92.0147"/>
<polygon fill="#ff0000" stroke="#ff0000" stroke-width=".2337" points="1678.8284,-95.5075 1688.5839,-91.3746 1678.3804,-88.5219 1678.8284,-95.5075"/>
</g>
<!-- group_2_ped_1_location&#45;&gt;2 -->
<g id="edge22" class="edge">
<title>group_2_ped_1_location&#45;&gt;2</title>
<path fill="none" stroke="#00ff00" stroke-width="1.1756" stroke-dasharray="1,5" d="M1039.6195,-166.937C1045.4222,-145.3636 1063.2799,-90.6762 1100.4113,-65.6985 1158.9914,-26.2925 1381.02,-17.2892 1456.2845,-15.3514"/>
<polygon fill="#00ff00" stroke="#00ff00" stroke-width="1.1756" points="1456.3731,-18.8504 1466.2872,-15.114 1456.2069,-11.8524 1456.3731,-18.8504"/>
</g>
<!-- group_2_ped_1_age -->
<g id="node10" class="node">
<title>group_2_ped_1_age</title>
<polygon fill="#d3d3d3" stroke="#000000" points="1303.9113,-184.9447 1214.9113,-184.9447 1214.9113,-166.9447 1303.9113,-166.9447 1303.9113,-184.9447"/>
<text text-anchor="middle" x="1259.4113" y="-173.7447" font-family="Times,serif" font-size="9.00" fill="#000000">group_2_ped_1_age</text>
</g>
<!-- group_2_ped_1_age&#45;&gt;0 -->
<g id="edge23" class="edge">
<title>group_2_ped_1_age&#45;&gt;0</title>
<path fill="none" stroke="#00ff00" stroke-width="1.0972" stroke-dasharray="1,5" d="M1244.9639,-166.795C1221.1303,-151.7008 1173.4579,-121.5092 1145.7376,-103.9535"/>
<polygon fill="#00ff00" stroke="#00ff00" stroke-width="1.0972" points="1147.4859,-100.9179 1137.1649,-98.5243 1143.7405,-106.8317 1147.4859,-100.9179"/>
</g>
<!-- group_2_ped_1_age&#45;&gt;1 -->
<g id="edge24" class="edge">
<title>group_2_ped_1_age&#45;&gt;1</title>
<path fill="none" stroke="#00ff00" stroke-width=".2037" stroke-dasharray="1,5" d="M1275.9705,-166.9096C1286.4257,-161.5738 1300.3752,-155.1164 1313.4113,-151.196 1447.4349,-110.89 1615.8402,-96.2305 1678.4632,-91.9502"/>
<polygon fill="#00ff00" stroke="#00ff00" stroke-width=".2037" points="1678.819,-95.4345 1688.5688,-91.2881 1678.3613,-88.4495 1678.819,-95.4345"/>
</g>
<!-- group_2_ped_2_location -->
<g id="node11" class="node">
<title>group_2_ped_2_location</title>
<polygon fill="#d3d3d3" stroke="#000000" points="1548.9113,-340.1909 1443.9113,-340.1909 1443.9113,-322.1909 1548.9113,-322.1909 1548.9113,-340.1909"/>
<text text-anchor="middle" x="1496.4113" y="-328.9909" font-family="Times,serif" font-size="9.00" fill="#000000">group_2_ped_2_location</text>
</g>
<!-- group_2_ped_2_location&#45;&gt;0 -->
<g id="edge25" class="edge">
<title>group_2_ped_2_location&#45;&gt;0</title>
<path fill="none" stroke="#ff0000" stroke-width=".107" stroke-dasharray="1,5" d="M1443.741,-326.2108C1277.2202,-309.9415 770.3356,-256.2035 723.4113,-200.6934 649.4913,-113.2483 781.8025,-156.3768 1016.4113,-115.196 1045.3932,-110.1088 1078.3009,-102.2646 1100.0948,-96.7747"/>
<polygon fill="#ff0000" stroke="#ff0000" stroke-width=".107" points="1101.0098,-100.1534 1109.8349,-94.2911 1099.2802,-93.3705 1101.0098,-100.1534"/>
</g>
<!-- group_2_ped_2_location&#45;&gt;1 -->
<g id="edge26" class="edge">
<title>group_2_ped_2_location&#45;&gt;1</title>
<path fill="none" stroke="#00ff00" stroke-width=".2918" d="M1548.9244,-326.2499C1715.5718,-310.0472 2224.3295,-256.3658 2271.4113,-200.6934 2285.6168,-183.896 2286.1164,-167.5578 2271.4113,-151.196 2269.0954,-148.6193 1837.6107,-104.2101 1728.3331,-93.0006"/>
<polygon fill="#00ff00" stroke="#00ff00" stroke-width=".2918" points="1728.5496,-89.5045 1718.2447,-91.9661 1727.8356,-96.468 1728.5496,-89.5045"/>
</g>
<!-- group_2_ped_2_location&#45;&gt;2 -->
<g id="edge27" class="edge">
<title>group_2_ped_2_location&#45;&gt;2</title>
<path fill="none" stroke="#ff0000" stroke-width=".1354" d="M1549.2505,-327.6224C1649.0452,-320.7374 1872.0541,-304.6588 2059.4113,-286.1909 2387.3304,-253.8677 2965.9311,-428.7971 2788.4113,-151.196 2739.613,-74.8865 2691.4126,-87.15 2603.4113,-65.6985 2493.565,-38.922 1661.7992,-18.926 1506.3824,-15.403"/>
<polygon fill="#ff0000" stroke="#ff0000" stroke-width=".1354" points="1506.4567,-11.9039 1496.3805,-15.1779 1506.2992,-18.9021 1506.4567,-11.9039"/>
</g>
<!-- 2768 -->
<g id="node32" class="node">
<title>2768</title>
<ellipse fill="#ffffff" stroke="#000000" cx="315.4113" cy="-261.4422" rx="25" ry="25"/>
<text text-anchor="middle" x="315.4113" y="-259.2422" font-family="Times,serif" font-size="9.00" fill="#000000">2768</text>
</g>
<!-- group_2_ped_2_location&#45;&gt;2768 -->
<g id="edge69" class="edge">
<title>group_2_ped_2_location&#45;&gt;2768</title>
<path fill="none" stroke="#ff0000" stroke-width=".2544" d="M1443.7266,-330.966C1232.3581,-329.8141 452.2548,-323.0794 348.4113,-286.1909 346.488,-285.5077 344.584,-284.6699 342.7188,-283.7204"/>
<polygon fill="#ff0000" stroke="#ff0000" stroke-width=".2544" points="344.158,-280.4967 333.8063,-278.2403 340.4915,-286.4596 344.158,-280.4967"/>
</g>
<!-- group_2_ped_2_age -->
<g id="node12" class="node">
<title>group_2_ped_2_age</title>
<polygon fill="#d3d3d3" stroke="#000000" points="674.9113,-184.9447 585.9113,-184.9447 585.9113,-166.9447 674.9113,-166.9447 674.9113,-184.9447"/>
<text text-anchor="middle" x="630.4113" y="-173.7447" font-family="Times,serif" font-size="9.00" fill="#000000">group_2_ped_2_age</text>
</g>
<!-- group_2_ped_2_age&#45;&gt;0 -->
<g id="edge28" class="edge">
<title>group_2_ped_2_age&#45;&gt;0</title>
<path fill="none" stroke="#00ff00" stroke-width=".2843" d="M648.2779,-166.8552C659.7419,-161.4283 675.108,-154.8927 689.4113,-151.196 832.2543,-114.2776 874.0029,-140.1667 1019.4113,-115.196 1047.3607,-110.3962 1078.9809,-102.6162 1100.1516,-97.0605"/>
<polygon fill="#00ff00" stroke="#00ff00" stroke-width=".2843" points="1101.1561,-100.4151 1109.9191,-94.4602 1099.3552,-93.6507 1101.1561,-100.4151"/>
</g>
<!-- group_2_ped_3_location -->
<g id="node13" class="node">
<title>group_2_ped_3_location</title>
<polygon fill="#d3d3d3" stroke="#000000" points="1993.9113,-184.9447 1888.9113,-184.9447 1888.9113,-166.9447 1993.9113,-166.9447 1993.9113,-184.9447"/>
<text text-anchor="middle" x="1941.4113" y="-173.7447" font-family="Times,serif" font-size="9.00" fill="#000000">group_2_ped_3_location</text>
</g>
<!-- group_2_ped_3_location&#45;&gt;0 -->
<g id="edge29" class="edge">
<title>group_2_ped_3_location&#45;&gt;0</title>
<path fill="none" stroke="#ff0000" stroke-width=".4396" stroke-dasharray="1,5" d="M1923.207,-166.847C1911.3273,-161.3443 1895.3126,-154.7291 1880.4113,-151.196 1736.7355,-117.13 1264.5401,-96.1267 1149.7353,-91.445"/>
<polygon fill="#ff0000" stroke="#ff0000" stroke-width=".4396" points="1149.6135,-87.9373 1139.4807,-91.0317 1149.3316,-94.9316 1149.6135,-87.9373"/>
</g>
<!-- group_2_ped_3_location&#45;&gt;1 -->
<g id="edge30" class="edge">
<title>group_2_ped_3_location&#45;&gt;1</title>
<path fill="none" stroke="#ff0000" stroke-width=".294" stroke-dasharray="1,5" d="M1919.786,-166.8344C1908.1734,-162.0276 1893.5772,-156.1219 1880.4113,-151.196 1826.0866,-130.8707 1761.4488,-109.3495 1727.3031,-98.1856"/>
<polygon fill="#ff0000" stroke="#ff0000" stroke-width=".294" points="1728.3226,-94.8367 1717.7303,-95.0662 1726.1538,-101.4923 1728.3226,-94.8367"/>
</g>
<!-- group_2_ped_3_location&#45;&gt;2 -->
<g id="edge31" class="edge">
<title>group_2_ped_3_location&#45;&gt;2</title>
<path fill="none" stroke="#00ff00" stroke-width=".582" stroke-dasharray="1,5" d="M1930.3657,-166.7936C1903.9064,-145.3875 1834.0539,-91.8852 1766.4113,-65.6985 1674.9295,-30.2828 1557.2775,-19.3125 1506.5371,-16.0989"/>
<polygon fill="#00ff00" stroke="#00ff00" stroke-width=".582" points="1506.6729,-12.6009 1496.4853,-15.5102 1506.2635,-19.589 1506.6729,-12.6009"/>
</g>
<!-- group_2_ped_3_age -->
<g id="node14" class="node">
<title>group_2_ped_3_age</title>
<polygon fill="#d3d3d3" stroke="#000000" points="976.9113,-99.4472 887.9113,-99.4472 887.9113,-81.4472 976.9113,-81.4472 976.9113,-99.4472"/>
<text text-anchor="middle" x="932.4113" y="-88.2472" font-family="Times,serif" font-size="9.00" fill="#000000">group_2_ped_3_age</text>
</g>
<!-- group_2_ped_3_age&#45;&gt;2 -->
<g id="edge32" class="edge">
<title>group_2_ped_3_age&#45;&gt;2</title>
<path fill="none" stroke="#ff0000" stroke-width=".3715" stroke-dasharray="1,5" d="M950.2712,-81.3317C961.7326,-75.8947 977.0983,-69.3576 991.4113,-65.6985 1081.0055,-42.7936 1368.8828,-22.3012 1456.12,-16.4897"/>
<polygon fill="#ff0000" stroke="#ff0000" stroke-width=".3715" points="1456.4334,-19.9767 1466.1811,-15.8255 1455.9722,-12.9919 1456.4334,-19.9767"/>
</g>
<!-- group_2_ped_4_location -->
<g id="node15" class="node">
<title>group_2_ped_4_location</title>
<polygon fill="#d3d3d3" stroke="#000000" points="2532.9113,-184.9447 2427.9113,-184.9447 2427.9113,-166.9447 2532.9113,-166.9447 2532.9113,-184.9447"/>
<text text-anchor="middle" x="2480.4113" y="-173.7447" font-family="Times,serif" font-size="9.00" fill="#000000">group_2_ped_4_location</text>
</g>
<!-- group_2_ped_4_location&#45;&gt;1 -->
<g id="edge33" class="edge">
<title>group_2_ped_4_location&#45;&gt;1</title>
<path fill="none" stroke="#ff0000" stroke-width=".3397" stroke-dasharray="1,5" d="M2462.2016,-166.8697C2450.3197,-161.376 2434.3047,-154.7623 2419.4113,-151.196 2283.79,-118.7202 1838.9587,-96.6353 1728.4388,-91.5613"/>
<polygon fill="#ff0000" stroke="#ff0000" stroke-width=".3397" points="1728.4095,-88.0564 1718.2609,-91.099 1728.0918,-95.0492 1728.4095,-88.0564"/>
</g>
<!-- group_2_ped_4_location&#45;&gt;2 -->
<g id="edge34" class="edge">
<title>group_2_ped_4_location&#45;&gt;2</title>
<path fill="none" stroke="#ff0000" stroke-width=".4083" d="M2460.0692,-166.8422C2448.3357,-161.8073 2433.2152,-155.6814 2419.4113,-151.196 2269.1721,-102.3777 2230.2572,-91.5261 2074.4113,-65.6985 1856.5902,-29.6001 1589.253,-18.3367 1506.8141,-15.5992"/>
<polygon fill="#ff0000" stroke="#ff0000" stroke-width=".4083" points="1506.7475,-12.0954 1496.6408,-15.2742 1506.5239,-19.0918 1506.7475,-12.0954"/>
</g>
<!-- group_2_ped_4_age -->
<g id="node16" class="node">
<title>group_2_ped_4_age</title>
<polygon fill="#d3d3d3" stroke="#000000" points="1560.9113,-270.4422 1471.9113,-270.4422 1471.9113,-252.4422 1560.9113,-252.4422 1560.9113,-270.4422"/>
<text text-anchor="middle" x="1516.4113" y="-259.2422" font-family="Times,serif" font-size="9.00" fill="#000000">group_2_ped_4_age</text>
</g>
<!-- group_2_ped_4_age&#45;&gt;0 -->
<g id="edge35" class="edge">
<title>group_2_ped_4_age&#45;&gt;0</title>
<path fill="none" stroke="#ff0000" stroke-width=".123" stroke-dasharray="1,5" d="M1471.8116,-259.7675C1348.3936,-254.6786 1009.2609,-237.4458 976.4113,-200.6934 961.751,-184.2914 964.16,-169.4678 976.4113,-151.196 980.092,-145.7065 1060.1386,-114.7887 1100.9411,-99.2963"/>
<polygon fill="#ff0000" stroke="#ff0000" stroke-width=".123" points="1102.2864,-102.5295 1110.3987,-95.7148 1099.8073,-95.9832 1102.2864,-102.5295"/>
</g>
<!-- group_2_ped_4_age&#45;&gt;1 -->
<g id="edge36" class="edge">
<title>group_2_ped_4_age&#45;&gt;1</title>
<path fill="none" stroke="#00ff00" stroke-width=".284" d="M1561.0792,-260.2413C1692.805,-256.2434 2072.786,-241.2624 2109.4113,-200.6934 2124.1529,-184.3645 2123.7698,-167.8628 2109.4113,-151.196 2084.3436,-122.0985 1813.6511,-98.9325 1728.7375,-92.3384"/>
<polygon fill="#00ff00" stroke="#00ff00" stroke-width=".284" points="1728.9169,-88.842 1718.6787,-91.5677 1728.3821,-95.8216 1728.9169,-88.842"/>
</g>
<!-- 2912 -->
<g id="node29" class="node">
<title>2912</title>
<ellipse fill="#ffffff" stroke="#000000" cx="2075.4113" cy="-175.9447" rx="25" ry="25"/>
<text text-anchor="middle" x="2075.4113" y="-173.7447" font-family="Times,serif" font-size="9.00" fill="#000000">2912</text>
</g>
<!-- group_2_ped_4_age&#45;&gt;2912 -->
<g id="edge73" class="edge">
<title>group_2_ped_4_age&#45;&gt;2912</title>
<path fill="none" stroke="#00ff00" stroke-width=".4056" d="M1561.2451,-258.7774C1670.71,-251.8609 1949.0361,-231.6877 2036.4113,-200.6934 2039.9445,-199.4401 2043.4878,-197.8192 2046.9198,-196.0068"/>
<polygon fill="#00ff00" stroke="#00ff00" stroke-width=".4056" points="2048.8039,-198.9594 2055.6609,-190.8827 2045.2639,-192.9205 2048.8039,-198.9594"/>
</g>
<!-- group_2_ped_4_age&#45;&gt;2010 -->
<g id="edge63" class="edge">
<title>group_2_ped_4_age&#45;&gt;2010</title>
<path fill="none" stroke="#ff0000" stroke-width=".139" stroke-dasharray="1,5" d="M1471.8872,-260.3733C1284.4045,-255.6677 564.4726,-235.4708 469.4113,-200.6934 467.4945,-199.9922 465.5956,-199.1404 463.7342,-198.1802"/>
<polygon fill="#ff0000" stroke="#ff0000" stroke-width=".139" points="465.1773,-194.9573 454.832,-192.6715 461.4938,-200.9098 465.1773,-194.9573"/>
</g>
<!-- group_3_ped_1_location -->
<g id="node17" class="node">
<title>group_3_ped_1_location</title>
<polygon fill="#d3d3d3" stroke="#000000" points="2261.9113,-184.9447 2156.9113,-184.9447 2156.9113,-166.9447 2261.9113,-166.9447 2261.9113,-184.9447"/>
<text text-anchor="middle" x="2209.4113" y="-173.7447" font-family="Times,serif" font-size="9.00" fill="#000000">group_3_ped_1_location</text>
</g>
<!-- group_3_ped_1_location&#45;&gt;0 -->
<g id="edge37" class="edge">
<title>group_3_ped_1_location&#45;&gt;0</title>
<path fill="none" stroke="#00ff00" stroke-width=".6273" d="M2179.0645,-166.9139C2159.3886,-161.4378 2133.1003,-154.8272 2109.4113,-151.196 1916.0677,-121.5587 1284.0321,-96.4627 1149.6676,-91.3841"/>
<polygon fill="#00ff00" stroke="#00ff00" stroke-width=".6273" points="1149.6608,-87.8815 1139.5364,-91.0036 1149.398,-94.8766 1149.6608,-87.8815"/>
</g>
<!-- group_3_ped_1_location&#45;&gt;1 -->
<g id="edge38" class="edge">
<title>group_3_ped_1_location&#45;&gt;1</title>
<path fill="none" stroke="#ff0000" stroke-width=".5553" d="M2188.3586,-166.8311C2175.3428,-161.5347 2158.1677,-155.1467 2142.4113,-151.196 1987.9412,-112.4646 1796.2847,-96.652 1728.547,-92.0162"/>
<polygon fill="#ff0000" stroke="#ff0000" stroke-width=".5553" points="1728.6238,-88.5137 1718.414,-91.3439 1728.1603,-95.4983 1728.6238,-88.5137"/>
</g>
<!-- group_3_ped_1_location&#45;&gt;2 -->
<g id="edge39" class="edge">
<title>group_3_ped_1_location&#45;&gt;2</title>
<path fill="none" stroke="#00ff00" stroke-width=".6836" d="M2180.2148,-166.8515C2164.828,-162.1031 2145.6251,-156.2456 2128.4113,-151.196 1993.7336,-111.6882 1961.6611,-95.0481 1824.4113,-65.6985 1706.5823,-40.5018 1563.3271,-23.6213 1506.4347,-17.4556"/>
<polygon fill="#00ff00" stroke="#00ff00" stroke-width=".6836" points="1506.5562,-13.9488 1496.2408,-16.3661 1505.8122,-20.9091 1506.5562,-13.9488"/>
</g>
<!-- group_3_ped_1_age -->
<g id="node18" class="node">
<title>group_3_ped_1_age</title>
<polygon fill="#d3d3d3" stroke="#000000" points="1410.9113,-184.9447 1321.9113,-184.9447 1321.9113,-166.9447 1410.9113,-166.9447 1410.9113,-184.9447"/>
<text text-anchor="middle" x="1366.4113" y="-173.7447" font-family="Times,serif" font-size="9.00" fill="#000000">group_3_ped_1_age</text>
</g>
<!-- group_3_ped_1_age&#45;&gt;0 -->
<g id="edge40" class="edge">
<title>group_3_ped_1_age&#45;&gt;0</title>
<path fill="none" stroke="#ff0000" stroke-width=".3378" stroke-dasharray="1,5" d="M1348.505,-166.8961C1338.3478,-161.9382 1325.3226,-155.8698 1313.4113,-151.196 1255.3,-128.3937 1184.8104,-107.4483 1148.5462,-97.1462"/>
<polygon fill="#ff0000" stroke="#ff0000" stroke-width=".3378" points="1149.4268,-93.7581 1138.8524,-94.415 1147.5284,-100.4958 1149.4268,-93.7581"/>
</g>
<!-- group_3_ped_1_age&#45;&gt;1 -->
<g id="edge41" class="edge">
<title>group_3_ped_1_age&#45;&gt;1</title>
<path fill="none" stroke="#ff0000" stroke-width=".3712" stroke-dasharray="1,5" d="M1383.5318,-166.9307C1393.9615,-161.7368 1407.6878,-155.4208 1420.4113,-151.196 1513.2983,-120.3526 1628.658,-101.2776 1678.528,-93.9172"/>
<polygon fill="#ff0000" stroke="#ff0000" stroke-width=".3712" points="1679.2855,-97.3442 1688.6812,-92.4482 1678.2831,-90.4163 1679.2855,-97.3442"/>
</g>
<!-- group_3_ped_2_location -->
<g id="node19" class="node">
<title>group_3_ped_2_location</title>
<polygon fill="#d3d3d3" stroke="#000000" points="2655.9113,-184.9447 2550.9113,-184.9447 2550.9113,-166.9447 2655.9113,-166.9447 2655.9113,-184.9447"/>
<text text-anchor="middle" x="2603.4113" y="-173.7447" font-family="Times,serif" font-size="9.00" fill="#000000">group_3_ped_2_location</text>
</g>
<!-- group_3_ped_2_location&#45;&gt;0 -->
<g id="edge42" class="edge">
<title>group_3_ped_2_location&#45;&gt;0</title>
<path fill="none" stroke="#00ff00" stroke-width=".3431" stroke-dasharray="1,5" d="M2585.7798,-166.9004C2573.8676,-161.269 2557.6012,-154.4901 2542.4113,-151.196 2354.8271,-110.5155 1871.1773,-123.4713 1679.4113,-115.196 1475.0598,-106.3775 1228.4112,-95.1857 1149.7787,-91.6044"/>
<polygon fill="#00ff00" stroke="#00ff00" stroke-width=".3431" points="1149.5703,-88.0914 1139.4213,-91.1324 1149.2516,-95.0841 1149.5703,-88.0914"/>
</g>
<!-- group_3_ped_2_location&#45;&gt;1 -->
<g id="edge43" class="edge">
<title>group_3_ped_2_location&#45;&gt;1</title>
<path fill="none" stroke="#00ff00" stroke-width=".2016" d="M2585.4816,-166.9303C2573.5795,-161.3871 2557.4377,-154.6961 2542.4113,-151.196 2381.7257,-113.767 1851.1126,-95.0853 1728.7421,-91.2148"/>
<polygon fill="#00ff00" stroke="#00ff00" stroke-width=".2016" points="1728.603,-87.7089 1718.4987,-90.8955 1728.3848,-94.7055 1728.603,-87.7089"/>
</g>
<!-- group_3_ped_2_location&#45;&gt;2 -->
<g id="edge44" class="edge">
<title>group_3_ped_2_location&#45;&gt;2</title>
<path fill="none" stroke="#ff0000" stroke-width=".6554" d="M2597.9504,-166.9216C2583.9892,-144.8141 2544.5328,-88.1186 2494.4113,-65.6985 2401.7863,-24.266 1654.7475,-16.2209 1506.8142,-15.0291"/>
<polygon fill="#ff0000" stroke="#ff0000" stroke-width=".6554" points="1506.5211,-11.5268 1496.4943,-14.9494 1506.467,-18.5266 1506.5211,-11.5268"/>
</g>
<!-- 2810 -->
<g id="node30" class="node">
<title>2810</title>
<ellipse fill="#ffffff" stroke="#000000" cx="2460.4113" cy="-90.4472" rx="25" ry="25"/>
<text text-anchor="middle" x="2460.4113" y="-88.2472" font-family="Times,serif" font-size="9.00" fill="#000000">2810</text>
</g>
<!-- group_3_ped_2_location&#45;&gt;2810 -->
<g id="edge71" class="edge">
<title>group_3_ped_2_location&#45;&gt;2810</title>
<path fill="none" stroke="#ff0000" stroke-width=".4042" d="M2588.1077,-166.795C2564.9929,-152.975 2520.7099,-126.4988 2490.8613,-108.6528"/>
<polygon fill="#ff0000" stroke="#ff0000" stroke-width=".4042" points="2492.4798,-105.5426 2482.1007,-103.415 2488.8876,-111.5507 2492.4798,-105.5426"/>
</g>
<!-- group_3_ped_2_age -->
<g id="node20" class="node">
<title>group_3_ped_2_age</title>
<polygon fill="#d3d3d3" stroke="#000000" points="927.9113,-184.9447 838.9113,-184.9447 838.9113,-166.9447 927.9113,-166.9447 927.9113,-184.9447"/>
<text text-anchor="middle" x="883.4113" y="-173.7447" font-family="Times,serif" font-size="9.00" fill="#000000">group_3_ped_2_age</text>
</g>
<!-- group_3_ped_2_age&#45;&gt;0 -->
<g id="edge45" class="edge">
<title>group_3_ped_2_age&#45;&gt;0</title>
<path fill="none" stroke="#ff0000" stroke-width=".1189" stroke-dasharray="1,5" d="M903.7032,-166.8783C914.9974,-161.9728 929.3697,-155.9606 942.4113,-151.196 992.7161,-132.8174 1006.72,-132.4802 1057.4113,-115.196 1071.9509,-110.2383 1088.1084,-104.2833 1100.913,-99.4572"/>
<polygon fill="#ff0000" stroke="#ff0000" stroke-width=".1189" points="1102.2605,-102.6894 1110.3684,-95.8693 1099.7771,-96.1448 1102.2605,-102.6894"/>
</g>
<!-- group_3_ped_2_age&#45;&gt;1 -->
<g id="edge46" class="edge">
<title>group_3_ped_2_age&#45;&gt;1</title>
<path fill="none" stroke="#ff0000" stroke-width=".1714" stroke-dasharray="1,5" d="M912.025,-166.9248C930.2702,-161.5249 954.5168,-154.9932 976.4113,-151.196 1248.624,-103.9846 1584.7749,-93.1229 1678.2649,-90.9426"/>
<polygon fill="#ff0000" stroke="#ff0000" stroke-width=".1714" points="1678.5223,-94.4379 1688.4426,-90.7179 1678.3677,-87.4396 1678.5223,-94.4379"/>
</g>
<!-- group_3_ped_2_age&#45;&gt;2 -->
<g id="edge47" class="edge">
<title>group_3_ped_2_age&#45;&gt;2</title>
<path fill="none" stroke="#00ff00" stroke-width=".5402" d="M914.6776,-166.909C943.889,-157.3873 987.6414,-140.2662 1019.4113,-115.196 1041.1831,-98.0154 1033.3114,-79.4238 1057.4113,-65.6985 1126.1702,-26.539 1375.057,-17.3302 1455.8744,-15.351"/>
<polygon fill="#00ff00" stroke="#00ff00" stroke-width=".5402" points="1456.2087,-18.8444 1466.1264,-15.1173 1456.0492,-11.8462 1456.2087,-18.8444"/>
</g>
<!-- group_3_ped_3_location -->
<g id="node21" class="node">
<title>group_3_ped_3_location</title>
<polygon fill="#d3d3d3" stroke="#000000" points="2778.9113,-184.9447 2673.9113,-184.9447 2673.9113,-166.9447 2778.9113,-166.9447 2778.9113,-184.9447"/>
<text text-anchor="middle" x="2726.4113" y="-173.7447" font-family="Times,serif" font-size="9.00" fill="#000000">group_3_ped_3_location</text>
</g>
<!-- group_3_ped_3_location&#45;&gt;1 -->
<g id="edge48" class="edge">
<title>group_3_ped_3_location&#45;&gt;1</title>
<path fill="none" stroke="#00ff00" stroke-width=".2825" stroke-dasharray="1,5" d="M2708.4923,-166.8838C2696.5946,-161.3216 2680.4537,-154.6269 2665.4113,-151.196 2479.341,-108.7569 1861.1769,-93.7177 1728.59,-90.9427"/>
<polygon fill="#00ff00" stroke="#00ff00" stroke-width=".2825" points="1728.6493,-87.4433 1718.5796,-90.7374 1728.5057,-94.4418 1728.6493,-87.4433"/>
</g>
<!-- group_3_ped_3_location&#45;&gt;2 -->
<g id="edge49" class="edge">
<title>group_3_ped_3_location&#45;&gt;2</title>
<path fill="none" stroke="#ff0000" stroke-width=".1896" stroke-dasharray="1,5" d="M2715.517,-166.871C2688.084,-144.648 2613.0751,-87.7098 2539.4113,-65.6985 2437.5645,-35.2658 1656.6444,-18.3261 1506.3804,-15.3311"/>
<polygon fill="#ff0000" stroke="#ff0000" stroke-width=".1896" points="1506.3718,-11.8304 1496.3047,-15.1325 1506.2338,-18.829 1506.3718,-11.8304"/>
</g>
<!-- group_3_ped_3_age -->
<g id="node22" class="node">
<title>group_3_ped_3_age</title>
<polygon fill="#d3d3d3" stroke="#000000" points="1747.9113,-184.9447 1658.9113,-184.9447 1658.9113,-166.9447 1747.9113,-166.9447 1747.9113,-184.9447"/>
<text text-anchor="middle" x="1703.4113" y="-173.7447" font-family="Times,serif" font-size="9.00" fill="#000000">group_3_ped_3_age</text>
</g>
<!-- group_3_ped_3_age&#45;&gt;0 -->
<g id="edge50" class="edge">
<title>group_3_ped_3_age&#45;&gt;0</title>
<path fill="none" stroke="#00ff00" stroke-width=".3683" stroke-dasharray="1,5" d="M1687.2312,-166.7206C1676.997,-161.3137 1663.309,-154.8479 1650.4113,-151.196 1554.0409,-123.909 1240.6118,-99.0596 1149.4783,-92.2693"/>
<polygon fill="#00ff00" stroke="#00ff00" stroke-width=".3683" points="1149.4978,-88.7613 1139.2671,-91.515 1148.982,-95.7422 1149.4978,-88.7613"/>
</g>
<!-- group_3_ped_3_age&#45;&gt;1 -->
<g id="edge51" class="edge">
<title>group_3_ped_3_age&#45;&gt;1</title>
<path fill="none" stroke="#ff0000" stroke-width=".5442" d="M1703.4113,-166.795C1703.4113,-154.6658 1703.4113,-132.7879 1703.4113,-115.5515"/>
<polygon fill="#ff0000" stroke="#ff0000" stroke-width=".5442" points="1706.9114,-115.5479 1703.4113,-105.5479 1699.9114,-115.548 1706.9114,-115.5479"/>
</g>
<!-- group_3_ped_3_age&#45;&gt;2 -->
<g id="edge52" class="edge">
<title>group_3_ped_3_age&#45;&gt;2</title>
<path fill="none" stroke="#00ff00" stroke-width=".3858" stroke-dasharray="1,5" d="M1690.8395,-166.8219C1654.1212,-140.1771 1546.7954,-62.2956 1501.7186,-29.5854"/>
<polygon fill="#00ff00" stroke="#00ff00" stroke-width=".3858" points="1503.7218,-26.7146 1493.5726,-23.6742 1499.6106,-32.3802 1503.7218,-26.7146"/>
</g>
<!-- group_3_ped_4_location -->
<g id="node23" class="node">
<title>group_3_ped_4_location</title>
<polygon fill="#d3d3d3" stroke="#000000" points="1870.9113,-184.9447 1765.9113,-184.9447 1765.9113,-166.9447 1870.9113,-166.9447 1870.9113,-184.9447"/>
<text text-anchor="middle" x="1818.4113" y="-173.7447" font-family="Times,serif" font-size="9.00" fill="#000000">group_3_ped_4_location</text>
</g>
<!-- group_3_ped_4_location&#45;&gt;0 -->
<g id="edge53" class="edge">
<title>group_3_ped_4_location&#45;&gt;0</title>
<path fill="none" stroke="#ff0000" stroke-width=".6799" d="M1800.1881,-166.9256C1788.3008,-161.4542 1772.2848,-154.8444 1757.4113,-151.196 1638.6996,-122.0759 1251.7607,-97.8814 1149.4265,-91.8782"/>
<polygon fill="#ff0000" stroke="#ff0000" stroke-width=".6799" points="1149.5869,-88.3817 1139.4005,-91.2951 1149.1804,-95.3699 1149.5869,-88.3817"/>
</g>
<!-- group_3_ped_4_location&#45;&gt;1 -->
<g id="edge54" class="edge">
<title>group_3_ped_4_location&#45;&gt;1</title>
<path fill="none" stroke="#00ff00" stroke-width=".1744" d="M1806.1042,-166.795C1786.3909,-152.139 1747.5325,-123.2494 1723.6767,-105.5137"/>
<polygon fill="#00ff00" stroke="#00ff00" stroke-width=".1744" points="1725.7432,-102.6887 1715.6298,-99.5312 1721.5667,-108.3063 1725.7432,-102.6887"/>
</g>
<!-- group_3_ped_4_location&#45;&gt;2 -->
<g id="edge55" class="edge">
<title>group_3_ped_4_location&#45;&gt;2</title>
<path fill="none" stroke="#00ff00" stroke-width=".1656" d="M1813.7042,-166.7517C1802.1849,-145.2552 1770.3512,-91.5717 1727.4113,-65.6985 1690.1057,-43.2202 1561.2588,-24.8634 1506.4277,-17.8806"/>
<polygon fill="#00ff00" stroke="#00ff00" stroke-width=".1656" points="1506.5603,-14.37 1496.2032,-16.6017 1505.6914,-21.3158 1506.5603,-14.37"/>
</g>
<!-- group_3_ped_4_age -->
<g id="node24" class="node">
<title>group_3_ped_4_age</title>
<polygon fill="#d3d3d3" stroke="#000000" points="567.9113,-184.9447 478.9113,-184.9447 478.9113,-166.9447 567.9113,-166.9447 567.9113,-184.9447"/>
<text text-anchor="middle" x="523.4113" y="-173.7447" font-family="Times,serif" font-size="9.00" fill="#000000">group_3_ped_4_age</text>
</g>
<!-- group_3_ped_4_age&#45;&gt;0 -->
<g id="edge56" class="edge">
<title>group_3_ped_4_age&#45;&gt;0</title>
<path fill="none" stroke="#ff0000" stroke-width=".2151" stroke-dasharray="1,5" d="M539.4045,-166.8194C549.8723,-161.3056 564.0409,-154.6885 577.4113,-151.196 768.1076,-101.3832 824.7211,-145.8908 1019.4113,-115.196 1047.4238,-110.7795 1079.0325,-102.9293 1100.1832,-97.2524"/>
<polygon fill="#ff0000" stroke="#ff0000" stroke-width=".2151" points="1101.2153,-100.5988 1109.9401,-94.5882 1099.3713,-93.846 1101.2153,-100.5988"/>
</g>
<!-- ego_vehicle_velocity -->
<g id="node25" class="node">
<title>ego_vehicle_velocity</title>
<polygon fill="#d3d3d3" stroke="#000000" points="2409.9113,-184.9447 2318.9113,-184.9447 2318.9113,-166.9447 2409.9113,-166.9447 2409.9113,-184.9447"/>
<text text-anchor="middle" x="2364.4113" y="-173.7447" font-family="Times,serif" font-size="9.00" fill="#000000">ego_vehicle_velocity</text>
</g>
<!-- ego_vehicle_velocity&#45;&gt;0 -->
<g id="edge57" class="edge">
<title>ego_vehicle_velocity&#45;&gt;0</title>
<path fill="none" stroke="#ff0000" stroke-width=".399" d="M2336.6541,-166.9406C2318.3351,-161.4017 2293.6911,-154.7115 2271.4113,-151.196 2214.0675,-142.1476 1311.7312,-99.2834 1149.3453,-91.621"/>
<polygon fill="#ff0000" stroke="#ff0000" stroke-width=".399" points="1149.4968,-88.1243 1139.3431,-91.1494 1149.1671,-95.1165 1149.4968,-88.1243"/>
</g>
<!-- ego_vehicle_velocity&#45;&gt;2 -->
<g id="edge58" class="edge">
<title>ego_vehicle_velocity&#45;&gt;2</title>
<path fill="none" stroke="#ff0000" stroke-width=".1145" d="M2344.7205,-166.8464C2333.1569,-161.7513 2318.1569,-155.5641 2304.4113,-151.196 1999.7488,-54.3797 1608.6297,-23.1544 1506.629,-16.3875"/>
<polygon fill="#ff0000" stroke="#ff0000" stroke-width=".1145" points="1506.6011,-12.8785 1496.3965,-15.7274 1506.1504,-19.8639 1506.6011,-12.8785"/>
</g>
<!-- 2&#45;&gt;2 -->
<g id="edge59" class="edge">
<title>2&#45;&gt;2</title>
<path fill="none" stroke="#ff0000" stroke-width=".2493" stroke-dasharray="1,5" d="M1491.8389,-25.6755C1502.45,-32.0439 1514.2605,-28.4352 1514.2605,-14.8492 1514.2605,-5.5089 1508.6782,-.8844 1501.7411,-.9756"/>
<polygon fill="#ff0000" stroke="#ff0000" stroke-width=".2493" points="1500.3671,2.2636 1491.8389,-4.0229 1502.4261,-4.4267 1500.3671,2.2636"/>
</g>
<!-- 2912&#45;&gt;1 -->
<g id="edge74" class="edge">
<title>2912&#45;&gt;1</title>
<path fill="none" stroke="#00ff00" stroke-width=".3147" d="M2055.1544,-161.0227C2049.3422,-157.3263 2042.8336,-153.7088 2036.4113,-151.196 1927.1288,-108.4377 1785.7209,-95.4225 1728.7976,-91.7656"/>
<polygon fill="#00ff00" stroke="#00ff00" stroke-width=".3147" points="1728.7655,-88.2574 1718.574,-91.1529 1728.3467,-95.2449 1728.7655,-88.2574"/>
</g>
<!-- 2810&#45;&gt;2 -->
<g id="edge72" class="edge">
<title>2810&#45;&gt;2</title>
<path fill="none" stroke="#00ff00" stroke-width=".2345" d="M2437.5442,-80.5053C2424.0885,-75.1289 2406.5885,-68.9417 2390.4113,-65.6985 2214.4021,-30.4118 1635.103,-17.7115 1506.7458,-15.2968"/>
<polygon fill="#00ff00" stroke="#00ff00" stroke-width=".2345" points="1506.4425,-11.7907 1496.3797,-15.1059 1506.3135,-18.7895 1506.4425,-11.7907"/>
</g>
<!-- 2477&#45;&gt;2 -->
<g id="edge67" class="edge">
<title>2477&#45;&gt;2</title>
<path fill="none" stroke="#00ff00" stroke-width=".1526" d="M365.3038,-88.7979C516.0082,-78.8129 1304.9317,-26.5421 1456.2874,-16.5138"/>
<polygon fill="#00ff00" stroke="#00ff00" stroke-width=".1526" points="1456.6859,-19.9952 1466.4326,-15.8417 1456.2231,-13.0105 1456.6859,-19.9952"/>
</g>
<!-- 2768&#45;&gt;0 -->
<g id="edge70" class="edge">
<title>2768&#45;&gt;0</title>
<path fill="none" stroke="#ff0000" stroke-width=".4372" d="M323.0711,-237.6835C332.92,-211.4408 352.7604,-170.3662 385.4113,-151.196 446.257,-115.4718 949.5846,-125.3282 1019.4113,-115.196 1047.4759,-111.1236 1079.0751,-103.2105 1100.2093,-97.4247"/>
<polygon fill="#ff0000" stroke="#ff0000" stroke-width=".4372" points="1101.2671,-100.7633 1109.9575,-94.7031 1099.3847,-94.0211 1101.2671,-100.7633"/>
</g>
<!-- 2768&#45;&gt;2451 -->
<g id="edge75" class="edge">
<title>2768&#45;&gt;2451</title>
<path fill="none" stroke="#ff0000" stroke-width=".2051" stroke-dasharray="1,5" d="M290.5404,-258.3001C246.2741,-252.012 151.6829,-235.4006 79.4113,-200.6934 77.6198,-199.8331 75.8291,-198.8686 74.0598,-197.8324"/>
<polygon fill="#ff0000" stroke="#ff0000" stroke-width=".2051" points="75.7702,-194.7685 65.4897,-192.2066 71.9288,-200.6203 75.7702,-194.7685"/>
</g>
<!-- 2451&#45;&gt;2 -->
<g id="edge65" class="edge">
<title>2451&#45;&gt;2</title>
<path fill="none" stroke="#00ff00" stroke-width=".3373" stroke-dasharray="1,5" d="M65.3842,-159.4539C69.7625,-156.3112 74.5646,-153.3391 79.4113,-151.196 157.2176,-116.791 194.7212,-159.3966 267.4113,-115.196 291.3415,-100.6447 281.4838,-78.4663 306.4113,-65.6985 359.3733,-38.5715 1290.416,-18.68 1456.2499,-15.3442"/>
<polygon fill="#00ff00" stroke="#00ff00" stroke-width=".3373" points="1456.521,-18.8396 1466.4491,-15.1406 1456.3812,-11.841 1456.521,-18.8396"/>
</g>
<!-- 2451&#45;&gt;2477 -->
<g id="edge66" class="edge">
<title>2451&#45;&gt;2477</title>
<path fill="none" stroke="#00ff00" stroke-width=".2425" stroke-dasharray="1,5" d="M65.3387,-159.3491C69.7199,-156.2129 74.5346,-153.27 79.4113,-151.196 171.3937,-112.0764 207.9732,-150.6987 301.4113,-115.196 304.7353,-113.9329 308.078,-112.3649 311.3331,-110.6354"/>
<polygon fill="#00ff00" stroke="#00ff00" stroke-width=".2425" points="313.3245,-113.5253 320.1867,-105.453 309.7883,-107.4842 313.3245,-113.5253"/>
</g>
<!-- 2010&#45;&gt;0 -->
<g id="edge62" class="edge">
<title>2010&#45;&gt;0</title>
<path fill="none" stroke="#ff0000" stroke-width=".2874" d="M454.8423,-159.246C459.3248,-156.0334 464.3069,-153.0848 469.4113,-151.196 584.2824,-108.6885 898.2741,-133.3082 1019.4113,-115.196 1047.4581,-111.0024 1079.0605,-103.1114 1100.2004,-97.364"/>
<polygon fill="#ff0000" stroke="#ff0000" stroke-width=".2874" points="1101.249,-100.7054 1109.9516,-94.6626 1099.3801,-93.9595 1101.249,-100.7054"/>
</g>
</g>
</svg>
