<?xml version="1.0" encoding="UTF-8" standalone="no"?>
<!DOCTYPE svg PUBLIC "-//W3C//DTD SVG 1.1//EN"
 "http://www.w3.org/Graphics/SVG/1.1/DTD/svg11.dtd">
<!-- Generated by graphviz version 2.40.1 (20161225.0304)
 -->
<!-- Title: %3 Pages: 1 -->
<svg width="3031pt" height="348pt"
 viewBox="0.00 0.00 3031.21 348.19" xmlns="http://www.w3.org/2000/svg" xmlns:xlink="http://www.w3.org/1999/xlink">
<g id="graph0" class="graph" transform="scale(1 1) rotate(0) translate(4 344.1909)">
<title>%3</title>
<polygon fill="#ffffff" stroke="transparent" points="-4,4 -4,-344.1909 3027.2089,-344.1909 3027.2089,4 -4,4"/>
<!-- group_1_ped_1_location -->
<g id="node1" class="node">
<title>group_1_ped_1_location</title>
<polygon fill="#d3d3d3" stroke="#000000" points="2037.2089,-99.4472 1932.2089,-99.4472 1932.2089,-81.4472 2037.2089,-81.4472 2037.2089,-99.4472"/>
<text text-anchor="middle" x="1984.7089" y="-88.2472" font-family="Times,serif" font-size="9.00" fill="#000000">group_1_ped_1_location</text>
</g>
<!-- 0 -->
<g id="node26" class="node">
<title>0</title>
<ellipse fill="#add8e6" stroke="#000000" cx="426.7089" cy="-14.8492" rx="14.7" ry="14.7"/>
<text text-anchor="middle" x="426.7089" y="-12.6492" font-family="Times,serif" font-size="9.00" fill="#000000">0</text>
</g>
<!-- group_1_ped_1_location&#45;&gt;0 -->
<g id="edge1" class="edge">
<title>group_1_ped_1_location&#45;&gt;0</title>
<path fill="none" stroke="#ff0000" stroke-width=".4262" stroke-dasharray="1,5" d="M1943.2613,-81.4306C1915.9719,-75.8866 1879.3821,-69.1955 1846.7089,-65.6985 1560.7765,-35.0954 617.8992,-18.0592 451.8092,-15.2611"/>
<polygon fill="#ff0000" stroke="#ff0000" stroke-width=".4262" points="451.6652,-11.7583 441.6081,-15.0907 451.5482,-18.7573 451.6652,-11.7583"/>
</g>
<!-- 1 -->
<g id="node27" class="node">
<title>1</title>
<ellipse fill="#add8e6" stroke="#000000" cx="1535.7089" cy="-14.8492" rx="14.7" ry="14.7"/>
<text text-anchor="middle" x="1535.7089" y="-12.6492" font-family="Times,serif" font-size="9.00" fill="#000000">1</text>
</g>
<!-- group_1_ped_1_location&#45;&gt;1 -->
<g id="edge2" class="edge">
<title>group_1_ped_1_location&#45;&gt;1</title>
<path fill="none" stroke="#00ff00" stroke-width=".1346" stroke-dasharray="1,5" d="M1963.9608,-81.4258C1950.9126,-76.0951 1933.5958,-69.6383 1917.7089,-65.6985 1785.9684,-33.0281 1623.1284,-20.2045 1561.2147,-16.289"/>
<polygon fill="#00ff00" stroke="#00ff00" stroke-width=".1346" points="1561.053,-12.7728 1550.8588,-15.6588 1560.6277,-19.7599 1561.053,-12.7728"/>
</g>
<!-- 2 -->
<g id="node28" class="node">
<title>2</title>
<ellipse fill="#add8e6" stroke="#000000" cx="2443.7089" cy="-14.8492" rx="14.7" ry="14.7"/>
<text text-anchor="middle" x="2443.7089" y="-12.6492" font-family="Times,serif" font-size="9.00" fill="#000000">2</text>
</g>
<!-- group_1_ped_1_location&#45;&gt;2 -->
<g id="edge3" class="edge">
<title>group_1_ped_1_location&#45;&gt;2</title>
<path fill="none" stroke="#ff0000" stroke-width=".1531" d="M2018.1917,-81.3579C2037.7694,-76.2657 2063.0194,-70.0786 2085.7089,-65.6985 2209.629,-41.7765 2359.705,-24.0671 2418.4294,-17.566"/>
<polygon fill="#ff0000" stroke="#ff0000" stroke-width=".1531" points="2419.0546,-21.0185 2428.6138,-16.45 2418.292,-14.0602 2419.0546,-21.0185"/>
</g>
<!-- group_1_ped_1_age -->
<g id="node2" class="node">
<title>group_1_ped_1_age</title>
<polygon fill="#d3d3d3" stroke="#000000" points="2297.2089,-340.1909 2208.2089,-340.1909 2208.2089,-322.1909 2297.2089,-322.1909 2297.2089,-340.1909"/>
<text text-anchor="middle" x="2252.7089" y="-328.9909" font-family="Times,serif" font-size="9.00" fill="#000000">group_1_ped_1_age</text>
</g>
<!-- group_1_ped_1_age&#45;&gt;0 -->
<g id="edge4" class="edge">
<title>group_1_ped_1_age&#45;&gt;0</title>
<path fill="none" stroke="#ff0000" stroke-width=".4419" stroke-dasharray="1,5" d="M2208.0365,-331.0048C1933.9995,-329.7519 485.718,-321.4921 291.7089,-286.1909 178.656,-265.6202 127.6869,-283.2018 47.7089,-200.6934 5.1228,-156.7599 -19.7787,-111.5732 20.7089,-65.6985 46.0394,-36.9976 316.5521,-20.5787 401.4023,-16.1069"/>
<polygon fill="#ff0000" stroke="#ff0000" stroke-width=".4419" points="401.6474,-19.599 411.4535,-15.5876 401.2863,-12.6083 401.6474,-19.599"/>
</g>
<!-- group_1_ped_1_age&#45;&gt;1 -->
<g id="edge5" class="edge">
<title>group_1_ped_1_age&#45;&gt;1</title>
<path fill="none" stroke="#ff0000" stroke-width=".3943" stroke-dasharray="1,5" d="M2208.0639,-330.4733C1981.9134,-326.3827 969.9829,-302.4561 879.7089,-200.6934 856.9969,-175.091 893.5596,-71.7807 900.7089,-65.6985 947.8897,-25.5598 1398.8331,-16.731 1510.6942,-15.1522"/>
<polygon fill="#ff0000" stroke="#ff0000" stroke-width=".3943" points="1510.7615,-18.6517 1520.7136,-15.0177 1510.6675,-11.6523 1510.7615,-18.6517"/>
</g>
<!-- 4763 -->
<g id="node30" class="node">
<title>4763</title>
<ellipse fill="#ffffff" stroke="#000000" cx="2278.7089" cy="-261.4422" rx="25" ry="25"/>
<text text-anchor="middle" x="2278.7089" y="-259.2422" font-family="Times,serif" font-size="9.00" fill="#000000">4763</text>
</g>
<!-- group_1_ped_1_age&#45;&gt;4763 -->
<g id="edge96" class="edge">
<title>group_1_ped_1_age&#45;&gt;4763</title>
<path fill="none" stroke="#00ff00" stroke-width=".1274" d="M2256.1079,-322.0725C2258.7783,-314.9088 2262.6699,-304.4691 2266.4738,-294.2646"/>
<polygon fill="#00ff00" stroke="#00ff00" stroke-width=".1274" points="2269.8379,-295.2602 2270.0513,-284.6675 2263.2788,-292.8151 2269.8379,-295.2602"/>
</g>
<!-- 3357 -->
<g id="node32" class="node">
<title>3357</title>
<ellipse fill="#ffffff" stroke="#000000" cx="2470.7089" cy="-90.4472" rx="25" ry="25"/>
<text text-anchor="middle" x="2470.7089" y="-88.2472" font-family="Times,serif" font-size="9.00" fill="#000000">3357</text>
</g>
<!-- group_1_ped_1_age&#45;&gt;3357 -->
<g id="edge67" class="edge">
<title>group_1_ped_1_age&#45;&gt;3357</title>
<path fill="none" stroke="#ff0000" stroke-width=".144" stroke-dasharray="1,5" d="M2248.5167,-322.0102C2235.9947,-293.06 2202.2831,-202.5683 2244.7089,-151.196 2298.6035,-85.9363 2353.0412,-146.4185 2431.7089,-115.196 2435.0141,-113.8842 2438.3444,-112.2843 2441.5919,-110.5354"/>
<polygon fill="#ff0000" stroke="#ff0000" stroke-width=".144" points="2443.5945,-113.4179 2450.4357,-105.3279 2440.0427,-107.386 2443.5945,-113.4179"/>
</g>
<!-- 3796 -->
<g id="node37" class="node">
<title>3796</title>
<ellipse fill="#ffffff" stroke="#000000" cx="2278.7089" cy="-175.9447" rx="25" ry="25"/>
<text text-anchor="middle" x="2278.7089" y="-173.7447" font-family="Times,serif" font-size="9.00" fill="#000000">3796</text>
</g>
<!-- group_1_ped_1_age&#45;&gt;3796 -->
<g id="edge71" class="edge">
<title>group_1_ped_1_age&#45;&gt;3796</title>
<path fill="none" stroke="#ff0000" stroke-width=".2166" d="M2273.1837,-322.0481C2287.1306,-314.5955 2304.4983,-302.612 2312.7089,-286.1909 2325.9149,-259.779 2312.6339,-227.2242 2298.9937,-204.3615"/>
<polygon fill="#ff0000" stroke="#ff0000" stroke-width=".2166" points="2301.8956,-202.4016 2293.6038,-195.8063 2295.973,-206.1329 2301.8956,-202.4016"/>
</g>
<!-- 2810 -->
<g id="node48" class="node">
<title>2810</title>
<ellipse fill="#ffffff" stroke="#000000" cx="2810.7089" cy="-175.9447" rx="25" ry="25"/>
<text text-anchor="middle" x="2810.7089" y="-173.7447" font-family="Times,serif" font-size="9.00" fill="#000000">2810</text>
</g>
<!-- group_1_ped_1_age&#45;&gt;2810 -->
<g id="edge76" class="edge">
<title>group_1_ped_1_age&#45;&gt;2810</title>
<path fill="none" stroke="#ff0000" stroke-width=".4489" d="M2297.3233,-330.5412C2419.9762,-328.3331 2755.5768,-319.2964 2791.7089,-286.1909 2812.1331,-267.4776 2815.6969,-235.3961 2814.8477,-210.6505"/>
<polygon fill="#ff0000" stroke="#ff0000" stroke-width=".4489" points="2818.3349,-210.3304 2814.2498,-200.5548 2811.3472,-210.7442 2818.3349,-210.3304"/>
</g>
<!-- group_1_ped_2_location -->
<g id="node3" class="node">
<title>group_1_ped_2_location</title>
<polygon fill="#d3d3d3" stroke="#000000" points="672.2089,-270.4422 567.2089,-270.4422 567.2089,-252.4422 672.2089,-252.4422 672.2089,-270.4422"/>
<text text-anchor="middle" x="619.7089" y="-259.2422" font-family="Times,serif" font-size="9.00" fill="#000000">group_1_ped_2_location</text>
</g>
<!-- group_1_ped_2_location&#45;&gt;0 -->
<g id="edge6" class="edge">
<title>group_1_ped_2_location&#45;&gt;0</title>
<path fill="none" stroke="#ff0000" stroke-width=".3952" d="M566.9561,-255.8586C454.6367,-243.7201 201.038,-214.8822 188.7089,-200.6934 165.3838,-173.8501 206.3683,-70.8784 211.7089,-65.6985 238.7706,-39.4512 351.0433,-23.5308 401.7077,-17.5541"/>
<polygon fill="#ff0000" stroke="#ff0000" stroke-width=".3952" points="402.2697,-21.0127 411.8072,-16.3989 401.4742,-14.058 402.2697,-21.0127"/>
</g>
<!-- group_1_ped_2_location&#45;&gt;2 -->
<g id="edge46" class="edge">
<title>group_1_ped_2_location&#45;&gt;2</title>
<path fill="none" stroke="#ff0000" stroke-width=".1979" stroke-dasharray="1,5" d="M672.2513,-260.635C874.3671,-257.2462 1601.719,-242.3612 1828.7089,-200.6934 1899.0043,-187.7895 1911.8063,-166.0814 1981.7089,-151.196 2128.6034,-119.9155 2186.7355,-188.697 2317.7089,-115.196 2341.8949,-101.623 2334.8583,-83.9861 2355.7089,-65.6985 2375.3869,-48.4393 2401.8073,-34.1085 2420.5491,-25.1073"/>
<polygon fill="#ff0000" stroke="#ff0000" stroke-width=".1979" points="2422.2403,-28.1807 2429.8264,-20.7846 2419.2838,-21.8357 2422.2403,-28.1807"/>
</g>
<!-- 2597 -->
<g id="node33" class="node">
<title>2597</title>
<ellipse fill="#ffffff" stroke="#000000" cx="950.7089" cy="-90.4472" rx="25" ry="25"/>
<text text-anchor="middle" x="950.7089" y="-88.2472" font-family="Times,serif" font-size="9.00" fill="#000000">2597</text>
</g>
<!-- group_1_ped_2_location&#45;&gt;2597 -->
<g id="edge56" class="edge">
<title>group_1_ped_2_location&#45;&gt;2597</title>
<path fill="none" stroke="#ff0000" stroke-width=".4763" d="M672.5378,-256.4586C769.222,-246.8021 966.6063,-224.3971 986.7089,-200.6934 1006.6585,-177.1702 989.8424,-142.3233 973.1176,-118.1275"/>
<polygon fill="#ff0000" stroke="#ff0000" stroke-width=".4763" points="975.7342,-115.774 967.0282,-109.7359 970.0686,-119.8852 975.7342,-115.774"/>
</g>
<!-- 2010 -->
<g id="node40" class="node">
<title>2010</title>
<ellipse fill="#ffffff" stroke="#000000" cx="344.7089" cy="-175.9447" rx="25" ry="25"/>
<text text-anchor="middle" x="344.7089" y="-173.7447" font-family="Times,serif" font-size="9.00" fill="#000000">2010</text>
</g>
<!-- group_1_ped_2_location&#45;&gt;2010 -->
<g id="edge47" class="edge">
<title>group_1_ped_2_location&#45;&gt;2010</title>
<path fill="none" stroke="#00ff00" stroke-width=".2885" stroke-dasharray="1,5" d="M567.1521,-254.4178C516.7038,-246.2735 439.2979,-230.0436 377.7089,-200.6934 375.9149,-199.8385 374.1221,-198.8781 372.3513,-197.8452"/>
<polygon fill="#00ff00" stroke="#00ff00" stroke-width=".2885" points="374.0599,-194.7804 363.777,-192.2283 370.224,-200.6359 374.0599,-194.7804"/>
</g>
<!-- group_1_ped_2_age -->
<g id="node4" class="node">
<title>group_1_ped_2_age</title>
<polygon fill="#d3d3d3" stroke="#000000" points="977.2089,-184.9447 888.2089,-184.9447 888.2089,-166.9447 977.2089,-166.9447 977.2089,-184.9447"/>
<text text-anchor="middle" x="932.7089" y="-173.7447" font-family="Times,serif" font-size="9.00" fill="#000000">group_1_ped_2_age</text>
</g>
<!-- group_1_ped_2_age&#45;&gt;0 -->
<g id="edge7" class="edge">
<title>group_1_ped_2_age&#45;&gt;0</title>
<path fill="none" stroke="#00ff00" stroke-width=".4876" d="M888.0005,-174.5993C788.8248,-170.8657 554.0104,-157.6687 488.7089,-115.196 461.1938,-97.2999 443.8291,-62.4774 434.6904,-38.9389"/>
<polygon fill="#00ff00" stroke="#00ff00" stroke-width=".4876" points="437.8936,-37.5077 431.1674,-29.3218 431.3207,-39.9156 437.8936,-37.5077"/>
</g>
<!-- group_1_ped_2_age&#45;&gt;1 -->
<g id="edge8" class="edge">
<title>group_1_ped_2_age&#45;&gt;1</title>
<path fill="none" stroke="#00ff00" stroke-width=".8895" stroke-dasharray="1,5" d="M927.1634,-166.8242C915.2549,-145.9474 890.3698,-94.2899 916.7089,-65.6985 957.5429,-21.3725 1399.1656,-15.686 1510.3935,-14.9565"/>
<polygon fill="#00ff00" stroke="#00ff00" stroke-width=".8895" points="1510.675,-18.4551 1520.6547,-14.8976 1510.6347,-11.4552 1510.675,-18.4551"/>
</g>
<!-- group_1_ped_2_age&#45;&gt;2597 -->
<g id="edge82" class="edge">
<title>group_1_ped_2_age&#45;&gt;2597</title>
<path fill="none" stroke="#ff0000" stroke-width=".2574" d="M934.6352,-166.795C936.7427,-156.7847 940.2482,-140.1343 943.4485,-124.9331"/>
<polygon fill="#ff0000" stroke="#ff0000" stroke-width=".2574" points="946.9591,-125.2467 945.5945,-114.7401 940.1093,-123.8045 946.9591,-125.2467"/>
</g>
<!-- group_1_ped_3_location -->
<g id="node5" class="node">
<title>group_1_ped_3_location</title>
<polygon fill="#d3d3d3" stroke="#000000" points="302.2089,-184.9447 197.2089,-184.9447 197.2089,-166.9447 302.2089,-166.9447 302.2089,-184.9447"/>
<text text-anchor="middle" x="249.7089" y="-173.7447" font-family="Times,serif" font-size="9.00" fill="#000000">group_1_ped_3_location</text>
</g>
<!-- group_1_ped_3_location&#45;&gt;0 -->
<g id="edge9" class="edge">
<title>group_1_ped_3_location&#45;&gt;0</title>
<path fill="none" stroke="#00ff00" stroke-width=".2674" stroke-dasharray="1,5" d="M243.3112,-166.864C229.8283,-146.5118 201.6425,-96.6114 225.7089,-65.6985 247.2941,-37.9726 352.8599,-22.9617 401.7591,-17.3976"/>
<polygon fill="#00ff00" stroke="#00ff00" stroke-width=".2674" points="402.2611,-20.8637 411.8207,-16.2959 401.4991,-13.9053 402.2611,-20.8637"/>
</g>
<!-- group_1_ped_3_location&#45;&gt;2 -->
<g id="edge10" class="edge">
<title>group_1_ped_3_location&#45;&gt;2</title>
<path fill="none" stroke="#ff0000" stroke-width=".1881" stroke-dasharray="1,5" d="M267.0545,-166.9115C278.9791,-161.207 295.3705,-154.3403 310.7089,-151.196 414.0238,-130.0168 2116.2,-165.8381 2208.7089,-115.196 2231.901,-102.4999 2220.1088,-80.9464 2241.7089,-65.6985 2270.3512,-45.4793 2371.4864,-26.7179 2418.87,-18.8051"/>
<polygon fill="#ff0000" stroke="#ff0000" stroke-width=".1881" points="2419.6037,-22.2316 2428.9047,-17.158 2418.4698,-15.3241 2419.6037,-22.2316"/>
</g>
<!-- 4474 -->
<g id="node44" class="node">
<title>4474</title>
<ellipse fill="#ffffff" stroke="#000000" cx="259.7089" cy="-90.4472" rx="25" ry="25"/>
<text text-anchor="middle" x="259.7089" y="-88.2472" font-family="Times,serif" font-size="9.00" fill="#000000">4474</text>
</g>
<!-- group_1_ped_3_location&#45;&gt;4474 -->
<g id="edge86" class="edge">
<title>group_1_ped_3_location&#45;&gt;4474</title>
<path fill="none" stroke="#00ff00" stroke-width=".1456" d="M250.7791,-166.795C251.9417,-156.8547 253.8702,-140.3668 255.638,-125.2522"/>
<polygon fill="#00ff00" stroke="#00ff00" stroke-width=".1456" points="259.1394,-125.4438 256.8249,-115.1049 252.1868,-124.6306 259.1394,-125.4438"/>
</g>
<!-- group_1_ped_3_age -->
<g id="node6" class="node">
<title>group_1_ped_3_age</title>
<polygon fill="#d3d3d3" stroke="#000000" points="793.2089,-99.4472 704.2089,-99.4472 704.2089,-81.4472 793.2089,-81.4472 793.2089,-99.4472"/>
<text text-anchor="middle" x="748.7089" y="-88.2472" font-family="Times,serif" font-size="9.00" fill="#000000">group_1_ped_3_age</text>
</g>
<!-- group_1_ped_3_age&#45;&gt;0 -->
<g id="edge11" class="edge">
<title>group_1_ped_3_age&#45;&gt;0</title>
<path fill="none" stroke="#00ff00" stroke-width=".4185" stroke-dasharray="1,5" d="M731.9615,-81.3065C721.7448,-76.0677 708.2738,-69.749 695.7089,-65.6985 608.4174,-37.5588 499.8805,-22.9496 451.7253,-17.4614"/>
<polygon fill="#00ff00" stroke="#00ff00" stroke-width=".4185" points="451.9341,-13.9632 441.6099,-16.3428 451.1646,-20.9208 451.9341,-13.9632"/>
</g>
<!-- group_1_ped_3_age&#45;&gt;1 -->
<g id="edge12" class="edge">
<title>group_1_ped_3_age&#45;&gt;1</title>
<path fill="none" stroke="#ff0000" stroke-width=".7196" stroke-dasharray="1,5" d="M766.0139,-81.4119C777.5107,-75.8602 793.1203,-69.1675 807.7089,-65.6985 945.6352,-32.9007 1398.7768,-18.5861 1510.5963,-15.5037"/>
<polygon fill="#ff0000" stroke="#ff0000" stroke-width=".7196" points="1510.7056,-19.0021 1520.6072,-15.2329 1510.5162,-12.0047 1510.7056,-19.0021"/>
</g>
<!-- group_1_ped_4_location -->
<g id="node7" class="node">
<title>group_1_ped_4_location</title>
<polygon fill="#d3d3d3" stroke="#000000" points="1705.2089,-270.4422 1600.2089,-270.4422 1600.2089,-252.4422 1705.2089,-252.4422 1705.2089,-270.4422"/>
<text text-anchor="middle" x="1652.7089" y="-259.2422" font-family="Times,serif" font-size="9.00" fill="#000000">group_1_ped_4_location</text>
</g>
<!-- group_1_ped_4_location&#45;&gt;0 -->
<g id="edge13" class="edge">
<title>group_1_ped_4_location&#45;&gt;0</title>
<path fill="none" stroke="#00ff00" stroke-width=".4311" stroke-dasharray="1,5" d="M1600.1118,-261.1035C1386.3598,-259.4022 589.3648,-249.7928 488.7089,-200.6934 462.518,-187.9177 465.1118,-172.938 445.7089,-151.196 431.257,-135.0017 420.5775,-135.4246 412.7089,-115.196 402.9442,-90.0928 409.8703,-59.1175 417.0135,-38.2768"/>
<polygon fill="#00ff00" stroke="#00ff00" stroke-width=".4311" points="420.3846,-39.2519 420.5731,-28.6587 413.8197,-36.8222 420.3846,-39.2519"/>
</g>
<!-- group_1_ped_4_location&#45;&gt;1 -->
<g id="edge14" class="edge">
<title>group_1_ped_4_location&#45;&gt;1</title>
<path fill="none" stroke="#ff0000" stroke-width=".2933" d="M1609.8661,-252.439C1581.8431,-244.0993 1547.2829,-228.6082 1529.7089,-200.6934 1497.9533,-150.2524 1515.1265,-75.8957 1527.168,-38.3615"/>
<polygon fill="#ff0000" stroke="#ff0000" stroke-width=".2933" points="1530.5127,-39.3959 1530.3832,-28.8019 1523.8779,-37.1643 1530.5127,-39.3959"/>
</g>
<!-- group_1_ped_4_location&#45;&gt;2 -->
<g id="edge15" class="edge">
<title>group_1_ped_4_location&#45;&gt;2</title>
<path fill="none" stroke="#00ff00" stroke-width=".2227" d="M1705.3013,-255.9702C1771.124,-248.1642 1886.7528,-231.2729 1981.7089,-200.6934 2030.8172,-184.8787 2037.2239,-165.7893 2086.7089,-151.196 2202.4043,-117.077 2251.3048,-175.6056 2355.7089,-115.196 2379.7143,-101.3061 2375.5079,-86.6247 2393.7089,-65.6985 2403.7104,-54.1994 2415.6539,-42.0022 2425.3594,-32.4368"/>
<polygon fill="#00ff00" stroke="#00ff00" stroke-width=".2227" points="2427.8668,-34.8805 2432.5834,-25.3935 2422.98,-29.8685 2427.8668,-34.8805"/>
</g>
<!-- 3484 -->
<g id="node31" class="node">
<title>3484</title>
<ellipse fill="#ffffff" stroke="#000000" cx="1794.7089" cy="-175.9447" rx="25" ry="25"/>
<text text-anchor="middle" x="1794.7089" y="-173.7447" font-family="Times,serif" font-size="9.00" fill="#000000">3484</text>
</g>
<!-- group_1_ped_4_location&#45;&gt;3484 -->
<g id="edge66" class="edge">
<title>group_1_ped_4_location&#45;&gt;3484</title>
<path fill="none" stroke="#ff0000" stroke-width=".2615" d="M1667.9054,-252.2924C1690.8586,-238.4724 1734.8319,-211.9963 1764.4718,-194.1503"/>
<polygon fill="#ff0000" stroke="#ff0000" stroke-width=".2615" points="1766.4094,-197.0692 1773.1711,-188.9125 1762.7987,-191.0722 1766.4094,-197.0692"/>
</g>
<!-- 3518 -->
<g id="node35" class="node">
<title>3518</title>
<ellipse fill="#ffffff" stroke="#000000" cx="411.7089" cy="-175.9447" rx="25" ry="25"/>
<text text-anchor="middle" x="411.7089" y="-173.7447" font-family="Times,serif" font-size="9.00" fill="#000000">3518</text>
</g>
<!-- group_1_ped_4_location&#45;&gt;3518 -->
<g id="edge62" class="edge">
<title>group_1_ped_4_location&#45;&gt;3518</title>
<path fill="none" stroke="#00ff00" stroke-width=".3339" d="M1599.8478,-260.3565C1382.1317,-255.6701 561.0936,-235.8068 450.7089,-200.6934 447.1364,-199.557 443.5681,-198.0103 440.1215,-196.2411"/>
<polygon fill="#00ff00" stroke="#00ff00" stroke-width=".3339" points="441.7709,-193.1517 431.3637,-191.167 438.2617,-199.2086 441.7709,-193.1517"/>
</g>
<!-- group_1_ped_4_location&#45;&gt;3796 -->
<g id="edge85" class="edge">
<title>group_1_ped_4_location&#45;&gt;3796</title>
<path fill="none" stroke="#00ff00" stroke-width=".4816" stroke-dasharray="1,5" d="M1705.3379,-257.0703C1798.9645,-248.8875 2000.4407,-229.4474 2168.7089,-200.6934 2194.2445,-196.3299 2222.7761,-189.8637 2244.3814,-184.6351"/>
<polygon fill="#00ff00" stroke="#00ff00" stroke-width=".4816" points="2245.5086,-187.9625 2254.3878,-182.1824 2243.8421,-181.1637 2245.5086,-187.9625"/>
</g>
<!-- group_1_ped_4_age -->
<g id="node8" class="node">
<title>group_1_ped_4_age</title>
<polygon fill="#d3d3d3" stroke="#000000" points="2179.2089,-270.4422 2090.2089,-270.4422 2090.2089,-252.4422 2179.2089,-252.4422 2179.2089,-270.4422"/>
<text text-anchor="middle" x="2134.7089" y="-259.2422" font-family="Times,serif" font-size="9.00" fill="#000000">group_1_ped_4_age</text>
</g>
<!-- group_1_ped_4_age&#45;&gt;2 -->
<g id="edge16" class="edge">
<title>group_1_ped_4_age&#45;&gt;2</title>
<path fill="none" stroke="#00ff00" stroke-width=".3085" d="M2126.7295,-252.231C2109.8484,-231.6114 2074.1662,-181.1995 2100.7089,-151.196 2144.1753,-102.0621 2340.1428,-153.0659 2393.7089,-115.196 2418.931,-97.3645 2432.0966,-63.0794 2438.461,-39.5922"/>
<polygon fill="#00ff00" stroke="#00ff00" stroke-width=".3085" points="2441.9145,-40.2071 2440.9256,-29.6585 2435.1205,-38.5214 2441.9145,-40.2071"/>
</g>
<!-- group_1_ped_4_age&#45;&gt;3357 -->
<g id="edge98" class="edge">
<title>group_1_ped_4_age&#45;&gt;3357</title>
<path fill="none" stroke="#00ff00" stroke-width=".4557" stroke-dasharray="1,5" d="M2139.8442,-252.2857C2153.5355,-228.204 2191.2578,-164.0651 2211.7089,-151.196 2295.566,-98.4277 2339.1163,-150.4535 2431.7089,-115.196 2435.0321,-113.9306 2438.3742,-112.361 2441.6289,-110.6305"/>
<polygon fill="#00ff00" stroke="#00ff00" stroke-width=".4557" points="2443.6209,-113.5201 2450.482,-105.4469 2440.0839,-107.4793 2443.6209,-113.5201"/>
</g>
<!-- 4855 -->
<g id="node46" class="node">
<title>4855</title>
<ellipse fill="#ffffff" stroke="#000000" cx="2134.7089" cy="-175.9447" rx="25" ry="25"/>
<text text-anchor="middle" x="2134.7089" y="-173.7447" font-family="Times,serif" font-size="9.00" fill="#000000">4855</text>
</g>
<!-- group_1_ped_4_age&#45;&gt;4855 -->
<g id="edge100" class="edge">
<title>group_1_ped_4_age&#45;&gt;4855</title>
<path fill="none" stroke="#00ff00" stroke-width=".5234" d="M2134.7089,-252.2924C2134.7089,-242.4222 2134.7089,-226.0962 2134.7089,-211.0692"/>
<polygon fill="#00ff00" stroke="#00ff00" stroke-width=".5234" points="2138.209,-210.9686 2134.7089,-200.9687 2131.209,-210.9687 2138.209,-210.9686"/>
</g>
<!-- group_2_ped_1_location -->
<g id="node9" class="node">
<title>group_2_ped_1_location</title>
<polygon fill="#d3d3d3" stroke="#000000" points="1286.2089,-184.9447 1181.2089,-184.9447 1181.2089,-166.9447 1286.2089,-166.9447 1286.2089,-184.9447"/>
<text text-anchor="middle" x="1233.7089" y="-173.7447" font-family="Times,serif" font-size="9.00" fill="#000000">group_2_ped_1_location</text>
</g>
<!-- group_2_ped_1_location&#45;&gt;1 -->
<g id="edge17" class="edge">
<title>group_2_ped_1_location&#45;&gt;1</title>
<path fill="none" stroke="#ff0000" stroke-width=".2951" d="M1246.2688,-166.783C1261.3801,-155.4781 1287.1556,-135.2789 1306.7089,-115.196 1326.2465,-95.1291 1322.3202,-81.1051 1345.7089,-65.6985 1397.6172,-31.5053 1471.7708,-20.2293 1510.2891,-16.5677"/>
<polygon fill="#ff0000" stroke="#ff0000" stroke-width=".2951" points="1510.9309,-20.0258 1520.5984,-15.6912 1510.3378,-13.051 1510.9309,-20.0258"/>
</g>
<!-- 3567 -->
<g id="node45" class="node">
<title>3567</title>
<ellipse fill="#ffffff" stroke="#000000" cx="555.7089" cy="-90.4472" rx="25" ry="25"/>
<text text-anchor="middle" x="555.7089" y="-88.2472" font-family="Times,serif" font-size="9.00" fill="#000000">3567</text>
</g>
<!-- group_2_ped_1_location&#45;&gt;3567 -->
<g id="edge70" class="edge">
<title>group_2_ped_1_location&#45;&gt;3567</title>
<path fill="none" stroke="#00ff00" stroke-width=".6867" d="M1208.0152,-166.8706C1191.331,-161.3773 1168.993,-154.7637 1148.7089,-151.196 905.6978,-108.4526 829.2964,-191.6818 594.7089,-115.196 591.1446,-114.0339 587.5816,-112.4708 584.1381,-110.6921"/>
<polygon fill="#00ff00" stroke="#00ff00" stroke-width=".6867" points="585.7888,-107.6034 575.3838,-105.607 582.2729,-113.6563 585.7888,-107.6034"/>
</g>
<!-- group_2_ped_1_age -->
<g id="node10" class="node">
<title>group_2_ped_1_age</title>
<polygon fill="#d3d3d3" stroke="#000000" points="1188.2089,-99.4472 1099.2089,-99.4472 1099.2089,-81.4472 1188.2089,-81.4472 1188.2089,-99.4472"/>
<text text-anchor="middle" x="1143.7089" y="-88.2472" font-family="Times,serif" font-size="9.00" fill="#000000">group_2_ped_1_age</text>
</g>
<!-- group_2_ped_1_age&#45;&gt;0 -->
<g id="edge18" class="edge">
<title>group_2_ped_1_age&#45;&gt;0</title>
<path fill="none" stroke="#ff0000" stroke-width=".6401" stroke-dasharray="1,5" d="M1128.0387,-81.2958C1117.7754,-75.7716 1103.8711,-69.1527 1090.7089,-65.6985 966.3668,-33.0666 557.0009,-18.7571 451.6233,-15.5615"/>
<polygon fill="#ff0000" stroke="#ff0000" stroke-width=".6401" points="451.7035,-12.0624 441.6039,-15.2636 451.4954,-19.0593 451.7035,-12.0624"/>
</g>
<!-- group_2_ped_1_age&#45;&gt;1 -->
<g id="edge19" class="edge">
<title>group_2_ped_1_age&#45;&gt;1</title>
<path fill="none" stroke="#00ff00" stroke-width=".4922" d="M1160.261,-81.3883C1170.7135,-76.0435 1184.6627,-69.585 1197.7089,-65.6985 1311.2731,-31.8673 1453.3252,-19.8757 1510.3247,-16.2372"/>
<polygon fill="#00ff00" stroke="#00ff00" stroke-width=".4922" points="1510.7871,-19.7156 1520.5569,-15.6168 1510.3634,-12.7285 1510.7871,-19.7156"/>
</g>
<!-- group_2_ped_1_age&#45;&gt;2 -->
<g id="edge20" class="edge">
<title>group_2_ped_1_age&#45;&gt;2</title>
<path fill="none" stroke="#ff0000" stroke-width=".1223" d="M1159.1904,-81.3865C1169.6822,-75.7482 1184.07,-68.9678 1197.7089,-65.6985 1320.4211,-36.2839 2253.0565,-18.2715 2418.6188,-15.2895"/>
<polygon fill="#ff0000" stroke="#ff0000" stroke-width=".1223" points="2418.8612,-18.7858 2428.7971,-15.1078 2418.7362,-11.7869 2418.8612,-18.7858"/>
</g>
<!-- group_2_ped_2_location -->
<g id="node11" class="node">
<title>group_2_ped_2_location</title>
<polygon fill="#d3d3d3" stroke="#000000" points="2550.2089,-270.4422 2445.2089,-270.4422 2445.2089,-252.4422 2550.2089,-252.4422 2550.2089,-270.4422"/>
<text text-anchor="middle" x="2497.7089" y="-259.2422" font-family="Times,serif" font-size="9.00" fill="#000000">group_2_ped_2_location</text>
</g>
<!-- group_2_ped_2_location&#45;&gt;0 -->
<g id="edge21" class="edge">
<title>group_2_ped_2_location&#45;&gt;0</title>
<path fill="none" stroke="#ff0000" stroke-width=".7084" d="M2444.8444,-252.7791C2407.933,-247.1213 2357.4545,-240.1619 2312.7089,-236.6934 2129.2159,-222.4697 837.0205,-237.5679 656.7089,-200.6934 606.739,-190.4744 475.7186,-154.905 443.7089,-115.196 426.6506,-94.0346 423.9544,-62.0724 424.5195,-39.9303"/>
<polygon fill="#ff0000" stroke="#ff0000" stroke-width=".7084" points="428.0154,-40.0995 425.0103,-29.9398 421.0238,-39.756 428.0154,-40.0995"/>
</g>
<!-- group_2_ped_2_location&#45;&gt;2 -->
<g id="edge22" class="edge">
<title>group_2_ped_2_location&#45;&gt;2</title>
<path fill="none" stroke="#ff0000" stroke-width=".9369" d="M2544.3887,-252.4275C2577.1415,-243.9776 2620.0369,-228.3586 2648.7089,-200.6934 2693.563,-157.4144 2726.0106,-114.0756 2686.7089,-65.6985 2659.4466,-32.1409 2525.6709,-19.9507 2469.0728,-16.2472"/>
<polygon fill="#ff0000" stroke="#ff0000" stroke-width=".9369" points="2469.0332,-12.7381 2458.8367,-15.6158 2468.6022,-19.7249 2469.0332,-12.7381"/>
</g>
<!-- group_2_ped_2_location&#45;&gt;3484 -->
<g id="edge60" class="edge">
<title>group_2_ped_2_location&#45;&gt;3484</title>
<path fill="none" stroke="#ff0000" stroke-width=".331" d="M2445.1083,-254.1741C2408.1002,-249.1172 2357.4,-242.303 2312.7089,-236.6934 2130.9176,-213.8754 1912.8849,-189.1758 1829.4767,-179.8246"/>
<polygon fill="#ff0000" stroke="#ff0000" stroke-width=".331" points="1829.8542,-176.3451 1819.5267,-178.7104 1829.0751,-183.3016 1829.8542,-176.3451"/>
</g>
<!-- 4571 -->
<g id="node41" class="node">
<title>4571</title>
<ellipse fill="#ffffff" stroke="#000000" cx="2614.7089" cy="-175.9447" rx="25" ry="25"/>
<text text-anchor="middle" x="2614.7089" y="-173.7447" font-family="Times,serif" font-size="9.00" fill="#000000">4571</text>
</g>
<!-- group_2_ped_2_location&#45;&gt;4571 -->
<g id="edge88" class="edge">
<title>group_2_ped_2_location&#45;&gt;4571</title>
<path fill="none" stroke="#00ff00" stroke-width=".1556" d="M2510.5671,-252.2483C2527.0915,-240.4089 2556.639,-219.1573 2581.7089,-200.6934 2583.309,-199.5149 2584.95,-198.3012 2586.6042,-197.0735"/>
<polygon fill="#00ff00" stroke="#00ff00" stroke-width=".1556" points="2588.9323,-199.7035 2594.857,-190.92 2584.748,-194.0917 2588.9323,-199.7035"/>
</g>
<!-- group_2_ped_2_location&#45;&gt;3567 -->
<g id="edge99" class="edge">
<title>group_2_ped_2_location&#45;&gt;3567</title>
<path fill="none" stroke="#00ff00" stroke-width=".2038" d="M2444.8406,-252.8269C2407.9276,-247.1908 2357.4485,-240.2376 2312.7089,-236.6934 1995.1588,-211.538 1194.4811,-249.5744 879.7089,-200.6934 745.2409,-179.8119 706.007,-178.8046 585.7089,-115.196 584.5674,-114.5924 583.4289,-113.9408 582.2996,-113.2519"/>
<polygon fill="#00ff00" stroke="#00ff00" stroke-width=".2038" points="584.1226,-110.2563 573.9165,-107.4128 580.1217,-116.0003 584.1226,-110.2563"/>
</g>
<!-- group_2_ped_2_location&#45;&gt;2810 -->
<g id="edge69" class="edge">
<title>group_2_ped_2_location&#45;&gt;2810</title>
<path fill="none" stroke="#ff0000" stroke-width=".3802" d="M2530.9091,-252.3734C2590.8467,-236.0011 2716.4955,-201.6796 2776.8854,-185.1838"/>
<polygon fill="#ff0000" stroke="#ff0000" stroke-width=".3802" points="2777.9614,-188.5181 2786.6857,-182.5067 2776.1168,-181.7655 2777.9614,-188.5181"/>
</g>
<!-- group_2_ped_2_age -->
<g id="node12" class="node">
<title>group_2_ped_2_age</title>
<polygon fill="#d3d3d3" stroke="#000000" points="3023.2089,-340.1909 2934.2089,-340.1909 2934.2089,-322.1909 3023.2089,-322.1909 3023.2089,-340.1909"/>
<text text-anchor="middle" x="2978.7089" y="-328.9909" font-family="Times,serif" font-size="9.00" fill="#000000">group_2_ped_2_age</text>
</g>
<!-- group_2_ped_3_location -->
<g id="node13" class="node">
<title>group_2_ped_3_location</title>
<polygon fill="#d3d3d3" stroke="#000000" points="2465.2089,-184.9447 2360.2089,-184.9447 2360.2089,-166.9447 2465.2089,-166.9447 2465.2089,-184.9447"/>
<text text-anchor="middle" x="2412.7089" y="-173.7447" font-family="Times,serif" font-size="9.00" fill="#000000">group_2_ped_3_location</text>
</g>
<!-- group_2_ped_3_location&#45;&gt;1 -->
<g id="edge23" class="edge">
<title>group_2_ped_3_location&#45;&gt;1</title>
<path fill="none" stroke="#00ff00" stroke-width=".1589" d="M2391.6562,-166.8315C2378.6402,-161.5353 2361.4652,-155.1473 2345.7089,-151.196 2232.5548,-122.8192 2186.9164,-173.2142 2085.7089,-115.196 2061.4112,-101.267 2071.2696,-79.1583 2046.7089,-65.6985 2003.7043,-42.131 1657.1639,-21.5134 1560.6044,-16.1836"/>
<polygon fill="#00ff00" stroke="#00ff00" stroke-width=".1589" points="1560.762,-12.6871 1550.5859,-15.6362 1560.38,-19.6766 1560.762,-12.6871"/>
</g>
<!-- group_2_ped_3_location&#45;&gt;2 -->
<g id="edge24" class="edge">
<title>group_2_ped_3_location&#45;&gt;2</title>
<path fill="none" stroke="#00ff00" stroke-width=".524" stroke-dasharray="1,5" d="M2438.6654,-166.88C2460.6821,-157.6469 2490.8339,-140.9847 2504.7089,-115.196 2515.132,-95.8231 2514.0383,-85.6212 2504.7089,-65.6985 2496.699,-48.5936 2479.7938,-35.2341 2465.8072,-26.5096"/>
<polygon fill="#00ff00" stroke="#00ff00" stroke-width=".524" points="2467.5594,-23.4798 2457.1603,-21.4529 2464.0257,-29.5224 2467.5594,-23.4798"/>
</g>
<!-- group_2_ped_3_location&#45;&gt;3357 -->
<g id="edge57" class="edge">
<title>group_2_ped_3_location&#45;&gt;3357</title>
<path fill="none" stroke="#ff0000" stroke-width=".3245" stroke-dasharray="1,5" d="M2418.9159,-166.795C2426.5309,-155.5697 2439.8102,-135.9948 2451.0158,-119.4767"/>
<polygon fill="#ff0000" stroke="#ff0000" stroke-width=".3245" points="2453.928,-121.4183 2456.6456,-111.1779 2448.1352,-117.4885 2453.928,-121.4183"/>
</g>
<!-- group_2_ped_3_age -->
<g id="node14" class="node">
<title>group_2_ped_3_age</title>
<polygon fill="#d3d3d3" stroke="#000000" points="2572.2089,-184.9447 2483.2089,-184.9447 2483.2089,-166.9447 2572.2089,-166.9447 2572.2089,-184.9447"/>
<text text-anchor="middle" x="2527.7089" y="-173.7447" font-family="Times,serif" font-size="9.00" fill="#000000">group_2_ped_3_age</text>
</g>
<!-- group_2_ped_3_age&#45;&gt;2 -->
<g id="edge25" class="edge">
<title>group_2_ped_3_age&#45;&gt;2</title>
<path fill="none" stroke="#00ff00" stroke-width=".4357" stroke-dasharray="1,5" d="M2529.7862,-166.8947C2533.8295,-147.0258 2540.7855,-98.7306 2521.7089,-65.6985 2509.7719,-45.029 2485.6562,-31.2867 2467.3818,-23.3569"/>
<polygon fill="#00ff00" stroke="#00ff00" stroke-width=".4357" points="2468.5277,-20.045 2457.9448,-19.5424 2465.9044,-26.5349 2468.5277,-20.045"/>
</g>
<!-- 2923 -->
<g id="node43" class="node">
<title>2923</title>
<ellipse fill="#ffffff" stroke="#000000" cx="2652.7089" cy="-90.4472" rx="25" ry="25"/>
<text text-anchor="middle" x="2652.7089" y="-88.2472" font-family="Times,serif" font-size="9.00" fill="#000000">2923</text>
</g>
<!-- group_2_ped_3_age&#45;&gt;2923 -->
<g id="edge73" class="edge">
<title>group_2_ped_3_age&#45;&gt;2923</title>
<path fill="none" stroke="#00ff00" stroke-width=".3639" stroke-dasharray="1,5" d="M2541.0861,-166.795C2560.6645,-153.4037 2597.6162,-128.1295 2623.6278,-110.3381"/>
<polygon fill="#00ff00" stroke="#00ff00" stroke-width=".3639" points="2625.7108,-113.1538 2631.9888,-104.6193 2621.7589,-107.376 2625.7108,-113.1538"/>
</g>
<!-- group_2_ped_3_age&#45;&gt;3567 -->
<g id="edge90" class="edge">
<title>group_2_ped_3_age&#45;&gt;3567</title>
<path fill="none" stroke="#ff0000" stroke-width=".6548" d="M2512.558,-166.7882C2502.2791,-161.1095 2488.1619,-154.32 2474.7089,-151.196 2074.8271,-58.3348 1031.9409,-186.7863 627.7089,-115.196 614.4902,-112.8549 600.4277,-108.4761 588.2714,-104.0449"/>
<polygon fill="#ff0000" stroke="#ff0000" stroke-width=".6548" points="589.1598,-100.6382 578.5688,-100.3539 586.6709,-107.1808 589.1598,-100.6382"/>
</g>
<!-- group_2_ped_4_location -->
<g id="node15" class="node">
<title>group_2_ped_4_location</title>
<polygon fill="#d3d3d3" stroke="#000000" points="1457.2089,-184.9447 1352.2089,-184.9447 1352.2089,-166.9447 1457.2089,-166.9447 1457.2089,-184.9447"/>
<text text-anchor="middle" x="1404.7089" y="-173.7447" font-family="Times,serif" font-size="9.00" fill="#000000">group_2_ped_4_location</text>
</g>
<!-- group_2_ped_4_location&#45;&gt;1 -->
<g id="edge26" class="edge">
<title>group_2_ped_4_location&#45;&gt;1</title>
<path fill="none" stroke="#ff0000" stroke-width=".1861" d="M1412.1274,-166.8219C1432.7847,-141.4189 1491.3138,-69.4435 1519.7754,-34.4433"/>
<polygon fill="#ff0000" stroke="#ff0000" stroke-width=".1861" points="1522.7286,-36.3592 1526.3222,-26.3924 1517.2976,-31.9428 1522.7286,-36.3592"/>
</g>
<!-- group_2_ped_4_location&#45;&gt;2 -->
<g id="edge27" class="edge">
<title>group_2_ped_4_location&#45;&gt;2</title>
<path fill="none" stroke="#00ff00" stroke-width=".2566" d="M1442.7724,-166.9176C1467.4192,-161.4431 1500.2885,-154.8327 1529.7089,-151.196 1608.3227,-141.4782 2171.5687,-152.0052 2241.7089,-115.196 2266.2668,-102.3081 2256.9505,-81.5491 2279.7089,-65.6985 2322.971,-35.5676 2384.7317,-22.7995 2418.783,-17.7847"/>
<polygon fill="#00ff00" stroke="#00ff00" stroke-width=".2566" points="2419.3715,-21.2369 2428.8063,-16.4168 2418.4249,-14.3012 2419.3715,-21.2369"/>
</g>
<!-- group_2_ped_4_location&#45;&gt;2597 -->
<g id="edge59" class="edge">
<title>group_2_ped_4_location&#45;&gt;2597</title>
<path fill="none" stroke="#ff0000" stroke-width=".7455" stroke-dasharray="1,5" d="M1368.5463,-166.854C1347.4087,-161.7613 1320.1587,-155.5741 1295.7089,-151.196 1175.2413,-129.6241 1141.8392,-143.2273 1022.7089,-115.196 1009.6414,-112.1212 995.6101,-107.5908 983.4364,-103.2438"/>
<polygon fill="#ff0000" stroke="#ff0000" stroke-width=".7455" points="984.303,-99.8335 973.7094,-99.6713 981.8897,-106.4044 984.303,-99.8335"/>
</g>
<!-- group_2_ped_4_location&#45;&gt;3567 -->
<g id="edge93" class="edge">
<title>group_2_ped_4_location&#45;&gt;3567</title>
<path fill="none" stroke="#ff0000" stroke-width=".7972" d="M1371.5882,-166.8644C1350.1244,-161.3687 1321.4673,-154.7547 1295.7089,-151.196 1141.1935,-129.8485 743.3334,-162.54 594.7089,-115.196 591.1368,-114.0581 587.5688,-112.5105 584.1225,-110.7407"/>
<polygon fill="#ff0000" stroke="#ff0000" stroke-width=".7972" points="585.7719,-107.6514 575.3648,-105.666 582.2623,-113.708 585.7719,-107.6514"/>
</g>
<!-- group_2_ped_4_age -->
<g id="node16" class="node">
<title>group_2_ped_4_age</title>
<polygon fill="#d3d3d3" stroke="#000000" points="389.2089,-270.4422 300.2089,-270.4422 300.2089,-252.4422 389.2089,-252.4422 389.2089,-270.4422"/>
<text text-anchor="middle" x="344.7089" y="-259.2422" font-family="Times,serif" font-size="9.00" fill="#000000">group_2_ped_4_age</text>
</g>
<!-- group_2_ped_4_age&#45;&gt;0 -->
<g id="edge28" class="edge">
<title>group_2_ped_4_age&#45;&gt;0</title>
<path fill="none" stroke="#00ff00" stroke-width=".2134" stroke-dasharray="1,5" d="M301.8583,-252.3858C199.9039,-229.0264 -42.5077,-161.7694 41.7089,-65.6985 65.5564,-38.4942 320.0476,-21.1629 401.6688,-16.2723"/>
<polygon fill="#00ff00" stroke="#00ff00" stroke-width=".2134" points="402.0119,-19.7582 411.7891,-15.677 401.6008,-12.7703 402.0119,-19.7582"/>
</g>
<!-- group_2_ped_4_age&#45;&gt;1 -->
<g id="edge29" class="edge">
<title>group_2_ped_4_age&#45;&gt;1</title>
<path fill="none" stroke="#00ff00" stroke-width=".3964" stroke-dasharray="1,5" d="M389.4889,-255.3789C475.6737,-242.0224 667.988,-203.9053 802.7089,-115.196 827.0472,-99.17 819.6563,-78.754 845.7089,-65.6985 906.1121,-35.4291 1393.3131,-19.0887 1510.4506,-15.5743"/>
<polygon fill="#00ff00" stroke="#00ff00" stroke-width=".3964" points="1510.7123,-19.0682 1520.6045,-15.2742 1510.5054,-12.0713 1510.7123,-19.0682"/>
</g>
<!-- group_2_ped_4_age&#45;&gt;2010 -->
<g id="edge49" class="edge">
<title>group_2_ped_4_age&#45;&gt;2010</title>
<path fill="none" stroke="#00ff00" stroke-width=".5417" stroke-dasharray="1,5" d="M344.7089,-252.2924C344.7089,-242.4222 344.7089,-226.0962 344.7089,-211.0692"/>
<polygon fill="#00ff00" stroke="#00ff00" stroke-width=".5417" points="348.209,-210.9686 344.7089,-200.9687 341.209,-210.9687 348.209,-210.9686"/>
</g>
<!-- group_3_ped_1_location -->
<g id="node17" class="node">
<title>group_3_ped_1_location</title>
<polygon fill="#d3d3d3" stroke="#000000" points="2916.2089,-340.1909 2811.2089,-340.1909 2811.2089,-322.1909 2916.2089,-322.1909 2916.2089,-340.1909"/>
<text text-anchor="middle" x="2863.7089" y="-328.9909" font-family="Times,serif" font-size="9.00" fill="#000000">group_3_ped_1_location</text>
</g>
<!-- group_3_ped_1_location&#45;&gt;1 -->
<g id="edge30" class="edge">
<title>group_3_ped_1_location&#45;&gt;1</title>
<path fill="none" stroke="#00ff00" stroke-width=".415" stroke-dasharray="1,5" d="M2811.2033,-330.0949C2646.8267,-326.3972 2149.0368,-313.0804 2081.7089,-286.1909 1972.4733,-242.5643 1957.9899,-202.99 1879.7089,-115.196 1862.1129,-95.4616 1868.934,-80.02 1846.7089,-65.6985 1799.2137,-35.0932 1625.9028,-20.7727 1560.7211,-16.3823"/>
<polygon fill="#00ff00" stroke="#00ff00" stroke-width=".415" points="1560.746,-12.8766 1550.5395,-15.7188 1560.2907,-19.8617 1560.746,-12.8766"/>
</g>
<!-- group_3_ped_1_location&#45;&gt;2 -->
<g id="edge31" class="edge">
<title>group_3_ped_1_location&#45;&gt;2</title>
<path fill="none" stroke="#00ff00" stroke-width=".212" d="M2879.9377,-322.1096C2892.0268,-314.3316 2907.6177,-301.9048 2914.7089,-286.1909 2944.3201,-220.5733 2907.593,-99.3606 2868.7089,-65.6985 2838.2986,-39.3722 2555.3335,-21.205 2468.7575,-16.2266"/>
<polygon fill="#00ff00" stroke="#00ff00" stroke-width=".212" points="2468.7245,-12.7192 2458.5427,-15.6483 2468.3288,-19.708 2468.7245,-12.7192"/>
</g>
<!-- 3979 -->
<g id="node29" class="node">
<title>3979</title>
<ellipse fill="#ffffff" stroke="#000000" cx="2863.7089" cy="-261.4422" rx="25" ry="25"/>
<text text-anchor="middle" x="2863.7089" y="-259.2422" font-family="Times,serif" font-size="9.00" fill="#000000">3979</text>
</g>
<!-- group_3_ped_1_location&#45;&gt;3979 -->
<g id="edge79" class="edge">
<title>group_3_ped_1_location&#45;&gt;3979</title>
<path fill="none" stroke="#00ff00" stroke-width=".2528" d="M2863.7089,-322.0725C2863.7089,-315.4558 2863.7089,-306.0442 2863.7089,-296.6046"/>
<polygon fill="#00ff00" stroke="#00ff00" stroke-width=".2528" points="2867.209,-296.4814 2863.7089,-286.4814 2860.209,-296.4815 2867.209,-296.4814"/>
</g>
<!-- group_3_ped_1_location&#45;&gt;2923 -->
<g id="edge81" class="edge">
<title>group_3_ped_1_location&#45;&gt;2923</title>
<path fill="none" stroke="#00ff00" stroke-width=".3658" d="M2811.1114,-325.9991C2759.8607,-319.7706 2687.0556,-307.4164 2668.7089,-286.1909 2648.569,-262.8909 2648.8858,-175.0016 2650.817,-125.2825"/>
<polygon fill="#00ff00" stroke="#00ff00" stroke-width=".3658" points="2654.3138,-125.4305 2651.2468,-115.2893 2647.3202,-125.1296 2654.3138,-125.4305"/>
</g>
<!-- group_3_ped_1_location&#45;&gt;2810 -->
<g id="edge55" class="edge">
<title>group_3_ped_1_location&#45;&gt;2810</title>
<path fill="none" stroke="#ff0000" stroke-width=".4317" d="M2873.641,-321.9316C2881.8782,-313.5206 2892.9773,-300.3022 2897.7089,-286.1909 2904.7025,-265.3333 2907.8796,-256.2 2897.7089,-236.6934 2886.2908,-214.7945 2862.9725,-199.1718 2843.3492,-189.2575"/>
<polygon fill="#ff0000" stroke="#ff0000" stroke-width=".4317" points="2844.6147,-185.9836 2834.0811,-184.8465 2841.6065,-192.3043 2844.6147,-185.9836"/>
</g>
<!-- group_3_ped_1_age -->
<g id="node18" class="node">
<title>group_3_ped_1_age</title>
<polygon fill="#d3d3d3" stroke="#000000" points="1627.2089,-184.9447 1538.2089,-184.9447 1538.2089,-166.9447 1627.2089,-166.9447 1627.2089,-184.9447"/>
<text text-anchor="middle" x="1582.7089" y="-173.7447" font-family="Times,serif" font-size="9.00" fill="#000000">group_3_ped_1_age</text>
</g>
<!-- group_3_ped_1_age&#45;&gt;1 -->
<g id="edge32" class="edge">
<title>group_3_ped_1_age&#45;&gt;1</title>
<path fill="none" stroke="#ff0000" stroke-width=".1174" d="M1587.0339,-166.8594C1595.675,-147.3247 1612.9096,-100.2946 1596.7089,-65.6985 1588.699,-48.5936 1571.7938,-35.2341 1557.8072,-26.5096"/>
<polygon fill="#ff0000" stroke="#ff0000" stroke-width=".1174" points="1559.5594,-23.4798 1549.1603,-21.4529 1556.0257,-29.5224 1559.5594,-23.4798"/>
</g>
<!-- 4728 -->
<g id="node47" class="node">
<title>4728</title>
<ellipse fill="#ffffff" stroke="#000000" cx="1562.7089" cy="-90.4472" rx="25" ry="25"/>
<text text-anchor="middle" x="1562.7089" y="-88.2472" font-family="Times,serif" font-size="9.00" fill="#000000">4728</text>
</g>
<!-- group_3_ped_1_age&#45;&gt;4728 -->
<g id="edge94" class="edge">
<title>group_3_ped_1_age&#45;&gt;4728</title>
<path fill="none" stroke="#00ff00" stroke-width=".1897" d="M1580.5685,-166.795C1578.2044,-156.6884 1574.2569,-139.8135 1570.6735,-124.495"/>
<polygon fill="#00ff00" stroke="#00ff00" stroke-width=".1897" points="1574.0774,-123.68 1568.3916,-114.7401 1567.2614,-125.2745 1574.0774,-123.68"/>
</g>
<!-- group_3_ped_2_location -->
<g id="node19" class="node">
<title>group_3_ped_2_location</title>
<polygon fill="#d3d3d3" stroke="#000000" points="2782.2089,-270.4422 2677.2089,-270.4422 2677.2089,-252.4422 2782.2089,-252.4422 2782.2089,-270.4422"/>
<text text-anchor="middle" x="2729.7089" y="-259.2422" font-family="Times,serif" font-size="9.00" fill="#000000">group_3_ped_2_location</text>
</g>
<!-- group_3_ped_2_location&#45;&gt;1 -->
<g id="edge33" class="edge">
<title>group_3_ped_2_location&#45;&gt;1</title>
<path fill="none" stroke="#00ff00" stroke-width=".5049" stroke-dasharray="1,5" d="M2677.1335,-253.4973C2574.9118,-237.982 2358.7014,-204.8037 2351.7089,-200.6934 2327.5642,-186.501 2337.3159,-164.571 2312.7089,-151.196 2160.1596,-68.2786 2078.6507,-193.5516 1923.7089,-115.196 1897.4424,-101.9127 1905.6039,-79.6921 1879.7089,-65.6985 1824.2524,-35.7299 1630.3659,-20.8179 1560.7958,-16.3399"/>
<polygon fill="#00ff00" stroke="#00ff00" stroke-width=".5049" points="1560.937,-12.842 1550.7378,-15.7101 1560.4995,-19.8283 1560.937,-12.842"/>
</g>
<!-- group_3_ped_2_location&#45;&gt;2 -->
<g id="edge34" class="edge">
<title>group_3_ped_2_location&#45;&gt;2</title>
<path fill="none" stroke="#00ff00" stroke-width=".8662" d="M2732.0951,-252.1482C2739.4623,-221.0813 2758.4769,-119.7627 2708.7089,-65.6985 2676.4509,-30.6558 2528.242,-19.2004 2468.6371,-15.9705"/>
<polygon fill="#00ff00" stroke="#00ff00" stroke-width=".8662" points="2468.7515,-12.4719 2458.5866,-15.4593 2468.3959,-19.4628 2468.7515,-12.4719"/>
</g>
<!-- group_3_ped_2_location&#45;&gt;2810 -->
<g id="edge52" class="edge">
<title>group_3_ped_2_location&#45;&gt;2810</title>
<path fill="none" stroke="#ff0000" stroke-width=".3735" stroke-dasharray="1,5" d="M2738.3773,-252.2924C2749.7735,-240.2635 2770.2534,-218.6465 2786.5192,-201.4775"/>
<polygon fill="#ff0000" stroke="#ff0000" stroke-width=".3735" points="2789.3116,-203.6191 2793.6484,-193.9525 2784.23,-198.8048 2789.3116,-203.6191"/>
</g>
<!-- group_3_ped_2_age -->
<g id="node20" class="node">
<title>group_3_ped_2_age</title>
<polygon fill="#d3d3d3" stroke="#000000" points="1443.2089,-99.4472 1354.2089,-99.4472 1354.2089,-81.4472 1443.2089,-81.4472 1443.2089,-99.4472"/>
<text text-anchor="middle" x="1398.7089" y="-88.2472" font-family="Times,serif" font-size="9.00" fill="#000000">group_3_ped_2_age</text>
</g>
<!-- group_3_ped_2_age&#45;&gt;1 -->
<g id="edge35" class="edge">
<title>group_3_ped_2_age&#45;&gt;1</title>
<path fill="none" stroke="#00ff00" stroke-width=".6513" d="M1415.2343,-81.3283C1439.8077,-67.7685 1486.0294,-42.2629 1513.5243,-27.0909"/>
<polygon fill="#00ff00" stroke="#00ff00" stroke-width=".6513" points="1515.338,-30.0877 1522.4025,-22.1919 1511.956,-23.9589 1515.338,-30.0877"/>
</g>
<!-- group_3_ped_3_location -->
<g id="node21" class="node">
<title>group_3_ped_3_location</title>
<polygon fill="#d3d3d3" stroke="#000000" points="2199.2089,-99.4472 2094.2089,-99.4472 2094.2089,-81.4472 2199.2089,-81.4472 2199.2089,-99.4472"/>
<text text-anchor="middle" x="2146.7089" y="-88.2472" font-family="Times,serif" font-size="9.00" fill="#000000">group_3_ped_3_location</text>
</g>
<!-- group_3_ped_3_location&#45;&gt;1 -->
<g id="edge36" class="edge">
<title>group_3_ped_3_location&#45;&gt;1</title>
<path fill="none" stroke="#ff0000" stroke-width=".2589" d="M2126.3083,-81.3293C2113.2468,-75.8914 2095.7908,-69.3542 2079.7089,-65.6985 1978.7153,-42.7408 1654.1832,-21.9497 1560.9653,-16.334"/>
<polygon fill="#ff0000" stroke="#ff0000" stroke-width=".2589" points="1560.9655,-12.8278 1550.7745,-15.7252 1560.548,-19.8154 1560.9655,-12.8278"/>
</g>
<!-- group_3_ped_3_location&#45;&gt;2 -->
<g id="edge37" class="edge">
<title>group_3_ped_3_location&#45;&gt;2</title>
<path fill="none" stroke="#ff0000" stroke-width=".786" stroke-dasharray="1,5" d="M2168.7873,-81.4279C2181.7302,-76.3591 2198.4802,-70.1719 2213.7089,-65.6985 2287.3426,-44.0688 2376.6177,-26.8255 2419.0326,-19.161"/>
<polygon fill="#ff0000" stroke="#ff0000" stroke-width=".786" points="2419.7736,-22.5841 2429.0026,-17.3806 2418.543,-15.6931 2419.7736,-22.5841"/>
</g>
<!-- group_3_ped_3_age -->
<g id="node22" class="node">
<title>group_3_ped_3_age</title>
<polygon fill="#d3d3d3" stroke="#000000" points="1734.2089,-184.9447 1645.2089,-184.9447 1645.2089,-166.9447 1734.2089,-166.9447 1734.2089,-184.9447"/>
<text text-anchor="middle" x="1689.7089" y="-173.7447" font-family="Times,serif" font-size="9.00" fill="#000000">group_3_ped_3_age</text>
</g>
<!-- group_3_ped_3_age&#45;&gt;0 -->
<g id="edge38" class="edge">
<title>group_3_ped_3_age&#45;&gt;0</title>
<path fill="none" stroke="#ff0000" stroke-width=".3473" stroke-dasharray="1,5" d="M1674.541,-166.8599C1664.255,-161.2114 1650.1362,-154.4287 1636.7089,-151.196 1527.643,-124.9371 727.4279,-166.5869 627.7089,-115.196 603.056,-102.4909 612.4535,-81.5688 589.7089,-65.6985 546.7134,-35.6979 485.3282,-22.88 451.4836,-17.8221"/>
<polygon fill="#ff0000" stroke="#ff0000" stroke-width=".3473" points="451.9071,-14.3474 441.5211,-16.4406 450.9456,-21.281 451.9071,-14.3474"/>
</g>
<!-- group_3_ped_3_age&#45;&gt;1 -->
<g id="edge39" class="edge">
<title>group_3_ped_3_age&#45;&gt;1</title>
<path fill="none" stroke="#ff0000" stroke-width=".2645" d="M1685.0111,-166.7839C1674.387,-146.694 1646.8408,-97.9853 1613.7089,-65.6985 1597.1599,-49.5716 1574.7727,-35.6004 1558.2269,-26.4056"/>
<polygon fill="#ff0000" stroke="#ff0000" stroke-width=".2645" points="1559.7114,-23.2297 1549.2483,-21.5637 1556.3887,-29.3909 1559.7114,-23.2297"/>
</g>
<!-- group_3_ped_3_age&#45;&gt;2 -->
<g id="edge40" class="edge">
<title>group_3_ped_3_age&#45;&gt;2</title>
<path fill="none" stroke="#ff0000" stroke-width=".1683" stroke-dasharray="1,5" d="M1711.0398,-166.8347C1724.9238,-161.3271 1743.5737,-154.711 1760.7089,-151.196 1873.9611,-127.9639 2174.8655,-163.9159 2279.7089,-115.196 2307.4991,-102.2821 2302.5379,-83.1766 2327.7089,-65.6985 2356.788,-45.5067 2395.1717,-30.6003 2419.6551,-22.3176"/>
<polygon fill="#ff0000" stroke="#ff0000" stroke-width=".1683" points="2420.8182,-25.6197 2429.2293,-19.1774 2418.6366,-18.9683 2420.8182,-25.6197"/>
</g>
<!-- 4286 -->
<g id="node34" class="node">
<title>4286</title>
<ellipse fill="#ffffff" stroke="#000000" cx="661.7089" cy="-90.4472" rx="25" ry="25"/>
<text text-anchor="middle" x="661.7089" y="-88.2472" font-family="Times,serif" font-size="9.00" fill="#000000">4286</text>
</g>
<!-- group_3_ped_3_age&#45;&gt;4286 -->
<g id="edge83" class="edge">
<title>group_3_ped_3_age&#45;&gt;4286</title>
<path fill="none" stroke="#ff0000" stroke-width=".7492" stroke-dasharray="1,5" d="M1674.5383,-166.8713C1664.2511,-161.2276 1650.132,-154.446 1636.7089,-151.196 1433.3216,-101.951 893.4277,-183.7433 695.7089,-115.196 693.523,-114.4381 691.3574,-113.4887 689.2404,-112.4068"/>
<polygon fill="#ff0000" stroke="#ff0000" stroke-width=".7492" points="690.7206,-109.2103 680.3593,-106.9979 687.0795,-115.1888 690.7206,-109.2103"/>
</g>
<!-- 3944 -->
<g id="node42" class="node">
<title>3944</title>
<ellipse fill="#ffffff" stroke="#000000" cx="1706.7089" cy="-90.4472" rx="25" ry="25"/>
<text text-anchor="middle" x="1706.7089" y="-88.2472" font-family="Times,serif" font-size="9.00" fill="#000000">3944</text>
</g>
<!-- group_3_ped_3_age&#45;&gt;3944 -->
<g id="edge77" class="edge">
<title>group_3_ped_3_age&#45;&gt;3944</title>
<path fill="none" stroke="#00ff00" stroke-width=".1025" stroke-dasharray="1,5" d="M1691.5282,-166.795C1693.5186,-156.7847 1696.8293,-140.1343 1699.8519,-124.9331"/>
<polygon fill="#00ff00" stroke="#00ff00" stroke-width=".1025" points="1703.3611,-125.2307 1701.8786,-114.7401 1696.4955,-123.8655 1703.3611,-125.2307"/>
</g>
<!-- group_3_ped_4_location -->
<g id="node23" class="node">
<title>group_3_ped_4_location</title>
<polygon fill="#d3d3d3" stroke="#000000" points="1139.2089,-184.9447 1034.2089,-184.9447 1034.2089,-166.9447 1139.2089,-166.9447 1139.2089,-184.9447"/>
<text text-anchor="middle" x="1086.7089" y="-173.7447" font-family="Times,serif" font-size="9.00" fill="#000000">group_3_ped_4_location</text>
</g>
<!-- group_3_ped_4_location&#45;&gt;0 -->
<g id="edge41" class="edge">
<title>group_3_ped_4_location&#45;&gt;0</title>
<path fill="none" stroke="#00ff00" stroke-width=".3383" stroke-dasharray="1,5" d="M1055.9005,-166.9186C1036.2662,-161.5162 1010.1922,-154.9842 986.7089,-151.196 884.3891,-134.6901 613.4378,-163.4411 521.7089,-115.196 496.6759,-102.0298 501.0327,-86.3526 481.7089,-65.6985 470.3812,-53.5909 456.6942,-40.9305 445.8078,-31.2711"/>
<polygon fill="#00ff00" stroke="#00ff00" stroke-width=".3383" points="447.9416,-28.4873 438.1142,-24.5284 443.3279,-33.7517 447.9416,-28.4873"/>
</g>
<!-- group_3_ped_4_location&#45;&gt;1 -->
<g id="edge42" class="edge">
<title>group_3_ped_4_location&#45;&gt;1</title>
<path fill="none" stroke="#ff0000" stroke-width=".169" d="M1071.4088,-166.8019C1055.816,-156.4941 1032.5646,-138.1396 1022.7089,-115.196 1014.0262,-94.983 1007.9404,-82.0032 1022.7089,-65.6985 1055.7939,-29.172 1411.7103,-17.8573 1510.4406,-15.41"/>
<polygon fill="#ff0000" stroke="#ff0000" stroke-width=".169" points="1510.7629,-18.9034 1520.6765,-15.1656 1510.5958,-11.9054 1510.7629,-18.9034"/>
</g>
<!-- group_3_ped_4_location&#45;&gt;2597 -->
<g id="edge50" class="edge">
<title>group_3_ped_4_location&#45;&gt;2597</title>
<path fill="none" stroke="#ff0000" stroke-width=".4555" stroke-dasharray="1,5" d="M1072.2303,-166.9144C1053.2571,-155.0723 1018.9563,-133.6342 989.7089,-115.196 986.7008,-113.2996 983.5647,-111.3176 980.4351,-109.3366"/>
<polygon fill="#ff0000" stroke="#ff0000" stroke-width=".4555" points="982.0643,-106.2255 971.7443,-103.828 978.3168,-112.1378 982.0643,-106.2255"/>
</g>
<!-- 3665 -->
<g id="node36" class="node">
<title>3665</title>
<ellipse fill="#ffffff" stroke="#000000" cx="1056.7089" cy="-90.4472" rx="25" ry="25"/>
<text text-anchor="middle" x="1056.7089" y="-88.2472" font-family="Times,serif" font-size="9.00" fill="#000000">3665</text>
</g>
<!-- group_3_ped_4_location&#45;&gt;3665 -->
<g id="edge68" class="edge">
<title>group_3_ped_4_location&#45;&gt;3665</title>
<path fill="none" stroke="#00ff00" stroke-width=".3" d="M1083.4984,-166.795C1079.9025,-156.5471 1073.8648,-139.3401 1068.4306,-123.8532"/>
<polygon fill="#00ff00" stroke="#00ff00" stroke-width=".3" points="1071.5921,-122.292 1064.9785,-114.0149 1064.9869,-124.6097 1071.5921,-122.292"/>
</g>
<!-- group_3_ped_4_age -->
<g id="node24" class="node">
<title>group_3_ped_4_age</title>
<polygon fill="#d3d3d3" stroke="#000000" points="140.2089,-99.4472 51.2089,-99.4472 51.2089,-81.4472 140.2089,-81.4472 140.2089,-99.4472"/>
<text text-anchor="middle" x="95.7089" y="-88.2472" font-family="Times,serif" font-size="9.00" fill="#000000">group_3_ped_4_age</text>
</g>
<!-- group_3_ped_4_age&#45;&gt;0 -->
<g id="edge43" class="edge">
<title>group_3_ped_4_age&#45;&gt;0</title>
<path fill="none" stroke="#00ff00" stroke-width=".2471" d="M114.4645,-81.3737C125.8775,-76.1587 140.8759,-69.8414 154.7089,-65.6985 243.5144,-39.1015 352.9874,-23.7092 401.5117,-17.742"/>
<polygon fill="#00ff00" stroke="#00ff00" stroke-width=".2471" points="402.1917,-21.1855 411.7031,-16.5182 401.3571,-14.2355 402.1917,-21.1855"/>
</g>
<!-- ego_vehicle_velocity -->
<g id="node25" class="node">
<title>ego_vehicle_velocity</title>
<polygon fill="#d3d3d3" stroke="#000000" points="1297.2089,-99.4472 1206.2089,-99.4472 1206.2089,-81.4472 1297.2089,-81.4472 1297.2089,-99.4472"/>
<text text-anchor="middle" x="1251.7089" y="-88.2472" font-family="Times,serif" font-size="9.00" fill="#000000">ego_vehicle_velocity</text>
</g>
<!-- ego_vehicle_velocity&#45;&gt;0 -->
<g id="edge44" class="edge">
<title>ego_vehicle_velocity&#45;&gt;0</title>
<path fill="none" stroke="#00ff00" stroke-width=".3626" d="M1235.7337,-81.2516C1225.2731,-75.7098 1211.1058,-69.0879 1197.7089,-65.6985 1051.5681,-28.7249 567.7736,-17.4791 451.8374,-15.2845"/>
<polygon fill="#00ff00" stroke="#00ff00" stroke-width=".3626" points="451.8525,-11.7843 441.7898,-15.0999 451.7238,-18.7831 451.8525,-11.7843"/>
</g>
<!-- ego_vehicle_velocity&#45;&gt;2 -->
<g id="edge45" class="edge">
<title>ego_vehicle_velocity&#45;&gt;2</title>
<path fill="none" stroke="#00ff00" stroke-width=".4571" d="M1279.7642,-81.3967C1298.28,-75.8388 1323.189,-69.1449 1345.7089,-65.6985 1562.427,-32.5324 2274.6861,-17.9384 2418.3289,-15.2966"/>
<polygon fill="#00ff00" stroke="#00ff00" stroke-width=".4571" points="2418.7918,-18.7888 2428.7267,-15.1081 2418.6649,-11.79 2418.7918,-18.7888"/>
</g>
<!-- 3979&#45;&gt;2810 -->
<g id="edge80" class="edge">
<title>3979&#45;&gt;2810</title>
<path fill="none" stroke="#ff0000" stroke-width=".1755" d="M2850.6078,-240.308C2844.1738,-229.9289 2836.3098,-217.2431 2829.2695,-205.886"/>
<polygon fill="#ff0000" stroke="#ff0000" stroke-width=".1755" points="2832.0866,-203.7874 2823.843,-197.1321 2826.137,-207.4756 2832.0866,-203.7874"/>
</g>
<!-- 4763&#45;&gt;3796 -->
<g id="edge97" class="edge">
<title>4763&#45;&gt;3796</title>
<path fill="none" stroke="#00ff00" stroke-width=".4486" stroke-dasharray="1,5" d="M2278.7089,-236.2525C2278.7089,-228.3383 2278.7089,-219.4522 2278.7089,-210.9837"/>
<polygon fill="#00ff00" stroke="#00ff00" stroke-width=".4486" points="2282.209,-210.9543 2278.7089,-200.9543 2275.209,-210.9543 2282.209,-210.9543"/>
</g>
<!-- 3484&#45;&gt;1 -->
<g id="edge61" class="edge">
<title>3484&#45;&gt;1</title>
<path fill="none" stroke="#00ff00" stroke-width=".4104" d="M1789.2085,-151.5075C1782.2395,-126.2495 1767.7382,-87.5218 1740.7089,-65.6985 1712.9247,-43.2656 1608.7548,-25.5336 1560.5132,-18.3346"/>
<polygon fill="#00ff00" stroke="#00ff00" stroke-width=".4104" points="1560.9855,-14.8665 1550.5846,-16.8845 1559.9738,-21.7931 1560.9855,-14.8665"/>
</g>
<!-- 3834 -->
<g id="node39" class="node">
<title>3834</title>
<ellipse fill="#ffffff" stroke="#000000" cx="1812.7089" cy="-90.4472" rx="25" ry="25"/>
<text text-anchor="middle" x="1812.7089" y="-88.2472" font-family="Times,serif" font-size="9.00" fill="#000000">3834</text>
</g>
<!-- 3484&#45;&gt;3834 -->
<g id="edge74" class="edge">
<title>3484&#45;&gt;3834</title>
<path fill="none" stroke="#00ff00" stroke-width=".3274" stroke-dasharray="1,5" d="M1799.8188,-151.6732C1801.5859,-143.2798 1803.6008,-133.7095 1805.504,-124.6695"/>
<polygon fill="#00ff00" stroke="#00ff00" stroke-width=".3274" points="1808.9509,-125.2859 1807.5862,-114.7794 1802.101,-123.8438 1808.9509,-125.2859"/>
</g>
<!-- 3357&#45;&gt;2 -->
<g id="edge58" class="edge">
<title>3357&#45;&gt;2</title>
<path fill="none" stroke="#00ff00" stroke-width=".2055" stroke-dasharray="1,5" d="M2462.3139,-66.9419C2459.0747,-57.8723 2455.3756,-47.515 2452.1335,-38.4375"/>
<polygon fill="#00ff00" stroke="#00ff00" stroke-width=".2055" points="2455.3758,-37.1095 2448.7162,-28.8694 2448.7836,-39.464 2455.3758,-37.1095"/>
</g>
<!-- 2597&#45;&gt;1 -->
<g id="edge51" class="edge">
<title>2597&#45;&gt;1</title>
<path fill="none" stroke="#ff0000" stroke-width=".1621" d="M970.4241,-75.4084C976.3357,-71.6168 983.031,-67.9796 989.7089,-65.6985 1088.1841,-32.0605 1416.6394,-18.7918 1510.4755,-15.6337"/>
<polygon fill="#ff0000" stroke="#ff0000" stroke-width=".1621" points="1510.8446,-19.1236 1520.7247,-15.298 1510.6154,-12.1274 1510.8446,-19.1236"/>
</g>
<!-- 4286&#45;&gt;0 -->
<g id="edge84" class="edge">
<title>4286&#45;&gt;0</title>
<path fill="none" stroke="#ff0000" stroke-width=".2062" stroke-dasharray="1,5" d="M641.3243,-75.8347C635.5116,-72.1395 629.0347,-68.4452 622.7089,-65.6985 564.0118,-40.2113 489.6902,-25.2603 451.6417,-18.7482"/>
<polygon fill="#ff0000" stroke="#ff0000" stroke-width=".2062" points="451.9221,-15.247 441.4843,-17.0644 450.7773,-22.1527 451.9221,-15.247"/>
</g>
<!-- 3518&#45;&gt;0 -->
<g id="edge63" class="edge">
<title>3518&#45;&gt;0</title>
<path fill="none" stroke="#00ff00" stroke-width=".1062" stroke-dasharray="1,5" d="M396.027,-156.4482C387.9409,-145.1275 378.912,-130.1771 374.7089,-115.196 368.7663,-94.0149 366.1767,-85.9754 374.7089,-65.6985 381.0309,-50.6741 394.2,-37.872 405.703,-28.8714"/>
<polygon fill="#00ff00" stroke="#00ff00" stroke-width=".1062" points="408.0437,-31.495 414.0336,-22.7559 403.9013,-25.8522 408.0437,-31.495"/>
</g>
<!-- 3796&#45;&gt;3357 -->
<g id="edge72" class="edge">
<title>3796&#45;&gt;3357</title>
<path fill="none" stroke="#ff0000" stroke-width=".206" d="M2302.3749,-168.1042C2332.963,-157.6221 2387.5383,-137.7283 2431.7089,-115.196 2434.8765,-113.5801 2438.1169,-111.7815 2441.3099,-109.9118"/>
<polygon fill="#ff0000" stroke="#ff0000" stroke-width=".206" points="2443.3771,-112.7503 2450.0828,-104.5477 2439.7254,-106.7782 2443.3771,-112.7503"/>
</g>
<!-- 4692 -->
<g id="node38" class="node">
<title>4692</title>
<ellipse fill="#ffffff" stroke="#000000" cx="2834.7089" cy="-90.4472" rx="25" ry="25"/>
<text text-anchor="middle" x="2834.7089" y="-88.2472" font-family="Times,serif" font-size="9.00" fill="#000000">4692</text>
</g>
<!-- 4692&#45;&gt;2 -->
<g id="edge92" class="edge">
<title>4692&#45;&gt;2</title>
<path fill="none" stroke="#ff0000" stroke-width=".292" d="M2814.512,-75.3676C2808.7001,-71.6705 2802.1766,-68.0921 2795.7089,-65.6985 2735.2459,-43.3215 2539.1974,-23.6156 2469.0006,-17.1132"/>
<polygon fill="#ff0000" stroke="#ff0000" stroke-width=".292" points="2469.1324,-13.6107 2458.855,-16.1846 2468.4943,-20.5816 2469.1324,-13.6107"/>
</g>
<!-- 3834&#45;&gt;1 -->
<g id="edge75" class="edge">
<title>3834&#45;&gt;1</title>
<path fill="none" stroke="#00ff00" stroke-width=".4599" stroke-dasharray="1,5" d="M1792.4011,-75.6525C1786.5887,-71.9566 1780.0927,-68.3075 1773.7089,-65.6985 1699.7939,-35.4902 1605.3073,-22.1714 1560.9033,-17.2683"/>
<polygon fill="#00ff00" stroke="#00ff00" stroke-width=".4599" points="1561.0477,-13.7643 1550.7362,-16.198 1560.3148,-20.7258 1561.0477,-13.7643"/>
</g>
<!-- 2010&#45;&gt;0 -->
<g id="edge48" class="edge">
<title>2010&#45;&gt;0</title>
<path fill="none" stroke="#ff0000" stroke-width=".5551" d="M344.422,-151.0449C345.2113,-127.5239 349.2257,-92.0229 364.7089,-65.6985 374.2279,-49.5144 390.9264,-36.2691 404.597,-27.3583"/>
<polygon fill="#ff0000" stroke="#ff0000" stroke-width=".5551" points="406.7766,-30.1262 413.4521,-21.8989 403.103,-24.1676 406.7766,-30.1262"/>
</g>
<!-- 2010&#45;&gt;3567 -->
<g id="edge64" class="edge">
<title>2010&#45;&gt;3567</title>
<path fill="none" stroke="#ff0000" stroke-width=".1708" stroke-dasharray="1,5" d="M363.9265,-159.9588C368.2896,-156.7847 373.0236,-153.6721 377.7089,-151.196 425.0758,-126.1628 484.8438,-108.264 521.6598,-98.6375"/>
<polygon fill="#ff0000" stroke="#ff0000" stroke-width=".1708" points="522.5862,-102.0133 531.4058,-96.1426 520.8502,-95.2319 522.5862,-102.0133"/>
</g>
<!-- 4571&#45;&gt;2 -->
<g id="edge89" class="edge">
<title>4571&#45;&gt;2</title>
<path fill="none" stroke="#ff0000" stroke-width=".4809" d="M2604.0486,-153.2155C2591.7906,-129.0342 2569.7054,-90.868 2541.7089,-65.6985 2519.7819,-45.9855 2488.8215,-31.6031 2467.6011,-23.2628"/>
<polygon fill="#ff0000" stroke="#ff0000" stroke-width=".4809" points="2468.6402,-19.9141 2458.0484,-19.657 2466.1681,-26.463 2468.6402,-19.9141"/>
</g>
<!-- 3944&#45;&gt;1 -->
<g id="edge78" class="edge">
<title>3944&#45;&gt;1</title>
<path fill="none" stroke="#ff0000" stroke-width=".3601" stroke-dasharray="1,5" d="M1686.104,-76.305C1680.2905,-72.6116 1673.8682,-68.8007 1667.7089,-65.6985 1631.3066,-47.3636 1586.6233,-31.4297 1559.6968,-22.49"/>
<polygon fill="#ff0000" stroke="#ff0000" stroke-width=".3601" points="1560.566,-19.0919 1549.9734,-19.3104 1558.3903,-25.7452 1560.566,-19.0919"/>
</g>
<!-- 2923&#45;&gt;2 -->
<g id="edge54" class="edge">
<title>2923&#45;&gt;2</title>
<path fill="none" stroke="#00ff00" stroke-width=".181" d="M2632.256,-75.9881C2626.4431,-72.2935 2619.9831,-68.5612 2613.7089,-65.6985 2564.1415,-43.0826 2501.9239,-27.4459 2468.1927,-19.9393"/>
<polygon fill="#00ff00" stroke="#00ff00" stroke-width=".181" points="2468.8092,-16.4917 2458.2942,-17.7893 2467.3234,-23.3322 2468.8092,-16.4917"/>
</g>
<!-- 4474&#45;&gt;0 -->
<g id="edge87" class="edge">
<title>4474&#45;&gt;0</title>
<path fill="none" stroke="#00ff00" stroke-width=".2583" d="M280.3353,-76.3475C286.149,-72.6543 292.5659,-68.8328 298.7089,-65.6985 333.7153,-47.837 376.5318,-31.951 402.701,-22.8661"/>
<polygon fill="#00ff00" stroke="#00ff00" stroke-width=".2583" points="404.1774,-26.0602 412.5056,-19.511 401.911,-19.4373 404.1774,-26.0602"/>
</g>
<!-- 3567&#45;&gt;0 -->
<g id="edge65" class="edge">
<title>3567&#45;&gt;0</title>
<path fill="none" stroke="#00ff00" stroke-width=".4492" stroke-dasharray="1,5" d="M534.7816,-76.8906C528.9668,-73.1996 522.6245,-69.2434 516.7089,-65.6985 493.8735,-52.0143 467.2833,-37.1154 448.9571,-27.0041"/>
<polygon fill="#00ff00" stroke="#00ff00" stroke-width=".4492" points="450.396,-23.8012 439.9467,-22.0513 447.024,-29.9356 450.396,-23.8012"/>
</g>
<!-- 4855&#45;&gt;3357 -->
<g id="edge101" class="edge">
<title>4855&#45;&gt;3357</title>
<path fill="none" stroke="#00ff00" stroke-width=".5276" d="M2154.8982,-160.8444C2160.7101,-157.1473 2167.2355,-153.574 2173.7089,-151.196 2282.3856,-111.2732 2323.0322,-155.1187 2431.7089,-115.196 2435.0468,-113.9698 2438.3984,-112.4258 2441.659,-110.711"/>
<polygon fill="#00ff00" stroke="#00ff00" stroke-width=".5276" points="2443.6418,-113.6065 2450.5196,-105.5475 2440.1174,-107.5585 2443.6418,-113.6065"/>
</g>
<!-- 4855&#45;&gt;3567 -->
<g id="edge102" class="edge">
<title>4855&#45;&gt;3567</title>
<path fill="none" stroke="#00ff00" stroke-width=".1396" d="M2109.7493,-173.4941C2057.6061,-168.4698 1933.2801,-156.9882 1828.7089,-151.196 1562.1088,-136.4288 890.3787,-163.1359 627.7089,-115.196 614.5027,-112.7857 600.4427,-108.3926 588.2849,-103.9693"/>
<polygon fill="#00ff00" stroke="#00ff00" stroke-width=".1396" points="589.1717,-100.5624 578.5803,-100.2895 586.6898,-107.1077 589.1717,-100.5624"/>
</g>
<!-- 4728&#45;&gt;1 -->
<g id="edge95" class="edge">
<title>4728&#45;&gt;1</title>
<path fill="none" stroke="#ff0000" stroke-width=".2391" stroke-dasharray="1,5" d="M1554.3139,-66.9419C1551.0747,-57.8723 1547.3756,-47.515 1544.1335,-38.4375"/>
<polygon fill="#ff0000" stroke="#ff0000" stroke-width=".2391" points="1547.3758,-37.1095 1540.7162,-28.8694 1540.7836,-39.464 1547.3758,-37.1095"/>
</g>
<!-- 2810&#45;&gt;2 -->
<g id="edge53" class="edge">
<title>2810&#45;&gt;2</title>
<path fill="none" stroke="#ff0000" stroke-width=".3605" stroke-dasharray="1,5" d="M2805.9046,-151.5396C2799.5148,-125.9254 2785.6111,-86.5428 2757.7089,-65.6985 2712.018,-31.5651 2535.6469,-19.4097 2469.2156,-15.9874"/>
<polygon fill="#ff0000" stroke="#ff0000" stroke-width=".3605" points="2468.9961,-12.4725 2458.8367,-15.4785 2468.6533,-19.4641 2468.9961,-12.4725"/>
</g>
<!-- 2810&#45;&gt;4692 -->
<g id="edge91" class="edge">
<title>2810&#45;&gt;4692</title>
<path fill="none" stroke="#00ff00" stroke-width=".4269" d="M2817.5221,-151.6732C2819.924,-143.117 2822.669,-133.3379 2825.2498,-124.1442"/>
<polygon fill="#00ff00" stroke="#00ff00" stroke-width=".4269" points="2828.6287,-125.0573 2827.9617,-114.4834 2821.8892,-123.1654 2828.6287,-125.0573"/>
</g>
</g>
</svg>
