<?xml version="1.0" encoding="UTF-8" standalone="no"?>
<!DOCTYPE svg PUBLIC "-//W3C//DTD SVG 1.1//EN"
 "http://www.w3.org/Graphics/SVG/1.1/DTD/svg11.dtd">
<!-- Generated by graphviz version 2.40.1 (20161225.0304)
 -->
<!-- Title: %3 Pages: 1 -->
<svg width="1767pt" height="157pt"
 viewBox="0.00 0.00 1767.10 157.40" xmlns="http://www.w3.org/2000/svg" xmlns:xlink="http://www.w3.org/1999/xlink">
<g id="graph0" class="graph" transform="scale(1 1) rotate(0) translate(4 153.397)">
<title>%3</title>
<polygon fill="#ffffff" stroke="transparent" points="-4,4 -4,-153.397 1763.0996,-153.397 1763.0996,4 -4,4"/>
<!-- num_lane_1 -->
<g id="node1" class="node">
<title>num_lane_1</title>
<polygon fill="#d3d3d3" stroke="#000000" points="1106.9094,-149.397 1046.9094,-149.397 1046.9094,-131.397 1106.9094,-131.397 1106.9094,-149.397"/>
<text text-anchor="middle" x="1076.9094" y="-138.197" font-family="Times,serif" font-size="9.00" fill="#000000">num_lane_1</text>
</g>
<!-- 0 -->
<g id="node17" class="node">
<title>0</title>
<ellipse fill="#add8e6" stroke="#000000" cx="822.9094" cy="-14.8492" rx="14.7" ry="14.7"/>
<text text-anchor="middle" x="822.9094" y="-12.6492" font-family="Times,serif" font-size="9.00" fill="#000000">0</text>
</g>
<!-- num_lane_1&#45;&gt;0 -->
<g id="edge58" class="edge">
<title>num_lane_1&#45;&gt;0</title>
<path fill="none" stroke="#ff0000" stroke-width=".3173" d="M1065.0074,-131.1916C1044.6616,-115.8192 1001.4546,-84.7367 960.9094,-65.6985 912.8146,-43.1154 895.206,-51.8468 846.9094,-29.6985 846.0521,-29.3053 845.188,-28.8873 844.3229,-28.4504"/>
<polygon fill="#ff0000" stroke="#ff0000" stroke-width=".3173" points="845.7116,-25.214 835.2876,-23.3187 842.2545,-31.3008 845.7116,-25.214"/>
</g>
<!-- 1 -->
<g id="node18" class="node">
<title>1</title>
<ellipse fill="#add8e6" stroke="#000000" cx="870.9094" cy="-14.8492" rx="14.7" ry="14.7"/>
<text text-anchor="middle" x="870.9094" y="-12.6492" font-family="Times,serif" font-size="9.00" fill="#000000">1</text>
</g>
<!-- num_lane_1&#45;&gt;1 -->
<g id="edge59" class="edge">
<title>num_lane_1&#45;&gt;1</title>
<path fill="none" stroke="#ff0000" stroke-width=".292" d="M1066.1137,-131.3055C1048.0463,-116.3694 1010.1859,-86.2482 974.9094,-65.6985 941.2192,-46.0728 929.3395,-47.9951 894.9094,-29.6985 894.0765,-29.2559 893.2332,-28.7959 892.3857,-28.3236"/>
<polygon fill="#ff0000" stroke="#ff0000" stroke-width=".292" points="893.8208,-25.106 883.432,-23.0267 890.2566,-31.1307 893.8208,-25.106"/>
</g>
<!-- 2 -->
<g id="node19" class="node">
<title>2</title>
<ellipse fill="#add8e6" stroke="#000000" cx="918.9094" cy="-14.8492" rx="14.7" ry="14.7"/>
<text text-anchor="middle" x="918.9094" y="-12.6492" font-family="Times,serif" font-size="9.00" fill="#000000">2</text>
</g>
<!-- num_lane_1&#45;&gt;2 -->
<g id="edge60" class="edge">
<title>num_lane_1&#45;&gt;2</title>
<path fill="none" stroke="#00ff00" stroke-width=".4816" d="M1106.9579,-138.2302C1158.0857,-133.8502 1258.5569,-122.0011 1279.9094,-95.397 1288.1713,-85.1031 1288.5674,-75.6615 1279.9094,-65.6985 1257.7997,-40.2562 1022.5193,-21.9467 944.146,-16.5162"/>
<polygon fill="#00ff00" stroke="#00ff00" stroke-width=".4816" points="943.9801,-12.9969 933.7653,-15.8091 943.5043,-19.9807 943.9801,-12.9969"/>
</g>
<!-- 3 -->
<g id="node20" class="node">
<title>3</title>
<ellipse fill="#ffffff" stroke="#000000" cx="918.9094" cy="-80.5477" rx="14.7" ry="14.7"/>
<text text-anchor="middle" x="918.9094" y="-78.3477" font-family="Times,serif" font-size="9.00" fill="#000000">3</text>
</g>
<!-- num_lane_1&#45;&gt;3 -->
<g id="edge1" class="edge">
<title>num_lane_1&#45;&gt;3</title>
<path fill="none" stroke="#ff0000" stroke-width=".5984" d="M1052.9126,-131.3072C1023.1044,-120.016 972.5557,-100.8686 942.7979,-89.5965"/>
<polygon fill="#ff0000" stroke="#ff0000" stroke-width=".5984" points="943.7987,-86.233 933.2073,-85.9637 941.3191,-92.7791 943.7987,-86.233"/>
</g>
<!-- 4 -->
<g id="node21" class="node">
<title>4</title>
<ellipse fill="#ffffff" stroke="#000000" cx="822.9094" cy="-80.5477" rx="14.7" ry="14.7"/>
<text text-anchor="middle" x="822.9094" y="-78.3477" font-family="Times,serif" font-size="9.00" fill="#000000">4</text>
</g>
<!-- num_lane_1&#45;&gt;4 -->
<g id="edge2" class="edge">
<title>num_lane_1&#45;&gt;4</title>
<path fill="none" stroke="#00ff00" stroke-width=".2964" d="M1046.9078,-137.9945C1002.0588,-133.6426 915.4729,-122.2778 846.9094,-95.397 846.0313,-95.0527 845.1495,-94.6762 844.2696,-94.2744"/>
<polygon fill="#00ff00" stroke="#00ff00" stroke-width=".2964" points="845.6196,-91.0238 835.1649,-89.306 842.2664,-97.1685 845.6196,-91.0238"/>
</g>
<!-- 5 -->
<g id="node22" class="node">
<title>5</title>
<ellipse fill="#ffffff" stroke="#000000" cx="870.9094" cy="-80.5477" rx="14.7" ry="14.7"/>
<text text-anchor="middle" x="870.9094" y="-78.3477" font-family="Times,serif" font-size="9.00" fill="#000000">5</text>
</g>
<!-- num_lane_1&#45;&gt;5 -->
<g id="edge3" class="edge">
<title>num_lane_1&#45;&gt;5</title>
<path fill="none" stroke="#00ff00" stroke-width=".1632" d="M1046.6838,-135.8928C1009.809,-129.733 946.0624,-116.9175 894.9094,-95.397 894.04,-95.0312 893.1657,-94.6365 892.292,-94.2192"/>
<polygon fill="#00ff00" stroke="#00ff00" stroke-width=".1632" points="893.6581,-90.9744 883.2165,-89.1791 890.2595,-97.094 893.6581,-90.9744"/>
</g>
<!-- num_lane_2 -->
<g id="node2" class="node">
<title>num_lane_2</title>
<polygon fill="#d3d3d3" stroke="#000000" points="188.9094,-149.397 128.9094,-149.397 128.9094,-131.397 188.9094,-131.397 188.9094,-149.397"/>
<text text-anchor="middle" x="158.9094" y="-138.197" font-family="Times,serif" font-size="9.00" fill="#000000">num_lane_2</text>
</g>
<!-- num_lane_2&#45;&gt;0 -->
<g id="edge61" class="edge">
<title>num_lane_2&#45;&gt;0</title>
<path fill="none" stroke="#00ff00" stroke-width=".1291" d="M184.0985,-131.3288C228.7807,-115.5924 325.1097,-83.2342 408.9094,-65.6985 554.3073,-35.2729 732.5124,-20.958 797.5905,-16.4705"/>
<polygon fill="#00ff00" stroke="#00ff00" stroke-width=".1291" points="797.9784,-19.9524 807.721,-15.7891 797.5086,-12.9682 797.9784,-19.9524"/>
</g>
<!-- num_lane_2&#45;&gt;1 -->
<g id="edge62" class="edge">
<title>num_lane_2&#45;&gt;1</title>
<path fill="none" stroke="#00ff00" stroke-width=".2404" d="M147.8266,-131.3614C130.5524,-116.2392 101.0492,-85.5157 119.9094,-65.6985 175.6658,-7.1128 769.6874,-53.7362 846.9094,-29.6985 847.81,-29.4182 848.7108,-29.096 849.6068,-28.74"/>
<polygon fill="#00ff00" stroke="#00ff00" stroke-width=".2404" points="851.5167,-31.6924 858.7865,-23.9852 848.2972,-25.4767 851.5167,-31.6924"/>
</g>
<!-- num_lane_2&#45;&gt;2 -->
<g id="edge63" class="edge">
<title>num_lane_2&#45;&gt;2</title>
<path fill="none" stroke="#00ff00" stroke-width=".1098" d="M183.0657,-131.3024C227.3282,-115.0701 324.7236,-81.3471 409.9094,-65.6985 622.5007,-26.6456 689.3346,-96.4758 894.9094,-29.6985 895.8065,-29.4071 896.7043,-29.0756 897.5978,-28.7116"/>
<polygon fill="#00ff00" stroke="#00ff00" stroke-width=".1098" points="899.5245,-31.6538 906.7657,-23.9198 896.282,-25.4501 899.5245,-31.6538"/>
</g>
<!-- num_lane_2&#45;&gt;3 -->
<g id="edge4" class="edge">
<title>num_lane_2&#45;&gt;3</title>
<path fill="none" stroke="#00ff00" stroke-width=".2715" d="M188.9104,-137.366C208.297,-135.4756 234.0775,-133.089 256.9094,-131.397 398.5244,-120.9021 759.4693,-138.0691 894.9094,-95.397 895.809,-95.1135 896.709,-94.7888 897.6043,-94.4305"/>
<polygon fill="#00ff00" stroke="#00ff00" stroke-width=".2715" points="899.519,-97.3801 906.7808,-89.6653 896.293,-91.1677 899.519,-97.3801"/>
</g>
<!-- num_lane_2&#45;&gt;4 -->
<g id="edge5" class="edge">
<title>num_lane_2&#45;&gt;4</title>
<path fill="none" stroke="#00ff00" stroke-width=".1034" d="M188.9317,-137.6243C208.3268,-135.8369 234.1087,-133.4681 256.9094,-131.397 466.1755,-112.3876 719.002,-89.8125 798.0617,-82.7623"/>
<polygon fill="#00ff00" stroke="#00ff00" stroke-width=".1034" points="798.3918,-86.2469 808.0415,-81.8726 797.7701,-79.2745 798.3918,-86.2469"/>
</g>
<!-- num_lane_2&#45;&gt;5 -->
<g id="edge6" class="edge">
<title>num_lane_2&#45;&gt;5</title>
<path fill="none" stroke="#ff0000" stroke-width=".3488" d="M188.9131,-137.4016C208.3008,-135.5253 234.0814,-133.1412 256.9094,-131.397 387.8826,-121.3895 721.7161,-135.1558 846.9094,-95.397 847.8084,-95.1115 848.7078,-94.785 849.6026,-94.4252"/>
<polygon fill="#ff0000" stroke="#ff0000" stroke-width=".3488" points="851.5204,-97.3729 858.7769,-89.6532 848.2902,-91.1627 851.5204,-97.3729"/>
</g>
<!-- ego_velocity -->
<g id="node3" class="node">
<title>ego_velocity</title>
<polygon fill="#d3d3d3" stroke="#000000" points="1684.9094,-149.397 1622.9094,-149.397 1622.9094,-131.397 1684.9094,-131.397 1684.9094,-149.397"/>
<text text-anchor="middle" x="1653.9094" y="-138.197" font-family="Times,serif" font-size="9.00" fill="#000000">ego_velocity</text>
</g>
<!-- ego_velocity&#45;&gt;0 -->
<g id="edge64" class="edge">
<title>ego_velocity&#45;&gt;0</title>
<path fill="none" stroke="#00ff00" stroke-width=".4785" d="M1622.7093,-132.7342C1559.6714,-117.5443 1412.4395,-83.5441 1286.9094,-65.6985 1092.6535,-38.0827 1033.29,-91.0192 846.9094,-29.6985 846.0135,-29.4037 845.1165,-29.0693 844.2239,-28.7029"/>
<polygon fill="#00ff00" stroke="#00ff00" stroke-width=".4785" points="845.5416,-25.442 835.0596,-23.8999 842.2921,-31.6421 845.5416,-25.442"/>
</g>
<!-- ego_velocity&#45;&gt;1 -->
<g id="edge65" class="edge">
<title>ego_velocity&#45;&gt;1</title>
<path fill="none" stroke="#ff0000" stroke-width=".1045" d="M1622.607,-132.8455C1559.3664,-117.8557 1411.6802,-84.1976 1285.9094,-65.6985 1113.2542,-40.3034 1060.401,-85.0813 894.9094,-29.6985 894.015,-29.3992 893.1193,-29.0609 892.2278,-28.6912"/>
<polygon fill="#ff0000" stroke="#ff0000" stroke-width=".1045" points="893.5482,-25.4311 883.0685,-23.873 890.2892,-31.6262 893.5482,-25.4311"/>
</g>
<!-- ego_velocity&#45;&gt;2 -->
<g id="edge66" class="edge">
<title>ego_velocity&#45;&gt;2</title>
<path fill="none" stroke="#00ff00" stroke-width=".3062" d="M1685.247,-135.3347C1708.2962,-129.7935 1738.0886,-118.4137 1752.9094,-95.397 1760.0553,-84.2993 1761.9543,-75.3116 1752.9094,-65.6985 1724.4779,-35.4808 1080.5803,-18.6573 944.16,-15.4253"/>
<polygon fill="#00ff00" stroke="#00ff00" stroke-width=".3062" points="943.962,-11.9198 933.8828,-15.185 943.7982,-18.9179 943.962,-11.9198"/>
</g>
<!-- ego_velocity&#45;&gt;3 -->
<g id="edge7" class="edge">
<title>ego_velocity&#45;&gt;3</title>
<path fill="none" stroke="#00ff00" stroke-width=".3758" d="M1622.7054,-137.4727C1603.2195,-135.6683 1577.6078,-133.336 1554.9094,-131.397 1317.54,-111.119 1030.1136,-89.0231 944.2777,-82.4763"/>
<polygon fill="#00ff00" stroke="#00ff00" stroke-width=".3758" points="944.4105,-78.9764 934.1735,-81.7065 943.8787,-85.9561 944.4105,-78.9764"/>
</g>
<!-- ego_velocity&#45;&gt;4 -->
<g id="edge8" class="edge">
<title>ego_velocity&#45;&gt;4</title>
<path fill="none" stroke="#00ff00" stroke-width=".3895" d="M1622.7235,-137.2411C1603.2444,-135.3495 1577.6335,-133.007 1554.9094,-131.397 1397.7667,-120.2634 997.296,-142.3188 846.9094,-95.397 846.009,-95.116 845.1083,-94.7934 844.2125,-94.4369"/>
<polygon fill="#00ff00" stroke="#00ff00" stroke-width=".3895" points="845.5224,-91.1737 835.0334,-89.6801 842.3016,-97.3888 845.5224,-91.1737"/>
</g>
<!-- ego_velocity&#45;&gt;5 -->
<g id="edge9" class="edge">
<title>ego_velocity&#45;&gt;5</title>
<path fill="none" stroke="#00ff00" stroke-width=".4148" d="M1622.7214,-137.2705C1603.2415,-135.3901 1577.6305,-133.0489 1554.9094,-131.397 1408.4114,-120.7461 1035.0466,-139.4046 894.9094,-95.397 894.0095,-95.1144 893.1093,-94.7903 892.2138,-94.4326"/>
<polygon fill="#00ff00" stroke="#00ff00" stroke-width=".4148" points="893.5247,-91.1697 883.0365,-89.6703 890.3004,-97.383 893.5247,-91.1697"/>
</g>
<!-- dx1 -->
<g id="node4" class="node">
<title>dx1</title>
<polygon fill="#d3d3d3" stroke="#000000" points="523.9094,-149.397 493.9094,-149.397 493.9094,-131.397 523.9094,-131.397 523.9094,-149.397"/>
<text text-anchor="middle" x="508.9094" y="-138.197" font-family="Times,serif" font-size="9.00" fill="#000000">dx1</text>
</g>
<!-- dx1&#45;&gt;0 -->
<g id="edge67" class="edge">
<title>dx1&#45;&gt;0</title>
<path fill="none" stroke="#ff0000" stroke-width=".2889" d="M524.0906,-132.5733C552.2081,-118.2495 614.487,-87.3002 668.9094,-65.6985 713.8559,-47.858 767.8094,-31.0683 798.4538,-21.9496"/>
<polygon fill="#ff0000" stroke="#ff0000" stroke-width=".2889" points="799.6667,-25.241 808.268,-19.0549 797.6863,-18.527 799.6667,-25.241"/>
</g>
<!-- dx1&#45;&gt;1 -->
<g id="edge68" class="edge">
<title>dx1&#45;&gt;1</title>
<path fill="none" stroke="#00ff00" stroke-width=".2935" d="M495.6644,-131.1825C475.8667,-116.3323 442.8218,-86.6541 461.9094,-65.6985 519.7727,-2.1722 765.442,-57.0265 846.9094,-29.6985 847.8036,-29.3985 848.6991,-29.0597 849.5905,-28.6896"/>
<polygon fill="#00ff00" stroke="#00ff00" stroke-width=".2935" points="851.53,-31.624 858.749,-23.8692 848.2697,-25.4296 851.53,-31.624"/>
</g>
<!-- dx1&#45;&gt;2 -->
<g id="edge69" class="edge">
<title>dx1&#45;&gt;2</title>
<path fill="none" stroke="#00ff00" stroke-width=".1229" d="M524.0891,-133.4055C556.236,-118.8506 633.8243,-85.0444 701.9094,-65.6985 785.8441,-41.849 813.5331,-61.1902 894.9094,-29.6985 895.789,-29.3581 896.6721,-28.9849 897.553,-28.5858"/>
<polygon fill="#00ff00" stroke="#00ff00" stroke-width=".1229" points="899.5509,-31.4834 906.6628,-23.6303 896.2059,-25.3343 899.5509,-31.4834"/>
</g>
<!-- dx1&#45;&gt;3 -->
<g id="edge10" class="edge">
<title>dx1&#45;&gt;3</title>
<path fill="none" stroke="#ff0000" stroke-width=".4945" d="M524.1918,-138.8035C593.6571,-131.5362 877.0291,-101.6227 894.9094,-95.397 895.8001,-95.0868 896.6926,-94.7394 897.5816,-94.3619"/>
<polygon fill="#ff0000" stroke="#ff0000" stroke-width=".4945" points="899.5361,-97.287 906.7285,-89.5075 896.2546,-91.1039 899.5361,-97.287"/>
</g>
<!-- dx1&#45;&gt;4 -->
<g id="edge11" class="edge">
<title>dx1&#45;&gt;4</title>
<path fill="none" stroke="#00ff00" stroke-width=".3165" d="M524.0543,-137.5103C574.3257,-127.9285 735.9923,-97.1144 798.1971,-85.258"/>
<polygon fill="#00ff00" stroke="#00ff00" stroke-width=".3165" points="799.1126,-88.6466 808.2804,-83.3361 797.8019,-81.7704 799.1126,-88.6466"/>
</g>
<!-- dx1&#45;&gt;5 -->
<g id="edge12" class="edge">
<title>dx1&#45;&gt;5</title>
<path fill="none" stroke="#00ff00" stroke-width=".4859" d="M523.989,-138.7665C585.5521,-132.0586 816.0402,-106.4283 846.9094,-95.397 847.7976,-95.0796 848.6879,-94.7259 849.575,-94.3433"/>
<polygon fill="#00ff00" stroke="#00ff00" stroke-width=".4859" points="851.5401,-97.2618 858.7134,-89.4647 848.2434,-91.0867 851.5401,-97.2618"/>
</g>
<!-- dy1 -->
<g id="node5" class="node">
<title>dy1</title>
<polygon fill="#d3d3d3" stroke="#000000" points="85.9094,-149.397 55.9094,-149.397 55.9094,-131.397 85.9094,-131.397 85.9094,-149.397"/>
<text text-anchor="middle" x="70.9094" y="-138.197" font-family="Times,serif" font-size="9.00" fill="#000000">dy1</text>
</g>
<!-- dy1&#45;&gt;0 -->
<g id="edge70" class="edge">
<title>dy1&#45;&gt;0</title>
<path fill="none" stroke="#ff0000" stroke-width=".1336" d="M86.0564,-134.0116C121.7262,-119.2727 214.1026,-82.8326 294.9094,-65.6985 485.5297,-25.2796 721.7513,-16.9378 797.9667,-15.26"/>
<polygon fill="#ff0000" stroke="#ff0000" stroke-width=".1336" points="798.0985,-18.7581 808.0261,-15.0578 797.9577,-11.7595 798.0985,-18.7581"/>
</g>
<!-- dy1&#45;&gt;1 -->
<g id="edge71" class="edge">
<title>dy1&#45;&gt;1</title>
<path fill="none" stroke="#ff0000" stroke-width=".3771" d="M55.8064,-134.864C40.094,-128.1956 16.3561,-115.3352 5.9094,-95.397 -.2165,-83.7053 -3.2222,-75.2293 5.9094,-65.6985 70.6154,1.8366 757.5133,-57.1977 846.9094,-29.6985 847.8109,-29.4212 848.7125,-29.1016 849.6092,-28.7477"/>
<polygon fill="#ff0000" stroke="#ff0000" stroke-width=".3771" points="851.5145,-31.7029 858.792,-24.003 848.3012,-25.484 851.5145,-31.7029"/>
</g>
<!-- dy1&#45;&gt;2 -->
<g id="edge72" class="edge">
<title>dy1&#45;&gt;2</title>
<path fill="none" stroke="#ff0000" stroke-width=".4438" d="M86.0349,-133.5734C120.8212,-118.2438 209.5437,-81.2077 287.9094,-65.6985 553.0192,-13.2311 637.2651,-111.2795 894.9094,-29.6985 895.8086,-29.4138 896.7083,-29.0879 897.6033,-28.7287"/>
<polygon fill="#ff0000" stroke="#ff0000" stroke-width=".4438" points="899.5199,-31.6771 906.7784,-23.9592 896.2912,-25.4661 899.5199,-31.6771"/>
</g>
<!-- dy1&#45;&gt;3 -->
<g id="edge13" class="edge">
<title>dy1&#45;&gt;3</title>
<path fill="none" stroke="#ff0000" stroke-width=".4554" d="M86.2776,-137.0222C95.8934,-135.0483 108.5665,-132.6961 119.9094,-131.397 291.1976,-111.7793 730.2143,-146.3872 894.9094,-95.397 895.8104,-95.118 896.7116,-94.7971 897.6079,-94.442"/>
<polygon fill="#ff0000" stroke="#ff0000" stroke-width=".4554" points="899.5157,-97.3957 906.789,-89.6918 896.299,-91.1785 899.5157,-97.3957"/>
</g>
<!-- dy1&#45;&gt;4 -->
<g id="edge14" class="edge">
<title>dy1&#45;&gt;4</title>
<path fill="none" stroke="#00ff00" stroke-width=".1516" d="M86.29,-137.1251C95.9106,-135.1899 108.5842,-132.8422 119.9094,-131.397 383.834,-97.7166 706.5645,-84.5669 797.8187,-81.3691"/>
<polygon fill="#00ff00" stroke="#00ff00" stroke-width=".1516" points="798.1337,-84.8604 808.008,-81.0201 797.894,-77.8645 798.1337,-84.8604"/>
</g>
<!-- dy1&#45;&gt;5 -->
<g id="edge15" class="edge">
<title>dy1&#45;&gt;5</title>
<path fill="none" stroke="#ff0000" stroke-width=".1922" d="M86.279,-137.0344C95.8954,-135.0651 108.5685,-132.7134 119.9094,-131.397 280.584,-112.7457 692.4654,-143.4724 846.9094,-95.397 847.81,-95.1166 848.7108,-94.7945 849.6068,-94.4384"/>
<polygon fill="#ff0000" stroke="#ff0000" stroke-width=".1922" points="851.5167,-97.3909 858.7865,-89.6836 848.2972,-91.1752 851.5167,-97.3909"/>
</g>
<!-- dx2 -->
<g id="node6" class="node">
<title>dx2</title>
<polygon fill="#d3d3d3" stroke="#000000" points="637.9094,-149.397 607.9094,-149.397 607.9094,-131.397 637.9094,-131.397 637.9094,-149.397"/>
<text text-anchor="middle" x="622.9094" y="-138.197" font-family="Times,serif" font-size="9.00" fill="#000000">dx2</text>
</g>
<!-- dx2&#45;&gt;0 -->
<g id="edge73" class="edge">
<title>dx2&#45;&gt;0</title>
<path fill="none" stroke="#00ff00" stroke-width=".2644" d="M631.9886,-131.1726C647.2386,-116.0454 679.4283,-85.6557 710.9094,-65.6985 739.6603,-47.472 776.0331,-32.2279 799.3874,-23.3192"/>
<polygon fill="#00ff00" stroke="#00ff00" stroke-width=".2644" points="800.6899,-26.5689 808.8333,-19.7913 798.2407,-20.0113 800.6899,-26.5689"/>
</g>
<!-- dx2&#45;&gt;1 -->
<g id="edge74" class="edge">
<title>dx2&#45;&gt;1</title>
<path fill="none" stroke="#00ff00" stroke-width=".1728" d="M609.7592,-131.2671C590.0943,-116.5356 557.2323,-87.0208 575.9094,-65.6985 615.9388,-19.9999 789.6983,-50.1339 846.9094,-29.6985 847.7976,-29.3812 848.688,-29.0277 849.5751,-28.6452"/>
<polygon fill="#00ff00" stroke="#00ff00" stroke-width=".1728" points="851.54,-31.5638 858.7136,-23.767 848.2436,-25.3885 851.54,-31.5638"/>
</g>
<!-- dx2&#45;&gt;2 -->
<g id="edge75" class="edge">
<title>dx2&#45;&gt;2</title>
<path fill="none" stroke="#ff0000" stroke-width=".1475" d="M637.8603,-131.2422C663.3523,-115.9444 717.2054,-84.9689 765.9094,-65.6985 821.2584,-43.7988 840.3927,-53.5949 894.9094,-29.6985 895.7733,-29.3198 896.6429,-28.9142 897.5126,-28.4877"/>
<polygon fill="#ff0000" stroke="#ff0000" stroke-width=".1475" points="899.5622,-31.351 906.5696,-23.4044 896.1362,-25.2466 899.5622,-31.351"/>
</g>
<!-- dx2&#45;&gt;3 -->
<g id="edge16" class="edge">
<title>dx2&#45;&gt;3</title>
<path fill="none" stroke="#ff0000" stroke-width=".2947" d="M638.2468,-138.6546C688.3665,-132.8374 846.848,-113.4333 894.9094,-95.397 895.7925,-95.0656 896.6784,-94.7001 897.5619,-94.3074"/>
<polygon fill="#ff0000" stroke="#ff0000" stroke-width=".2947" points="899.547,-97.2132 906.6831,-89.3821 896.221,-91.0538 899.547,-97.2132"/>
</g>
<!-- dx2&#45;&gt;4 -->
<g id="edge17" class="edge">
<title>dx2&#45;&gt;4</title>
<path fill="none" stroke="#ff0000" stroke-width=".213" d="M637.9419,-135.8985C672.362,-125.5985 757.1328,-100.2311 798.8837,-87.7373"/>
<polygon fill="#ff0000" stroke="#ff0000" stroke-width=".213" points="799.9378,-91.0753 808.5146,-84.8553 797.9309,-84.3692 799.9378,-91.0753"/>
</g>
<!-- dx2&#45;&gt;5 -->
<g id="edge18" class="edge">
<title>dx2&#45;&gt;5</title>
<path fill="none" stroke="#ff0000" stroke-width=".1605" d="M638.1072,-139.2128C675.0485,-135.9409 772.0177,-124.9769 846.9094,-95.397 847.7867,-95.0505 848.6677,-94.6721 849.5469,-94.2687"/>
<polygon fill="#ff0000" stroke="#ff0000" stroke-width=".1605" points="851.5532,-97.1608 858.6488,-89.2929 848.1954,-91.0187 851.5532,-97.1608"/>
</g>
<!-- dy2 -->
<g id="node7" class="node">
<title>dy2</title>
<polygon fill="#d3d3d3" stroke="#000000" points="295.9094,-149.397 265.9094,-149.397 265.9094,-131.397 295.9094,-131.397 295.9094,-149.397"/>
<text text-anchor="middle" x="280.9094" y="-138.197" font-family="Times,serif" font-size="9.00" fill="#000000">dy2</text>
</g>
<!-- dy2&#45;&gt;0 -->
<g id="edge76" class="edge">
<title>dy2&#45;&gt;0</title>
<path fill="none" stroke="#ff0000" stroke-width=".2104" d="M296.1593,-134.7361C333.3877,-121.1011 432.0791,-86.0632 516.9094,-65.6985 620.0637,-40.9348 745.6515,-24.1735 798.0699,-17.7619"/>
<polygon fill="#ff0000" stroke="#ff0000" stroke-width=".2104" points="798.6011,-21.2233 808.1104,-16.5516 797.7634,-14.2736 798.6011,-21.2233"/>
</g>
<!-- dy2&#45;&gt;1 -->
<g id="edge77" class="edge">
<title>dy2&#45;&gt;1</title>
<path fill="none" stroke="#00ff00" stroke-width=".5837" d="M267.9033,-131.3468C248.0278,-116.4702 214.3573,-86.4325 233.9094,-65.6985 280.7186,-16.0596 781.8579,-50.2758 846.9094,-29.6985 847.8087,-29.414 848.7084,-29.0884 849.6035,-28.7294"/>
<polygon fill="#00ff00" stroke="#00ff00" stroke-width=".5837" points="851.5197,-31.678 858.7789,-23.9608 848.2916,-25.4667 851.5197,-31.678"/>
</g>
<!-- dy2&#45;&gt;2 -->
<g id="edge78" class="edge">
<title>dy2&#45;&gt;2</title>
<path fill="none" stroke="#ff0000" stroke-width=".2694" d="M295.9344,-134.4675C333.0892,-120.0743 432.5331,-83.1888 518.9094,-65.6985 683.4455,-32.3817 735.8095,-83.2646 894.9094,-29.6985 895.8033,-29.3975 896.6985,-29.0579 897.5896,-28.687"/>
<polygon fill="#ff0000" stroke="#ff0000" stroke-width=".2694" points="899.5306,-31.6205 906.7471,-23.8633 896.2683,-25.4272 899.5306,-31.6205"/>
</g>
<!-- dy2&#45;&gt;3 -->
<g id="edge19" class="edge">
<title>dy2&#45;&gt;3</title>
<path fill="none" stroke="#ff0000" stroke-width=".2789" d="M296,-139.049C316.5533,-137.2283 354.5021,-133.9209 386.9094,-131.397 499.7397,-122.6095 787.2154,-130.1806 894.9094,-95.397 895.8069,-95.1071 896.7052,-94.7768 897.599,-94.4139"/>
<polygon fill="#ff0000" stroke="#ff0000" stroke-width=".2789" points="899.5235,-97.3575 906.7686,-89.6272 896.2841,-91.1522 899.5235,-97.3575"/>
</g>
<!-- dy2&#45;&gt;4 -->
<g id="edge20" class="edge">
<title>dy2&#45;&gt;4</title>
<path fill="none" stroke="#ff0000" stroke-width=".2221" d="M295.9713,-138.7338C370.8824,-130.4619 703.4757,-93.7359 797.8603,-83.3137"/>
<polygon fill="#ff0000" stroke="#ff0000" stroke-width=".2221" points="798.3649,-86.7794 807.9203,-82.2029 797.5966,-79.8217 798.3649,-86.7794"/>
</g>
<!-- dy2&#45;&gt;5 -->
<g id="edge21" class="edge">
<title>dy2&#45;&gt;5</title>
<path fill="none" stroke="#ff0000" stroke-width=".289" d="M296.0028,-139.0839C316.5592,-137.3028 354.5116,-134.0401 386.9094,-131.397 591.2999,-114.7223 651.9991,-159.1425 846.9094,-95.397 847.8059,-95.1038 848.7032,-94.7707 849.5963,-94.4054"/>
<polygon fill="#ff0000" stroke="#ff0000" stroke-width=".289" points="851.5257,-97.3461 858.7623,-89.6077 848.2794,-91.1443 851.5257,-97.3461"/>
</g>
<!-- &#45;8 -->
<g id="node8" class="node">
<title>&#45;8</title>
<polygon fill="#d3d3d3" stroke="#000000" points="1430.9094,-149.397 1406.9094,-149.397 1406.9094,-131.397 1430.9094,-131.397 1430.9094,-149.397"/>
<text text-anchor="middle" x="1418.9094" y="-138.197" font-family="Times,serif" font-size="9.00" fill="#000000">&#45;8</text>
</g>
<!-- &#45;8&#45;&gt;0 -->
<g id="edge79" class="edge">
<title>&#45;8&#45;&gt;0</title>
<path fill="none" stroke="#ff0000" stroke-width=".2751" d="M1406.8572,-136.8272C1366.7438,-125.0623 1233.94,-87.0449 1121.9094,-65.6985 1000.8228,-42.6265 963.0307,-71.052 846.9094,-29.6985 846.0209,-29.3821 845.1303,-29.0293 844.2429,-28.6473"/>
<polygon fill="#ff0000" stroke="#ff0000" stroke-width=".2751" points="845.5739,-25.3905 835.1034,-23.772 842.2792,-31.5667 845.5739,-25.3905"/>
</g>
<!-- &#45;8&#45;&gt;1 -->
<g id="edge80" class="edge">
<title>&#45;8&#45;&gt;1</title>
<path fill="none" stroke="#ff0000" stroke-width=".5863" d="M1406.7243,-136.8458C1366.7664,-125.2967 1235.9623,-88.2495 1125.9094,-65.6985 1024.1185,-44.8404 992.3604,-65.7504 894.9094,-29.6985 894.0248,-29.3712 893.1375,-29.0092 892.253,-28.6196"/>
<polygon fill="#ff0000" stroke="#ff0000" stroke-width=".5863" points="893.5911,-25.365 883.1266,-23.708 890.2737,-31.5291 893.5911,-25.365"/>
</g>
<!-- &#45;8&#45;&gt;2 -->
<g id="edge81" class="edge">
<title>&#45;8&#45;&gt;2</title>
<path fill="none" stroke="#ff0000" stroke-width=".3274" d="M1431.0433,-138.6019C1472.947,-132.2838 1609.6797,-110.6345 1621.9094,-95.397 1630.1713,-85.1031 1630.8998,-75.3626 1621.9094,-65.6985 1598.3441,-40.3671 1067.617,-20.1028 944.3299,-15.7268"/>
<polygon fill="#ff0000" stroke="#ff0000" stroke-width=".3274" points="944.1193,-12.2173 934.0025,-15.3637 943.8733,-19.213 944.1193,-12.2173"/>
</g>
<!-- &#45;8&#45;&gt;3 -->
<g id="edge22" class="edge">
<title>&#45;8&#45;&gt;3</title>
<path fill="none" stroke="#ff0000" stroke-width=".4345" d="M1406.5498,-138.9175C1341.1541,-131.0898 1035.0712,-94.4521 944.3269,-83.5902"/>
<polygon fill="#ff0000" stroke="#ff0000" stroke-width=".4345" points="944.4744,-80.0829 934.1293,-82.3695 943.6424,-87.0333 944.4744,-80.0829"/>
</g>
<!-- &#45;8&#45;&gt;4 -->
<g id="edge23" class="edge">
<title>&#45;8&#45;&gt;4</title>
<path fill="none" stroke="#00ff00" stroke-width=".2574" d="M1406.8162,-139.0341C1390.0222,-137.1669 1358.6811,-133.7748 1331.9094,-131.397 1224.2589,-121.8356 949.6968,-128.7856 846.9094,-95.397 846.0124,-95.1056 845.1145,-94.774 844.221,-94.4101"/>
<polygon fill="#00ff00" stroke="#00ff00" stroke-width=".2574" points="845.5368,-91.1486 835.0531,-89.6183 842.2943,-97.3523 845.5368,-91.1486"/>
</g>
<!-- &#45;8&#45;&gt;5 -->
<g id="edge24" class="edge">
<title>&#45;8&#45;&gt;5</title>
<path fill="none" stroke="#ff0000" stroke-width=".2286" d="M1406.8133,-139.065C1390.0162,-137.2339 1358.6712,-133.8832 1331.9094,-131.397 1137.8649,-113.3695 1080.0107,-156.3541 894.9094,-95.397 894.0135,-95.1019 893.1167,-94.7673 892.2241,-94.4007"/>
<polygon fill="#ff0000" stroke="#ff0000" stroke-width=".2286" points="893.542,-91.1399 883.0601,-89.5969 890.2919,-97.3397 893.542,-91.1399"/>
</g>
<!-- &#45;9 -->
<g id="node9" class="node">
<title>&#45;9</title>
<polygon fill="#d3d3d3" stroke="#000000" points="883.9094,-149.397 859.9094,-149.397 859.9094,-131.397 883.9094,-131.397 883.9094,-149.397"/>
<text text-anchor="middle" x="871.9094" y="-138.197" font-family="Times,serif" font-size="9.00" fill="#000000">&#45;9</text>
</g>
<!-- &#45;9&#45;&gt;0 -->
<g id="edge82" class="edge">
<title>&#45;9&#45;&gt;0</title>
<path fill="none" stroke="#00ff00" stroke-width=".2499" d="M859.7278,-134.7076C840.7561,-125.5672 805.6226,-107.4214 798.9094,-95.397 788.2867,-76.3699 798.2258,-52.1302 808.3515,-35.2351"/>
<polygon fill="#00ff00" stroke="#00ff00" stroke-width=".2499" points="811.3876,-36.985 813.8666,-26.6843 805.5051,-33.1908 811.3876,-36.985"/>
</g>
<!-- &#45;9&#45;&gt;1 -->
<g id="edge83" class="edge">
<title>&#45;9&#45;&gt;1</title>
<path fill="none" stroke="#ff0000" stroke-width=".1691" d="M884.1795,-136.7487C900.9538,-131.022 930.3884,-118.1569 942.9094,-95.397 949.2716,-83.8322 948.9805,-77.4187 942.9094,-65.6985 940.0863,-60.2486 912.5253,-41.6596 892.3405,-28.5397"/>
<polygon fill="#ff0000" stroke="#ff0000" stroke-width=".1691" points="894.0008,-25.4456 883.7008,-22.9634 890.2048,-31.327 894.0008,-25.4456"/>
</g>
<!-- &#45;9&#45;&gt;2 -->
<g id="edge84" class="edge">
<title>&#45;9&#45;&gt;2</title>
<path fill="none" stroke="#ff0000" stroke-width=".2557" d="M884.1781,-138.2037C903.99,-133.9281 942.4655,-122.4158 958.9094,-95.397 971.7448,-74.3072 953.4631,-48.5398 937.6078,-31.9196"/>
<polygon fill="#ff0000" stroke="#ff0000" stroke-width=".2557" points="939.7362,-29.1019 930.1661,-24.556 934.8126,-34.0776 939.7362,-29.1019"/>
</g>
<!-- &#45;9&#45;&gt;3 -->
<g id="edge25" class="edge">
<title>&#45;9&#45;&gt;3</title>
<path fill="none" stroke="#ff0000" stroke-width=".3223" d="M879.0477,-131.3072C885.3874,-123.2342 894.8811,-111.1451 903.0132,-100.7898"/>
<polygon fill="#ff0000" stroke="#ff0000" stroke-width=".3223" points="906.0012,-102.6518 909.4248,-92.6253 900.4958,-98.3284 906.0012,-102.6518"/>
</g>
<!-- &#45;9&#45;&gt;4 -->
<g id="edge26" class="edge">
<title>&#45;9&#45;&gt;4</title>
<path fill="none" stroke="#00ff00" stroke-width=".1155" d="M864.4674,-131.3072C857.7073,-123.0503 847.5075,-110.5922 838.9048,-100.0848"/>
<polygon fill="#00ff00" stroke="#00ff00" stroke-width=".1155" points="841.4874,-97.7141 832.4443,-92.1938 836.0711,-102.1485 841.4874,-97.7141"/>
</g>
<!-- &#45;9&#45;&gt;5 -->
<g id="edge27" class="edge">
<title>&#45;9&#45;&gt;5</title>
<path fill="none" stroke="#00ff00" stroke-width=".1818" d="M871.7575,-131.3072C871.6444,-124.5382 871.4841,-114.9456 871.3333,-105.919"/>
<polygon fill="#00ff00" stroke="#00ff00" stroke-width=".1818" points="874.8307,-105.7258 871.164,-95.7857 867.8317,-105.8428 874.8307,-105.7258"/>
</g>
<!-- &#45;10 -->
<g id="node10" class="node">
<title>&#45;10</title>
<polygon fill="#d3d3d3" stroke="#000000" points="962.4094,-149.397 933.4094,-149.397 933.4094,-131.397 962.4094,-131.397 962.4094,-149.397"/>
<text text-anchor="middle" x="947.9094" y="-138.197" font-family="Times,serif" font-size="9.00" fill="#000000">&#45;10</text>
</g>
<!-- &#45;10&#45;&gt;0 -->
<g id="edge85" class="edge">
<title>&#45;10&#45;&gt;0</title>
<path fill="none" stroke="#ff0000" stroke-width=".2872" d="M950.2282,-131.0474C953.4383,-115.7402 957.3358,-85.0977 942.9094,-65.6985 915.7172,-29.1331 887.8129,-49.782 846.9094,-29.6985 846.0628,-29.2828 845.2077,-28.8456 844.3504,-28.3926"/>
<polygon fill="#ff0000" stroke="#ff0000" stroke-width=".2872" points="845.7593,-25.1642 835.3508,-23.1856 842.2536,-31.2231 845.7593,-25.1642"/>
</g>
<!-- &#45;10&#45;&gt;1 -->
<g id="edge86" class="edge">
<title>&#45;10&#45;&gt;1</title>
<path fill="none" stroke="#00ff00" stroke-width=".197" d="M952.9199,-130.935C960.0761,-115.9991 971.086,-86.5185 958.9094,-65.6985 942.4334,-37.5271 923.0143,-46.2878 894.9094,-29.6985 894.0972,-29.219 893.2714,-28.7277 892.4386,-28.2291"/>
<polygon fill="#00ff00" stroke="#00ff00" stroke-width=".197" points="893.9136,-25.029 883.5539,-22.8092 890.2682,-31.0049 893.9136,-25.029"/>
</g>
<!-- &#45;10&#45;&gt;2 -->
<g id="edge87" class="edge">
<title>&#45;10&#45;&gt;2</title>
<path fill="none" stroke="#00ff00" stroke-width=".4141" d="M962.533,-138.455C1009.2881,-132.1022 1152.851,-111.4263 1165.9094,-95.397 1174.2461,-85.1636 1174.2488,-75.9296 1165.9094,-65.6985 1138.0389,-31.5059 1000.9995,-19.6361 943.9268,-16.1324"/>
<polygon fill="#00ff00" stroke="#00ff00" stroke-width=".4141" points="944.1243,-12.638 933.9391,-15.5554 943.7206,-19.6264 944.1243,-12.638"/>
</g>
<!-- &#45;10&#45;&gt;3 -->
<g id="edge28" class="edge">
<title>&#45;10&#45;&gt;3</title>
<path fill="none" stroke="#00ff00" stroke-width=".3063" d="M943.5049,-131.3072C939.8923,-123.8515 934.6198,-112.9702 929.8821,-103.1928"/>
<polygon fill="#00ff00" stroke="#00ff00" stroke-width=".3063" points="932.9144,-101.4241 925.404,-93.9511 926.6149,-104.4765 932.9144,-101.4241"/>
</g>
<!-- &#45;10&#45;&gt;4 -->
<g id="edge29" class="edge">
<title>&#45;10&#45;&gt;4</title>
<path fill="none" stroke="#00ff00" stroke-width=".2536" d="M933.2333,-134.5886C913.3127,-126.541 876.7734,-111.1961 846.9094,-95.397 846.0757,-94.9559 845.2317,-94.4972 844.3836,-94.026"/>
<polygon fill="#00ff00" stroke="#00ff00" stroke-width=".2536" points="845.8171,-90.8078 835.4272,-88.7343 842.2564,-96.8345 845.8171,-90.8078"/>
</g>
<!-- &#45;10&#45;&gt;5 -->
<g id="edge30" class="edge">
<title>&#45;10&#45;&gt;5</title>
<path fill="none" stroke="#ff0000" stroke-width=".1032" d="M936.2148,-131.3072C924.2297,-121.9916 905.3645,-107.3284 890.9856,-96.1522"/>
<polygon fill="#ff0000" stroke="#ff0000" stroke-width=".1032" points="892.7575,-93.0966 882.7141,-89.7231 888.4617,-98.6234 892.7575,-93.0966"/>
</g>
<!-- &#45;11 -->
<g id="node11" class="node">
<title>&#45;11</title>
<polygon fill="#d3d3d3" stroke="#000000" points="839.4094,-149.397 810.4094,-149.397 810.4094,-131.397 839.4094,-131.397 839.4094,-149.397"/>
<text text-anchor="middle" x="824.9094" y="-138.197" font-family="Times,serif" font-size="9.00" fill="#000000">&#45;11</text>
</g>
<!-- &#45;11&#45;&gt;0 -->
<g id="edge88" class="edge">
<title>&#45;11&#45;&gt;0</title>
<path fill="none" stroke="#ff0000" stroke-width=".3524" d="M810.205,-138.4915C787.9028,-134.7225 746.191,-124.0312 727.9094,-95.397 720.8065,-84.2717 721.1269,-77.0219 727.9094,-65.6985 743.0126,-40.4837 775.3612,-27.0659 798.0977,-20.4623"/>
<polygon fill="#ff0000" stroke="#ff0000" stroke-width=".3524" points="799.3015,-23.7641 808.0703,-17.8177 797.5072,-16.9979 799.3015,-23.7641"/>
</g>
<!-- &#45;11&#45;&gt;1 -->
<g id="edge89" class="edge">
<title>&#45;11&#45;&gt;1</title>
<path fill="none" stroke="#ff0000" stroke-width=".3564" d="M817.1385,-131.3182C805.804,-116.9074 787.288,-88.1333 798.9094,-65.6985 801.7325,-60.2486 829.2935,-41.6596 849.4783,-28.5397"/>
<polygon fill="#ff0000" stroke="#ff0000" stroke-width=".3564" points="851.6141,-31.327 858.118,-22.9634 847.818,-25.4456 851.6141,-31.327"/>
</g>
<!-- &#45;11&#45;&gt;2 -->
<g id="edge90" class="edge">
<title>&#45;11&#45;&gt;2</title>
<path fill="none" stroke="#ff0000" stroke-width=".5734" d="M839.8618,-135.2022C870.9262,-124.3411 939.8309,-99.8657 942.9094,-95.397 955.4116,-77.2487 944.8086,-52.4788 934.0115,-35.2169"/>
<polygon fill="#ff0000" stroke="#ff0000" stroke-width=".5734" points="936.6252,-32.8318 928.1386,-26.4892 930.8176,-36.7397 936.6252,-32.8318"/>
</g>
<!-- &#45;11&#45;&gt;3 -->
<g id="edge31" class="edge">
<title>&#45;11&#45;&gt;3</title>
<path fill="none" stroke="#00ff00" stroke-width=".1869" d="M839.186,-131.3072C854.756,-121.3938 879.8378,-105.4244 897.7088,-94.046"/>
<polygon fill="#00ff00" stroke="#00ff00" stroke-width=".1869" points="899.7528,-96.8939 906.3084,-88.5707 895.9932,-90.9891 899.7528,-96.8939"/>
</g>
<!-- &#45;11&#45;&gt;4 -->
<g id="edge32" class="edge">
<title>&#45;11&#45;&gt;4</title>
<path fill="none" stroke="#00ff00" stroke-width=".2466" d="M824.6056,-131.3072C824.3794,-124.5382 824.0589,-114.9456 823.7572,-105.919"/>
<polygon fill="#00ff00" stroke="#00ff00" stroke-width=".2466" points="827.2507,-105.6632 823.4186,-95.7857 820.2547,-105.897 827.2507,-105.6632"/>
</g>
<!-- &#45;11&#45;&gt;5 -->
<g id="edge33" class="edge">
<title>&#45;11&#45;&gt;5</title>
<path fill="none" stroke="#ff0000" stroke-width=".2612" d="M831.8958,-131.3072C838.1007,-123.2342 847.3923,-111.1451 855.3514,-100.7898"/>
<polygon fill="#ff0000" stroke="#ff0000" stroke-width=".2612" points="858.3076,-102.6869 861.6266,-92.6253 852.7575,-98.4211 858.3076,-102.6869"/>
</g>
<!-- &#45;12 -->
<g id="node12" class="node">
<title>&#45;12</title>
<polygon fill="#d3d3d3" stroke="#000000" points="1212.4094,-149.397 1183.4094,-149.397 1183.4094,-131.397 1212.4094,-131.397 1212.4094,-149.397"/>
<text text-anchor="middle" x="1197.9094" y="-138.197" font-family="Times,serif" font-size="9.00" fill="#000000">&#45;12</text>
</g>
<!-- &#45;12&#45;&gt;0 -->
<g id="edge91" class="edge">
<title>&#45;12&#45;&gt;0</title>
<path fill="none" stroke="#ff0000" stroke-width=".4742" d="M1183.3141,-134.0946C1150.9533,-120.2922 1070.5324,-86.9334 1000.9094,-65.6985 933.6773,-45.1928 911.8713,-56.5424 846.9094,-29.6985 846.0377,-29.3383 845.1614,-28.9483 844.2861,-28.535"/>
<polygon fill="#ff0000" stroke="#ff0000" stroke-width=".4742" points="845.6479,-25.2886 835.2028,-23.5134 842.261,-31.4148 845.6479,-25.2886"/>
</g>
<!-- &#45;12&#45;&gt;1 -->
<g id="edge92" class="edge">
<title>&#45;12&#45;&gt;1</title>
<path fill="none" stroke="#00ff00" stroke-width=".3618" d="M1182.9458,-134.0077C1151.2963,-120.5925 1075.1186,-88.8235 1009.9094,-65.6985 959.4325,-47.7979 943.6193,-51.9627 894.9094,-29.6985 894.0516,-29.3064 893.187,-28.8893 892.3217,-28.4532"/>
<polygon fill="#00ff00" stroke="#00ff00" stroke-width=".3618" points="893.7094,-25.2164 883.2847,-23.325 890.2546,-31.3045 893.7094,-25.2164"/>
</g>
<!-- &#45;12&#45;&gt;2 -->
<g id="edge93" class="edge">
<title>&#45;12&#45;&gt;2</title>
<path fill="none" stroke="#00ff00" stroke-width=".2122" d="M1212.7051,-139.3138C1254.369,-135.9265 1371.1258,-124.0043 1393.9094,-95.397 1402.1324,-85.0721 1402.732,-75.516 1393.9094,-65.6985 1363.5785,-31.9473 1037.9543,-18.7406 944.0945,-15.6185"/>
<polygon fill="#00ff00" stroke="#00ff00" stroke-width=".2122" points="943.9404,-12.1118 933.8326,-15.2871 943.7143,-19.1082 943.9404,-12.1118"/>
</g>
<!-- &#45;12&#45;&gt;3 -->
<g id="edge34" class="edge">
<title>&#45;12&#45;&gt;3</title>
<path fill="none" stroke="#00ff00" stroke-width=".1912" d="M1183.302,-137.2635C1138.1141,-127.5701 1000.2436,-97.995 943.6016,-85.8445"/>
<polygon fill="#00ff00" stroke="#00ff00" stroke-width=".1912" points="944.2205,-82.3978 933.7088,-83.7224 942.7523,-89.2421 944.2205,-82.3978"/>
</g>
<!-- &#45;12&#45;&gt;4 -->
<g id="edge35" class="edge">
<title>&#45;12&#45;&gt;4</title>
<path fill="none" stroke="#00ff00" stroke-width=".1204" d="M1183.1566,-138.6827C1118.5528,-131.153 863.0861,-101.1336 846.9094,-95.397 846.0205,-95.0817 845.1295,-94.7299 844.2418,-94.3489"/>
<polygon fill="#00ff00" stroke="#00ff00" stroke-width=".1204" points="845.5721,-91.0918 835.1009,-89.4774 842.2799,-97.2693 845.5721,-91.0918"/>
</g>
<!-- &#45;12&#45;&gt;5 -->
<g id="edge36" class="edge">
<title>&#45;12&#45;&gt;5</title>
<path fill="none" stroke="#ff0000" stroke-width=".1948" d="M1183.2484,-138.5738C1126.4082,-131.4573 922.3781,-105.4473 894.9094,-95.397 894.0236,-95.0729 893.1354,-94.7136 892.25,-94.3262"/>
<polygon fill="#ff0000" stroke="#ff0000" stroke-width=".1948" points="893.586,-91.071 883.1197,-89.4252 890.2753,-97.2386 893.586,-91.071"/>
</g>
<!-- &#45;13 -->
<g id="node13" class="node">
<title>&#45;13</title>
<polygon fill="#d3d3d3" stroke="#000000" points="425.4094,-149.397 396.4094,-149.397 396.4094,-131.397 425.4094,-131.397 425.4094,-149.397"/>
<text text-anchor="middle" x="410.9094" y="-138.197" font-family="Times,serif" font-size="9.00" fill="#000000">&#45;13</text>
</g>
<!-- &#45;13&#45;&gt;0 -->
<g id="edge94" class="edge">
<title>&#45;13&#45;&gt;0</title>
<path fill="none" stroke="#00ff00" stroke-width=".176" d="M425.7337,-133.5884C457.1196,-119.3796 532.826,-86.1922 598.9094,-65.6985 669.887,-43.6871 756.223,-26.7774 797.9492,-19.2053"/>
<polygon fill="#00ff00" stroke="#00ff00" stroke-width=".176" points="798.797,-22.6092 808.0239,-17.402 797.5637,-15.7187 798.797,-22.6092"/>
</g>
<!-- &#45;13&#45;&gt;1 -->
<g id="edge95" class="edge">
<title>&#45;13&#45;&gt;1</title>
<path fill="none" stroke="#00ff00" stroke-width=".1071" d="M396.2562,-134.733C381.0144,-127.9527 357.9961,-114.9973 347.9094,-95.397 341.8696,-83.6606 338.9181,-75.3618 347.9094,-65.6985 385.7758,-25.0018 794.0224,-46.8173 846.9094,-29.6985 847.8068,-29.408 848.7049,-29.0773 849.5985,-28.714"/>
<polygon fill="#00ff00" stroke="#00ff00" stroke-width=".1071" points="851.5239,-31.6571 858.7675,-23.9253 848.2833,-25.4523 851.5239,-31.6571"/>
</g>
<!-- &#45;13&#45;&gt;2 -->
<g id="edge96" class="edge">
<title>&#45;13&#45;&gt;2</title>
<path fill="none" stroke="#ff0000" stroke-width=".33" d="M425.498,-133.6846C458.2561,-118.9085 540.4638,-83.4721 612.9094,-65.6985 735.6208,-35.5927 775.8139,-71.8968 894.9094,-29.6985 895.7984,-29.3835 896.6895,-29.0319 897.5772,-28.651"/>
<polygon fill="#ff0000" stroke="#ff0000" stroke-width=".33" points="899.5388,-31.5717 906.7184,-23.7804 896.2471,-25.3939 899.5388,-31.5717"/>
</g>
<!-- &#45;13&#45;&gt;3 -->
<g id="edge37" class="edge">
<title>&#45;13&#45;&gt;3</title>
<path fill="none" stroke="#ff0000" stroke-width=".1882" d="M425.6352,-138.4588C440.5573,-136.5295 464.3149,-133.5529 484.9094,-131.397 666.8386,-112.352 721.3196,-153.0817 894.9094,-95.397 895.8045,-95.0995 896.7006,-94.7629 897.5927,-94.3946"/>
<polygon fill="#ff0000" stroke="#ff0000" stroke-width=".1882" points="899.5284,-97.3313 906.754,-89.5826 896.2734,-91.1341 899.5284,-97.3313"/>
</g>
<!-- &#45;13&#45;&gt;4 -->
<g id="edge38" class="edge">
<title>&#45;13&#45;&gt;4</title>
<path fill="none" stroke="#ff0000" stroke-width=".2184" d="M425.5727,-138.2669C486.5084,-129.4151 720.1566,-95.4741 797.7193,-84.207"/>
<polygon fill="#ff0000" stroke="#ff0000" stroke-width=".2184" points="798.5983,-87.6161 807.9913,-82.7148 797.5919,-80.6888 798.5983,-87.6161"/>
</g>
<!-- &#45;13&#45;&gt;5 -->
<g id="edge39" class="edge">
<title>&#45;13&#45;&gt;5</title>
<path fill="none" stroke="#ff0000" stroke-width=".2187" d="M425.6406,-138.509C440.5669,-136.6186 464.3277,-133.6717 484.9094,-131.397 645.6134,-113.6358 693.7734,-147.268 846.9094,-95.397 847.8027,-95.0944 848.6974,-94.7533 849.5882,-94.3813"/>
<polygon fill="#ff0000" stroke="#ff0000" stroke-width=".2187" points="851.5317,-97.3133 858.7438,-89.5521 848.2659,-91.1218 851.5317,-97.3133"/>
</g>
<!-- &#45;14 -->
<g id="node14" class="node">
<title>&#45;14</title>
<polygon fill="#d3d3d3" stroke="#000000" points="1322.4094,-149.397 1293.4094,-149.397 1293.4094,-131.397 1322.4094,-131.397 1322.4094,-149.397"/>
<text text-anchor="middle" x="1307.9094" y="-138.197" font-family="Times,serif" font-size="9.00" fill="#000000">&#45;14</text>
</g>
<!-- &#45;14&#45;&gt;0 -->
<g id="edge97" class="edge">
<title>&#45;14&#45;&gt;0</title>
<path fill="none" stroke="#ff0000" stroke-width=".1486" d="M1293.3012,-135.4074C1254.8424,-122.4161 1147.4486,-87.0713 1055.9094,-65.6985 964.1213,-44.2676 935.0467,-63.1075 846.9094,-29.6985 846.0274,-29.3642 845.1424,-28.9962 844.2598,-28.6014"/>
<polygon fill="#ff0000" stroke="#ff0000" stroke-width=".1486" points="845.6027,-25.3485 835.1422,-23.6663 842.2705,-31.5046 845.6027,-25.3485"/>
</g>
<!-- &#45;14&#45;&gt;1 -->
<g id="edge98" class="edge">
<title>&#45;14&#45;&gt;1</title>
<path fill="none" stroke="#ff0000" stroke-width=".4317" d="M1293.3333,-135.5095C1255.4578,-122.9106 1150.6992,-88.7074 1061.9094,-65.6985 988.41,-46.6519 965.33,-58.0865 894.9094,-29.6985 894.0346,-29.3458 893.1557,-28.9623 892.2782,-28.5544"/>
<polygon fill="#ff0000" stroke="#ff0000" stroke-width=".4317" points="893.6342,-25.306 883.1846,-23.558 890.2634,-31.441 893.6342,-25.306"/>
</g>
<!-- &#45;14&#45;&gt;2 -->
<g id="edge99" class="edge">
<title>&#45;14&#45;&gt;2</title>
<path fill="none" stroke="#ff0000" stroke-width=".218" d="M1322.7001,-139.3868C1364.9374,-136.1649 1484.5647,-124.5779 1507.9094,-95.397 1516.155,-85.09 1516.8323,-75.4249 1507.9094,-65.6985 1469.2515,-23.5594 1051.5146,-16.2522 944.0176,-15.0665"/>
<polygon fill="#ff0000" stroke="#ff0000" stroke-width=".218" points="943.8362,-11.5646 933.801,-14.9623 943.7648,-18.5642 943.8362,-11.5646"/>
</g>
<!-- &#45;14&#45;&gt;3 -->
<g id="edge40" class="edge">
<title>&#45;14&#45;&gt;3</title>
<path fill="none" stroke="#00ff00" stroke-width=".4767" d="M1293.1352,-138.1239C1234.5254,-129.1065 1017.9922,-95.792 943.9363,-84.3982"/>
<polygon fill="#00ff00" stroke="#00ff00" stroke-width=".4767" points="944.1144,-80.8845 933.6984,-82.8231 943.0498,-87.8031 944.1144,-80.8845"/>
</g>
<!-- &#45;14&#45;&gt;4 -->
<g id="edge41" class="edge">
<title>&#45;14&#45;&gt;4</title>
<path fill="none" stroke="#ff0000" stroke-width=".145" d="M1293.3053,-138.8301C1276.1989,-137.0038 1247.0038,-133.9145 1221.9094,-131.397 1055.3128,-114.6834 1005.5833,-148.842 846.9094,-95.397 846.0156,-95.0959 845.1204,-94.7561 844.2293,-94.3852"/>
<polygon fill="#ff0000" stroke="#ff0000" stroke-width=".145" points="845.5507,-91.1254 835.072,-89.5612 842.2881,-97.3186 845.5507,-91.1254"/>
</g>
<!-- &#45;14&#45;&gt;5 -->
<g id="edge42" class="edge">
<title>&#45;14&#45;&gt;5</title>
<path fill="none" stroke="#00ff00" stroke-width=".1632" d="M1293.3968,-138.8595C1220.7351,-131.1562 899.7476,-97.0612 894.9094,-95.397 894.0175,-95.0902 893.124,-94.7456 892.2343,-94.3705"/>
<polygon fill="#00ff00" stroke="#00ff00" stroke-width=".1632" points="893.5592,-91.1118 883.0835,-89.5273 890.2846,-97.2987 893.5592,-91.1118"/>
</g>
<!-- &#45;15 -->
<g id="node15" class="node">
<title>&#45;15</title>
<polygon fill="#d3d3d3" stroke="#000000" points="755.4094,-149.397 726.4094,-149.397 726.4094,-131.397 755.4094,-131.397 755.4094,-149.397"/>
<text text-anchor="middle" x="740.9094" y="-138.197" font-family="Times,serif" font-size="9.00" fill="#000000">&#45;15</text>
</g>
<!-- &#45;15&#45;&gt;0 -->
<g id="edge100" class="edge">
<title>&#45;15&#45;&gt;0</title>
<path fill="none" stroke="#00ff00" stroke-width=".2648" d="M733.5419,-131.0019C722.8656,-116.1577 705.7377,-86.8004 718.9094,-65.6985 736.1364,-38.0998 773.16,-25.0725 798.0566,-19.2238"/>
<polygon fill="#00ff00" stroke="#00ff00" stroke-width=".2648" points="798.8363,-22.6363 807.891,-17.1352 797.382,-15.7891 798.8363,-22.6363"/>
</g>
<!-- &#45;15&#45;&gt;1 -->
<g id="edge101" class="edge">
<title>&#45;15&#45;&gt;1</title>
<path fill="none" stroke="#00ff00" stroke-width=".2796" d="M726.8038,-131.3571C706.1293,-116.9996 671.9062,-88.2971 689.9094,-65.6985 734.5161,-9.7058 780.6892,-56.8982 846.9094,-29.6985 847.7819,-29.3401 848.6588,-28.9517 849.5347,-28.5397"/>
<polygon fill="#00ff00" stroke="#00ff00" stroke-width=".2796" points="851.5572,-31.4212 858.6205,-23.5243 848.1743,-25.2929 851.5572,-31.4212"/>
</g>
<!-- &#45;15&#45;&gt;2 -->
<g id="edge102" class="edge">
<title>&#45;15&#45;&gt;2</title>
<path fill="none" stroke="#00ff00" stroke-width=".1407" d="M745.7509,-131.2594C754.4247,-115.7066 774.0531,-84.0001 798.9094,-65.6985 835.6037,-38.6805 854.0059,-49.782 894.9094,-29.6985 895.7561,-29.2828 896.6111,-28.8456 897.4684,-28.3926"/>
<polygon fill="#00ff00" stroke="#00ff00" stroke-width=".1407" points="899.5652,-31.2231 906.468,-23.1856 896.0595,-25.1642 899.5652,-31.2231"/>
</g>
<!-- &#45;15&#45;&gt;3 -->
<g id="edge43" class="edge">
<title>&#45;15&#45;&gt;3</title>
<path fill="none" stroke="#00ff00" stroke-width=".1726" d="M755.8126,-137.447C783.8595,-131.593 846.0596,-117.164 894.9094,-95.397 895.7709,-95.0131 896.6386,-94.603 897.5066,-94.1727"/>
<polygon fill="#00ff00" stroke="#00ff00" stroke-width=".1726" points="899.5631,-97.0313 906.556,-89.072 896.1259,-90.9333 899.5631,-97.0313"/>
</g>
<!-- &#45;15&#45;&gt;4 -->
<g id="edge44" class="edge">
<title>&#45;15&#45;&gt;4</title>
<path fill="none" stroke="#ff0000" stroke-width=".3494" d="M753.3634,-131.3072C766.397,-121.7944 787.0709,-106.7051 802.4956,-95.4471"/>
<polygon fill="#ff0000" stroke="#ff0000" stroke-width=".3494" points="804.8594,-98.055 810.8733,-89.3325 800.7325,-92.4009 804.8594,-98.055"/>
</g>
<!-- &#45;15&#45;&gt;5 -->
<g id="edge45" class="edge">
<title>&#45;15&#45;&gt;5</title>
<path fill="none" stroke="#00ff00" stroke-width=".137" d="M755.6331,-134.9671C776.4055,-127.1237 815.3078,-111.7597 846.9094,-95.397 847.747,-94.9633 848.5943,-94.5109 849.4452,-94.045"/>
<polygon fill="#00ff00" stroke="#00ff00" stroke-width=".137" points="851.5637,-96.8598 858.4145,-88.7779 848.019,-90.8236 851.5637,-96.8598"/>
</g>
<!-- &#45;16 -->
<g id="node16" class="node">
<title>&#45;16</title>
<polygon fill="#d3d3d3" stroke="#000000" points="1545.4094,-149.397 1516.4094,-149.397 1516.4094,-131.397 1545.4094,-131.397 1545.4094,-149.397"/>
<text text-anchor="middle" x="1530.9094" y="-138.197" font-family="Times,serif" font-size="9.00" fill="#000000">&#45;16</text>
</g>
<!-- &#45;16&#45;&gt;0 -->
<g id="edge103" class="edge">
<title>&#45;16&#45;&gt;0</title>
<path fill="none" stroke="#ff0000" stroke-width=".1884" d="M1516.2336,-136.4032C1470.1549,-124.0092 1324.1003,-85.8289 1200.9094,-65.6985 1044.8347,-40.1945 996.6381,-80.6012 846.9094,-29.6985 846.0164,-29.3949 845.122,-29.053 844.2315,-28.6803"/>
<polygon fill="#ff0000" stroke="#ff0000" stroke-width=".1884" points="845.5544,-25.421 835.077,-23.8478 842.2866,-31.6114 845.5544,-25.421"/>
</g>
<!-- &#45;16&#45;&gt;1 -->
<g id="edge104" class="edge">
<title>&#45;16&#45;&gt;1</title>
<path fill="none" stroke="#00ff00" stroke-width=".1943" d="M1516.1737,-136.4911C1469.9102,-124.3539 1323.2954,-86.8434 1199.9094,-65.6985 1065.3741,-42.6429 1023.7831,-74.6748 894.9094,-29.6985 894.0189,-29.3877 893.1266,-29.0397 892.2378,-28.6618"/>
<polygon fill="#00ff00" stroke="#00ff00" stroke-width=".1943" points="893.5652,-25.4039 883.0917,-23.8053 890.2823,-31.5863 893.5652,-25.4039"/>
</g>
<!-- &#45;16&#45;&gt;2 -->
<g id="edge105" class="edge">
<title>&#45;16&#45;&gt;2</title>
<path fill="none" stroke="#00ff00" stroke-width=".1324" d="M1545.6041,-138.2472C1590.5353,-131.5295 1723.7774,-110.481 1735.9094,-95.397 1744.1819,-85.1116 1744.9482,-75.3173 1735.9094,-65.6985 1708.1036,-36.1083 1078.6283,-18.8207 944.0736,-15.4562"/>
<polygon fill="#00ff00" stroke="#00ff00" stroke-width=".1324" points="944.0068,-11.9536 933.9234,-15.2055 943.8339,-18.9514 944.0068,-11.9536"/>
</g>
<!-- &#45;16&#45;&gt;3 -->
<g id="edge46" class="edge">
<title>&#45;16&#45;&gt;3</title>
<path fill="none" stroke="#ff0000" stroke-width=".2048" d="M1516.0938,-138.9258C1498.0846,-137.1388 1466.7688,-134.0359 1439.9094,-131.397 1249.3543,-112.6749 1019.5709,-90.3283 944.1922,-83.0037"/>
<polygon fill="#ff0000" stroke="#ff0000" stroke-width=".2048" points="944.1221,-79.4804 933.8304,-81.9969 943.4451,-86.4476 944.1221,-79.4804"/>
</g>
<!-- &#45;16&#45;&gt;4 -->
<g id="edge47" class="edge">
<title>&#45;16&#45;&gt;4</title>
<path fill="none" stroke="#00ff00" stroke-width=".5115" d="M1516.1086,-138.759C1498.1141,-136.8078 1466.8126,-133.5432 1439.9094,-131.397 1308.3071,-120.8983 972.7431,-135.3378 846.9094,-95.397 846.0104,-95.1116 845.1109,-94.7852 844.2161,-94.4256"/>
<polygon fill="#00ff00" stroke="#00ff00" stroke-width=".5115" points="845.5284,-91.1631 835.0416,-89.654 842.2985,-97.3734 845.5284,-91.1631"/>
</g>
<!-- &#45;16&#45;&gt;5 -->
<g id="edge48" class="edge">
<title>&#45;16&#45;&gt;5</title>
<path fill="none" stroke="#ff0000" stroke-width=".1082" d="M1516.1067,-138.7832C1498.1102,-136.8559 1466.8068,-133.6148 1439.9094,-131.397 1318.9449,-121.4227 1010.4984,-132.4251 894.9094,-95.397 894.0112,-95.1092 893.1123,-94.7808 892.218,-94.4194"/>
<polygon fill="#ff0000" stroke="#ff0000" stroke-width=".1082" points="893.5317,-91.1573 883.0461,-89.6399 890.2968,-97.365 893.5317,-91.1573"/>
</g>
<!-- 3&#45;&gt;0 -->
<g id="edge49" class="edge">
<title>3&#45;&gt;0</title>
<path fill="none" stroke="#00ff00" stroke-width=".166" d="M906.3591,-71.9588C890.4762,-61.0892 862.8931,-42.2124 843.8097,-29.1526"/>
<polygon fill="#00ff00" stroke="#00ff00" stroke-width=".166" points="845.692,-26.1996 835.4628,-23.4403 841.7386,-31.9764 845.692,-26.1996"/>
</g>
<!-- 3&#45;&gt;1 -->
<g id="edge50" class="edge">
<title>3&#45;&gt;1</title>
<path fill="none" stroke="#00ff00" stroke-width=".1198" d="M910.1055,-68.4976C903.357,-59.2609 893.8855,-46.297 885.9437,-35.4269"/>
<polygon fill="#00ff00" stroke="#00ff00" stroke-width=".1198" points="888.7091,-33.2791 879.9837,-27.2694 883.057,-37.4087 888.7091,-33.2791"/>
</g>
<!-- 3&#45;&gt;2 -->
<g id="edge51" class="edge">
<title>3&#45;&gt;2</title>
<path fill="none" stroke="#00ff00" stroke-width=".2013" d="M918.9094,-65.6397C918.9094,-58.1862 918.9094,-48.9551 918.9094,-40.4154"/>
<polygon fill="#00ff00" stroke="#00ff00" stroke-width=".2013" points="922.4095,-40.1541 918.9094,-30.1542 915.4095,-40.1542 922.4095,-40.1541"/>
</g>
<!-- 4&#45;&gt;0 -->
<g id="edge52" class="edge">
<title>4&#45;&gt;0</title>
<path fill="none" stroke="#ff0000" stroke-width=".1374" d="M822.9094,-65.6397C822.9094,-58.1862 822.9094,-48.9551 822.9094,-40.4154"/>
<polygon fill="#ff0000" stroke="#ff0000" stroke-width=".1374" points="826.4095,-40.1541 822.9094,-30.1542 819.4095,-40.1542 826.4095,-40.1541"/>
</g>
<!-- 4&#45;&gt;1 -->
<g id="edge53" class="edge">
<title>4&#45;&gt;1</title>
<path fill="none" stroke="#ff0000" stroke-width=".2833" d="M831.7133,-68.4976C838.4618,-59.2609 847.9333,-46.297 855.8752,-35.4269"/>
<polygon fill="#ff0000" stroke="#ff0000" stroke-width=".2833" points="858.7619,-37.4087 861.8351,-27.2694 853.1097,-33.2791 858.7619,-37.4087"/>
</g>
<!-- 4&#45;&gt;2 -->
<g id="edge54" class="edge">
<title>4&#45;&gt;2</title>
<path fill="none" stroke="#00ff00" stroke-width=".1447" d="M835.4597,-71.9588C851.3427,-61.0892 878.9257,-42.2124 898.0091,-29.1526"/>
<polygon fill="#00ff00" stroke="#00ff00" stroke-width=".1447" points="900.0802,-31.9764 906.356,-23.4403 896.1268,-26.1996 900.0802,-31.9764"/>
</g>
<!-- 5&#45;&gt;0 -->
<g id="edge55" class="edge">
<title>5&#45;&gt;0</title>
<path fill="none" stroke="#00ff00" stroke-width=".389" d="M862.1055,-68.4976C855.357,-59.2609 845.8855,-46.297 837.9437,-35.4269"/>
<polygon fill="#00ff00" stroke="#00ff00" stroke-width=".389" points="840.7091,-33.2791 831.9837,-27.2694 835.057,-37.4087 840.7091,-33.2791"/>
</g>
<!-- 5&#45;&gt;1 -->
<g id="edge56" class="edge">
<title>5&#45;&gt;1</title>
<path fill="none" stroke="#00ff00" stroke-width=".2412" d="M870.9094,-65.6397C870.9094,-58.1862 870.9094,-48.9551 870.9094,-40.4154"/>
<polygon fill="#00ff00" stroke="#00ff00" stroke-width=".2412" points="874.4095,-40.1541 870.9094,-30.1542 867.4095,-40.1542 874.4095,-40.1541"/>
</g>
<!-- 5&#45;&gt;2 -->
<g id="edge57" class="edge">
<title>5&#45;&gt;2</title>
<path fill="none" stroke="#ff0000" stroke-width=".2882" d="M879.7133,-68.4976C886.4618,-59.2609 895.9333,-46.297 903.8752,-35.4269"/>
<polygon fill="#ff0000" stroke="#ff0000" stroke-width=".2882" points="906.7619,-37.4087 909.8351,-27.2694 901.1097,-33.2791 906.7619,-37.4087"/>
</g>
</g>
</svg>
