<?xml version="1.0" encoding="UTF-8" standalone="no"?>
<!DOCTYPE svg PUBLIC "-//W3C//DTD SVG 1.1//EN"
 "http://www.w3.org/Graphics/SVG/1.1/DTD/svg11.dtd">
<!-- Generated by graphviz version 2.40.1 (20161225.0304)
 -->
<!-- Title: %3 Pages: 1 -->
<svg width="413pt" height="164pt"
 viewBox="0.00 0.00 413.09 164.47" xmlns="http://www.w3.org/2000/svg" xmlns:xlink="http://www.w3.org/1999/xlink">
<g id="graph0" class="graph" transform="scale(1 1) rotate(0) translate(4 160.468)">
<title>%3</title>
<polygon fill="#ffffff" stroke="transparent" points="-4,4 -4,-160.468 409.0868,-160.468 409.0868,4 -4,4"/>
<!-- num_lane_1 -->
<g id="node1" class="node">
<title>num_lane_1</title>
<polygon fill="#d3d3d3" stroke="#000000" points="79.3669,-156.468 19.3669,-156.468 19.3669,-138.468 79.3669,-138.468 79.3669,-156.468"/>
<text text-anchor="middle" x="49.3669" y="-145.268" font-family="Times,serif" font-size="9.00" fill="#000000">num_lane_1</text>
</g>
<!-- 0 -->
<g id="node5" class="node">
<title>0</title>
<ellipse fill="#add8e6" stroke="#000000" cx="142.3669" cy="-14.8492" rx="14.7" ry="14.7"/>
<text text-anchor="middle" x="142.3669" y="-12.6492" font-family="Times,serif" font-size="9.00" fill="#000000">0</text>
</g>
<!-- num_lane_1&#45;&gt;0 -->
<g id="edge22" class="edge">
<title>num_lane_1&#45;&gt;0</title>
<path fill="none" stroke="#ff0000" stroke-width=".3383" d="M43.8194,-138.3301C34.8933,-122.3243 19.7529,-88.7319 34.3669,-65.6985 52.5338,-37.0653 91.5984,-24.2613 117.425,-18.7491"/>
<polygon fill="#ff0000" stroke="#ff0000" stroke-width=".3383" points="118.4181,-22.1227 127.5836,-16.8082 117.1044,-15.2471 118.4181,-22.1227"/>
</g>
<!-- 1 -->
<g id="node6" class="node">
<title>1</title>
<ellipse fill="#add8e6" stroke="#000000" cx="197.3669" cy="-14.8492" rx="14.7" ry="14.7"/>
<text text-anchor="middle" x="197.3669" y="-12.6492" font-family="Times,serif" font-size="9.00" fill="#000000">1</text>
</g>
<!-- num_lane_1&#45;&gt;1 -->
<g id="edge23" class="edge">
<title>num_lane_1&#45;&gt;1</title>
<path fill="none" stroke="#ff0000" stroke-width=".2817" d="M36.458,-138.4497C26.1253,-130.3762 12.3992,-117.5124 6.3669,-102.468 .285,-87.2999 -3.8419,-78.4595 6.3669,-65.6985 51.9003,-8.7818 97.5063,-53.5942 166.3669,-29.6985 169.1682,-28.7264 172.0498,-27.5723 174.8752,-26.3434"/>
<polygon fill="#ff0000" stroke="#ff0000" stroke-width=".2817" points="176.4977,-29.4483 184.0653,-22.0333 173.5253,-23.1107 176.4977,-29.4483"/>
</g>
<!-- 2 -->
<g id="node7" class="node">
<title>2</title>
<ellipse fill="#add8e6" stroke="#000000" cx="248.3669" cy="-14.8492" rx="14.7" ry="14.7"/>
<text text-anchor="middle" x="248.3669" y="-12.6492" font-family="Times,serif" font-size="9.00" fill="#000000">2</text>
</g>
<!-- num_lane_1&#45;&gt;2 -->
<g id="edge24" class="edge">
<title>num_lane_1&#45;&gt;2</title>
<path fill="none" stroke="#00ff00" stroke-width=".636" d="M54.2946,-138.4515C63.8824,-121.7205 86.6479,-85.7518 115.3669,-65.6985 156.1603,-37.2141 175.8385,-49.7638 221.3669,-29.6985 222.9824,-28.9865 224.63,-28.2114 226.2747,-27.4011"/>
<polygon fill="#00ff00" stroke="#00ff00" stroke-width=".636" points="228.2089,-30.3378 235.4171,-22.5729 224.94,-24.1479 228.2089,-30.3378"/>
</g>
<!-- 9 -->
<g id="node8" class="node">
<title>9</title>
<ellipse fill="#ffffff" stroke="#000000" cx="248.3669" cy="-84.0833" rx="14.7" ry="14.7"/>
<text text-anchor="middle" x="248.3669" y="-81.8833" font-family="Times,serif" font-size="9.00" fill="#000000">9</text>
</g>
<!-- num_lane_1&#45;&gt;9 -->
<g id="edge1" class="edge">
<title>num_lane_1&#45;&gt;9</title>
<path fill="none" stroke="#ff0000" stroke-width=".3658" d="M79.4265,-143.4927C115.3351,-137.9121 176.55,-125.7249 224.3669,-102.468 225.9245,-101.7105 227.4794,-100.8427 229.0063,-99.9058"/>
<polygon fill="#ff0000" stroke="#ff0000" stroke-width=".3658" points="231.122,-102.6964 237.2707,-94.0683 227.0835,-96.9789 231.122,-102.6964"/>
</g>
<!-- 10 -->
<g id="node9" class="node">
<title>10</title>
<ellipse fill="#ffffff" stroke="#000000" cx="142.3669" cy="-84.0833" rx="18.2703" ry="18.2703"/>
<text text-anchor="middle" x="142.3669" y="-81.8833" font-family="Times,serif" font-size="9.00" fill="#000000">10</text>
</g>
<!-- num_lane_1&#45;&gt;10 -->
<g id="edge2" class="edge">
<title>num_lane_1&#45;&gt;10</title>
<path fill="none" stroke="#ff0000" stroke-width=".3121" stroke-dasharray="1,5" d="M62.6916,-138.3865C77.1478,-128.5338 100.5302,-112.5974 118.2342,-100.5311"/>
<polygon fill="#ff0000" stroke="#ff0000" stroke-width=".3121" points="120.6052,-103.1508 126.8973,-94.6267 116.6628,-97.3665 120.6052,-103.1508"/>
</g>
<!-- 11 -->
<g id="node10" class="node">
<title>11</title>
<ellipse fill="#ffffff" stroke="#000000" cx="197.3669" cy="-84.0833" rx="18.2703" ry="18.2703"/>
<text text-anchor="middle" x="197.3669" y="-81.8833" font-family="Times,serif" font-size="9.00" fill="#000000">11</text>
</g>
<!-- num_lane_1&#45;&gt;11 -->
<g id="edge3" class="edge">
<title>num_lane_1&#45;&gt;11</title>
<path fill="none" stroke="#ff0000" stroke-width=".1625" d="M79.2419,-138.3226C104.0058,-130.2605 139.8075,-117.479 169.3669,-102.468 170.728,-101.7769 172.1044,-101.0341 173.4785,-100.2577"/>
<polygon fill="#ff0000" stroke="#ff0000" stroke-width=".1625" points="175.6329,-103.0425 182.3309,-94.8335 171.9756,-97.0738 175.6329,-103.0425"/>
</g>
<!-- num_lane_2 -->
<g id="node2" class="node">
<title>num_lane_2</title>
<polygon fill="#d3d3d3" stroke="#000000" points="179.3669,-156.468 119.3669,-156.468 119.3669,-138.468 179.3669,-138.468 179.3669,-156.468"/>
<text text-anchor="middle" x="149.3669" y="-145.268" font-family="Times,serif" font-size="9.00" fill="#000000">num_lane_2</text>
</g>
<!-- num_lane_2&#45;&gt;0 -->
<g id="edge25" class="edge">
<title>num_lane_2&#45;&gt;0</title>
<path fill="none" stroke="#ff0000" stroke-width=".1395" d="M119.1852,-143.585C94.4216,-138.6332 60.8527,-127.4694 44.3669,-102.468 35.3708,-88.825 35.8798,-79.6638 44.3669,-65.6985 60.1646,-39.7039 94.0357,-26.3972 117.5019,-20.0371"/>
<polygon fill="#ff0000" stroke="#ff0000" stroke-width=".1395" points="118.5786,-23.3765 127.4492,-17.5831 116.9019,-16.5803 118.5786,-23.3765"/>
</g>
<!-- num_lane_2&#45;&gt;1 -->
<g id="edge26" class="edge">
<title>num_lane_2&#45;&gt;1</title>
<path fill="none" stroke="#00ff00" stroke-width=".3418" d="M139.4348,-138.2087C131.1977,-129.7977 120.0985,-116.5793 115.3669,-102.468 110.1716,-86.9738 107.4197,-79.9779 115.3669,-65.6985 121.9308,-53.9046 152.7251,-36.8091 174.6425,-25.7604"/>
<polygon fill="#00ff00" stroke="#00ff00" stroke-width=".3418" points="176.2703,-28.86 183.6822,-21.2893 173.1669,-22.5855 176.2703,-28.86"/>
</g>
<!-- num_lane_2&#45;&gt;2 -->
<g id="edge27" class="edge">
<title>num_lane_2&#45;&gt;2</title>
<path fill="none" stroke="#ff0000" stroke-width=".1748" d="M179.3913,-140.6486C212.1669,-132.5246 261.457,-118.0766 272.3669,-102.468 286.4993,-82.2492 274.4044,-54.0304 262.8547,-35.1341"/>
<polygon fill="#ff0000" stroke="#ff0000" stroke-width=".1748" points="265.7386,-33.1489 257.346,-26.6826 259.8744,-36.9713 265.7386,-33.1489"/>
</g>
<!-- num_lane_2&#45;&gt;9 -->
<g id="edge4" class="edge">
<title>num_lane_2&#45;&gt;9</title>
<path fill="none" stroke="#00ff00" stroke-width=".3164" d="M165.7909,-138.3294C181.2118,-129.5827 204.7768,-115.7857 224.3669,-102.468 225.6149,-101.6197 226.8852,-100.73 228.1572,-99.8189"/>
<polygon fill="#00ff00" stroke="#00ff00" stroke-width=".3164" points="230.4284,-102.4914 236.3546,-93.709 226.2451,-96.8789 230.4284,-102.4914"/>
</g>
<!-- num_lane_2&#45;&gt;10 -->
<g id="edge5" class="edge">
<title>num_lane_2&#45;&gt;10</title>
<path fill="none" stroke="#00ff00" stroke-width=".1568" d="M148.364,-138.3865C147.6169,-131.6216 146.5531,-121.9886 145.5283,-112.7095"/>
<polygon fill="#00ff00" stroke="#00ff00" stroke-width=".1568" points="148.9835,-112.1105 144.4069,-102.5552 142.0258,-112.879 148.9835,-112.1105"/>
</g>
<!-- num_lane_2&#45;&gt;11 -->
<g id="edge6" class="edge">
<title>num_lane_2&#45;&gt;11</title>
<path fill="none" stroke="#00ff00" stroke-width=".1103" d="M156.2442,-138.3865C162.3806,-130.2833 171.6331,-118.0652 179.8087,-107.2692"/>
<polygon fill="#00ff00" stroke="#00ff00" stroke-width=".1103" points="182.8074,-109.1069 186.0543,-99.0218 177.2269,-104.8809 182.8074,-109.1069"/>
</g>
<!-- ego_velocity -->
<g id="node3" class="node">
<title>ego_velocity</title>
<polygon fill="#d3d3d3" stroke="#000000" points="272.3669,-156.468 210.3669,-156.468 210.3669,-138.468 272.3669,-138.468 272.3669,-156.468"/>
<text text-anchor="middle" x="241.3669" y="-145.268" font-family="Times,serif" font-size="9.00" fill="#000000">ego_velocity</text>
</g>
<!-- ego_velocity&#45;&gt;0 -->
<g id="edge28" class="edge">
<title>ego_velocity&#45;&gt;0</title>
<path fill="none" stroke="#00ff00" stroke-width=".2967" d="M210.3201,-140.6817C176.7551,-132.6415 126.5397,-118.3223 115.3669,-102.468 100.8813,-81.9129 114.5565,-53.3599 127.1523,-34.508"/>
<polygon fill="#00ff00" stroke="#00ff00" stroke-width=".2967" points="130.0073,-36.5326 132.9393,-26.3515 124.2982,-32.482 130.0073,-36.5326"/>
</g>
<!-- ego_velocity&#45;&gt;1 -->
<g id="edge29" class="edge">
<title>ego_velocity&#45;&gt;1</title>
<path fill="none" stroke="#00ff00" stroke-width=".4676" d="M250.1423,-138.3731C257.6903,-129.8691 268.0269,-116.4183 272.3669,-102.468 277.2215,-86.8637 280.0218,-80.1368 272.3669,-65.6985 269.3821,-60.0687 240.1329,-41.1966 219.0607,-28.0995"/>
<polygon fill="#00ff00" stroke="#00ff00" stroke-width=".4676" points="220.7025,-24.9999 210.3545,-22.7261 217.026,-30.9567 220.7025,-24.9999"/>
</g>
<!-- ego_velocity&#45;&gt;2 -->
<g id="edge30" class="edge">
<title>ego_velocity&#45;&gt;2</title>
<path fill="none" stroke="#00ff00" stroke-width=".2254" d="M272.5173,-141.8434C309.6811,-134.4252 368.4334,-120.2104 381.3669,-102.468 390.9934,-89.2623 390.6322,-79.1602 381.3669,-65.6985 368.729,-47.3365 307.8925,-29.6102 273.0381,-20.7365"/>
<polygon fill="#00ff00" stroke="#00ff00" stroke-width=".2254" points="273.6864,-17.2912 263.1374,-18.2759 271.998,-24.0846 273.6864,-17.2912"/>
</g>
<!-- ego_velocity&#45;&gt;9 -->
<g id="edge7" class="edge">
<title>ego_velocity&#45;&gt;9</title>
<path fill="none" stroke="#00ff00" stroke-width=".1636" d="M242.3699,-138.3865C243.2116,-130.7647 244.4554,-119.5023 245.5923,-109.2072"/>
<polygon fill="#00ff00" stroke="#00ff00" stroke-width=".1636" points="249.0982,-109.3456 246.7172,-99.0218 242.1405,-108.5771 249.0982,-109.3456"/>
</g>
<!-- ego_velocity&#45;&gt;10 -->
<g id="edge8" class="edge">
<title>ego_velocity&#45;&gt;10</title>
<path fill="none" stroke="#ff0000" stroke-width=".1127" d="M226.9094,-138.4C212.5318,-129.3598 189.8653,-115.0472 170.3669,-102.468 169.0842,-101.6405 167.7701,-100.7893 166.4446,-99.9282"/>
<polygon fill="#ff0000" stroke="#ff0000" stroke-width=".1127" points="168.0284,-96.7822 157.7425,-94.2425 164.1996,-102.6423 168.0284,-96.7822"/>
</g>
<!-- ego_velocity&#45;&gt;11 -->
<g id="edge9" class="edge">
<title>ego_velocity&#45;&gt;11</title>
<path fill="none" stroke="#ff0000" stroke-width=".4098" d="M235.0628,-138.3865C229.5677,-130.4705 221.3466,-118.6275 213.9829,-108.0197"/>
<polygon fill="#ff0000" stroke="#ff0000" stroke-width=".4098" points="216.6555,-105.7318 208.0778,-99.5129 210.9051,-109.7236 216.6555,-105.7318"/>
</g>
<!-- dx1 -->
<g id="node4" class="node">
<title>dx1</title>
<polygon fill="#d3d3d3" stroke="#000000" points="335.3669,-156.468 305.3669,-156.468 305.3669,-138.468 335.3669,-138.468 335.3669,-156.468"/>
<text text-anchor="middle" x="320.3669" y="-145.268" font-family="Times,serif" font-size="9.00" fill="#000000">dx1</text>
</g>
<!-- dx1&#45;&gt;0 -->
<g id="edge31" class="edge">
<title>dx1&#45;&gt;0</title>
<path fill="none" stroke="#00ff00" stroke-width=".6487" d="M317.3278,-138.2215C311.3557,-121.4328 296.5279,-85.8178 272.3669,-65.6985 236.3888,-35.7389 216.531,-47.8332 173.3669,-29.6985 170.6333,-28.55 167.793,-27.2879 164.9904,-25.9996"/>
<polygon fill="#00ff00" stroke="#00ff00" stroke-width=".6487" points="166.3519,-22.7717 155.8171,-21.6456 163.3504,-29.0955 166.3519,-22.7717"/>
</g>
<!-- dx1&#45;&gt;1 -->
<g id="edge32" class="edge">
<title>dx1&#45;&gt;1</title>
<path fill="none" stroke="#ff0000" stroke-width=".356" d="M318.8786,-138.3185C315.8094,-121.9969 307.4031,-87.5289 288.3669,-65.6985 287.7247,-64.962 246.4965,-42.0565 219.76,-27.2424"/>
<polygon fill="#ff0000" stroke="#ff0000" stroke-width=".356" points="221.1111,-23.9898 210.6674,-22.2067 217.7197,-30.1134 221.1111,-23.9898"/>
</g>
<!-- dx1&#45;&gt;2 -->
<g id="edge33" class="edge">
<title>dx1&#45;&gt;2</title>
<path fill="none" stroke="#00ff00" stroke-width=".1168" d="M335.3821,-143.7302C353.9745,-138.2054 384.84,-125.8886 398.3669,-102.468 406.5402,-88.3167 407.8885,-78.9801 398.3669,-65.6985 383.5395,-45.0159 311.7361,-27.6587 273.0999,-19.6307"/>
<polygon fill="#00ff00" stroke="#00ff00" stroke-width=".1168" points="273.6524,-16.1717 263.1569,-17.6188 272.2641,-23.0326 273.6524,-16.1717"/>
</g>
<!-- dx1&#45;&gt;9 -->
<g id="edge10" class="edge">
<title>dx1&#45;&gt;9</title>
<path fill="none" stroke="#00ff00" stroke-width=".3589" d="M310.0511,-138.3865C298.974,-128.6349 281.1274,-112.9238 267.4736,-100.9037"/>
<polygon fill="#00ff00" stroke="#00ff00" stroke-width=".3589" points="269.4306,-97.9635 259.612,-93.9828 264.8051,-103.2176 269.4306,-97.9635"/>
</g>
<!-- dx1&#45;&gt;10 -->
<g id="edge11" class="edge">
<title>dx1&#45;&gt;10</title>
<path fill="none" stroke="#ff0000" stroke-width=".2524" d="M305.2646,-143.5342C272.3125,-134.8548 194.9475,-113.927 170.3669,-102.468 168.9834,-101.823 167.5891,-101.117 166.201,-100.3693"/>
<polygon fill="#ff0000" stroke="#ff0000" stroke-width=".2524" points="167.6815,-97.176 157.3055,-95.0336 164.0808,-103.179 167.6815,-97.176"/>
</g>
<!-- dx1&#45;&gt;11 -->
<g id="edge12" class="edge">
<title>dx1&#45;&gt;11</title>
<path fill="none" stroke="#ff0000" stroke-width=".2668" d="M305.3609,-141.3173C286.1474,-133.244 252.0321,-118.2373 224.3669,-102.468 223.2584,-101.8362 222.1361,-101.1734 221.0112,-100.4899"/>
<polygon fill="#ff0000" stroke="#ff0000" stroke-width=".2668" points="222.8182,-97.4907 212.5158,-95.0183 219.0278,-103.3757 222.8182,-97.4907"/>
</g>
<!-- 9&#45;&gt;0 -->
<g id="edge13" class="edge">
<title>9&#45;&gt;0</title>
<path fill="none" stroke="#ff0000" stroke-width=".2395" d="M236.33,-74.4935C232.5574,-71.5886 228.3403,-68.4425 224.3669,-65.6985 204.5485,-52.0121 181.1254,-37.6594 164.3983,-27.7061"/>
<polygon fill="#ff0000" stroke="#ff0000" stroke-width=".2395" points="165.7917,-24.4641 155.4013,-22.3924 162.2319,-30.4914 165.7917,-24.4641"/>
</g>
<!-- 9&#45;&gt;1 -->
<g id="edge14" class="edge">
<title>9&#45;&gt;1</title>
<path fill="none" stroke="#00ff00" stroke-width=".2205" d="M239.4834,-72.0236C232.0428,-61.9228 221.2591,-47.2836 212.4664,-35.3472"/>
<polygon fill="#00ff00" stroke="#00ff00" stroke-width=".2205" points="215.241,-33.2124 206.4921,-27.2369 209.605,-37.3641 215.241,-33.2124"/>
</g>
<!-- 9&#45;&gt;2 -->
<g id="edge15" class="edge">
<title>9&#45;&gt;2</title>
<path fill="none" stroke="#ff0000" stroke-width=".1419" d="M248.3669,-69.0605C248.3669,-60.5323 248.3669,-49.6384 248.3669,-39.8563"/>
<polygon fill="#ff0000" stroke="#ff0000" stroke-width=".1419" points="251.867,-39.8426 248.3669,-29.8427 244.867,-39.8427 251.867,-39.8426"/>
</g>
<!-- 10&#45;&gt;0 -->
<g id="edge16" class="edge">
<title>10&#45;&gt;0</title>
<path fill="none" stroke="#00ff00" stroke-width=".1418" d="M142.3669,-65.5298C142.3669,-57.6441 142.3669,-48.3293 142.3669,-39.8505"/>
<polygon fill="#00ff00" stroke="#00ff00" stroke-width=".1418" points="145.867,-39.7282 142.3669,-29.7282 138.867,-39.7283 145.867,-39.7282"/>
</g>
<!-- 10&#45;&gt;1 -->
<g id="edge17" class="edge">
<title>10&#45;&gt;1</title>
<path fill="none" stroke="#00ff00" stroke-width=".1566" d="M154.031,-69.4005C162.0719,-59.2787 172.8528,-45.7077 181.6499,-34.6339"/>
<polygon fill="#00ff00" stroke="#00ff00" stroke-width=".1566" points="184.4324,-36.7581 187.9121,-26.751 178.9513,-32.4039 184.4324,-36.7581"/>
</g>
<!-- 10&#45;&gt;2 -->
<g id="edge18" class="edge">
<title>10&#45;&gt;2</title>
<path fill="none" stroke="#ff0000" stroke-width=".4572" stroke-dasharray="1,5" d="M157.7656,-73.9596C161.8594,-71.2716 166.2792,-68.3729 170.3669,-65.6985 189.5903,-53.1215 211.5072,-38.8386 227.2035,-28.6193"/>
<polygon fill="#ff0000" stroke="#ff0000" stroke-width=".4572" points="229.1874,-31.5041 235.659,-23.1155 225.3687,-25.6374 229.1874,-31.5041"/>
</g>
<!-- 11&#45;&gt;0 -->
<g id="edge19" class="edge">
<title>11&#45;&gt;0</title>
<path fill="none" stroke="#00ff00" stroke-width=".1243" d="M185.7028,-69.4005C177.662,-59.2787 166.8811,-45.7077 158.084,-34.6339"/>
<polygon fill="#00ff00" stroke="#00ff00" stroke-width=".1243" points="160.7825,-32.4039 151.8218,-26.751 155.3015,-36.7581 160.7825,-32.4039"/>
</g>
<!-- 11&#45;&gt;1 -->
<g id="edge20" class="edge">
<title>11&#45;&gt;1</title>
<path fill="none" stroke="#ff0000" stroke-width=".4195" d="M197.3669,-65.5298C197.3669,-57.6441 197.3669,-48.3293 197.3669,-39.8505"/>
<polygon fill="#ff0000" stroke="#ff0000" stroke-width=".4195" points="200.867,-39.7282 197.3669,-29.7282 193.867,-39.7283 200.867,-39.7282"/>
</g>
<!-- 11&#45;&gt;2 -->
<g id="edge21" class="edge">
<title>11&#45;&gt;2</title>
<path fill="none" stroke="#00ff00" stroke-width=".1225" d="M208.4332,-69.0605C215.7379,-59.1441 225.3989,-46.029 233.3887,-35.1827"/>
<polygon fill="#00ff00" stroke="#00ff00" stroke-width=".1225" points="236.2481,-37.2022 239.3611,-27.075 230.6121,-33.0505 236.2481,-37.2022"/>
</g>
</g>
</svg>
