<?xml version="1.0" encoding="UTF-8" standalone="no"?>
<!DOCTYPE svg PUBLIC "-//W3C//DTD SVG 1.1//EN"
 "http://www.w3.org/Graphics/SVG/1.1/DTD/svg11.dtd">
<!-- Generated by graphviz version 2.40.1 (20161225.0304)
 -->
<!-- Title: %3 Pages: 1 -->
<svg width="2437pt" height="484pt"
 viewBox="0.00 0.00 2436.54 483.83" xmlns="http://www.w3.org/2000/svg" xmlns:xlink="http://www.w3.org/1999/xlink">
<g id="graph0" class="graph" transform="scale(1 1) rotate(0) translate(4 479.8305)">
<title>%3</title>
<polygon fill="#ffffff" stroke="transparent" points="-4,4 -4,-479.8305 2432.5384,-479.8305 2432.5384,4 -4,4"/>
<!-- num_lane_1 -->
<g id="node1" class="node">
<title>num_lane_1</title>
<polygon fill="#d3d3d3" stroke="#000000" points="1928.5384,-252.7645 1868.5384,-252.7645 1868.5384,-234.7645 1928.5384,-234.7645 1928.5384,-252.7645"/>
<text text-anchor="middle" x="1898.5384" y="-241.5645" font-family="Times,serif" font-size="9.00" fill="#000000">num_lane_1</text>
</g>
<!-- 0 -->
<g id="node19" class="node">
<title>0</title>
<ellipse fill="#add8e6" stroke="#000000" cx="1098.5384" cy="-86.9117" rx="14.7" ry="14.7"/>
<text text-anchor="middle" x="1098.5384" y="-84.7117" font-family="Times,serif" font-size="9.00" fill="#000000">0</text>
</g>
<!-- num_lane_1&#45;&gt;0 -->
<g id="edge61" class="edge">
<title>num_lane_1&#45;&gt;0</title>
<path fill="none" stroke="#ff0000" stroke-width=".1864" d="M1882.5047,-234.7416C1845.5833,-214.4574 1751.151,-165.3725 1665.5384,-144.1249 1612.3235,-130.9178 1226.1309,-97.6846 1123.5183,-89.0095"/>
<polygon fill="#ff0000" stroke="#ff0000" stroke-width=".1864" points="1123.7197,-85.5142 1113.4608,-88.1612 1123.1313,-92.4894 1123.7197,-85.5142"/>
</g>
<!-- 1 -->
<g id="node20" class="node">
<title>1</title>
<ellipse fill="#add8e6" stroke="#000000" cx="1398.5384" cy="-86.9117" rx="14.7" ry="14.7"/>
<text text-anchor="middle" x="1398.5384" y="-84.7117" font-family="Times,serif" font-size="9.00" fill="#000000">1</text>
</g>
<!-- num_lane_1&#45;&gt;1 -->
<g id="edge62" class="edge">
<title>num_lane_1&#45;&gt;1</title>
<path fill="none" stroke="#ff0000" stroke-width=".1457" stroke-dasharray="1,5" d="M1893.5861,-234.6808C1882.042,-214.4915 1851.2074,-165.9568 1810.5384,-144.1249 1742.7823,-107.7521 1502.5966,-92.3001 1423.7895,-88.1341"/>
<polygon fill="#ff0000" stroke="#ff0000" stroke-width=".1457" points="1423.9415,-84.6374 1413.7752,-87.6202 1423.5827,-91.6282 1423.9415,-84.6374"/>
</g>
<!-- 2 -->
<g id="node21" class="node">
<title>2</title>
<ellipse fill="#add8e6" stroke="#000000" cx="1213.5384" cy="-14.8492" rx="14.7" ry="14.7"/>
<text text-anchor="middle" x="1213.5384" y="-12.6492" font-family="Times,serif" font-size="9.00" fill="#000000">2</text>
</g>
<!-- num_lane_1&#45;&gt;2 -->
<g id="edge63" class="edge">
<title>num_lane_1&#45;&gt;2</title>
<path fill="none" stroke="#00ff00" stroke-width=".2459" d="M1896.4479,-234.7289C1891.5486,-215.4722 1877.5618,-170.039 1849.5384,-144.1249 1780.3485,-80.1429 1743.9148,-88.748 1652.5384,-65.6985 1498.5584,-26.8574 1306.5995,-17.5836 1238.728,-15.4561"/>
<polygon fill="#00ff00" stroke="#00ff00" stroke-width=".2459" points="1238.6712,-11.9531 1228.5744,-15.1634 1238.4694,-18.9502 1238.6712,-11.9531"/>
</g>
<!-- 32 -->
<g id="node22" class="node">
<title>32</title>
<ellipse fill="#ffffff" stroke="#000000" cx="1053.5384" cy="-165.3381" rx="18.2703" ry="18.2703"/>
<text text-anchor="middle" x="1053.5384" y="-163.1381" font-family="Times,serif" font-size="9.00" fill="#000000">32</text>
</g>
<!-- num_lane_1&#45;&gt;32 -->
<g id="edge2" class="edge">
<title>num_lane_1&#45;&gt;32</title>
<path fill="none" stroke="#00ff00" stroke-width=".1548" stroke-dasharray="1,5" d="M1884.7103,-234.5856C1877.2733,-230.1366 1867.7567,-225.1949 1858.5384,-222.5513 1782.7233,-200.8091 1217.4946,-173.0518 1082.4532,-166.6816"/>
<polygon fill="#00ff00" stroke="#00ff00" stroke-width=".1548" points="1082.2578,-163.1686 1072.1046,-166.1956 1081.9294,-170.1609 1082.2578,-163.1686"/>
</g>
<!-- 30 -->
<g id="node33" class="node">
<title>30</title>
<ellipse fill="#ffffff" stroke="#000000" cx="1601.5384" cy="-165.3381" rx="18.2703" ry="18.2703"/>
<text text-anchor="middle" x="1601.5384" y="-163.1381" font-family="Times,serif" font-size="9.00" fill="#000000">30</text>
</g>
<!-- num_lane_1&#45;&gt;30 -->
<g id="edge1" class="edge">
<title>num_lane_1&#45;&gt;30</title>
<path fill="none" stroke="#ff0000" stroke-width=".4879" stroke-dasharray="1,5" d="M1883.7859,-234.7154C1876.4193,-230.5186 1867.2409,-225.7609 1858.5384,-222.5513 1778.3975,-192.9946 1678.3178,-176.103 1630.1091,-169.1353"/>
<polygon fill="#ff0000" stroke="#ff0000" stroke-width=".4879" points="1630.4828,-165.6535 1620.0922,-167.7235 1629.5058,-172.585 1630.4828,-165.6535"/>
</g>
<!-- num_lane_2 -->
<g id="node2" class="node">
<title>num_lane_2</title>
<polygon fill="#d3d3d3" stroke="#000000" points="495.5384,-331.1909 435.5384,-331.1909 435.5384,-313.1909 495.5384,-313.1909 495.5384,-331.1909"/>
<text text-anchor="middle" x="465.5384" y="-319.9909" font-family="Times,serif" font-size="9.00" fill="#000000">num_lane_2</text>
</g>
<!-- num_lane_2&#45;&gt;0 -->
<g id="edge64" class="edge">
<title>num_lane_2&#45;&gt;0</title>
<path fill="none" stroke="#00ff00" stroke-width=".1176" d="M435.2991,-319.6434C352.2036,-312.3396 125.1078,-290.2238 103.5384,-264.9777 91.2899,-250.6414 95.288,-239.5067 103.5384,-222.5513 128.2518,-171.7624 150.7337,-164.1729 203.5384,-144.1249 326.9627,-97.2652 664.8001,-116.7503 796.5384,-108.1249 899.1489,-101.4066 1021.3074,-92.5673 1073.2048,-88.7728"/>
<polygon fill="#00ff00" stroke="#00ff00" stroke-width=".1176" points="1073.7409,-92.243 1083.4585,-88.0218 1073.2295,-85.2617 1073.7409,-92.243"/>
</g>
<!-- num_lane_2&#45;&gt;1 -->
<g id="edge65" class="edge">
<title>num_lane_2&#45;&gt;1</title>
<path fill="none" stroke="#ff0000" stroke-width=".1231" stroke-dasharray="1,5" d="M435.3665,-319.9571C374.4393,-314.7533 240.1591,-299.5419 212.5384,-264.9777 200.767,-250.2471 202.6018,-238.5769 212.5384,-222.5513 212.8611,-222.0308 369.9456,-144.279 370.5384,-144.1249 532.4609,-102.039 955.5602,-118.5365 1122.5384,-108.1249 1215.0955,-102.3537 1324.9371,-93.2298 1373.4155,-89.0868"/>
<polygon fill="#ff0000" stroke="#ff0000" stroke-width=".1231" points="1373.9261,-92.5559 1383.59,-88.2133 1373.3272,-85.5816 1373.9261,-92.5559"/>
</g>
<!-- num_lane_2&#45;&gt;2 -->
<g id="edge66" class="edge">
<title>num_lane_2&#45;&gt;2</title>
<path fill="none" stroke="#ff0000" stroke-width=".8177" stroke-dasharray="1,5" d="M435.3016,-319.7909C350.4597,-312.753 114.8866,-291.0152 92.5384,-264.9777 80.2573,-250.6693 84.9737,-239.8236 92.5384,-222.5513 133.7805,-128.3836 167.8229,-105.6663 262.5384,-65.6985 350.045,-28.7727 1046.6175,-17.1681 1188.4023,-15.1782"/>
<polygon fill="#ff0000" stroke="#ff0000" stroke-width=".8177" points="1188.7266,-18.6742 1198.6777,-15.0374 1188.6306,-11.6748 1188.7266,-18.6742"/>
</g>
<!-- num_lane_2&#45;&gt;32 -->
<g id="edge5" class="edge">
<title>num_lane_2&#45;&gt;32</title>
<path fill="none" stroke="#00ff00" stroke-width=".2869" d="M475.1693,-312.9012C486.8704,-301.6033 507.1985,-281.9388 524.5384,-264.9777 543.731,-246.2044 543.3395,-234.1791 567.5384,-222.5513 588.3413,-212.5553 924.0905,-178.2971 1025.0461,-168.1757"/>
<polygon fill="#00ff00" stroke="#00ff00" stroke-width=".2869" points="1025.5181,-171.646 1035.12,-167.1678 1024.8212,-164.6808 1025.5181,-171.646"/>
</g>
<!-- 508 -->
<g id="node27" class="node">
<title>508</title>
<ellipse fill="#ffffff" stroke="#000000" cx="456.5384" cy="-243.7645" rx="21.4286" ry="21.4286"/>
<text text-anchor="middle" x="456.5384" y="-241.5645" font-family="Times,serif" font-size="9.00" fill="#000000">508</text>
</g>
<!-- num_lane_2&#45;&gt;508 -->
<g id="edge134" class="edge">
<title>num_lane_2&#45;&gt;508</title>
<path fill="none" stroke="#00ff00" stroke-width=".2819" d="M464.4706,-312.8864C463.3946,-303.5098 461.6739,-288.5159 460.1098,-274.8858"/>
<polygon fill="#00ff00" stroke="#00ff00" stroke-width=".2819" points="463.5748,-274.3799 458.9574,-264.8442 456.6204,-275.1781 463.5748,-274.3799"/>
</g>
<!-- num_lane_2&#45;&gt;30 -->
<g id="edge3" class="edge">
<title>num_lane_2&#45;&gt;30</title>
<path fill="none" stroke="#ff0000" stroke-width=".1436" d="M480.5187,-313.0313C519.3438,-289.3687 621.3971,-227.6841 638.5384,-222.5513 684.4172,-208.8132 1417.2654,-173.9424 1572.7065,-166.677"/>
<polygon fill="#ff0000" stroke="#ff0000" stroke-width=".1436" points="1573.0571,-170.1645 1582.8831,-166.2022 1572.7308,-163.1721 1573.0571,-170.1645"/>
</g>
<!-- 31 -->
<g id="node34" class="node">
<title>31</title>
<ellipse fill="#ffffff" stroke="#000000" cx="806.5384" cy="-165.3381" rx="18.2703" ry="18.2703"/>
<text text-anchor="middle" x="806.5384" y="-163.1381" font-family="Times,serif" font-size="9.00" fill="#000000">31</text>
</g>
<!-- num_lane_2&#45;&gt;31 -->
<g id="edge4" class="edge">
<title>num_lane_2&#45;&gt;31</title>
<path fill="none" stroke="#00ff00" stroke-width=".1782" stroke-dasharray="1,5" d="M468.4284,-313.1772C475.367,-293.1312 495.0038,-244.8705 529.5384,-222.5513 620.8647,-163.5284 669.2539,-223.4577 771.5384,-186.5513 775.3397,-185.1797 779.1795,-183.3705 782.853,-181.3859"/>
<polygon fill="#00ff00" stroke="#00ff00" stroke-width=".1782" points="784.7113,-184.353 791.5256,-176.2403 781.1395,-178.3329 784.7113,-184.353"/>
</g>
<!-- ego_velocity -->
<g id="node3" class="node">
<title>ego_velocity</title>
<polygon fill="#d3d3d3" stroke="#000000" points="1428.5384,-252.7645 1366.5384,-252.7645 1366.5384,-234.7645 1428.5384,-234.7645 1428.5384,-252.7645"/>
<text text-anchor="middle" x="1397.5384" y="-241.5645" font-family="Times,serif" font-size="9.00" fill="#000000">ego_velocity</text>
</g>
<!-- ego_velocity&#45;&gt;0 -->
<g id="edge67" class="edge">
<title>ego_velocity&#45;&gt;0</title>
<path fill="none" stroke="#00ff00" stroke-width=".375" d="M1382.1233,-234.5743C1351.6449,-216.5187 1281.3569,-175.4494 1220.5384,-144.1249 1186.5394,-126.6137 1146.2128,-108.1364 1121.5043,-97.0677"/>
<polygon fill="#00ff00" stroke="#00ff00" stroke-width=".375" points="1122.7968,-93.8119 1112.2382,-92.9365 1119.9463,-100.2053 1122.7968,-93.8119"/>
</g>
<!-- ego_velocity&#45;&gt;1 -->
<g id="edge68" class="edge">
<title>ego_velocity&#45;&gt;1</title>
<path fill="none" stroke="#00ff00" stroke-width=".4277" d="M1397.5979,-234.4224C1397.7488,-210.7538 1398.1502,-147.7932 1398.3768,-112.2507"/>
<polygon fill="#00ff00" stroke="#00ff00" stroke-width=".4277" points="1401.8772,-112.1965 1398.4411,-102.1743 1394.8773,-112.1518 1401.8772,-112.1965"/>
</g>
<!-- ego_velocity&#45;&gt;2 -->
<g id="edge69" class="edge">
<title>ego_velocity&#45;&gt;2</title>
<path fill="none" stroke="#00ff00" stroke-width=".4825" d="M1403.1242,-234.4035C1419.4506,-205.7017 1463.4315,-117.7338 1422.5384,-65.6985 1399.8591,-36.8398 1288.7762,-22.3185 1238.4282,-17.1319"/>
<polygon fill="#00ff00" stroke="#00ff00" stroke-width=".4825" points="1238.681,-13.64 1228.3852,-16.139 1237.9923,-20.606 1238.681,-13.64"/>
</g>
<!-- ego_velocity&#45;&gt;32 -->
<g id="edge8" class="edge">
<title>ego_velocity&#45;&gt;32</title>
<path fill="none" stroke="#ff0000" stroke-width=".1379" d="M1382.4349,-234.6049C1374.8882,-230.3819 1365.4788,-225.6341 1356.5384,-222.5513 1259.0359,-188.9312 1136.6824,-173.5108 1082.1026,-167.9381"/>
<polygon fill="#ff0000" stroke="#ff0000" stroke-width=".1379" points="1082.4132,-164.4518 1072.1177,-166.9524 1081.7254,-171.418 1082.4132,-164.4518"/>
</g>
<!-- ego_velocity&#45;&gt;30 -->
<g id="edge6" class="edge">
<title>ego_velocity&#45;&gt;30</title>
<path fill="none" stroke="#00ff00" stroke-width=".5607" d="M1413.2261,-234.7342C1420.4955,-230.7355 1429.3259,-226.1367 1437.5384,-222.5513 1484.1711,-202.1924 1540.5805,-183.8153 1573.6183,-173.6525"/>
<polygon fill="#00ff00" stroke="#00ff00" stroke-width=".5607" points="1574.9346,-176.9104 1583.4816,-170.6494 1572.8957,-170.2139 1574.9346,-176.9104"/>
</g>
<!-- ego_velocity&#45;&gt;31 -->
<g id="edge7" class="edge">
<title>ego_velocity&#45;&gt;31</title>
<path fill="none" stroke="#ff0000" stroke-width=".9789" d="M1383.2979,-234.7151C1375.6568,-230.3015 1365.9061,-225.3524 1356.5384,-222.5513 1343.8818,-218.7667 946.1841,-179.1737 835.103,-168.1645"/>
<polygon fill="#ff0000" stroke="#ff0000" stroke-width=".9789" points="835.2807,-164.665 824.9844,-167.1621 834.5906,-171.6309 835.2807,-164.665"/>
</g>
<!-- dx1 -->
<g id="node4" class="node">
<title>dx1</title>
<polygon fill="#d3d3d3" stroke="#000000" points="949.5384,-252.7645 919.5384,-252.7645 919.5384,-234.7645 949.5384,-234.7645 949.5384,-252.7645"/>
<text text-anchor="middle" x="934.5384" y="-241.5645" font-family="Times,serif" font-size="9.00" fill="#000000">dx1</text>
</g>
<!-- dx1&#45;&gt;0 -->
<g id="edge70" class="edge">
<title>dx1&#45;&gt;0</title>
<path fill="none" stroke="#ff0000" stroke-width=".2114" stroke-dasharray="1,5" d="M935.7921,-234.5642C938.8554,-215.3872 948.3982,-170.7182 973.5384,-144.1249 1001.0159,-115.0591 1046.0877,-99.5295 1073.9418,-92.2698"/>
<polygon fill="#ff0000" stroke="#ff0000" stroke-width=".2114" points="1074.8202,-95.6582 1083.7015,-89.8814 1073.1562,-88.8588 1074.8202,-95.6582"/>
</g>
<!-- dx1&#45;&gt;1 -->
<g id="edge71" class="edge">
<title>dx1&#45;&gt;1</title>
<path fill="none" stroke="#ff0000" stroke-width=".2775" d="M939.8515,-234.7217C952.1982,-214.6161 984.9661,-166.2416 1026.5384,-144.1249 1087.3073,-111.7955 1300.0104,-93.9285 1373.4089,-88.6161"/>
<polygon fill="#ff0000" stroke="#ff0000" stroke-width=".2775" points="1373.8439,-92.0942 1383.5718,-87.897 1373.3497,-85.1117 1373.8439,-92.0942"/>
</g>
<!-- dx1&#45;&gt;32 -->
<g id="edge11" class="edge">
<title>dx1&#45;&gt;32</title>
<path fill="none" stroke="#00ff00" stroke-width=".4001" d="M946.5467,-234.7098C951.7196,-230.8801 957.8709,-226.4195 963.5384,-222.5513 985.3857,-207.6399 1010.8776,-191.5534 1029.1423,-180.2473"/>
<polygon fill="#00ff00" stroke="#00ff00" stroke-width=".4001" points="1031.0522,-183.1816 1037.7285,-174.9549 1027.3792,-177.2226 1031.0522,-183.1816"/>
</g>
<!-- dx1&#45;&gt;30 -->
<g id="edge9" class="edge">
<title>dx1&#45;&gt;30</title>
<path fill="none" stroke="#00ff00" stroke-width=".1798" stroke-dasharray="1,5" d="M949.7228,-241.9791C1035.3836,-231.907 1458.4485,-182.1627 1572.9308,-168.7018"/>
<polygon fill="#00ff00" stroke="#00ff00" stroke-width=".1798" points="1573.5019,-172.1588 1583.0247,-167.5149 1572.6844,-165.2067 1573.5019,-172.1588"/>
</g>
<!-- dx1&#45;&gt;31 -->
<g id="edge10" class="edge">
<title>dx1&#45;&gt;31</title>
<path fill="none" stroke="#00ff00" stroke-width=".3568" d="M919.6047,-234.6145C897.8956,-221.3133 857.363,-196.4786 831.1858,-180.4397"/>
<polygon fill="#00ff00" stroke="#00ff00" stroke-width=".3568" points="832.935,-177.4068 822.5797,-175.1667 829.2779,-183.3755 832.935,-177.4068"/>
</g>
<!-- dy1 -->
<g id="node5" class="node">
<title>dy1</title>
<polygon fill="#d3d3d3" stroke="#000000" points="341.5384,-252.7645 311.5384,-252.7645 311.5384,-234.7645 341.5384,-234.7645 341.5384,-252.7645"/>
<text text-anchor="middle" x="326.5384" y="-241.5645" font-family="Times,serif" font-size="9.00" fill="#000000">dy1</text>
</g>
<!-- dy1&#45;&gt;0 -->
<g id="edge72" class="edge">
<title>dy1&#45;&gt;0</title>
<path fill="none" stroke="#00ff00" stroke-width=".3891" d="M336.5499,-234.6125C341.83,-230.284 348.6336,-225.4422 355.5384,-222.5513 447.3341,-184.1174 479.108,-206.8226 576.5384,-186.5513 651.5128,-170.9522 668.5508,-159.6607 743.5384,-144.1249 866.4341,-118.6635 1015.2444,-97.9077 1073.4727,-90.1695"/>
<polygon fill="#00ff00" stroke="#00ff00" stroke-width=".3891" points="1074.1145,-93.6153 1083.571,-88.8378 1073.1992,-86.6754 1074.1145,-93.6153"/>
</g>
<!-- dy1&#45;&gt;1 -->
<g id="edge73" class="edge">
<title>dy1&#45;&gt;1</title>
<path fill="none" stroke="#00ff00" stroke-width=".3259" d="M336.2117,-234.6397C341.5072,-230.2055 348.4268,-225.2608 355.5384,-222.5513 510.7602,-163.4134 573.9319,-249.7666 727.5384,-186.5513 755.1214,-175.1998 751.931,-155.417 779.5384,-144.1249 807.5429,-132.6704 1261.5917,-97.3724 1373.6754,-88.8014"/>
<polygon fill="#00ff00" stroke="#00ff00" stroke-width=".3259" points="1374.0019,-92.2868 1383.7066,-88.036 1373.4692,-85.3071 1374.0019,-92.2868"/>
</g>
<!-- dy1&#45;&gt;2 -->
<g id="edge74" class="edge">
<title>dy1&#45;&gt;2</title>
<path fill="none" stroke="#ff0000" stroke-width=".7072" d="M337.6825,-234.635C342.9065,-230.6164 349.3357,-226.0293 355.5384,-222.5513 515.2634,-132.9885 559.0358,-110.7144 736.5384,-65.6985 823.735,-43.5848 1103.4461,-22.5827 1188.6631,-16.5636"/>
<polygon fill="#ff0000" stroke="#ff0000" stroke-width=".7072" points="1188.9843,-20.0498 1198.7153,-15.8596 1188.4952,-13.0669 1188.9843,-20.0498"/>
</g>
<!-- dy1&#45;&gt;32 -->
<g id="edge14" class="edge">
<title>dy1&#45;&gt;32</title>
<path fill="none" stroke="#00ff00" stroke-width=".1301" d="M341.6819,-239.9546C361.1808,-235.1871 396.1738,-227.0978 426.5384,-222.5513 606.1315,-195.6605 652.7141,-203.266 833.5384,-186.5513 902.2547,-180.1994 982.9992,-172.3028 1024.958,-168.1667"/>
<polygon fill="#00ff00" stroke="#00ff00" stroke-width=".1301" points="1025.3924,-171.6409 1035.0002,-167.1755 1024.7048,-164.6747 1025.3924,-171.6409"/>
</g>
<!-- dy1&#45;&gt;30 -->
<g id="edge12" class="edge">
<title>dy1&#45;&gt;30</title>
<path fill="none" stroke="#00ff00" stroke-width=".1441" stroke-dasharray="1,5" d="M341.6554,-239.7648C361.1264,-234.797 396.0898,-226.4963 426.5384,-222.5513 543.3468,-207.4175 1403.7465,-173.1008 1572.7681,-166.4619"/>
<polygon fill="#00ff00" stroke="#00ff00" stroke-width=".1441" points="1573.031,-169.9543 1582.8862,-166.0651 1572.7567,-162.9597 1573.031,-169.9543"/>
</g>
<!-- dy1&#45;&gt;31 -->
<g id="edge13" class="edge">
<title>dy1&#45;&gt;31</title>
<path fill="none" stroke="#ff0000" stroke-width=".1883" stroke-dasharray="1,5" d="M336.2005,-234.61C341.4929,-230.1677 348.4131,-225.2246 355.5384,-222.5513 529.2915,-157.3611 595.1245,-244.1537 771.5384,-186.5513 775.38,-185.297 779.2421,-183.5529 782.9261,-181.5987"/>
<polygon fill="#ff0000" stroke="#ff0000" stroke-width=".1883" points="784.7776,-184.57 791.6035,-176.467 781.2144,-178.5448 784.7776,-184.57"/>
</g>
<!-- dx2 -->
<g id="node6" class="node">
<title>dx2</title>
<polygon fill="#d3d3d3" stroke="#000000" points="293.5384,-252.7645 263.5384,-252.7645 263.5384,-234.7645 293.5384,-234.7645 293.5384,-252.7645"/>
<text text-anchor="middle" x="278.5384" y="-241.5645" font-family="Times,serif" font-size="9.00" fill="#000000">dx2</text>
</g>
<!-- dx2&#45;&gt;0 -->
<g id="edge75" class="edge">
<title>dx2&#45;&gt;0</title>
<path fill="none" stroke="#ff0000" stroke-width=".5283" stroke-dasharray="1,5" d="M287.1508,-234.4621C291.43,-230.3096 296.8875,-225.6624 302.5384,-222.5513 412.0048,-162.2847 449.9594,-168.4013 572.5384,-144.1249 762.7717,-106.4498 996.9712,-92.004 1073.2451,-88.0967"/>
<polygon fill="#ff0000" stroke="#ff0000" stroke-width=".5283" points="1073.5149,-91.5877 1083.3286,-87.5952 1073.1671,-84.5964 1073.5149,-91.5877"/>
</g>
<!-- dx2&#45;&gt;1 -->
<g id="edge76" class="edge">
<title>dx2&#45;&gt;1</title>
<path fill="none" stroke="#ff0000" stroke-width=".2064" d="M286.4796,-234.4158C290.7617,-230.0372 296.4177,-225.2099 302.5384,-222.5513 456.1097,-155.8458 523.3011,-251.7023 677.5384,-186.5513 704.3857,-175.2108 700.6311,-155.3223 727.5384,-144.1249 742.7816,-137.7815 1253.818,-98.0671 1373.5966,-88.8298"/>
<polygon fill="#ff0000" stroke="#ff0000" stroke-width=".2064" points="1373.942,-92.3137 1383.6435,-88.0558 1373.4042,-85.3344 1373.942,-92.3137"/>
</g>
<!-- dx2&#45;&gt;2 -->
<g id="edge77" class="edge">
<title>dx2&#45;&gt;2</title>
<path fill="none" stroke="#00ff00" stroke-width=".1017" stroke-dasharray="1,5" d="M285.4578,-234.477C300.3066,-215.1347 337.1725,-170.1704 377.5384,-144.1249 461.254,-90.1086 490.2935,-87.3662 587.5384,-65.6985 705.1242,-39.4985 1086.1096,-20.6434 1188.1827,-15.9735"/>
<polygon fill="#00ff00" stroke="#00ff00" stroke-width=".1017" points="1188.6262,-19.4571 1198.4577,-15.5084 1188.3096,-12.4642 1188.6262,-19.4571"/>
</g>
<!-- dx2&#45;&gt;32 -->
<g id="edge17" class="edge">
<title>dx2&#45;&gt;32</title>
<path fill="none" stroke="#00ff00" stroke-width=".4187" d="M286.4486,-234.343C290.7228,-229.9458 296.381,-225.1239 302.5384,-222.5513 411.6671,-176.9561 715.664,-196.228 833.5384,-186.5513 902.3163,-180.9051 983.0358,-172.7226 1024.9744,-168.354"/>
<polygon fill="#00ff00" stroke="#00ff00" stroke-width=".4187" points="1025.4299,-171.8255 1035.0115,-167.304 1024.7016,-164.8635 1025.4299,-171.8255"/>
</g>
<!-- dx2&#45;&gt;30 -->
<g id="edge15" class="edge">
<title>dx2&#45;&gt;30</title>
<path fill="none" stroke="#ff0000" stroke-width=".445" d="M286.0011,-234.721C290.3141,-230.1919 296.1448,-225.1342 302.5384,-222.5513 310.1697,-219.4684 1383.1508,-174.4706 1572.9991,-166.5305"/>
<polygon fill="#ff0000" stroke="#ff0000" stroke-width=".445" points="1573.1977,-170.0254 1583.0427,-166.1106 1572.9052,-163.0315 1573.1977,-170.0254"/>
</g>
<!-- dx2&#45;&gt;31 -->
<g id="edge16" class="edge">
<title>dx2&#45;&gt;31</title>
<path fill="none" stroke="#00ff00" stroke-width=".5613" d="M286.4671,-234.3867C290.746,-230.0007 296.4029,-225.1756 302.5384,-222.5513 476.8301,-148.0033 540.8164,-219.261 727.5384,-186.5513 744.9274,-183.5051 764.0568,-178.4152 779.1359,-173.9848"/>
<polygon fill="#00ff00" stroke="#00ff00" stroke-width=".5613" points="780.2918,-177.292 788.8571,-171.0561 778.2726,-170.5895 780.2918,-177.292"/>
</g>
<!-- dy2 -->
<g id="node7" class="node">
<title>dy2</title>
<polygon fill="#d3d3d3" stroke="#000000" points="422.5384,-409.6173 392.5384,-409.6173 392.5384,-391.6173 422.5384,-391.6173 422.5384,-409.6173"/>
<text text-anchor="middle" x="407.5384" y="-398.4173" font-family="Times,serif" font-size="9.00" fill="#000000">dy2</text>
</g>
<!-- dy2&#45;&gt;0 -->
<g id="edge78" class="edge">
<title>dy2&#45;&gt;0</title>
<path fill="none" stroke="#ff0000" stroke-width=".3402" stroke-dasharray="1,5" d="M392.1854,-399.2072C328.4616,-393.2026 87.1267,-368.904 65.5384,-343.4041 5.9358,-273.0023 48.6732,-198.0144 123.5384,-144.1249 184.315,-100.3766 721.7966,-112.7486 796.5384,-108.1249 899.1724,-101.7757 1021.3184,-92.7413 1073.2087,-88.8343"/>
<polygon fill="#ff0000" stroke="#ff0000" stroke-width=".3402" points="1073.7529,-92.3033 1083.4609,-88.0602 1073.2257,-85.3232 1073.7529,-92.3033"/>
</g>
<!-- dy2&#45;&gt;1 -->
<g id="edge79" class="edge">
<title>dy2&#45;&gt;1</title>
<path fill="none" stroke="#ff0000" stroke-width=".1202" stroke-dasharray="1,5" d="M392.337,-396.2118C352.0642,-383.6164 242.8156,-343.2255 200.5384,-264.9777 169.4444,-207.4281 224.2137,-169.4178 284.5384,-144.1249 370.4865,-108.0887 1029.5081,-113.6967 1122.5384,-108.1249 1215.1094,-102.5806 1324.9439,-93.3416 1373.418,-89.1281"/>
<polygon fill="#ff0000" stroke="#ff0000" stroke-width=".1202" points="1373.9342,-92.5964 1383.5915,-88.2391 1373.3248,-85.623 1373.9342,-92.5964"/>
</g>
<!-- dy2&#45;&gt;2 -->
<g id="edge80" class="edge">
<title>dy2&#45;&gt;2</title>
<path fill="none" stroke="#00ff00" stroke-width=".1843" d="M392.154,-398.1834C367.0967,-394.2229 315.9086,-386.1478 272.5384,-379.4041 220.5513,-371.3206 72.7955,-383.3346 38.5384,-343.4041 -51.0746,-238.9502 51.559,-125.4498 175.5384,-65.6985 269.3891,-20.4676 1038.8357,-15.4618 1188.4015,-14.9153"/>
<polygon fill="#00ff00" stroke="#00ff00" stroke-width=".1843" points="1188.457,-18.4152 1198.4453,-14.8821 1188.4337,-11.4153 1188.457,-18.4152"/>
</g>
<!-- dy2&#45;&gt;32 -->
<g id="edge20" class="edge">
<title>dy2&#45;&gt;32</title>
<path fill="none" stroke="#00ff00" stroke-width=".1708" d="M422.6576,-398.855C505.2946,-388.9746 902.0887,-338.2693 997.5384,-264.9777 1021.1503,-246.8472 1036.3198,-215.7474 1044.8328,-193.1057"/>
<polygon fill="#00ff00" stroke="#00ff00" stroke-width=".1708" points="1048.2399,-193.9697 1048.2822,-183.3749 1041.6421,-191.6309 1048.2399,-193.9697"/>
</g>
<!-- 437 -->
<g id="node29" class="node">
<title>437</title>
<ellipse fill="#ffffff" stroke="#000000" cx="534.5384" cy="-322.1909" rx="21.4286" ry="21.4286"/>
<text text-anchor="middle" x="534.5384" y="-319.9909" font-family="Times,serif" font-size="9.00" fill="#000000">437</text>
</g>
<!-- dy2&#45;&gt;437 -->
<g id="edge126" class="edge">
<title>dy2&#45;&gt;437</title>
<path fill="none" stroke="#00ff00" stroke-width=".5819" d="M422.56,-392.2683C441.825,-381.4451 476.1388,-361.7758 504.5384,-343.4041 505.9744,-342.4751 507.4388,-341.508 508.9097,-340.521"/>
<polygon fill="#00ff00" stroke="#00ff00" stroke-width=".5819" points="511.0026,-343.3295 517.2555,-334.7766 507.0337,-337.5633 511.0026,-343.3295"/>
</g>
<!-- dy2&#45;&gt;30 -->
<g id="edge18" class="edge">
<title>dy2&#45;&gt;30</title>
<path fill="none" stroke="#ff0000" stroke-width=".3621" d="M422.5628,-400.1069C499.8586,-397.3469 860.3974,-382.8444 1152.5384,-343.4041 1333.8015,-318.9328 1413.0767,-378.4409 1556.5384,-264.9777 1578.8731,-247.3133 1590.4846,-216.1333 1596.2707,-193.3454"/>
<polygon fill="#ff0000" stroke="#ff0000" stroke-width=".3621" points="1599.694,-194.0759 1598.5368,-183.5444 1592.874,-192.4989 1599.694,-194.0759"/>
</g>
<!-- dy2&#45;&gt;31 -->
<g id="edge19" class="edge">
<title>dy2&#45;&gt;31</title>
<path fill="none" stroke="#ff0000" stroke-width=".5786" stroke-dasharray="1,5" d="M405.1038,-391.608C397.816,-362.4104 379.4669,-269.5702 426.5384,-222.5513 480.4492,-168.7007 694.7806,-209.1916 767.5384,-186.5513 772.3451,-185.0556 777.2377,-182.9423 781.8594,-180.6239"/>
<polygon fill="#ff0000" stroke="#ff0000" stroke-width=".5786" points="783.7553,-183.5764 790.8516,-175.7092 780.3981,-177.434 783.7553,-183.5764"/>
</g>
<!-- &#45;8 -->
<g id="node8" class="node">
<title>&#45;8</title>
<polygon fill="#d3d3d3" stroke="#000000" points="245.5384,-252.7645 221.5384,-252.7645 221.5384,-234.7645 245.5384,-234.7645 245.5384,-252.7645"/>
<text text-anchor="middle" x="233.5384" y="-241.5645" font-family="Times,serif" font-size="9.00" fill="#000000">&#45;8</text>
</g>
<!-- &#45;8&#45;&gt;0 -->
<g id="edge81" class="edge">
<title>&#45;8&#45;&gt;0</title>
<path fill="none" stroke="#00ff00" stroke-width=".5926" stroke-dasharray="1,5" d="M241.7096,-234.6396C245.4376,-230.7125 250.0218,-226.1965 254.5384,-222.5513 304.9906,-181.8331 316.0658,-164.7286 377.5384,-144.1249 394.4224,-138.4659 947.7873,-97.8923 1073.3652,-88.7418"/>
<polygon fill="#00ff00" stroke="#00ff00" stroke-width=".5926" points="1073.8205,-92.218 1083.5399,-88.001 1073.3121,-85.2365 1073.8205,-92.218"/>
</g>
<!-- &#45;8&#45;&gt;1 -->
<g id="edge82" class="edge">
<title>&#45;8&#45;&gt;1</title>
<path fill="none" stroke="#00ff00" stroke-width=".1743" stroke-dasharray="1,5" d="M240.3681,-234.6283C244.0846,-230.3038 249.0424,-225.4609 254.5384,-222.5513 339.0308,-177.8214 582.7587,-156.6371 677.5384,-144.1249 712.7731,-139.4734 1249.7409,-98.2905 1373.314,-88.839"/>
<polygon fill="#00ff00" stroke="#00ff00" stroke-width=".1743" points="1373.9467,-92.301 1383.6508,-88.0487 1373.413,-85.3213 1373.9467,-92.301"/>
</g>
<!-- &#45;8&#45;&gt;2 -->
<g id="edge83" class="edge">
<title>&#45;8&#45;&gt;2</title>
<path fill="none" stroke="#ff0000" stroke-width=".1803" d="M237.1568,-234.7202C245.0853,-215.8383 265.6186,-171.697 294.5384,-144.1249 347.0018,-94.1064 367.9464,-85.9768 437.5384,-65.6985 583.3563,-23.2088 1072.2625,-16.1283 1188.56,-15.0365"/>
<polygon fill="#ff0000" stroke="#ff0000" stroke-width=".1803" points="1188.6583,-18.5358 1198.6273,-14.9485 1188.5971,-11.5361 1188.6583,-18.5358"/>
</g>
<!-- &#45;8&#45;&gt;32 -->
<g id="edge22" class="edge">
<title>&#45;8&#45;&gt;32</title>
<path fill="none" stroke="#ff0000" stroke-width=".2057" d="M240.2274,-234.3419C243.9081,-229.9444 248.8762,-225.1226 254.5384,-222.5513 371.9173,-169.2475 705.0265,-196.7393 833.5384,-186.5513 902.3318,-181.0976 983.045,-172.8371 1024.9785,-168.4051"/>
<polygon fill="#ff0000" stroke="#ff0000" stroke-width=".2057" points="1025.4399,-171.8759 1035.0143,-167.3391 1024.7005,-164.915 1025.4399,-171.8759"/>
</g>
<!-- &#45;8&#45;&gt;31 -->
<g id="edge21" class="edge">
<title>&#45;8&#45;&gt;31</title>
<path fill="none" stroke="#00ff00" stroke-width=".2917" stroke-dasharray="1,5" d="M240.2526,-234.3964C243.9396,-230.0128 248.9059,-225.187 254.5384,-222.5513 339.9857,-182.5668 583.9223,-198.2142 677.5384,-186.5513 712.3779,-182.2109 752.2139,-175.3706 778.2877,-170.6362"/>
<polygon fill="#00ff00" stroke="#00ff00" stroke-width=".2917" points="779.0281,-174.0589 788.2321,-168.8114 777.7646,-167.1739 779.0281,-174.0589"/>
</g>
<!-- &#45;9 -->
<g id="node9" class="node">
<title>&#45;9</title>
<polygon fill="#d3d3d3" stroke="#000000" points="1143.5384,-331.1909 1119.5384,-331.1909 1119.5384,-313.1909 1143.5384,-313.1909 1143.5384,-331.1909"/>
<text text-anchor="middle" x="1131.5384" y="-319.9909" font-family="Times,serif" font-size="9.00" fill="#000000">&#45;9</text>
</g>
<!-- &#45;9&#45;&gt;0 -->
<g id="edge84" class="edge">
<title>&#45;9&#45;&gt;0</title>
<path fill="none" stroke="#ff0000" stroke-width=".4105" d="M1131.69,-313.0808C1131.8684,-295.5003 1131.7167,-255.7021 1127.5384,-222.5513 1122.5672,-183.1094 1111.9478,-138.1309 1105.0321,-111.1585"/>
<polygon fill="#ff0000" stroke="#ff0000" stroke-width=".4105" points="1108.4042,-110.2186 1102.4958,-101.4243 1101.6303,-111.9837 1108.4042,-110.2186"/>
</g>
<!-- &#45;9&#45;&gt;1 -->
<g id="edge85" class="edge">
<title>&#45;9&#45;&gt;1</title>
<path fill="none" stroke="#00ff00" stroke-width=".1387" d="M1143.7503,-321.6716C1252.0825,-317.0378 2045.0198,-282.5438 2061.5384,-264.9777 2106.4122,-217.2585 2010.9183,-150.3178 1999.5384,-144.1249 1948.245,-116.2112 1530.778,-93.5382 1423.5626,-88.1363"/>
<polygon fill="#00ff00" stroke="#00ff00" stroke-width=".1387" points="1423.5374,-84.6307 1413.3754,-87.6282 1423.1886,-91.6221 1423.5374,-84.6307"/>
</g>
<!-- &#45;9&#45;&gt;2 -->
<g id="edge86" class="edge">
<title>&#45;9&#45;&gt;2</title>
<path fill="none" stroke="#00ff00" stroke-width="1.2082" stroke-dasharray="1,5" d="M1119.2533,-320.948C1076.7048,-316.3667 936.7999,-298.9037 910.5384,-264.9777 898.9962,-250.0669 906.6099,-240.9937 910.5384,-222.5513 930.1299,-130.5785 968.6651,-108.2201 1052.5384,-65.6985 1098.1073,-42.5962 1156.2573,-27.3809 1188.7332,-20.022"/>
<polygon fill="#00ff00" stroke="#00ff00" stroke-width="1.2082" points="1189.6929,-23.3946 1198.7072,-17.8275 1188.1887,-16.5581 1189.6929,-23.3946"/>
</g>
<!-- &#45;9&#45;&gt;32 -->
<g id="edge25" class="edge">
<title>&#45;9&#45;&gt;32</title>
<path fill="none" stroke="#00ff00" stroke-width=".4668" d="M1130.6417,-313.1362C1128.5376,-294.9717 1122.144,-253.204 1105.5384,-222.5513 1097.8212,-208.306 1085.8212,-194.7749 1075.2927,-184.4514"/>
<polygon fill="#00ff00" stroke="#00ff00" stroke-width=".4668" points="1077.6428,-181.8567 1067.9686,-177.5368 1072.8373,-186.9467 1077.6428,-181.8567"/>
</g>
<!-- 516 -->
<g id="node23" class="node">
<title>516</title>
<ellipse fill="#ffffff" stroke="#000000" cx="766.5384" cy="-243.7645" rx="21.4286" ry="21.4286"/>
<text text-anchor="middle" x="766.5384" y="-241.5645" font-family="Times,serif" font-size="9.00" fill="#000000">516</text>
</g>
<!-- &#45;9&#45;&gt;516 -->
<g id="edge136" class="edge">
<title>&#45;9&#45;&gt;516</title>
<path fill="none" stroke="#ff0000" stroke-width=".1607" d="M1119.4284,-321.7072C1075.3682,-319.6152 919.9763,-309.3252 801.5384,-264.9777 798.6376,-263.8915 795.7098,-262.5602 792.8483,-261.0986"/>
<polygon fill="#ff0000" stroke="#ff0000" stroke-width=".1607" points="794.4764,-257.9984 784.0481,-256.127 791.0332,-264.0931 794.4764,-257.9984"/>
</g>
<!-- &#45;9&#45;&gt;30 -->
<g id="edge23" class="edge">
<title>&#45;9&#45;&gt;30</title>
<path fill="none" stroke="#ff0000" stroke-width=".4775" stroke-dasharray="1,5" d="M1143.8657,-321.5443C1202.3486,-318.302 1451.7627,-302.4621 1518.5384,-264.9777 1549.3887,-247.6599 1573.6387,-214.0595 1587.7673,-190.6911"/>
<polygon fill="#ff0000" stroke="#ff0000" stroke-width=".4775" points="1590.8292,-192.3883 1592.8504,-181.9881 1584.7847,-188.8579 1590.8292,-192.3883"/>
</g>
<!-- &#45;9&#45;&gt;31 -->
<g id="edge24" class="edge">
<title>&#45;9&#45;&gt;31</title>
<path fill="none" stroke="#00ff00" stroke-width=".2888" stroke-dasharray="1,5" d="M1119.397,-321.4143C1069.7089,-318.003 882.4663,-302.798 839.5384,-264.9777 819.2361,-247.091 811.3833,-216.4327 808.3682,-193.8358"/>
<polygon fill="#00ff00" stroke="#00ff00" stroke-width=".2888" points="811.836,-193.3492 807.2695,-183.789 804.8775,-194.1103 811.836,-193.3492"/>
</g>
<!-- &#45;10 -->
<g id="node10" class="node">
<title>&#45;10</title>
<polygon fill="#d3d3d3" stroke="#000000" points="1660.0384,-475.8305 1631.0384,-475.8305 1631.0384,-457.8305 1660.0384,-457.8305 1660.0384,-475.8305"/>
<text text-anchor="middle" x="1645.5384" y="-464.6305" font-family="Times,serif" font-size="9.00" fill="#000000">&#45;10</text>
</g>
<!-- &#45;10&#45;&gt;0 -->
<g id="edge87" class="edge">
<title>&#45;10&#45;&gt;0</title>
<path fill="none" stroke="#ff0000" stroke-width=".4499" stroke-dasharray="1,5" d="M1630.8308,-466.7047C1495.9747,-465.501 476.248,-455.3261 345.5384,-421.8305 195.5771,-383.4015 115.6964,-396.8055 34.5384,-264.9777 -96.0008,-52.9382 146.1903,-147.1531 796.5384,-108.1249 899.184,-101.965 1021.3239,-92.8306 1073.2107,-88.8659"/>
<polygon fill="#ff0000" stroke="#ff0000" stroke-width=".4499" points="1073.759,-92.3342 1083.4621,-88.0799 1073.2238,-85.3547 1073.759,-92.3342"/>
</g>
<!-- &#45;10&#45;&gt;1 -->
<g id="edge88" class="edge">
<title>&#45;10&#45;&gt;1</title>
<path fill="none" stroke="#00ff00" stroke-width=".1269" stroke-dasharray="1,5" d="M1660.2584,-465.1379C1772.4455,-451.7301 2482.627,-357.582 2282.5384,-144.1249 2252.361,-111.9313 1565.6317,-91.4734 1423.9619,-87.5875"/>
<polygon fill="#00ff00" stroke="#00ff00" stroke-width=".1269" points="1423.7665,-84.081 1413.6752,-87.3083 1423.5766,-91.0784 1423.7665,-84.081"/>
</g>
<!-- &#45;10&#45;&gt;2 -->
<g id="edge89" class="edge">
<title>&#45;10&#45;&gt;2</title>
<path fill="none" stroke="#00ff00" stroke-width=".7094" d="M1660.1371,-465.7362C1767.3258,-457.513 2428.5384,-403.4918 2428.5384,-322.1909 2428.5384,-322.1909 2428.5384,-322.1909 2428.5384,-165.3381 2428.5384,-40.3417 2287.8469,-91.4808 2165.5384,-65.6985 1981.0248,-26.8036 1370.7684,-16.863 1238.8317,-15.1475"/>
<polygon fill="#00ff00" stroke="#00ff00" stroke-width=".7094" points="1238.5801,-11.6442 1228.5368,-15.018 1238.492,-18.6436 1238.5801,-11.6442"/>
</g>
<!-- &#45;10&#45;&gt;32 -->
<g id="edge28" class="edge">
<title>&#45;10&#45;&gt;32</title>
<path fill="none" stroke="#ff0000" stroke-width=".4074" d="M1630.864,-465.3907C1553.1932,-457.4923 1190.5891,-417.0672 1110.5384,-343.4041 1067.9828,-304.2442 1057.0526,-233.3441 1054.3401,-193.8508"/>
<polygon fill="#ff0000" stroke="#ff0000" stroke-width=".4074" points="1057.8327,-193.6191 1053.7832,-183.8287 1050.8435,-194.0076 1057.8327,-193.6191"/>
</g>
<!-- 492 -->
<g id="node26" class="node">
<title>492</title>
<ellipse fill="#ffffff" stroke="#000000" cx="1621.5384" cy="-400.6173" rx="21.4286" ry="21.4286"/>
<text text-anchor="middle" x="1621.5384" y="-398.4173" font-family="Times,serif" font-size="9.00" fill="#000000">492</text>
</g>
<!-- &#45;10&#45;&gt;492 -->
<g id="edge131" class="edge">
<title>&#45;10&#45;&gt;492</title>
<path fill="none" stroke="#00ff00" stroke-width=".2294" d="M1642.2013,-457.6239C1639.6124,-450.4815 1635.8717,-440.1612 1632.2825,-430.2591"/>
<polygon fill="#00ff00" stroke="#00ff00" stroke-width=".2294" points="1635.4904,-428.8382 1628.7921,-420.6294 1628.9093,-431.2236 1635.4904,-428.8382"/>
</g>
<!-- 308 -->
<g id="node28" class="node">
<title>308</title>
<ellipse fill="#ffffff" stroke="#000000" cx="1667.5384" cy="-322.1909" rx="21.4286" ry="21.4286"/>
<text text-anchor="middle" x="1667.5384" y="-319.9909" font-family="Times,serif" font-size="9.00" fill="#000000">308</text>
</g>
<!-- &#45;10&#45;&gt;308 -->
<g id="edge121" class="edge">
<title>&#45;10&#45;&gt;308</title>
<path fill="none" stroke="#00ff00" stroke-width=".3321" stroke-dasharray="1,5" d="M1646.9146,-457.7827C1650.0298,-437.3017 1657.7431,-386.5905 1662.8032,-353.3228"/>
<polygon fill="#00ff00" stroke="#00ff00" stroke-width=".3321" points="1666.3,-353.6076 1664.3436,-343.195 1659.3796,-352.5549 1666.3,-353.6076"/>
</g>
<!-- &#45;10&#45;&gt;30 -->
<g id="edge26" class="edge">
<title>&#45;10&#45;&gt;30</title>
<path fill="none" stroke="#ff0000" stroke-width=".2284" d="M1660.161,-464.7083C1681.8806,-460.6826 1721.9866,-449.6923 1739.5384,-421.8305 1749.589,-405.8762 1740.9685,-398.206 1739.5384,-379.4041 1734.1212,-308.183 1751.4536,-276.4099 1704.5384,-222.5513 1678.9288,-193.1515 1657.0676,-208.0466 1624.5384,-186.5513 1623.8926,-186.1245 1623.2474,-185.6796 1622.6048,-185.2197"/>
<polygon fill="#ff0000" stroke="#ff0000" stroke-width=".2284" points="1624.5204,-182.2665 1614.5522,-178.6768 1620.1062,-187.6993 1624.5204,-182.2665"/>
</g>
<!-- &#45;10&#45;&gt;31 -->
<g id="edge27" class="edge">
<title>&#45;10&#45;&gt;31</title>
<path fill="none" stroke="#00ff00" stroke-width=".2374" stroke-dasharray="1,5" d="M1630.7704,-466.5881C1491.0388,-464.2608 406.3263,-445.4455 383.5384,-421.8305 348.3306,-385.3449 291.9446,-329.7007 399.5384,-222.5513 457.7602,-164.57 688.988,-210.6643 767.5384,-186.5513 772.3508,-185.074 777.2462,-182.9698 781.8689,-180.6546"/>
<polygon fill="#00ff00" stroke="#00ff00" stroke-width=".2374" points="783.7649,-183.607 790.8609,-175.7395 780.4075,-177.4647 783.7649,-183.607"/>
</g>
<!-- &#45;11 -->
<g id="node11" class="node">
<title>&#45;11</title>
<polygon fill="#d3d3d3" stroke="#000000" points="683.0384,-331.1909 654.0384,-331.1909 654.0384,-313.1909 683.0384,-313.1909 683.0384,-331.1909"/>
<text text-anchor="middle" x="668.5384" y="-319.9909" font-family="Times,serif" font-size="9.00" fill="#000000">&#45;11</text>
</g>
<!-- &#45;11&#45;&gt;0 -->
<g id="edge90" class="edge">
<title>&#45;11&#45;&gt;0</title>
<path fill="none" stroke="#00ff00" stroke-width=".2195" stroke-dasharray="1,5" d="M653.81,-318.7055C633.7323,-314.0648 596.5987,-305.8745 564.5384,-300.9777 486.8096,-289.1056 265.2341,-323.3376 212.5384,-264.9777 199.9015,-250.9825 205.1289,-239.8907 212.5384,-222.5513 232.3546,-176.1782 248.4318,-164.5537 294.5384,-144.1249 295.6819,-143.6182 937.1052,-98.3091 1073.3077,-88.6927"/>
<polygon fill="#00ff00" stroke="#00ff00" stroke-width=".2195" points="1073.8427,-92.1638 1083.5713,-87.9681 1073.3497,-85.1812 1073.8427,-92.1638"/>
</g>
<!-- &#45;11&#45;&gt;1 -->
<g id="edge91" class="edge">
<title>&#45;11&#45;&gt;1</title>
<path fill="none" stroke="#ff0000" stroke-width=".5532" stroke-dasharray="1,5" d="M683.1577,-316.6638C707.3718,-307.2894 757.0481,-287.1203 796.5384,-264.9777 879.3037,-218.5704 883.99,-178.2265 972.5384,-144.1249 1046.8616,-115.5017 1293.4239,-94.8336 1373.3151,-88.755"/>
<polygon fill="#ff0000" stroke="#ff0000" stroke-width=".5532" points="1373.7366,-92.2333 1383.4467,-87.9948 1373.2128,-85.2529 1373.7366,-92.2333"/>
</g>
<!-- &#45;11&#45;&gt;2 -->
<g id="edge92" class="edge">
<title>&#45;11&#45;&gt;2</title>
<path fill="none" stroke="#00ff00" stroke-width=".2652" stroke-dasharray="1,5" d="M653.8121,-318.6911C633.737,-314.034 596.6062,-305.8253 564.5384,-300.9777 484.3866,-288.8614 255.9563,-325.0594 201.5384,-264.9777 188.8801,-251.0019 195.71,-240.4841 201.5384,-222.5513 229.7011,-135.9 250.8235,-103.9062 333.5384,-65.6985 412.9263,-29.0275 1052.0961,-17.3035 1188.136,-15.2124"/>
<polygon fill="#00ff00" stroke="#00ff00" stroke-width=".2652" points="1188.4464,-18.7082 1198.3927,-15.0585 1188.3413,-11.709 1188.4464,-18.7082"/>
</g>
<!-- &#45;11&#45;&gt;32 -->
<g id="edge31" class="edge">
<title>&#45;11&#45;&gt;32</title>
<path fill="none" stroke="#ff0000" stroke-width=".2317" d="M683.2808,-320.4774C735.2955,-314.2499 909.7286,-291.77 958.5384,-264.9777 991.9799,-246.6212 1020.65,-212.4224 1037.499,-189.2714"/>
<polygon fill="#ff0000" stroke="#ff0000" stroke-width=".2317" points="1040.4373,-191.1784 1043.363,-180.9955 1034.7257,-187.1313 1040.4373,-191.1784"/>
</g>
<!-- 263 -->
<g id="node24" class="node">
<title>263</title>
<ellipse fill="#ffffff" stroke="#000000" cx="668.5384" cy="-243.7645" rx="21.4286" ry="21.4286"/>
<text text-anchor="middle" x="668.5384" y="-241.5645" font-family="Times,serif" font-size="9.00" fill="#000000">263</text>
</g>
<!-- &#45;11&#45;&gt;263 -->
<g id="edge119" class="edge">
<title>&#45;11&#45;&gt;263</title>
<path fill="none" stroke="#00ff00" stroke-width=".1016" stroke-dasharray="1,5" d="M668.5384,-312.8864C668.5384,-303.6658 668.5384,-289.0132 668.5384,-275.567"/>
<polygon fill="#00ff00" stroke="#00ff00" stroke-width=".1016" points="672.0385,-275.1689 668.5384,-265.169 665.0385,-275.169 672.0385,-275.1689"/>
</g>
<!-- &#45;11&#45;&gt;30 -->
<g id="edge29" class="edge">
<title>&#45;11&#45;&gt;30</title>
<path fill="none" stroke="#ff0000" stroke-width=".6444" stroke-dasharray="1,5" d="M683.3645,-321.4899C790.8599,-316.3657 1447.5861,-284.3379 1484.5384,-264.9777 1505.9426,-253.7635 1500.8474,-239.0112 1518.5384,-222.5513 1523.6852,-217.7627 1555.0662,-196.448 1577.7236,-181.2378"/>
<polygon fill="#ff0000" stroke="#ff0000" stroke-width=".6444" points="1579.8439,-184.0302 1586.2035,-175.5563 1575.9476,-178.2148 1579.8439,-184.0302"/>
</g>
<!-- &#45;11&#45;&gt;31 -->
<g id="edge30" class="edge">
<title>&#45;11&#45;&gt;31</title>
<path fill="none" stroke="#ff0000" stroke-width=".13" d="M660.8207,-312.9703C646.0365,-294.139 617.0187,-250.6702 638.5384,-222.5513 675.7561,-173.9204 715.2449,-210.6586 771.5384,-186.5513 775.2532,-184.9604 779.045,-183.0294 782.6961,-180.9879"/>
<polygon fill="#ff0000" stroke="#ff0000" stroke-width=".13" points="784.5664,-183.9476 791.3585,-175.8162 780.9781,-177.9373 784.5664,-183.9476"/>
</g>
<!-- &#45;12 -->
<g id="node12" class="node">
<title>&#45;12</title>
<polygon fill="#d3d3d3" stroke="#000000" points="1476.0384,-252.7645 1447.0384,-252.7645 1447.0384,-234.7645 1476.0384,-234.7645 1476.0384,-252.7645"/>
<text text-anchor="middle" x="1461.5384" y="-241.5645" font-family="Times,serif" font-size="9.00" fill="#000000">&#45;12</text>
</g>
<!-- &#45;12&#45;&gt;0 -->
<g id="edge93" class="edge">
<title>&#45;12&#45;&gt;0</title>
<path fill="none" stroke="#ff0000" stroke-width=".3723" stroke-dasharray="1,5" d="M1452.2368,-234.4323C1447.9831,-230.4668 1442.7392,-225.9781 1437.5384,-222.5513 1330.4004,-151.9588 1180.7666,-108.2033 1122.8065,-92.9759"/>
<polygon fill="#ff0000" stroke="#ff0000" stroke-width=".3723" points="1123.6394,-89.5762 1113.0818,-90.4646 1121.889,-96.3539 1123.6394,-89.5762"/>
</g>
<!-- &#45;12&#45;&gt;1 -->
<g id="edge94" class="edge">
<title>&#45;12&#45;&gt;1</title>
<path fill="none" stroke="#ff0000" stroke-width=".4502" d="M1469.0922,-234.7425C1483.2782,-216.6368 1510.9688,-174.9697 1493.5384,-144.1249 1478.5065,-117.5246 1445.6046,-101.9176 1422.7645,-93.8963"/>
<polygon fill="#ff0000" stroke="#ff0000" stroke-width=".4502" points="1423.6713,-90.5106 1413.0788,-90.7324 1421.4977,-97.1646 1423.6713,-90.5106"/>
</g>
<!-- &#45;12&#45;&gt;2 -->
<g id="edge95" class="edge">
<title>&#45;12&#45;&gt;2</title>
<path fill="none" stroke="#ff0000" stroke-width=".2644" d="M1469.848,-234.4089C1483.5462,-218.9381 1509.4727,-189.4339 1510.5384,-186.5513 1517.0769,-168.8651 1517.0003,-161.8393 1510.5384,-144.1249 1494.9264,-101.327 1483.5198,-89.2749 1444.5384,-65.6985 1409.7659,-44.6677 1290.6844,-25.7618 1238.4427,-18.2659"/>
<polygon fill="#ff0000" stroke="#ff0000" stroke-width=".2644" points="1238.7549,-14.7754 1228.3637,-16.8429 1237.7762,-21.7066 1238.7549,-14.7754"/>
</g>
<!-- &#45;12&#45;&gt;32 -->
<g id="edge34" class="edge">
<title>&#45;12&#45;&gt;32</title>
<path fill="none" stroke="#ff0000" stroke-width=".1589" stroke-dasharray="1,5" d="M1453.5366,-234.5503C1449.2392,-230.2059 1443.5876,-225.3687 1437.5384,-222.5513 1373.9305,-192.9261 1159.7834,-173.6449 1082.0416,-167.4782"/>
<polygon fill="#ff0000" stroke="#ff0000" stroke-width=".1589" points="1082.249,-163.9838 1072.0071,-166.6953 1081.7045,-170.9626 1082.249,-163.9838"/>
</g>
<!-- &#45;12&#45;&gt;30 -->
<g id="edge32" class="edge">
<title>&#45;12&#45;&gt;30</title>
<path fill="none" stroke="#ff0000" stroke-width=".4834" d="M1472.743,-234.7405C1477.9791,-230.7432 1484.4012,-226.1436 1490.5384,-222.5513 1523.8381,-203.0599 1535.7978,-205.2692 1569.5384,-186.5513 1572.3051,-185.0164 1575.1461,-183.3214 1577.9386,-181.5784"/>
<polygon fill="#ff0000" stroke="#ff0000" stroke-width=".4834" points="1580.0674,-184.369 1586.5438,-175.9841 1576.2521,-178.5002 1580.0674,-184.369"/>
</g>
<!-- &#45;12&#45;&gt;31 -->
<g id="edge33" class="edge">
<title>&#45;12&#45;&gt;31</title>
<path fill="none" stroke="#ff0000" stroke-width=".2309" d="M1453.6065,-234.3942C1449.3268,-230.01 1443.6701,-225.1844 1437.5384,-222.5513 1353.2941,-186.3756 1117.8358,-194.9512 1026.5384,-186.5513 957.8193,-180.2288 877.076,-172.3202 835.118,-168.1744"/>
<polygon fill="#ff0000" stroke="#ff0000" stroke-width=".2309" points="835.3721,-164.6826 825.076,-167.1809 834.6828,-171.6486 835.3721,-164.6826"/>
</g>
<!-- &#45;13 -->
<g id="node13" class="node">
<title>&#45;13</title>
<polygon fill="#d3d3d3" stroke="#000000" points="1850.0384,-252.7645 1821.0384,-252.7645 1821.0384,-234.7645 1850.0384,-234.7645 1850.0384,-252.7645"/>
<text text-anchor="middle" x="1835.5384" y="-241.5645" font-family="Times,serif" font-size="9.00" fill="#000000">&#45;13</text>
</g>
<!-- &#45;13&#45;&gt;0 -->
<g id="edge96" class="edge">
<title>&#45;13&#45;&gt;0</title>
<path fill="none" stroke="#00ff00" stroke-width=".5227" d="M1824.309,-234.7453C1818.6481,-230.5555 1811.5166,-225.7951 1804.5384,-222.5513 1750.1728,-197.2797 1726.9321,-215.6919 1674.5384,-186.5513 1650.2325,-173.0327 1653.862,-155.6247 1628.5384,-144.1249 1582.086,-123.0302 1222.4492,-95.8283 1123.6048,-88.69"/>
<polygon fill="#00ff00" stroke="#00ff00" stroke-width=".5227" points="1123.5964,-85.1805 1113.3715,-87.9556 1123.0953,-92.1626 1123.5964,-85.1805"/>
</g>
<!-- &#45;13&#45;&gt;1 -->
<g id="edge97" class="edge">
<title>&#45;13&#45;&gt;1</title>
<path fill="none" stroke="#ff0000" stroke-width=".2357" stroke-dasharray="1,5" d="M1823.9218,-234.7508C1818.712,-230.8442 1812.4253,-226.3136 1806.5384,-222.5513 1778.712,-204.7676 1769.9453,-203.3922 1741.5384,-186.5513 1711.22,-168.5772 1707.2115,-157.3437 1674.5384,-144.1249 1586.3953,-108.464 1473.0544,-93.9769 1423.544,-89.0653"/>
<polygon fill="#ff0000" stroke="#ff0000" stroke-width=".2357" points="1423.7296,-85.5673 1413.4444,-88.1102 1423.0705,-92.5362 1423.7296,-85.5673"/>
</g>
<!-- &#45;13&#45;&gt;2 -->
<g id="edge98" class="edge">
<title>&#45;13&#45;&gt;2</title>
<path fill="none" stroke="#ff0000" stroke-width=".1454" stroke-dasharray="1,5" d="M1827.1689,-234.4154C1798.656,-203.3254 1701.2547,-103.2564 1596.5384,-65.6985 1530.0271,-41.8433 1313.583,-22.8126 1239.0401,-16.8226"/>
<polygon fill="#ff0000" stroke="#ff0000" stroke-width=".1454" points="1238.9669,-13.3059 1228.7215,-16.0044 1238.4135,-20.284 1238.9669,-13.3059"/>
</g>
<!-- &#45;13&#45;&gt;32 -->
<g id="edge37" class="edge">
<title>&#45;13&#45;&gt;32</title>
<path fill="none" stroke="#ff0000" stroke-width=".4799" d="M1820.9503,-241.8769C1790.8206,-238.007 1719.5155,-228.996 1659.5384,-222.5513 1437.3587,-198.6776 1168.7605,-175.208 1082.0151,-167.7634"/>
<polygon fill="#ff0000" stroke="#ff0000" stroke-width=".4799" points="1082.1628,-164.2634 1071.9007,-166.8974 1081.5656,-171.2379 1082.1628,-164.2634"/>
</g>
<!-- &#45;13&#45;&gt;30 -->
<g id="edge35" class="edge">
<title>&#45;13&#45;&gt;30</title>
<path fill="none" stroke="#00ff00" stroke-width=".3626" stroke-dasharray="1,5" d="M1825.1848,-234.5716C1819.925,-230.3408 1813.24,-225.5959 1806.5384,-222.5513 1740.1769,-192.4027 1715.4728,-210.2334 1646.5384,-186.5513 1640.1057,-184.3414 1633.3724,-181.4837 1627.1321,-178.5859"/>
<polygon fill="#00ff00" stroke="#00ff00" stroke-width=".3626" points="1628.3712,-175.2972 1617.8457,-174.0866 1625.319,-181.5967 1628.3712,-175.2972"/>
</g>
<!-- &#45;13&#45;&gt;31 -->
<g id="edge36" class="edge">
<title>&#45;13&#45;&gt;31</title>
<path fill="none" stroke="#00ff00" stroke-width=".1429" stroke-dasharray="1,5" d="M1820.9684,-241.6923C1790.8721,-237.4819 1719.6253,-227.8757 1659.5384,-222.5513 1378.8503,-197.679 1307.5029,-208.0783 1026.5384,-186.5513 957.7308,-181.2794 877.0233,-172.9453 835.0945,-168.4534"/>
<polygon fill="#00ff00" stroke="#00ff00" stroke-width=".1429" points="835.3773,-164.9637 825.0599,-167.3722 834.6274,-171.9234 835.3773,-164.9637"/>
</g>
<!-- &#45;14 -->
<g id="node14" class="node">
<title>&#45;14</title>
<polygon fill="#d3d3d3" stroke="#000000" points="2052.0384,-252.7645 2023.0384,-252.7645 2023.0384,-234.7645 2052.0384,-234.7645 2052.0384,-252.7645"/>
<text text-anchor="middle" x="2037.5384" y="-241.5645" font-family="Times,serif" font-size="9.00" fill="#000000">&#45;14</text>
</g>
<!-- &#45;14&#45;&gt;0 -->
<g id="edge99" class="edge">
<title>&#45;14&#45;&gt;0</title>
<path fill="none" stroke="#00ff00" stroke-width=".2989" d="M2025.4469,-234.6972C2007.6185,-221.2589 1975.2342,-196.5668 1964.5384,-186.5513 1946.0608,-169.249 1949.3018,-155.1982 1926.5384,-144.1249 1815.9965,-90.3513 1497.1567,-116.8352 1374.5384,-108.1249 1282.0346,-101.5538 1172.166,-92.8359 1123.671,-88.9413"/>
<polygon fill="#00ff00" stroke="#00ff00" stroke-width=".2989" points="1123.7414,-85.4358 1113.4929,-88.1223 1123.1799,-92.4132 1123.7414,-85.4358"/>
</g>
<!-- &#45;14&#45;&gt;1 -->
<g id="edge100" class="edge">
<title>&#45;14&#45;&gt;1</title>
<path fill="none" stroke="#00ff00" stroke-width=".5076" d="M2033.9314,-234.6039C2025.3812,-214.2573 2001.7661,-165.4213 1964.5384,-144.1249 1917.0292,-116.9469 1527.4109,-93.9379 1423.7769,-88.2559"/>
<polygon fill="#00ff00" stroke="#00ff00" stroke-width=".5076" points="1423.793,-84.7517 1413.618,-87.7045 1423.4135,-91.7415 1423.793,-84.7517"/>
</g>
<!-- &#45;14&#45;&gt;2 -->
<g id="edge101" class="edge">
<title>&#45;14&#45;&gt;2</title>
<path fill="none" stroke="#ff0000" stroke-width=".2406" d="M2036.6979,-234.5894C2034.4151,-215.0616 2026.3408,-169.1328 1999.5384,-144.1249 1911.9108,-62.3643 1859.1015,-88.9863 1741.5384,-65.6985 1550.3941,-27.8352 1314.5147,-17.8244 1238.4338,-15.4907"/>
<polygon fill="#ff0000" stroke="#ff0000" stroke-width=".2406" points="1238.4898,-11.9909 1228.3926,-15.1996 1238.287,-18.988 1238.4898,-11.9909"/>
</g>
<!-- &#45;14&#45;&gt;32 -->
<g id="edge39" class="edge">
<title>&#45;14&#45;&gt;32</title>
<path fill="none" stroke="#ff0000" stroke-width=".2556" d="M2022.7474,-239.9259C2003.3338,-235.0498 1968.1303,-226.7636 1937.5384,-222.5513 1766.3791,-198.984 1214.7129,-172.7137 1082.3039,-166.6391"/>
<polygon fill="#ff0000" stroke="#ff0000" stroke-width=".2556" points="1082.298,-163.1353 1072.1487,-166.1752 1081.9785,-170.128 1082.298,-163.1353"/>
</g>
<!-- &#45;14&#45;&gt;30 -->
<g id="edge38" class="edge">
<title>&#45;14&#45;&gt;30</title>
<path fill="none" stroke="#ff0000" stroke-width=".936" stroke-dasharray="1,5" d="M2023.0019,-240.4884C2003.5729,-236.1538 1968.0442,-228.3817 1937.5384,-222.5513 1823.9664,-200.845 1688.0092,-178.9413 1630.0113,-169.7885"/>
<polygon fill="#ff0000" stroke="#ff0000" stroke-width=".936" points="1630.2184,-166.2781 1619.7959,-168.1811 1629.1303,-173.193 1630.2184,-166.2781"/>
</g>
<!-- &#45;15 -->
<g id="node15" class="node">
<title>&#45;15</title>
<polygon fill="#d3d3d3" stroke="#000000" points="1301.0384,-252.7645 1272.0384,-252.7645 1272.0384,-234.7645 1301.0384,-234.7645 1301.0384,-252.7645"/>
<text text-anchor="middle" x="1286.5384" y="-241.5645" font-family="Times,serif" font-size="9.00" fill="#000000">&#45;15</text>
</g>
<!-- &#45;15&#45;&gt;0 -->
<g id="edge102" class="edge">
<title>&#45;15&#45;&gt;0</title>
<path fill="none" stroke="#00ff00" stroke-width=".1402" d="M1275.7178,-234.7557C1270.4565,-230.6675 1263.9053,-225.9896 1257.5384,-222.5513 1217.4434,-200.8986 1196.8883,-215.3059 1161.5384,-186.5513 1136.3424,-166.0562 1118.1749,-132.6815 1108.0043,-110.2713"/>
<polygon fill="#00ff00" stroke="#00ff00" stroke-width=".1402" points="1111.0964,-108.6053 1103.8975,-100.8319 1104.6776,-111.398 1111.0964,-108.6053"/>
</g>
<!-- &#45;15&#45;&gt;1 -->
<g id="edge103" class="edge">
<title>&#45;15&#45;&gt;1</title>
<path fill="none" stroke="#00ff00" stroke-width=".5633" d="M1292.5561,-234.5774C1304.2131,-216.8651 1330.816,-176.8515 1354.5384,-144.1249 1363.7069,-131.4763 1374.3807,-117.5783 1382.9192,-106.6476"/>
<polygon fill="#00ff00" stroke="#00ff00" stroke-width=".5633" points="1385.8166,-108.6248 1389.2395,-98.5981 1380.311,-104.3019 1385.8166,-108.6248"/>
</g>
<!-- &#45;15&#45;&gt;2 -->
<g id="edge104" class="edge">
<title>&#45;15&#45;&gt;2</title>
<path fill="none" stroke="#ff0000" stroke-width=".3274" d="M1275.5172,-234.4837C1263.9838,-224.0849 1246.3534,-206.1037 1237.5384,-186.5513 1215.6595,-138.022 1212.5562,-74.5958 1212.7284,-40.0182"/>
<polygon fill="#ff0000" stroke="#ff0000" stroke-width=".3274" points="1216.2303,-39.9119 1212.8798,-29.8608 1209.2311,-39.8075 1216.2303,-39.9119"/>
</g>
<!-- &#45;15&#45;&gt;32 -->
<g id="edge42" class="edge">
<title>&#45;15&#45;&gt;32</title>
<path fill="none" stroke="#ff0000" stroke-width=".5896" d="M1276.129,-234.6913C1270.8559,-230.4887 1264.1759,-225.7331 1257.5384,-222.5513 1201.9301,-195.8946 1182.8321,-203.4959 1123.5384,-186.5513 1109.4723,-182.5316 1093.8903,-177.8338 1081.0053,-173.8823"/>
<polygon fill="#ff0000" stroke="#ff0000" stroke-width=".5896" points="1081.9177,-170.5011 1071.3304,-170.9004 1079.8559,-177.1906 1081.9177,-170.5011"/>
</g>
<!-- &#45;15&#45;&gt;30 -->
<g id="edge40" class="edge">
<title>&#45;15&#45;&gt;30</title>
<path fill="none" stroke="#ff0000" stroke-width=".3589" stroke-dasharray="1,5" d="M1294.1926,-234.6606C1298.3074,-230.3444 1303.7244,-225.4991 1309.5384,-222.5513 1355.7066,-199.1432 1508.5379,-177.3224 1572.7392,-168.9489"/>
<polygon fill="#ff0000" stroke="#ff0000" stroke-width=".3589" points="1573.4831,-172.3821 1582.9539,-167.633 1572.5886,-165.4395 1573.4831,-172.3821"/>
</g>
<!-- &#45;15&#45;&gt;31 -->
<g id="edge41" class="edge">
<title>&#45;15&#45;&gt;31</title>
<path fill="none" stroke="#ff0000" stroke-width=".3804" d="M1271.9109,-241.3745C1204.7248,-230.3971 925.1481,-184.7175 834.8189,-169.9588"/>
<polygon fill="#ff0000" stroke="#ff0000" stroke-width=".3804" points="835.2018,-166.475 824.7683,-168.3166 834.073,-173.3834 835.2018,-166.475"/>
</g>
<!-- &#45;16 -->
<g id="node16" class="node">
<title>&#45;16</title>
<polygon fill="#d3d3d3" stroke="#000000" points="1348.0384,-252.7645 1319.0384,-252.7645 1319.0384,-234.7645 1348.0384,-234.7645 1348.0384,-252.7645"/>
<text text-anchor="middle" x="1333.5384" y="-241.5645" font-family="Times,serif" font-size="9.00" fill="#000000">&#45;16</text>
</g>
<!-- &#45;16&#45;&gt;0 -->
<g id="edge105" class="edge">
<title>&#45;16&#45;&gt;0</title>
<path fill="none" stroke="#ff0000" stroke-width=".375" stroke-dasharray="1,5" d="M1324.2003,-234.4871C1319.9398,-230.5317 1314.7007,-226.0358 1309.5384,-222.5513 1279.8845,-202.5352 1268.1733,-205.0311 1237.5384,-186.5513 1193.2251,-159.8202 1144.8191,-123.3005 1118.435,-102.7125"/>
<polygon fill="#ff0000" stroke="#ff0000" stroke-width=".375" points="1120.3957,-99.8021 1110.3693,-96.3784 1116.0723,-105.3074 1120.3957,-99.8021"/>
</g>
<!-- &#45;16&#45;&gt;1 -->
<g id="edge106" class="edge">
<title>&#45;16&#45;&gt;1</title>
<path fill="none" stroke="#00ff00" stroke-width=".3206" stroke-dasharray="1,5" d="M1337.4098,-234.4224C1347.4096,-210.2916 1374.3342,-145.3193 1388.8875,-110.2004"/>
<polygon fill="#00ff00" stroke="#00ff00" stroke-width=".3206" points="1392.2125,-111.3192 1392.8075,-100.741 1385.7457,-108.6393 1392.2125,-111.3192"/>
</g>
<!-- &#45;16&#45;&gt;2 -->
<g id="edge107" class="edge">
<title>&#45;16&#45;&gt;2</title>
<path fill="none" stroke="#ff0000" stroke-width=".3083" stroke-dasharray="1,5" d="M1328.6856,-234.5072C1311.1694,-201.0927 1250.8894,-86.1011 1225.2401,-37.1718"/>
<polygon fill="#ff0000" stroke="#ff0000" stroke-width=".3083" points="1228.2002,-35.2799 1220.4574,-28.048 1222.0004,-38.5299 1228.2002,-35.2799"/>
</g>
<!-- &#45;16&#45;&gt;32 -->
<g id="edge45" class="edge">
<title>&#45;16&#45;&gt;32</title>
<path fill="none" stroke="#ff0000" stroke-width="1.5006" d="M1325.4475,-234.733C1321.1273,-230.4352 1315.4824,-225.5845 1309.5384,-222.5513 1289.215,-212.1802 1143.826,-182.9847 1081.6382,-170.7934"/>
<polygon fill="#ff0000" stroke="#ff0000" stroke-width="1.5006" points="1082.2066,-167.3384 1071.721,-168.8552 1080.8639,-174.2084 1082.2066,-167.3384"/>
</g>
<!-- &#45;16&#45;&gt;30 -->
<g id="edge43" class="edge">
<title>&#45;16&#45;&gt;30</title>
<path fill="none" stroke="#00ff00" stroke-width=".1554" stroke-dasharray="1,5" d="M1341.6428,-234.7592C1345.9664,-230.4681 1351.6103,-225.6155 1357.5384,-222.5513 1429.4347,-185.3878 1525.6715,-172.0247 1572.9189,-167.4956"/>
<polygon fill="#00ff00" stroke="#00ff00" stroke-width=".1554" points="1573.3851,-170.968 1583.0335,-166.591 1572.7615,-163.9958 1573.3851,-170.968"/>
</g>
<!-- &#45;16&#45;&gt;31 -->
<g id="edge44" class="edge">
<title>&#45;16&#45;&gt;31</title>
<path fill="none" stroke="#00ff00" stroke-width=".2649" stroke-dasharray="1,5" d="M1325.5772,-234.4612C1321.29,-230.0941 1315.6355,-225.2635 1309.5384,-222.5513 1287.6525,-212.8157 938.1784,-178.1621 835.0023,-168.0976"/>
<polygon fill="#00ff00" stroke="#00ff00" stroke-width=".2649" points="835.2913,-164.6092 824.9992,-167.1236 834.6129,-171.5763 835.2913,-164.6092"/>
</g>
<!-- &#45;17 -->
<g id="node17" class="node">
<title>&#45;17</title>
<polygon fill="#d3d3d3" stroke="#000000" points="2076.0384,-331.1909 2047.0384,-331.1909 2047.0384,-313.1909 2076.0384,-313.1909 2076.0384,-331.1909"/>
<text text-anchor="middle" x="2061.5384" y="-319.9909" font-family="Times,serif" font-size="9.00" fill="#000000">&#45;17</text>
</g>
<!-- &#45;17&#45;&gt;0 -->
<g id="edge108" class="edge">
<title>&#45;17&#45;&gt;0</title>
<path fill="none" stroke="#00ff00" stroke-width=".3918" d="M2054.4278,-312.9563C2039.9221,-294.4683 2005.3378,-252.1478 1970.5384,-222.5513 1946.2714,-201.9125 1880.7052,-154.3627 1850.5384,-144.1249 1750.0857,-110.0338 1480.3113,-116.1895 1374.5384,-108.1249 1282.0699,-101.0746 1172.1834,-92.6 1123.6774,-88.8542"/>
<polygon fill="#00ff00" stroke="#00ff00" stroke-width=".3918" points="1123.7368,-85.3484 1113.4969,-88.0679 1123.1976,-92.3277 1123.7368,-85.3484"/>
</g>
<!-- &#45;17&#45;&gt;1 -->
<g id="edge109" class="edge">
<title>&#45;17&#45;&gt;1</title>
<path fill="none" stroke="#00ff00" stroke-width=".5096" stroke-dasharray="1,5" d="M2076.1506,-318.6198C2098.7588,-312.2175 2141.4892,-296.4148 2159.5384,-264.9777 2188.566,-214.4189 2158.6225,-173.9641 2108.5384,-144.1249 2048.6531,-108.4463 1543.474,-91.2336 1423.8581,-87.6362"/>
<polygon fill="#00ff00" stroke="#00ff00" stroke-width=".5096" points="1423.613,-84.1275 1413.5139,-87.3304 1423.4061,-91.1244 1423.613,-84.1275"/>
</g>
<!-- &#45;17&#45;&gt;2 -->
<g id="edge110" class="edge">
<title>&#45;17&#45;&gt;2</title>
<path fill="none" stroke="#ff0000" stroke-width=".4775" stroke-dasharray="1,5" d="M2076.2574,-320.4169C2106.2621,-316.0971 2175.2303,-302.4862 2217.5384,-264.9777 2259.8743,-227.4446 2293.4598,-187.8367 2257.5384,-144.1249 2190.4419,-62.4769 1391.2511,-22.7931 1238.6339,-15.9346"/>
<polygon fill="#ff0000" stroke="#ff0000" stroke-width=".4775" points="1238.5578,-12.4279 1228.4125,-15.4813 1238.2476,-19.421 1238.5578,-12.4279"/>
</g>
<!-- &#45;17&#45;&gt;32 -->
<g id="edge48" class="edge">
<title>&#45;17&#45;&gt;32</title>
<path fill="none" stroke="#ff0000" stroke-width=".5247" stroke-dasharray="1,5" d="M2046.7477,-321.3044C1940.9139,-314.9395 1301.7914,-276.1372 1262.5384,-264.9777 1223.4481,-253.8645 1218.1069,-240.2798 1181.5384,-222.5513 1146.7736,-205.6973 1105.913,-187.7491 1079.8796,-176.5424"/>
<polygon fill="#ff0000" stroke="#ff0000" stroke-width=".5247" points="1081.2417,-173.3183 1070.6716,-172.5938 1078.4828,-179.7518 1081.2417,-173.3183"/>
</g>
<!-- 232 -->
<g id="node25" class="node">
<title>232</title>
<ellipse fill="#ffffff" stroke="#000000" cx="2129.5384" cy="-243.7645" rx="21.4286" ry="21.4286"/>
<text text-anchor="middle" x="2129.5384" y="-241.5645" font-family="Times,serif" font-size="9.00" fill="#000000">232</text>
</g>
<!-- &#45;17&#45;&gt;232 -->
<g id="edge116" class="edge">
<title>&#45;17&#45;&gt;232</title>
<path fill="none" stroke="#00ff00" stroke-width=".1493" d="M2069.6059,-312.8864C2079.2526,-301.7606 2095.7563,-282.7264 2109.0056,-267.4456"/>
<polygon fill="#00ff00" stroke="#00ff00" stroke-width=".1493" points="2111.6773,-269.7069 2115.5839,-259.8586 2106.3885,-265.1212 2111.6773,-269.7069"/>
</g>
<!-- 476 -->
<g id="node31" class="node">
<title>476</title>
<ellipse fill="#ffffff" stroke="#000000" cx="2227.5384" cy="-165.3381" rx="21.4286" ry="21.4286"/>
<text text-anchor="middle" x="2227.5384" y="-163.1381" font-family="Times,serif" font-size="9.00" fill="#000000">476</text>
</g>
<!-- &#45;17&#45;&gt;476 -->
<g id="edge129" class="edge">
<title>&#45;17&#45;&gt;476</title>
<path fill="none" stroke="#00ff00" stroke-width=".2969" d="M2076.3474,-319.7164C2103.2367,-314.4643 2160.2829,-299.7121 2192.5384,-264.9777 2210.015,-246.158 2218.8451,-218.1011 2223.2585,-196.5506"/>
<polygon fill="#00ff00" stroke="#00ff00" stroke-width=".2969" points="2226.7289,-197.03 2225.0888,-186.5629 2219.8435,-195.7682 2226.7289,-197.03"/>
</g>
<!-- &#45;17&#45;&gt;30 -->
<g id="edge46" class="edge">
<title>&#45;17&#45;&gt;30</title>
<path fill="none" stroke="#00ff00" stroke-width="1.2755" d="M2047.0304,-321.6095C2007.0248,-319.4533 1892.7314,-309.5269 1811.5384,-264.9777 1788.0011,-252.0632 1791.6644,-236.1887 1768.5384,-222.5513 1719.8413,-193.8347 1699.3735,-206.6636 1646.5384,-186.5513 1640.1817,-184.1316 1633.4776,-181.1931 1627.2413,-178.2842"/>
<polygon fill="#00ff00" stroke="#00ff00" stroke-width="1.2755" points="1628.473,-174.9929 1617.9437,-173.8159 1625.4408,-181.3021 1628.473,-174.9929"/>
</g>
<!-- &#45;17&#45;&gt;31 -->
<g id="edge47" class="edge">
<title>&#45;17&#45;&gt;31</title>
<path fill="none" stroke="#ff0000" stroke-width=".5586" d="M2047.0146,-321.3331C1935.8033,-314.7545 1222.3023,-272.3628 1177.5384,-264.9777 1046.2876,-243.3243 894.342,-194.9253 833.6279,-174.6032"/>
<polygon fill="#ff0000" stroke="#ff0000" stroke-width=".5586" points="834.6226,-171.245 824.0285,-171.3687 832.3874,-177.8786 834.6226,-171.245"/>
</g>
<!-- &#45;18 -->
<g id="node18" class="node">
<title>&#45;18</title>
<polygon fill="#d3d3d3" stroke="#000000" points="1731.0384,-409.6173 1702.0384,-409.6173 1702.0384,-391.6173 1731.0384,-391.6173 1731.0384,-409.6173"/>
<text text-anchor="middle" x="1716.5384" y="-398.4173" font-family="Times,serif" font-size="9.00" fill="#000000">&#45;18</text>
</g>
<!-- &#45;18&#45;&gt;0 -->
<g id="edge111" class="edge">
<title>&#45;18&#45;&gt;0</title>
<path fill="none" stroke="#ff0000" stroke-width=".7013" stroke-dasharray="1,5" d="M1731.2379,-396.5899C1789.5928,-379.8692 1998.8162,-312.5659 1937.5384,-222.5513 1935.8666,-220.0955 1741.4294,-144.8088 1738.5384,-144.1249 1708.0711,-136.9177 1238.7534,-98.3437 1123.8038,-88.967"/>
<polygon fill="#ff0000" stroke="#ff0000" stroke-width=".7013" points="1123.7799,-85.4535 1113.5286,-88.1296 1123.2113,-92.4304 1123.7799,-85.4535"/>
</g>
<!-- &#45;18&#45;&gt;1 -->
<g id="edge112" class="edge">
<title>&#45;18&#45;&gt;1</title>
<path fill="none" stroke="#00ff00" stroke-width=".3764" d="M1731.0977,-400.3316C1781.6611,-398.9325 1953.7593,-390.7562 2085.5384,-343.4041 2195.6423,-303.8406 2337.4711,-229.5585 2257.5384,-144.1249 2228.2713,-112.8436 1562.3262,-91.7 1423.6835,-87.6286"/>
<polygon fill="#00ff00" stroke="#00ff00" stroke-width=".3764" points="1423.7005,-84.1277 1413.6029,-87.3355 1423.497,-91.1247 1423.7005,-84.1277"/>
</g>
<!-- &#45;18&#45;&gt;2 -->
<g id="edge113" class="edge">
<title>&#45;18&#45;&gt;2</title>
<path fill="none" stroke="#00ff00" stroke-width=".2476" stroke-dasharray="1,5" d="M1731.3351,-399.517C1797.6987,-394.4511 2068.1172,-372.3767 2147.5384,-343.4041 2247.1114,-307.0802 2339.682,-230.7024 2278.5384,-144.1249 2218.4147,-58.9915 2159.6722,-86.4649 2057.5384,-65.6985 1895.0264,-32.6556 1361.916,-18.3293 1238.9843,-15.4209"/>
<polygon fill="#00ff00" stroke="#00ff00" stroke-width=".2476" points="1238.7728,-11.9152 1228.6941,-15.1817 1238.61,-18.9133 1238.7728,-11.9152"/>
</g>
<!-- &#45;18&#45;&gt;32 -->
<g id="edge51" class="edge">
<title>&#45;18&#45;&gt;32</title>
<path fill="none" stroke="#ff0000" stroke-width=".3676" d="M1701.9224,-395.4918C1688.8129,-390.9799 1669.0072,-384.3732 1651.5384,-379.4041 1444.7513,-320.5822 1374.9029,-358.9515 1181.5384,-264.9777 1154.0872,-251.6366 1151.6117,-241.3139 1127.5384,-222.5513 1110.4071,-209.1993 1090.9772,-194.1819 1076.3269,-182.8839"/>
<polygon fill="#ff0000" stroke="#ff0000" stroke-width=".3676" points="1078.3638,-180.0349 1068.3068,-176.7023 1074.0905,-185.5792 1078.3638,-180.0349"/>
</g>
<!-- &#45;18&#45;&gt;308 -->
<g id="edge128" class="edge">
<title>&#45;18&#45;&gt;308</title>
<path fill="none" stroke="#ff0000" stroke-width=".1281" d="M1710.725,-391.3128C1704.259,-380.9637 1693.5176,-363.7716 1684.3652,-349.1229"/>
<polygon fill="#ff0000" stroke="#ff0000" stroke-width=".1281" points="1687.1914,-347.0408 1678.9243,-340.4146 1681.2548,-350.7499 1687.1914,-347.0408"/>
</g>
<!-- &#45;18&#45;&gt;30 -->
<g id="edge49" class="edge">
<title>&#45;18&#45;&gt;30</title>
<path fill="none" stroke="#00ff00" stroke-width=".6797" d="M1717.0258,-391.5125C1718.0645,-363.5482 1717.7983,-277.4775 1679.5384,-222.5513 1662.8398,-198.5787 1647.5772,-204.5164 1624.5384,-186.5513 1623.8262,-185.996 1623.1096,-185.4233 1622.392,-184.8379"/>
<polygon fill="#00ff00" stroke="#00ff00" stroke-width=".6797" points="1624.6817,-182.1908 1614.8321,-178.2873 1620.0977,-187.4811 1624.6817,-182.1908"/>
</g>
<!-- &#45;18&#45;&gt;31 -->
<g id="edge50" class="edge">
<title>&#45;18&#45;&gt;31</title>
<path fill="none" stroke="#00ff00" stroke-width=".2363" d="M1701.843,-394.6544C1688.847,-389.665 1669.2536,-382.8286 1651.5384,-379.4041 1450.3458,-340.5121 865.7148,-424.0515 736.5384,-264.9777 724.6518,-250.34 728.4593,-239.589 736.5384,-222.5513 745.7016,-203.2273 764.9413,-188.2656 780.935,-178.497"/>
<polygon fill="#00ff00" stroke="#00ff00" stroke-width=".2363" points="782.9544,-181.373 789.876,-173.3517 779.463,-175.3059 782.9544,-181.373"/>
</g>
<!-- 32&#45;&gt;0 -->
<g id="edge58" class="edge">
<title>32&#45;&gt;0</title>
<path fill="none" stroke="#ff0000" stroke-width=".1225" stroke-dasharray="1,5" d="M1062.8624,-149.0881C1069.5091,-137.5042 1078.5244,-121.7923 1085.8292,-109.0613"/>
<polygon fill="#ff0000" stroke="#ff0000" stroke-width=".1225" points="1089.0732,-110.4402 1091.0143,-100.0247 1083.0017,-106.9564 1089.0732,-110.4402"/>
</g>
<!-- 32&#45;&gt;1 -->
<g id="edge59" class="edge">
<title>32&#45;&gt;1</title>
<path fill="none" stroke="#ff0000" stroke-width=".2042" stroke-dasharray="1,5" d="M1071.6013,-161.232C1129.1255,-148.1554 1308.1116,-107.4678 1373.93,-92.5057"/>
<polygon fill="#ff0000" stroke="#ff0000" stroke-width=".2042" points="1374.8543,-95.885 1383.8297,-90.2553 1373.3026,-89.0591 1374.8543,-95.885"/>
</g>
<!-- 32&#45;&gt;2 -->
<g id="edge60" class="edge">
<title>32&#45;&gt;2</title>
<path fill="none" stroke="#ff0000" stroke-width=".1586" d="M1052.3934,-146.8493C1052.0561,-124.8989 1054.8595,-88.4132 1074.5384,-65.6985 1103.5868,-32.1687 1156.6731,-20.7369 1188.164,-16.8472"/>
<polygon fill="#ff0000" stroke="#ff0000" stroke-width=".1586" points="1188.7554,-20.304 1198.3272,-15.762 1188.0121,-13.3436 1188.7554,-20.304"/>
</g>
<!-- 516&#45;&gt;31 -->
<g id="edge137" class="edge">
<title>516&#45;&gt;31</title>
<path fill="none" stroke="#00ff00" stroke-width=".3485" d="M776.2213,-224.7797C781.4073,-214.6116 787.8678,-201.9447 793.4909,-190.9198"/>
<polygon fill="#00ff00" stroke="#00ff00" stroke-width=".3485" points="796.7381,-192.2564 798.1637,-181.7579 790.5023,-189.076 796.7381,-192.2564"/>
</g>
<!-- 263&#45;&gt;32 -->
<g id="edge120" class="edge">
<title>263&#45;&gt;32</title>
<path fill="none" stroke="#00ff00" stroke-width=".5325" d="M688.5875,-236.7914C702.0332,-232.2935 720.2037,-226.5569 736.5384,-222.5513 841.6882,-196.7663 969.0891,-177.2609 1024.9546,-169.2834"/>
<polygon fill="#00ff00" stroke="#00ff00" stroke-width=".5325" points="1025.7343,-172.7081 1035.1462,-167.8432 1024.7548,-165.777 1025.7343,-172.7081"/>
</g>
<!-- 232&#45;&gt;1 -->
<g id="edge118" class="edge">
<title>232&#45;&gt;1</title>
<path fill="none" stroke="#00ff00" stroke-width=".2608" stroke-dasharray="1,5" d="M2125.2137,-222.9844C2119.1423,-199.539 2105.6512,-162.311 2078.5384,-144.1249 2023.1964,-107.0039 1539.8845,-90.9396 1423.6149,-87.5927"/>
<polygon fill="#00ff00" stroke="#00ff00" stroke-width=".2608" points="1423.6303,-84.0918 1413.5355,-87.3082 1423.4327,-91.089 1423.6303,-84.0918"/>
</g>
<!-- 232&#45;&gt;30 -->
<g id="edge117" class="edge">
<title>232&#45;&gt;30</title>
<path fill="none" stroke="#ff0000" stroke-width=".3334" d="M2109.5576,-236.4953C2096.1407,-231.8724 2077.9767,-226.1077 2061.5384,-222.5513 1900.684,-187.7504 1703.2784,-172.04 1630.3657,-167.1275"/>
<polygon fill="#ff0000" stroke="#ff0000" stroke-width=".3334" points="1630.351,-163.619 1620.1429,-166.4552 1629.8916,-170.604 1630.351,-163.619"/>
</g>
<!-- 492&#45;&gt;308 -->
<g id="edge132" class="edge">
<title>492&#45;&gt;308</title>
<path fill="none" stroke="#ff0000" stroke-width=".1976" d="M1632.4397,-382.0314C1638.1685,-372.2643 1645.2971,-360.1105 1651.6305,-349.3126"/>
<polygon fill="#ff0000" stroke="#ff0000" stroke-width=".1976" points="1654.6749,-351.04 1656.7153,-340.6435 1648.6369,-347.4984 1654.6749,-351.04"/>
</g>
<!-- 508&#45;&gt;31 -->
<g id="edge135" class="edge">
<title>508&#45;&gt;31</title>
<path fill="none" stroke="#ff0000" stroke-width=".1399" d="M473.988,-231.2359C479.384,-227.9105 485.502,-224.662 491.5384,-222.5513 609.9755,-181.1378 653.1013,-227.9648 771.5384,-186.5513 775.3531,-185.2174 779.2003,-183.4292 782.8773,-181.4543"/>
<polygon fill="#ff0000" stroke="#ff0000" stroke-width=".1399" points="784.7335,-184.4228 791.5515,-176.3132 781.1644,-178.401 784.7335,-184.4228"/>
</g>
<!-- 380 -->
<g id="node32" class="node">
<title>380</title>
<ellipse fill="#ffffff" stroke="#000000" cx="1629.5384" cy="-243.7645" rx="21.4286" ry="21.4286"/>
<text text-anchor="middle" x="1629.5384" y="-241.5645" font-family="Times,serif" font-size="9.00" fill="#000000">380</text>
</g>
<!-- 308&#45;&gt;380 -->
<g id="edge123" class="edge">
<title>308&#45;&gt;380</title>
<path fill="none" stroke="#00ff00" stroke-width=".2312" d="M1658.1451,-302.8046C1653.6355,-293.4973 1648.1459,-282.1677 1643.1862,-271.9316"/>
<polygon fill="#00ff00" stroke="#00ff00" stroke-width=".2312" points="1646.3338,-270.4009 1638.8236,-262.9278 1640.0343,-273.4532 1646.3338,-270.4009"/>
</g>
<!-- 308&#45;&gt;30 -->
<g id="edge122" class="edge">
<title>308&#45;&gt;30</title>
<path fill="none" stroke="#00ff00" stroke-width=".1984" stroke-dasharray="1,5" d="M1669.9841,-300.8878C1671.4586,-279.9408 1671.1958,-247.5611 1659.5384,-222.5513 1651.9644,-206.3021 1637.6723,-192.1181 1625.1712,-181.9377"/>
<polygon fill="#00ff00" stroke="#00ff00" stroke-width=".1984" points="1626.9606,-178.8972 1616.9074,-175.5531 1622.6809,-184.4366 1626.9606,-178.8972"/>
</g>
<!-- 437&#45;&gt;0 -->
<g id="edge127" class="edge">
<title>437&#45;&gt;0</title>
<path fill="none" stroke="#00ff00" stroke-width=".1388" d="M518.2509,-308.4933C514.0179,-305.5662 509.3019,-302.8082 504.5384,-300.9777 441.2437,-276.6558 246.5679,-315.674 201.5384,-264.9777 176.5106,-236.8003 221.7469,-149.3014 228.5384,-144.1249 278.8325,-105.7906 733.4413,-112.3404 796.5384,-108.1249 899.1399,-101.27 1021.3031,-92.5029 1073.2033,-88.75"/>
<polygon fill="#00ff00" stroke="#00ff00" stroke-width=".1388" points="1073.7364,-92.2207 1083.4575,-88.0076 1073.2309,-85.2389 1073.7364,-92.2207"/>
</g>
<!-- 437&#45;&gt;263 -->
<g id="edge133" class="edge">
<title>437&#45;&gt;263</title>
<path fill="none" stroke="#ff0000" stroke-width=".4013" stroke-dasharray="1,5" d="M552.8895,-311.4505C575.7157,-298.091 614.8867,-275.1653 641.2398,-259.7416"/>
<polygon fill="#ff0000" stroke="#ff0000" stroke-width=".4013" points="643.1163,-262.6988 649.9789,-254.6269 639.5804,-256.6574 643.1163,-262.6988"/>
</g>
<!-- 185 -->
<g id="node30" class="node">
<title>185</title>
<ellipse fill="#ffffff" stroke="#000000" cx="766.5384" cy="-86.9117" rx="21.4286" ry="21.4286"/>
<text text-anchor="middle" x="766.5384" y="-84.7117" font-family="Times,serif" font-size="9.00" fill="#000000">185</text>
</g>
<!-- 185&#45;&gt;2 -->
<g id="edge115" class="edge">
<title>185&#45;&gt;2</title>
<path fill="none" stroke="#ff0000" stroke-width=".1968" stroke-dasharray="1,5" d="M783.9813,-74.3638C789.3771,-71.0379 795.4966,-67.7939 801.5384,-65.6985 873.9016,-40.6012 1110.1095,-22.1264 1188.212,-16.5777"/>
<polygon fill="#ff0000" stroke="#ff0000" stroke-width=".1968" points="1188.8188,-20.0439 1198.5498,-15.8536 1188.3296,-13.061 1188.8188,-20.0439"/>
</g>
<!-- 476&#45;&gt;1 -->
<g id="edge130" class="edge">
<title>476&#45;&gt;1</title>
<path fill="none" stroke="#00ff00" stroke-width=".155" d="M2207.3552,-158.2469C2192.8474,-153.4533 2172.7196,-147.4177 2154.5384,-144.1249 2009.2956,-117.8198 1538.2789,-93.6924 1423.7903,-88.1175"/>
<polygon fill="#00ff00" stroke="#00ff00" stroke-width=".155" points="1423.7216,-84.6102 1413.5642,-87.6229 1423.3834,-91.602 1423.7216,-84.6102"/>
</g>
<!-- 380&#45;&gt;32 -->
<g id="edge125" class="edge">
<title>380&#45;&gt;32</title>
<path fill="none" stroke="#00ff00" stroke-width=".2646" d="M1608.4191,-240.585C1580.2013,-236.3573 1528.6341,-228.7033 1484.5384,-222.5513 1333.0337,-201.4141 1151.3007,-177.8881 1082.1444,-169.0018"/>
<polygon fill="#00ff00" stroke="#00ff00" stroke-width=".2646" points="1082.398,-165.5057 1072.0337,-167.7039 1081.5067,-172.4488 1082.398,-165.5057"/>
</g>
<!-- 380&#45;&gt;30 -->
<g id="edge124" class="edge">
<title>380&#45;&gt;30</title>
<path fill="none" stroke="#00ff00" stroke-width=".1754" stroke-dasharray="1,5" d="M1622.3277,-223.5678C1618.9493,-214.105 1614.8748,-202.6927 1611.2315,-192.4881"/>
<polygon fill="#00ff00" stroke="#00ff00" stroke-width=".1754" points="1614.4323,-191.0437 1607.7737,-182.8028 1607.8399,-193.3974 1614.4323,-191.0437"/>
</g>
<!-- 30&#45;&gt;0 -->
<g id="edge52" class="edge">
<title>30&#45;&gt;0</title>
<path fill="none" stroke="#00ff00" stroke-width=".3356" d="M1583.2449,-161.4544C1561.8061,-156.9705 1525.1835,-149.521 1493.5384,-144.1249 1354.032,-120.3361 1185.7098,-98.0893 1123.3445,-90.0653"/>
<polygon fill="#00ff00" stroke="#00ff00" stroke-width=".3356" points="1123.6499,-86.5759 1113.2861,-88.7766 1122.7602,-93.5192 1123.6499,-86.5759"/>
</g>
<!-- 30&#45;&gt;1 -->
<g id="edge53" class="edge">
<title>30&#45;&gt;1</title>
<path fill="none" stroke="#00ff00" stroke-width=".2683" stroke-dasharray="1,5" d="M1584.2307,-158.6515C1547.8139,-144.5823 1463.2404,-111.9085 1421.9976,-95.9748"/>
<polygon fill="#00ff00" stroke="#00ff00" stroke-width=".2683" points="1423.0908,-92.6451 1412.5014,-92.3061 1420.5681,-99.1748 1423.0908,-92.6451"/>
</g>
<!-- 30&#45;&gt;2 -->
<g id="edge54" class="edge">
<title>30&#45;&gt;2</title>
<path fill="none" stroke="#00ff00" stroke-width=".4588" d="M1601.1773,-146.7048C1599.6564,-123.9041 1593.4206,-85.8534 1569.5384,-65.6985 1544.1854,-44.3024 1315.5288,-23.3829 1238.6355,-16.8976"/>
<polygon fill="#00ff00" stroke="#00ff00" stroke-width=".4588" points="1238.6903,-13.3902 1228.434,-16.0472 1238.1087,-20.366 1238.6903,-13.3902"/>
</g>
<!-- 31&#45;&gt;0 -->
<g id="edge55" class="edge">
<title>31&#45;&gt;0</title>
<path fill="none" stroke="#00ff00" stroke-width=".2757" d="M824.2846,-159.8373C838.615,-155.4433 859.3215,-149.2024 877.5384,-144.1249 948.6816,-124.2953 1033.3525,-103.019 1074.1604,-92.9092"/>
<polygon fill="#00ff00" stroke="#00ff00" stroke-width=".2757" points="1075.1404,-96.2724 1084.0086,-90.4754 1073.4609,-89.4768 1075.1404,-96.2724"/>
</g>
<!-- 31&#45;&gt;1 -->
<g id="edge56" class="edge">
<title>31&#45;&gt;1</title>
<path fill="none" stroke="#ff0000" stroke-width=".153" d="M824.5951,-161.3968C846.1563,-156.7898 883.3484,-149.1566 915.5384,-144.1249 1089.7581,-116.8919 1301.1431,-96.0177 1373.1295,-89.2496"/>
<polygon fill="#ff0000" stroke="#ff0000" stroke-width=".153" points="1373.8274,-92.6998 1383.4589,-88.2857 1373.177,-85.73 1373.8274,-92.6998"/>
</g>
<!-- 31&#45;&gt;2 -->
<g id="edge57" class="edge">
<title>31&#45;&gt;2</title>
<path fill="none" stroke="#00ff00" stroke-width=".1064" d="M807.0775,-146.6627C808.8181,-123.8185 815.4263,-85.7231 839.5384,-65.6985 866.44,-43.3572 1108.5096,-22.9196 1188.2172,-16.7442"/>
<polygon fill="#00ff00" stroke="#00ff00" stroke-width=".1064" points="1188.6437,-20.2219 1198.3474,-15.9687 1188.1094,-13.2423 1188.6437,-20.2219"/>
</g>
<!-- 31&#45;&gt;185 -->
<g id="edge114" class="edge">
<title>31&#45;&gt;185</title>
<path fill="none" stroke="#ff0000" stroke-width=".2446" d="M798.0554,-148.7059C793.0747,-138.9403 786.6483,-126.3405 780.8991,-115.0681"/>
<polygon fill="#ff0000" stroke="#ff0000" stroke-width=".2446" points="783.937,-113.3209 776.2755,-106.0029 777.7012,-116.5014 783.937,-113.3209"/>
</g>
</g>
</svg>
