<?xml version="1.0" encoding="UTF-8" standalone="no"?>
<!DOCTYPE svg PUBLIC "-//W3C//DTD SVG 1.1//EN"
 "http://www.w3.org/Graphics/SVG/1.1/DTD/svg11.dtd">
<!-- Generated by graphviz version 2.40.1 (20161225.0304)
 -->
<!-- Title: %3 Pages: 1 -->
<svg width="2181pt" height="430pt"
 viewBox="0.00 0.00 2180.81 429.83" xmlns="http://www.w3.org/2000/svg" xmlns:xlink="http://www.w3.org/1999/xlink">
<g id="graph0" class="graph" transform="scale(1 1) rotate(0) translate(4 425.8305)">
<title>%3</title>
<polygon fill="#ffffff" stroke="transparent" points="-4,4 -4,-425.8305 2176.8148,-425.8305 2176.8148,4 -4,4"/>
<!-- num_lane_1 -->
<g id="node1" class="node">
<title>num_lane_1</title>
<polygon fill="#d3d3d3" stroke="#000000" points="484.8148,-331.1909 424.8148,-331.1909 424.8148,-313.1909 484.8148,-313.1909 484.8148,-331.1909"/>
<text text-anchor="middle" x="454.8148" y="-319.9909" font-family="Times,serif" font-size="9.00" fill="#000000">num_lane_1</text>
</g>
<!-- 0 -->
<g id="node26" class="node">
<title>0</title>
<ellipse fill="#add8e6" stroke="#000000" cx="1178.8148" cy="-14.8492" rx="14.7" ry="14.7"/>
<text text-anchor="middle" x="1178.8148" y="-12.6492" font-family="Times,serif" font-size="9.00" fill="#000000">0</text>
</g>
<!-- num_lane_1&#45;&gt;0 -->
<g id="edge1" class="edge">
<title>num_lane_1&#45;&gt;0</title>
<path fill="none" stroke="#ff0000" stroke-width=".2141" stroke-dasharray="1,5" d="M424.6785,-319.7744C338.9041,-312.6097 98.0501,-290.3898 73.8148,-264.9777 12.2473,-200.4207 24.9618,-117.1825 97.8148,-65.6985 142.345,-34.2297 995.2767,-18.0158 1153.6314,-15.2708"/>
<polygon fill="#ff0000" stroke="#ff0000" stroke-width=".2141" points="1153.8734,-18.7672 1163.812,-15.0964 1153.7534,-11.7683 1153.8734,-18.7672"/>
</g>
<!-- 1 -->
<g id="node27" class="node">
<title>1</title>
<ellipse fill="#add8e6" stroke="#000000" cx="1386.8148" cy="-165.3381" rx="14.7" ry="14.7"/>
<text text-anchor="middle" x="1386.8148" y="-163.1381" font-family="Times,serif" font-size="9.00" fill="#000000">1</text>
</g>
<!-- num_lane_1&#45;&gt;1 -->
<g id="edge2" class="edge">
<title>num_lane_1&#45;&gt;1</title>
<path fill="none" stroke="#ff0000" stroke-width=".1637" d="M485.0291,-318.6741C525.7933,-314.0359 600.6926,-305.8886 664.8148,-300.9777 741.2509,-295.1237 1292.8608,-311.4681 1353.8148,-264.9777 1376.5798,-247.6146 1383.8316,-214.0325 1386.0372,-190.6801"/>
<polygon fill="#ff0000" stroke="#ff0000" stroke-width=".1637" points="1389.5457,-190.6784 1386.747,-180.4599 1382.5625,-190.1933 1389.5457,-190.6784"/>
</g>
<!-- 2 -->
<g id="node28" class="node">
<title>2</title>
<ellipse fill="#add8e6" stroke="#000000" cx="843.8148" cy="-165.3381" rx="14.7" ry="14.7"/>
<text text-anchor="middle" x="843.8148" y="-163.1381" font-family="Times,serif" font-size="9.00" fill="#000000">2</text>
</g>
<!-- num_lane_1&#45;&gt;2 -->
<g id="edge3" class="edge">
<title>num_lane_1&#45;&gt;2</title>
<path fill="none" stroke="#ff0000" stroke-width=".7526" stroke-dasharray="1,5" d="M453.4361,-312.8945C451.083,-293.1311 448.7314,-246.7715 473.8148,-222.5513 486.3471,-210.4502 737.443,-178.4845 818.689,-168.4188"/>
<polygon fill="#ff0000" stroke="#ff0000" stroke-width=".7526" points="819.4875,-171.8469 828.9834,-167.1481 818.63,-164.8996 819.4875,-171.8469"/>
</g>
<!-- 643 -->
<g id="node29" class="node">
<title>643</title>
<ellipse fill="#ffffff" stroke="#000000" cx="563.8148" cy="-243.7645" rx="21.4286" ry="21.4286"/>
<text text-anchor="middle" x="563.8148" y="-241.5645" font-family="Times,serif" font-size="9.00" fill="#000000">643</text>
</g>
<!-- num_lane_1&#45;&gt;643 -->
<g id="edge104" class="edge">
<title>num_lane_1&#45;&gt;643</title>
<path fill="none" stroke="#00ff00" stroke-width=".2586" d="M467.7466,-312.8864C484.9718,-300.4927 515.8367,-278.2852 537.9359,-262.3846"/>
<polygon fill="#00ff00" stroke="#00ff00" stroke-width=".2586" points="540.1476,-265.1051 546.2207,-256.4236 536.0593,-259.423 540.1476,-265.1051"/>
</g>
<!-- 414 -->
<g id="node42" class="node">
<title>414</title>
<ellipse fill="#ffffff" stroke="#000000" cx="283.8148" cy="-165.3381" rx="21.4286" ry="21.4286"/>
<text text-anchor="middle" x="283.8148" y="-163.1381" font-family="Times,serif" font-size="9.00" fill="#000000">414</text>
</g>
<!-- num_lane_1&#45;&gt;414 -->
<g id="edge94" class="edge">
<title>num_lane_1&#45;&gt;414</title>
<path fill="none" stroke="#00ff00" stroke-width=".6449" stroke-dasharray="1,5" d="M424.5594,-318.0474C373.6593,-310.3887 274.4208,-292.2676 253.8148,-264.9777 237.2623,-243.0561 250.9557,-212.0248 264.8053,-190.4385"/>
<polygon fill="#00ff00" stroke="#00ff00" stroke-width=".6449" points="267.7426,-192.3431 270.46,-182.1026 261.9497,-188.4134 267.7426,-192.3431"/>
</g>
<!-- num_lane_2 -->
<g id="node2" class="node">
<title>num_lane_2</title>
<polygon fill="#d3d3d3" stroke="#000000" points="1154.8148,-252.7645 1094.8148,-252.7645 1094.8148,-234.7645 1154.8148,-234.7645 1154.8148,-252.7645"/>
<text text-anchor="middle" x="1124.8148" y="-241.5645" font-family="Times,serif" font-size="9.00" fill="#000000">num_lane_2</text>
</g>
<!-- num_lane_2&#45;&gt;0 -->
<g id="edge4" class="edge">
<title>num_lane_2&#45;&gt;0</title>
<path fill="none" stroke="#ff0000" stroke-width=".1298" d="M1126.9985,-234.5072C1134.756,-201.6219 1161.1525,-89.7226 1172.9891,-39.5455"/>
<polygon fill="#ff0000" stroke="#ff0000" stroke-width=".1298" points="1176.4568,-40.0892 1175.3463,-29.5527 1169.6438,-38.482 1176.4568,-40.0892"/>
</g>
<!-- num_lane_2&#45;&gt;1 -->
<g id="edge5" class="edge">
<title>num_lane_2&#45;&gt;1</title>
<path fill="none" stroke="#00ff00" stroke-width=".3786" d="M1139.5835,-234.6064C1146.7065,-230.4855 1155.4941,-225.8232 1163.8148,-222.5513 1233.3006,-195.2274 1320.1204,-177.3157 1361.9765,-169.6293"/>
<polygon fill="#00ff00" stroke="#00ff00" stroke-width=".3786" points="1362.8527,-173.028 1372.0759,-167.8143 1361.6145,-166.1384 1362.8527,-173.028"/>
</g>
<!-- num_lane_2&#45;&gt;2 -->
<g id="edge6" class="edge">
<title>num_lane_2&#45;&gt;2</title>
<path fill="none" stroke="#00ff00" stroke-width=".1864" d="M1110.4402,-234.7488C1103.2599,-230.5599 1094.3101,-225.7991 1085.8148,-222.5513 1009.2581,-193.283 913.1598,-175.9602 868.6061,-168.9618"/>
<polygon fill="#00ff00" stroke="#00ff00" stroke-width=".1864" points="869.0914,-165.4953 858.6766,-167.4403 868.0311,-172.4146 869.0914,-165.4953"/>
</g>
<!-- ego_velocity -->
<g id="node3" class="node">
<title>ego_velocity</title>
<polygon fill="#d3d3d3" stroke="#000000" points="1028.8148,-252.7645 966.8148,-252.7645 966.8148,-234.7645 1028.8148,-234.7645 1028.8148,-252.7645"/>
<text text-anchor="middle" x="997.8148" y="-241.5645" font-family="Times,serif" font-size="9.00" fill="#000000">ego_velocity</text>
</g>
<!-- ego_velocity&#45;&gt;0 -->
<g id="edge7" class="edge">
<title>ego_velocity&#45;&gt;0</title>
<path fill="none" stroke="#00ff00" stroke-width=".311" stroke-dasharray="1,5" d="M1003.8308,-234.4935C1021.5343,-207.4514 1075.4966,-126.7211 1127.8148,-65.6985 1137.9608,-53.8645 1150.3202,-41.4969 1160.3308,-31.9222"/>
<polygon fill="#00ff00" stroke="#00ff00" stroke-width=".311" points="1162.8962,-34.3138 1167.7684,-24.9057 1158.0927,-29.222 1162.8962,-34.3138"/>
</g>
<!-- ego_velocity&#45;&gt;1 -->
<g id="edge8" class="edge">
<title>ego_velocity&#45;&gt;1</title>
<path fill="none" stroke="#00ff00" stroke-width=".323" stroke-dasharray="1,5" d="M1012.5053,-234.7279C1020.1071,-230.4288 1029.6864,-225.5785 1038.8148,-222.5513 1155.652,-183.8058 1303.6025,-170.6305 1361.7407,-166.7593"/>
<polygon fill="#00ff00" stroke="#00ff00" stroke-width=".323" points="1362.0705,-170.2456 1371.8301,-166.1224 1361.6294,-163.2595 1362.0705,-170.2456"/>
</g>
<!-- ego_velocity&#45;&gt;2 -->
<g id="edge9" class="edge">
<title>ego_velocity&#45;&gt;2</title>
<path fill="none" stroke="#00ff00" stroke-width=".5705" stroke-dasharray="1,5" d="M979.8476,-234.6145C951.6394,-220.2491 897.0153,-192.4311 866.2618,-176.7695"/>
<polygon fill="#00ff00" stroke="#00ff00" stroke-width=".5705" points="867.6788,-173.5634 857.1794,-172.1442 864.5021,-179.8012 867.6788,-173.5634"/>
</g>
<!-- dx1 -->
<g id="node4" class="node">
<title>dx1</title>
<polygon fill="#d3d3d3" stroke="#000000" points="168.8148,-252.7645 138.8148,-252.7645 138.8148,-234.7645 168.8148,-234.7645 168.8148,-252.7645"/>
<text text-anchor="middle" x="153.8148" y="-241.5645" font-family="Times,serif" font-size="9.00" fill="#000000">dx1</text>
</g>
<!-- dx1&#45;&gt;0 -->
<g id="edge10" class="edge">
<title>dx1&#45;&gt;0</title>
<path fill="none" stroke="#ff0000" stroke-width=".5813" stroke-dasharray="1,5" d="M156.9822,-234.5092C169.2723,-198.7139 213.4858,-71.0643 220.8148,-65.6985 259.5339,-37.3506 1005.1507,-18.8281 1153.3357,-15.4187"/>
<polygon fill="#ff0000" stroke="#ff0000" stroke-width=".5813" points="1153.7601,-18.91 1163.6777,-15.1831 1153.6006,-11.9119 1153.7601,-18.91"/>
</g>
<!-- dx1&#45;&gt;1 -->
<g id="edge11" class="edge">
<title>dx1&#45;&gt;1</title>
<path fill="none" stroke="#00ff00" stroke-width=".2337" stroke-dasharray="1,5" d="M168.933,-239.7735C188.4051,-234.8148 223.3698,-226.5237 253.8148,-222.5513 367.0544,-207.7762 1205.0939,-172.8116 1361.6603,-166.3682"/>
<polygon fill="#00ff00" stroke="#00ff00" stroke-width=".2337" points="1361.8881,-169.8619 1371.736,-165.9542 1361.6007,-162.8678 1361.8881,-169.8619"/>
</g>
<!-- dx1&#45;&gt;2 -->
<g id="edge12" class="edge">
<title>dx1&#45;&gt;2</title>
<path fill="none" stroke="#ff0000" stroke-width=".819" d="M168.9645,-239.995C188.4699,-235.2702 223.4697,-227.226 253.8148,-222.5513 471.1495,-189.0703 736.7222,-171.6212 818.5909,-166.7669"/>
<polygon fill="#ff0000" stroke="#ff0000" stroke-width=".819" points="818.9144,-170.2541 828.6934,-166.177 818.5063,-163.266 818.9144,-170.2541"/>
</g>
<!-- 518 -->
<g id="node30" class="node">
<title>518</title>
<ellipse fill="#ffffff" stroke="#000000" cx="109.8148" cy="-165.3381" rx="21.4286" ry="21.4286"/>
<text text-anchor="middle" x="109.8148" y="-163.1381" font-family="Times,serif" font-size="9.00" fill="#000000">518</text>
</g>
<!-- dx1&#45;&gt;518 -->
<g id="edge98" class="edge">
<title>dx1&#45;&gt;518</title>
<path fill="none" stroke="#00ff00" stroke-width=".1871" d="M148.5946,-234.46C142.8805,-224.2751 133.4482,-207.4626 125.3168,-192.9692"/>
<polygon fill="#00ff00" stroke="#00ff00" stroke-width=".1871" points="128.1588,-190.8815 120.2134,-183.8728 122.054,-194.3066 128.1588,-190.8815"/>
</g>
<!-- dy1 -->
<g id="node5" class="node">
<title>dy1</title>
<polygon fill="#d3d3d3" stroke="#000000" points="1202.8148,-252.7645 1172.8148,-252.7645 1172.8148,-234.7645 1202.8148,-234.7645 1202.8148,-252.7645"/>
<text text-anchor="middle" x="1187.8148" y="-241.5645" font-family="Times,serif" font-size="9.00" fill="#000000">dy1</text>
</g>
<!-- dy1&#45;&gt;0 -->
<g id="edge13" class="edge">
<title>dy1&#45;&gt;0</title>
<path fill="none" stroke="#ff0000" stroke-width=".152" d="M1187.4508,-234.5072C1186.161,-201.6998 1181.7793,-90.2525 1179.7998,-39.9032"/>
<polygon fill="#ff0000" stroke="#ff0000" stroke-width=".152" points="1183.2953,-39.7169 1179.405,-29.8621 1176.3007,-39.9919 1183.2953,-39.7169"/>
</g>
<!-- dy1&#45;&gt;1 -->
<g id="edge14" class="edge">
<title>dy1&#45;&gt;1</title>
<path fill="none" stroke="#ff0000" stroke-width=".1319" stroke-dasharray="1,5" d="M1196.899,-234.5662C1201.3811,-230.4366 1207.0542,-225.7785 1212.8148,-222.5513 1262.344,-194.804 1327.4159,-177.9323 1362.2634,-170.2621"/>
<polygon fill="#ff0000" stroke="#ff0000" stroke-width=".1319" points="1363.0062,-173.6825 1372.0572,-168.1753 1361.5473,-166.8362 1363.0062,-173.6825"/>
</g>
<!-- dy1&#45;&gt;2 -->
<g id="edge15" class="edge">
<title>dy1&#45;&gt;2</title>
<path fill="none" stroke="#ff0000" stroke-width=".1326" d="M1179.7779,-234.6243C1175.4715,-230.2988 1169.8225,-225.4562 1163.8148,-222.5513 1111.3419,-197.1793 935.2268,-175.5044 869.1475,-168.0775"/>
<polygon fill="#ff0000" stroke="#ff0000" stroke-width=".1326" points="869.154,-164.5569 858.8293,-166.9337 868.3827,-171.5143 869.154,-164.5569"/>
</g>
<!-- dx2 -->
<g id="node6" class="node">
<title>dx2</title>
<polygon fill="#d3d3d3" stroke="#000000" points="340.8148,-252.7645 310.8148,-252.7645 310.8148,-234.7645 340.8148,-234.7645 340.8148,-252.7645"/>
<text text-anchor="middle" x="325.8148" y="-241.5645" font-family="Times,serif" font-size="9.00" fill="#000000">dx2</text>
</g>
<!-- dx2&#45;&gt;0 -->
<g id="edge16" class="edge">
<title>dx2&#45;&gt;0</title>
<path fill="none" stroke="#00ff00" stroke-width=".7732" stroke-dasharray="1,5" d="M330.2783,-234.5084C346.6914,-200.8852 404.5225,-86.1131 438.8148,-65.6985 501.3853,-28.4494 1031.076,-17.3272 1153.5927,-15.2419"/>
<polygon fill="#00ff00" stroke="#00ff00" stroke-width=".7732" points="1153.9092,-18.7373 1163.85,-15.0725 1153.7936,-11.7382 1153.9092,-18.7373"/>
</g>
<!-- dx2&#45;&gt;1 -->
<g id="edge17" class="edge">
<title>dx2&#45;&gt;1</title>
<path fill="none" stroke="#ff0000" stroke-width=".2363" stroke-dasharray="1,5" d="M333.289,-234.7493C337.6054,-230.2284 343.4356,-225.1696 349.8148,-222.5513 373.9946,-212.6268 1205.5503,-173.7236 1361.6847,-166.4968"/>
<polygon fill="#ff0000" stroke="#ff0000" stroke-width=".2363" points="1361.9111,-169.9902 1371.7388,-166.0321 1361.5878,-162.9976 1361.9111,-169.9902"/>
</g>
<!-- dx2&#45;&gt;2 -->
<g id="edge18" class="edge">
<title>dx2&#45;&gt;2</title>
<path fill="none" stroke="#00ff00" stroke-width=".2714" stroke-dasharray="1,5" d="M333.7784,-234.4665C338.0661,-230.1007 343.7204,-225.2697 349.8148,-222.5513 435.2593,-184.4381 730.0968,-169.8516 818.5404,-166.2734"/>
<polygon fill="#00ff00" stroke="#00ff00" stroke-width=".2714" points="818.8684,-169.7633 828.7234,-165.8737 818.5938,-162.7687 818.8684,-169.7633"/>
</g>
<!-- 428 -->
<g id="node34" class="node">
<title>428</title>
<ellipse fill="#ffffff" stroke="#000000" cx="419.8148" cy="-165.3381" rx="21.4286" ry="21.4286"/>
<text text-anchor="middle" x="419.8148" y="-163.1381" font-family="Times,serif" font-size="9.00" fill="#000000">428</text>
</g>
<!-- dx2&#45;&gt;428 -->
<g id="edge87" class="edge">
<title>dx2&#45;&gt;428</title>
<path fill="none" stroke="#00ff00" stroke-width=".1475" d="M336.0162,-234.5925C340.2524,-230.8244 345.2388,-226.4411 349.8148,-222.5513 364.6698,-209.9237 381.5899,-196.0799 395.0735,-185.1734"/>
<polygon fill="#00ff00" stroke="#00ff00" stroke-width=".1475" points="397.3897,-187.8019 402.9757,-178.7992 392.9948,-182.3534 397.3897,-187.8019"/>
</g>
<!-- dy2 -->
<g id="node7" class="node">
<title>dy2</title>
<polygon fill="#d3d3d3" stroke="#000000" points="1776.8148,-331.1909 1746.8148,-331.1909 1746.8148,-313.1909 1776.8148,-313.1909 1776.8148,-331.1909"/>
<text text-anchor="middle" x="1761.8148" y="-319.9909" font-family="Times,serif" font-size="9.00" fill="#000000">dy2</text>
</g>
<!-- dy2&#45;&gt;1 -->
<g id="edge19" class="edge">
<title>dy2&#45;&gt;1</title>
<path fill="none" stroke="#ff0000" stroke-width=".4596" d="M1762.1306,-313.1104C1762.281,-293.3558 1759.6332,-246.3457 1732.8148,-222.5513 1708.6688,-201.128 1487.0868,-175.9365 1411.7507,-167.9216"/>
<polygon fill="#ff0000" stroke="#ff0000" stroke-width=".4596" points="1412.0494,-164.4338 1401.7376,-166.8662 1411.3156,-171.3952 1412.0494,-164.4338"/>
</g>
<!-- dy2&#45;&gt;2 -->
<g id="edge20" class="edge">
<title>dy2&#45;&gt;2</title>
<path fill="none" stroke="#00ff00" stroke-width=".3037" stroke-dasharray="1,5" d="M1746.7778,-318.3726C1726.6613,-313.4378 1689.8104,-305.0028 1657.8148,-300.9777 1576.9099,-290.7998 997.5655,-301.8089 924.8148,-264.9777 915.9309,-260.4801 879.9943,-213.7285 859.0926,-185.8922"/>
<polygon fill="#00ff00" stroke="#00ff00" stroke-width=".3037" points="861.6803,-183.5083 852.888,-177.5967 856.0747,-187.7009 861.6803,-183.5083"/>
</g>
<!-- 236 -->
<g id="node33" class="node">
<title>236</title>
<ellipse fill="#ffffff" stroke="#000000" cx="1805.8148" cy="-243.7645" rx="21.4286" ry="21.4286"/>
<text text-anchor="middle" x="1805.8148" y="-241.5645" font-family="Times,serif" font-size="9.00" fill="#000000">236</text>
</g>
<!-- dy2&#45;&gt;236 -->
<g id="edge91" class="edge">
<title>dy2&#45;&gt;236</title>
<path fill="none" stroke="#00ff00" stroke-width=".3893" d="M1767.035,-312.8864C1772.7491,-302.7015 1782.1814,-285.889 1790.3127,-271.3956"/>
<polygon fill="#00ff00" stroke="#00ff00" stroke-width=".3893" points="1793.5756,-272.733 1795.4162,-262.2992 1787.4708,-269.3079 1793.5756,-272.733"/>
</g>
<!-- &#45;8 -->
<g id="node8" class="node">
<title>&#45;8</title>
<polygon fill="#d3d3d3" stroke="#000000" points="1133.8148,-331.1909 1109.8148,-331.1909 1109.8148,-313.1909 1133.8148,-313.1909 1133.8148,-331.1909"/>
<text text-anchor="middle" x="1121.8148" y="-319.9909" font-family="Times,serif" font-size="9.00" fill="#000000">&#45;8</text>
</g>
<!-- &#45;8&#45;&gt;0 -->
<g id="edge21" class="edge">
<title>&#45;8&#45;&gt;0</title>
<path fill="none" stroke="#00ff00" stroke-width=".2501" d="M1109.7261,-321.4384C1064.9513,-318.6553 904.2979,-308.707 771.8148,-300.9777 736.1527,-298.8971 154.3573,-290.9349 129.8148,-264.9777 116.8601,-251.2762 125.9355,-241.0041 129.8148,-222.5513 133.7319,-203.9187 183.1448,-76.5136 198.8148,-65.6985 239.2965,-37.7588 1004.4632,-18.843 1153.7023,-15.4112"/>
<polygon fill="#00ff00" stroke="#00ff00" stroke-width=".2501" points="1153.8106,-18.9097 1163.7283,-15.1828 1153.6511,-11.9116 1153.8106,-18.9097"/>
</g>
<!-- &#45;8&#45;&gt;1 -->
<g id="edge22" class="edge">
<title>&#45;8&#45;&gt;1</title>
<path fill="none" stroke="#ff0000" stroke-width=".9325" stroke-dasharray="1,5" d="M1134.0703,-321.8637C1185.9802,-320.1976 1386.8093,-310.8311 1424.8148,-264.9777 1444.7361,-240.9428 1421.9289,-205.3425 1404.0379,-183.8394"/>
<polygon fill="#ff0000" stroke="#ff0000" stroke-width=".9325" points="1406.4903,-181.3259 1397.2845,-176.0814 1401.2105,-185.922 1406.4903,-181.3259"/>
</g>
<!-- &#45;8&#45;&gt;2 -->
<g id="edge23" class="edge">
<title>&#45;8&#45;&gt;2</title>
<path fill="none" stroke="#ff0000" stroke-width=".2604" d="M1109.5964,-321.9287C1056.9022,-320.518 849.9877,-312.0144 810.8148,-264.9777 791.3409,-241.5945 811.3151,-206.3198 827.5587,-184.6173"/>
<polygon fill="#ff0000" stroke="#ff0000" stroke-width=".2604" points="830.5211,-186.512 833.9474,-176.4865 825.0169,-182.1872 830.5211,-186.512"/>
</g>
<!-- 582 -->
<g id="node31" class="node">
<title>582</title>
<ellipse fill="#ffffff" stroke="#000000" cx="1545.8148" cy="-243.7645" rx="21.4286" ry="21.4286"/>
<text text-anchor="middle" x="1545.8148" y="-241.5645" font-family="Times,serif" font-size="9.00" fill="#000000">582</text>
</g>
<!-- &#45;8&#45;&gt;582 -->
<g id="edge99" class="edge">
<title>&#45;8&#45;&gt;582</title>
<path fill="none" stroke="#00ff00" stroke-width=".6367" d="M1134.1779,-321.1786C1192.8586,-316.2554 1443.4366,-293.8732 1515.8148,-264.9777 1517.444,-264.3273 1519.0693,-263.5718 1520.6728,-262.7414"/>
<polygon fill="#00ff00" stroke="#00ff00" stroke-width=".6367" points="1522.7694,-265.5627 1529.4931,-257.3747 1519.1309,-259.5827 1522.7694,-265.5627"/>
</g>
<!-- &#45;9 -->
<g id="node9" class="node">
<title>&#45;9</title>
<polygon fill="#d3d3d3" stroke="#000000" points="1944.8148,-252.7645 1920.8148,-252.7645 1920.8148,-234.7645 1944.8148,-234.7645 1944.8148,-252.7645"/>
<text text-anchor="middle" x="1932.8148" y="-241.5645" font-family="Times,serif" font-size="9.00" fill="#000000">&#45;9</text>
</g>
<!-- &#45;9&#45;&gt;0 -->
<g id="edge24" class="edge">
<title>&#45;9&#45;&gt;0</title>
<path fill="none" stroke="#ff0000" stroke-width=".2875" stroke-dasharray="1,5" d="M1920.5894,-235.432C1913.8178,-231.1112 1905.1122,-226.0256 1896.8148,-222.5513 1839.5367,-198.5676 1820.7909,-205.9888 1761.8148,-186.5513 1622.9405,-140.7807 1596.3893,-105.9456 1455.8148,-65.6985 1364.6999,-39.6119 1252.754,-23.8767 1203.7622,-17.7732"/>
<polygon fill="#ff0000" stroke="#ff0000" stroke-width=".2875" points="1204.1132,-14.2902 1193.7629,-16.5534 1203.2654,-21.2387 1204.1132,-14.2902"/>
</g>
<!-- &#45;9&#45;&gt;1 -->
<g id="edge25" class="edge">
<title>&#45;9&#45;&gt;1</title>
<path fill="none" stroke="#ff0000" stroke-width=".2014" d="M1924.0563,-234.4533C1919.3778,-230.0842 1913.262,-225.2541 1906.8148,-222.5513 1883.6544,-212.8418 1512.2589,-177.1936 1411.7354,-167.6832"/>
<polygon fill="#ff0000" stroke="#ff0000" stroke-width=".2014" points="1411.8897,-164.1823 1401.6049,-166.7265 1411.2316,-171.1513 1411.8897,-164.1823"/>
</g>
<!-- &#45;9&#45;&gt;2 -->
<g id="edge26" class="edge">
<title>&#45;9&#45;&gt;2</title>
<path fill="none" stroke="#ff0000" stroke-width=".3449" stroke-dasharray="1,5" d="M1920.6757,-240.462C1902.4165,-235.6426 1866.726,-226.7957 1835.8148,-222.5513 1640.4926,-195.7316 1003.1287,-171.1937 868.8063,-166.2439"/>
<polygon fill="#ff0000" stroke="#ff0000" stroke-width=".3449" points="868.8131,-162.7419 858.6916,-165.8733 868.5567,-169.7372 868.8131,-162.7419"/>
</g>
<!-- 629 -->
<g id="node41" class="node">
<title>629</title>
<ellipse fill="#ffffff" stroke="#000000" cx="1738.8148" cy="-86.9117" rx="21.4286" ry="21.4286"/>
<text text-anchor="middle" x="1738.8148" y="-84.7117" font-family="Times,serif" font-size="9.00" fill="#000000">629</text>
</g>
<!-- &#45;9&#45;&gt;629 -->
<g id="edge102" class="edge">
<title>&#45;9&#45;&gt;629</title>
<path fill="none" stroke="#00ff00" stroke-width=".3821" d="M1923.2958,-234.6088C1918.6187,-230.4885 1912.7262,-225.826 1906.8148,-222.5513 1863.2926,-198.4417 1839.7886,-217.4787 1800.8148,-186.5513 1777.598,-168.1277 1760.7467,-138.4679 1750.5235,-116.2911"/>
<polygon fill="#00ff00" stroke="#00ff00" stroke-width=".3821" points="1753.6615,-114.7329 1746.4212,-106.998 1747.2577,-117.5598 1753.6615,-114.7329"/>
</g>
<!-- &#45;10 -->
<g id="node10" class="node">
<title>&#45;10</title>
<polygon fill="#d3d3d3" stroke="#000000" points="1648.3148,-331.1909 1619.3148,-331.1909 1619.3148,-313.1909 1648.3148,-313.1909 1648.3148,-331.1909"/>
<text text-anchor="middle" x="1633.8148" y="-319.9909" font-family="Times,serif" font-size="9.00" fill="#000000">&#45;10</text>
</g>
<!-- &#45;10&#45;&gt;0 -->
<g id="edge27" class="edge">
<title>&#45;10&#45;&gt;0</title>
<path fill="none" stroke="#ff0000" stroke-width="1.2744" stroke-dasharray="1,5" d="M1648.5687,-318.8631C1668.6751,-314.401 1705.8413,-306.4125 1737.8148,-300.9777 1796.1871,-291.0556 1962.8783,-309.5841 2001.8148,-264.9777 2037.1363,-224.5128 2031.471,-188.908 2001.8148,-144.1249 1952.5066,-69.6659 1903.5552,-86.948 1816.8148,-65.6985 1697.3261,-36.4263 1307.2135,-19.7493 1204.0364,-15.7791"/>
<polygon fill="#ff0000" stroke="#ff0000" stroke-width="1.2744" points="1204.0533,-12.2774 1193.9278,-15.3958 1203.7879,-19.2723 1204.0533,-12.2774"/>
</g>
<!-- &#45;10&#45;&gt;1 -->
<g id="edge28" class="edge">
<title>&#45;10&#45;&gt;1</title>
<path fill="none" stroke="#ff0000" stroke-width=".1979" d="M1641.1502,-313.129C1655.5293,-294.2137 1684.1509,-250.0126 1661.8148,-222.5513 1630.3195,-183.8291 1473.3507,-170.451 1411.7158,-166.6446"/>
<polygon fill="#ff0000" stroke="#ff0000" stroke-width=".1979" points="1411.8799,-163.1483 1401.6927,-166.0591 1411.4716,-170.1364 1411.8799,-163.1483"/>
</g>
<!-- &#45;10&#45;&gt;2 -->
<g id="edge29" class="edge">
<title>&#45;10&#45;&gt;2</title>
<path fill="none" stroke="#ff0000" stroke-width=".1772" stroke-dasharray="1,5" d="M1619.1308,-316.1678C1606.1422,-311.1399 1586.553,-304.2807 1568.8148,-300.9777 1494.2138,-287.0865 949.0965,-308.3281 886.8148,-264.9777 862.2748,-247.8969 851.6356,-213.7035 847.0931,-190.1776"/>
<polygon fill="#ff0000" stroke="#ff0000" stroke-width=".1772" points="850.5273,-189.4942 845.407,-180.2188 843.6256,-190.6628 850.5273,-189.4942"/>
</g>
<!-- 309 -->
<g id="node38" class="node">
<title>309</title>
<ellipse fill="#ffffff" stroke="#000000" cx="503.8148" cy="-243.7645" rx="21.4286" ry="21.4286"/>
<text text-anchor="middle" x="503.8148" y="-241.5645" font-family="Times,serif" font-size="9.00" fill="#000000">309</text>
</g>
<!-- &#45;10&#45;&gt;309 -->
<g id="edge88" class="edge">
<title>&#45;10&#45;&gt;309</title>
<path fill="none" stroke="#ff0000" stroke-width=".5988" stroke-dasharray="1,5" d="M1619.1451,-316.0888C1606.1657,-311.0103 1586.582,-304.1212 1568.8148,-300.9777 1342.1953,-260.8829 751.8971,-338.4902 533.8148,-264.9777 532.1525,-264.4174 530.5012,-263.7326 528.8776,-262.9567"/>
<polygon fill="#ff0000" stroke="#ff0000" stroke-width=".5988" points="530.3958,-259.7895 519.9998,-257.7463 526.8526,-265.8265 530.3958,-259.7895"/>
</g>
<!-- &#45;11 -->
<g id="node11" class="node">
<title>&#45;11</title>
<polygon fill="#d3d3d3" stroke="#000000" points="1652.3148,-252.7645 1623.3148,-252.7645 1623.3148,-234.7645 1652.3148,-234.7645 1652.3148,-252.7645"/>
<text text-anchor="middle" x="1637.8148" y="-241.5645" font-family="Times,serif" font-size="9.00" fill="#000000">&#45;11</text>
</g>
<!-- &#45;11&#45;&gt;0 -->
<g id="edge30" class="edge">
<title>&#45;11&#45;&gt;0</title>
<path fill="none" stroke="#00ff00" stroke-width=".1789" d="M1629.174,-234.6647C1600.6393,-205.1901 1505.6509,-111.5974 1407.8148,-65.6985 1338.4544,-33.1587 1247.3701,-20.9837 1203.9458,-16.8151"/>
<polygon fill="#00ff00" stroke="#00ff00" stroke-width=".1789" points="1204.0073,-13.3067 1193.7349,-15.9003 1203.3826,-20.2787 1204.0073,-13.3067"/>
</g>
<!-- &#45;11&#45;&gt;2 -->
<g id="edge31" class="edge">
<title>&#45;11&#45;&gt;2</title>
<path fill="none" stroke="#ff0000" stroke-width=".6235" d="M1622.8252,-237.4434C1610.4493,-232.5171 1592.3034,-225.9596 1575.8148,-222.5513 1436.1194,-193.6758 981.1828,-171.5594 868.994,-166.4545"/>
<polygon fill="#ff0000" stroke="#ff0000" stroke-width=".6235" points="868.8222,-162.9433 858.6746,-165.9892 868.5068,-169.9362 868.8222,-162.9433"/>
</g>
<!-- &#45;12 -->
<g id="node12" class="node">
<title>&#45;12</title>
<polygon fill="#d3d3d3" stroke="#000000" points="1995.3148,-331.1909 1966.3148,-331.1909 1966.3148,-313.1909 1995.3148,-313.1909 1995.3148,-331.1909"/>
<text text-anchor="middle" x="1980.8148" y="-319.9909" font-family="Times,serif" font-size="9.00" fill="#000000">&#45;12</text>
</g>
<!-- &#45;12&#45;&gt;0 -->
<g id="edge32" class="edge">
<title>&#45;12&#45;&gt;0</title>
<path fill="none" stroke="#ff0000" stroke-width=".2225" stroke-dasharray="1,5" d="M1995.5759,-313.9191C2010.9099,-304.383 2034.0066,-287.1342 2043.8148,-264.9777 2082.2497,-178.1543 2053.1408,-105.238 1966.8148,-65.6985 1896.1131,-33.3153 1331.697,-18.3902 1204.3022,-15.4156"/>
<polygon fill="#ff0000" stroke="#ff0000" stroke-width=".2225" points="1204.065,-11.9093 1193.9872,-15.1788 1203.9042,-18.9075 1204.065,-11.9093"/>
</g>
<!-- &#45;12&#45;&gt;1 -->
<g id="edge33" class="edge">
<title>&#45;12&#45;&gt;1</title>
<path fill="none" stroke="#ff0000" stroke-width=".2024" stroke-dasharray="1,5" d="M1969.5571,-312.9423C1940.0777,-288.7614 1862.4367,-225.329 1855.8148,-222.5513 1814.565,-205.2478 1503.0976,-175.8931 1411.8565,-167.5874"/>
<polygon fill="#ff0000" stroke="#ff0000" stroke-width=".2024" points="1412.1292,-164.0979 1401.8542,-166.6811 1411.4975,-171.0693 1412.1292,-164.0979"/>
</g>
<!-- &#45;12&#45;&gt;582 -->
<g id="edge101" class="edge">
<title>&#45;12&#45;&gt;582</title>
<path fill="none" stroke="#00ff00" stroke-width=".3376" d="M1965.944,-319.5393C1942.6874,-315.4167 1896.2816,-307.2884 1856.8148,-300.9777 1749.4397,-283.8086 1720.862,-289.0231 1614.8148,-264.9777 1601.8286,-262.0332 1587.7363,-257.8787 1575.6928,-254.0259"/>
<polygon fill="#00ff00" stroke="#00ff00" stroke-width=".3376" points="1576.7202,-250.6795 1566.1276,-250.8936 1574.5418,-257.3319 1576.7202,-250.6795"/>
</g>
<!-- 150 -->
<g id="node39" class="node">
<title>150</title>
<ellipse fill="#ffffff" stroke="#000000" cx="1971.8148" cy="-165.3381" rx="21.4286" ry="21.4286"/>
<text text-anchor="middle" x="1971.8148" y="-163.1381" font-family="Times,serif" font-size="9.00" fill="#000000">150</text>
</g>
<!-- &#45;12&#45;&gt;150 -->
<g id="edge76" class="edge">
<title>&#45;12&#45;&gt;150</title>
<path fill="none" stroke="#ff0000" stroke-width=".1777" stroke-dasharray="1,5" d="M1985.2667,-313.1547C1990.4395,-302.1063 1998.6673,-282.6876 2001.8148,-264.9777 2005.1143,-246.4125 2006.3239,-240.8604 2001.8148,-222.5513 1999.1999,-211.9334 1994.2252,-201.1044 1989.0675,-191.7652"/>
<polygon fill="#ff0000" stroke="#ff0000" stroke-width=".1777" points="1992.0011,-189.8484 1983.9294,-182.9856 1985.9596,-193.3841 1992.0011,-189.8484"/>
</g>
<!-- &#45;13 -->
<g id="node13" class="node">
<title>&#45;13</title>
<polygon fill="#d3d3d3" stroke="#000000" points="228.3148,-331.1909 199.3148,-331.1909 199.3148,-313.1909 228.3148,-313.1909 228.3148,-331.1909"/>
<text text-anchor="middle" x="213.8148" y="-319.9909" font-family="Times,serif" font-size="9.00" fill="#000000">&#45;13</text>
</g>
<!-- &#45;13&#45;&gt;0 -->
<g id="edge34" class="edge">
<title>&#45;13&#45;&gt;0</title>
<path fill="none" stroke="#00ff00" stroke-width=".5416" d="M199.0681,-319.3462C161.2922,-311.7533 62.56,-289.8834 41.8148,-264.9777 -14.9727,-196.8014 -15.9885,-120.4738 53.8148,-65.6985 98.5454,-30.598 991.1422,-17.2987 1153.5694,-15.165"/>
<polygon fill="#00ff00" stroke="#00ff00" stroke-width=".5416" points="1153.6362,-18.6646 1163.5901,-15.0355 1153.5457,-11.6651 1153.6362,-18.6646"/>
</g>
<!-- &#45;13&#45;&gt;2 -->
<g id="edge35" class="edge">
<title>&#45;13&#45;&gt;2</title>
<path fill="none" stroke="#ff0000" stroke-width=".1364" d="M228.7574,-319.4383C260.9151,-313.1125 338.4908,-295.6746 396.8148,-264.9777 423.8237,-250.7625 422.7656,-234.5844 450.8148,-222.5513 484.7801,-207.9801 737.5409,-177.6821 818.7622,-168.2232"/>
<polygon fill="#ff0000" stroke="#ff0000" stroke-width=".1364" points="819.5136,-171.6596 829.0437,-167.0307 818.7071,-164.7062 819.5136,-171.6596"/>
</g>
<!-- &#45;13&#45;&gt;518 -->
<g id="edge90" class="edge">
<title>&#45;13&#45;&gt;518</title>
<path fill="none" stroke="#ff0000" stroke-width=".2858" stroke-dasharray="1,5" d="M199.0305,-320.0104C172.9924,-315.2849 119.562,-301.4223 96.8148,-264.9777 83.5778,-243.77 89.2342,-215.0828 96.7794,-193.9356"/>
<polygon fill="#ff0000" stroke="#ff0000" stroke-width=".2858" points="100.0803,-195.1041 100.4389,-184.5153 93.5553,-192.5694 100.0803,-195.1041"/>
</g>
<!-- &#45;13&#45;&gt;309 -->
<g id="edge80" class="edge">
<title>&#45;13&#45;&gt;309</title>
<path fill="none" stroke="#00ff00" stroke-width=".1841" stroke-dasharray="1,5" d="M228.3237,-318.4993C263.2579,-309.5815 354.7833,-286.0443 430.8148,-264.9777 444.865,-261.0847 460.3825,-256.6015 473.4848,-252.7623"/>
<polygon fill="#00ff00" stroke="#00ff00" stroke-width=".1841" points="474.795,-256.0252 483.4006,-249.8449 472.8193,-249.3098 474.795,-256.0252"/>
</g>
<!-- &#45;14 -->
<g id="node14" class="node">
<title>&#45;14</title>
<polygon fill="#d3d3d3" stroke="#000000" points="1559.3148,-331.1909 1530.3148,-331.1909 1530.3148,-313.1909 1559.3148,-313.1909 1559.3148,-331.1909"/>
<text text-anchor="middle" x="1544.8148" y="-319.9909" font-family="Times,serif" font-size="9.00" fill="#000000">&#45;14</text>
</g>
<!-- &#45;14&#45;&gt;0 -->
<g id="edge36" class="edge">
<title>&#45;14&#45;&gt;0</title>
<path fill="none" stroke="#00ff00" stroke-width=".3238" stroke-dasharray="1,5" d="M1530.2158,-321.3558C1477.8186,-318.3722 1294.3088,-308.0419 1142.8148,-300.9777 1093.4391,-298.6753 288.0522,-300.6296 253.8148,-264.9777 183.4424,-191.6979 269.9204,-99.2614 365.8148,-65.6985 441.7714,-39.1137 1025.3697,-19.6048 1153.849,-15.6055"/>
<polygon fill="#00ff00" stroke="#00ff00" stroke-width=".3238" points="1154.0119,-19.1022 1163.8992,-15.2955 1153.796,-12.1056 1154.0119,-19.1022"/>
</g>
<!-- &#45;14&#45;&gt;1 -->
<g id="edge37" class="edge">
<title>&#45;14&#45;&gt;1</title>
<path fill="none" stroke="#ff0000" stroke-width=".2314" stroke-dasharray="1,5" d="M1552.6124,-313.0355C1567.5621,-294.3243 1596.9753,-251.0656 1575.8148,-222.5513 1556.0554,-195.9249 1458.2513,-176.8716 1411.6242,-169.1487"/>
<polygon fill="#ff0000" stroke="#ff0000" stroke-width=".2314" points="1412.1505,-165.6885 1401.7208,-167.552 1411.0362,-172.5992 1412.1505,-165.6885"/>
</g>
<!-- &#45;14&#45;&gt;2 -->
<g id="edge38" class="edge">
<title>&#45;14&#45;&gt;2</title>
<path fill="none" stroke="#ff0000" stroke-width=".2912" d="M1530.2011,-321.5318C1432.1753,-317.0439 873.4353,-290.3959 848.8148,-264.9777 829.8813,-245.4308 832.3049,-212.3455 837.002,-189.7027"/>
<polygon fill="#ff0000" stroke="#ff0000" stroke-width=".2912" points="840.4424,-190.362 839.3289,-179.8258 833.629,-188.7567 840.4424,-190.362"/>
</g>
<!-- &#45;14&#45;&gt;236 -->
<g id="edge78" class="edge">
<title>&#45;14&#45;&gt;236</title>
<path fill="none" stroke="#00ff00" stroke-width=".1788" stroke-dasharray="1,5" d="M1559.4606,-317.3649C1572.8127,-312.9935 1593.0978,-306.423 1610.8148,-300.9777 1668.7679,-283.1657 1736.7835,-263.4868 1775.239,-252.4734"/>
<polygon fill="#00ff00" stroke="#00ff00" stroke-width=".1788" points="1776.6162,-255.7199 1785.2686,-249.6056 1774.6917,-248.9896 1776.6162,-255.7199"/>
</g>
<!-- &#45;15 -->
<g id="node15" class="node">
<title>&#45;15</title>
<polygon fill="#d3d3d3" stroke="#000000" points="1992.3148,-252.7645 1963.3148,-252.7645 1963.3148,-234.7645 1992.3148,-234.7645 1992.3148,-252.7645"/>
<text text-anchor="middle" x="1977.8148" y="-241.5645" font-family="Times,serif" font-size="9.00" fill="#000000">&#45;15</text>
</g>
<!-- &#45;15&#45;&gt;0 -->
<g id="edge39" class="edge">
<title>&#45;15&#45;&gt;0</title>
<path fill="none" stroke="#ff0000" stroke-width=".1131" stroke-dasharray="1,5" d="M1970.7297,-234.5572C1946.5353,-203.9157 1863.4253,-105.0994 1768.8148,-65.6985 1664.291,-22.1692 1302.8654,-15.902 1203.9892,-15.0005"/>
<polygon fill="#ff0000" stroke="#ff0000" stroke-width=".1131" points="1203.7847,-11.4989 1193.7569,-14.9184 1203.7284,-18.4986 1203.7847,-11.4989"/>
</g>
<!-- &#45;15&#45;&gt;1 -->
<g id="edge40" class="edge">
<title>&#45;15&#45;&gt;1</title>
<path fill="none" stroke="#ff0000" stroke-width=".9335" stroke-dasharray="1,5" d="M1969.8681,-234.4284C1965.5846,-230.053 1959.929,-225.2248 1953.8148,-222.5513 1854.3001,-179.0383 1508.423,-168.0793 1411.9644,-165.8409"/>
<polygon fill="#ff0000" stroke="#ff0000" stroke-width=".9335" points="1411.7855,-162.3362 1401.7107,-165.6146 1411.631,-169.3345 1411.7855,-162.3362"/>
</g>
<!-- &#45;15&#45;&gt;2 -->
<g id="edge41" class="edge">
<title>&#45;15&#45;&gt;2</title>
<path fill="none" stroke="#ff0000" stroke-width=".2425" stroke-dasharray="1,5" d="M1970.3443,-234.74C1966.0291,-230.2165 1960.1987,-225.1581 1953.8148,-222.5513 1927.8369,-211.9437 1032.2066,-173.3588 869.1519,-166.413"/>
<polygon fill="#ff0000" stroke="#ff0000" stroke-width=".2425" points="868.8398,-162.8967 858.7,-165.9684 868.5422,-169.8904 868.8398,-162.8967"/>
</g>
<!-- &#45;15&#45;&gt;150 -->
<g id="edge75" class="edge">
<title>&#45;15&#45;&gt;150</title>
<path fill="none" stroke="#ff0000" stroke-width=".4394" stroke-dasharray="1,5" d="M1977.103,-234.46C1976.3905,-225.1481 1975.2543,-210.2961 1974.2173,-196.7416"/>
<polygon fill="#ff0000" stroke="#ff0000" stroke-width=".4394" points="1977.7051,-196.4464 1973.4523,-186.7425 1970.7255,-196.9804 1977.7051,-196.4464"/>
</g>
<!-- &#45;16 -->
<g id="node16" class="node">
<title>&#45;16</title>
<polygon fill="#d3d3d3" stroke="#000000" points="1847.3148,-331.1909 1818.3148,-331.1909 1818.3148,-313.1909 1847.3148,-313.1909 1847.3148,-331.1909"/>
<text text-anchor="middle" x="1832.8148" y="-319.9909" font-family="Times,serif" font-size="9.00" fill="#000000">&#45;16</text>
</g>
<!-- &#45;16&#45;&gt;0 -->
<g id="edge42" class="edge">
<title>&#45;16&#45;&gt;0</title>
<path fill="none" stroke="#ff0000" stroke-width=".2499" d="M1847.5116,-320.1296C1888.8892,-313.996 2004.7892,-294.4368 2026.8148,-264.9777 2035.0965,-253.9009 2039.5513,-169.2444 2025.8148,-144.1249 1995.4238,-88.5499 1966.816,-85.9974 1906.8148,-65.6985 1839.0225,-42.7638 1323.7946,-20.7026 1203.7562,-15.8389"/>
<polygon fill="#ff0000" stroke="#ff0000" stroke-width=".2499" points="1203.8277,-12.339 1193.695,-15.4341 1203.5462,-19.3333 1203.8277,-12.339"/>
</g>
<!-- &#45;16&#45;&gt;1 -->
<g id="edge43" class="edge">
<title>&#45;16&#45;&gt;1</title>
<path fill="none" stroke="#ff0000" stroke-width=".3393" stroke-dasharray="1,5" d="M1836.6945,-313.1248C1844.2821,-293.8088 1858.4619,-248.2673 1835.8148,-222.5513 1821.6226,-206.436 1504.2387,-176.1219 1411.8387,-167.6113"/>
<polygon fill="#ff0000" stroke="#ff0000" stroke-width=".3393" points="1411.999,-164.1114 1401.7213,-166.6839 1411.36,-171.0822 1411.999,-164.1114"/>
</g>
<!-- &#45;16&#45;&gt;2 -->
<g id="edge44" class="edge">
<title>&#45;16&#45;&gt;2</title>
<path fill="none" stroke="#00ff00" stroke-width=".1684" d="M1818.0935,-313.7916C1809.0796,-309.1012 1797.1364,-303.673 1785.8148,-300.9777 1606.648,-258.325 1123.7711,-344.8434 957.8148,-264.9777 935.2701,-254.1282 939.184,-239.538 920.8148,-222.5513 903.234,-206.2935 881.1122,-190.2503 865.0961,-179.3091"/>
<polygon fill="#00ff00" stroke="#00ff00" stroke-width=".1684" points="866.7029,-176.1717 856.4521,-173.4936 862.7954,-181.9796 866.7029,-176.1717"/>
</g>
<!-- &#45;16&#45;&gt;236 -->
<g id="edge85" class="edge">
<title>&#45;16&#45;&gt;236</title>
<path fill="none" stroke="#00ff00" stroke-width=".3192" stroke-dasharray="1,5" d="M1829.6115,-312.8864C1826.2843,-303.222 1820.9027,-287.5901 1816.0983,-273.6347"/>
<polygon fill="#00ff00" stroke="#00ff00" stroke-width=".3192" points="1819.3041,-272.1945 1812.7395,-263.8785 1812.6854,-274.4732 1819.3041,-272.1945"/>
</g>
<!-- &#45;17 -->
<g id="node17" class="node">
<title>&#45;17</title>
<polygon fill="#d3d3d3" stroke="#000000" points="292.3148,-252.7645 263.3148,-252.7645 263.3148,-234.7645 292.3148,-234.7645 292.3148,-252.7645"/>
<text text-anchor="middle" x="277.8148" y="-241.5645" font-family="Times,serif" font-size="9.00" fill="#000000">&#45;17</text>
</g>
<!-- &#45;17&#45;&gt;0 -->
<g id="edge45" class="edge">
<title>&#45;17&#45;&gt;0</title>
<path fill="none" stroke="#ff0000" stroke-width=".34" stroke-dasharray="1,5" d="M283.8428,-234.4934C307.196,-198.639 390.8596,-70.798 399.8148,-65.6985 466.6228,-27.6551 1026.9771,-17.1034 1153.4989,-15.1962"/>
<polygon fill="#ff0000" stroke="#ff0000" stroke-width=".34" points="1153.7958,-18.6924 1163.7436,-15.0467 1153.6935,-11.6931 1153.7958,-18.6924"/>
</g>
<!-- &#45;17&#45;&gt;1 -->
<g id="edge46" class="edge">
<title>&#45;17&#45;&gt;1</title>
<path fill="none" stroke="#ff0000" stroke-width=".1157" stroke-dasharray="1,5" d="M285.2865,-234.7431C289.6021,-230.2204 295.4324,-225.1618 301.8148,-222.5513 327.1764,-212.1778 1200.8289,-173.4808 1361.5441,-166.4407"/>
<polygon fill="#ff0000" stroke="#ff0000" stroke-width=".1157" points="1362.0246,-169.9231 1371.8621,-165.9893 1361.7186,-162.9298 1362.0246,-169.9231"/>
</g>
<!-- &#45;17&#45;&gt;2 -->
<g id="edge47" class="edge">
<title>&#45;17&#45;&gt;2</title>
<path fill="none" stroke="#ff0000" stroke-width=".2206" d="M285.7668,-234.4403C290.0515,-230.0679 295.7067,-225.2388 301.8148,-222.5513 396.4822,-180.8979 724.7161,-168.6626 818.5688,-165.9773"/>
<polygon fill="#ff0000" stroke="#ff0000" stroke-width=".2206" points="818.9208,-169.469 828.8209,-165.6958 818.7286,-162.4717 818.9208,-169.469"/>
</g>
<!-- &#45;17&#45;&gt;414 -->
<g id="edge86" class="edge">
<title>&#45;17&#45;&gt;414</title>
<path fill="none" stroke="#00ff00" stroke-width=".4494" stroke-dasharray="1,5" d="M278.5266,-234.46C279.239,-225.1481 280.3753,-210.2961 281.4123,-196.7416"/>
<polygon fill="#00ff00" stroke="#00ff00" stroke-width=".4494" points="284.9041,-196.9804 282.1773,-186.7425 277.9245,-196.4464 284.9041,-196.9804"/>
</g>
<!-- &#45;18 -->
<g id="node18" class="node">
<title>&#45;18</title>
<polygon fill="#d3d3d3" stroke="#000000" points="1250.3148,-252.7645 1221.3148,-252.7645 1221.3148,-234.7645 1250.3148,-234.7645 1250.3148,-252.7645"/>
<text text-anchor="middle" x="1235.8148" y="-241.5645" font-family="Times,serif" font-size="9.00" fill="#000000">&#45;18</text>
</g>
<!-- &#45;18&#45;&gt;0 -->
<g id="edge48" class="edge">
<title>&#45;18&#45;&gt;0</title>
<path fill="none" stroke="#00ff00" stroke-width=".1897" d="M1233.936,-234.4317C1228.5318,-207.8744 1212.2167,-129.6754 1194.8148,-65.6985 1192.3971,-56.8101 1189.4408,-47.1468 1186.7302,-38.6547"/>
<polygon fill="#00ff00" stroke="#00ff00" stroke-width=".1897" points="1190.0153,-37.4385 1183.5984,-29.008 1183.3573,-39.6001 1190.0153,-37.4385"/>
</g>
<!-- &#45;18&#45;&gt;1 -->
<g id="edge49" class="edge">
<title>&#45;18&#45;&gt;1</title>
<path fill="none" stroke="#ff0000" stroke-width=".3341" stroke-dasharray="1,5" d="M1245.0871,-234.3875C1249.3355,-230.4137 1254.5832,-225.9309 1259.8148,-222.5513 1293.3486,-200.8887 1336.4461,-183.3728 1362.8275,-173.6639"/>
<polygon fill="#ff0000" stroke="#ff0000" stroke-width=".3341" points="1364.1669,-176.9016 1372.3883,-170.2188 1361.7939,-170.3161 1364.1669,-176.9016"/>
</g>
<!-- &#45;18&#45;&gt;2 -->
<g id="edge50" class="edge">
<title>&#45;18&#45;&gt;2</title>
<path fill="none" stroke="#00ff00" stroke-width=".5785" d="M1227.8055,-234.5665C1223.5061,-230.2262 1217.8551,-225.3879 1211.8148,-222.5513 1150.3029,-193.665 941.6845,-173.6413 869.0209,-167.4022"/>
<polygon fill="#00ff00" stroke="#00ff00" stroke-width=".5785" points="869.2026,-163.9052 858.9435,-166.551 868.6134,-170.8803 869.2026,-163.9052"/>
</g>
<!-- &#45;19 -->
<g id="node19" class="node">
<title>&#45;19</title>
<polygon fill="#d3d3d3" stroke="#000000" points="763.3148,-331.1909 734.3148,-331.1909 734.3148,-313.1909 763.3148,-313.1909 763.3148,-331.1909"/>
<text text-anchor="middle" x="748.8148" y="-319.9909" font-family="Times,serif" font-size="9.00" fill="#000000">&#45;19</text>
</g>
<!-- &#45;19&#45;&gt;0 -->
<g id="edge51" class="edge">
<title>&#45;19&#45;&gt;0</title>
<path fill="none" stroke="#00ff00" stroke-width=".4634" d="M741.336,-313.1866C737.0183,-308.669 731.1883,-303.6098 724.8148,-300.9777 600.3299,-249.5693 232.5235,-338.7073 119.8148,-264.9777 72.4676,-234.005 56.1038,-195.4947 79.8148,-144.1249 102.332,-95.3414 121.8821,-85.5373 171.8148,-65.6985 265.5568,-28.4537 1006.8372,-17.0553 1153.6119,-15.1538"/>
<polygon fill="#00ff00" stroke="#00ff00" stroke-width=".4634" points="1153.8959,-18.6506 1163.8508,-15.0242 1153.8073,-11.6511 1153.8959,-18.6506"/>
</g>
<!-- &#45;19&#45;&gt;1 -->
<g id="edge52" class="edge">
<title>&#45;19&#45;&gt;1</title>
<path fill="none" stroke="#ff0000" stroke-width=".5619" d="M763.4051,-321.4361C856.5674,-316.5482 1365.0056,-288.8301 1386.8148,-264.9777 1405.2557,-244.8091 1400.9364,-211.5877 1394.9253,-189.1042"/>
<polygon fill="#ff0000" stroke="#ff0000" stroke-width=".5619" points="1398.224,-187.9171 1392.0257,-179.3245 1391.5128,-189.9069 1398.224,-187.9171"/>
</g>
<!-- &#45;19&#45;&gt;2 -->
<g id="edge53" class="edge">
<title>&#45;19&#45;&gt;2</title>
<path fill="none" stroke="#00ff00" stroke-width=".2292" stroke-dasharray="1,5" d="M749.0919,-312.9083C750.0442,-294.3342 754.2539,-251.8663 772.8148,-222.5513 784.9907,-203.3207 805.8862,-187.644 821.8658,-177.5953"/>
<polygon fill="#00ff00" stroke="#00ff00" stroke-width=".2292" points="823.8345,-180.4957 830.6032,-172.3449 820.2289,-174.4957 823.8345,-180.4957"/>
</g>
<!-- 555 -->
<g id="node32" class="node">
<title>555</title>
<ellipse fill="#ffffff" stroke="#000000" cx="699.8148" cy="-243.7645" rx="21.4286" ry="21.4286"/>
<text text-anchor="middle" x="699.8148" y="-241.5645" font-family="Times,serif" font-size="9.00" fill="#000000">555</text>
</g>
<!-- &#45;19&#45;&gt;555 -->
<g id="edge95" class="edge">
<title>&#45;19&#45;&gt;555</title>
<path fill="none" stroke="#00ff00" stroke-width=".2801" stroke-dasharray="1,5" d="M743.0014,-312.8864C736.5354,-302.5373 725.794,-285.3452 716.6416,-270.6965"/>
<polygon fill="#00ff00" stroke="#00ff00" stroke-width=".2801" points="719.4678,-268.6144 711.2008,-261.9882 713.5312,-272.3235 719.4678,-268.6144"/>
</g>
<!-- &#45;20 -->
<g id="node20" class="node">
<title>&#45;20</title>
<polygon fill="#d3d3d3" stroke="#000000" points="1297.3148,-252.7645 1268.3148,-252.7645 1268.3148,-234.7645 1297.3148,-234.7645 1297.3148,-252.7645"/>
<text text-anchor="middle" x="1282.8148" y="-241.5645" font-family="Times,serif" font-size="9.00" fill="#000000">&#45;20</text>
</g>
<!-- &#45;20&#45;&gt;0 -->
<g id="edge54" class="edge">
<title>&#45;20&#45;&gt;0</title>
<path fill="none" stroke="#00ff00" stroke-width=".2292" stroke-dasharray="1,5" d="M1280.0835,-234.5449C1271.9386,-207.642 1246.3514,-127.2517 1213.8148,-65.6985 1208.2556,-55.1814 1200.9371,-44.2248 1194.4301,-35.187"/>
<polygon fill="#00ff00" stroke="#00ff00" stroke-width=".2292" points="1197.0468,-32.8386 1188.2889,-26.8762 1191.417,-36.9987 1197.0468,-32.8386"/>
</g>
<!-- &#45;20&#45;&gt;1 -->
<g id="edge55" class="edge">
<title>&#45;20&#45;&gt;1</title>
<path fill="none" stroke="#ff0000" stroke-width=".2115" d="M1292.893,-234.4428C1297.1103,-230.6518 1302.116,-226.2918 1306.8148,-222.5513 1326.3149,-207.028 1349.5869,-190.6062 1365.9895,-179.3574"/>
<polygon fill="#ff0000" stroke="#ff0000" stroke-width=".2115" points="1368.0325,-182.2006 1374.3277,-173.6788 1364.0923,-176.4149 1368.0325,-182.2006"/>
</g>
<!-- &#45;20&#45;&gt;2 -->
<g id="edge56" class="edge">
<title>&#45;20&#45;&gt;2</title>
<path fill="none" stroke="#ff0000" stroke-width=".1783" d="M1275.2295,-234.5198C1271.1323,-230.1677 1265.7101,-225.3328 1259.8148,-222.5513 1189.5893,-189.4184 948.1861,-171.8107 869.113,-166.8327"/>
<polygon fill="#ff0000" stroke="#ff0000" stroke-width=".1783" points="868.8603,-163.3106 858.6641,-166.1895 868.4301,-170.2973 868.8603,-163.3106"/>
</g>
<!-- &#45;21 -->
<g id="node21" class="node">
<title>&#45;21</title>
<polygon fill="#d3d3d3" stroke="#000000" points="1344.3148,-252.7645 1315.3148,-252.7645 1315.3148,-234.7645 1344.3148,-234.7645 1344.3148,-252.7645"/>
<text text-anchor="middle" x="1329.8148" y="-241.5645" font-family="Times,serif" font-size="9.00" fill="#000000">&#45;21</text>
</g>
<!-- &#45;21&#45;&gt;0 -->
<g id="edge57" class="edge">
<title>&#45;21&#45;&gt;0</title>
<path fill="none" stroke="#00ff00" stroke-width=".171" d="M1326.4197,-234.5557C1315.9808,-207.0054 1282.2908,-123.555 1236.8148,-65.6985 1226.0271,-51.9739 1211.1864,-39.0416 1199.2178,-29.6535"/>
<polygon fill="#00ff00" stroke="#00ff00" stroke-width=".171" points="1201.1868,-26.7537 1191.1094,-23.4832 1196.9478,-32.3243 1201.1868,-26.7537"/>
</g>
<!-- &#45;21&#45;&gt;1 -->
<g id="edge58" class="edge">
<title>&#45;21&#45;&gt;1</title>
<path fill="none" stroke="#00ff00" stroke-width=".4623" stroke-dasharray="1,5" d="M1336.5773,-234.46C1345.2859,-222.4777 1360.6615,-201.3225 1372.1161,-185.5621"/>
<polygon fill="#00ff00" stroke="#00ff00" stroke-width=".4623" points="1374.9611,-187.6008 1378.0091,-177.4538 1369.2987,-183.4853 1374.9611,-187.6008"/>
</g>
<!-- &#45;21&#45;&gt;2 -->
<g id="edge59" class="edge">
<title>&#45;21&#45;&gt;2</title>
<path fill="none" stroke="#ff0000" stroke-width=".3906" d="M1322.2456,-234.4855C1318.1524,-230.1246 1312.7291,-225.2922 1306.8148,-222.5513 1227.6154,-185.8468 953.538,-170.3906 868.9062,-166.4227"/>
<polygon fill="#ff0000" stroke="#ff0000" stroke-width=".3906" points="869.0507,-162.9258 858.9016,-165.9663 868.7317,-169.9185 869.0507,-162.9258"/>
</g>
<!-- 111 -->
<g id="node35" class="node">
<title>111</title>
<ellipse fill="#ffffff" stroke="#000000" cx="1341.8148" cy="-86.9117" rx="21.4286" ry="21.4286"/>
<text text-anchor="middle" x="1341.8148" y="-84.7117" font-family="Times,serif" font-size="9.00" fill="#000000">111</text>
</g>
<!-- &#45;21&#45;&gt;111 -->
<g id="edge77" class="edge">
<title>&#45;21&#45;&gt;111</title>
<path fill="none" stroke="#ff0000" stroke-width=".264" d="M1330.5295,-234.4224C1332.2425,-212.0324 1336.6454,-154.4809 1339.418,-118.2403"/>
<polygon fill="#ff0000" stroke="#ff0000" stroke-width=".264" points="1342.9141,-118.4233 1340.1873,-108.1854 1335.9345,-117.8892 1342.9141,-118.4233"/>
</g>
<!-- &#45;22 -->
<g id="node22" class="node">
<title>&#45;22</title>
<polygon fill="#d3d3d3" stroke="#000000" points="1506.3148,-252.7645 1477.3148,-252.7645 1477.3148,-234.7645 1506.3148,-234.7645 1506.3148,-252.7645"/>
<text text-anchor="middle" x="1491.8148" y="-241.5645" font-family="Times,serif" font-size="9.00" fill="#000000">&#45;22</text>
</g>
<!-- &#45;22&#45;&gt;0 -->
<g id="edge60" class="edge">
<title>&#45;22&#45;&gt;0</title>
<path fill="none" stroke="#ff0000" stroke-width=".5595" stroke-dasharray="1,5" d="M1488.5016,-234.5956C1477.275,-204.9092 1437.6592,-110.7414 1371.8148,-65.6985 1319.3833,-29.831 1243.0656,-19.2574 1203.9644,-16.1447"/>
<polygon fill="#ff0000" stroke="#ff0000" stroke-width=".5595" points="1203.9705,-12.6368 1193.7523,-15.4367 1203.4863,-19.62 1203.9705,-12.6368"/>
</g>
<!-- &#45;22&#45;&gt;1 -->
<g id="edge61" class="edge">
<title>&#45;22&#45;&gt;1</title>
<path fill="none" stroke="#ff0000" stroke-width=".4397" d="M1479.3576,-234.46C1461.501,-221.1226 1428.4283,-196.42 1407.0376,-180.4429"/>
<polygon fill="#ff0000" stroke="#ff0000" stroke-width=".4397" points="1409.0381,-177.5685 1398.9317,-174.3884 1404.8491,-183.1768 1409.0381,-177.5685"/>
</g>
<!-- &#45;22&#45;&gt;2 -->
<g id="edge62" class="edge">
<title>&#45;22&#45;&gt;2</title>
<path fill="none" stroke="#ff0000" stroke-width=".1705" stroke-dasharray="1,5" d="M1476.936,-241.2734C1451.6713,-237.0893 1398.7481,-228.5227 1353.8148,-222.5513 1168.157,-197.8784 943.5283,-175.1486 869.1093,-167.8066"/>
<polygon fill="#ff0000" stroke="#ff0000" stroke-width=".1705" points="869.156,-164.2944 858.8615,-166.7994 868.4712,-171.2608 869.156,-164.2944"/>
</g>
<!-- &#45;23 -->
<g id="node23" class="node">
<title>&#45;23</title>
<polygon fill="#d3d3d3" stroke="#000000" points="388.3148,-252.7645 359.3148,-252.7645 359.3148,-234.7645 388.3148,-234.7645 388.3148,-252.7645"/>
<text text-anchor="middle" x="373.8148" y="-241.5645" font-family="Times,serif" font-size="9.00" fill="#000000">&#45;23</text>
</g>
<!-- &#45;23&#45;&gt;0 -->
<g id="edge63" class="edge">
<title>&#45;23&#45;&gt;0</title>
<path fill="none" stroke="#00ff00" stroke-width=".4049" d="M380.2583,-234.3575C383.5638,-230.1822 387.9235,-225.5459 392.8148,-222.5513 461.3126,-180.615 1029.371,-49.0545 1154.4961,-20.3965"/>
<polygon fill="#00ff00" stroke="#00ff00" stroke-width=".4049" points="1155.3166,-23.7992 1164.2845,-18.1577 1153.7559,-16.9754 1155.3166,-23.7992"/>
</g>
<!-- &#45;23&#45;&gt;1 -->
<g id="edge64" class="edge">
<title>&#45;23&#45;&gt;1</title>
<path fill="none" stroke="#ff0000" stroke-width=".4813" d="M388.6045,-239.9163C408.0166,-235.0297 443.2186,-226.7323 473.8148,-222.5513 652.7068,-198.1058 1234.0497,-171.9511 1361.8289,-166.4073"/>
<polygon fill="#ff0000" stroke="#ff0000" stroke-width=".4813" points="1361.9849,-169.904 1371.8245,-165.9757 1361.6828,-162.9105 1361.9849,-169.904"/>
</g>
<!-- &#45;23&#45;&gt;2 -->
<g id="edge65" class="edge">
<title>&#45;23&#45;&gt;2</title>
<path fill="none" stroke="#00ff00" stroke-width=".6092" stroke-dasharray="1,5" d="M383.5251,-234.7345C388.8307,-230.3263 395.7482,-225.3761 402.8148,-222.5513 422.342,-214.7455 728.1598,-178.7737 818.7295,-168.2424"/>
<polygon fill="#00ff00" stroke="#00ff00" stroke-width=".6092" points="819.3729,-171.6913 828.9025,-167.0613 818.5655,-164.738 819.3729,-171.6913"/>
</g>
<!-- 340 -->
<g id="node40" class="node">
<title>340</title>
<ellipse fill="#ffffff" stroke="#000000" cx="468.8148" cy="-86.9117" rx="21.4286" ry="21.4286"/>
<text text-anchor="middle" x="468.8148" y="-84.7117" font-family="Times,serif" font-size="9.00" fill="#000000">340</text>
</g>
<!-- &#45;23&#45;&gt;340 -->
<g id="edge83" class="edge">
<title>&#45;23&#45;&gt;340</title>
<path fill="none" stroke="#ff0000" stroke-width=".1906" d="M386.1579,-234.6489C407.4162,-218.9252 448.7781,-188.2161 449.8148,-186.5513 462.4983,-166.1837 467.0628,-139.272 468.5579,-118.5516"/>
<polygon fill="#ff0000" stroke="#ff0000" stroke-width=".1906" points="472.0643,-118.5157 469.0866,-108.3479 465.0737,-118.1534 472.0643,-118.5157"/>
</g>
<!-- &#45;24 -->
<g id="node24" class="node">
<title>&#45;24</title>
<polygon fill="#d3d3d3" stroke="#000000" points="1221.3148,-409.6173 1192.3148,-409.6173 1192.3148,-391.6173 1221.3148,-391.6173 1221.3148,-409.6173"/>
<text text-anchor="middle" x="1206.8148" y="-398.4173" font-family="Times,serif" font-size="9.00" fill="#000000">&#45;24</text>
</g>
<!-- &#45;24&#45;&gt;0 -->
<g id="edge66" class="edge">
<title>&#45;24&#45;&gt;0</title>
<path fill="none" stroke="#ff0000" stroke-width=".3115" d="M1214.2801,-391.5801C1218.5938,-387.0528 1224.4244,-381.9948 1230.8148,-379.4041 1390.3862,-314.7128 1839.8631,-392.7898 2004.8148,-343.4041 2087.9788,-318.5052 2172.8148,-330.5758 2172.8148,-243.7645 2172.8148,-243.7645 2172.8148,-243.7645 2172.8148,-165.3381 2172.8148,-80.8094 2091.4109,-91.181 2010.8148,-65.6985 1932.2141,-40.8468 1334.3978,-19.9504 1203.9162,-15.6566"/>
<polygon fill="#ff0000" stroke="#ff0000" stroke-width=".3115" points="1203.8316,-12.1521 1193.7226,-15.3238 1203.6031,-19.1483 1203.8316,-12.1521"/>
</g>
<!-- &#45;24&#45;&gt;1 -->
<g id="edge67" class="edge">
<title>&#45;24&#45;&gt;1</title>
<path fill="none" stroke="#00ff00" stroke-width=".1987" stroke-dasharray="1,5" d="M1214.7431,-391.2385C1219.0218,-386.8522 1224.6788,-382.0272 1230.8148,-379.4041 1318.3752,-341.9732 1584.4155,-404.0707 1657.8148,-343.4041 1699.8964,-308.6225 1714.5235,-264.693 1679.8148,-222.5513 1645.8634,-181.3291 1476.7054,-169.3991 1412.0224,-166.3138"/>
<polygon fill="#00ff00" stroke="#00ff00" stroke-width=".1987" points="1412.0375,-162.8112 1401.8918,-165.8632 1411.7263,-169.8042 1412.0375,-162.8112"/>
</g>
<!-- &#45;24&#45;&gt;2 -->
<g id="edge68" class="edge">
<title>&#45;24&#45;&gt;2</title>
<path fill="none" stroke="#ff0000" stroke-width=".5387" d="M1192.0819,-400.1655C1109.1279,-397.4794 702.6866,-382.3832 664.8148,-343.4041 627.3394,-304.8331 626.8959,-265.8331 658.8148,-222.5513 678.0265,-196.5005 773.0093,-177.2691 818.9037,-169.3376"/>
<polygon fill="#ff0000" stroke="#ff0000" stroke-width=".5387" points="819.6502,-172.7613 828.9307,-167.6502 818.4885,-165.8583 819.6502,-172.7613"/>
</g>
<!-- 530 -->
<g id="node36" class="node">
<title>530</title>
<ellipse fill="#ffffff" stroke="#000000" cx="694.8148" cy="-322.1909" rx="21.4286" ry="21.4286"/>
<text text-anchor="middle" x="694.8148" y="-319.9909" font-family="Times,serif" font-size="9.00" fill="#000000">530</text>
</g>
<!-- &#45;24&#45;&gt;530 -->
<g id="edge92" class="edge">
<title>&#45;24&#45;&gt;530</title>
<path fill="none" stroke="#00ff00" stroke-width=".8529" d="M1192.1705,-399.8513C1121.2985,-395.9978 813.7029,-377.5551 724.8148,-343.4041 723.1773,-342.775 721.5454,-342.0362 719.9369,-341.2187"/>
<polygon fill="#00ff00" stroke="#00ff00" stroke-width=".8529" points="721.4726,-338.0576 711.1021,-335.8889 717.8567,-344.0514 721.4726,-338.0576"/>
</g>
<!-- &#45;25 -->
<g id="node25" class="node">
<title>&#45;25</title>
<polygon fill="#d3d3d3" stroke="#000000" points="1076.3148,-252.7645 1047.3148,-252.7645 1047.3148,-234.7645 1076.3148,-234.7645 1076.3148,-252.7645"/>
<text text-anchor="middle" x="1061.8148" y="-241.5645" font-family="Times,serif" font-size="9.00" fill="#000000">&#45;25</text>
</g>
<!-- &#45;25&#45;&gt;0 -->
<g id="edge69" class="edge">
<title>&#45;25&#45;&gt;0</title>
<path fill="none" stroke="#ff0000" stroke-width=".7319" stroke-dasharray="1,5" d="M1066.5462,-234.5072C1083.5846,-201.171 1142.1225,-86.6392 1167.2293,-37.5167"/>
<polygon fill="#ff0000" stroke="#ff0000" stroke-width=".7319" points="1170.4833,-38.8406 1171.9179,-28.3433 1164.2502,-35.6548 1170.4833,-38.8406"/>
</g>
<!-- &#45;25&#45;&gt;1 -->
<g id="edge70" class="edge">
<title>&#45;25&#45;&gt;1</title>
<path fill="none" stroke="#00ff00" stroke-width=".1905" d="M1069.8652,-234.6521C1074.1751,-230.3336 1079.823,-225.4889 1085.8148,-222.5513 1134.8132,-198.5286 1298.6252,-176.261 1361.732,-168.3668"/>
<polygon fill="#00ff00" stroke="#00ff00" stroke-width=".1905" points="1362.4678,-171.8026 1371.9633,-167.1031 1361.6096,-164.8554 1362.4678,-171.8026"/>
</g>
<!-- &#45;25&#45;&gt;2 -->
<g id="edge71" class="edge">
<title>&#45;25&#45;&gt;2</title>
<path fill="none" stroke="#00ff00" stroke-width=".2168" stroke-dasharray="1,5" d="M1053.1966,-234.4724C1048.9163,-230.3223 1043.4593,-225.674 1037.8148,-222.5513 981.8835,-191.609 907.4057,-175.743 869.0359,-169.1576"/>
<polygon fill="#00ff00" stroke="#00ff00" stroke-width=".2168" points="869.2163,-165.6405 858.7812,-167.4732 868.0816,-172.5479 869.2163,-165.6405"/>
</g>
<!-- 1&#45;&gt;1 -->
<g id="edge72" class="edge">
<title>1&#45;&gt;1</title>
<path fill="none" stroke="#ff0000" stroke-width=".2389" stroke-dasharray="1,5" d="M1396.9042,-176.5318C1407.6009,-183.542 1419.664,-179.8108 1419.664,-165.3381 1419.664,-155.162 1413.7002,-150.2963 1406.4409,-150.741"/>
<polygon fill="#ff0000" stroke="#ff0000" stroke-width=".2389" points="1405.146,-147.4868 1396.9042,-154.1444 1407.4989,-154.0796 1405.146,-147.4868"/>
</g>
<!-- 1&#45;&gt;111 -->
<g id="edge82" class="edge">
<title>1&#45;&gt;111</title>
<path fill="none" stroke="#ff0000" stroke-width=".3265" d="M1379.384,-152.3876C1373.4782,-142.0949 1365.0089,-127.3346 1357.606,-114.4328"/>
<polygon fill="#ff0000" stroke="#ff0000" stroke-width=".3265" points="1360.4686,-112.389 1352.456,-105.4573 1354.3971,-115.8728 1360.4686,-112.389"/>
</g>
<!-- 2&#45;&gt;2 -->
<g id="edge73" class="edge">
<title>2&#45;&gt;2</title>
<path fill="none" stroke="#00ff00" stroke-width=".4921" d="M853.9042,-176.5318C864.6009,-183.542 876.664,-179.8108 876.664,-165.3381 876.664,-155.162 870.7002,-150.2963 863.4409,-150.741"/>
<polygon fill="#00ff00" stroke="#00ff00" stroke-width=".4921" points="862.146,-147.4868 853.9042,-154.1444 864.4989,-154.0796 862.146,-147.4868"/>
</g>
<!-- 643&#45;&gt;2 -->
<g id="edge105" class="edge">
<title>643&#45;&gt;2</title>
<path fill="none" stroke="#ff0000" stroke-width=".4878" d="M581.4093,-231.6189C586.8095,-228.3043 592.8933,-224.9657 598.8148,-222.5513 675.7877,-191.1674 773.7135,-174.8267 818.9019,-168.507"/>
<polygon fill="#ff0000" stroke="#ff0000" stroke-width=".4878" points="819.5225,-171.955 828.9627,-167.1453 818.5836,-165.0183 819.5225,-171.955"/>
</g>
<!-- 582&#45;&gt;1 -->
<g id="edge100" class="edge">
<title>582&#45;&gt;1</title>
<path fill="none" stroke="#00ff00" stroke-width=".7853" d="M1528.7479,-230.8227C1524.6165,-227.9373 1520.1414,-225.0083 1515.8148,-222.5513 1480.4564,-202.4722 1436.7245,-184.3808 1410.3379,-174.1393"/>
<polygon fill="#00ff00" stroke="#00ff00" stroke-width=".7853" points="1411.3975,-170.7973 1400.8071,-170.4895 1408.8941,-177.3344 1411.3975,-170.7973"/>
</g>
<!-- 555&#45;&gt;2 -->
<g id="edge96" class="edge">
<title>555&#45;&gt;2</title>
<path fill="none" stroke="#00ff00" stroke-width=".1329" stroke-dasharray="1,5" d="M717.8551,-232.5403C723.2678,-229.2516 729.2467,-225.6961 734.8148,-222.5513 764.3176,-205.8885 799.0827,-187.9214 821.2773,-176.6561"/>
<polygon fill="#00ff00" stroke="#00ff00" stroke-width=".1329" points="822.9019,-179.7566 830.2469,-172.1211 819.7435,-173.5097 822.9019,-179.7566"/>
</g>
<!-- 236&#45;&gt;1 -->
<g id="edge79" class="edge">
<title>236&#45;&gt;1</title>
<path fill="none" stroke="#00ff00" stroke-width=".1635" stroke-dasharray="1,5" d="M1788.3381,-231.3121C1782.9413,-227.9888 1776.8298,-224.7224 1770.8148,-222.5513 1703.8781,-198.3905 1486.1047,-175.1615 1411.8698,-167.7653"/>
<polygon fill="#00ff00" stroke="#00ff00" stroke-width=".1635" points="1411.9073,-164.2521 1401.612,-166.7534 1411.2201,-171.2183 1411.9073,-164.2521"/>
</g>
<!-- 428&#45;&gt;340 -->
<g id="edge89" class="edge">
<title>428&#45;&gt;340</title>
<path fill="none" stroke="#00ff00" stroke-width=".463" stroke-dasharray="1,5" d="M431.1795,-147.1484C437.4258,-137.151 445.2893,-124.5651 452.2112,-113.4864"/>
<polygon fill="#00ff00" stroke="#00ff00" stroke-width=".463" points="455.1812,-115.3381 457.5117,-105.0028 449.2447,-111.629 455.1812,-115.3381"/>
</g>
<!-- 111&#45;&gt;0 -->
<g id="edge74" class="edge">
<title>111&#45;&gt;0</title>
<path fill="none" stroke="#ff0000" stroke-width=".5021" d="M1323.9733,-75.3126C1318.5663,-72.0134 1312.5406,-68.5461 1306.8148,-65.6985 1271.6265,-48.1981 1228.8617,-32.2096 1202.7528,-23.005"/>
<polygon fill="#ff0000" stroke="#ff0000" stroke-width=".5021" points="1203.5679,-19.5827 1192.973,-19.6005 1201.2665,-26.1936 1203.5679,-19.5827"/>
</g>
<!-- 530&#45;&gt;2 -->
<g id="edge93" class="edge">
<title>530&#45;&gt;2</title>
<path fill="none" stroke="#00ff00" stroke-width=".5607" d="M682.4623,-304.7018C669.0942,-283.414 651.9323,-247.2557 669.8148,-222.5513 687.6003,-197.9809 775.5039,-178.2585 819.1453,-169.8031"/>
<polygon fill="#00ff00" stroke="#00ff00" stroke-width=".5607" points="819.7978,-173.2418 828.9735,-167.945 818.4973,-166.3637 819.7978,-173.2418"/>
</g>
<!-- 530&#45;&gt;555 -->
<g id="edge97" class="edge">
<title>530&#45;&gt;555</title>
<path fill="none" stroke="#00ff00" stroke-width=".5719" d="M696.1811,-300.7605C696.6826,-292.8933 697.2615,-283.8144 697.8076,-275.248"/>
<polygon fill="#00ff00" stroke="#00ff00" stroke-width=".5719" points="701.3067,-275.3714 698.4502,-265.169 694.3209,-274.926 701.3067,-275.3714"/>
</g>
<!-- 276 -->
<g id="node37" class="node">
<title>276</title>
<ellipse fill="#ffffff" stroke="#000000" cx="1260.8148" cy="-400.6173" rx="21.4286" ry="21.4286"/>
<text text-anchor="middle" x="1260.8148" y="-398.4173" font-family="Times,serif" font-size="9.00" fill="#000000">276</text>
</g>
<!-- 309&#45;&gt;2 -->
<g id="edge81" class="edge">
<title>309&#45;&gt;2</title>
<path fill="none" stroke="#ff0000" stroke-width=".1237" stroke-dasharray="1,5" d="M520.5073,-230.0627C524.6541,-227.2086 529.2301,-224.4842 533.8148,-222.5513 585.777,-200.6437 754.9649,-176.9321 818.9747,-168.5173"/>
<polygon fill="#ff0000" stroke="#ff0000" stroke-width=".1237" points="819.5204,-171.9759 828.9847,-167.2138 818.6165,-165.0345 819.5204,-171.9759"/>
</g>
<!-- 340&#45;&gt;0 -->
<g id="edge84" class="edge">
<title>340&#45;&gt;0</title>
<path fill="none" stroke="#ff0000" stroke-width=".4102" d="M489.8783,-84.0097C521.5239,-79.7012 583.2346,-71.4983 635.8148,-65.6985 834.9509,-43.7328 1075.8586,-23.3396 1153.4434,-16.9257"/>
<polygon fill="#ff0000" stroke="#ff0000" stroke-width=".4102" points="1154.002,-20.3916 1163.6808,-16.0823 1153.4272,-13.4152 1154.002,-20.3916"/>
</g>
<!-- 629&#45;&gt;0 -->
<g id="edge103" class="edge">
<title>629&#45;&gt;0</title>
<path fill="none" stroke="#00ff00" stroke-width=".2723" d="M1718.1087,-81.1902C1700.1685,-76.4224 1673.4511,-69.7744 1649.8148,-65.6985 1480.9448,-36.5779 1274.9635,-21.1761 1204.1391,-16.4516"/>
<polygon fill="#00ff00" stroke="#00ff00" stroke-width=".2723" points="1204.1666,-12.946 1193.9591,-15.7846 1203.7088,-19.931 1204.1666,-12.946"/>
</g>
</g>
</svg>
