<?xml version="1.0" encoding="UTF-8" standalone="no"?>
<!DOCTYPE svg PUBLIC "-//W3C//DTD SVG 1.1//EN"
 "http://www.w3.org/Graphics/SVG/1.1/DTD/svg11.dtd">
<!-- Generated by graphviz version 2.40.1 (20161225.0304)
 -->
<!-- Title: %3 Pages: 1 -->
<svg width="1923pt" height="170pt"
 viewBox="0.00 0.00 1922.92 170.12" xmlns="http://www.w3.org/2000/svg" xmlns:xlink="http://www.w3.org/1999/xlink">
<g id="graph0" class="graph" transform="scale(1 1) rotate(0) translate(4 166.1249)">
<title>%3</title>
<polygon fill="#ffffff" stroke="transparent" points="-4,4 -4,-166.1249 1918.921,-166.1249 1918.921,4 -4,4"/>
<!-- num_lane_1 -->
<g id="node1" class="node">
<title>num_lane_1</title>
<polygon fill="#d3d3d3" stroke="#000000" points="1693.0726,-162.1249 1633.0726,-162.1249 1633.0726,-144.1249 1693.0726,-144.1249 1693.0726,-162.1249"/>
<text text-anchor="middle" x="1663.0726" y="-150.9249" font-family="Times,serif" font-size="9.00" fill="#000000">num_lane_1</text>
</g>
<!-- 0 -->
<g id="node18" class="node">
<title>0</title>
<ellipse fill="#add8e6" stroke="#000000" cx="1055.0726" cy="-14.8492" rx="14.7" ry="14.7"/>
<text text-anchor="middle" x="1055.0726" y="-12.6492" font-family="Times,serif" font-size="9.00" fill="#000000">0</text>
</g>
<!-- num_lane_1&#45;&gt;0 -->
<g id="edge41" class="edge">
<title>num_lane_1&#45;&gt;0</title>
<path fill="none" stroke="#ff0000" stroke-width=".1606" d="M1639.6052,-144.0796C1593.1953,-126.5166 1486.1144,-87.6048 1393.0726,-65.6985 1277.7301,-38.5416 1136.674,-22.812 1080.1987,-17.206"/>
<polygon fill="#ff0000" stroke="#ff0000" stroke-width=".1606" points="1080.3561,-13.7049 1070.064,-16.2194 1079.6778,-20.6719 1080.3561,-13.7049"/>
</g>
<!-- 1 -->
<g id="node19" class="node">
<title>1</title>
<ellipse fill="#add8e6" stroke="#000000" cx="908.0726" cy="-14.8492" rx="14.7" ry="14.7"/>
<text text-anchor="middle" x="908.0726" y="-12.6492" font-family="Times,serif" font-size="9.00" fill="#000000">1</text>
</g>
<!-- num_lane_1&#45;&gt;1 -->
<g id="edge42" class="edge">
<title>num_lane_1&#45;&gt;1</title>
<path fill="none" stroke="#ff0000" stroke-width=".1086" d="M1635.6999,-144.0105C1580.3569,-125.9698 1450.9036,-85.7276 1339.0726,-65.6985 1165.5505,-34.6204 1115.2589,-71.7817 944.0726,-29.6985 939.7148,-28.6272 935.1967,-27.1132 930.8943,-25.4581"/>
<polygon fill="#ff0000" stroke="#ff0000" stroke-width=".1086" points="931.9992,-22.126 921.424,-21.4819 929.2894,-28.5803 931.9992,-22.126"/>
</g>
<!-- 2 -->
<g id="node20" class="node">
<title>2</title>
<ellipse fill="#add8e6" stroke="#000000" cx="968.0726" cy="-14.8492" rx="14.7" ry="14.7"/>
<text text-anchor="middle" x="968.0726" y="-12.6492" font-family="Times,serif" font-size="9.00" fill="#000000">2</text>
</g>
<!-- num_lane_1&#45;&gt;2 -->
<g id="edge43" class="edge">
<title>num_lane_1&#45;&gt;2</title>
<path fill="none" stroke="#00ff00" stroke-width=".2649" stroke-dasharray="1,5" d="M1668.7441,-144.0371C1678.9582,-126.3998 1697.564,-87.3637 1677.0726,-65.6985 1627.6737,-13.4701 1102.222,-39.9845 1031.0726,-29.6985 1018.1298,-27.8274 1003.9353,-24.5888 992.3017,-21.6127"/>
<polygon fill="#00ff00" stroke="#00ff00" stroke-width=".2649" points="993.0102,-18.1797 982.4471,-19.0001 991.2163,-24.946 993.0102,-18.1797"/>
</g>
<!-- 151 -->
<g id="node21" class="node">
<title>151</title>
<ellipse fill="#ffffff" stroke="#000000" cx="908.0726" cy="-86.9117" rx="21.4286" ry="21.4286"/>
<text text-anchor="middle" x="908.0726" y="-84.7117" font-family="Times,serif" font-size="9.00" fill="#000000">151</text>
</g>
<!-- num_lane_1&#45;&gt;151 -->
<g id="edge1" class="edge">
<title>num_lane_1&#45;&gt;151</title>
<path fill="none" stroke="#ff0000" stroke-width=".1844" d="M1632.6905,-149.7582C1615.2595,-147.909 1592.9544,-145.6818 1573.0726,-144.1249 1432.1662,-133.0905 1071.5042,-154.7333 938.0726,-108.1249 936.4165,-107.5464 934.77,-106.8474 933.1502,-106.0605"/>
<polygon fill="#ff0000" stroke="#ff0000" stroke-width=".1844" points="934.6727,-102.8947 924.2833,-100.8186 931.1104,-108.9205 934.6727,-102.8947"/>
</g>
<!-- 152 -->
<g id="node22" class="node">
<title>152</title>
<ellipse fill="#ffffff" stroke="#000000" cx="968.0726" cy="-86.9117" rx="21.4286" ry="21.4286"/>
<text text-anchor="middle" x="968.0726" y="-84.7117" font-family="Times,serif" font-size="9.00" fill="#000000">152</text>
</g>
<!-- num_lane_1&#45;&gt;152 -->
<g id="edge2" class="edge">
<title>num_lane_1&#45;&gt;152</title>
<path fill="none" stroke="#00ff00" stroke-width=".489" d="M1632.6655,-150.0431C1615.2265,-148.2859 1592.9216,-146.0559 1573.0726,-144.1249 1353.3503,-122.7497 1088.6256,-98.0941 999.2563,-89.8009"/>
<polygon fill="#00ff00" stroke="#00ff00" stroke-width=".489" points="999.5223,-86.3107 989.2418,-88.872 998.8757,-93.2808 999.5223,-86.3107"/>
</g>
<!-- num_lane_2 -->
<g id="node2" class="node">
<title>num_lane_2</title>
<polygon fill="#d3d3d3" stroke="#000000" points="167.0726,-162.1249 107.0726,-162.1249 107.0726,-144.1249 167.0726,-144.1249 167.0726,-162.1249"/>
<text text-anchor="middle" x="137.0726" y="-150.9249" font-family="Times,serif" font-size="9.00" fill="#000000">num_lane_2</text>
</g>
<!-- num_lane_2&#45;&gt;0 -->
<g id="edge44" class="edge">
<title>num_lane_2&#45;&gt;0</title>
<path fill="none" stroke="#00ff00" stroke-width=".4705" d="M152.1368,-144.0811C184.1186,-125.4165 261.7244,-82.9372 333.0726,-65.6985 618.1939,3.1908 701.742,-71.5087 992.0726,-29.6985 1005.0163,-27.8345 1019.211,-24.5965 1030.8443,-21.6191"/>
<polygon fill="#00ff00" stroke="#00ff00" stroke-width=".4705" points="1031.9305,-24.9521 1040.6986,-19.0047 1030.1355,-18.1861 1031.9305,-24.9521"/>
</g>
<!-- num_lane_2&#45;&gt;1 -->
<g id="edge45" class="edge">
<title>num_lane_2&#45;&gt;1</title>
<path fill="none" stroke="#00ff00" stroke-width=".1283" d="M107.0596,-146.7633C72.985,-138.8607 20.6128,-124.4146 9.0726,-108.1249 -1.8277,-92.7385 -3.8788,-79.4031 9.0726,-65.6985 39.9123,-33.0651 739.65,-18.0475 882.6778,-15.3133"/>
<polygon fill="#00ff00" stroke="#00ff00" stroke-width=".1283" points="883.1164,-18.8058 893.0487,-15.1181 882.9846,-11.807 883.1164,-18.8058"/>
</g>
<!-- num_lane_2&#45;&gt;2 -->
<g id="edge46" class="edge">
<title>num_lane_2&#45;&gt;2</title>
<path fill="none" stroke="#ff0000" stroke-width=".3894" d="M152.2284,-144.1137C184.4011,-125.5108 262.4525,-83.1418 334.0726,-65.6985 592.7693,-2.6919 672.5649,-89.2772 932.0726,-29.6985 936.4463,-28.6944 940.972,-27.2127 945.277,-25.5686"/>
<polygon fill="#ff0000" stroke="#ff0000" stroke-width=".3894" points="946.885,-28.6893 954.7459,-21.586 944.171,-22.2369 946.885,-28.6893"/>
</g>
<!-- num_lane_2&#45;&gt;151 -->
<g id="edge3" class="edge">
<title>num_lane_2&#45;&gt;151</title>
<path fill="none" stroke="#ff0000" stroke-width=".1192" d="M167.3953,-150.0138C185.0862,-148.2268 207.8362,-145.9768 228.0726,-144.1249 477.9959,-121.2534 779.9204,-97.0579 876.6558,-89.3904"/>
<polygon fill="#ff0000" stroke="#ff0000" stroke-width=".1192" points="877.2186,-92.8569 886.9112,-88.5785 876.6662,-85.8787 877.2186,-92.8569"/>
</g>
<!-- num_lane_2&#45;&gt;152 -->
<g id="edge4" class="edge">
<title>num_lane_2&#45;&gt;152</title>
<path fill="none" stroke="#ff0000" stroke-width=".3075" d="M167.3743,-149.7611C185.0582,-147.8898 207.8082,-145.6398 228.0726,-144.1249 385.6134,-132.3472 788.7742,-159.776 938.0726,-108.1249 939.7303,-107.5514 941.3782,-106.8563 942.999,-106.0723"/>
<polygon fill="#ff0000" stroke="#ff0000" stroke-width=".3075" points="945.0348,-108.935 951.8689,-100.839 941.4777,-102.9062 945.0348,-108.935"/>
</g>
<!-- ego_velocity -->
<g id="node3" class="node">
<title>ego_velocity</title>
<polygon fill="#d3d3d3" stroke="#000000" points="510.0726,-162.1249 448.0726,-162.1249 448.0726,-144.1249 510.0726,-144.1249 510.0726,-162.1249"/>
<text text-anchor="middle" x="479.0726" y="-150.9249" font-family="Times,serif" font-size="9.00" fill="#000000">ego_velocity</text>
</g>
<!-- ego_velocity&#45;&gt;0 -->
<g id="edge47" class="edge">
<title>ego_velocity&#45;&gt;0</title>
<path fill="none" stroke="#00ff00" stroke-width=".427" d="M493.7542,-144.0887C524.2212,-125.8212 597.0694,-84.6318 664.0726,-65.6985 805.1996,-25.8198 847.5433,-54.5671 992.0726,-29.6985 1004.9605,-27.4809 1019.15,-24.2109 1030.7945,-21.3035"/>
<polygon fill="#00ff00" stroke="#00ff00" stroke-width=".427" points="1031.8436,-24.6479 1040.6625,-18.7761 1030.1068,-17.8668 1031.8436,-24.6479"/>
</g>
<!-- ego_velocity&#45;&gt;1 -->
<g id="edge48" class="edge">
<title>ego_velocity&#45;&gt;1</title>
<path fill="none" stroke="#ff0000" stroke-width=".2523" d="M447.8236,-149.1734C404.4168,-142.9698 329.3557,-129.4098 313.0726,-108.1249 301.6155,-93.1485 300.3195,-79.5879 313.0726,-65.6985 352.1398,-23.1501 774.1205,-16.1462 882.7094,-15.0459"/>
<polygon fill="#ff0000" stroke="#ff0000" stroke-width=".2523" points="883.0627,-18.5429 893.0297,-14.95 882.9976,-11.5432 883.0627,-18.5429"/>
</g>
<!-- ego_velocity&#45;&gt;2 -->
<g id="edge49" class="edge">
<title>ego_velocity&#45;&gt;2</title>
<path fill="none" stroke="#ff0000" stroke-width=".1964" d="M494.6258,-143.968C526.1645,-125.8511 600.406,-85.4786 668.0726,-65.6985 781.7351,-32.4729 817.7367,-60.5276 932.0726,-29.6985 936.4053,-28.5302 940.9114,-26.9695 945.2096,-25.2984"/>
<polygon fill="#ff0000" stroke="#ff0000" stroke-width=".1964" points="946.8104,-28.4226 954.6824,-21.3316 944.1066,-21.9659 946.8104,-28.4226"/>
</g>
<!-- ego_velocity&#45;&gt;151 -->
<g id="edge5" class="edge">
<title>ego_velocity&#45;&gt;151</title>
<path fill="none" stroke="#ff0000" stroke-width=".3804" d="M510.2707,-148.3097C589.2717,-136.1164 796.5844,-104.1191 876.2533,-91.8228"/>
<polygon fill="#ff0000" stroke="#ff0000" stroke-width=".3804" points="877.2721,-95.2071 886.6212,-90.2226 876.2043,-88.289 877.2721,-95.2071"/>
</g>
<!-- ego_velocity&#45;&gt;152 -->
<g id="edge6" class="edge">
<title>ego_velocity&#45;&gt;152</title>
<path fill="none" stroke="#ff0000" stroke-width=".1411" d="M510.3093,-149.9825C527.6235,-148.2454 549.539,-146.0544 569.0726,-144.1249 733.0531,-127.9268 783.6469,-165.6114 938.0726,-108.1249 939.7165,-107.5129 941.3535,-106.7876 942.966,-105.9804"/>
<polygon fill="#ff0000" stroke="#ff0000" stroke-width=".1411" points="945.0327,-108.8224 951.812,-100.6804 941.4349,-102.8176 945.0327,-108.8224"/>
</g>
<!-- dx1 -->
<g id="node4" class="node">
<title>dx1</title>
<polygon fill="#d3d3d3" stroke="#000000" points="380.0726,-162.1249 350.0726,-162.1249 350.0726,-144.1249 380.0726,-144.1249 380.0726,-162.1249"/>
<text text-anchor="middle" x="365.0726" y="-150.9249" font-family="Times,serif" font-size="9.00" fill="#000000">dx1</text>
</g>
<!-- dx1&#45;&gt;0 -->
<g id="edge50" class="edge">
<title>dx1&#45;&gt;0</title>
<path fill="none" stroke="#00ff00" stroke-width=".1102" d="M380.3214,-143.952C411.9628,-125.4321 487.6051,-83.8018 557.0726,-65.6985 744.7971,-16.7774 800.465,-60.0352 992.0726,-29.6985 1004.989,-27.6535 1019.1811,-24.3991 1030.8199,-21.4575"/>
<polygon fill="#00ff00" stroke="#00ff00" stroke-width=".1102" points="1031.8868,-24.7965 1040.6809,-18.8877 1030.1215,-18.0227 1031.8868,-24.7965"/>
</g>
<!-- dx1&#45;&gt;1 -->
<g id="edge51" class="edge">
<title>dx1&#45;&gt;1</title>
<path fill="none" stroke="#ff0000" stroke-width=".1634" d="M349.8737,-151.3383C312.4654,-146.5972 217.6235,-132.3742 199.0726,-108.1249 187.6155,-93.1485 186.225,-79.5005 199.0726,-65.6985 222.8712,-40.1319 759.2453,-20.0113 882.8338,-15.7044"/>
<polygon fill="#ff0000" stroke="#ff0000" stroke-width=".1634" points="883.3001,-19.1905 893.1735,-15.3476 883.0587,-12.1947 883.3001,-19.1905"/>
</g>
<!-- dx1&#45;&gt;2 -->
<g id="edge52" class="edge">
<title>dx1&#45;&gt;2</title>
<path fill="none" stroke="#ff0000" stroke-width=".3392" d="M380.5155,-144.034C412.5514,-125.6655 489.095,-84.2995 559.0726,-65.6985 720.0313,-22.9134 770.4463,-69.8885 932.0726,-29.6985 936.4274,-28.6156 940.9442,-27.096 945.246,-25.439"/>
<polygon fill="#ff0000" stroke="#ff0000" stroke-width=".3392" points="946.8505,-28.5614 954.7167,-21.4639 944.1414,-22.1069 946.8505,-28.5614"/>
</g>
<!-- dx1&#45;&gt;151 -->
<g id="edge7" class="edge">
<title>dx1&#45;&gt;151</title>
<path fill="none" stroke="#00ff00" stroke-width=".3413" d="M380.1622,-151.2849C453.6965,-142.3181 775.0712,-103.1298 876.9631,-90.7052"/>
<polygon fill="#00ff00" stroke="#00ff00" stroke-width=".3413" points="877.4326,-94.1739 886.9354,-89.4891 876.5853,-87.2254 877.4326,-94.1739"/>
</g>
<!-- dx1&#45;&gt;152 -->
<g id="edge8" class="edge">
<title>dx1&#45;&gt;152</title>
<path fill="none" stroke="#ff0000" stroke-width=".2782" d="M380.355,-151.0443C395.3017,-149.062 418.7196,-146.0956 439.0726,-144.1249 549.7321,-133.4104 833.3996,-145.5938 938.0726,-108.1249 939.7241,-107.5337 941.367,-106.8247 942.9841,-106.0301"/>
<polygon fill="#ff0000" stroke="#ff0000" stroke-width=".2782" points="945.0342,-108.8833 951.8433,-100.7661 941.4585,-102.8654 945.0342,-108.8833"/>
</g>
<!-- dy1 -->
<g id="node5" class="node">
<title>dy1</title>
<polygon fill="#d3d3d3" stroke="#000000" points="923.0726,-162.1249 893.0726,-162.1249 893.0726,-144.1249 923.0726,-144.1249 923.0726,-162.1249"/>
<text text-anchor="middle" x="908.0726" y="-150.9249" font-family="Times,serif" font-size="9.00" fill="#000000">dy1</text>
</g>
<!-- dy1&#45;&gt;0 -->
<g id="edge53" class="edge">
<title>dy1&#45;&gt;0</title>
<path fill="none" stroke="#00ff00" stroke-width=".2474" d="M923.3007,-148.4484C942.5387,-141.9322 975.815,-128.569 998.0726,-108.1249 1019.5728,-88.3765 1035.8154,-58.6823 1045.3558,-38.1256"/>
<polygon fill="#00ff00" stroke="#00ff00" stroke-width=".2474" points="1048.6153,-39.41 1049.4946,-28.8517 1042.223,-36.5572 1048.6153,-39.41"/>
</g>
<!-- dy1&#45;&gt;1 -->
<g id="edge54" class="edge">
<title>dy1&#45;&gt;1</title>
<path fill="none" stroke="#00ff00" stroke-width=".2081" d="M892.924,-150.5066C860.0571,-144.4854 783.9554,-128.5864 769.0726,-108.1249 757.981,-92.8758 758.2697,-81.1534 769.0726,-65.6985 782.4713,-46.5297 847.0947,-28.9116 883.3206,-20.3307"/>
<polygon fill="#00ff00" stroke="#00ff00" stroke-width=".2081" points="884.1867,-23.7229 893.1418,-18.061 882.6104,-16.9026 884.1867,-23.7229"/>
</g>
<!-- dy1&#45;&gt;2 -->
<g id="edge55" class="edge">
<title>dy1&#45;&gt;2</title>
<path fill="none" stroke="#00ff00" stroke-width=".1254" d="M899.5756,-143.9772C892.268,-135.4376 882.2628,-121.9642 878.0726,-108.1249 872.6083,-90.0778 868.5685,-81.9843 878.0726,-65.6985 885.5457,-52.8928 920.866,-35.434 944.9723,-24.6636"/>
<polygon fill="#00ff00" stroke="#00ff00" stroke-width=".1254" points="946.4408,-27.8415 954.1955,-20.6225 943.6315,-21.43 946.4408,-27.8415"/>
</g>
<!-- dy1&#45;&gt;151 -->
<g id="edge9" class="edge">
<title>dy1&#45;&gt;151</title>
<path fill="none" stroke="#00ff00" stroke-width=".4091" d="M908.0726,-143.9182C908.0726,-137.2572 908.0726,-127.8323 908.0726,-118.5602"/>
<polygon fill="#00ff00" stroke="#00ff00" stroke-width=".4091" points="911.5727,-118.312 908.0726,-108.3121 904.5727,-118.3121 911.5727,-118.312"/>
</g>
<!-- dy1&#45;&gt;152 -->
<g id="edge10" class="edge">
<title>dy1&#45;&gt;152</title>
<path fill="none" stroke="#00ff00" stroke-width=".1972" d="M916.4153,-143.9182C924.264,-135.2567 936.3476,-121.9219 946.8548,-110.3266"/>
<polygon fill="#00ff00" stroke="#00ff00" stroke-width=".1972" points="949.6845,-112.4162 953.8058,-102.6558 944.4974,-107.7158 949.6845,-112.4162"/>
</g>
<!-- dx2 -->
<g id="node6" class="node">
<title>dx2</title>
<polygon fill="#d3d3d3" stroke="#000000" points="608.0726,-162.1249 578.0726,-162.1249 578.0726,-144.1249 608.0726,-144.1249 608.0726,-162.1249"/>
<text text-anchor="middle" x="593.0726" y="-150.9249" font-family="Times,serif" font-size="9.00" fill="#000000">dx2</text>
</g>
<!-- dx2&#45;&gt;0 -->
<g id="edge56" class="edge">
<title>dx2&#45;&gt;0</title>
<path fill="none" stroke="#ff0000" stroke-width=".3776" d="M606.9499,-144.0189C635.1163,-125.9935 701.5495,-85.7774 763.0726,-65.6985 861.0161,-33.7333 890.9716,-49.5307 992.0726,-29.6985 1004.9053,-27.1812 1019.0898,-23.8839 1030.7452,-21.0361"/>
<polygon fill="#ff0000" stroke="#ff0000" stroke-width=".3776" points="1031.7651,-24.3892 1040.6268,-18.5823 1030.0781,-17.5955 1031.7651,-24.3892"/>
</g>
<!-- dx2&#45;&gt;1 -->
<g id="edge57" class="edge">
<title>dx2&#45;&gt;1</title>
<path fill="none" stroke="#00ff00" stroke-width=".471" d="M577.8737,-151.3383C540.4654,-146.5972 445.6235,-132.3742 427.0726,-108.1249 415.6155,-93.1485 414.4595,-79.7152 427.0726,-65.6985 457.8698,-31.4739 788.9253,-18.5696 883.1703,-15.5741"/>
<polygon fill="#00ff00" stroke="#00ff00" stroke-width=".471" points="883.3306,-19.0709 893.2179,-15.2642 883.1147,-12.0742 883.3306,-19.0709"/>
</g>
<!-- dx2&#45;&gt;2 -->
<g id="edge58" class="edge">
<title>dx2&#45;&gt;2</title>
<path fill="none" stroke="#ff0000" stroke-width=".1922" d="M607.3894,-144.0178C635.7865,-126.3466 701.721,-87.2539 762.0726,-65.6985 834.8038,-39.7215 858.2897,-52.5181 932.0726,-29.6985 936.287,-28.395 940.6918,-26.7913 944.9162,-25.1252"/>
<polygon fill="#ff0000" stroke="#ff0000" stroke-width=".1922" points="946.3809,-28.3067 954.271,-21.2358 943.6936,-21.8431 946.3809,-28.3067"/>
</g>
<!-- dx2&#45;&gt;151 -->
<g id="edge11" class="edge">
<title>dx2&#45;&gt;151</title>
<path fill="none" stroke="#00ff00" stroke-width=".236" d="M608.2657,-149.9313C657.1439,-139.657 810.9946,-107.3175 877.238,-93.3931"/>
<polygon fill="#00ff00" stroke="#00ff00" stroke-width=".236" points="878.0218,-96.805 887.0879,-91.3227 876.5818,-89.9547 878.0218,-96.805"/>
</g>
<!-- dx2&#45;&gt;152 -->
<g id="edge12" class="edge">
<title>dx2&#45;&gt;152</title>
<path fill="none" stroke="#00ff00" stroke-width=".3652" d="M608.4838,-151.5568C671.3982,-145.0951 906.9193,-120.3011 938.0726,-108.1249 939.7064,-107.4863 941.3354,-106.7401 942.9417,-105.9169"/>
<polygon fill="#00ff00" stroke="#00ff00" stroke-width=".3652" points="945.0292,-108.7445 951.7701,-100.5707 941.4033,-102.7568 945.0292,-108.7445"/>
</g>
<!-- dy2 -->
<g id="node7" class="node">
<title>dy2</title>
<polygon fill="#d3d3d3" stroke="#000000" points="722.0726,-162.1249 692.0726,-162.1249 692.0726,-144.1249 722.0726,-144.1249 722.0726,-162.1249"/>
<text text-anchor="middle" x="707.0726" y="-150.9249" font-family="Times,serif" font-size="9.00" fill="#000000">dy2</text>
</g>
<!-- dy2&#45;&gt;0 -->
<g id="edge59" class="edge">
<title>dy2&#45;&gt;0</title>
<path fill="none" stroke="#00ff00" stroke-width=".243" d="M717.9366,-143.9482C739.5587,-126.1551 790.1252,-86.8585 839.0726,-65.6985 903.1943,-37.9785 924.0757,-45.7116 992.0726,-29.6985 1004.8017,-26.7008 1018.9768,-23.3599 1030.6528,-20.6074"/>
<polygon fill="#00ff00" stroke="#00ff00" stroke-width=".243" points="1031.6299,-23.973 1040.5598,-18.2716 1030.0235,-17.1598 1031.6299,-23.973"/>
</g>
<!-- dy2&#45;&gt;1 -->
<g id="edge60" class="edge">
<title>dy2&#45;&gt;1</title>
<path fill="none" stroke="#ff0000" stroke-width=".213" d="M691.8737,-151.3383C654.4654,-146.5972 559.6235,-132.3742 541.0726,-108.1249 529.6155,-93.1485 528.6879,-79.9174 541.0726,-65.6985 563.618,-39.8139 803.7292,-21.742 882.9061,-16.4507"/>
<polygon fill="#ff0000" stroke="#ff0000" stroke-width=".213" points="883.2219,-19.9376 892.9709,-15.7894 882.7629,-12.9526 883.2219,-19.9376"/>
</g>
<!-- dy2&#45;&gt;2 -->
<g id="edge61" class="edge">
<title>dy2&#45;&gt;2</title>
<path fill="none" stroke="#00ff00" stroke-width=".4729" d="M718.3576,-143.8928C739.8119,-126.6846 788.4262,-89.3159 834.0726,-65.6985 875.2844,-44.3755 888.8387,-46.5485 932.0726,-29.6985 936.1828,-28.0965 940.5366,-26.3465 944.7427,-24.628"/>
<polygon fill="#00ff00" stroke="#00ff00" stroke-width=".4729" points="946.1992,-27.8132 954.1048,-20.7597 943.5261,-21.3437 946.1992,-27.8132"/>
</g>
<!-- dy2&#45;&gt;151 -->
<g id="edge13" class="edge">
<title>dy2&#45;&gt;151</title>
<path fill="none" stroke="#ff0000" stroke-width=".2556" d="M722.1802,-148.1481C755.2285,-137.2614 834.4633,-111.16 878.0586,-96.7988"/>
<polygon fill="#ff0000" stroke="#ff0000" stroke-width=".2556" points="879.4114,-100.0383 887.8143,-93.5852 877.2212,-93.3897 879.4114,-100.0383"/>
</g>
<!-- dy2&#45;&gt;152 -->
<g id="edge14" class="edge">
<title>dy2&#45;&gt;152</title>
<path fill="none" stroke="#ff0000" stroke-width=".4843" d="M722.3021,-151.0128C767.2112,-144.6513 898.4364,-125.0671 938.0726,-108.1249 939.6452,-107.4527 941.2176,-106.6885 942.7724,-105.8591"/>
<polygon fill="#ff0000" stroke="#ff0000" stroke-width=".4843" points="944.677,-108.7969 951.3662,-100.5806 941.0133,-102.8322 944.677,-108.7969"/>
</g>
<!-- &#45;8 -->
<g id="node8" class="node">
<title>&#45;8</title>
<polygon fill="#d3d3d3" stroke="#000000" points="1903.0726,-162.1249 1879.0726,-162.1249 1879.0726,-144.1249 1903.0726,-144.1249 1903.0726,-162.1249"/>
<text text-anchor="middle" x="1891.0726" y="-150.9249" font-family="Times,serif" font-size="9.00" fill="#000000">&#45;8</text>
</g>
<!-- &#45;8&#45;&gt;0 -->
<g id="edge62" class="edge">
<title>&#45;8&#45;&gt;0</title>
<path fill="none" stroke="#ff0000" stroke-width=".1066" d="M1878.9583,-149.0461C1836.7646,-135.0104 1692.1307,-88.3283 1569.0726,-65.6985 1383.2638,-31.5291 1155.1555,-19.1611 1080.2211,-15.8531"/>
<polygon fill="#ff0000" stroke="#ff0000" stroke-width=".1066" points="1080.0585,-12.3431 1069.9183,-15.4136 1079.76,-19.3367 1080.0585,-12.3431"/>
</g>
<!-- &#45;8&#45;&gt;1 -->
<g id="edge63" class="edge">
<title>&#45;8&#45;&gt;1</title>
<path fill="none" stroke="#00ff00" stroke-width=".1553" d="M1879.0576,-149.1848C1835.2178,-134.9997 1679.5064,-86.2905 1547.0726,-65.6985 1281.7832,-24.4488 1205.7571,-89.7085 944.0726,-29.6985 939.6986,-28.6954 935.1727,-27.2143 930.8677,-25.5704"/>
<polygon fill="#00ff00" stroke="#00ff00" stroke-width=".1553" points="931.9737,-22.2387 921.3989,-21.5876 929.2596,-28.6911 931.9737,-22.2387"/>
</g>
<!-- &#45;8&#45;&gt;2 -->
<g id="edge64" class="edge">
<title>&#45;8&#45;&gt;2</title>
<path fill="none" stroke="#00ff00" stroke-width=".1768" d="M1896.7716,-144.0109C1907.034,-126.3275 1925.7206,-87.2145 1905.0726,-65.6985 1871.424,-30.6354 1079.2184,-36.3028 1031.0726,-29.6985 1018.1166,-27.9213 1003.9208,-24.6912 992.2899,-21.6965"/>
<polygon fill="#00ff00" stroke="#00ff00" stroke-width=".1768" points="993.0034,-18.2644 982.4386,-19.0609 991.1942,-25.0266 993.0034,-18.2644"/>
</g>
<!-- &#45;8&#45;&gt;151 -->
<g id="edge15" class="edge">
<title>&#45;8&#45;&gt;151</title>
<path fill="none" stroke="#ff0000" stroke-width=".2751" d="M1879.0513,-151.7497C1861.3454,-149.7723 1827.201,-146.1425 1798.0726,-144.1249 1702.6619,-137.5162 1028.5928,-138.9947 938.0726,-108.1249 936.4123,-107.5587 934.7625,-106.8693 933.1401,-106.0898"/>
<polygon fill="#ff0000" stroke="#ff0000" stroke-width=".2751" points="934.6597,-102.9231 924.2658,-100.8692 931.1103,-108.9565 934.6597,-102.9231"/>
</g>
<!-- &#45;8&#45;&gt;152 -->
<g id="edge16" class="edge">
<title>&#45;8&#45;&gt;152</title>
<path fill="none" stroke="#00ff00" stroke-width=".2502" d="M1879.0434,-151.8536C1861.3276,-150.0056 1827.1712,-146.5353 1798.0726,-144.1249 1486.7209,-118.3335 1108.9818,-95.2819 999.3046,-88.7522"/>
<polygon fill="#00ff00" stroke="#00ff00" stroke-width=".2502" points="999.4419,-85.2542 989.252,-88.1553 999.027,-92.2419 999.4419,-85.2542"/>
</g>
<!-- &#45;9 -->
<g id="node9" class="node">
<title>&#45;9</title>
<polygon fill="#d3d3d3" stroke="#000000" points="1789.0726,-162.1249 1765.0726,-162.1249 1765.0726,-144.1249 1789.0726,-144.1249 1789.0726,-162.1249"/>
<text text-anchor="middle" x="1777.0726" y="-150.9249" font-family="Times,serif" font-size="9.00" fill="#000000">&#45;9</text>
</g>
<!-- &#45;9&#45;&gt;0 -->
<g id="edge65" class="edge">
<title>&#45;9&#45;&gt;0</title>
<path fill="none" stroke="#00ff00" stroke-width=".5175" d="M1764.9652,-148.8155C1724.6536,-134.637 1591.0785,-89.0156 1477.0726,-65.6985 1328.4255,-35.2964 1146.3405,-20.929 1080.4126,-16.4505"/>
<polygon fill="#00ff00" stroke="#00ff00" stroke-width=".5175" points="1080.3754,-12.9405 1070.1658,-15.7714 1079.9124,-19.9251 1080.3754,-12.9405"/>
</g>
<!-- &#45;9&#45;&gt;1 -->
<g id="edge66" class="edge">
<title>&#45;9&#45;&gt;1</title>
<path fill="none" stroke="#00ff00" stroke-width=".1012" d="M1765.0398,-149.1377C1721.8172,-135.0004 1570.1278,-86.9799 1441.0726,-65.6985 1222.556,-29.6648 1159.6188,-80.5682 944.0726,-29.6985 939.7051,-28.6677 935.1822,-27.1733 930.8783,-25.5248"/>
<polygon fill="#00ff00" stroke="#00ff00" stroke-width=".1012" points="931.9839,-22.1929 921.4089,-21.5447 929.2715,-28.6461 931.9839,-22.1929"/>
</g>
<!-- &#45;9&#45;&gt;2 -->
<g id="edge67" class="edge">
<title>&#45;9&#45;&gt;2</title>
<path fill="none" stroke="#00ff00" stroke-width=".1414" d="M1782.7599,-144.0221C1793.0019,-126.3583 1811.6542,-87.2781 1791.0726,-65.6985 1761.8991,-35.1105 1072.9321,-35.572 1031.0726,-29.6985 1018.1221,-27.8813 1003.9269,-24.6477 992.2948,-21.6609"/>
<polygon fill="#00ff00" stroke="#00ff00" stroke-width=".1414" points="993.0062,-18.2284 982.4422,-19.035 991.2035,-24.9923 993.0062,-18.2284"/>
</g>
<!-- &#45;9&#45;&gt;151 -->
<g id="edge17" class="edge">
<title>&#45;9&#45;&gt;151</title>
<path fill="none" stroke="#ff0000" stroke-width=".1649" d="M1764.889,-151.3879C1750.073,-149.3394 1724.2896,-145.9789 1702.0726,-144.1249 1532.6951,-129.9903 1098.797,-163.4074 938.0726,-108.1249 936.4137,-107.5543 934.7651,-106.8616 933.1437,-106.0794"/>
<polygon fill="#ff0000" stroke="#ff0000" stroke-width=".1649" points="934.6643,-102.913 924.272,-100.8513 931.1103,-108.9437 934.6643,-102.913"/>
</g>
<!-- &#45;9&#45;&gt;152 -->
<g id="edge18" class="edge">
<title>&#45;9&#45;&gt;152</title>
<path fill="none" stroke="#ff0000" stroke-width=".4113" d="M1764.8785,-151.5033C1750.0521,-149.5684 1724.2585,-146.3198 1702.0726,-144.1249 1430.5448,-117.2626 1101.4732,-95.4169 999.632,-88.8999"/>
<polygon fill="#ff0000" stroke="#ff0000" stroke-width=".4113" points="999.6207,-85.3922 989.4184,-88.2491 999.1755,-92.378 999.6207,-85.3922"/>
</g>
<!-- &#45;10 -->
<g id="node10" class="node">
<title>&#45;10</title>
<polygon fill="#d3d3d3" stroke="#000000" points="1107.5726,-162.1249 1078.5726,-162.1249 1078.5726,-144.1249 1107.5726,-144.1249 1107.5726,-162.1249"/>
<text text-anchor="middle" x="1093.0726" y="-150.9249" font-family="Times,serif" font-size="9.00" fill="#000000">&#45;10</text>
</g>
<!-- &#45;10&#45;&gt;0 -->
<g id="edge68" class="edge">
<title>&#45;10&#45;&gt;0</title>
<path fill="none" stroke="#00ff00" stroke-width=".1386" d="M1107.7883,-150.654C1128.7624,-146.2541 1166.5411,-134.8734 1183.0726,-108.1249 1192.9858,-92.0849 1193.6623,-81.3002 1183.0726,-65.6985 1160.1092,-31.867 1110.7121,-20.5443 1080.441,-16.755"/>
<polygon fill="#00ff00" stroke="#00ff00" stroke-width=".1386" points="1080.5518,-13.2471 1070.2382,-15.672 1079.8129,-20.208 1080.5518,-13.2471"/>
</g>
<!-- &#45;10&#45;&gt;1 -->
<g id="edge69" class="edge">
<title>&#45;10&#45;&gt;1</title>
<path fill="none" stroke="#00ff00" stroke-width=".3067" d="M1084.504,-143.9503C1068.533,-127.157 1032.6881,-90.8891 998.0726,-65.6985 976.4481,-49.9618 949.5018,-35.3153 930.7574,-25.8225"/>
<polygon fill="#00ff00" stroke="#00ff00" stroke-width=".3067" points="932.2863,-22.6739 921.7745,-21.3496 929.1661,-28.9401 932.2863,-22.6739"/>
</g>
<!-- &#45;10&#45;&gt;2 -->
<g id="edge70" class="edge">
<title>&#45;10&#45;&gt;2</title>
<path fill="none" stroke="#ff0000" stroke-width=".3164" d="M1098.4304,-144.0001C1107.6518,-126.9707 1123.981,-89.8883 1107.0726,-65.6985 1093.6738,-46.5297 1029.0505,-28.9116 992.8245,-20.3307"/>
<polygon fill="#ff0000" stroke="#ff0000" stroke-width=".3164" points="993.5347,-16.9026 983.0034,-18.061 991.9584,-23.7229 993.5347,-16.9026"/>
</g>
<!-- &#45;10&#45;&gt;151 -->
<g id="edge19" class="edge">
<title>&#45;10&#45;&gt;151</title>
<path fill="none" stroke="#ff0000" stroke-width=".5403" d="M1078.3831,-150.5555C1050.1498,-145.2559 986.7921,-131.6001 938.0726,-108.1249 936.5318,-107.3825 934.9846,-106.5629 933.4494,-105.6904"/>
<polygon fill="#ff0000" stroke="#ff0000" stroke-width=".5403" points="935.2345,-102.678 924.9135,-100.2845 931.4891,-108.5918 935.2345,-102.678"/>
</g>
<!-- &#45;10&#45;&gt;152 -->
<g id="edge20" class="edge">
<title>&#45;10&#45;&gt;152</title>
<path fill="none" stroke="#ff0000" stroke-width=".3828" d="M1078.2426,-145.2694C1058.0573,-134.5771 1021.5396,-115.2335 996.1042,-101.7602"/>
<polygon fill="#ff0000" stroke="#ff0000" stroke-width=".3828" points="997.4307,-98.5022 986.9556,-96.9141 994.154,-104.688 997.4307,-98.5022"/>
</g>
<!-- &#45;11 -->
<g id="node11" class="node">
<title>&#45;11</title>
<polygon fill="#d3d3d3" stroke="#000000" points="982.5726,-162.1249 953.5726,-162.1249 953.5726,-144.1249 982.5726,-144.1249 982.5726,-162.1249"/>
<text text-anchor="middle" x="968.0726" y="-150.9249" font-family="Times,serif" font-size="9.00" fill="#000000">&#45;11</text>
</g>
<!-- &#45;11&#45;&gt;0 -->
<g id="edge71" class="edge">
<title>&#45;11&#45;&gt;0</title>
<path fill="none" stroke="#ff0000" stroke-width=".2091" d="M982.6075,-151.5342C1005.6006,-148.1476 1049.7345,-137.9114 1069.0726,-108.1249 1082.8029,-86.976 1074.9503,-57.5217 1066.5115,-37.4053"/>
<polygon fill="#ff0000" stroke="#ff0000" stroke-width=".2091" points="1069.6054,-35.7534 1062.2853,-28.094 1063.2312,-38.6465 1069.6054,-35.7534"/>
</g>
<!-- &#45;11&#45;&gt;1 -->
<g id="edge72" class="edge">
<title>&#45;11&#45;&gt;1</title>
<path fill="none" stroke="#ff0000" stroke-width=".3056" d="M953.481,-147.9711C930.2539,-139.4379 886.6138,-121.9449 878.0726,-108.1249 863.8028,-85.036 878.9762,-54.4925 892.4332,-34.757"/>
<polygon fill="#ff0000" stroke="#ff0000" stroke-width=".3056" points="895.3674,-36.672 898.3834,-26.5155 889.692,-32.5745 895.3674,-36.672"/>
</g>
<!-- &#45;11&#45;&gt;2 -->
<g id="edge73" class="edge">
<title>&#45;11&#45;&gt;2</title>
<path fill="none" stroke="#ff0000" stroke-width=".1198" d="M976.5695,-143.9772C983.8772,-135.4376 993.8823,-121.9642 998.0726,-108.1249 1003.5368,-90.0778 1003.0386,-83.889 998.0726,-65.6985 995.1074,-54.8371 989.1635,-43.9348 983.3431,-35.0262"/>
<polygon fill="#ff0000" stroke="#ff0000" stroke-width=".1198" points="986.0333,-32.7641 977.4524,-26.5497 980.285,-36.7589 986.0333,-32.7641"/>
</g>
<!-- &#45;11&#45;&gt;151 -->
<g id="edge21" class="edge">
<title>&#45;11&#45;&gt;151</title>
<path fill="none" stroke="#00ff00" stroke-width=".2378" d="M959.7298,-143.9182C951.8811,-135.2567 939.7976,-121.9219 929.2903,-110.3266"/>
<polygon fill="#00ff00" stroke="#00ff00" stroke-width=".2378" points="931.6477,-107.7158 922.3393,-102.6558 926.4606,-112.4162 931.6477,-107.7158"/>
</g>
<!-- &#45;11&#45;&gt;152 -->
<g id="edge22" class="edge">
<title>&#45;11&#45;&gt;152</title>
<path fill="none" stroke="#ff0000" stroke-width=".1276" d="M968.0726,-143.9182C968.0726,-137.2572 968.0726,-127.8323 968.0726,-118.5602"/>
<polygon fill="#ff0000" stroke="#ff0000" stroke-width=".1276" points="971.5727,-118.312 968.0726,-108.3121 964.5727,-118.3121 971.5727,-118.312"/>
</g>
<!-- &#45;12 -->
<g id="node12" class="node">
<title>&#45;12</title>
<polygon fill="#d3d3d3" stroke="#000000" points="835.5726,-162.1249 806.5726,-162.1249 806.5726,-144.1249 835.5726,-144.1249 835.5726,-162.1249"/>
<text text-anchor="middle" x="821.0726" y="-150.9249" font-family="Times,serif" font-size="9.00" fill="#000000">&#45;12</text>
</g>
<!-- &#45;12&#45;&gt;0 -->
<g id="edge74" class="edge">
<title>&#45;12&#45;&gt;0</title>
<path fill="none" stroke="#ff0000" stroke-width=".1838" d="M824.5086,-143.9008C831.6452,-126.0244 849.8023,-86.5888 878.0726,-65.6985 890.4809,-56.5293 984.8061,-32.2783 1030.4622,-20.902"/>
<polygon fill="#ff0000" stroke="#ff0000" stroke-width=".1838" points="1031.5735,-24.2325 1040.4371,-18.4285 1029.8887,-17.4383 1031.5735,-24.2325"/>
</g>
<!-- &#45;12&#45;&gt;1 -->
<g id="edge75" class="edge">
<title>&#45;12&#45;&gt;1</title>
<path fill="none" stroke="#00ff00" stroke-width=".3113" d="M806.4183,-151.4072C769.3948,-146.736 673.7142,-132.4928 655.0726,-108.1249 643.6155,-93.1485 643.1249,-80.2864 655.0726,-65.6985 683.7415,-30.6942 824.6666,-19.272 882.8622,-16.0102"/>
<polygon fill="#00ff00" stroke="#00ff00" stroke-width=".3113" points="883.2281,-19.496 893.0311,-15.4771 882.8615,-12.5056 883.2281,-19.496"/>
</g>
<!-- &#45;12&#45;&gt;2 -->
<g id="edge76" class="edge">
<title>&#45;12&#45;&gt;2</title>
<path fill="none" stroke="#ff0000" stroke-width=".3305" stroke-dasharray="1,5" d="M823.8895,-144.0704C829.6525,-126.8314 844.2879,-88.9457 868.0726,-65.6985 879.754,-54.2809 919.0582,-35.9955 944.7726,-24.7436"/>
<polygon fill="#ff0000" stroke="#ff0000" stroke-width=".3305" points="946.4091,-27.8492 954.1981,-20.6671 943.6304,-21.4243 946.4091,-27.8492"/>
</g>
<!-- &#45;12&#45;&gt;151 -->
<g id="edge23" class="edge">
<title>&#45;12&#45;&gt;151</title>
<path fill="none" stroke="#00ff00" stroke-width=".2571" d="M833.1695,-143.9182C845.972,-134.1746 866.5452,-118.517 882.8938,-106.0745"/>
<polygon fill="#00ff00" stroke="#00ff00" stroke-width=".2571" points="885.1566,-108.7508 890.9944,-99.9094 880.9172,-103.1805 885.1566,-108.7508"/>
</g>
<!-- &#45;12&#45;&gt;152 -->
<g id="edge24" class="edge">
<title>&#45;12&#45;&gt;152</title>
<path fill="none" stroke="#00ff00" stroke-width=".4148" d="M835.6219,-148.818C858.2587,-141.8361 902.9572,-126.9149 938.0726,-108.1249 939.5806,-107.318 941.1018,-106.4474 942.6169,-105.5353"/>
<polygon fill="#00ff00" stroke="#00ff00" stroke-width=".4148" points="944.6256,-108.4039 951.0933,-100.0123 940.8041,-102.539 944.6256,-108.4039"/>
</g>
<!-- &#45;13 -->
<g id="node13" class="node">
<title>&#45;13</title>
<polygon fill="#d3d3d3" stroke="#000000" points="1221.5726,-162.1249 1192.5726,-162.1249 1192.5726,-144.1249 1221.5726,-144.1249 1221.5726,-162.1249"/>
<text text-anchor="middle" x="1207.0726" y="-150.9249" font-family="Times,serif" font-size="9.00" fill="#000000">&#45;13</text>
</g>
<!-- &#45;13&#45;&gt;0 -->
<g id="edge77" class="edge">
<title>&#45;13&#45;&gt;0</title>
<path fill="none" stroke="#00ff00" stroke-width=".2592" d="M1209.2691,-144.0755C1212.8817,-126.8452 1218.014,-88.9738 1200.0726,-65.6985 1185.1753,-46.3724 1117.5219,-28.7003 1080.1206,-20.1876"/>
<polygon fill="#00ff00" stroke="#00ff00" stroke-width=".2592" points="1080.5299,-16.6933 1070.0089,-17.9417 1079.012,-23.5268 1080.5299,-16.6933"/>
</g>
<!-- &#45;13&#45;&gt;1 -->
<g id="edge78" class="edge">
<title>&#45;13&#45;&gt;1</title>
<path fill="none" stroke="#ff0000" stroke-width=".2433" d="M1192.2208,-144.8951C1162.847,-128.7616 1095.0611,-92.2398 1036.0726,-65.6985 996.0311,-47.6823 984.8139,-46.0705 944.0726,-29.6985 939.9793,-28.0536 935.6339,-26.2825 931.4307,-24.5565"/>
<polygon fill="#ff0000" stroke="#ff0000" stroke-width=".2433" points="932.6463,-21.2718 922.0674,-20.6912 929.9753,-27.7422 932.6463,-21.2718"/>
</g>
<!-- &#45;13&#45;&gt;2 -->
<g id="edge79" class="edge">
<title>&#45;13&#45;&gt;2</title>
<path fill="none" stroke="#ff0000" stroke-width=".1201" d="M1212.6372,-143.9977C1222.4298,-126.6345 1239.9973,-88.5457 1221.0726,-65.6985 1193.6597,-32.6039 1073.1076,-38.6301 1031.0726,-29.6985 1018.2808,-26.9805 1004.1,-23.665 992.4365,-20.857"/>
<polygon fill="#ff0000" stroke="#ff0000" stroke-width=".1201" points="993.0886,-17.4136 982.5448,-18.4525 991.4351,-24.2156 993.0886,-17.4136"/>
</g>
<!-- &#45;13&#45;&gt;151 -->
<g id="edge25" class="edge">
<title>&#45;13&#45;&gt;151</title>
<path fill="none" stroke="#00ff00" stroke-width=".4151" d="M1192.5473,-151.5611C1143.6189,-146.1595 985.2495,-127.5511 938.0726,-108.1249 936.4505,-107.457 934.8307,-106.6878 933.2315,-105.8467"/>
<polygon fill="#00ff00" stroke="#00ff00" stroke-width=".4151" points="934.7788,-102.6901 924.4236,-100.4497 931.1215,-108.6587 934.7788,-102.6901"/>
</g>
<!-- &#45;13&#45;&gt;152 -->
<g id="edge26" class="edge">
<title>&#45;13&#45;&gt;152</title>
<path fill="none" stroke="#00ff00" stroke-width=".1298" d="M1192.4818,-149.0826C1154.1911,-138.4745 1050.216,-109.6689 998.3454,-95.2986"/>
<polygon fill="#00ff00" stroke="#00ff00" stroke-width=".1298" points="999.2725,-91.9236 988.701,-92.6266 997.4035,-98.6695 999.2725,-91.9236"/>
</g>
<!-- &#45;14 -->
<g id="node14" class="node">
<title>&#45;14</title>
<polygon fill="#d3d3d3" stroke="#000000" points="1335.5726,-162.1249 1306.5726,-162.1249 1306.5726,-144.1249 1335.5726,-144.1249 1335.5726,-162.1249"/>
<text text-anchor="middle" x="1321.0726" y="-150.9249" font-family="Times,serif" font-size="9.00" fill="#000000">&#45;14</text>
</g>
<!-- &#45;14&#45;&gt;0 -->
<g id="edge80" class="edge">
<title>&#45;14&#45;&gt;0</title>
<path fill="none" stroke="#00ff00" stroke-width=".4321" d="M1313.0937,-144.0635C1297.1344,-126.4723 1259.4215,-87.5135 1220.0726,-65.6985 1173.9437,-40.1247 1113.2763,-25.6838 1079.8485,-19.1535"/>
<polygon fill="#00ff00" stroke="#00ff00" stroke-width=".4321" points="1080.4793,-15.7109 1070.0054,-17.3072 1079.1887,-22.5909 1080.4793,-15.7109"/>
</g>
<!-- &#45;14&#45;&gt;1 -->
<g id="edge81" class="edge">
<title>&#45;14&#45;&gt;1</title>
<path fill="none" stroke="#ff0000" stroke-width=".2567" d="M1306.5628,-146.8486C1270.6939,-131.4962 1174.7632,-91.4275 1092.0726,-65.6985 1027.4335,-45.5861 1008.4393,-50.6662 944.0726,-29.6985 939.8781,-28.3321 935.483,-26.6976 931.2622,-25.0204"/>
<polygon fill="#ff0000" stroke="#ff0000" stroke-width=".2567" points="932.4837,-21.7379 921.906,-21.1355 929.7993,-28.2027 932.4837,-21.7379"/>
</g>
<!-- &#45;14&#45;&gt;2 -->
<g id="edge82" class="edge">
<title>&#45;14&#45;&gt;2</title>
<path fill="none" stroke="#ff0000" stroke-width=".1359" d="M1326.7791,-143.876C1336.8142,-126.3047 1354.7783,-87.8755 1335.0726,-65.6985 1289.8867,-14.8459 1098.065,-41.5209 1031.0726,-29.6985 1018.1942,-27.4258 1004.0056,-24.1508 992.3592,-21.2544"/>
<polygon fill="#ff0000" stroke="#ff0000" stroke-width=".1359" points="993.0433,-17.8169 982.4888,-18.7405 991.3156,-24.6004 993.0433,-17.8169"/>
</g>
<!-- &#45;14&#45;&gt;151 -->
<g id="edge27" class="edge">
<title>&#45;14&#45;&gt;151</title>
<path fill="none" stroke="#ff0000" stroke-width=".604" d="M1306.3576,-151.6017C1238.1889,-144.5193 955.6537,-114.8676 938.0726,-108.1249 936.4347,-107.4967 934.8025,-106.7588 933.1937,-105.9418"/>
<polygon fill="#ff0000" stroke="#ff0000" stroke-width=".604" points="934.7292,-102.7806 924.3583,-100.6137 931.1143,-108.775 934.7292,-102.7806"/>
</g>
<!-- &#45;14&#45;&gt;152 -->
<g id="edge28" class="edge">
<title>&#45;14&#45;&gt;152</title>
<path fill="none" stroke="#ff0000" stroke-width=".3823" d="M1306.354,-150.3641C1253.4977,-140.4497 1072.5315,-106.5054 999.2537,-92.7604"/>
<polygon fill="#ff0000" stroke="#ff0000" stroke-width=".3823" points="999.7255,-89.288 989.2516,-90.8843 998.435,-96.168 999.7255,-89.288"/>
</g>
<!-- &#45;15 -->
<g id="node15" class="node">
<title>&#45;15</title>
<polygon fill="#d3d3d3" stroke="#000000" points="1449.5726,-162.1249 1420.5726,-162.1249 1420.5726,-144.1249 1449.5726,-144.1249 1449.5726,-162.1249"/>
<text text-anchor="middle" x="1435.0726" y="-150.9249" font-family="Times,serif" font-size="9.00" fill="#000000">&#45;15</text>
</g>
<!-- &#45;15&#45;&gt;0 -->
<g id="edge83" class="edge">
<title>&#45;15&#45;&gt;0</title>
<path fill="none" stroke="#00ff00" stroke-width=".6172" d="M1420.2242,-144.2233C1390.7977,-126.9124 1322.5961,-88.422 1261.0726,-65.6985 1197.5846,-42.2494 1119.1211,-26.2675 1079.878,-19.1125"/>
<polygon fill="#00ff00" stroke="#00ff00" stroke-width=".6172" points="1080.3541,-15.6423 1069.8945,-17.3296 1079.1234,-22.5332 1080.3541,-15.6423"/>
</g>
<!-- &#45;15&#45;&gt;1 -->
<g id="edge84" class="edge">
<title>&#45;15&#45;&gt;1</title>
<path fill="none" stroke="#ff0000" stroke-width=".1352" d="M1420.4917,-147.6178C1380.0302,-132.5198 1262.6991,-89.9816 1162.0726,-65.6985 1066.6117,-42.6619 1038.5185,-56.5951 944.0726,-29.6985 939.7567,-28.4694 935.2587,-26.8794 930.9632,-25.1983"/>
<polygon fill="#ff0000" stroke="#ff0000" stroke-width=".1352" points="932.0651,-21.8654 921.4889,-21.2373 929.365,-28.3237 932.0651,-21.8654"/>
</g>
<!-- &#45;15&#45;&gt;2 -->
<g id="edge85" class="edge">
<title>&#45;15&#45;&gt;2</title>
<path fill="none" stroke="#ff0000" stroke-width=".107" stroke-dasharray="1,5" d="M1440.686,-144.0912C1450.7984,-126.5487 1469.2341,-87.6711 1449.0726,-65.6985 1417.5557,-31.3506 1077.1032,-37.0653 1031.0726,-29.6985 1018.1596,-27.6319 1003.9677,-24.3756 992.3283,-21.4383"/>
<polygon fill="#ff0000" stroke="#ff0000" stroke-width=".107" points="993.0254,-18.0032 982.4664,-18.8737 991.2636,-24.7779 993.0254,-18.0032"/>
</g>
<!-- &#45;15&#45;&gt;151 -->
<g id="edge29" class="edge">
<title>&#45;15&#45;&gt;151</title>
<path fill="none" stroke="#00ff00" stroke-width=".3558" d="M1420.4242,-151.6081C1402.6173,-149.7762 1371.6498,-146.6291 1345.0726,-144.1249 1164.2782,-127.0899 1108.5425,-170.7091 938.0726,-108.1249 936.4258,-107.5203 934.7867,-106.8009 933.1726,-105.9982"/>
<polygon fill="#00ff00" stroke="#00ff00" stroke-width=".3558" points="934.7016,-102.8347 924.3218,-100.711 931.1118,-108.8441 934.7016,-102.8347"/>
</g>
<!-- &#45;15&#45;&gt;152 -->
<g id="edge30" class="edge">
<title>&#45;15&#45;&gt;152</title>
<path fill="none" stroke="#00ff00" stroke-width=".2254" d="M1420.3249,-151.0339C1354.9288,-141.7618 1090.3434,-104.2478 999.1474,-91.3176"/>
<polygon fill="#00ff00" stroke="#00ff00" stroke-width=".2254" points="999.5459,-87.8392 989.1536,-89.9006 998.5632,-94.7699 999.5459,-87.8392"/>
</g>
<!-- &#45;16 -->
<g id="node16" class="node">
<title>&#45;16</title>
<polygon fill="#d3d3d3" stroke="#000000" points="1563.5726,-162.1249 1534.5726,-162.1249 1534.5726,-144.1249 1563.5726,-144.1249 1563.5726,-162.1249"/>
<text text-anchor="middle" x="1549.0726" y="-150.9249" font-family="Times,serif" font-size="9.00" fill="#000000">&#45;16</text>
</g>
<!-- &#45;16&#45;&gt;0 -->
<g id="edge86" class="edge">
<title>&#45;16&#45;&gt;0</title>
<path fill="none" stroke="#00ff00" stroke-width=".1474" d="M1534.375,-146.474C1498.4728,-130.459 1403.1644,-89.3347 1320.0726,-65.6985 1233.3323,-41.0245 1127.1971,-24.7055 1079.8842,-18.1282"/>
<polygon fill="#00ff00" stroke="#00ff00" stroke-width=".1474" points="1080.3173,-14.655 1069.9356,-16.7692 1079.3699,-21.5906 1080.3173,-14.655"/>
</g>
<!-- &#45;16&#45;&gt;1 -->
<g id="edge87" class="edge">
<title>&#45;16&#45;&gt;1</title>
<path fill="none" stroke="#ff0000" stroke-width=".2112" d="M1534.5153,-147.9848C1491.2893,-132.9244 1359.6797,-88.5278 1247.0726,-65.6985 1114.1626,-38.7531 1075.3101,-63.872 944.0726,-29.6985 939.7299,-28.5677 935.219,-27.025 930.9192,-25.3601"/>
<polygon fill="#ff0000" stroke="#ff0000" stroke-width=".2112" points="932.023,-22.0278 921.4473,-21.3896 929.3167,-28.4835 932.023,-22.0278"/>
</g>
<!-- &#45;16&#45;&gt;2 -->
<g id="edge88" class="edge">
<title>&#45;16&#45;&gt;2</title>
<path fill="none" stroke="#00ff00" stroke-width=".266" d="M1554.7213,-144.0585C1564.8956,-126.4586 1583.4348,-87.4852 1563.0726,-65.6985 1522.618,-22.4139 1089.6578,-38.5241 1031.0726,-29.6985 1018.1412,-27.7504 1003.9477,-24.5049 992.3118,-21.5441"/>
<polygon fill="#00ff00" stroke="#00ff00" stroke-width=".266" points="993.016,-18.1103 982.4545,-18.9504 991.2347,-24.8798 993.016,-18.1103"/>
</g>
<!-- &#45;16&#45;&gt;151 -->
<g id="edge31" class="edge">
<title>&#45;16&#45;&gt;151</title>
<path fill="none" stroke="#ff0000" stroke-width=".266" d="M1534.4319,-151.5215C1516.6326,-149.6044 1485.6727,-146.3734 1459.0726,-144.1249 1343.4311,-134.3498 1047.3961,-147.0717 938.0726,-108.1249 936.4201,-107.5362 934.7765,-106.8292 933.1589,-106.0361"/>
<polygon fill="#ff0000" stroke="#ff0000" stroke-width=".266" points="934.6839,-102.8712 924.2981,-100.7765 931.1108,-108.8906 934.6839,-102.8712"/>
</g>
<!-- &#45;16&#45;&gt;152 -->
<g id="edge32" class="edge">
<title>&#45;16&#45;&gt;152</title>
<path fill="none" stroke="#00ff00" stroke-width=".4314" d="M1534.4201,-151.455C1458.2806,-142.7779 1107.1874,-102.7658 999.5393,-90.4978"/>
<polygon fill="#00ff00" stroke="#00ff00" stroke-width=".4314" points="999.6627,-86.9893 989.3307,-89.3344 998.87,-93.9442 999.6627,-86.9893"/>
</g>
<!-- &#45;17 -->
<g id="node17" class="node">
<title>&#45;17</title>
<polygon fill="#d3d3d3" stroke="#000000" points="265.5726,-162.1249 236.5726,-162.1249 236.5726,-144.1249 265.5726,-144.1249 265.5726,-162.1249"/>
<text text-anchor="middle" x="251.0726" y="-150.9249" font-family="Times,serif" font-size="9.00" fill="#000000">&#45;17</text>
</g>
<!-- &#45;17&#45;&gt;0 -->
<g id="edge89" class="edge">
<title>&#45;17&#45;&gt;0</title>
<path fill="none" stroke="#00ff00" stroke-width=".357" d="M265.5873,-144.4245C297.1191,-126.0279 374.7825,-83.4209 446.0726,-65.6985 682.0828,-7.0275 751.5612,-65.7182 992.0726,-29.6985 1005.0056,-27.7616 1019.1993,-24.5171 1030.8348,-21.554"/>
<polygon fill="#00ff00" stroke="#00ff00" stroke-width=".357" points="1031.9131,-24.8894 1040.6917,-18.9576 1030.13,-18.1203 1031.9131,-24.8894"/>
</g>
<!-- &#45;17&#45;&gt;1 -->
<g id="edge90" class="edge">
<title>&#45;17&#45;&gt;1</title>
<path fill="none" stroke="#00ff00" stroke-width=".1109" d="M236.4183,-151.4072C199.3948,-146.736 103.7142,-132.4928 85.0726,-108.1249 73.6155,-93.1485 72.1569,-79.4368 85.0726,-65.6985 113.0885,-35.8981 747.1819,-18.7757 882.7237,-15.4489"/>
<polygon fill="#00ff00" stroke="#00ff00" stroke-width=".1109" points="883.0362,-18.9425 892.9484,-15.2011 882.8665,-11.9446 883.0362,-18.9425"/>
</g>
<!-- &#45;17&#45;&gt;2 -->
<g id="edge91" class="edge">
<title>&#45;17&#45;&gt;2</title>
<path fill="none" stroke="#00ff00" stroke-width=".3101" d="M265.6799,-144.4711C297.4087,-126.1651 375.5348,-83.7236 447.0726,-65.6985 656.6701,-12.8869 721.7475,-79.5339 932.0726,-29.6985 936.4391,-28.6638 940.9615,-27.1675 945.2653,-25.5184"/>
<polygon fill="#00ff00" stroke="#00ff00" stroke-width=".3101" points="946.8719,-28.6398 954.7348,-21.5387 944.1598,-22.1865 946.8719,-28.6398"/>
</g>
<!-- &#45;17&#45;&gt;151 -->
<g id="edge33" class="edge">
<title>&#45;17&#45;&gt;151</title>
<path fill="none" stroke="#00ff00" stroke-width=".303" d="M265.7161,-151.6491C348.6128,-143.2947 759.4651,-101.8885 876.7579,-90.0676"/>
<polygon fill="#00ff00" stroke="#00ff00" stroke-width=".303" points="877.2672,-93.5341 886.8658,-89.0489 876.5652,-86.5694 877.2672,-93.5341"/>
</g>
<!-- &#45;17&#45;&gt;152 -->
<g id="edge34" class="edge">
<title>&#45;17&#45;&gt;152</title>
<path fill="none" stroke="#00ff00" stroke-width=".2115" d="M265.71,-151.482C283.506,-149.5261 314.4628,-146.2568 341.0726,-144.1249 473.5557,-133.5104 812.6784,-152.1789 938.0726,-108.1249 939.7276,-107.5434 941.3732,-106.8421 942.9924,-106.0534"/>
<polygon fill="#00ff00" stroke="#00ff00" stroke-width=".2115" points="945.0346,-108.9118 951.8575,-100.8064 941.4692,-102.8879 945.0346,-108.9118"/>
</g>
<!-- 151&#45;&gt;0 -->
<g id="edge35" class="edge">
<title>151&#45;&gt;0</title>
<path fill="none" stroke="#00ff00" stroke-width=".5505" d="M925.1262,-73.9464C929.2582,-71.062 933.7368,-68.1393 938.0726,-65.6985 969.1454,-48.2061 1007.4106,-32.6038 1031.5315,-23.4329"/>
<polygon fill="#00ff00" stroke="#00ff00" stroke-width=".5505" points="1032.8033,-26.694 1040.9409,-19.9094 1030.3485,-20.1386 1032.8033,-26.694"/>
</g>
<!-- 151&#45;&gt;1 -->
<g id="edge36" class="edge">
<title>151&#45;&gt;1</title>
<path fill="none" stroke="#ff0000" stroke-width=".1267" d="M908.0726,-65.6803C908.0726,-57.713 908.0726,-48.5771 908.0726,-40.2679"/>
<polygon fill="#ff0000" stroke="#ff0000" stroke-width=".1267" points="911.5727,-39.9888 908.0726,-29.9888 904.5727,-39.9889 911.5727,-39.9888"/>
</g>
<!-- 151&#45;&gt;2 -->
<g id="edge37" class="edge">
<title>151&#45;&gt;2</title>
<path fill="none" stroke="#ff0000" stroke-width=".2083" d="M921.6875,-70.5596C930.7019,-59.7329 942.5634,-45.4867 952.0351,-34.1109"/>
<polygon fill="#ff0000" stroke="#ff0000" stroke-width=".2083" points="954.7257,-36.3493 958.4346,-26.4248 949.3463,-31.8703 954.7257,-36.3493"/>
</g>
<!-- 152&#45;&gt;0 -->
<g id="edge38" class="edge">
<title>152&#45;&gt;0</title>
<path fill="none" stroke="#00ff00" stroke-width=".1723" stroke-dasharray="1,5" d="M984.4366,-73.3573C998.9725,-61.3171 1020.2393,-43.7017 1035.6367,-30.948"/>
<polygon fill="#00ff00" stroke="#00ff00" stroke-width=".1723" points="1038.0384,-33.5035 1043.507,-24.429 1033.5731,-28.1126 1038.0384,-33.5035"/>
</g>
<!-- 152&#45;&gt;1 -->
<g id="edge39" class="edge">
<title>152&#45;&gt;1</title>
<path fill="none" stroke="#00ff00" stroke-width=".1856" d="M954.4576,-70.5596C945.4432,-59.7329 933.5817,-45.4867 924.1101,-34.1109"/>
<polygon fill="#00ff00" stroke="#00ff00" stroke-width=".1856" points="926.7989,-31.8703 917.7105,-26.4248 921.4194,-36.3493 926.7989,-31.8703"/>
</g>
<!-- 152&#45;&gt;2 -->
<g id="edge40" class="edge">
<title>152&#45;&gt;2</title>
<path fill="none" stroke="#00ff00" stroke-width=".1214" stroke-dasharray="1,5" d="M968.0726,-65.6803C968.0726,-57.713 968.0726,-48.5771 968.0726,-40.2679"/>
<polygon fill="#00ff00" stroke="#00ff00" stroke-width=".1214" points="971.5727,-39.9888 968.0726,-29.9888 964.5727,-39.9889 971.5727,-39.9888"/>
</g>
</g>
</svg>
