<?xml version="1.0" encoding="UTF-8" standalone="no"?>
<!DOCTYPE svg PUBLIC "-//W3C//DTD SVG 1.1//EN"
 "http://www.w3.org/Graphics/SVG/1.1/DTD/svg11.dtd">
<!-- Generated by graphviz version 2.40.1 (20161225.0304)
 -->
<!-- Title: %3 Pages: 1 -->
<svg width="1959pt" height="310pt"
 viewBox="0.00 0.00 1958.96 310.01" xmlns="http://www.w3.org/2000/svg" xmlns:xlink="http://www.w3.org/1999/xlink">
<g id="graph0" class="graph" transform="scale(1 1) rotate(0) translate(4 306.0071)">
<title>%3</title>
<polygon fill="#ffffff" stroke="transparent" points="-4,4 -4,-306.0071 1954.9583,-306.0071 1954.9583,4 -4,4"/>
<!-- num_lane_1 -->
<g id="node1" class="node">
<title>num_lane_1</title>
<polygon fill="#d3d3d3" stroke="#000000" points="1219.4806,-238.6224 1159.4806,-238.6224 1159.4806,-220.6224 1219.4806,-220.6224 1219.4806,-238.6224"/>
<text text-anchor="middle" x="1189.4806" y="-227.4224" font-family="Times,serif" font-size="9.00" fill="#000000">num_lane_1</text>
</g>
<!-- 0 -->
<g id="node18" class="node">
<title>0</title>
<ellipse fill="#add8e6" stroke="#000000" cx="1174.4806" cy="-84.0833" rx="14.7" ry="14.7"/>
<text text-anchor="middle" x="1174.4806" y="-81.8833" font-family="Times,serif" font-size="9.00" fill="#000000">0</text>
</g>
<!-- num_lane_1&#45;&gt;0 -->
<g id="edge40" class="edge">
<title>num_lane_1&#45;&gt;0</title>
<path fill="none" stroke="#ff0000" stroke-width=".2974" d="M1207.0624,-220.527C1213.9221,-217.2495 1221.938,-213.7452 1229.4806,-211.2376 1301.9428,-187.1472 1349.4737,-234.6215 1397.4806,-175.2376 1407.7545,-162.529 1407.5748,-151.3198 1397.4806,-138.468 1373.0642,-107.3814 1252.567,-91.8152 1199.5691,-86.3834"/>
<polygon fill="#ff0000" stroke="#ff0000" stroke-width=".2974" points="1199.6383,-82.8733 1189.3434,-85.3762 1198.9521,-89.8396 1199.6383,-82.8733"/>
</g>
<!-- 1 -->
<g id="node19" class="node">
<title>1</title>
<ellipse fill="#add8e6" stroke="#000000" cx="874.4806" cy="-14.8492" rx="14.7" ry="14.7"/>
<text text-anchor="middle" x="874.4806" y="-12.6492" font-family="Times,serif" font-size="9.00" fill="#000000">1</text>
</g>
<!-- num_lane_1&#45;&gt;1 -->
<g id="edge41" class="edge">
<title>num_lane_1&#45;&gt;1</title>
<path fill="none" stroke="#00ff00" stroke-width=".163" stroke-dasharray="1,5" d="M1197.0372,-220.5716C1218.6135,-193.6081 1276.3904,-112.7746 1235.4806,-65.6985 1213.3708,-40.2562 978.0905,-21.9467 899.7172,-16.5162"/>
<polygon fill="#00ff00" stroke="#00ff00" stroke-width=".163" points="899.5513,-12.9969 889.3365,-15.8091 899.0755,-19.9807 899.5513,-12.9969"/>
</g>
<!-- 2 -->
<g id="node20" class="node">
<title>2</title>
<ellipse fill="#add8e6" stroke="#000000" cx="831.4806" cy="-84.0833" rx="14.7" ry="14.7"/>
<text text-anchor="middle" x="831.4806" y="-81.8833" font-family="Times,serif" font-size="9.00" fill="#000000">2</text>
</g>
<!-- num_lane_1&#45;&gt;2 -->
<g id="edge42" class="edge">
<title>num_lane_1&#45;&gt;2</title>
<path fill="none" stroke="#00ff00" stroke-width=".4184" stroke-dasharray="1,5" d="M1181.0106,-220.4851C1163.3006,-201.9628 1120.2706,-159.9331 1075.4806,-138.468 1000.9971,-102.7727 902.4121,-90.0939 856.7215,-85.9373"/>
<polygon fill="#00ff00" stroke="#00ff00" stroke-width=".4184" points="856.8013,-82.4317 846.5415,-85.0749 856.2103,-89.4067 856.8013,-82.4317"/>
</g>
<!-- 22 -->
<g id="node26" class="node">
<title>22</title>
<ellipse fill="#ffffff" stroke="#000000" cx="957.4806" cy="-156.8528" rx="18.2703" ry="18.2703"/>
<text text-anchor="middle" x="957.4806" y="-154.6528" font-family="Times,serif" font-size="9.00" fill="#000000">22</text>
</g>
<!-- num_lane_1&#45;&gt;22 -->
<g id="edge1" class="edge">
<title>num_lane_1&#45;&gt;22</title>
<path fill="none" stroke="#00ff00" stroke-width=".3686" stroke-dasharray="1,5" d="M1171.8855,-220.569C1165.2769,-217.3715 1157.6328,-213.91 1150.4806,-211.2376 1093.1014,-189.7978 1023.4212,-172.1378 985.4572,-163.1903"/>
<polygon fill="#00ff00" stroke="#00ff00" stroke-width=".3686" points="986.1602,-159.7604 975.627,-160.9018 984.5729,-166.5781 986.1602,-159.7604"/>
</g>
<!-- 23 -->
<g id="node27" class="node">
<title>23</title>
<ellipse fill="#ffffff" stroke="#000000" cx="713.4806" cy="-156.8528" rx="18.2703" ry="18.2703"/>
<text text-anchor="middle" x="713.4806" y="-154.6528" font-family="Times,serif" font-size="9.00" fill="#000000">23</text>
</g>
<!-- num_lane_1&#45;&gt;23 -->
<g id="edge2" class="edge">
<title>num_lane_1&#45;&gt;23</title>
<path fill="none" stroke="#ff0000" stroke-width=".3836" d="M1173.2329,-220.55C1166.3996,-217.1123 1158.2452,-213.4885 1150.4806,-211.2376 1073.0994,-188.805 826.9323,-166.4472 742.3473,-159.2459"/>
<polygon fill="#ff0000" stroke="#ff0000" stroke-width=".3836" points="742.4427,-155.7416 732.1837,-158.3876 741.8536,-162.7168 742.4427,-155.7416"/>
</g>
<!-- num_lane_2 -->
<g id="node2" class="node">
<title>num_lane_2</title>
<polygon fill="#d3d3d3" stroke="#000000" points="630.4806,-302.0071 570.4806,-302.0071 570.4806,-284.0071 630.4806,-284.0071 630.4806,-302.0071"/>
<text text-anchor="middle" x="600.4806" y="-290.8071" font-family="Times,serif" font-size="9.00" fill="#000000">num_lane_2</text>
</g>
<!-- num_lane_2&#45;&gt;0 -->
<g id="edge43" class="edge">
<title>num_lane_2&#45;&gt;0</title>
<path fill="none" stroke="#00ff00" stroke-width=".1495" stroke-dasharray="1,5" d="M630.6476,-292.2549C798.4323,-288.0016 1609.7798,-266.5005 1627.4806,-248.0071 1757.1851,-112.495 1311.9211,-88.6073 1199.5932,-84.7682"/>
<polygon fill="#00ff00" stroke="#00ff00" stroke-width=".1495" points="1199.6189,-81.2673 1189.5128,-84.4479 1199.3966,-88.2638 1199.6189,-81.2673"/>
</g>
<!-- num_lane_2&#45;&gt;1 -->
<g id="edge44" class="edge">
<title>num_lane_2&#45;&gt;1</title>
<path fill="none" stroke="#ff0000" stroke-width=".145" stroke-dasharray="1,5" d="M570.2191,-292.3339C460.4857,-289.6528 87.6534,-278.3684 44.4806,-248.0071 2.8901,-218.7586 -12.4009,-183.3559 11.4806,-138.468 38.6658,-87.3704 64.726,-84.4584 119.4806,-65.6985 189.7581,-41.6201 725.2466,-20.3946 849.0092,-15.7777"/>
<polygon fill="#ff0000" stroke="#ff0000" stroke-width=".145" points="849.5061,-19.2618 859.3698,-15.3943 849.2472,-12.2666 849.5061,-19.2618"/>
</g>
<!-- num_lane_2&#45;&gt;2 -->
<g id="edge45" class="edge">
<title>num_lane_2&#45;&gt;2</title>
<path fill="none" stroke="#ff0000" stroke-width=".3902" stroke-dasharray="1,5" d="M570.1698,-292.2032C478.8449,-289.4584 207.5782,-278.8528 125.4806,-248.0071 63.4911,-224.7165 -21.1668,-186.4416 24.4806,-138.468 80.0015,-80.1179 668.657,-113.2153 748.4806,-102.468 768.3985,-99.7863 790.6109,-94.7557 807.0413,-90.6339"/>
<polygon fill="#ff0000" stroke="#ff0000" stroke-width=".3902" points="808.1096,-93.973 816.9212,-88.0903 806.3643,-87.1941 808.1096,-93.973"/>
</g>
<!-- 38 -->
<g id="node21" class="node">
<title>38</title>
<ellipse fill="#ffffff" stroke="#000000" cx="678.4806" cy="-229.6224" rx="18.2703" ry="18.2703"/>
<text text-anchor="middle" x="678.4806" y="-227.4224" font-family="Times,serif" font-size="9.00" fill="#000000">38</text>
</g>
<!-- num_lane_2&#45;&gt;38 -->
<g id="edge88" class="edge">
<title>num_lane_2&#45;&gt;38</title>
<path fill="none" stroke="#ff0000" stroke-width=".2722" d="M611.6561,-283.9256C623.2061,-274.5398 641.5497,-259.6333 656.0984,-247.8107"/>
<polygon fill="#ff0000" stroke="#ff0000" stroke-width=".2722" points="658.5924,-250.294 664.1458,-241.2712 654.1778,-244.8615 658.5924,-250.294"/>
</g>
<!-- 71 -->
<g id="node22" class="node">
<title>71</title>
<ellipse fill="#ffffff" stroke="#000000" cx="51.4806" cy="-156.8528" rx="18.2703" ry="18.2703"/>
<text text-anchor="middle" x="51.4806" y="-154.6528" font-family="Times,serif" font-size="9.00" fill="#000000">71</text>
</g>
<!-- num_lane_2&#45;&gt;71 -->
<g id="edge99" class="edge">
<title>num_lane_2&#45;&gt;71</title>
<path fill="none" stroke="#ff0000" stroke-width=".4273" stroke-dasharray="1,5" d="M570.4715,-291.2593C490.1317,-286.3182 271.6441,-271.0911 203.4806,-248.0071 153.5616,-231.1018 102.3979,-196.0127 74.0015,-174.6399"/>
<polygon fill="#ff0000" stroke="#ff0000" stroke-width=".4273" points="76.0166,-171.7749 65.9463,-168.4826 71.7656,-177.3363 76.0166,-171.7749"/>
</g>
<!-- num_lane_2&#45;&gt;22 -->
<g id="edge3" class="edge">
<title>num_lane_2&#45;&gt;22</title>
<path fill="none" stroke="#00ff00" stroke-width=".4029" d="M630.509,-290.63C706.6415,-284.3557 902.7974,-266.5531 925.4806,-248.0071 944.0568,-232.8191 951.8644,-206.1389 955.1379,-185.5543"/>
<polygon fill="#00ff00" stroke="#00ff00" stroke-width=".4029" points="958.6343,-185.8099 956.4694,-175.4386 951.6942,-184.8963 958.6343,-185.8099"/>
</g>
<!-- num_lane_2&#45;&gt;23 -->
<g id="edge4" class="edge">
<title>num_lane_2&#45;&gt;23</title>
<path fill="none" stroke="#00ff00" stroke-width=".5175" stroke-dasharray="1,5" d="M596.8462,-283.9937C590.9939,-267.888 581.5666,-233.7506 596.4806,-211.2376 619.1383,-177.0354 644.738,-193.4898 681.4806,-175.2376 683.9247,-174.0235 686.4413,-172.7044 688.9387,-171.349"/>
<polygon fill="#00ff00" stroke="#00ff00" stroke-width=".5175" points="690.7343,-174.3547 697.7355,-166.4027 687.3035,-168.2531 690.7343,-174.3547"/>
</g>
<!-- 59 -->
<g id="node28" class="node">
<title>59</title>
<ellipse fill="#ffffff" stroke="#000000" cx="623.4806" cy="-229.6224" rx="18.2703" ry="18.2703"/>
<text text-anchor="middle" x="623.4806" y="-227.4224" font-family="Times,serif" font-size="9.00" fill="#000000">59</text>
</g>
<!-- num_lane_2&#45;&gt;59 -->
<g id="edge94" class="edge">
<title>num_lane_2&#45;&gt;59</title>
<path fill="none" stroke="#00ff00" stroke-width=".2643" stroke-dasharray="1,5" d="M603.7759,-283.9256C606.3844,-276.7371 610.168,-266.31 613.7239,-256.5104"/>
<polygon fill="#00ff00" stroke="#00ff00" stroke-width=".2643" points="617.031,-257.6572 617.152,-247.0631 610.4508,-255.2695 617.031,-257.6572"/>
</g>
<!-- ego_velocity -->
<g id="node3" class="node">
<title>ego_velocity</title>
<polygon fill="#d3d3d3" stroke="#000000" points="501.4806,-238.6224 439.4806,-238.6224 439.4806,-220.6224 501.4806,-220.6224 501.4806,-238.6224"/>
<text text-anchor="middle" x="470.4806" y="-227.4224" font-family="Times,serif" font-size="9.00" fill="#000000">ego_velocity</text>
</g>
<!-- ego_velocity&#45;&gt;1 -->
<g id="edge46" class="edge">
<title>ego_velocity&#45;&gt;1</title>
<path fill="none" stroke="#ff0000" stroke-width=".1512" stroke-dasharray="1,5" d="M475.7741,-220.3128C492.4605,-191.8985 547.055,-105.7931 617.4806,-65.6985 657.1303,-43.1251 792.476,-24.7027 849.1737,-17.789"/>
<polygon fill="#ff0000" stroke="#ff0000" stroke-width=".1512" points="849.9005,-21.227 859.4129,-16.5619 849.0675,-14.2768 849.9005,-21.227"/>
</g>
<!-- ego_velocity&#45;&gt;2 -->
<g id="edge47" class="edge">
<title>ego_velocity&#45;&gt;2</title>
<path fill="none" stroke="#00ff00" stroke-width=".1417" d="M479.7841,-220.536C499.1962,-202.1077 546.1545,-160.2423 593.4806,-138.468 598.3968,-136.2061 747.022,-102.9227 806.8692,-89.5678"/>
<polygon fill="#00ff00" stroke="#00ff00" stroke-width=".1417" points="807.958,-92.911 816.9562,-87.318 806.4341,-86.0789 807.958,-92.911"/>
</g>
<!-- ego_velocity&#45;&gt;22 -->
<g id="edge5" class="edge">
<title>ego_velocity&#45;&gt;22</title>
<path fill="none" stroke="#00ff00" stroke-width=".1846" d="M487.1666,-220.548C494.1785,-217.11 502.5386,-213.4865 510.4806,-211.2376 590.008,-188.7177 843.1336,-166.2952 928.8135,-159.174"/>
<polygon fill="#00ff00" stroke="#00ff00" stroke-width=".1846" points="929.1829,-162.6555 938.8614,-158.3455 928.6076,-155.6792 929.1829,-162.6555"/>
</g>
<!-- ego_velocity&#45;&gt;23 -->
<g id="edge6" class="edge">
<title>ego_velocity&#45;&gt;23</title>
<path fill="none" stroke="#00ff00" stroke-width=".1264" stroke-dasharray="1,5" d="M488.5297,-220.5402C495.3081,-217.3396 503.1477,-213.8835 510.4806,-211.2376 518.8461,-208.2191 632.251,-178.2442 685.8206,-164.1307"/>
<polygon fill="#00ff00" stroke="#00ff00" stroke-width=".1264" points="686.9089,-167.4635 695.6878,-161.5321 685.1262,-160.6943 686.9089,-167.4635"/>
</g>
<!-- dx1 -->
<g id="node4" class="node">
<title>dx1</title>
<polygon fill="#d3d3d3" stroke="#000000" points="379.4806,-238.6224 349.4806,-238.6224 349.4806,-220.6224 379.4806,-220.6224 379.4806,-238.6224"/>
<text text-anchor="middle" x="364.4806" y="-227.4224" font-family="Times,serif" font-size="9.00" fill="#000000">dx1</text>
</g>
<!-- dx1&#45;&gt;0 -->
<g id="edge48" class="edge">
<title>dx1&#45;&gt;0</title>
<path fill="none" stroke="#00ff00" stroke-width=".6831" stroke-dasharray="1,5" d="M375.9469,-220.2893C379.8363,-217.2733 384.2652,-213.9978 388.4806,-211.2376 416.1085,-193.147 424.8309,-191.6621 453.4806,-175.2376 481.2742,-159.3039 484.9592,-148.2052 515.4806,-138.468 576.8036,-118.9044 1036.4923,-91.8771 1149.4621,-85.48"/>
<polygon fill="#00ff00" stroke="#00ff00" stroke-width=".6831" points="1149.7796,-88.9678 1159.5668,-84.9106 1149.3857,-81.9789 1149.7796,-88.9678"/>
</g>
<!-- dx1&#45;&gt;1 -->
<g id="edge49" class="edge">
<title>dx1&#45;&gt;1</title>
<path fill="none" stroke="#00ff00" stroke-width=".1703" stroke-dasharray="1,5" d="M367.1917,-220.4892C372.7132,-203.0406 386.6212,-164.3987 408.4806,-138.468 444.3732,-95.8906 458.7497,-86.3148 510.4806,-65.6985 572.6526,-40.921 777.3529,-22.6064 849.2462,-16.8005"/>
<polygon fill="#00ff00" stroke="#00ff00" stroke-width=".1703" points="849.9112,-20.2588 859.6022,-15.977 849.3562,-13.2808 849.9112,-20.2588"/>
</g>
<!-- dx1&#45;&gt;2 -->
<g id="edge50" class="edge">
<title>dx1&#45;&gt;2</title>
<path fill="none" stroke="#00ff00" stroke-width=".2583" stroke-dasharray="1,5" d="M371.1808,-220.419C385.6147,-201.3861 421.7391,-157.86 463.4806,-138.468 579.2686,-84.6761 622.6873,-124.2967 748.4806,-102.468 768.2823,-99.0319 790.5021,-94.0495 806.9649,-90.138"/>
<polygon fill="#00ff00" stroke="#00ff00" stroke-width=".2583" points="807.9681,-93.4965 816.8687,-87.7493 806.3268,-86.6916 807.9681,-93.4965"/>
</g>
<!-- dx1&#45;&gt;22 -->
<g id="edge7" class="edge">
<title>dx1&#45;&gt;22</title>
<path fill="none" stroke="#ff0000" stroke-width=".17" d="M373.9803,-220.3722C378.1091,-216.9072 383.2049,-213.3111 388.4806,-211.2376 401.2303,-206.2265 815.5495,-169.3778 929.0046,-159.3604"/>
<polygon fill="#ff0000" stroke="#ff0000" stroke-width=".17" points="929.3676,-162.842 939.0213,-158.4767 928.7523,-155.8691 929.3676,-162.842"/>
</g>
<!-- dx1&#45;&gt;23 -->
<g id="edge8" class="edge">
<title>dx1&#45;&gt;23</title>
<path fill="none" stroke="#00ff00" stroke-width=".2028" d="M374.0569,-220.5573C378.1974,-217.1207 383.2812,-213.4958 388.4806,-211.2376 441.8997,-188.0363 615.9306,-167.3389 684.9269,-159.8388"/>
<polygon fill="#00ff00" stroke="#00ff00" stroke-width=".2028" points="685.495,-163.298 695.064,-158.75 684.7474,-156.338 685.495,-163.298"/>
</g>
<!-- dy1 -->
<g id="node5" class="node">
<title>dy1</title>
<polygon fill="#d3d3d3" stroke="#000000" points="549.4806,-238.6224 519.4806,-238.6224 519.4806,-220.6224 549.4806,-220.6224 549.4806,-238.6224"/>
<text text-anchor="middle" x="534.4806" y="-227.4224" font-family="Times,serif" font-size="9.00" fill="#000000">dy1</text>
</g>
<!-- dy1&#45;&gt;0 -->
<g id="edge51" class="edge">
<title>dy1&#45;&gt;0</title>
<path fill="none" stroke="#ff0000" stroke-width=".6005" d="M549.5669,-223.4962C571.2057,-214.404 611.9227,-196.1453 643.4806,-175.2376 664.443,-161.3496 663.4113,-148.4732 686.4806,-138.468 771.231,-101.7116 1062.2492,-88.2118 1149.5374,-84.9351"/>
<polygon fill="#ff0000" stroke="#ff0000" stroke-width=".6005" points="1149.7211,-88.4308 1159.5873,-84.5697 1149.4667,-81.4354 1149.7211,-88.4308"/>
</g>
<!-- dy1&#45;&gt;1 -->
<g id="edge52" class="edge">
<title>dy1&#45;&gt;1</title>
<path fill="none" stroke="#00ff00" stroke-width=".4299" stroke-dasharray="1,5" d="M538.9887,-220.4393C553.2567,-192.3891 600.3597,-107.2203 665.4806,-65.6985 696.1443,-46.1469 801.1276,-26.9119 849.5934,-18.8291"/>
<polygon fill="#00ff00" stroke="#00ff00" stroke-width=".4299" points="850.2631,-22.2661 859.5635,-17.1913 849.1283,-15.3587 850.2631,-22.2661"/>
</g>
<!-- dy1&#45;&gt;2 -->
<g id="edge53" class="edge">
<title>dy1&#45;&gt;2</title>
<path fill="none" stroke="#00ff00" stroke-width=".4152" d="M543.8437,-220.5161C562.929,-202.4197 608.3534,-161.6811 653.4806,-138.468 704.7803,-112.0799 771.0987,-96.0473 806.5384,-88.7604"/>
<polygon fill="#00ff00" stroke="#00ff00" stroke-width=".4152" points="807.3709,-92.1634 816.4948,-86.778 806.0039,-85.2982 807.3709,-92.1634"/>
</g>
<!-- dy1&#45;&gt;22 -->
<g id="edge9" class="edge">
<title>dy1&#45;&gt;22</title>
<path fill="none" stroke="#ff0000" stroke-width=".3743" d="M549.6138,-224.4935C562.0731,-220.4268 580.2609,-214.8459 596.4806,-211.2376 718.7535,-184.0365 867.3894,-166.4212 928.8095,-159.8029"/>
<polygon fill="#ff0000" stroke="#ff0000" stroke-width=".3743" points="929.3309,-163.2672 938.9049,-158.73 928.591,-156.3064 929.3309,-163.2672"/>
</g>
<!-- dy1&#45;&gt;23 -->
<g id="edge10" class="edge">
<title>dy1&#45;&gt;23</title>
<path fill="none" stroke="#ff0000" stroke-width=".1933" stroke-dasharray="1,5" d="M547.0525,-220.6116C552.0043,-217.3446 557.8468,-213.8252 563.4806,-211.2376 613.307,-188.3521 631.1678,-197.0331 681.4806,-175.2376 683.9848,-174.1528 686.5415,-172.92 689.064,-171.6185"/>
<polygon fill="#ff0000" stroke="#ff0000" stroke-width=".1933" points="690.8304,-174.6414 697.8948,-166.7455 687.4483,-168.5126 690.8304,-174.6414"/>
</g>
<!-- dx2 -->
<g id="node6" class="node">
<title>dx2</title>
<polygon fill="#d3d3d3" stroke="#000000" points="830.4806,-238.6224 800.4806,-238.6224 800.4806,-220.6224 830.4806,-220.6224 830.4806,-238.6224"/>
<text text-anchor="middle" x="815.4806" y="-227.4224" font-family="Times,serif" font-size="9.00" fill="#000000">dx2</text>
</g>
<!-- dx2&#45;&gt;0 -->
<g id="edge54" class="edge">
<title>dx2&#45;&gt;0</title>
<path fill="none" stroke="#ff0000" stroke-width=".1548" stroke-dasharray="1,5" d="M827.8842,-220.6072C842.3719,-209.9964 866.9703,-191.7281 887.4806,-175.2376 907.0775,-159.4814 907.9867,-149.7074 930.4806,-138.468 1004.5452,-101.4608 1103.7221,-89.408 1149.4547,-85.6686"/>
<polygon fill="#ff0000" stroke="#ff0000" stroke-width=".1548" points="1149.9233,-89.1433 1159.6329,-84.9038 1149.3987,-82.163 1149.9233,-89.1433"/>
</g>
<!-- dx2&#45;&gt;1 -->
<g id="edge55" class="edge">
<title>dx2&#45;&gt;1</title>
<path fill="none" stroke="#ff0000" stroke-width=".3712" d="M805.2336,-220.602C801.1548,-217.3338 796.2918,-213.8161 791.4806,-211.2376 747.9985,-187.9335 715.155,-215.3818 686.4806,-175.2376 674.0604,-157.8494 682.2046,-80.1998 694.4806,-65.6985 714.5422,-42.0003 805.0737,-25.3328 849.5983,-18.416"/>
<polygon fill="#ff0000" stroke="#ff0000" stroke-width=".3712" points="850.2424,-21.8585 859.6082,-16.9055 849.1979,-14.9369 850.2424,-21.8585"/>
</g>
<!-- dx2&#45;&gt;22 -->
<g id="edge11" class="edge">
<title>dx2&#45;&gt;22</title>
<path fill="none" stroke="#00ff00" stroke-width=".5457" d="M830.5764,-222.5259C851.9146,-212.4122 892.0276,-193.0948 925.4806,-175.2376 927.8881,-173.9525 930.3804,-172.586 932.8625,-171.2009"/>
<polygon fill="#00ff00" stroke="#00ff00" stroke-width=".5457" points="934.6731,-174.1977 941.6385,-166.2144 931.2149,-168.1116 934.6731,-174.1977"/>
</g>
<!-- dx2&#45;&gt;23 -->
<g id="edge12" class="edge">
<title>dx2&#45;&gt;23</title>
<path fill="none" stroke="#00ff00" stroke-width=".4732" d="M803.8411,-220.5395C799.9401,-217.5401 795.5482,-214.2113 791.4806,-211.2376 773.5447,-198.1251 752.9093,-183.7685 737.37,-173.1"/>
<polygon fill="#00ff00" stroke="#00ff00" stroke-width=".4732" points="739.0978,-170.0413 728.8685,-167.282 735.1444,-175.8181 739.0978,-170.0413"/>
</g>
<!-- dy2 -->
<g id="node7" class="node">
<title>dy2</title>
<polygon fill="#d3d3d3" stroke="#000000" points="782.4806,-238.6224 752.4806,-238.6224 752.4806,-220.6224 782.4806,-220.6224 782.4806,-238.6224"/>
<text text-anchor="middle" x="767.4806" y="-227.4224" font-family="Times,serif" font-size="9.00" fill="#000000">dy2</text>
</g>
<!-- dy2&#45;&gt;0 -->
<g id="edge56" class="edge">
<title>dy2&#45;&gt;0</title>
<path fill="none" stroke="#00ff00" stroke-width=".2011" d="M776.443,-220.3776C795.171,-201.6571 840.616,-159.2809 887.4806,-138.468 978.1579,-98.1976 1097.8619,-87.7156 1149.2653,-85.0115"/>
<polygon fill="#00ff00" stroke="#00ff00" stroke-width=".2011" points="1149.6143,-88.499 1159.4389,-84.5332 1149.2855,-81.5067 1149.6143,-88.499"/>
</g>
<!-- dy2&#45;&gt;1 -->
<g id="edge57" class="edge">
<title>dy2&#45;&gt;1</title>
<path fill="none" stroke="#00ff00" stroke-width=".3327" d="M752.3456,-225.7588C730.7905,-219.3485 692.0305,-204.2462 675.4806,-175.2376 666.4254,-159.3657 665.2177,-82.1305 678.4806,-65.6985 699.8864,-39.178 801.3051,-23.6606 849.252,-17.6926"/>
<polygon fill="#00ff00" stroke="#00ff00" stroke-width=".3327" points="849.9089,-21.139 859.4201,-16.4711 849.074,-14.1889 849.9089,-21.139"/>
</g>
<!-- dy2&#45;&gt;2 -->
<g id="edge58" class="edge">
<title>dy2&#45;&gt;2</title>
<path fill="none" stroke="#ff0000" stroke-width=".2851" stroke-dasharray="1,5" d="M767.4728,-220.5918C767.7931,-203.6419 770.1056,-166.2671 783.4806,-138.468 790.442,-123.9991 802.3756,-110.4524 812.6019,-100.4983"/>
<polygon fill="#ff0000" stroke="#ff0000" stroke-width=".2851" points="815.0442,-103.0066 819.9786,-93.6309 810.2745,-97.8832 815.0442,-103.0066"/>
</g>
<!-- dy2&#45;&gt;22 -->
<g id="edge13" class="edge">
<title>dy2&#45;&gt;22</title>
<path fill="none" stroke="#ff0000" stroke-width=".1103" d="M777.7091,-220.5671C781.7855,-217.2946 786.6518,-213.7831 791.4806,-211.2376 815.8511,-198.3904 889.241,-176.386 929.7967,-164.6932"/>
<polygon fill="#ff0000" stroke="#ff0000" stroke-width=".1103" points="930.9387,-168.0068 939.5873,-161.8869 929.0099,-161.2778 930.9387,-168.0068"/>
</g>
<!-- dy2&#45;&gt;23 -->
<g id="edge14" class="edge">
<title>dy2&#45;&gt;23</title>
<path fill="none" stroke="#ff0000" stroke-width=".3511" d="M760.6415,-220.4061C753.1207,-210.2712 740.7513,-193.6024 730.5671,-179.8783"/>
<polygon fill="#ff0000" stroke="#ff0000" stroke-width=".3511" points="733.3411,-177.7432 724.5713,-171.7984 727.7198,-181.9146 733.3411,-177.7432"/>
</g>
<!-- &#45;8 -->
<g id="node8" class="node">
<title>&#45;8</title>
<polygon fill="#d3d3d3" stroke="#000000" points="1618.4806,-238.6224 1594.4806,-238.6224 1594.4806,-220.6224 1618.4806,-220.6224 1618.4806,-238.6224"/>
<text text-anchor="middle" x="1606.4806" y="-227.4224" font-family="Times,serif" font-size="9.00" fill="#000000">&#45;8</text>
</g>
<!-- &#45;8&#45;&gt;0 -->
<g id="edge59" class="edge">
<title>&#45;8&#45;&gt;0</title>
<path fill="none" stroke="#ff0000" stroke-width=".8214" d="M1596.2577,-220.3939C1574.9485,-201.7035 1523.5091,-159.3799 1472.4806,-138.468 1376.6205,-99.1839 1251.8381,-88.1552 1199.4036,-85.1582"/>
<polygon fill="#ff0000" stroke="#ff0000" stroke-width=".8214" points="1199.5181,-81.6595 1189.3492,-84.6332 1199.1531,-88.6499 1199.5181,-81.6595"/>
</g>
<!-- &#45;8&#45;&gt;1 -->
<g id="edge60" class="edge">
<title>&#45;8&#45;&gt;1</title>
<path fill="none" stroke="#00ff00" stroke-width=".1476" d="M1618.634,-228.4975C1674.9683,-223.1637 1908.8253,-199.6614 1929.4806,-175.2376 1951.895,-148.7337 1912.742,-71.9088 1904.4806,-65.6985 1863.0753,-34.5732 1054.5636,-18.1637 899.9232,-15.3035"/>
<polygon fill="#00ff00" stroke="#00ff00" stroke-width=".1476" points="899.6266,-11.7976 889.5642,-15.1142 899.4986,-18.7964 899.6266,-11.7976"/>
</g>
<!-- &#45;8&#45;&gt;2 -->
<g id="edge61" class="edge">
<title>&#45;8&#45;&gt;2</title>
<path fill="none" stroke="#00ff00" stroke-width=".2596" d="M1594.209,-225.4575C1551.4689,-211.1105 1404.9745,-163.2631 1280.4806,-138.468 1120.7253,-106.6501 925.0394,-90.6867 856.5637,-85.7762"/>
<polygon fill="#00ff00" stroke="#00ff00" stroke-width=".2596" points="856.5591,-82.2674 846.3384,-85.0581 856.0686,-89.2502 856.5591,-82.2674"/>
</g>
<!-- &#45;8&#45;&gt;22 -->
<g id="edge15" class="edge">
<title>&#45;8&#45;&gt;22</title>
<path fill="none" stroke="#ff0000" stroke-width=".1804" stroke-dasharray="1,5" d="M1594.4772,-227.1683C1575.3123,-223.3206 1536.5859,-215.8338 1503.4806,-211.2376 1306.5748,-183.8997 1067.8722,-164.9929 986.3618,-158.9379"/>
<polygon fill="#ff0000" stroke="#ff0000" stroke-width=".1804" points="986.1543,-155.4132 975.9243,-158.1692 985.6402,-162.3943 986.1543,-155.4132"/>
</g>
<!-- &#45;9 -->
<g id="node9" class="node">
<title>&#45;9</title>
<polygon fill="#d3d3d3" stroke="#000000" points="421.4806,-238.6224 397.4806,-238.6224 397.4806,-220.6224 421.4806,-220.6224 421.4806,-238.6224"/>
<text text-anchor="middle" x="409.4806" y="-227.4224" font-family="Times,serif" font-size="9.00" fill="#000000">&#45;9</text>
</g>
<!-- &#45;9&#45;&gt;0 -->
<g id="edge62" class="edge">
<title>&#45;9&#45;&gt;0</title>
<path fill="none" stroke="#00ff00" stroke-width=".2292" d="M418.2849,-220.5423C421.8339,-217.2668 426.1177,-213.7597 430.4806,-211.2376 473.7849,-186.2039 594.6196,-149.1706 643.4806,-138.468 835.0228,-96.5123 1072.6919,-86.7588 1149.3816,-84.6375"/>
<polygon fill="#00ff00" stroke="#00ff00" stroke-width=".2292" points="1149.5972,-88.1332 1159.5038,-84.377 1149.417,-81.1355 1149.5972,-88.1332"/>
</g>
<!-- &#45;9&#45;&gt;1 -->
<g id="edge63" class="edge">
<title>&#45;9&#45;&gt;1</title>
<path fill="none" stroke="#00ff00" stroke-width=".3652" d="M414.9454,-220.6137C432.6376,-192.3253 491.5146,-104.8314 565.4806,-65.6985 614.9971,-39.5009 785.0288,-22.5301 849.4607,-16.9074"/>
<polygon fill="#00ff00" stroke="#00ff00" stroke-width=".3652" points="849.8735,-20.385 859.5391,-16.0459 849.2773,-13.4104 849.8735,-20.385"/>
</g>
<!-- &#45;9&#45;&gt;2 -->
<g id="edge64" class="edge">
<title>&#45;9&#45;&gt;2</title>
<path fill="none" stroke="#00ff00" stroke-width=".6507" d="M418.2714,-220.5179C437.0693,-201.6724 483.3926,-158.4811 531.4806,-138.468 621.7387,-100.9047 652.4994,-121.0459 748.4806,-102.468 768.212,-98.6489 790.4363,-93.6909 806.9187,-89.8862"/>
<polygon fill="#00ff00" stroke="#00ff00" stroke-width=".6507" points="807.8916,-93.2534 816.8369,-87.5761 806.3036,-86.4359 807.8916,-93.2534"/>
</g>
<!-- &#45;9&#45;&gt;22 -->
<g id="edge16" class="edge">
<title>&#45;9&#45;&gt;22</title>
<path fill="none" stroke="#ff0000" stroke-width=".1499" d="M417.6111,-220.3893C421.1959,-216.927 425.6831,-213.3282 430.4806,-211.2376 453.5612,-201.1796 822.7565,-168.5358 929.0535,-159.3048"/>
<polygon fill="#ff0000" stroke="#ff0000" stroke-width=".1499" points="929.39,-162.7889 939.0504,-158.4385 928.7855,-155.815 929.39,-162.7889"/>
</g>
<!-- &#45;9&#45;&gt;23 -->
<g id="edge17" class="edge">
<title>&#45;9&#45;&gt;23</title>
<path fill="none" stroke="#ff0000" stroke-width=".2645" d="M417.6813,-220.5435C421.2769,-217.1049 425.7531,-213.4821 430.4806,-211.2376 517.2112,-170.0603 549.6235,-195.4521 643.4806,-175.2376 657.6313,-172.1899 673.2218,-168.1621 686.0906,-164.6534"/>
<polygon fill="#ff0000" stroke="#ff0000" stroke-width=".2645" points="687.0446,-168.0211 695.748,-161.9796 685.1767,-161.2749 687.0446,-168.0211"/>
</g>
<!-- &#45;10 -->
<g id="node10" class="node">
<title>&#45;10</title>
<polygon fill="#d3d3d3" stroke="#000000" points="1493.9806,-238.6224 1464.9806,-238.6224 1464.9806,-220.6224 1493.9806,-220.6224 1493.9806,-238.6224"/>
<text text-anchor="middle" x="1479.4806" y="-227.4224" font-family="Times,serif" font-size="9.00" fill="#000000">&#45;10</text>
</g>
<!-- &#45;10&#45;&gt;0 -->
<g id="edge65" class="edge">
<title>&#45;10&#45;&gt;0</title>
<path fill="none" stroke="#ff0000" stroke-width=".2805" d="M1479.2312,-220.5056C1478.2035,-202.0212 1473.1232,-160.0578 1448.4806,-138.468 1411.3929,-105.9749 1260.3485,-90.7881 1199.7815,-85.9153"/>
<polygon fill="#ff0000" stroke="#ff0000" stroke-width=".2805" points="1199.8138,-82.4074 1189.573,-85.1236 1199.2725,-89.3864 1199.8138,-82.4074"/>
</g>
<!-- &#45;10&#45;&gt;1 -->
<g id="edge66" class="edge">
<title>&#45;10&#45;&gt;1</title>
<path fill="none" stroke="#ff0000" stroke-width=".1514" stroke-dasharray="1,5" d="M1494.1823,-226.775C1514.6059,-222.8875 1552.748,-215.8734 1585.4806,-211.2376 1657.864,-200.9861 1863.6974,-229.6861 1912.4806,-175.2376 1940.2194,-144.2774 1886.8232,-71.3104 1878.4806,-65.6985 1836.627,-37.5443 1051.3804,-18.7673 899.7164,-15.3952"/>
<polygon fill="#ff0000" stroke="#ff0000" stroke-width=".1514" points="899.6168,-11.8922 889.5421,-15.1711 899.4625,-18.8905 899.6168,-11.8922"/>
</g>
<!-- &#45;10&#45;&gt;2 -->
<g id="edge67" class="edge">
<title>&#45;10&#45;&gt;2</title>
<path fill="none" stroke="#00ff00" stroke-width=".5625" d="M1464.9032,-224.3069C1416.4923,-206.7167 1261.213,-150.8127 1209.4806,-138.468 1078.6476,-107.2481 917.7888,-91.3557 856.6583,-86.1041"/>
<polygon fill="#00ff00" stroke="#00ff00" stroke-width=".5625" points="856.6919,-82.5947 846.4342,-85.246 856.1064,-89.5701 856.6919,-82.5947"/>
</g>
<!-- 76 -->
<g id="node24" class="node">
<title>76</title>
<ellipse fill="#ffffff" stroke="#000000" cx="1885.4806" cy="-156.8528" rx="18.2703" ry="18.2703"/>
<text text-anchor="middle" x="1885.4806" y="-154.6528" font-family="Times,serif" font-size="9.00" fill="#000000">76</text>
</g>
<!-- &#45;10&#45;&gt;76 -->
<g id="edge101" class="edge">
<title>&#45;10&#45;&gt;76</title>
<path fill="none" stroke="#00ff00" stroke-width=".3215" d="M1494.1987,-226.8865C1514.6415,-223.1285 1552.8057,-216.2639 1585.4806,-211.2376 1704.2644,-192.9654 1739.6874,-213.8973 1853.4806,-175.2376 1856.0646,-174.3597 1858.6746,-173.265 1861.2304,-172.0499"/>
<polygon fill="#00ff00" stroke="#00ff00" stroke-width=".3215" points="1862.9449,-175.1021 1870.1064,-167.2942 1859.6389,-168.932 1862.9449,-175.1021"/>
</g>
<!-- &#45;10&#45;&gt;22 -->
<g id="edge18" class="edge">
<title>&#45;10&#45;&gt;22</title>
<path fill="none" stroke="#ff0000" stroke-width=".3126" d="M1464.9745,-227.6001C1393.9436,-217.6981 1082.3565,-174.2612 985.9862,-160.8266"/>
<polygon fill="#ff0000" stroke="#ff0000" stroke-width=".3126" points="986.2166,-157.325 975.8291,-159.4107 985.25,-164.258 986.2166,-157.325"/>
</g>
<!-- &#45;10&#45;&gt;23 -->
<g id="edge19" class="edge">
<title>&#45;10&#45;&gt;23</title>
<path fill="none" stroke="#00ff00" stroke-width=".162" d="M1464.8709,-227.7603C1437.2715,-224.2738 1375.5623,-216.6271 1323.4806,-211.2376 1208.1863,-199.3067 846.7986,-168.2489 742.1433,-159.2993"/>
<polygon fill="#00ff00" stroke="#00ff00" stroke-width=".162" points="742.2809,-155.7983 732.0192,-158.434 741.6848,-162.7729 742.2809,-155.7983"/>
</g>
<!-- &#45;11 -->
<g id="node11" class="node">
<title>&#45;11</title>
<polygon fill="#d3d3d3" stroke="#000000" points="240.9806,-238.6224 211.9806,-238.6224 211.9806,-220.6224 240.9806,-220.6224 240.9806,-238.6224"/>
<text text-anchor="middle" x="226.4806" y="-227.4224" font-family="Times,serif" font-size="9.00" fill="#000000">&#45;11</text>
</g>
<!-- &#45;11&#45;&gt;0 -->
<g id="edge68" class="edge">
<title>&#45;11&#45;&gt;0</title>
<path fill="none" stroke="#ff0000" stroke-width=".2344" stroke-dasharray="1,5" d="M241.3648,-224.9136C268.8276,-216.09 329.1685,-196.0698 378.4806,-175.2376 412.678,-160.7907 417.6582,-148.211 453.4806,-138.468 521.8288,-119.8787 1030.1032,-91.794 1149.4487,-85.407"/>
<polygon fill="#ff0000" stroke="#ff0000" stroke-width=".2344" points="1149.6642,-88.9005 1159.4638,-84.8732 1149.2916,-81.9105 1149.6642,-88.9005"/>
</g>
<!-- &#45;11&#45;&gt;1 -->
<g id="edge69" class="edge">
<title>&#45;11&#45;&gt;1</title>
<path fill="none" stroke="#ff0000" stroke-width=".2238" d="M211.6462,-228.5044C156.6486,-223.831 -29.6979,-203.0002 24.4806,-138.468 79.2724,-73.2054 713.8518,-25.9341 849.1905,-16.5546"/>
<polygon fill="#ff0000" stroke="#ff0000" stroke-width=".2238" points="849.6602,-20.0306 859.3969,-15.8538 849.1806,-13.0471 849.6602,-20.0306"/>
</g>
<!-- &#45;11&#45;&gt;2 -->
<g id="edge70" class="edge">
<title>&#45;11&#45;&gt;2</title>
<path fill="none" stroke="#ff0000" stroke-width=".3264" stroke-dasharray="1,5" d="M240.3798,-220.4469C269.9085,-201.4669 341.6697,-158.0353 408.4806,-138.468 554.3107,-95.758 598.5079,-126.9378 748.4806,-102.468 768.3159,-99.2317 790.5336,-94.2365 806.987,-90.2693"/>
<polygon fill="#ff0000" stroke="#ff0000" stroke-width=".3264" points="808.0068,-93.623 816.8839,-87.8396 806.3377,-86.8248 808.0068,-93.623"/>
</g>
<!-- 41 -->
<g id="node23" class="node">
<title>41</title>
<ellipse fill="#ffffff" stroke="#000000" cx="721.4806" cy="-84.0833" rx="18.2703" ry="18.2703"/>
<text text-anchor="middle" x="721.4806" y="-81.8833" font-family="Times,serif" font-size="9.00" fill="#000000">41</text>
</g>
<!-- &#45;11&#45;&gt;41 -->
<g id="edge97" class="edge">
<title>&#45;11&#45;&gt;41</title>
<path fill="none" stroke="#00ff00" stroke-width=".198" stroke-dasharray="1,5" d="M211.6728,-226.965C187.7608,-221.7881 141.3233,-207.8615 121.4806,-175.2376 112.9884,-161.2753 110.4589,-150.5339 121.4806,-138.468 160.4329,-95.8254 578.8167,-86.2816 692.8938,-84.4655"/>
<polygon fill="#00ff00" stroke="#00ff00" stroke-width=".198" points="693.0148,-87.9641 702.9606,-84.313 692.9087,-80.9649 693.0148,-87.9641"/>
</g>
<!-- &#45;11&#45;&gt;22 -->
<g id="edge20" class="edge">
<title>&#45;11&#45;&gt;22</title>
<path fill="none" stroke="#ff0000" stroke-width=".4051" d="M241.1891,-226.9026C262.8593,-222.9747 304.6719,-215.6973 340.4806,-211.2376 370.069,-207.5526 811.6418,-169.4201 929.0111,-159.3046"/>
<polygon fill="#ff0000" stroke="#ff0000" stroke-width=".4051" points="929.3705,-162.7867 939.0331,-158.4411 928.7695,-155.8126 929.3705,-162.7867"/>
</g>
<!-- &#45;11&#45;&gt;23 -->
<g id="edge21" class="edge">
<title>&#45;11&#45;&gt;23</title>
<path fill="none" stroke="#00ff00" stroke-width=".3399" d="M241.2265,-227.1713C262.9432,-223.5781 304.8132,-216.7135 340.4806,-211.2376 468.9278,-191.5174 622.5374,-169.6676 684.9865,-160.8576"/>
<polygon fill="#00ff00" stroke="#00ff00" stroke-width=".3399" points="685.8102,-164.2762 695.224,-159.415 684.8334,-157.3447 685.8102,-164.2762"/>
</g>
<!-- &#45;12 -->
<g id="node12" class="node">
<title>&#45;12</title>
<polygon fill="#d3d3d3" stroke="#000000" points="1140.9806,-238.6224 1111.9806,-238.6224 1111.9806,-220.6224 1140.9806,-220.6224 1140.9806,-238.6224"/>
<text text-anchor="middle" x="1126.4806" y="-227.4224" font-family="Times,serif" font-size="9.00" fill="#000000">&#45;12</text>
</g>
<!-- &#45;12&#45;&gt;0 -->
<g id="edge71" class="edge">
<title>&#45;12&#45;&gt;0</title>
<path fill="none" stroke="#00ff00" stroke-width=".3391" stroke-dasharray="1,5" d="M1136.5699,-220.2847C1140.6292,-216.9775 1145.5202,-213.5161 1150.4806,-211.2376 1221.0572,-178.8193 1272.5452,-235.5479 1321.4806,-175.2376 1359.0171,-128.9758 1250.0936,-99.6724 1199.1673,-88.8262"/>
<polygon fill="#00ff00" stroke="#00ff00" stroke-width=".3391" points="1199.7535,-85.3736 1189.254,-86.7924 1198.3466,-92.2308 1199.7535,-85.3736"/>
</g>
<!-- &#45;12&#45;&gt;1 -->
<g id="edge72" class="edge">
<title>&#45;12&#45;&gt;1</title>
<path fill="none" stroke="#ff0000" stroke-width=".1373" d="M1138.847,-220.2592C1172.3855,-193.7808 1259.6681,-116.9637 1215.4806,-65.6985 1194.7619,-41.6611 974.36,-22.5538 899.3281,-16.7039"/>
<polygon fill="#ff0000" stroke="#ff0000" stroke-width=".1373" points="899.5923,-13.214 889.3536,-15.938 899.0563,-20.1934 899.5923,-13.214"/>
</g>
<!-- &#45;12&#45;&gt;2 -->
<g id="edge73" class="edge">
<title>&#45;12&#45;&gt;2</title>
<path fill="none" stroke="#ff0000" stroke-width=".1219" stroke-dasharray="1,5" d="M1120.6675,-220.5223C1108.3893,-202.0686 1077.9249,-160.1588 1041.4806,-138.468 981.3016,-102.651 897.7479,-90.1726 856.5283,-86.0255"/>
<polygon fill="#ff0000" stroke="#ff0000" stroke-width=".1219" points="856.5881,-82.5163 846.309,-85.0834 855.9454,-89.4867 856.5881,-82.5163"/>
</g>
<!-- &#45;12&#45;&gt;22 -->
<g id="edge22" class="edge">
<title>&#45;12&#45;&gt;22</title>
<path fill="none" stroke="#ff0000" stroke-width=".4934" d="M1116.2222,-220.269C1112.4108,-217.1139 1107.9283,-213.7574 1103.4806,-211.2376 1064.7448,-189.2921 1015.4659,-173.0846 985.2135,-164.3085"/>
<polygon fill="#ff0000" stroke="#ff0000" stroke-width=".4934" points="985.9302,-160.8739 975.3549,-161.517 984.023,-167.6091 985.9302,-160.8739"/>
</g>
<!-- &#45;12&#45;&gt;23 -->
<g id="edge23" class="edge">
<title>&#45;12&#45;&gt;23</title>
<path fill="none" stroke="#00ff00" stroke-width=".2155" stroke-dasharray="1,5" d="M1117.392,-220.4816C1113.4376,-217.0334 1108.5517,-213.4203 1103.4806,-211.2376 1038.1098,-183.1012 821.0986,-164.758 742.3488,-158.8896"/>
<polygon fill="#00ff00" stroke="#00ff00" stroke-width=".2155" points="742.4137,-155.3851 732.1846,-158.1446 741.902,-162.3664 742.4137,-155.3851"/>
</g>
<!-- &#45;13 -->
<g id="node13" class="node">
<title>&#45;13</title>
<polygon fill="#d3d3d3" stroke="#000000" points="1019.9806,-302.0071 990.9806,-302.0071 990.9806,-284.0071 1019.9806,-284.0071 1019.9806,-302.0071"/>
<text text-anchor="middle" x="1005.4806" y="-290.8071" font-family="Times,serif" font-size="9.00" fill="#000000">&#45;13</text>
</g>
<!-- &#45;13&#45;&gt;0 -->
<g id="edge74" class="edge">
<title>&#45;13&#45;&gt;0</title>
<path fill="none" stroke="#ff0000" stroke-width=".3159" stroke-dasharray="1,5" d="M1019.9966,-292.7208C1123.8373,-290.6038 1750.4464,-276.663 1777.4806,-248.0071 1810.8888,-212.5949 1810.3229,-174.4057 1777.4806,-138.468 1737.8903,-95.1464 1308.4613,-86.0212 1199.5013,-84.3977"/>
<polygon fill="#ff0000" stroke="#ff0000" stroke-width=".3159" points="1199.4862,-80.8973 1189.4378,-84.2559 1199.3875,-87.8966 1199.4862,-80.8973"/>
</g>
<!-- &#45;13&#45;&gt;1 -->
<g id="edge75" class="edge">
<title>&#45;13&#45;&gt;1</title>
<path fill="none" stroke="#ff0000" stroke-width=".4519" d="M1020.0457,-292.5405C1121.6846,-289.2371 1723.1624,-268.9088 1801.4806,-248.0071 1871.147,-229.4145 1908.6185,-236.6017 1946.4806,-175.2376 1955.0618,-161.3299 1948.5618,-154.677 1946.4806,-138.468 1942.2237,-105.3139 1953.4335,-86.7641 1927.4806,-65.6985 1886.2819,-32.258 1055.4121,-17.673 899.5571,-15.2263"/>
<polygon fill="#ff0000" stroke="#ff0000" stroke-width=".4519" points="899.5752,-11.7263 889.5222,-15.071 899.4668,-18.7254 899.5752,-11.7263"/>
</g>
<!-- &#45;13&#45;&gt;2 -->
<g id="edge76" class="edge">
<title>&#45;13&#45;&gt;2</title>
<path fill="none" stroke="#00ff00" stroke-width=".3283" stroke-dasharray="1,5" d="M990.7455,-291.8729C964.564,-289.0772 909.7562,-279.5847 878.4806,-248.0071 841.0974,-210.263 833.029,-144.8949 831.5466,-109.1714"/>
<polygon fill="#00ff00" stroke="#00ff00" stroke-width=".3283" points="835.0433,-109.0011 831.2728,-99.0999 828.0459,-109.1913 835.0433,-109.0011"/>
</g>
<!-- 50 -->
<g id="node25" class="node">
<title>50</title>
<ellipse fill="#ffffff" stroke="#000000" cx="1028.4806" cy="-229.6224" rx="18.2703" ry="18.2703"/>
<text text-anchor="middle" x="1028.4806" y="-227.4224" font-family="Times,serif" font-size="9.00" fill="#000000">50</text>
</g>
<!-- &#45;13&#45;&gt;50 -->
<g id="edge92" class="edge">
<title>&#45;13&#45;&gt;50</title>
<path fill="none" stroke="#00ff00" stroke-width=".307" stroke-dasharray="1,5" d="M1008.7759,-283.9256C1011.3844,-276.7371 1015.168,-266.31 1018.7239,-256.5104"/>
<polygon fill="#00ff00" stroke="#00ff00" stroke-width=".307" points="1022.031,-257.6572 1022.152,-247.0631 1015.4508,-255.2695 1022.031,-257.6572"/>
</g>
<!-- &#45;13&#45;&gt;22 -->
<g id="edge24" class="edge">
<title>&#45;13&#45;&gt;22</title>
<path fill="none" stroke="#ff0000" stroke-width=".247" stroke-dasharray="1,5" d="M1002.1814,-283.6487C995.0643,-263.4608 978.036,-215.1592 967.1709,-184.3399"/>
<polygon fill="#ff0000" stroke="#ff0000" stroke-width=".247" points="970.3715,-182.8916 963.7457,-174.6242 963.7698,-185.219 970.3715,-182.8916"/>
</g>
<!-- &#45;13&#45;&gt;23 -->
<g id="edge25" class="edge">
<title>&#45;13&#45;&gt;23</title>
<path fill="none" stroke="#ff0000" stroke-width=".3014" d="M990.7113,-292.4227C941.0569,-290.169 781.1453,-280.4777 743.4806,-248.0071 725.4281,-232.4442 718.1834,-205.8081 715.3047,-185.3353"/>
<polygon fill="#ff0000" stroke="#ff0000" stroke-width=".3014" points="718.7692,-184.8237 714.1632,-175.2825 711.8139,-185.6136 718.7692,-184.8237"/>
</g>
<!-- &#45;14 -->
<g id="node14" class="node">
<title>&#45;14</title>
<polygon fill="#d3d3d3" stroke="#000000" points="1266.9806,-238.6224 1237.9806,-238.6224 1237.9806,-220.6224 1266.9806,-220.6224 1266.9806,-238.6224"/>
<text text-anchor="middle" x="1252.4806" y="-227.4224" font-family="Times,serif" font-size="9.00" fill="#000000">&#45;14</text>
</g>
<!-- &#45;14&#45;&gt;0 -->
<g id="edge77" class="edge">
<title>&#45;14&#45;&gt;0</title>
<path fill="none" stroke="#00ff00" stroke-width=".1649" d="M1262.6288,-220.4091C1266.6954,-217.1171 1271.576,-213.6337 1276.4806,-211.2376 1333.4335,-183.4142 1375.7275,-225.3971 1414.4806,-175.2376 1424.4718,-162.3056 1424.6796,-151.2368 1414.4806,-138.468 1387.7338,-104.9823 1255.5082,-90.5799 1199.5565,-85.916"/>
<polygon fill="#00ff00" stroke="#00ff00" stroke-width=".1649" points="1199.6833,-82.4151 1189.437,-85.1103 1199.1277,-89.393 1199.6833,-82.4151"/>
</g>
<!-- &#45;14&#45;&gt;1 -->
<g id="edge78" class="edge">
<title>&#45;14&#45;&gt;1</title>
<path fill="none" stroke="#00ff00" stroke-width=".3298" stroke-dasharray="1,5" d="M1256.4762,-220.3967C1267.6753,-192.9446 1296.0527,-110.8872 1256.4806,-65.6985 1232.9063,-38.7782 981.9513,-21.3398 900.1206,-16.3361"/>
<polygon fill="#00ff00" stroke="#00ff00" stroke-width=".3298" points="899.9294,-12.8185 889.7376,-15.7129 899.5099,-19.8059 899.9294,-12.8185"/>
</g>
<!-- &#45;14&#45;&gt;2 -->
<g id="edge79" class="edge">
<title>&#45;14&#45;&gt;2</title>
<path fill="none" stroke="#00ff00" stroke-width=".1639" d="M1241.9983,-220.3762C1220.1559,-201.653 1167.4665,-159.2721 1115.4806,-138.468 1024.512,-102.0636 907.172,-89.5571 856.5508,-85.6693"/>
<polygon fill="#00ff00" stroke="#00ff00" stroke-width=".1639" points="856.7479,-82.1746 846.5222,-84.9467 856.2447,-89.1564 856.7479,-82.1746"/>
</g>
<!-- &#45;14&#45;&gt;22 -->
<g id="edge26" class="edge">
<title>&#45;14&#45;&gt;22</title>
<path fill="none" stroke="#00ff00" stroke-width=".3767" d="M1242.4026,-220.2599C1238.3447,-216.9496 1233.4517,-213.4926 1228.4806,-211.2376 1145.8328,-173.7462 1037.3957,-161.9677 986.3802,-158.3723"/>
<polygon fill="#00ff00" stroke="#00ff00" stroke-width=".3767" points="986.3163,-154.8609 976.1107,-157.7061 985.8631,-161.8462 986.3163,-154.8609"/>
</g>
<!-- &#45;14&#45;&gt;23 -->
<g id="edge27" class="edge">
<title>&#45;14&#45;&gt;23</title>
<path fill="none" stroke="#00ff00" stroke-width=".5336" d="M1242.9705,-220.3984C1238.8402,-216.9374 1233.746,-213.3373 1228.4806,-211.2376 1205.6949,-202.1513 847.3642,-169.0223 742.2506,-159.4558"/>
<polygon fill="#00ff00" stroke="#00ff00" stroke-width=".5336" points="742.3441,-155.9499 732.0684,-158.5308 741.7107,-162.9212 742.3441,-155.9499"/>
</g>
<!-- &#45;15 -->
<g id="node15" class="node">
<title>&#45;15</title>
<polygon fill="#d3d3d3" stroke="#000000" points="915.9806,-238.6224 886.9806,-238.6224 886.9806,-220.6224 915.9806,-220.6224 915.9806,-238.6224"/>
<text text-anchor="middle" x="901.4806" y="-227.4224" font-family="Times,serif" font-size="9.00" fill="#000000">&#45;15</text>
</g>
<!-- &#45;15&#45;&gt;0 -->
<g id="edge80" class="edge">
<title>&#45;15&#45;&gt;0</title>
<path fill="none" stroke="#00ff00" stroke-width=".4819" stroke-dasharray="1,5" d="M916.1583,-221.7976C961.3039,-197.73 1098.3031,-124.6943 1152.2815,-95.9178"/>
<polygon fill="#00ff00" stroke="#00ff00" stroke-width=".4819" points="1154.1757,-98.8744 1161.3535,-91.0814 1150.8826,-92.6973 1154.1757,-98.8744"/>
</g>
<!-- &#45;15&#45;&gt;2 -->
<g id="edge81" class="edge">
<title>&#45;15&#45;&gt;2</title>
<path fill="none" stroke="#00ff00" stroke-width=".3254" stroke-dasharray="1,5" d="M897.1018,-220.5182C886.306,-198.0724 858.1546,-139.5421 842.4583,-106.9073"/>
<polygon fill="#00ff00" stroke="#00ff00" stroke-width=".3254" points="845.5084,-105.174 838.0198,-97.6792 839.2002,-108.2081 845.5084,-105.174"/>
</g>
<!-- &#45;15&#45;&gt;22 -->
<g id="edge28" class="edge">
<title>&#45;15&#45;&gt;22</title>
<path fill="none" stroke="#ff0000" stroke-width=".2502" d="M908.573,-220.4061C916.4211,-210.2079 929.3604,-193.3938 939.959,-179.6214"/>
<polygon fill="#ff0000" stroke="#ff0000" stroke-width=".2502" points="942.8642,-181.585 946.1892,-171.5255 937.3167,-177.3159 942.8642,-181.585"/>
</g>
<!-- &#45;15&#45;&gt;23 -->
<g id="edge29" class="edge">
<title>&#45;15&#45;&gt;23</title>
<path fill="none" stroke="#00ff00" stroke-width=".164" stroke-dasharray="1,5" d="M886.7285,-223.9123C855.1284,-211.6807 780.5138,-182.7995 740.2896,-167.2298"/>
<polygon fill="#00ff00" stroke="#00ff00" stroke-width=".164" points="741.4404,-163.9223 730.8512,-163.5765 738.9135,-170.4503 741.4404,-163.9223"/>
</g>
<!-- &#45;16 -->
<g id="node16" class="node">
<title>&#45;16</title>
<polygon fill="#d3d3d3" stroke="#000000" points="1313.9806,-238.6224 1284.9806,-238.6224 1284.9806,-220.6224 1313.9806,-220.6224 1313.9806,-238.6224"/>
<text text-anchor="middle" x="1299.4806" y="-227.4224" font-family="Times,serif" font-size="9.00" fill="#000000">&#45;16</text>
</g>
<!-- &#45;16&#45;&gt;0 -->
<g id="edge82" class="edge">
<title>&#45;16&#45;&gt;0</title>
<path fill="none" stroke="#ff0000" stroke-width="1.1761" d="M1314.2503,-228.6284C1342.7178,-225.8229 1404.7289,-215.1927 1431.4806,-175.2376 1440.5725,-161.6583 1441.7707,-151.1635 1431.4806,-138.468 1402.4117,-102.604 1258.5894,-89.4518 1199.6943,-85.5188"/>
<polygon fill="#ff0000" stroke="#ff0000" stroke-width="1.1761" points="1199.6197,-82.0072 1189.4189,-84.8697 1199.1782,-88.9933 1199.6197,-82.0072"/>
</g>
<!-- &#45;16&#45;&gt;1 -->
<g id="edge83" class="edge">
<title>&#45;16&#45;&gt;1</title>
<path fill="none" stroke="#00ff00" stroke-width=".2029" stroke-dasharray="1,5" d="M1301.6487,-220.5671C1307.6834,-192.8846 1321.5386,-108.6616 1278.4806,-65.6985 1251.5414,-38.8187 984.0843,-21.1815 899.7881,-16.2562"/>
<polygon fill="#00ff00" stroke="#00ff00" stroke-width=".2029" points="899.7642,-12.7492 889.58,-15.67 899.3628,-19.7377 899.7642,-12.7492"/>
</g>
<!-- &#45;16&#45;&gt;2 -->
<g id="edge84" class="edge">
<title>&#45;16&#45;&gt;2</title>
<path fill="none" stroke="#00ff00" stroke-width=".1788" stroke-dasharray="1,5" d="M1289.3799,-220.5341C1267.8371,-201.7193 1215.0431,-158.5828 1162.4806,-138.468 1053.872,-96.9055 913.3037,-87.0928 856.7171,-84.7868"/>
<polygon fill="#00ff00" stroke="#00ff00" stroke-width=".1788" points="856.6741,-81.2831 846.5539,-84.4186 856.4205,-88.2785 856.6741,-81.2831"/>
</g>
<!-- &#45;16&#45;&gt;22 -->
<g id="edge30" class="edge">
<title>&#45;16&#45;&gt;22</title>
<path fill="none" stroke="#ff0000" stroke-width=".3922" stroke-dasharray="1,5" d="M1290.3582,-220.5584C1286.3987,-217.122 1281.5181,-213.4969 1276.4806,-211.2376 1224.4161,-187.887 1054.1271,-167.3514 986.0139,-159.8654"/>
<polygon fill="#ff0000" stroke="#ff0000" stroke-width=".3922" points="986.3125,-156.3774 975.9932,-158.7776 985.557,-163.3365 986.3125,-156.3774"/>
</g>
<!-- &#45;16&#45;&gt;23 -->
<g id="edge31" class="edge">
<title>&#45;16&#45;&gt;23</title>
<path fill="none" stroke="#ff0000" stroke-width=".4831" d="M1290.4371,-220.3737C1286.4896,-216.909 1281.5967,-213.3126 1276.4806,-211.2376 1263.9324,-206.1481 854.8282,-169.4354 742.0297,-159.3886"/>
<polygon fill="#ff0000" stroke="#ff0000" stroke-width=".4831" points="742.3329,-155.9018 732.062,-158.5015 741.7124,-162.8743 742.3329,-155.9018"/>
</g>
<!-- &#45;17 -->
<g id="node17" class="node">
<title>&#45;17</title>
<polygon fill="#d3d3d3" stroke="#000000" points="1093.9806,-238.6224 1064.9806,-238.6224 1064.9806,-220.6224 1093.9806,-220.6224 1093.9806,-238.6224"/>
<text text-anchor="middle" x="1079.4806" y="-227.4224" font-family="Times,serif" font-size="9.00" fill="#000000">&#45;17</text>
</g>
<!-- &#45;17&#45;&gt;0 -->
<g id="edge85" class="edge">
<title>&#45;17&#45;&gt;0</title>
<path fill="none" stroke="#ff0000" stroke-width=".6865" stroke-dasharray="1,5" d="M1085.4233,-220.5182C1100.2857,-197.7491 1139.3856,-137.8485 1160.4922,-105.5134"/>
<polygon fill="#ff0000" stroke="#ff0000" stroke-width=".6865" points="1163.6408,-107.0928 1166.176,-96.8058 1157.7791,-103.2666 1163.6408,-107.0928"/>
</g>
<!-- &#45;17&#45;&gt;1 -->
<g id="edge86" class="edge">
<title>&#45;17&#45;&gt;1</title>
<path fill="none" stroke="#ff0000" stroke-width=".2567" stroke-dasharray="1,5" d="M1090.7952,-220.5265C1103.4497,-210.1333 1124.2926,-192.3447 1140.4806,-175.2376 1168.9071,-145.1971 1184.8261,-141.5072 1198.4806,-102.468 1203.876,-87.0424 1209.1026,-78.1176 1198.4806,-65.6985 1178.9875,-42.9075 972.1321,-23.1893 899.5105,-16.9227"/>
<polygon fill="#ff0000" stroke="#ff0000" stroke-width=".2567" points="899.6919,-13.4256 889.4312,-16.0653 899.0985,-20.4004 899.6919,-13.4256"/>
</g>
<!-- &#45;17&#45;&gt;2 -->
<g id="edge87" class="edge">
<title>&#45;17&#45;&gt;2</title>
<path fill="none" stroke="#00ff00" stroke-width=".4186" d="M1075.1451,-220.6146C1065.8851,-202.3312 1042.3909,-160.719 1010.4806,-138.468 962.434,-104.9653 893.2488,-91.676 856.5522,-86.7472"/>
<polygon fill="#00ff00" stroke="#00ff00" stroke-width=".4186" points="856.6205,-83.229 846.266,-85.4729 855.7598,-90.1759 856.6205,-83.229"/>
</g>
<!-- &#45;17&#45;&gt;22 -->
<g id="edge32" class="edge">
<title>&#45;17&#45;&gt;22</title>
<path fill="none" stroke="#00ff00" stroke-width=".1006" stroke-dasharray="1,5" d="M1068.013,-220.2914C1064.1234,-217.2755 1059.6949,-213.9996 1055.4806,-211.2376 1031.8447,-195.7467 1003.4854,-180.3285 983.3694,-169.8863"/>
<polygon fill="#00ff00" stroke="#00ff00" stroke-width=".1006" points="984.7074,-166.6388 974.2133,-165.1814 981.508,-172.8649 984.7074,-166.6388"/>
</g>
<!-- &#45;17&#45;&gt;23 -->
<g id="edge33" class="edge">
<title>&#45;17&#45;&gt;23</title>
<path fill="none" stroke="#00ff00" stroke-width=".2287" d="M1069.9134,-220.5362C1065.7744,-217.0964 1060.6891,-213.4747 1055.4806,-211.2376 998.8648,-186.9201 813.6531,-166.6777 742.0743,-159.5748"/>
<polygon fill="#00ff00" stroke="#00ff00" stroke-width=".2287" points="742.2757,-156.0778 731.982,-158.586 741.5931,-163.0445 742.2757,-156.0778"/>
</g>
<!-- 38&#45;&gt;23 -->
<g id="edge89" class="edge">
<title>38&#45;&gt;23</title>
<path fill="none" stroke="#ff0000" stroke-width=".2776" stroke-dasharray="1,5" d="M686.5983,-212.7447C690.8832,-203.8357 696.2336,-192.7116 701.0304,-182.7384"/>
<polygon fill="#ff0000" stroke="#ff0000" stroke-width=".2776" points="704.2266,-184.1679 705.4069,-173.639 697.9183,-181.1338 704.2266,-184.1679"/>
</g>
<!-- 71&#45;&gt;2 -->
<g id="edge100" class="edge">
<title>71&#45;&gt;2</title>
<path fill="none" stroke="#ff0000" stroke-width=".6909" d="M69.1105,-151.1764C83.1417,-146.9143 103.3617,-141.3381 121.4806,-138.468 397.169,-94.7986 471.9959,-140.7736 748.4806,-102.468 768.388,-99.71 790.6011,-94.6843 807.0344,-90.5837"/>
<polygon fill="#ff0000" stroke="#ff0000" stroke-width=".6909" points="808.0959,-93.9249 816.9165,-88.0557 806.361,-87.1433 808.0959,-93.9249"/>
</g>
<!-- 41&#45;&gt;1 -->
<g id="edge91" class="edge">
<title>41&#45;&gt;1</title>
<path fill="none" stroke="#ff0000" stroke-width=".7178" stroke-dasharray="1,5" d="M738.4389,-76.4095C765.9594,-63.9561 820.3849,-39.3281 851.4053,-25.2911"/>
<polygon fill="#ff0000" stroke="#ff0000" stroke-width=".7178" points="852.923,-28.446 860.5907,-21.1346 850.0371,-22.0686 852.923,-28.446"/>
</g>
<!-- 76&#45;&gt;1 -->
<g id="edge102" class="edge">
<title>76&#45;&gt;1</title>
<path fill="none" stroke="#ff0000" stroke-width=".1591" d="M1884.7677,-138.3102C1882.8501,-116.9687 1876.173,-82.6837 1853.4806,-65.6985 1814.1424,-36.254 1048.8698,-18.5488 899.5991,-15.3681"/>
<polygon fill="#ff0000" stroke="#ff0000" stroke-width=".1591" points="899.6425,-11.8683 889.5709,-15.1566 899.4948,-18.8667 899.6425,-11.8683"/>
</g>
<!-- 50&#45;&gt;2 -->
<g id="edge93" class="edge">
<title>50&#45;&gt;2</title>
<path fill="none" stroke="#00ff00" stroke-width=".6798" d="M1024.2468,-211.7032C1018.5364,-191.2797 1006.4539,-158.1841 984.4806,-138.468 947.7204,-105.4841 889.6178,-92.175 856.6007,-87.0593"/>
<polygon fill="#00ff00" stroke="#00ff00" stroke-width=".6798" points="856.8239,-83.5561 846.4324,-85.6219 855.8441,-90.4872 856.8239,-83.5561"/>
</g>
<!-- 50&#45;&gt;22 -->
<g id="edge96" class="edge">
<title>50&#45;&gt;22</title>
<path fill="none" stroke="#00ff00" stroke-width=".1452" d="M1015.4581,-216.2753C1004.8493,-205.4021 989.6908,-189.8658 977.5343,-177.4063"/>
<polygon fill="#00ff00" stroke="#00ff00" stroke-width=".1452" points="979.9092,-174.8286 970.4205,-170.1153 974.8989,-179.7171 979.9092,-174.8286"/>
</g>
<!-- 22&#45;&gt;0 -->
<g id="edge34" class="edge">
<title>22&#45;&gt;0</title>
<path fill="none" stroke="#00ff00" stroke-width=".5792" stroke-dasharray="1,5" d="M975.2386,-150.8978C1014.1282,-137.8564 1106.8431,-106.7651 1150.7053,-92.0561"/>
<polygon fill="#00ff00" stroke="#00ff00" stroke-width=".5792" points="1151.8914,-95.35 1160.2596,-88.8522 1149.6657,-88.7133 1151.8914,-95.35"/>
</g>
<!-- 22&#45;&gt;1 -->
<g id="edge35" class="edge">
<title>22&#45;&gt;1</title>
<path fill="none" stroke="#00ff00" stroke-width=".2962" d="M948.1208,-140.8392C933.1895,-115.2936 903.9561,-65.2785 887.1613,-36.5445"/>
<polygon fill="#00ff00" stroke="#00ff00" stroke-width=".2962" points="890.0491,-34.5492 881.9812,-27.6819 884.0057,-38.0815 890.0491,-34.5492"/>
</g>
<!-- 22&#45;&gt;2 -->
<g id="edge36" class="edge">
<title>22&#45;&gt;2</title>
<path fill="none" stroke="#ff0000" stroke-width=".5391" stroke-dasharray="1,5" d="M941.5226,-147.6365C919.2094,-134.7498 878.605,-111.2993 853.4487,-96.7707"/>
<polygon fill="#ff0000" stroke="#ff0000" stroke-width=".5391" points="855.0441,-93.6503 844.6341,-91.6799 851.5432,-99.712 855.0441,-93.6503"/>
</g>
<!-- 22&#45;&gt;41 -->
<g id="edge98" class="edge">
<title>22&#45;&gt;41</title>
<path fill="none" stroke="#00ff00" stroke-width=".4371" d="M939.7422,-151.3833C898.8104,-138.7621 797.5362,-107.5347 748.6898,-92.4731"/>
<polygon fill="#00ff00" stroke="#00ff00" stroke-width=".4371" points="749.6902,-89.119 739.1029,-89.517 747.6276,-95.8083 749.6902,-89.119"/>
</g>
<!-- 23&#45;&gt;0 -->
<g id="edge37" class="edge">
<title>23&#45;&gt;0</title>
<path fill="none" stroke="#00ff00" stroke-width=".2928" d="M731.8368,-153.9553C803.7963,-142.5963 1066.7567,-101.0876 1149.4281,-88.0378"/>
<polygon fill="#00ff00" stroke="#00ff00" stroke-width=".2928" points="1150.1076,-91.474 1159.4396,-86.4575 1149.0161,-84.5596 1150.1076,-91.474"/>
</g>
<!-- 23&#45;&gt;1 -->
<g id="edge38" class="edge">
<title>23&#45;&gt;1</title>
<path fill="none" stroke="#00ff00" stroke-width=".3684" d="M726.3903,-143.3481C744.0812,-125.0755 777.1291,-91.7662 807.4806,-65.6985 822.5653,-52.7428 840.5593,-39.1826 854.0994,-29.3267"/>
<polygon fill="#00ff00" stroke="#00ff00" stroke-width=".3684" points="856.2148,-32.1164 862.2787,-23.4285 852.1205,-26.4387 856.2148,-32.1164"/>
</g>
<!-- 23&#45;&gt;2 -->
<g id="edge39" class="edge">
<title>23&#45;&gt;2</title>
<path fill="none" stroke="#ff0000" stroke-width=".2671" d="M729.3946,-147.0388C750.1838,-134.2183 786.6655,-111.7203 809.9216,-97.3785"/>
<polygon fill="#ff0000" stroke="#ff0000" stroke-width=".2671" points="812.0308,-100.1898 818.7053,-91.9617 808.3565,-94.2317 812.0308,-100.1898"/>
</g>
<!-- 23&#45;&gt;41 -->
<g id="edge90" class="edge">
<title>23&#45;&gt;41</title>
<path fill="none" stroke="#ff0000" stroke-width=".2961" d="M715.4993,-138.49C716.3615,-130.6474 717.388,-121.3103 718.3451,-112.6041"/>
<polygon fill="#ff0000" stroke="#ff0000" stroke-width=".2961" points="721.8487,-112.7628 719.4625,-102.4402 714.8906,-111.9978 721.8487,-112.7628"/>
</g>
<!-- 59&#45;&gt;23 -->
<g id="edge95" class="edge">
<title>59&#45;&gt;23</title>
<path fill="none" stroke="#ff0000" stroke-width=".6404" d="M637.9407,-217.9307C652.2426,-206.3668 674.3373,-188.5022 690.9432,-175.0754"/>
<polygon fill="#ff0000" stroke="#ff0000" stroke-width=".6404" points="693.4809,-177.5246 699.0564,-168.5155 689.0796,-172.0813 693.4809,-177.5246"/>
</g>
</g>
</svg>
