<?xml version="1.0" encoding="UTF-8" standalone="no"?>
<!DOCTYPE svg PUBLIC "-//W3C//DTD SVG 1.1//EN"
 "http://www.w3.org/Graphics/SVG/1.1/DTD/svg11.dtd">
<!-- Generated by graphviz version 2.40.1 (20161225.0304)
 -->
<!-- Title: %3 Pages: 1 -->
<svg width="1993pt" height="170pt"
 viewBox="0.00 0.00 1992.53 170.12" xmlns="http://www.w3.org/2000/svg" xmlns:xlink="http://www.w3.org/1999/xlink">
<g id="graph0" class="graph" transform="scale(1 1) rotate(0) translate(4 166.1249)">
<title>%3</title>
<polygon fill="#ffffff" stroke="transparent" points="-4,4 -4,-166.1249 1988.5344,-166.1249 1988.5344,4 -4,4"/>
<!-- num_lane_1 -->
<g id="node1" class="node">
<title>num_lane_1</title>
<polygon fill="#d3d3d3" stroke="#000000" points="420.072,-162.1249 360.072,-162.1249 360.072,-144.1249 420.072,-144.1249 420.072,-162.1249"/>
<text text-anchor="middle" x="390.072" y="-150.9249" font-family="Times,serif" font-size="9.00" fill="#000000">num_lane_1</text>
</g>
<!-- 0 -->
<g id="node17" class="node">
<title>0</title>
<ellipse fill="#add8e6" stroke="#000000" cx="1132.072" cy="-14.8492" rx="14.7" ry="14.7"/>
<text text-anchor="middle" x="1132.072" y="-12.6492" font-family="Times,serif" font-size="9.00" fill="#000000">0</text>
</g>
<!-- num_lane_1&#45;&gt;0 -->
<g id="edge57" class="edge">
<title>num_lane_1&#45;&gt;0</title>
<path fill="none" stroke="#ff0000" stroke-width=".3345" d="M406.1134,-144.0192C439.3814,-125.6234 518.8201,-84.2099 591.072,-65.6985 760.982,-22.1665 809.4762,-46.4538 984.072,-29.6985 1027.1516,-25.5643 1077.2547,-20.4791 1106.7231,-17.4599"/>
<polygon fill="#ff0000" stroke="#ff0000" stroke-width=".3345" points="1107.3589,-20.9131 1116.9492,-16.4102 1106.644,-13.9497 1107.3589,-20.9131"/>
</g>
<!-- 1 -->
<g id="node18" class="node">
<title>1</title>
<ellipse fill="#add8e6" stroke="#000000" cx="960.072" cy="-14.8492" rx="14.7" ry="14.7"/>
<text text-anchor="middle" x="960.072" y="-12.6492" font-family="Times,serif" font-size="9.00" fill="#000000">1</text>
</g>
<!-- num_lane_1&#45;&gt;1 -->
<g id="edge58" class="edge">
<title>num_lane_1&#45;&gt;1</title>
<path fill="none" stroke="#ff0000" stroke-width=".6227" d="M407.098,-144.002C441.9921,-125.7621 524.6159,-84.9027 599.072,-65.6985 741.9333,-28.8507 787.187,-70.1431 929.072,-29.6985 931.9773,-28.8703 934.9459,-27.789 937.839,-26.587"/>
<polygon fill="#ff0000" stroke="#ff0000" stroke-width=".6227" points="939.6004,-29.6275 947.1834,-22.2283 936.6413,-23.2837 939.6004,-29.6275"/>
</g>
<!-- 2 -->
<g id="node19" class="node">
<title>2</title>
<ellipse fill="#add8e6" stroke="#000000" cx="905.072" cy="-14.8492" rx="14.7" ry="14.7"/>
<text text-anchor="middle" x="905.072" y="-12.6492" font-family="Times,serif" font-size="9.00" fill="#000000">2</text>
</g>
<!-- num_lane_1&#45;&gt;2 -->
<g id="edge59" class="edge">
<title>num_lane_1&#45;&gt;2</title>
<path fill="none" stroke="#ff0000" stroke-width=".1825" d="M359.7248,-148.0846C308.4086,-139.2584 209.0643,-120.745 199.072,-108.1249 187.3669,-93.3416 186.2265,-79.5024 199.072,-65.6985 222.765,-40.2376 756.8046,-20.038 879.916,-15.7094"/>
<polygon fill="#ff0000" stroke="#ff0000" stroke-width=".1825" points="880.0425,-19.2072 889.9146,-15.3612 879.7988,-12.2115 880.0425,-19.2072"/>
</g>
<!-- 36 -->
<g id="node20" class="node">
<title>36</title>
<ellipse fill="#ffffff" stroke="#000000" cx="960.072" cy="-86.9117" rx="18.2703" ry="18.2703"/>
<text text-anchor="middle" x="960.072" y="-84.7117" font-family="Times,serif" font-size="9.00" fill="#000000">36</text>
</g>
<!-- num_lane_1&#45;&gt;36 -->
<g id="edge1" class="edge">
<title>num_lane_1&#45;&gt;36</title>
<path fill="none" stroke="#00ff00" stroke-width=".2181" d="M420.3954,-150.2925C439.9863,-148.4813 466.031,-146.1084 489.072,-144.1249 587.477,-135.6537 839.7997,-143.3547 932.072,-108.1249 933.9949,-107.3907 935.8975,-106.4814 937.7516,-105.4559"/>
<polygon fill="#00ff00" stroke="#00ff00" stroke-width=".2181" points="940.1085,-108.0913 946.489,-99.6332 936.2266,-102.2663 940.1085,-108.0913"/>
</g>
<!-- 37 -->
<g id="node21" class="node">
<title>37</title>
<ellipse fill="#ffffff" stroke="#000000" cx="1052.072" cy="-86.9117" rx="18.2703" ry="18.2703"/>
<text text-anchor="middle" x="1052.072" y="-84.7117" font-family="Times,serif" font-size="9.00" fill="#000000">37</text>
</g>
<!-- num_lane_1&#45;&gt;37 -->
<g id="edge2" class="edge">
<title>num_lane_1&#45;&gt;37</title>
<path fill="none" stroke="#00ff00" stroke-width=".133" d="M420.3895,-150.2224C439.9781,-148.3833 466.0224,-146.0056 489.072,-144.1249 710.2479,-126.0787 769.3159,-150.865 987.072,-108.1249 999.9551,-105.5963 1013.8389,-101.293 1025.454,-97.2205"/>
<polygon fill="#00ff00" stroke="#00ff00" stroke-width=".133" points="1026.793,-100.4579 1034.995,-93.7514 1024.401,-93.8792 1026.793,-100.4579"/>
</g>
<!-- 38 -->
<g id="node22" class="node">
<title>38</title>
<ellipse fill="#ffffff" stroke="#000000" cx="905.072" cy="-86.9117" rx="18.2703" ry="18.2703"/>
<text text-anchor="middle" x="905.072" y="-84.7117" font-family="Times,serif" font-size="9.00" fill="#000000">38</text>
</g>
<!-- num_lane_1&#45;&gt;38 -->
<g id="edge3" class="edge">
<title>num_lane_1&#45;&gt;38</title>
<path fill="none" stroke="#ff0000" stroke-width=".1567" d="M420.3649,-149.2302C512.3571,-137.4028 787.6184,-102.0126 876.8274,-90.5431"/>
<polygon fill="#ff0000" stroke="#ff0000" stroke-width=".1567" points="877.2874,-94.0128 886.7594,-89.2661 876.3947,-87.07 877.2874,-94.0128"/>
</g>
<!-- num_lane_2 -->
<g id="node2" class="node">
<title>num_lane_2</title>
<polygon fill="#d3d3d3" stroke="#000000" points="1234.072,-162.1249 1174.072,-162.1249 1174.072,-144.1249 1234.072,-144.1249 1234.072,-162.1249"/>
<text text-anchor="middle" x="1204.072" y="-150.9249" font-family="Times,serif" font-size="9.00" fill="#000000">num_lane_2</text>
</g>
<!-- num_lane_2&#45;&gt;0 -->
<g id="edge60" class="edge">
<title>num_lane_2&#45;&gt;0</title>
<path fill="none" stroke="#ff0000" stroke-width=".4028" d="M1234.2453,-150.2424C1301.0558,-143.5561 1456.7971,-126.1784 1472.072,-108.1249 1484.2514,-93.7299 1484.3798,-79.9839 1472.072,-65.6985 1451.4602,-41.7748 1232.5597,-22.6544 1157.3087,-16.7458"/>
<polygon fill="#ff0000" stroke="#ff0000" stroke-width=".4028" points="1157.1416,-13.2226 1146.9016,-15.9415 1156.6022,-20.2018 1157.1416,-13.2226"/>
</g>
<!-- num_lane_2&#45;&gt;1 -->
<g id="edge61" class="edge">
<title>num_lane_2&#45;&gt;1</title>
<path fill="none" stroke="#ff0000" stroke-width=".2089" d="M1198.833,-143.9422C1188.2039,-126.1385 1162.3511,-86.8242 1130.072,-65.6985 1084.2517,-35.7105 1020.0968,-22.8509 985.1626,-17.7917"/>
<polygon fill="#ff0000" stroke="#ff0000" stroke-width=".2089" points="985.285,-14.2767 974.9074,-16.4113 984.3511,-21.2141 985.285,-14.2767"/>
</g>
<!-- num_lane_2&#45;&gt;2 -->
<g id="edge62" class="edge">
<title>num_lane_2&#45;&gt;2</title>
<path fill="none" stroke="#ff0000" stroke-width=".1556" d="M1196.2978,-144.0526C1180.3719,-126.0877 1142.0692,-85.9751 1101.072,-65.6985 1033.7925,-32.4231 1007.0619,-54.0749 936.072,-29.6985 933.2676,-28.7355 930.384,-27.587 927.5576,-26.3611"/>
<polygon fill="#ff0000" stroke="#ff0000" stroke-width=".1556" points="928.9069,-23.1282 918.3667,-22.0533 925.936,-29.4665 928.9069,-23.1282"/>
</g>
<!-- num_lane_2&#45;&gt;36 -->
<g id="edge4" class="edge">
<title>num_lane_2&#45;&gt;36</title>
<path fill="none" stroke="#00ff00" stroke-width=".2313" d="M1173.8137,-146.1927C1138.0834,-137.8515 1076.9492,-123.0916 1025.072,-108.1249 1012.5458,-104.511 998.8039,-100.0936 987.1949,-96.2272"/>
<polygon fill="#00ff00" stroke="#00ff00" stroke-width=".2313" points="988.2204,-92.8795 977.6263,-93.0054 985.9866,-99.5135 988.2204,-92.8795"/>
</g>
<!-- num_lane_2&#45;&gt;37 -->
<g id="edge5" class="edge">
<title>num_lane_2&#45;&gt;37</title>
<path fill="none" stroke="#00ff00" stroke-width=".3233" d="M1183.2558,-144.0571C1156.0816,-132.2196 1108.4857,-111.4862 1078.7087,-98.515"/>
<polygon fill="#00ff00" stroke="#00ff00" stroke-width=".3233" points="1079.9145,-95.2226 1069.3488,-94.4377 1077.1189,-101.6402 1079.9145,-95.2226"/>
</g>
<!-- num_lane_2&#45;&gt;38 -->
<g id="edge6" class="edge">
<title>num_lane_2&#45;&gt;38</title>
<path fill="none" stroke="#00ff00" stroke-width=".5303" d="M1173.934,-149.9644C1112.7459,-143.2493 976.1126,-126.6505 933.072,-108.1249 931.1814,-107.3111 929.3026,-106.3432 927.4654,-105.276"/>
<polygon fill="#00ff00" stroke="#00ff00" stroke-width=".5303" points="929.0025,-102.089 918.7636,-99.3655 925.0693,-107.8796 929.0025,-102.089"/>
</g>
<!-- ego_velocity -->
<g id="node3" class="node">
<title>ego_velocity</title>
<polygon fill="#d3d3d3" stroke="#000000" points="1570.072,-162.1249 1508.072,-162.1249 1508.072,-144.1249 1570.072,-144.1249 1570.072,-162.1249"/>
<text text-anchor="middle" x="1539.072" y="-150.9249" font-family="Times,serif" font-size="9.00" fill="#000000">ego_velocity</text>
</g>
<!-- ego_velocity&#45;&gt;0 -->
<g id="edge63" class="edge">
<title>ego_velocity&#45;&gt;0</title>
<path fill="none" stroke="#ff0000" stroke-width=".1336" d="M1540.8934,-143.8931C1543.8316,-126.0032 1547.324,-86.5449 1526.072,-65.6985 1499.6253,-39.7564 1240.0461,-21.5422 1157.2858,-16.3573"/>
<polygon fill="#ff0000" stroke="#ff0000" stroke-width=".1336" points="1157.4413,-12.8603 1147.2449,-15.7382 1157.0105,-19.8471 1157.4413,-12.8603"/>
</g>
<!-- ego_velocity&#45;&gt;1 -->
<g id="edge64" class="edge">
<title>ego_velocity&#45;&gt;1</title>
<path fill="none" stroke="#ff0000" stroke-width=".3508" d="M1517.1364,-144.0531C1473.7435,-126.4438 1373.5635,-87.4547 1286.072,-65.6985 1175.5596,-38.2178 1040.0886,-22.7531 985.0704,-17.2145"/>
<polygon fill="#ff0000" stroke="#ff0000" stroke-width=".3508" points="985.1743,-13.7079 974.8792,-16.2105 984.4879,-20.6742 985.1743,-13.7079"/>
</g>
<!-- ego_velocity&#45;&gt;2 -->
<g id="edge65" class="edge">
<title>ego_velocity&#45;&gt;2</title>
<path fill="none" stroke="#ff0000" stroke-width=".1516" d="M1517.4398,-144.1143C1473.1712,-126.0789 1368.6866,-85.573 1277.072,-65.6985 1128.1384,-33.3894 1082.7042,-71.2206 936.072,-29.6985 933.1652,-28.8754 930.1958,-27.7971 927.3022,-26.5968"/>
<polygon fill="#ff0000" stroke="#ff0000" stroke-width=".1516" points="928.4997,-23.2934 917.9575,-22.2392 925.5413,-29.6376 928.4997,-23.2934"/>
</g>
<!-- ego_velocity&#45;&gt;36 -->
<g id="edge7" class="edge">
<title>ego_velocity&#45;&gt;36</title>
<path fill="none" stroke="#ff0000" stroke-width=".2212" d="M1507.7459,-150.0469C1489.4706,-148.271 1465.9706,-146.021 1445.072,-144.1249 1258.4872,-127.1966 1208.6706,-145.4343 1025.072,-108.1249 1012.296,-105.5287 998.5186,-101.2557 986.9506,-97.2225"/>
<polygon fill="#ff0000" stroke="#ff0000" stroke-width=".2212" points="988.0286,-93.8906 977.4342,-93.7881 985.6523,-100.475 988.0286,-93.8906"/>
</g>
<!-- ego_velocity&#45;&gt;37 -->
<g id="edge8" class="edge">
<title>ego_velocity&#45;&gt;37</title>
<path fill="none" stroke="#ff0000" stroke-width=".3152" d="M1507.8671,-148.8822C1419.0836,-136.8111 1165.9923,-102.4004 1080.6046,-90.791"/>
<polygon fill="#ff0000" stroke="#ff0000" stroke-width=".3152" points="1080.9752,-87.3093 1070.5948,-89.4301 1080.0321,-94.2455 1080.9752,-87.3093"/>
</g>
<!-- ego_velocity&#45;&gt;38 -->
<g id="edge9" class="edge">
<title>ego_velocity&#45;&gt;38</title>
<path fill="none" stroke="#00ff00" stroke-width=".1654" d="M1507.7564,-149.9269C1489.4845,-148.1109 1465.9845,-145.8609 1445.072,-144.1249 1331.4043,-134.6887 1039.8482,-148.2276 933.072,-108.1249 931.1451,-107.4012 929.2396,-106.4996 927.3834,-105.4796"/>
<polygon fill="#00ff00" stroke="#00ff00" stroke-width=".1654" points="928.9071,-102.2898 918.6416,-99.6684 925.0318,-108.1192 928.9071,-102.2898"/>
</g>
<!-- dx1 -->
<g id="node4" class="node">
<title>dx1</title>
<polygon fill="#d3d3d3" stroke="#000000" points="528.072,-162.1249 498.072,-162.1249 498.072,-144.1249 528.072,-144.1249 528.072,-162.1249"/>
<text text-anchor="middle" x="513.072" y="-150.9249" font-family="Times,serif" font-size="9.00" fill="#000000">dx1</text>
</g>
<!-- dx1&#45;&gt;0 -->
<g id="edge66" class="edge">
<title>dx1&#45;&gt;0</title>
<path fill="none" stroke="#ff0000" stroke-width=".1686" d="M528.1449,-143.8448C558.7256,-125.5064 630.7915,-84.7553 697.072,-65.6985 736.6254,-54.3262 1020.421,-25.8186 1107.0357,-17.2941"/>
<polygon fill="#ff0000" stroke="#ff0000" stroke-width=".1686" points="1107.6413,-20.7515 1117.2516,-16.2914 1106.9576,-13.785 1107.6413,-20.7515"/>
</g>
<!-- dx1&#45;&gt;1 -->
<g id="edge67" class="edge">
<title>dx1&#45;&gt;1</title>
<path fill="none" stroke="#ff0000" stroke-width=".2313" d="M528.2677,-144.3741C559.7744,-126.633 634.9694,-86.3635 703.072,-65.6985 800.4007,-36.1651 831.9745,-59.9833 929.072,-29.6985 931.9026,-28.8156 934.8023,-27.7161 937.6375,-26.5172"/>
<polygon fill="#ff0000" stroke="#ff0000" stroke-width=".2313" points="939.2504,-29.627 946.8349,-22.2293 936.2925,-23.2826 939.2504,-29.627"/>
</g>
<!-- dx1&#45;&gt;2 -->
<g id="edge68" class="edge">
<title>dx1&#45;&gt;2</title>
<path fill="none" stroke="#00ff00" stroke-width=".1069" d="M497.7923,-150.8013C453.0624,-143.8489 324.7999,-122.7848 313.072,-108.1249 301.2926,-93.4007 300.3219,-79.5906 313.072,-65.6985 351.9346,-23.3548 771.7934,-16.1992 879.8363,-15.0562"/>
<polygon fill="#00ff00" stroke="#00ff00" stroke-width=".1069" points="880.1394,-18.5535 890.1048,-14.9562 880.0711,-11.5539 880.1394,-18.5535"/>
</g>
<!-- dx1&#45;&gt;36 -->
<g id="edge10" class="edge">
<title>dx1&#45;&gt;36</title>
<path fill="none" stroke="#ff0000" stroke-width=".1167" d="M528.0978,-151.6221C601.8558,-144.2316 922.445,-111.9441 932.072,-108.1249 933.9852,-107.3659 935.8807,-106.4383 937.7297,-105.3998"/>
<polygon fill="#ff0000" stroke="#ff0000" stroke-width=".1167" points="940.0991,-108.0252 946.4565,-99.5496 936.2013,-102.2107 940.0991,-108.0252"/>
</g>
<!-- dx1&#45;&gt;37 -->
<g id="edge11" class="edge">
<title>dx1&#45;&gt;37</title>
<path fill="none" stroke="#00ff00" stroke-width=".1991" d="M528.2128,-151.649C546.6174,-149.8575 578.6211,-146.7501 606.072,-144.1249 775.3871,-127.9331 820.5401,-142.7214 987.072,-108.1249 999.8366,-105.4731 1013.6123,-101.1922 1025.1822,-97.1682"/>
<polygon fill="#00ff00" stroke="#00ff00" stroke-width=".1991" points="1026.4752,-100.4227 1034.701,-93.7454 1024.1065,-93.8356 1026.4752,-100.4227"/>
</g>
<!-- dx1&#45;&gt;38 -->
<g id="edge12" class="edge">
<title>dx1&#45;&gt;38</title>
<path fill="none" stroke="#00ff00" stroke-width=".1061" d="M528.4389,-150.5293C587.3835,-140.5728 799.5797,-104.7305 876.7556,-91.6946"/>
<polygon fill="#00ff00" stroke="#00ff00" stroke-width=".1061" points="877.442,-95.1284 886.7194,-90.0117 876.2761,-88.2261 877.442,-95.1284"/>
</g>
<!-- dy1 -->
<g id="node5" class="node">
<title>dy1</title>
<polygon fill="#d3d3d3" stroke="#000000" points="1041.072,-162.1249 1011.072,-162.1249 1011.072,-144.1249 1041.072,-144.1249 1041.072,-162.1249"/>
<text text-anchor="middle" x="1026.072" y="-150.9249" font-family="Times,serif" font-size="9.00" fill="#000000">dy1</text>
</g>
<!-- dy1&#45;&gt;0 -->
<g id="edge69" class="edge">
<title>dy1&#45;&gt;0</title>
<path fill="none" stroke="#ff0000" stroke-width=".143" d="M1041.364,-149.8955C1050.2946,-148.069 1061.7946,-145.819 1072.072,-144.1249 1131.3623,-134.3515 1300.511,-153.3553 1340.072,-108.1249 1394.2469,-46.1862 1223.2062,-23.3295 1157.0549,-16.9292"/>
<polygon fill="#ff0000" stroke="#ff0000" stroke-width=".143" points="1157.3173,-13.4386 1147.0391,-16.0094 1156.677,-20.4093 1157.3173,-13.4386"/>
</g>
<!-- dy1&#45;&gt;1 -->
<g id="edge70" class="edge">
<title>dy1&#45;&gt;1</title>
<path fill="none" stroke="#ff0000" stroke-width=".1167" d="M1041.0768,-148.3803C1057.9295,-142.1509 1084.4414,-129.4283 1096.072,-108.1249 1105.1076,-91.5746 1106.8199,-81.1916 1096.072,-65.6985 1083.0509,-46.9285 1020.2945,-29.2476 984.7559,-20.5226"/>
<polygon fill="#ff0000" stroke="#ff0000" stroke-width=".1167" points="985.2258,-17.0363 974.6856,-18.1111 983.5956,-23.8438 985.2258,-17.0363"/>
</g>
<!-- dy1&#45;&gt;2 -->
<g id="edge71" class="edge">
<title>dy1&#45;&gt;2</title>
<path fill="none" stroke="#ff0000" stroke-width=".2956" stroke-dasharray="1,5" d="M1023.9129,-143.9719C1019.5019,-126.8956 1008.0569,-89.738 987.072,-65.6985 978.2834,-55.6305 948.5942,-38.3586 927.473,-26.7744"/>
<polygon fill="#ff0000" stroke="#ff0000" stroke-width=".2956" points="928.9369,-23.5868 918.4774,-21.8984 925.6011,-29.7409 928.9369,-23.5868"/>
</g>
<!-- dy1&#45;&gt;36 -->
<g id="edge13" class="edge">
<title>dy1&#45;&gt;36</title>
<path fill="none" stroke="#ff0000" stroke-width=".119" d="M1016.895,-143.9182C1007.5087,-134.5016 992.6165,-119.5614 980.4324,-107.3379"/>
<polygon fill="#ff0000" stroke="#ff0000" stroke-width=".119" points="982.808,-104.7634 973.2695,-100.1518 977.8503,-109.7052 982.808,-104.7634"/>
</g>
<!-- dy1&#45;&gt;37 -->
<g id="edge14" class="edge">
<title>dy1&#45;&gt;37</title>
<path fill="none" stroke="#00ff00" stroke-width=".3493" d="M1029.6872,-143.9182C1032.7639,-136.0829 1037.3423,-124.4233 1041.5583,-113.6866"/>
<polygon fill="#00ff00" stroke="#00ff00" stroke-width=".3493" points="1044.8775,-114.8093 1045.2748,-104.2219 1038.3618,-112.2508 1044.8775,-114.8093"/>
</g>
<!-- dy1&#45;&gt;38 -->
<g id="edge15" class="edge">
<title>dy1&#45;&gt;38</title>
<path fill="none" stroke="#00ff00" stroke-width=".7619" d="M1010.7729,-146.8343C991.9363,-138.8406 959.2282,-124.1437 933.072,-108.1249 931.3557,-107.0738 929.6167,-105.9412 927.8892,-104.7656"/>
<polygon fill="#00ff00" stroke="#00ff00" stroke-width=".7619" points="929.6625,-101.7288 919.5078,-98.7069 925.5617,-107.4018 929.6625,-101.7288"/>
</g>
<!-- dx2 -->
<g id="node6" class="node">
<title>dx2</title>
<polygon fill="#d3d3d3" stroke="#000000" points="1436.072,-162.1249 1406.072,-162.1249 1406.072,-144.1249 1436.072,-144.1249 1436.072,-162.1249"/>
<text text-anchor="middle" x="1421.072" y="-150.9249" font-family="Times,serif" font-size="9.00" fill="#000000">dx2</text>
</g>
<!-- dx2&#45;&gt;0 -->
<g id="edge72" class="edge">
<title>dx2&#45;&gt;0</title>
<path fill="none" stroke="#ff0000" stroke-width=".1048" d="M1436.3431,-150.2592C1456.8244,-145.5056 1492.4238,-133.8363 1508.072,-108.1249 1517.8752,-92.0173 1520.4798,-79.8972 1508.072,-65.6985 1484.8891,-39.1694 1237.8616,-21.4684 1157.311,-16.3678"/>
<polygon fill="#ff0000" stroke="#ff0000" stroke-width=".1048" points="1157.2884,-12.8597 1147.0904,-15.7321 1156.8538,-19.8462 1157.2884,-12.8597"/>
</g>
<!-- dx2&#45;&gt;1 -->
<g id="edge73" class="edge">
<title>dx2&#45;&gt;1</title>
<path fill="none" stroke="#00ff00" stroke-width=".2173" d="M1405.7909,-145.1516C1372.6508,-128.1672 1291.3286,-88.1422 1219.072,-65.6985 1135.2094,-39.6499 1031.7659,-24.1057 985.0517,-17.936"/>
<polygon fill="#00ff00" stroke="#00ff00" stroke-width=".2173" points="985.3156,-14.4411 974.9498,-16.6324 984.4196,-21.3836 985.3156,-14.4411"/>
</g>
<!-- dx2&#45;&gt;2 -->
<g id="edge74" class="edge">
<title>dx2&#45;&gt;2</title>
<path fill="none" stroke="#00ff00" stroke-width=".3368" stroke-dasharray="1,5" d="M1405.9236,-145.5174C1371.074,-128.3616 1282.1305,-86.5362 1203.072,-65.6985 1087.2859,-35.1803 1050.7999,-63.9808 936.072,-29.6985 933.231,-28.8496 930.325,-27.7708 927.4863,-26.5833"/>
<polygon fill="#00ff00" stroke="#00ff00" stroke-width=".3368" points="928.8296,-23.3481 918.2863,-22.3039 925.8772,-29.695 928.8296,-23.3481"/>
</g>
<!-- dx2&#45;&gt;36 -->
<g id="edge16" class="edge">
<title>dx2&#45;&gt;36</title>
<path fill="none" stroke="#00ff00" stroke-width=".1124" d="M1405.9541,-151.4492C1334.6042,-143.5352 1034.6007,-110.1988 1025.072,-108.1249 1012.3331,-105.3523 998.561,-101.0543 986.9869,-97.05"/>
<polygon fill="#00ff00" stroke="#00ff00" stroke-width=".1124" points="988.0574,-93.7159 977.4628,-93.6525 985.7054,-100.309 988.0574,-93.7159"/>
</g>
<!-- dx2&#45;&gt;37 -->
<g id="edge17" class="edge">
<title>dx2&#45;&gt;37</title>
<path fill="none" stroke="#00ff00" stroke-width=".272" d="M1405.6863,-150.3641C1349.3942,-140.2631 1154.0966,-105.2189 1080.4621,-92.006"/>
<polygon fill="#00ff00" stroke="#00ff00" stroke-width=".272" points="1080.9728,-88.5418 1070.5118,-90.2205 1079.7364,-95.4318 1080.9728,-88.5418"/>
</g>
<!-- dx2&#45;&gt;38 -->
<g id="edge18" class="edge">
<title>dx2&#45;&gt;38</title>
<path fill="none" stroke="#ff0000" stroke-width=".1342" d="M1405.8553,-151.3311C1389.5841,-149.4371 1363.021,-146.4145 1340.072,-144.1249 1159.374,-126.0968 1102.4902,-173.5028 933.072,-108.1249 931.1517,-107.3839 929.2511,-106.4695 927.3983,-105.4404"/>
<polygon fill="#ff0000" stroke="#ff0000" stroke-width=".1342" points="928.9243,-102.2509 918.6638,-99.6101 925.038,-108.073 928.9243,-102.2509"/>
</g>
<!-- dy2 -->
<g id="node7" class="node">
<title>dy2</title>
<polygon fill="#d3d3d3" stroke="#000000" points="936.072,-162.1249 906.072,-162.1249 906.072,-144.1249 936.072,-144.1249 936.072,-162.1249"/>
<text text-anchor="middle" x="921.072" y="-150.9249" font-family="Times,serif" font-size="9.00" fill="#000000">dy2</text>
</g>
<!-- dy2&#45;&gt;0 -->
<g id="edge75" class="edge">
<title>dy2&#45;&gt;0</title>
<path fill="none" stroke="#00ff00" stroke-width=".3386" d="M936.1496,-148.1539C940.3245,-146.8115 944.8649,-145.383 949.072,-144.1249 1006.511,-126.9483 1031.7881,-144.9828 1079.072,-108.1249 1101.795,-90.4122 1116.4085,-60.0489 1124.4162,-38.7903"/>
<polygon fill="#00ff00" stroke="#00ff00" stroke-width=".3386" points="1127.7803,-39.7757 1127.8233,-29.181 1121.1827,-37.4365 1127.7803,-39.7757"/>
</g>
<!-- dy2&#45;&gt;1 -->
<g id="edge76" class="edge">
<title>dy2&#45;&gt;1</title>
<path fill="none" stroke="#00ff00" stroke-width=".653" d="M908.163,-144.1065C897.8303,-136.0331 884.1043,-123.1693 878.072,-108.1249 871.0544,-90.6232 868.9021,-82.1748 878.072,-65.6985 884.6359,-53.9046 915.4301,-36.8091 937.3475,-25.7604"/>
<polygon fill="#00ff00" stroke="#00ff00" stroke-width=".653" points="938.9754,-28.86 946.3872,-21.2893 935.872,-22.5855 938.9754,-28.86"/>
</g>
<!-- dy2&#45;&gt;2 -->
<g id="edge77" class="edge">
<title>dy2&#45;&gt;2</title>
<path fill="none" stroke="#00ff00" stroke-width=".317" d="M906.0026,-148.7268C867.7024,-137.5406 769.6021,-108.8346 769.072,-108.1249 757.7888,-93.0171 758.3241,-81.1916 769.072,-65.6985 782.0931,-46.9285 844.8495,-29.2476 880.3881,-20.5226"/>
<polygon fill="#00ff00" stroke="#00ff00" stroke-width=".317" points="881.5484,-23.8438 890.4583,-18.1111 879.9182,-17.0363 881.5484,-23.8438"/>
</g>
<!-- dy2&#45;&gt;36 -->
<g id="edge19" class="edge">
<title>dy2&#45;&gt;36</title>
<path fill="none" stroke="#ff0000" stroke-width=".1704" d="M926.4948,-143.9182C931.4163,-135.5627 938.8993,-122.8581 945.5531,-111.5615"/>
<polygon fill="#ff0000" stroke="#ff0000" stroke-width=".1704" points="948.5873,-113.3064 950.6467,-102.9137 942.5558,-109.7538 948.5873,-113.3064"/>
</g>
<!-- dy2&#45;&gt;37 -->
<g id="edge20" class="edge">
<title>dy2&#45;&gt;37</title>
<path fill="none" stroke="#ff0000" stroke-width=".1033" d="M936.0994,-145.5294C958.1261,-134.3961 999.4753,-113.4964 1026.3829,-99.8961"/>
<polygon fill="#ff0000" stroke="#ff0000" stroke-width=".1033" points="1028.2344,-102.882 1035.5803,-95.2473 1025.0767,-96.6347 1028.2344,-102.882"/>
</g>
<!-- dy2&#45;&gt;38 -->
<g id="edge21" class="edge">
<title>dy2&#45;&gt;38</title>
<path fill="none" stroke="#00ff00" stroke-width=".1521" d="M918.8473,-143.9182C917.0312,-136.4027 914.3649,-125.3687 911.8607,-115.0055"/>
<polygon fill="#00ff00" stroke="#00ff00" stroke-width=".1521" points="915.199,-113.9193 909.448,-105.0211 908.3949,-115.5635 915.199,-113.9193"/>
</g>
<!-- &#45;8 -->
<g id="node8" class="node">
<title>&#45;8</title>
<polygon fill="#d3d3d3" stroke="#000000" points="982.072,-162.1249 958.072,-162.1249 958.072,-144.1249 982.072,-144.1249 982.072,-162.1249"/>
<text text-anchor="middle" x="970.072" y="-150.9249" font-family="Times,serif" font-size="9.00" fill="#000000">&#45;8</text>
</g>
<!-- &#45;8&#45;&gt;0 -->
<g id="edge78" class="edge">
<title>&#45;8&#45;&gt;0</title>
<path fill="none" stroke="#ff0000" stroke-width=".3678" d="M982.1455,-149.3754C988.103,-147.6161 995.4214,-145.5895 1002.072,-144.1249 1051.3088,-133.282 1193.3726,-146.4991 1226.072,-108.1249 1238.3018,-93.7726 1235.7256,-81.8961 1226.072,-65.6985 1211.1475,-40.6568 1179.135,-27.1996 1156.6313,-20.5397"/>
<polygon fill="#ff0000" stroke="#ff0000" stroke-width=".3678" points="1157.3278,-17.1023 1146.7606,-17.868 1155.4988,-23.8592 1157.3278,-17.1023"/>
</g>
<!-- &#45;8&#45;&gt;1 -->
<g id="edge79" class="edge">
<title>&#45;8&#45;&gt;1</title>
<path fill="none" stroke="#00ff00" stroke-width=".3725" d="M982.2116,-148.9701C1009.4187,-139.5401 1073.3515,-116.6754 1079.072,-108.1249 1089.5571,-92.4527 1089.4606,-81.4348 1079.072,-65.6985 1058.2183,-34.1098 1013.2725,-22.0755 984.9772,-17.5391"/>
<polygon fill="#00ff00" stroke="#00ff00" stroke-width=".3725" points="985.4225,-14.0674 975.0329,-16.1424 984.4489,-20.9993 985.4225,-14.0674"/>
</g>
<!-- &#45;8&#45;&gt;2 -->
<g id="edge80" class="edge">
<title>&#45;8&#45;&gt;2</title>
<path fill="none" stroke="#ff0000" stroke-width=".1149" stroke-dasharray="1,5" d="M958.0399,-148.0859C934.1629,-137.9677 882.6847,-115.5161 878.072,-108.1249 863.8943,-85.4073 877.7056,-54.9704 890.231,-35.1399"/>
<polygon fill="#ff0000" stroke="#ff0000" stroke-width=".1149" points="893.3031,-36.843 895.9689,-26.589 887.4904,-32.9425 893.3031,-36.843"/>
</g>
<!-- &#45;8&#45;&gt;36 -->
<g id="edge22" class="edge">
<title>&#45;8&#45;&gt;36</title>
<path fill="none" stroke="#00ff00" stroke-width=".158" d="M968.6815,-143.9182C967.5545,-136.456 965.9037,-125.525 964.3482,-115.2261"/>
<polygon fill="#00ff00" stroke="#00ff00" stroke-width=".158" points="967.8018,-114.655 962.8476,-105.2898 960.8803,-115.7004 967.8018,-114.655"/>
</g>
<!-- &#45;8&#45;&gt;37 -->
<g id="edge23" class="edge">
<title>&#45;8&#45;&gt;37</title>
<path fill="none" stroke="#00ff00" stroke-width=".1671" d="M981.4737,-143.9182C993.8753,-133.9042 1014.0131,-117.6434 1029.6137,-105.0463"/>
<polygon fill="#00ff00" stroke="#00ff00" stroke-width=".1671" points="1032.1545,-107.4932 1037.7359,-98.4877 1027.7568,-102.0471 1032.1545,-107.4932"/>
</g>
<!-- &#45;8&#45;&gt;38 -->
<g id="edge24" class="edge">
<title>&#45;8&#45;&gt;38</title>
<path fill="none" stroke="#ff0000" stroke-width=".2765" d="M961.034,-143.9182C951.79,-134.5016 937.1234,-119.5614 925.1239,-107.3379"/>
<polygon fill="#ff0000" stroke="#ff0000" stroke-width=".2765" points="927.5726,-104.8361 918.0695,-100.1518 922.5772,-109.7398 927.5726,-104.8361"/>
</g>
<!-- &#45;9 -->
<g id="node9" class="node">
<title>&#45;9</title>
<polygon fill="#d3d3d3" stroke="#000000" points="639.072,-162.1249 615.072,-162.1249 615.072,-144.1249 639.072,-144.1249 639.072,-162.1249"/>
<text text-anchor="middle" x="627.072" y="-150.9249" font-family="Times,serif" font-size="9.00" fill="#000000">&#45;9</text>
</g>
<!-- &#45;9&#45;&gt;0 -->
<g id="edge81" class="edge">
<title>&#45;9&#45;&gt;0</title>
<path fill="none" stroke="#00ff00" stroke-width=".4167" d="M639.1765,-145.0702C666.1074,-127.5631 733.5449,-85.99 796.072,-65.6985 854.4121,-46.7658 1039.636,-25.0434 1107.1463,-17.5525"/>
<polygon fill="#00ff00" stroke="#00ff00" stroke-width=".4167" points="1107.7275,-21.0097 1117.2845,-16.4366 1106.9616,-14.0517 1107.7275,-21.0097"/>
</g>
<!-- &#45;9&#45;&gt;1 -->
<g id="edge82" class="edge">
<title>&#45;9&#45;&gt;1</title>
<path fill="none" stroke="#ff0000" stroke-width=".5863" d="M639.447,-145.61C666.9338,-129.1795 735.5121,-89.6197 797.072,-65.6985 853.7524,-43.6734 872.0857,-50.9197 929.072,-29.6985 931.8507,-28.6637 934.7186,-27.4712 937.5363,-26.2212"/>
<polygon fill="#ff0000" stroke="#ff0000" stroke-width=".5863" points="939.1653,-29.3229 946.7208,-21.8955 936.1826,-22.9901 939.1653,-29.3229"/>
</g>
<!-- &#45;9&#45;&gt;2 -->
<g id="edge83" class="edge">
<title>&#45;9&#45;&gt;2</title>
<path fill="none" stroke="#00ff00" stroke-width=".2647" d="M614.8883,-152.3105C575.2151,-149.3814 450.917,-137.9311 427.072,-108.1249 415.2926,-93.4007 414.4636,-79.7193 427.072,-65.6985 457.6346,-31.7122 785.9442,-18.6558 880.0156,-15.5965"/>
<polygon fill="#00ff00" stroke="#00ff00" stroke-width=".2647" points="880.1704,-19.0935 890.0549,-15.2795 879.9494,-12.097 880.1704,-19.0935"/>
</g>
<!-- &#45;9&#45;&gt;36 -->
<g id="edge25" class="edge">
<title>&#45;9&#45;&gt;36</title>
<path fill="none" stroke="#ff0000" stroke-width=".3192" d="M639.2189,-152.1434C689.0075,-147.9972 877.4135,-131.0681 932.072,-108.1249 933.9699,-107.3282 935.854,-106.373 937.695,-105.3147"/>
<polygon fill="#ff0000" stroke="#ff0000" stroke-width=".3192" points="940.0829,-107.925 946.4048,-99.423 936.1608,-102.127 940.0829,-107.925"/>
</g>
<!-- &#45;9&#45;&gt;37 -->
<g id="edge26" class="edge">
<title>&#45;9&#45;&gt;37</title>
<path fill="none" stroke="#00ff00" stroke-width=".4582" d="M639.3136,-151.9126C694.2355,-146.4252 918.2261,-123.5134 987.072,-108.1249 999.7952,-105.281 1013.565,-100.9729 1025.1417,-96.9803"/>
<polygon fill="#00ff00" stroke="#00ff00" stroke-width=".4582" points="1026.4165,-100.2418 1034.6691,-93.5976 1024.0744,-93.6452 1026.4165,-100.2418"/>
</g>
<!-- &#45;9&#45;&gt;38 -->
<g id="edge27" class="edge">
<title>&#45;9&#45;&gt;38</title>
<path fill="none" stroke="#ff0000" stroke-width=".1214" d="M639.376,-150.1944C681.1093,-140.2544 817.967,-107.6581 877.2638,-93.535"/>
<polygon fill="#ff0000" stroke="#ff0000" stroke-width=".1214" points="878.1514,-96.9215 887.0684,-91.1997 876.5295,-90.112 878.1514,-96.9215"/>
</g>
<!-- &#45;10 -->
<g id="node10" class="node">
<title>&#45;10</title>
<polygon fill="#d3d3d3" stroke="#000000" points="773.572,-162.1249 744.572,-162.1249 744.572,-144.1249 773.572,-144.1249 773.572,-162.1249"/>
<text text-anchor="middle" x="759.072" y="-150.9249" font-family="Times,serif" font-size="9.00" fill="#000000">&#45;10</text>
</g>
<!-- &#45;10&#45;&gt;0 -->
<g id="edge84" class="edge">
<title>&#45;10&#45;&gt;0</title>
<path fill="none" stroke="#ff0000" stroke-width=".661" d="M766.4097,-143.9352C781.4752,-125.7593 817.877,-85.286 858.072,-65.6985 902.0976,-44.2443 1047.8521,-24.9217 1106.9012,-17.7769"/>
<polygon fill="#ff0000" stroke="#ff0000" stroke-width=".661" points="1107.6723,-21.2098 1117.1873,-16.5499 1106.8431,-14.2591 1107.6723,-21.2098"/>
</g>
<!-- &#45;10&#45;&gt;1 -->
<g id="edge85" class="edge">
<title>&#45;10&#45;&gt;1</title>
<path fill="none" stroke="#00ff00" stroke-width=".3477" d="M767.1185,-143.9668C782.4878,-126.8819 817.6536,-89.7106 853.072,-65.6985 884.0083,-44.725 895.329,-45.7717 929.072,-29.6985 931.7489,-28.4233 934.5545,-27.0838 937.338,-25.7529"/>
<polygon fill="#00ff00" stroke="#00ff00" stroke-width=".3477" points="938.9893,-28.8428 946.4972,-21.3674 935.9662,-22.5292 938.9893,-28.8428"/>
</g>
<!-- &#45;10&#45;&gt;2 -->
<g id="edge86" class="edge">
<title>&#45;10&#45;&gt;2</title>
<path fill="none" stroke="#00ff00" stroke-width=".3566" d="M744.2536,-152.4609C686.4352,-149.3724 482.055,-133.533 541.072,-65.6985 563.4222,-40.009 801.5779,-21.8068 880.1104,-16.4668"/>
<polygon fill="#00ff00" stroke="#00ff00" stroke-width=".3566" points="880.349,-19.9588 890.0932,-15.7992 879.8819,-12.9744 880.349,-19.9588"/>
</g>
<!-- &#45;10&#45;&gt;36 -->
<g id="edge28" class="edge">
<title>&#45;10&#45;&gt;36</title>
<path fill="none" stroke="#00ff00" stroke-width=".5874" d="M773.6373,-151.3059C804.2675,-147.0664 877.0588,-134.7955 932.072,-108.1249 934.0785,-107.1522 936.0829,-106.0246 938.0451,-104.8062"/>
<polygon fill="#00ff00" stroke="#00ff00" stroke-width=".5874" points="940.0514,-107.6741 946.2509,-99.0824 936.0467,-101.9328 940.0514,-107.6741"/>
</g>
<!-- &#45;10&#45;&gt;37 -->
<g id="edge29" class="edge">
<title>&#45;10&#45;&gt;37</title>
<path fill="none" stroke="#ff0000" stroke-width=".1232" d="M773.6139,-150.8806C809.9349,-145.14 907.4292,-128.8995 987.072,-108.1249 999.687,-104.8343 1013.4415,-100.4628 1025.0359,-96.5434"/>
<polygon fill="#ff0000" stroke="#ff0000" stroke-width=".1232" points="1026.2709,-99.8199 1034.5859,-93.254 1023.9912,-93.2015 1026.2709,-99.8199"/>
</g>
<!-- &#45;10&#45;&gt;38 -->
<g id="edge30" class="edge">
<title>&#45;10&#45;&gt;38</title>
<path fill="none" stroke="#ff0000" stroke-width=".3065" d="M773.6048,-146.534C798.0761,-135.4359 847.8446,-112.8652 878.6377,-98.9"/>
<polygon fill="#ff0000" stroke="#ff0000" stroke-width=".3065" points="880.251,-102.0116 887.9126,-94.6937 877.3598,-95.6365 880.251,-102.0116"/>
</g>
<!-- &#45;11 -->
<g id="node11" class="node">
<title>&#45;11</title>
<polygon fill="#d3d3d3" stroke="#000000" points="151.572,-162.1249 122.572,-162.1249 122.572,-144.1249 151.572,-144.1249 151.572,-162.1249"/>
<text text-anchor="middle" x="137.072" y="-150.9249" font-family="Times,serif" font-size="9.00" fill="#000000">&#45;11</text>
</g>
<!-- &#45;11&#45;&gt;0 -->
<g id="edge87" class="edge">
<title>&#45;11&#45;&gt;0</title>
<path fill="none" stroke="#00ff00" stroke-width=".1805" d="M151.7287,-145.769C187.5689,-128.1889 282.939,-83.8521 368.072,-65.6985 636.2867,-8.5048 710.6865,-51.3923 984.072,-29.6985 1027.2139,-26.2751 1077.2977,-20.9701 1106.7454,-17.7142"/>
<polygon fill="#00ff00" stroke="#00ff00" stroke-width=".1805" points="1107.4131,-21.1615 1116.9636,-16.5749 1106.6373,-14.2046 1107.4131,-21.1615"/>
</g>
<!-- &#45;11&#45;&gt;1 -->
<g id="edge88" class="edge">
<title>&#45;11&#45;&gt;1</title>
<path fill="none" stroke="#00ff00" stroke-width=".4467" d="M151.6048,-145.9326C187.5817,-128.5185 284.1111,-84.1677 370.072,-65.6985 613.4764,-13.4017 688.1956,-92.6208 929.072,-29.6985 931.995,-28.9349 934.9742,-27.8927 937.8731,-26.7118"/>
<polygon fill="#00ff00" stroke="#00ff00" stroke-width=".4467" points="939.6283,-29.7556 947.2212,-22.3666 936.6776,-23.4079 939.6283,-29.7556"/>
</g>
<!-- &#45;11&#45;&gt;2 -->
<g id="edge89" class="edge">
<title>&#45;11&#45;&gt;2</title>
<path fill="none" stroke="#ff0000" stroke-width=".1752" d="M122.4141,-150.1722C91.7507,-143.6665 22.5526,-127.1536 9.072,-108.1249 -1.8283,-92.7385 -3.8781,-79.4043 9.072,-65.6985 39.8061,-33.1708 737.2109,-18.0691 879.7619,-15.3166"/>
<polygon fill="#ff0000" stroke="#ff0000" stroke-width=".1752" points="880.1666,-18.8097 890.0982,-15.1201 880.0335,-11.8109 880.1666,-18.8097"/>
</g>
<!-- &#45;11&#45;&gt;36 -->
<g id="edge31" class="edge">
<title>&#45;11&#45;&gt;36</title>
<path fill="none" stroke="#ff0000" stroke-width=".1386" stroke-dasharray="1,5" d="M151.656,-152.0219C175.4102,-150.2427 223.9387,-146.6809 265.072,-144.1249 413.2242,-134.9189 792.6915,-159.1827 932.072,-108.1249 934.0047,-107.4169 935.9145,-106.5269 937.7737,-105.5152"/>
<polygon fill="#ff0000" stroke="#ff0000" stroke-width=".1386" points="940.1173,-108.1611 946.522,-99.7213 936.252,-102.325 940.1173,-108.1611"/>
</g>
<!-- &#45;11&#45;&gt;38 -->
<g id="edge32" class="edge">
<title>&#45;11&#45;&gt;38</title>
<path fill="none" stroke="#00ff00" stroke-width=".1964" d="M151.728,-151.8613C244.5197,-143.8613 750.5077,-100.2375 876.6005,-89.3664"/>
<polygon fill="#00ff00" stroke="#00ff00" stroke-width=".1964" points="876.9756,-92.8471 886.6379,-88.501 876.3742,-85.873 876.9756,-92.8471"/>
</g>
<!-- &#45;12 -->
<g id="node12" class="node">
<title>&#45;12</title>
<polygon fill="#d3d3d3" stroke="#000000" points="1330.572,-162.1249 1301.572,-162.1249 1301.572,-144.1249 1330.572,-144.1249 1330.572,-162.1249"/>
<text text-anchor="middle" x="1316.072" y="-150.9249" font-family="Times,serif" font-size="9.00" fill="#000000">&#45;12</text>
</g>
<!-- &#45;12&#45;&gt;0 -->
<g id="edge90" class="edge">
<title>&#45;12&#45;&gt;0</title>
<path fill="none" stroke="#ff0000" stroke-width=".3638" d="M1330.5828,-151.6166C1368.738,-147.322 1470.3009,-133.6597 1490.072,-108.1249 1501.6161,-93.2155 1502.4323,-79.9385 1490.072,-65.6985 1468.206,-40.5073 1235.8675,-22.0945 1157.6238,-16.5696"/>
<polygon fill="#ff0000" stroke="#ff0000" stroke-width=".3638" points="1157.4596,-13.0499 1147.2411,-15.8487 1156.9747,-20.0331 1157.4596,-13.0499"/>
</g>
<!-- &#45;12&#45;&gt;1 -->
<g id="edge91" class="edge">
<title>&#45;12&#45;&gt;1</title>
<path fill="none" stroke="#ff0000" stroke-width=".1452" d="M1303.3793,-144.0987C1278.1806,-126.5692 1219.5595,-87.7134 1165.072,-65.6985 1102.6075,-40.4606 1024.2135,-25.2575 984.928,-18.6848"/>
<polygon fill="#ff0000" stroke="#ff0000" stroke-width=".1452" points="985.3625,-15.2096 974.9303,-17.0587 984.2387,-22.1188 985.3625,-15.2096"/>
</g>
<!-- &#45;12&#45;&gt;2 -->
<g id="edge92" class="edge">
<title>&#45;12&#45;&gt;2</title>
<path fill="none" stroke="#00ff00" stroke-width=".1394" d="M1301.987,-144.1074C1273.4096,-126.2409 1206.0588,-86.2966 1144.072,-65.6985 1055.04,-36.1132 1025.4461,-58.2335 936.072,-29.6985 933.2474,-28.7966 930.3514,-27.6855 927.5182,-26.4802"/>
<polygon fill="#00ff00" stroke="#00ff00" stroke-width=".1394" points="928.8641,-23.246 918.3223,-22.1876 925.9032,-29.589 928.8641,-23.246"/>
</g>
<!-- &#45;12&#45;&gt;36 -->
<g id="edge33" class="edge">
<title>&#45;12&#45;&gt;36</title>
<path fill="none" stroke="#00ff00" stroke-width=".1707" d="M1301.2703,-151.1596C1249.8093,-144.2765 1078.897,-120.9801 1025.072,-108.1249 1012.3915,-105.0964 998.6277,-100.762 987.044,-96.7997"/>
<polygon fill="#00ff00" stroke="#00ff00" stroke-width=".1707" points="988.1025,-93.462 977.5077,-93.4556 985.7861,-100.0676 988.1025,-93.462"/>
</g>
<!-- &#45;12&#45;&gt;37 -->
<g id="edge34" class="edge">
<title>&#45;12&#45;&gt;37</title>
<path fill="none" stroke="#ff0000" stroke-width=".2557" d="M1301.5022,-149.4707C1259.1557,-138.8499 1135.5848,-107.8573 1079.877,-93.8854"/>
<polygon fill="#ff0000" stroke="#ff0000" stroke-width=".2557" points="1080.5427,-90.444 1069.9916,-91.4061 1078.8397,-97.2337 1080.5427,-90.444"/>
</g>
<!-- &#45;12&#45;&gt;38 -->
<g id="edge35" class="edge">
<title>&#45;12&#45;&gt;38</title>
<path fill="none" stroke="#ff0000" stroke-width=".6253" d="M1301.5327,-151.3017C1286.8025,-149.4618 1263.3585,-146.5533 1243.072,-144.1249 1105.3515,-127.6388 1061.7789,-159.8284 933.072,-108.1249 931.162,-107.3576 929.269,-106.424 927.4217,-105.3811"/>
<polygon fill="#ff0000" stroke="#ff0000" stroke-width=".6253" points="928.9514,-102.1924 918.6986,-99.5219 925.0482,-108.0032 928.9514,-102.1924"/>
</g>
<!-- &#45;13 -->
<g id="node13" class="node">
<title>&#45;13</title>
<polygon fill="#d3d3d3" stroke="#000000" points="1109.572,-162.1249 1080.572,-162.1249 1080.572,-144.1249 1109.572,-144.1249 1109.572,-162.1249"/>
<text text-anchor="middle" x="1095.072" y="-150.9249" font-family="Times,serif" font-size="9.00" fill="#000000">&#45;13</text>
</g>
<!-- &#45;13&#45;&gt;0 -->
<g id="edge93" class="edge">
<title>&#45;13&#45;&gt;0</title>
<path fill="none" stroke="#00ff00" stroke-width=".3064" d="M1109.8186,-151.2118C1123.9832,-149.3782 1145.9873,-146.5404 1165.072,-144.1249 1229.2783,-135.9984 1411.2307,-156.6339 1454.072,-108.1249 1466.5541,-93.9915 1466.3214,-80.034 1454.072,-65.6985 1434.7071,-43.0356 1229.1235,-23.2347 1156.9481,-16.9347"/>
<polygon fill="#00ff00" stroke="#00ff00" stroke-width=".3064" points="1157.194,-13.443 1146.9308,-16.0727 1156.5938,-20.4173 1157.194,-13.443"/>
</g>
<!-- &#45;13&#45;&gt;1 -->
<g id="edge94" class="edge">
<title>&#45;13&#45;&gt;1</title>
<path fill="none" stroke="#ff0000" stroke-width=".1225" d="M1101.1485,-143.9888C1111.6509,-126.9406 1130.4798,-89.828 1113.072,-65.6985 1097.8456,-44.5928 1024.014,-27.3194 984.7492,-19.4466"/>
<polygon fill="#ff0000" stroke="#ff0000" stroke-width=".1225" points="985.3782,-16.0034 974.8928,-17.5226 984.037,-22.8737 985.3782,-16.0034"/>
</g>
<!-- &#45;13&#45;&gt;2 -->
<g id="edge95" class="edge">
<title>&#45;13&#45;&gt;2</title>
<path fill="none" stroke="#00ff00" stroke-width=".1291" d="M1096.3116,-144.0696C1098.1714,-126.4893 1099.5333,-87.5485 1079.072,-65.6985 1034.2743,-17.8605 997.7117,-51.9663 936.072,-29.6985 933.2833,-28.691 930.4093,-27.5153 927.5881,-26.2745"/>
<polygon fill="#00ff00" stroke="#00ff00" stroke-width=".1291" points="928.9401,-23.0426 918.4012,-21.9555 925.9619,-29.3775 928.9401,-23.0426"/>
</g>
<!-- &#45;13&#45;&gt;36 -->
<g id="edge36" class="edge">
<title>&#45;13&#45;&gt;36</title>
<path fill="none" stroke="#ff0000" stroke-width=".3178" d="M1080.3676,-145.9129C1057.7494,-134.8193 1014.1043,-113.4128 986.0692,-99.6625"/>
<polygon fill="#ff0000" stroke="#ff0000" stroke-width=".3178" points="987.3834,-96.4088 976.8639,-95.1476 984.3009,-102.6936 987.3834,-96.4088"/>
</g>
<!-- &#45;13&#45;&gt;37 -->
<g id="edge37" class="edge">
<title>&#45;13&#45;&gt;37</title>
<path fill="none" stroke="#ff0000" stroke-width=".609" d="M1089.093,-143.9182C1083.5939,-135.4505 1075.1942,-122.5162 1067.7851,-111.1074"/>
<polygon fill="#ff0000" stroke="#ff0000" stroke-width=".609" points="1070.5117,-108.8796 1062.1298,-102.3992 1064.641,-112.6921 1070.5117,-108.8796"/>
</g>
<!-- &#45;13&#45;&gt;38 -->
<g id="edge38" class="edge">
<title>&#45;13&#45;&gt;38</title>
<path fill="none" stroke="#ff0000" stroke-width=".1944" d="M1080.5305,-149.8273C1045.9319,-141.8633 959.6246,-121.2688 933.072,-108.1249 931.0736,-107.1357 929.0749,-105.9963 927.1167,-104.7698"/>
<polygon fill="#ff0000" stroke="#ff0000" stroke-width=".1944" points="929.1177,-101.8983 918.9182,-99.0312 925.1036,-107.633 929.1177,-101.8983"/>
</g>
<!-- &#45;14 -->
<g id="node14" class="node">
<title>&#45;14</title>
<polygon fill="#d3d3d3" stroke="#000000" points="1720.572,-162.1249 1691.572,-162.1249 1691.572,-144.1249 1720.572,-144.1249 1720.572,-162.1249"/>
<text text-anchor="middle" x="1706.072" y="-150.9249" font-family="Times,serif" font-size="9.00" fill="#000000">&#45;14</text>
</g>
<!-- &#45;14&#45;&gt;0 -->
<g id="edge96" class="edge">
<title>&#45;14&#45;&gt;0</title>
<path fill="none" stroke="#00ff00" stroke-width=".3051" d="M1720.6214,-151.7818C1774.2122,-146.6903 1958.3594,-127.8655 1975.072,-108.1249 1987.2558,-93.7336 1987.9977,-79.4274 1975.072,-65.6985 1946.3249,-35.1652 1295.4856,-18.5903 1157.5948,-15.4147"/>
<polygon fill="#00ff00" stroke="#00ff00" stroke-width=".3051" points="1157.2838,-11.9068 1147.2068,-15.1786 1157.1247,-18.905 1157.2838,-11.9068"/>
</g>
<!-- &#45;14&#45;&gt;1 -->
<g id="edge97" class="edge">
<title>&#45;14&#45;&gt;1</title>
<path fill="none" stroke="#00ff00" stroke-width=".1345" d="M1691.3108,-148.6088C1644.2874,-134.3784 1493.6004,-89.9788 1366.072,-65.6985 1292.0772,-51.6105 1062.0611,-25.9684 985.2983,-17.5828"/>
<polygon fill="#00ff00" stroke="#00ff00" stroke-width=".1345" points="985.4417,-14.0778 975.1214,-16.4743 984.6836,-21.0367 985.4417,-14.0778"/>
</g>
<!-- &#45;14&#45;&gt;2 -->
<g id="edge98" class="edge">
<title>&#45;14&#45;&gt;2</title>
<path fill="none" stroke="#00ff00" stroke-width=".3104" d="M1691.5479,-148.4978C1644.5967,-133.7406 1492.4513,-87.4869 1363.072,-65.6985 1175.2655,-34.0705 1119.8543,-79.6551 936.072,-29.6985 933.1567,-28.906 930.1821,-27.8463 927.2857,-26.656"/>
<polygon fill="#00ff00" stroke="#00ff00" stroke-width=".3104" points="928.4822,-23.3523 917.9393,-22.3048 925.5278,-29.6984 928.4822,-23.3523"/>
</g>
<!-- &#45;14&#45;&gt;36 -->
<g id="edge39" class="edge">
<title>&#45;14&#45;&gt;36</title>
<path fill="none" stroke="#ff0000" stroke-width=".1825" d="M1691.2144,-152.0437C1667.5053,-150.3247 1619.6497,-146.8811 1579.072,-144.1249 1332.8977,-127.4039 1267.3651,-154.7666 1025.072,-108.1249 1012.1798,-105.6431 998.2947,-101.3462 986.6811,-97.2658"/>
<polygon fill="#ff0000" stroke="#ff0000" stroke-width=".1825" points="987.736,-93.9251 977.1421,-93.7868 985.3375,-100.5014 987.736,-93.9251"/>
</g>
<!-- &#45;14&#45;&gt;37 -->
<g id="edge40" class="edge">
<title>&#45;14&#45;&gt;37</title>
<path fill="none" stroke="#00ff00" stroke-width=".2467" d="M1691.4953,-151.6491C1608.3299,-143.2291 1193.5653,-101.237 1080.5506,-89.795"/>
<polygon fill="#00ff00" stroke="#00ff00" stroke-width=".2467" points="1080.8786,-86.3104 1070.5769,-88.7852 1080.1735,-93.2748 1080.8786,-86.3104"/>
</g>
<!-- &#45;14&#45;&gt;38 -->
<g id="edge41" class="edge">
<title>&#45;14&#45;&gt;38</title>
<path fill="none" stroke="#ff0000" stroke-width=".2428" d="M1691.2173,-151.9993C1667.5122,-150.2194 1619.662,-146.694 1579.072,-144.1249 1435.5808,-135.0429 1068.0339,-157.698 933.072,-108.1249 931.1399,-107.4152 929.2306,-106.524 927.3716,-105.5113"/>
<polygon fill="#ff0000" stroke="#ff0000" stroke-width=".2428" points="928.8936,-102.3212 918.6241,-99.7156 925.0272,-108.1566 928.8936,-102.3212"/>
</g>
<!-- 172 -->
<g id="node23" class="node">
<title>172</title>
<ellipse fill="#ffffff" stroke="#000000" cx="1945.072" cy="-86.9117" rx="21.4286" ry="21.4286"/>
<text text-anchor="middle" x="1945.072" y="-84.7117" font-family="Times,serif" font-size="9.00" fill="#000000">172</text>
</g>
<!-- &#45;14&#45;&gt;172 -->
<g id="edge105" class="edge">
<title>&#45;14&#45;&gt;172</title>
<path fill="none" stroke="#00ff00" stroke-width=".1079" d="M1720.6486,-151.5696C1754.8006,-147.5747 1842.2321,-135.2996 1910.072,-108.1249 1912.9474,-106.9731 1915.8584,-105.5984 1918.7095,-104.1102"/>
<polygon fill="#00ff00" stroke="#00ff00" stroke-width=".1079" points="1920.5405,-107.0953 1927.496,-99.1033 1917.0748,-101.0134 1920.5405,-107.0953"/>
</g>
<!-- &#45;15 -->
<g id="node15" class="node">
<title>&#45;15</title>
<polygon fill="#d3d3d3" stroke="#000000" points="303.572,-162.1249 274.572,-162.1249 274.572,-144.1249 303.572,-144.1249 303.572,-162.1249"/>
<text text-anchor="middle" x="289.072" y="-150.9249" font-family="Times,serif" font-size="9.00" fill="#000000">&#45;15</text>
</g>
<!-- &#45;15&#45;&gt;0 -->
<g id="edge99" class="edge">
<title>&#45;15&#45;&gt;0</title>
<path fill="none" stroke="#ff0000" stroke-width=".2781" d="M303.8694,-143.8778C334.5865,-125.2211 408.0837,-83.3515 476.072,-65.6985 695.1516,-8.815 758.5524,-48.9987 984.072,-29.6985 1027.1919,-26.0082 1077.2825,-20.7858 1106.7375,-17.6187"/>
<polygon fill="#ff0000" stroke="#ff0000" stroke-width=".2781" points="1107.393,-21.0683 1116.9585,-16.513 1106.64,-14.1089 1107.393,-21.0683"/>
</g>
<!-- &#45;15&#45;&gt;1 -->
<g id="edge100" class="edge">
<title>&#45;15&#45;&gt;1</title>
<path fill="none" stroke="#00ff00" stroke-width=".1885" d="M303.7523,-144.2178C334.9187,-125.8119 410.5458,-83.7951 480.072,-65.6985 673.8127,-15.2706 735.7787,-81.8148 929.072,-29.6985 931.9889,-28.912 934.9644,-27.8559 937.8614,-26.6676"/>
<polygon fill="#00ff00" stroke="#00ff00" stroke-width=".1885" points="939.6187,-29.7102 947.2082,-22.3176 936.6651,-23.3638 939.6187,-29.7102"/>
</g>
<!-- &#45;15&#45;&gt;2 -->
<g id="edge101" class="edge">
<title>&#45;15&#45;&gt;2</title>
<path fill="none" stroke="#ff0000" stroke-width=".2827" d="M274.2957,-152.1857C231.4994,-149.1281 108.9806,-137.8822 85.072,-108.1249 73.2617,-93.4255 72.1579,-79.4382 85.072,-65.6985 112.9829,-36.0032 744.7672,-18.7982 879.8155,-15.4526"/>
<polygon fill="#ff0000" stroke="#ff0000" stroke-width=".2827" points="880.0915,-18.947 890.0029,-15.2033 879.9203,-11.949 880.0915,-18.947"/>
</g>
<!-- &#45;15&#45;&gt;36 -->
<g id="edge42" class="edge">
<title>&#45;15&#45;&gt;36</title>
<path fill="none" stroke="#00ff00" stroke-width=".3633" d="M303.8115,-150.6366C316.3467,-148.6042 334.8434,-145.8027 351.072,-144.1249 479.7449,-130.8221 810.7846,-153.1033 932.072,-108.1249 934.0019,-107.4092 935.9095,-106.5135 937.7673,-105.4978"/>
<polygon fill="#00ff00" stroke="#00ff00" stroke-width=".3633" points="940.1148,-108.1406 946.5124,-99.6954 936.2447,-102.3077 940.1148,-108.1406"/>
</g>
<!-- &#45;15&#45;&gt;37 -->
<g id="edge43" class="edge">
<title>&#45;15&#45;&gt;37</title>
<path fill="none" stroke="#ff0000" stroke-width=".1479" d="M303.8092,-150.6143C316.343,-148.5683 334.839,-145.7593 351.072,-144.1249 632.7668,-115.7619 708.8362,-160.4822 987.072,-108.1249 999.9745,-105.697 1013.8609,-101.4074 1025.4728,-97.3179"/>
<polygon fill="#ff0000" stroke="#ff0000" stroke-width=".1479" points="1026.8218,-100.5513 1035.0097,-93.8275 1024.4159,-93.9777 1026.8218,-100.5513"/>
</g>
<!-- &#45;15&#45;&gt;38 -->
<g id="edge44" class="edge">
<title>&#45;15&#45;&gt;38</title>
<path fill="none" stroke="#ff0000" stroke-width=".4674" stroke-dasharray="1,5" d="M303.5808,-150.8461C316.1312,-148.9162 334.7733,-146.1486 351.072,-144.1249 551.7253,-119.2111 794.22,-96.8242 876.3187,-89.4593"/>
<polygon fill="#ff0000" stroke="#ff0000" stroke-width=".4674" points="876.7399,-92.9357 886.3886,-88.5592 876.1167,-85.9634 876.7399,-92.9357"/>
</g>
<!-- &#45;16 -->
<g id="node16" class="node">
<title>&#45;16</title>
<polygon fill="#d3d3d3" stroke="#000000" points="880.572,-162.1249 851.572,-162.1249 851.572,-144.1249 880.572,-144.1249 880.572,-162.1249"/>
<text text-anchor="middle" x="866.072" y="-150.9249" font-family="Times,serif" font-size="9.00" fill="#000000">&#45;16</text>
</g>
<!-- &#45;16&#45;&gt;0 -->
<g id="edge102" class="edge">
<title>&#45;16&#45;&gt;0</title>
<path fill="none" stroke="#ff0000" stroke-width=".6152" d="M864.2593,-144.0343C861.3169,-126.3921 857.7081,-87.3479 878.072,-65.6985 909.1901,-32.616 1049.3221,-20.083 1107.074,-16.2669"/>
<polygon fill="#ff0000" stroke="#ff0000" stroke-width=".6152" points="1107.401,-19.7534 1117.1624,-15.6345 1106.963,-12.7671 1107.401,-19.7534"/>
</g>
<!-- &#45;16&#45;&gt;1 -->
<g id="edge103" class="edge">
<title>&#45;16&#45;&gt;1</title>
<path fill="none" stroke="#ff0000" stroke-width=".4778" d="M863.3453,-143.885C858.9341,-126.9855 852.1427,-90.5514 867.072,-65.6985 871.1051,-58.9845 910.9056,-38.7112 937.1163,-25.883"/>
<polygon fill="#ff0000" stroke="#ff0000" stroke-width=".4778" points="938.9291,-28.8935 946.3936,-21.3747 935.8695,-22.5975 938.9291,-28.8935"/>
</g>
<!-- &#45;16&#45;&gt;2 -->
<g id="edge104" class="edge">
<title>&#45;16&#45;&gt;2</title>
<path fill="none" stroke="#ff0000" stroke-width=".3234" d="M851.2747,-151.0549C805.3571,-144.4859 667.6186,-123.6295 655.072,-108.1249 643.2104,-93.4668 643.1412,-80.3003 655.072,-65.6985 683.3741,-31.0603 822.6437,-19.4265 880.157,-16.0591"/>
<polygon fill="#ff0000" stroke="#ff0000" stroke-width=".3234" points="880.4137,-19.5504 890.2067,-15.5071 880.0298,-12.5609 880.4137,-19.5504"/>
</g>
<!-- &#45;16&#45;&gt;36 -->
<g id="edge45" class="edge">
<title>&#45;16&#45;&gt;36</title>
<path fill="none" stroke="#00ff00" stroke-width=".3996" stroke-dasharray="1,5" d="M879.8616,-144.014C893.3105,-135.0601 914.2816,-120.9168 932.072,-108.1249 933.706,-106.95 935.384,-105.7255 937.0675,-104.4837"/>
<polygon fill="#00ff00" stroke="#00ff00" stroke-width=".3996" points="939.4456,-107.0756 945.3528,-98.2804 935.2501,-101.4721 939.4456,-107.0756"/>
</g>
<!-- &#45;16&#45;&gt;37 -->
<g id="edge46" class="edge">
<title>&#45;16&#45;&gt;37</title>
<path fill="none" stroke="#00ff00" stroke-width=".1207" d="M880.6671,-147.9293C911.7861,-136.8514 985.068,-110.7641 1024.9922,-96.5517"/>
<polygon fill="#00ff00" stroke="#00ff00" stroke-width=".1207" points="1026.3631,-99.7789 1034.6102,-93.1278 1024.0155,-93.1843 1026.3631,-99.7789"/>
</g>
<!-- &#45;16&#45;&gt;38 -->
<g id="edge47" class="edge">
<title>&#45;16&#45;&gt;38</title>
<path fill="none" stroke="#ff0000" stroke-width=".2742" stroke-dasharray="1,5" d="M871.4948,-143.9182C876.4163,-135.5627 883.8993,-122.8581 890.5531,-111.5615"/>
<polygon fill="#ff0000" stroke="#ff0000" stroke-width=".2742" points="893.5873,-113.3064 895.6467,-102.9137 887.5558,-109.7538 893.5873,-113.3064"/>
</g>
<!-- 36&#45;&gt;0 -->
<g id="edge48" class="edge">
<title>36&#45;&gt;0</title>
<path fill="none" stroke="#00ff00" stroke-width=".1226" d="M977.1928,-79.7386C1008.1277,-66.7779 1073.3773,-39.4404 1108.5011,-24.7247"/>
<polygon fill="#00ff00" stroke="#00ff00" stroke-width=".1226" points="1110.0893,-27.8541 1117.96,-20.7617 1107.3843,-21.3979 1110.0893,-27.8541"/>
</g>
<!-- 36&#45;&gt;1 -->
<g id="edge49" class="edge">
<title>36&#45;&gt;1</title>
<path fill="none" stroke="#00ff00" stroke-width=".4835" d="M960.072,-68.3538C960.072,-59.7214 960.072,-49.3235 960.072,-39.9986"/>
<polygon fill="#00ff00" stroke="#00ff00" stroke-width=".4835" points="963.5721,-39.715 960.072,-29.7151 956.5721,-39.7151 963.5721,-39.715"/>
</g>
<!-- 36&#45;&gt;2 -->
<g id="edge50" class="edge">
<title>36&#45;&gt;2</title>
<path fill="none" stroke="#ff0000" stroke-width=".1243" d="M948.676,-71.9803C940.4726,-61.232 929.3172,-46.616 920.3434,-34.8583"/>
<polygon fill="#ff0000" stroke="#ff0000" stroke-width=".1243" points="923.1174,-32.724 914.2681,-26.8982 917.553,-36.971 923.1174,-32.724"/>
</g>
<!-- 37&#45;&gt;0 -->
<g id="edge51" class="edge">
<title>37&#45;&gt;0</title>
<path fill="none" stroke="#ff0000" stroke-width=".315" d="M1066.0069,-74.3594C1079.1515,-62.519 1098.9476,-44.6871 1113.4429,-31.63"/>
<polygon fill="#ff0000" stroke="#ff0000" stroke-width=".315" points="1115.7871,-34.229 1120.8746,-24.9356 1111.1021,-29.028 1115.7871,-34.229"/>
</g>
<!-- 37&#45;&gt;1 -->
<g id="edge52" class="edge">
<title>37&#45;&gt;1</title>
<path fill="none" stroke="#ff0000" stroke-width=".2154" d="M1037.2906,-75.3336C1021.8057,-63.2045 997.3844,-44.0756 980.1586,-30.5828"/>
<polygon fill="#ff0000" stroke="#ff0000" stroke-width=".2154" points="981.9227,-27.5188 971.892,-24.1077 977.6062,-33.0295 981.9227,-27.5188"/>
</g>
<!-- 37&#45;&gt;2 -->
<g id="edge53" class="edge">
<title>37&#45;&gt;2</title>
<path fill="none" stroke="#ff0000" stroke-width=".2053" d="M1037.1181,-76.1914C1031.8561,-72.6384 1025.8196,-68.8023 1020.072,-65.6985 984.3327,-46.3987 973.0626,-46.4756 936.072,-29.6985 933.3716,-28.4737 930.5517,-27.165 927.7603,-25.8511"/>
<polygon fill="#ff0000" stroke="#ff0000" stroke-width=".2053" points="929.1279,-22.6256 918.5953,-21.4781 926.1134,-28.9433 929.1279,-22.6256"/>
</g>
<!-- 38&#45;&gt;0 -->
<g id="edge54" class="edge">
<title>38&#45;&gt;0</title>
<path fill="none" stroke="#ff0000" stroke-width=".135" d="M918.8866,-74.7276C923.1994,-71.4118 928.1279,-68.0823 933.072,-65.6985 991.6869,-37.4375 1067.8553,-23.6291 1106.7672,-18.0291"/>
<polygon fill="#ff0000" stroke="#ff0000" stroke-width=".135" points="1107.7173,-21.4316 1117.1486,-16.6046 1106.7657,-14.4965 1107.7173,-21.4316"/>
</g>
<!-- 38&#45;&gt;1 -->
<g id="edge55" class="edge">
<title>38&#45;&gt;1</title>
<path fill="none" stroke="#ff0000" stroke-width=".2836" d="M916.468,-71.9803C924.6714,-61.232 935.8268,-46.616 944.8006,-34.8583"/>
<polygon fill="#ff0000" stroke="#ff0000" stroke-width=".2836" points="947.591,-36.971 950.8759,-26.8982 942.0265,-32.724 947.591,-36.971"/>
</g>
<!-- 38&#45;&gt;2 -->
<g id="edge56" class="edge">
<title>38&#45;&gt;2</title>
<path fill="none" stroke="#ff0000" stroke-width=".3638" d="M905.072,-68.3538C905.072,-59.7214 905.072,-49.3235 905.072,-39.9986"/>
<polygon fill="#ff0000" stroke="#ff0000" stroke-width=".3638" points="908.5721,-39.715 905.072,-29.7151 901.5721,-39.7151 908.5721,-39.715"/>
</g>
<!-- 172&#45;&gt;0 -->
<g id="edge106" class="edge">
<title>172&#45;&gt;0</title>
<path fill="none" stroke="#ff0000" stroke-width=".1452" d="M1927.702,-74.1435C1922.3082,-70.8114 1916.1715,-67.6193 1910.072,-65.6985 1836.8352,-42.6357 1282.2338,-20.509 1157.1029,-15.7769"/>
<polygon fill="#ff0000" stroke="#ff0000" stroke-width=".1452" points="1157.0961,-12.2742 1146.9718,-15.3964 1156.8333,-19.2693 1157.0961,-12.2742"/>
</g>
</g>
</svg>
