<?xml version="1.0" encoding="UTF-8" standalone="no"?>
<!DOCTYPE svg PUBLIC "-//W3C//DTD SVG 1.1//EN"
 "http://www.w3.org/Graphics/SVG/1.1/DTD/svg11.dtd">
<!-- Generated by graphviz version 2.40.1 (20161225.0304)
 -->
<!-- Title: %3 Pages: 1 -->
<svg width="2829pt" height="798pt"
 viewBox="0.00 0.00 2829.00 797.54" xmlns="http://www.w3.org/2000/svg" xmlns:xlink="http://www.w3.org/1999/xlink">
<g id="graph0" class="graph" transform="scale(1 1) rotate(0) translate(4 793.5361)">
<title>%3</title>
<polygon fill="#ffffff" stroke="transparent" points="-4,4 -4,-793.5361 2825,-793.5361 2825,4 -4,4"/>
<!-- group_1_ped_1_location -->
<g id="node1" class="node">
<title>group_1_ped_1_location</title>
<polygon fill="#d3d3d3" stroke="#000000" points="392.5,-644.8965 287.5,-644.8965 287.5,-626.8965 392.5,-626.8965 392.5,-644.8965"/>
<text text-anchor="middle" x="340" y="-633.6965" font-family="Times,serif" font-size="9.00" fill="#000000">group_1_ped_1_location</text>
</g>
<!-- 0 -->
<g id="node26" class="node">
<title>0</title>
<ellipse fill="#add8e6" stroke="#000000" cx="1230" cy="-165.3381" rx="14.7" ry="14.7"/>
<text text-anchor="middle" x="1230" y="-163.1381" font-family="Times,serif" font-size="9.00" fill="#000000">0</text>
</g>
<!-- group_1_ped_1_location&#45;&gt;0 -->
<g id="edge1" class="edge">
<title>group_1_ped_1_location&#45;&gt;0</title>
<path fill="none" stroke="#00ff00" stroke-width=".2584" d="M345.3262,-626.6355C370.7204,-583.2739 484.162,-398.3375 626,-300.9777 665.6351,-273.7716 686.5595,-289.3456 728,-264.9777 752.5435,-250.5456 750.056,-234.2806 776,-222.5513 853.7648,-187.3938 1120.7851,-170.95 1204.6116,-166.5723"/>
<polygon fill="#00ff00" stroke="#00ff00" stroke-width=".2584" points="1204.9521,-170.0596 1214.761,-166.055 1204.5958,-163.0687 1204.9521,-170.0596"/>
</g>
<!-- 1 -->
<g id="node27" class="node">
<title>1</title>
<ellipse fill="#add8e6" stroke="#000000" cx="1191" cy="-557.4701" rx="14.7" ry="14.7"/>
<text text-anchor="middle" x="1191" y="-555.2701" font-family="Times,serif" font-size="9.00" fill="#000000">1</text>
</g>
<!-- group_1_ped_1_location&#45;&gt;1 -->
<g id="edge2" class="edge">
<title>group_1_ped_1_location&#45;&gt;1</title>
<path fill="none" stroke="#00ff00" stroke-width=".5377" stroke-dasharray="1,5" d="M376.8326,-626.8583C395.6288,-622.5588 418.919,-617.7086 440,-614.6833 513.1911,-604.1798 1043.322,-567.573 1165.7972,-559.1897"/>
<polygon fill="#00ff00" stroke="#00ff00" stroke-width=".5377" points="1166.3116,-562.6628 1176.0495,-558.4887 1165.834,-555.6791 1166.3116,-562.6628"/>
</g>
<!-- 2 -->
<g id="node28" class="node">
<title>2</title>
<ellipse fill="#add8e6" stroke="#000000" cx="2025" cy="-14.8492" rx="14.7" ry="14.7"/>
<text text-anchor="middle" x="2025" y="-12.6492" font-family="Times,serif" font-size="9.00" fill="#000000">2</text>
</g>
<!-- group_1_ped_1_location&#45;&gt;2 -->
<g id="edge3" class="edge">
<title>group_1_ped_1_location&#45;&gt;2</title>
<path fill="none" stroke="#00ff00" stroke-width=".7913" stroke-dasharray="1,5" d="M340,-626.7032C340,-602.5221 340,-535.1404 340,-479.0437 340,-479.0437 340,-479.0437 340,-400.6173 340,-250.8095 267.8112,-167.1915 378,-65.6985 409.186,-36.9736 1795.8236,-17.8336 1999.9996,-15.1689"/>
<polygon fill="#00ff00" stroke="#00ff00" stroke-width=".7913" points="2000.0989,-18.668 2010.0527,-15.0386 2000.0082,-11.6686 2000.0989,-18.668"/>
</g>
<!-- 997 -->
<g id="node46" class="node">
<title>997</title>
<ellipse fill="#ffffff" stroke="#000000" cx="275" cy="-165.3381" rx="21.4286" ry="21.4286"/>
<text text-anchor="middle" x="275" y="-163.1381" font-family="Times,serif" font-size="9.00" fill="#000000">997</text>
</g>
<!-- group_1_ped_1_location&#45;&gt;997 -->
<g id="edge132" class="edge">
<title>group_1_ped_1_location&#45;&gt;997</title>
<path fill="none" stroke="#00ff00" stroke-width=".3837" d="M337.3833,-626.6535C334.2805,-615.4015 329.1357,-595.7822 326,-578.6833 300.0635,-437.2542 283.6476,-266.1286 277.6116,-196.7844"/>
<polygon fill="#00ff00" stroke="#00ff00" stroke-width=".3837" points="281.0755,-196.2128 276.7322,-186.5491 274.1012,-196.8121 281.0755,-196.2128"/>
</g>
<!-- 111 -->
<g id="node48" class="node">
<title>111</title>
<ellipse fill="#ffffff" stroke="#000000" cx="1163" cy="-400.6173" rx="21.4286" ry="21.4286"/>
<text text-anchor="middle" x="1163" y="-398.4173" font-family="Times,serif" font-size="9.00" fill="#000000">111</text>
</g>
<!-- group_1_ped_1_location&#45;&gt;111 -->
<g id="edge100" class="edge">
<title>group_1_ped_1_location&#45;&gt;111</title>
<path fill="none" stroke="#ff0000" stroke-width=".2752" d="M371.5075,-626.8892C502.5626,-589.4232 1003.6836,-446.1627 1132.6106,-409.305"/>
<polygon fill="#ff0000" stroke="#ff0000" stroke-width=".2752" points="1133.9322,-412.5675 1142.585,-406.4536 1132.0081,-405.8371 1133.9322,-412.5675"/>
</g>
<!-- group_1_ped_1_age -->
<g id="node2" class="node">
<title>group_1_ped_1_age</title>
<polygon fill="#d3d3d3" stroke="#000000" points="269.5,-644.8965 180.5,-644.8965 180.5,-626.8965 269.5,-626.8965 269.5,-644.8965"/>
<text text-anchor="middle" x="225" y="-633.6965" font-family="Times,serif" font-size="9.00" fill="#000000">group_1_ped_1_age</text>
</g>
<!-- group_1_ped_1_age&#45;&gt;0 -->
<g id="edge4" class="edge">
<title>group_1_ped_1_age&#45;&gt;0</title>
<path fill="none" stroke="#ff0000" stroke-width=".1147" d="M232.8035,-626.8803C248.2598,-609.1297 284.0398,-568.5702 316,-536.2569 423.7512,-427.3154 434.9518,-376.9826 568,-300.9777 617.0885,-272.9355 642.2118,-295.1826 690,-264.9777 711.3979,-251.453 705.511,-234.1717 728,-222.5513 770.7743,-200.4491 1109.4262,-174.1752 1204.9775,-167.1426"/>
<polygon fill="#ff0000" stroke="#ff0000" stroke-width=".1147" points="1205.4322,-170.6188 1215.1505,-166.3992 1204.922,-163.6374 1205.4322,-170.6188"/>
</g>
<!-- group_1_ped_1_age&#45;&gt;1 -->
<g id="edge5" class="edge">
<title>group_1_ped_1_age&#45;&gt;1</title>
<path fill="none" stroke="#ff0000" stroke-width=".3573" stroke-dasharray="1,5" d="M243.6663,-626.7296C253.6145,-622.2839 266.2043,-617.3415 278,-614.6833 454.1373,-574.9899 1037.6188,-560.673 1165.9108,-557.9674"/>
<polygon fill="#ff0000" stroke="#ff0000" stroke-width=".3573" points="1166.0213,-561.4659 1175.9469,-557.76 1165.8767,-554.4674 1166.0213,-561.4659"/>
</g>
<!-- group_1_ped_1_age&#45;&gt;2 -->
<g id="edge6" class="edge">
<title>group_1_ped_1_age&#45;&gt;2</title>
<path fill="none" stroke="#00ff00" stroke-width=".2855" d="M225.0995,-626.7033C225.3525,-602.5226 226,-535.1415 226,-479.0437 226,-479.0437 226,-479.0437 226,-165.3381 226,-115.1787 236.3835,-92.1522 279,-65.6985 317.2649,-41.946 1788.8209,-18.4774 1999.8921,-15.2305"/>
<polygon fill="#00ff00" stroke="#00ff00" stroke-width=".2855" points="2000.0507,-18.7286 2009.9959,-15.0758 1999.9434,-11.7294 2000.0507,-18.7286"/>
</g>
<!-- group_1_ped_2_location -->
<g id="node3" class="node">
<title>group_1_ped_2_location</title>
<polygon fill="#d3d3d3" stroke="#000000" points="2473.5,-644.8965 2368.5,-644.8965 2368.5,-626.8965 2473.5,-626.8965 2473.5,-644.8965"/>
<text text-anchor="middle" x="2421" y="-633.6965" font-family="Times,serif" font-size="9.00" fill="#000000">group_1_ped_2_location</text>
</g>
<!-- group_1_ped_2_location&#45;&gt;0 -->
<g id="edge7" class="edge">
<title>group_1_ped_2_location&#45;&gt;0</title>
<path fill="none" stroke="#00ff00" stroke-width=".4608" d="M2412.129,-626.6549C2401.3641,-615.4043 2382.7042,-595.7864 2367,-578.6833 2250.3618,-451.6555 2254.0205,-370.0433 2096,-300.9777 1976.9922,-248.9633 1924.395,-318.3721 1806,-264.9777 1780.0452,-253.2725 1784.0452,-234.0541 1758,-222.5513 1666.0094,-181.9237 1347.4353,-168.9929 1255.2019,-166.0564"/>
<polygon fill="#00ff00" stroke="#00ff00" stroke-width=".4608" points="1255.2091,-162.5551 1245.1064,-165.7467 1254.9943,-169.5518 1255.2091,-162.5551"/>
</g>
<!-- group_1_ped_2_location&#45;&gt;1 -->
<g id="edge8" class="edge">
<title>group_1_ped_2_location&#45;&gt;1</title>
<path fill="none" stroke="#ff0000" stroke-width=".6405" d="M2370.3629,-626.8691C2344.3337,-622.5452 2312.0558,-617.6701 2283,-614.6833 1858.1063,-571.0064 1336.5847,-559.9099 1216.4805,-557.8626"/>
<polygon fill="#ff0000" stroke="#ff0000" stroke-width=".6405" points="1216.1837,-554.3573 1206.1274,-557.6919 1216.0683,-561.3563 1216.1837,-554.3573"/>
</g>
<!-- group_1_ped_2_location&#45;&gt;2 -->
<g id="edge9" class="edge">
<title>group_1_ped_2_location&#45;&gt;2</title>
<path fill="none" stroke="#ff0000" stroke-width=".3879" stroke-dasharray="1,5" d="M2416.87,-626.5607C2406.65,-602.5801 2381,-536.6547 2381,-479.0437 2381,-479.0437 2381,-479.0437 2381,-165.3381 2381,-119.7873 2390.5392,-96.5205 2357,-65.6985 2312.1702,-24.5006 2119.5583,-16.6796 2050.0971,-15.1961"/>
<polygon fill="#ff0000" stroke="#ff0000" stroke-width=".3879" points="2050.1116,-11.6958 2040.0479,-15.0083 2049.9807,-18.6946 2050.1116,-11.6958"/>
</g>
<!-- 755 -->
<g id="node50" class="node">
<title>755</title>
<ellipse fill="#ffffff" stroke="#000000" cx="2566" cy="-86.9117" rx="21.4286" ry="21.4286"/>
<text text-anchor="middle" x="2566" y="-84.7117" font-family="Times,serif" font-size="9.00" fill="#000000">755</text>
</g>
<!-- group_1_ped_2_location&#45;&gt;755 -->
<g id="edge110" class="edge">
<title>group_1_ped_2_location&#45;&gt;755</title>
<path fill="none" stroke="#ff0000" stroke-width=".356" d="M2422.8512,-626.794C2426.459,-609.2262 2434.7982,-569.4489 2443,-536.2569 2482.2046,-377.5983 2536.1499,-189.456 2557.1414,-117.2184"/>
<polygon fill="#ff0000" stroke="#ff0000" stroke-width=".356" points="2560.5595,-117.9984 2559.9937,-107.4187 2553.8384,-116.0421 2560.5595,-117.9984"/>
</g>
<!-- group_1_ped_2_age -->
<g id="node4" class="node">
<title>group_1_ped_2_age</title>
<polygon fill="#d3d3d3" stroke="#000000" points="1936.5,-644.8965 1847.5,-644.8965 1847.5,-626.8965 1936.5,-626.8965 1936.5,-644.8965"/>
<text text-anchor="middle" x="1892" y="-633.6965" font-family="Times,serif" font-size="9.00" fill="#000000">group_1_ped_2_age</text>
</g>
<!-- group_1_ped_2_age&#45;&gt;0 -->
<g id="edge10" class="edge">
<title>group_1_ped_2_age&#45;&gt;0</title>
<path fill="none" stroke="#ff0000" stroke-width=".2139" d="M1855.4177,-626.8301C1838.5971,-622.8241 1818.3465,-618.2296 1800,-614.6833 1698.4136,-595.0472 1658.7154,-631.9276 1570,-578.6833 1553.5564,-568.8144 1442,-402.0115 1442,-400.6173 1442,-400.6173 1442,-400.6173 1442,-322.1909 1442,-273.5998 1432.9378,-255.2556 1397,-222.5513 1356.3275,-185.5384 1290.6249,-172.3034 1254.9632,-167.6975"/>
<polygon fill="#ff0000" stroke="#ff0000" stroke-width=".2139" points="1255.2589,-164.2084 1244.9212,-166.5284 1254.4493,-171.1615 1255.2589,-164.2084"/>
</g>
<!-- group_1_ped_2_age&#45;&gt;1 -->
<g id="edge11" class="edge">
<title>group_1_ped_2_age&#45;&gt;1</title>
<path fill="none" stroke="#00ff00" stroke-width=".1474" d="M1857.7008,-626.8455C1840.4894,-622.5962 1819.2561,-617.7937 1800,-614.6833 1575.2581,-578.3813 1299.8582,-562.7577 1216.2412,-558.6368"/>
<polygon fill="#00ff00" stroke="#00ff00" stroke-width=".1474" points="1216.3173,-555.1365 1206.1602,-558.1505 1215.9799,-562.1283 1216.3173,-555.1365"/>
</g>
<!-- group_1_ped_2_age&#45;&gt;2 -->
<g id="edge12" class="edge">
<title>group_1_ped_2_age&#45;&gt;2</title>
<path fill="none" stroke="#ff0000" stroke-width=".8969" stroke-dasharray="1,5" d="M1894.6621,-626.4848C1904.2763,-592.7257 1938.4613,-474.6702 1973,-379.4041 1991.7391,-327.7171 2008.8156,-318.8071 2020,-264.9777 2036.8152,-184.048 2031.393,-85.2142 2027.503,-39.8203"/>
<polygon fill="#ff0000" stroke="#ff0000" stroke-width=".8969" points="2030.976,-39.3639 2026.5853,-29.7216 2024.0047,-39.9974 2030.976,-39.3639"/>
</g>
<!-- 518 -->
<g id="node30" class="node">
<title>518</title>
<ellipse fill="#ffffff" stroke="#000000" cx="1628" cy="-400.6173" rx="21.4286" ry="21.4286"/>
<text text-anchor="middle" x="1628" y="-398.4173" font-family="Times,serif" font-size="9.00" fill="#000000">518</text>
</g>
<!-- group_1_ped_2_age&#45;&gt;518 -->
<g id="edge92" class="edge">
<title>group_1_ped_2_age&#45;&gt;518</title>
<path fill="none" stroke="#00ff00" stroke-width=".2027" stroke-dasharray="1,5" d="M1868.0228,-626.8268C1857.36,-622.9099 1844.6151,-618.3867 1833,-614.6833 1776.2888,-596.6016 1747.5306,-619.2813 1704,-578.6833 1662.3072,-539.7994 1684.8961,-509.5918 1661,-457.8305 1656.2651,-447.5743 1650.2874,-436.739 1644.7246,-427.2892"/>
<polygon fill="#00ff00" stroke="#00ff00" stroke-width=".2027" points="1647.7241,-425.4854 1639.5725,-418.7177 1641.7245,-429.0917 1647.7241,-425.4854"/>
</g>
<!-- group_1_ped_3_location -->
<g id="node5" class="node">
<title>group_1_ped_3_location</title>
<polygon fill="#d3d3d3" stroke="#000000" points="2273.5,-644.8965 2168.5,-644.8965 2168.5,-626.8965 2273.5,-626.8965 2273.5,-644.8965"/>
<text text-anchor="middle" x="2221" y="-633.6965" font-family="Times,serif" font-size="9.00" fill="#000000">group_1_ped_3_location</text>
</g>
<!-- group_1_ped_3_location&#45;&gt;0 -->
<g id="edge13" class="edge">
<title>group_1_ped_3_location&#45;&gt;0</title>
<path fill="none" stroke="#00ff00" stroke-width=".3292" d="M2217.7016,-626.8907C2207.2413,-599.2112 2172.5529,-513.8731 2123,-457.8305 2044.1735,-368.6805 2014.9566,-348.8295 1906,-300.9777 1832.8976,-268.8724 1801.4429,-300.6236 1730,-264.9777 1704.5229,-252.2661 1707.9408,-234.2877 1682,-222.5513 1604.5821,-187.525 1338.7352,-170.9922 1255.2769,-166.5825"/>
<polygon fill="#00ff00" stroke="#00ff00" stroke-width=".3292" points="1255.3391,-163.0811 1245.1721,-166.0613 1254.9785,-170.0718 1255.3391,-163.0811"/>
</g>
<!-- group_1_ped_3_location&#45;&gt;1 -->
<g id="edge14" class="edge">
<title>group_1_ped_3_location&#45;&gt;1</title>
<path fill="none" stroke="#ff0000" stroke-width=".3708" d="M2199.6655,-626.8526C2188.1351,-622.3827 2173.5249,-617.3803 2160,-614.6833 1971.5099,-577.0971 1349.6079,-561.0684 1216.2999,-558.0213"/>
<polygon fill="#ff0000" stroke="#ff0000" stroke-width=".3708" points="1215.988,-554.5135 1205.9118,-557.7877 1215.8306,-561.5117 1215.988,-554.5135"/>
</g>
<!-- group_1_ped_3_location&#45;&gt;2 -->
<g id="edge15" class="edge">
<title>group_1_ped_3_location&#45;&gt;2</title>
<path fill="none" stroke="#ff0000" stroke-width=".5784" stroke-dasharray="1,5" d="M2223.4057,-626.5571C2231.3132,-595.0084 2256,-489.4049 2256,-400.6173 2256,-400.6173 2256,-400.6173 2256,-165.3381 2256,-67.7848 2109.5795,-30.1775 2049.8839,-18.8989"/>
<polygon fill="#ff0000" stroke="#ff0000" stroke-width=".5784" points="2050.2623,-15.411 2039.8015,-17.0908 2049.0266,-22.301 2050.2623,-15.411"/>
</g>
<!-- group_1_ped_3_age -->
<g id="node6" class="node">
<title>group_1_ped_3_age</title>
<polygon fill="#d3d3d3" stroke="#000000" points="2043.5,-644.8965 1954.5,-644.8965 1954.5,-626.8965 2043.5,-626.8965 2043.5,-644.8965"/>
<text text-anchor="middle" x="1999" y="-633.6965" font-family="Times,serif" font-size="9.00" fill="#000000">group_1_ped_3_age</text>
</g>
<!-- group_1_ped_3_age&#45;&gt;1 -->
<g id="edge16" class="edge">
<title>group_1_ped_3_age&#45;&gt;1</title>
<path fill="none" stroke="#ff0000" stroke-width=".1171" d="M1980.3192,-626.7929C1970.3671,-622.3644 1957.7781,-617.4185 1946,-614.6833 1873.5942,-597.8691 1339.7383,-566.1032 1216.3848,-558.9329"/>
<polygon fill="#ff0000" stroke="#ff0000" stroke-width=".1171" points="1216.2446,-555.419 1206.0588,-558.3345 1215.8395,-562.4073 1216.2446,-555.419"/>
</g>
<!-- group_1_ped_3_age&#45;&gt;2 -->
<g id="edge17" class="edge">
<title>group_1_ped_3_age&#45;&gt;2</title>
<path fill="none" stroke="#ff0000" stroke-width=".7691" d="M1999.7692,-626.7091C2001.3865,-608.9963 2005.6945,-568.9818 2014,-536.2569 2048.0143,-402.236 2120,-382.0345 2120,-243.7645 2120,-243.7645 2120,-243.7645 2120,-165.3381 2120,-119.7873 2121.4496,-103.4767 2096,-65.6985 2084.0746,-47.996 2063.7936,-34.3858 2047.9534,-25.7206"/>
<polygon fill="#ff0000" stroke="#ff0000" stroke-width=".7691" points="2049.2687,-22.4604 2038.7789,-20.972 2046.051,-28.6771 2049.2687,-22.4604"/>
</g>
<!-- 386 -->
<g id="node29" class="node">
<title>386</title>
<ellipse fill="#ffffff" stroke="#000000" cx="1652" cy="-322.1909" rx="21.4286" ry="21.4286"/>
<text text-anchor="middle" x="1652" y="-319.9909" font-family="Times,serif" font-size="9.00" fill="#000000">386</text>
</g>
<!-- group_1_ped_3_age&#45;&gt;386 -->
<g id="edge79" class="edge">
<title>group_1_ped_3_age&#45;&gt;386</title>
<path fill="none" stroke="#ff0000" stroke-width=".3413" d="M1978.9229,-626.8495C1969.1405,-622.7038 1957.1148,-617.9887 1946,-614.6833 1867.8004,-591.4277 1829.6945,-629.6638 1766,-578.6833 1693.953,-521.0177 1666.1154,-408.309 1656.5056,-353.5491"/>
<polygon fill="#ff0000" stroke="#ff0000" stroke-width=".3413" points="1659.9116,-352.6939 1654.819,-343.4033 1653.0063,-353.8419 1659.9116,-352.6939"/>
</g>
<!-- 428 -->
<g id="node36" class="node">
<title>428</title>
<ellipse fill="#ffffff" stroke="#000000" cx="1505" cy="-400.6173" rx="21.4286" ry="21.4286"/>
<text text-anchor="middle" x="1505" y="-398.4173" font-family="Times,serif" font-size="9.00" fill="#000000">428</text>
</g>
<!-- group_1_ped_3_age&#45;&gt;428 -->
<g id="edge81" class="edge">
<title>group_1_ped_3_age&#45;&gt;428</title>
<path fill="none" stroke="#ff0000" stroke-width=".3938" d="M1979.4913,-626.8193C1969.6376,-622.5635 1957.3849,-617.7632 1946,-614.6833 1764.2048,-565.5036 1662.8357,-641.2682 1538,-500.2569 1521.1838,-481.2618 1512.8981,-453.4589 1508.8381,-432.0456"/>
<polygon fill="#ff0000" stroke="#ff0000" stroke-width=".3938" points="1512.2776,-431.3934 1507.1656,-422.1135 1505.3748,-432.5559 1512.2776,-431.3934"/>
</g>
<!-- 979 -->
<g id="node41" class="node">
<title>979</title>
<ellipse fill="#ffffff" stroke="#000000" cx="1767" cy="-479.0437" rx="21.4286" ry="21.4286"/>
<text text-anchor="middle" x="1767" y="-476.8437" font-family="Times,serif" font-size="9.00" fill="#000000">979</text>
</g>
<!-- group_1_ped_3_age&#45;&gt;979 -->
<g id="edge130" class="edge">
<title>group_1_ped_3_age&#45;&gt;979</title>
<path fill="none" stroke="#ff0000" stroke-width=".3258" d="M1978.6251,-626.8951C1968.8784,-622.8086 1956.968,-618.1299 1946,-614.6833 1878.5302,-593.4818 1841.2119,-628.4874 1791,-578.6833 1773.1955,-561.0234 1767.7208,-532.6085 1766.3964,-510.6332"/>
<polygon fill="#ff0000" stroke="#ff0000" stroke-width=".3258" points="1769.8874,-510.3109 1766.0438,-500.4379 1762.8916,-510.553 1769.8874,-510.3109"/>
</g>
<!-- group_1_ped_4_location -->
<g id="node7" class="node">
<title>group_1_ped_4_location</title>
<polygon fill="#d3d3d3" stroke="#000000" points="567.5,-723.3229 462.5,-723.3229 462.5,-705.3229 567.5,-705.3229 567.5,-723.3229"/>
<text text-anchor="middle" x="515" y="-712.1229" font-family="Times,serif" font-size="9.00" fill="#000000">group_1_ped_4_location</text>
</g>
<!-- group_1_ped_4_location&#45;&gt;0 -->
<g id="edge18" class="edge">
<title>group_1_ped_4_location&#45;&gt;0</title>
<path fill="none" stroke="#ff0000" stroke-width=".4607" d="M494.447,-705.2571C476.3788,-696.0352 451.2593,-679.8603 440,-657.1097 431.6362,-640.21 432.9907,-632.1883 440,-614.6833 451.1908,-586.7356 787.1986,-236.2623 814,-222.5513 883.2701,-187.1142 1126.2535,-170.9954 1205.0948,-166.617"/>
<polygon fill="#ff0000" stroke="#ff0000" stroke-width=".4607" points="1205.2986,-170.1111 1215.0951,-166.0763 1204.9207,-163.1214 1205.2986,-170.1111"/>
</g>
<!-- group_1_ped_4_location&#45;&gt;1 -->
<g id="edge19" class="edge">
<title>group_1_ped_4_location&#45;&gt;1</title>
<path fill="none" stroke="#ff0000" stroke-width=".5425" d="M567.7012,-713.4645C690.6977,-710.7566 993.1396,-699.8239 1084,-657.1097 1108.2967,-645.6877 1107.4307,-633.0635 1127,-614.6833 1141.7928,-600.7894 1158.9566,-585.4885 1171.7835,-574.2086"/>
<polygon fill="#ff0000" stroke="#ff0000" stroke-width=".5425" points="1174.303,-576.6545 1179.5178,-567.4319 1169.6899,-571.3895 1174.303,-576.6545"/>
</g>
<!-- group_1_ped_4_location&#45;&gt;2 -->
<g id="edge20" class="edge">
<title>group_1_ped_4_location&#45;&gt;2</title>
<path fill="none" stroke="#ff0000" stroke-width=".335" d="M462.4709,-711.3418C369.0739,-705.2866 178.5269,-689.3052 121,-657.1097 70.7051,-628.9618 38,-615.1059 38,-557.4701 38,-557.4701 38,-557.4701 38,-165.3381 38,-104.4572 76.4274,-90.5614 132,-65.6985 221.3208,-25.7369 1782.1521,-16.1226 1999.8667,-14.974"/>
<polygon fill="#ff0000" stroke="#ff0000" stroke-width=".335" points="2000.0082,-18.4735 2009.99,-14.9217 1999.972,-11.4736 2000.0082,-18.4735"/>
</g>
<!-- 236 -->
<g id="node47" class="node">
<title>236</title>
<ellipse fill="#ffffff" stroke="#000000" cx="1191" cy="-635.8965" rx="21.4286" ry="21.4286"/>
<text text-anchor="middle" x="1191" y="-633.6965" font-family="Times,serif" font-size="9.00" fill="#000000">236</text>
</g>
<!-- group_1_ped_4_location&#45;&gt;236 -->
<g id="edge86" class="edge">
<title>group_1_ped_4_location&#45;&gt;236</title>
<path fill="none" stroke="#00ff00" stroke-width=".441" d="M567.8979,-712.6464C673.3953,-708.5697 917.099,-695.4763 1118,-657.1097 1132.3207,-654.3749 1147.8753,-650.0502 1160.9323,-646.0171"/>
<polygon fill="#00ff00" stroke="#00ff00" stroke-width=".441" points="1162.3274,-649.2463 1170.797,-642.881 1160.2066,-642.5753 1162.3274,-649.2463"/>
</g>
<!-- group_1_ped_4_age -->
<g id="node8" class="node">
<title>group_1_ped_4_age</title>
<polygon fill="#d3d3d3" stroke="#000000" points="538.5,-644.8965 449.5,-644.8965 449.5,-626.8965 538.5,-626.8965 538.5,-644.8965"/>
<text text-anchor="middle" x="494" y="-633.6965" font-family="Times,serif" font-size="9.00" fill="#000000">group_1_ped_4_age</text>
</g>
<!-- group_1_ped_4_age&#45;&gt;0 -->
<g id="edge21" class="edge">
<title>group_1_ped_4_age&#45;&gt;0</title>
<path fill="none" stroke="#ff0000" stroke-width=".1344" d="M501.6731,-626.8102C551.913,-567.3615 832.6049,-235.9158 857,-222.5513 917.5267,-189.3927 1131.0636,-172.0614 1204.7648,-166.9646"/>
<polygon fill="#ff0000" stroke="#ff0000" stroke-width=".1344" points="1205.2284,-170.4414 1214.97,-166.2759 1204.757,-163.4573 1205.2284,-170.4414"/>
</g>
<!-- group_1_ped_4_age&#45;&gt;1 -->
<g id="edge22" class="edge">
<title>group_1_ped_4_age&#45;&gt;1</title>
<path fill="none" stroke="#00ff00" stroke-width=".2393" stroke-dasharray="1,5" d="M512.6956,-626.8556C522.6517,-622.4444 535.2399,-617.4948 547,-614.6833 608.084,-600.08 1054.6017,-567.2803 1165.9162,-559.2634"/>
<polygon fill="#00ff00" stroke="#00ff00" stroke-width=".2393" points="1166.4462,-562.7344 1176.1697,-558.5269 1165.9446,-555.7524 1166.4462,-562.7344"/>
</g>
<!-- group_1_ped_4_age&#45;&gt;2 -->
<g id="edge23" class="edge">
<title>group_1_ped_4_age&#45;&gt;2</title>
<path fill="none" stroke="#00ff00" stroke-width=".5331" d="M490.5695,-626.7237C465.9115,-560.0698 318.9794,-150.3274 401,-65.6985 430.0667,-35.7075 1796.0043,-17.6791 1999.7047,-15.1554"/>
<polygon fill="#00ff00" stroke="#00ff00" stroke-width=".5331" points="2000.0386,-18.6517 2009.9948,-15.029 1999.9525,-11.6522 2000.0386,-18.6517"/>
</g>
<!-- group_2_ped_1_location -->
<g id="node9" class="node">
<title>group_2_ped_1_location</title>
<polygon fill="#d3d3d3" stroke="#000000" points="1463.5,-789.5361 1358.5,-789.5361 1358.5,-771.5361 1463.5,-771.5361 1463.5,-789.5361"/>
<text text-anchor="middle" x="1411" y="-778.3361" font-family="Times,serif" font-size="9.00" fill="#000000">group_2_ped_1_location</text>
</g>
<!-- group_2_ped_1_location&#45;&gt;0 -->
<g id="edge24" class="edge">
<title>group_2_ped_1_location&#45;&gt;0</title>
<path fill="none" stroke="#ff0000" stroke-width=".6412" d="M1358.4417,-776.3585C1286.2441,-770.1211 1152.5286,-756.78 1040,-735.5361 902.8872,-709.6511 821.4585,-767.413 736,-657.1097 701.6752,-612.8059 745.8076,-585.8047 772,-536.2569 810.0359,-464.305 894.7167,-269.7778 961,-222.5513 1000.3622,-194.506 1145.7022,-175.037 1204.7819,-168.1194"/>
<polygon fill="#ff0000" stroke="#ff0000" stroke-width=".6412" points="1205.542,-171.5553 1215.0784,-166.9394 1204.7449,-164.6008 1205.542,-171.5553"/>
</g>
<!-- group_2_ped_1_location&#45;&gt;1 -->
<g id="edge25" class="edge">
<title>group_2_ped_1_location&#45;&gt;1</title>
<path fill="none" stroke="#00ff00" stroke-width=".5952" d="M1415.0615,-771.3238C1426.4655,-743.8893 1455.518,-661.7192 1417,-614.6833 1365.5864,-551.9001 1315.2502,-603.5327 1238,-578.6833 1229.7307,-576.0233 1220.9779,-572.3322 1213.2961,-568.7738"/>
<polygon fill="#00ff00" stroke="#00ff00" stroke-width=".5952" points="1214.7843,-565.6058 1204.2555,-564.425 1211.7499,-571.914 1214.7843,-565.6058"/>
</g>
<!-- group_2_ped_1_location&#45;&gt;2 -->
<g id="edge26" class="edge">
<title>group_2_ped_1_location&#45;&gt;2</title>
<path fill="none" stroke="#00ff00" stroke-width=".3601" d="M1463.7775,-779.4113C1672.41,-774.8231 2430.5312,-756.7551 2477,-735.5361 2532.3804,-710.248 2571,-696.7774 2571,-635.8965 2571,-635.8965 2571,-635.8965 2571,-400.6173 2571,-324.4435 2554.6793,-116.5896 2498,-65.6985 2464.4131,-35.5416 2143.2572,-19.8086 2050.1691,-15.8565"/>
<polygon fill="#00ff00" stroke="#00ff00" stroke-width=".3601" points="2050.119,-12.3514 2039.9821,-15.4327 2049.828,-19.3454 2050.119,-12.3514"/>
</g>
<!-- 821 -->
<g id="node37" class="node">
<title>821</title>
<ellipse fill="#ffffff" stroke="#000000" cx="1387" cy="-635.8965" rx="21.4286" ry="21.4286"/>
<text text-anchor="middle" x="1387" y="-633.6965" font-family="Times,serif" font-size="9.00" fill="#000000">821</text>
</g>
<!-- group_2_ped_1_location&#45;&gt;821 -->
<g id="edge118" class="edge">
<title>group_2_ped_1_location&#45;&gt;821</title>
<path fill="none" stroke="#00ff00" stroke-width=".3029" d="M1409.4987,-771.4883C1406.1003,-751.0074 1397.6858,-700.2961 1392.1657,-667.0284"/>
<polygon fill="#00ff00" stroke="#00ff00" stroke-width=".3029" points="1395.575,-666.1928 1390.4852,-656.9006 1388.6694,-667.3387 1395.575,-666.1928"/>
</g>
<!-- 888 -->
<g id="node52" class="node">
<title>888</title>
<ellipse fill="#ffffff" stroke="#000000" cx="1362" cy="-714.3229" rx="21.4286" ry="21.4286"/>
<text text-anchor="middle" x="1362" y="-712.1229" font-family="Times,serif" font-size="9.00" fill="#000000">888</text>
</g>
<!-- group_2_ped_1_location&#45;&gt;888 -->
<g id="edge123" class="edge">
<title>group_2_ped_1_location&#45;&gt;888</title>
<path fill="none" stroke="#ff0000" stroke-width=".1101" d="M1404.1868,-771.3295C1398.1517,-763.1744 1389.0508,-750.8764 1380.845,-739.788"/>
<polygon fill="#ff0000" stroke="#ff0000" stroke-width=".1101" points="1383.5722,-737.5895 1374.8102,-731.6332 1377.9454,-741.7535 1383.5722,-737.5895"/>
</g>
<!-- group_2_ped_1_age -->
<g id="node10" class="node">
<title>group_2_ped_1_age</title>
<polygon fill="#d3d3d3" stroke="#000000" points="1322.5,-723.3229 1233.5,-723.3229 1233.5,-705.3229 1322.5,-705.3229 1322.5,-723.3229"/>
<text text-anchor="middle" x="1278" y="-712.1229" font-family="Times,serif" font-size="9.00" fill="#000000">group_2_ped_1_age</text>
</g>
<!-- group_2_ped_1_age&#45;&gt;0 -->
<g id="edge27" class="edge">
<title>group_2_ped_1_age&#45;&gt;0</title>
<path fill="none" stroke="#ff0000" stroke-width=".1966" stroke-dasharray="1,5" d="M1233.2472,-706.271C1207.9871,-701.9288 1175.8025,-696.7333 1147,-693.1097 1102.7249,-687.5397 777.1066,-690.0476 747,-657.1097 734.2783,-643.1916 740.3097,-632.3127 747,-614.6833 757.1611,-587.9081 902.9437,-446.1918 918,-421.8305 968.1758,-340.6457 925.9606,-285.1525 998,-222.5513 1029.1261,-195.5032 1151.8212,-175.9613 1205.0933,-168.5792"/>
<polygon fill="#ff0000" stroke="#ff0000" stroke-width=".1966" points="1205.6231,-172.0395 1215.0625,-167.2282 1204.683,-165.1029 1205.6231,-172.0395"/>
</g>
<!-- group_2_ped_1_age&#45;&gt;1 -->
<g id="edge28" class="edge">
<title>group_2_ped_1_age&#45;&gt;1</title>
<path fill="none" stroke="#ff0000" stroke-width=".9327" d="M1277.5742,-705.1315C1276.3545,-686.7211 1271.6879,-644.5332 1254,-614.6833 1243.6202,-597.1664 1226.1585,-581.9289 1212.2478,-571.5931"/>
<polygon fill="#ff0000" stroke="#ff0000" stroke-width=".9327" points="1213.907,-568.4782 1203.7294,-565.5341 1209.8497,-574.1824 1213.907,-568.4782"/>
</g>
<!-- 715 -->
<g id="node40" class="node">
<title>715</title>
<ellipse fill="#ffffff" stroke="#000000" cx="1327" cy="-635.8965" rx="21.4286" ry="21.4286"/>
<text text-anchor="middle" x="1327" y="-633.6965" font-family="Times,serif" font-size="9.00" fill="#000000">715</text>
</g>
<!-- group_2_ped_1_age&#45;&gt;715 -->
<g id="edge104" class="edge">
<title>group_2_ped_1_age&#45;&gt;715</title>
<path fill="none" stroke="#ff0000" stroke-width=".2916" d="M1283.8134,-705.0184C1290.2794,-694.6693 1301.0208,-677.4773 1310.1732,-662.8285"/>
<polygon fill="#ff0000" stroke="#ff0000" stroke-width=".2916" points="1313.2836,-664.4556 1315.614,-654.1202 1307.347,-660.7464 1313.2836,-664.4556"/>
</g>
<!-- group_2_ped_2_location -->
<g id="node11" class="node">
<title>group_2_ped_2_location</title>
<polygon fill="#d3d3d3" stroke="#000000" points="609.5,-252.7645 504.5,-252.7645 504.5,-234.7645 609.5,-234.7645 609.5,-252.7645"/>
<text text-anchor="middle" x="557" y="-241.5645" font-family="Times,serif" font-size="9.00" fill="#000000">group_2_ped_2_location</text>
</g>
<!-- group_2_ped_2_location&#45;&gt;0 -->
<g id="edge29" class="edge">
<title>group_2_ped_2_location&#45;&gt;0</title>
<path fill="none" stroke="#ff0000" stroke-width=".6639" stroke-dasharray="1,5" d="M581.1751,-234.7402C593.7729,-230.3896 609.5321,-225.4898 624,-222.5513 738.2936,-199.3375 1106.0006,-173.6214 1205.1637,-166.9753"/>
<polygon fill="#ff0000" stroke="#ff0000" stroke-width=".6639" points="1205.4111,-170.4667 1215.1562,-166.3094 1204.9455,-163.4822 1205.4111,-170.4667"/>
</g>
<!-- group_2_ped_2_location&#45;&gt;2 -->
<g id="edge30" class="edge">
<title>group_2_ped_2_location&#45;&gt;2</title>
<path fill="none" stroke="#00ff00" stroke-width=".2056" d="M582.1885,-234.741C594.6408,-230.5502 609.9718,-225.7901 624,-222.5513 1172.7622,-95.8525 1861.0747,-29.6037 1999.9293,-17.0582"/>
<polygon fill="#00ff00" stroke="#00ff00" stroke-width=".2056" points="2000.34,-20.5355 2009.9878,-16.1569 1999.7153,-13.5634 2000.34,-20.5355"/>
</g>
<!-- group_2_ped_2_age -->
<g id="node12" class="node">
<title>group_2_ped_2_age</title>
<polygon fill="#d3d3d3" stroke="#000000" points="2150.5,-644.8965 2061.5,-644.8965 2061.5,-626.8965 2150.5,-626.8965 2150.5,-644.8965"/>
<text text-anchor="middle" x="2106" y="-633.6965" font-family="Times,serif" font-size="9.00" fill="#000000">group_2_ped_2_age</text>
</g>
<!-- group_2_ped_2_age&#45;&gt;0 -->
<g id="edge31" class="edge">
<title>group_2_ped_2_age&#45;&gt;0</title>
<path fill="none" stroke="#00ff00" stroke-width="1.0009" d="M2089.9131,-626.8603C2071.1774,-616.1182 2039.5365,-597.2946 2014,-578.6833 1970.442,-546.9379 1682.8686,-302.3182 1644,-264.9777 1625.5298,-247.2336 1627.6056,-234.5923 1605,-222.5513 1543.7687,-189.9363 1329.3324,-172.2538 1255.3348,-167.0157"/>
<polygon fill="#00ff00" stroke="#00ff00" stroke-width="1.0009" points="1255.3065,-163.5055 1245.0888,-166.307 1254.8235,-170.4888 1255.3065,-163.5055"/>
</g>
<!-- group_2_ped_2_age&#45;&gt;1 -->
<g id="edge32" class="edge">
<title>group_2_ped_2_age&#45;&gt;1</title>
<path fill="none" stroke="#ff0000" stroke-width=".198" d="M2087.3296,-626.7475C2077.3804,-622.3067 2064.7907,-617.3633 2053,-614.6833 1887.4203,-577.0478 1340.3777,-561.2294 1216.2163,-558.0774"/>
<polygon fill="#ff0000" stroke="#ff0000" stroke-width=".198" points="1215.9329,-554.5693 1205.8488,-557.8189 1215.7584,-561.5671 1215.9329,-554.5693"/>
</g>
<!-- group_2_ped_2_age&#45;&gt;386 -->
<g id="edge84" class="edge">
<title>group_2_ped_2_age&#45;&gt;386</title>
<path fill="none" stroke="#00ff00" stroke-width=".5425" d="M2086.4757,-626.8763C2076.6182,-622.6346 2064.3667,-617.8296 2053,-614.6833 1955.821,-587.7844 1903.757,-646.3494 1829,-578.6833 1787.8057,-541.3964 1820.426,-508.2141 1797,-457.8305 1779.0507,-419.226 1772.7785,-408.8179 1742,-379.4041 1723.5642,-361.7857 1698.9148,-346.5645 1680.0741,-336.2607"/>
<polygon fill="#00ff00" stroke="#00ff00" stroke-width=".5425" points="1681.5517,-333.0823 1671.08,-331.4715 1678.2616,-339.2609 1681.5517,-333.0823"/>
</g>
<!-- 150 -->
<g id="node32" class="node">
<title>150</title>
<ellipse fill="#ffffff" stroke="#000000" cx="2093" cy="-479.0437" rx="21.4286" ry="21.4286"/>
<text text-anchor="middle" x="2093" y="-476.8437" font-family="Times,serif" font-size="9.00" fill="#000000">150</text>
</g>
<!-- group_2_ped_2_age&#45;&gt;150 -->
<g id="edge71" class="edge">
<title>group_2_ped_2_age&#45;&gt;150</title>
<path fill="none" stroke="#00ff00" stroke-width=".2059" stroke-dasharray="1,5" d="M2112.1653,-626.6789C2119.0598,-615.7664 2129.8086,-596.7827 2134,-578.6833 2138.2541,-560.3133 2139.7683,-554.2091 2134,-536.2569 2130.0678,-524.0192 2122.445,-512.1789 2114.8283,-502.4755"/>
<polygon fill="#00ff00" stroke="#00ff00" stroke-width=".2059" points="2117.3151,-499.9919 2108.2294,-494.5421 2111.9334,-504.4684 2117.3151,-499.9919"/>
</g>
<!-- 949 -->
<g id="node38" class="node">
<title>949</title>
<ellipse fill="#ffffff" stroke="#000000" cx="2104" cy="-557.4701" rx="21.4286" ry="21.4286"/>
<text text-anchor="middle" x="2104" y="-555.2701" font-family="Times,serif" font-size="9.00" fill="#000000">949</text>
</g>
<!-- group_2_ped_2_age&#45;&gt;949 -->
<g id="edge126" class="edge">
<title>group_2_ped_2_age&#45;&gt;949</title>
<path fill="none" stroke="#00ff00" stroke-width=".6662" stroke-dasharray="1,5" d="M2105.7627,-626.592C2105.5253,-617.2801 2105.1465,-602.4281 2104.8008,-588.8736"/>
<polygon fill="#00ff00" stroke="#00ff00" stroke-width=".6662" points="2108.2997,-588.7821 2104.5458,-578.8746 2101.302,-588.9606 2108.2997,-588.7821"/>
</g>
<!-- 630 -->
<g id="node51" class="node">
<title>630</title>
<ellipse fill="#ffffff" stroke="#000000" cx="2044" cy="-557.4701" rx="21.4286" ry="21.4286"/>
<text text-anchor="middle" x="2044" y="-555.2701" font-family="Times,serif" font-size="9.00" fill="#000000">630</text>
</g>
<!-- group_2_ped_2_age&#45;&gt;630 -->
<g id="edge98" class="edge">
<title>group_2_ped_2_age&#45;&gt;630</title>
<path fill="none" stroke="#ff0000" stroke-width=".2265" stroke-dasharray="1,5" d="M2098.6443,-626.592C2090.0378,-615.7053 2075.445,-597.2462 2063.5036,-582.1411"/>
<polygon fill="#ff0000" stroke="#ff0000" stroke-width=".2265" points="2066.1446,-579.838 2057.1972,-574.1638 2060.6532,-584.1792 2066.1446,-579.838"/>
</g>
<!-- group_2_ped_3_location -->
<g id="node13" class="node">
<title>group_2_ped_3_location</title>
<polygon fill="#d3d3d3" stroke="#000000" points="1651.5,-488.0437 1546.5,-488.0437 1546.5,-470.0437 1651.5,-470.0437 1651.5,-488.0437"/>
<text text-anchor="middle" x="1599" y="-476.8437" font-family="Times,serif" font-size="9.00" fill="#000000">group_2_ped_3_location</text>
</g>
<!-- group_2_ped_3_location&#45;&gt;0 -->
<g id="edge33" class="edge">
<title>group_2_ped_3_location&#45;&gt;0</title>
<path fill="none" stroke="#00ff00" stroke-width=".2925" stroke-dasharray="1,5" d="M1596.7224,-469.8208C1587.003,-432.4727 1545.3497,-291.1931 1456,-222.5513 1424.2376,-198.1502 1306.5005,-177.2814 1254.7138,-169.0684"/>
<polygon fill="#00ff00" stroke="#00ff00" stroke-width=".2925" points="1255.1384,-165.5924 1244.7187,-167.5112 1254.0607,-172.509 1255.1384,-165.5924"/>
</g>
<!-- group_2_ped_3_location&#45;&gt;2 -->
<g id="edge34" class="edge">
<title>group_2_ped_3_location&#45;&gt;2</title>
<path fill="none" stroke="#ff0000" stroke-width="1.4761" stroke-dasharray="1,5" d="M1612.0708,-470.0432C1651.4459,-443.0745 1772.7008,-361.0809 1878,-300.9777 1908.7271,-283.4392 1927.3911,-292.9921 1949,-264.9777 2004.3395,-193.234 1957.21,-149.3602 1992,-65.6985 1996.4854,-54.9122 2003.2852,-43.9198 2009.5492,-34.9279"/>
<polygon fill="#ff0000" stroke="#ff0000" stroke-width="1.4761" points="2012.4902,-36.8342 2015.5289,-26.6845 2006.824,-32.7239 2012.4902,-36.8342"/>
</g>
<!-- group_2_ped_3_location&#45;&gt;518 -->
<g id="edge85" class="edge">
<title>group_2_ped_3_location&#45;&gt;518</title>
<path fill="none" stroke="#00ff00" stroke-width=".3539" d="M1602.4406,-469.7392C1606.0142,-460.0748 1611.7944,-444.4429 1616.9548,-430.4875"/>
<polygon fill="#00ff00" stroke="#00ff00" stroke-width=".3539" points="1620.3769,-431.3245 1620.5624,-420.7313 1613.8113,-428.8967 1620.3769,-431.3245"/>
</g>
<!-- group_2_ped_3_location&#45;&gt;428 -->
<g id="edge114" class="edge">
<title>group_2_ped_3_location&#45;&gt;428</title>
<path fill="none" stroke="#ff0000" stroke-width=".1372" d="M1587.8478,-469.7392C1573.5291,-457.7928 1548.2815,-436.7281 1529.4096,-420.9828"/>
<polygon fill="#ff0000" stroke="#ff0000" stroke-width=".1372" points="1531.4271,-418.1079 1521.5064,-414.389 1526.9426,-423.4828 1531.4271,-418.1079"/>
</g>
<!-- group_2_ped_3_age -->
<g id="node14" class="node">
<title>group_2_ped_3_age</title>
<polygon fill="#d3d3d3" stroke="#000000" points="1211.5,-789.5361 1122.5,-789.5361 1122.5,-771.5361 1211.5,-771.5361 1211.5,-789.5361"/>
<text text-anchor="middle" x="1167" y="-778.3361" font-family="Times,serif" font-size="9.00" fill="#000000">group_2_ped_3_age</text>
</g>
<!-- group_2_ped_3_age&#45;&gt;0 -->
<g id="edge35" class="edge">
<title>group_2_ped_3_age&#45;&gt;0</title>
<path fill="none" stroke="#ff0000" stroke-width=".2589" d="M1122.4874,-778.8947C987.3143,-773.7261 582.9185,-756.8579 453,-735.5361 320.3967,-713.7737 246.0221,-761.1697 161,-657.1097 110.8314,-595.7076 150,-558.335 150,-479.0437 150,-479.0437 150,-479.0437 150,-400.6173 150,-350.8692 159.7154,-328.7348 201,-300.9777 278.1875,-249.0817 535.9621,-308.8057 618,-264.9777 639.3132,-253.5913 630.7587,-234.0711 652,-222.5513 676.6935,-209.1592 1096.443,-175.724 1204.6951,-167.2926"/>
<polygon fill="#ff0000" stroke="#ff0000" stroke-width=".2589" points="1205.2874,-170.7572 1214.9863,-166.4934 1204.7453,-163.7783 1205.2874,-170.7572"/>
</g>
<!-- group_2_ped_3_age&#45;&gt;1 -->
<g id="edge36" class="edge">
<title>group_2_ped_3_age&#45;&gt;1</title>
<path fill="none" stroke="#ff0000" stroke-width=".3325" stroke-dasharray="1,5" d="M1172.764,-771.4131C1184.8848,-751.5795 1212.5871,-702.6499 1221,-657.1097 1224.4254,-638.5673 1225.5091,-632.9924 1221,-614.6833 1217.8788,-602.0099 1211.3958,-589.0357 1205.2525,-578.6532"/>
<polygon fill="#ff0000" stroke="#ff0000" stroke-width=".3325" points="1208.0738,-576.5629 1199.8123,-569.9297 1202.1341,-580.267 1208.0738,-576.5629"/>
</g>
<!-- group_2_ped_3_age&#45;&gt;2 -->
<g id="edge37" class="edge">
<title>group_2_ped_3_age&#45;&gt;2</title>
<path fill="none" stroke="#00ff00" stroke-width=".5022" stroke-dasharray="1,5" d="M1122.4737,-779.5914C943.819,-775.6488 284.2816,-759.5863 194,-735.5361 100.3367,-710.5851 0,-732.8262 0,-635.8965 0,-635.8965 0,-635.8965 0,-165.3381 0,-114.7552 11.7745,-91.9698 55,-65.6985 98.6208,-39.1869 1773.9142,-17.9031 1999.8805,-15.1506"/>
<polygon fill="#00ff00" stroke="#00ff00" stroke-width=".5022" points="2000.1138,-18.6482 2010.0706,-15.0271 2000.0289,-11.6487 2000.1138,-18.6482"/>
</g>
<!-- group_2_ped_3_age&#45;&gt;236 -->
<g id="edge73" class="edge">
<title>group_2_ped_3_age&#45;&gt;236</title>
<path fill="none" stroke="#00ff00" stroke-width=".2432" d="M1168.5013,-771.4883C1171.8997,-751.0074 1180.3142,-700.2961 1185.8343,-667.0284"/>
<polygon fill="#00ff00" stroke="#00ff00" stroke-width=".2432" points="1189.3306,-667.3387 1187.5148,-656.9006 1182.425,-666.1928 1189.3306,-667.3387"/>
</g>
<!-- group_2_ped_3_age&#45;&gt;888 -->
<g id="edge129" class="edge">
<title>group_2_ped_3_age&#45;&gt;888</title>
<path fill="none" stroke="#00ff00" stroke-width=".1515" d="M1211.5548,-772.4977C1245.3565,-765.416 1292.4253,-753.4123 1331,-735.5361 1332.7751,-734.7135 1334.5598,-733.7924 1336.3277,-732.8072"/>
<polygon fill="#00ff00" stroke="#00ff00" stroke-width=".1515" points="1338.2371,-735.7416 1344.902,-727.5056 1334.5558,-729.7877 1338.2371,-735.7416"/>
</g>
<!-- group_2_ped_4_location -->
<g id="node15" class="node">
<title>group_2_ped_4_location</title>
<polygon fill="#d3d3d3" stroke="#000000" points="661.5,-644.8965 556.5,-644.8965 556.5,-626.8965 661.5,-626.8965 661.5,-644.8965"/>
<text text-anchor="middle" x="609" y="-633.6965" font-family="Times,serif" font-size="9.00" fill="#000000">group_2_ped_4_location</text>
</g>
<!-- group_2_ped_4_location&#45;&gt;0 -->
<g id="edge38" class="edge">
<title>group_2_ped_4_location&#45;&gt;0</title>
<path fill="none" stroke="#00ff00" stroke-width=".2869" d="M617.8278,-626.4444C650.3222,-591.2967 765.1125,-463.957 837,-343.4041 867.0388,-293.03 843.7425,-258.6085 890,-222.5513 939.2935,-184.1276 1134.4101,-170.32 1204.6428,-166.5361"/>
<polygon fill="#00ff00" stroke="#00ff00" stroke-width=".2869" points="1204.9944,-170.0227 1214.801,-166.0126 1204.6341,-163.032 1204.9944,-170.0227"/>
</g>
<!-- group_2_ped_4_location&#45;&gt;1 -->
<g id="edge39" class="edge">
<title>group_2_ped_4_location&#45;&gt;1</title>
<path fill="none" stroke="#ff0000" stroke-width=".15" stroke-dasharray="1,5" d="M661.7075,-627.4861C687.4129,-623.463 718.7983,-618.6673 747,-614.6833 906.2828,-592.1819 1098.2382,-568.6663 1165.9139,-560.4853"/>
<polygon fill="#ff0000" stroke="#ff0000" stroke-width=".15" points="1166.5251,-563.937 1176.0339,-559.2643 1165.6866,-556.9874 1166.5251,-563.937"/>
</g>
<!-- group_2_ped_4_location&#45;&gt;2 -->
<g id="edge40" class="edge">
<title>group_2_ped_4_location&#45;&gt;2</title>
<path fill="none" stroke="#00ff00" stroke-width=".1427" d="M602.4747,-626.697C570.9901,-581.5043 435.4572,-377.494 415,-186.5513 409.2399,-132.7874 388.1,-101.0669 429,-65.6985 460.0312,-38.8641 1798.935,-18.1696 1999.8709,-15.2125"/>
<polygon fill="#00ff00" stroke="#00ff00" stroke-width=".1427" points="2000.0828,-18.7099 2010.0305,-15.0639 1999.9804,-11.7106 2000.0828,-18.7099"/>
</g>
<!-- group_2_ped_4_age -->
<g id="node16" class="node">
<title>group_2_ped_4_age</title>
<polygon fill="#d3d3d3" stroke="#000000" points="1138.5,-723.3229 1049.5,-723.3229 1049.5,-705.3229 1138.5,-705.3229 1138.5,-723.3229"/>
<text text-anchor="middle" x="1094" y="-712.1229" font-family="Times,serif" font-size="9.00" fill="#000000">group_2_ped_4_age</text>
</g>
<!-- group_2_ped_4_age&#45;&gt;0 -->
<g id="edge41" class="edge">
<title>group_2_ped_4_age&#45;&gt;0</title>
<path fill="none" stroke="#ff0000" stroke-width=".383" stroke-dasharray="1,5" d="M1049.367,-712.3818C866.8564,-704.3414 186.231,-673.3141 171,-657.1097 158.0857,-643.3701 169.8252,-633.5029 171,-614.6833 174.7851,-554.0455 188,-539.7996 188,-479.0437 188,-479.0437 188,-479.0437 188,-400.6173 188,-255.051 359.7401,-339.9224 500,-300.9777 566.8937,-282.4039 592.3284,-300.4608 652,-264.9777 673.7577,-252.0397 667.4651,-234.0825 690,-222.5513 736.3617,-198.8278 1105.0048,-173.4327 1205.0337,-166.9264"/>
<polygon fill="#ff0000" stroke="#ff0000" stroke-width=".383" points="1205.3658,-170.4123 1215.1196,-166.2754 1204.9149,-163.4269 1205.3658,-170.4123"/>
</g>
<!-- group_2_ped_4_age&#45;&gt;1 -->
<g id="edge42" class="edge">
<title>group_2_ped_4_age&#45;&gt;1</title>
<path fill="none" stroke="#ff0000" stroke-width=".3151" stroke-dasharray="1,5" d="M1099.7773,-704.9808C1114.9133,-680.5054 1156.033,-614.0132 1177.5172,-579.2723"/>
<polygon fill="#ff0000" stroke="#ff0000" stroke-width=".3151" points="1180.7354,-580.7228 1183.0183,-570.3769 1174.7818,-577.0411 1180.7354,-580.7228"/>
</g>
<!-- group_2_ped_4_age&#45;&gt;2 -->
<g id="edge43" class="edge">
<title>group_2_ped_4_age&#45;&gt;2</title>
<path fill="none" stroke="#ff0000" stroke-width=".2572" stroke-dasharray="1,5" d="M1049.3057,-712.2858C865.7228,-703.8305 178.4639,-671.2829 161,-657.1097 97.2658,-605.3851 112,-561.1259 112,-479.0437 112,-479.0437 112,-479.0437 112,-165.3381 112,-95.6736 167.7676,-90.15 233,-65.6985 319.5648,-33.2508 1789.3881,-17.2291 1999.9617,-15.0961"/>
<polygon fill="#ff0000" stroke="#ff0000" stroke-width=".2572" points="2000.0759,-18.5952 2010.0403,-14.9949 2000.0056,-11.5956 2000.0759,-18.5952"/>
</g>
<!-- group_2_ped_4_age&#45;&gt;428 -->
<g id="edge95" class="edge">
<title>group_2_ped_4_age&#45;&gt;428</title>
<path fill="none" stroke="#00ff00" stroke-width=".558" stroke-dasharray="1,5" d="M1138.671,-705.9081C1163.6809,-701.4807 1195.4808,-696.3198 1224,-693.1097 1287.7225,-685.9373 1756.0938,-703.8457 1800,-657.1097 1812.9108,-643.3668 1812.2591,-629.0105 1800,-614.6833 1732.7322,-536.0676 1658.7154,-631.9276 1570,-578.6833 1532.6004,-556.2372 1526.0614,-541.1924 1511,-500.2569 1502.9857,-478.4746 1501.7147,-452.2124 1502.3249,-432.1195"/>
<polygon fill="#00ff00" stroke="#00ff00" stroke-width=".558" points="1505.8297,-432.1005 1502.808,-421.9457 1498.8376,-431.7684 1505.8297,-432.1005"/>
</g>
<!-- group_2_ped_4_age&#45;&gt;236 -->
<g id="edge78" class="edge">
<title>group_2_ped_4_age&#45;&gt;236</title>
<path fill="none" stroke="#00ff00" stroke-width=".258" d="M1105.5081,-705.0184C1120.4379,-692.9474 1146.8818,-671.567 1166.4185,-655.7712"/>
<polygon fill="#00ff00" stroke="#00ff00" stroke-width=".258" points="1168.739,-658.3959 1174.3148,-649.3869 1164.3379,-652.9525 1168.739,-658.3959"/>
</g>
<!-- group_3_ped_1_location -->
<g id="node17" class="node">
<title>group_3_ped_1_location</title>
<polygon fill="#d3d3d3" stroke="#000000" points="2467.5,-723.3229 2362.5,-723.3229 2362.5,-705.3229 2467.5,-705.3229 2467.5,-723.3229"/>
<text text-anchor="middle" x="2415" y="-712.1229" font-family="Times,serif" font-size="9.00" fill="#000000">group_3_ped_1_location</text>
</g>
<!-- group_3_ped_1_location&#45;&gt;0 -->
<g id="edge44" class="edge">
<title>group_3_ped_1_location&#45;&gt;0</title>
<path fill="none" stroke="#00ff00" stroke-width=".5839" stroke-dasharray="1,5" d="M2406.2047,-705.2569C2357.1665,-654.7388 2118.4177,-409.1859 2082,-379.4041 2032.9665,-339.3054 2021.8638,-324.3708 1963,-300.9777 1877.0344,-266.814 1838.8638,-309.9031 1758,-264.9777 1735.8718,-252.684 1742.473,-234.2027 1720,-222.5513 1637.6038,-179.8321 1343.5201,-168.4385 1255.2361,-165.9482"/>
<polygon fill="#00ff00" stroke="#00ff00" stroke-width=".5839" points="1255.1606,-162.445 1245.0704,-165.6758 1254.9731,-169.4425 1255.1606,-162.445"/>
</g>
<!-- group_3_ped_1_location&#45;&gt;1 -->
<g id="edge45" class="edge">
<title>group_3_ped_1_location&#45;&gt;1</title>
<path fill="none" stroke="#00ff00" stroke-width=".3445" stroke-dasharray="1,5" d="M2362.4758,-712.0139C2189.7583,-704.2484 1646.0713,-678.3709 1570,-657.1097 1530.4809,-646.0646 1526.9137,-627.7016 1488,-614.6833 1397.3662,-584.3626 1369.5428,-598.2684 1276,-578.6833 1255.4842,-574.3879 1232.424,-568.5696 1215.5043,-564.1129"/>
<polygon fill="#00ff00" stroke="#00ff00" stroke-width=".3445" points="1215.9249,-560.6029 1205.3609,-561.4105 1214.1227,-567.367 1215.9249,-560.6029"/>
</g>
<!-- group_3_ped_1_location&#45;&gt;2 -->
<g id="edge46" class="edge">
<title>group_3_ped_1_location&#45;&gt;2</title>
<path fill="none" stroke="#00ff00" stroke-width=".3902" stroke-dasharray="1,5" d="M2467.513,-708.963C2545.2635,-700.3367 2686.6021,-681.8073 2731,-657.1097 2783.1493,-628.1003 2821,-617.1451 2821,-557.4701 2821,-557.4701 2821,-557.4701 2821,-165.3381 2821,-103.2238 2779.3764,-91.7731 2723,-65.6985 2660.9041,-36.9786 2167.7626,-19.4338 2050.1297,-15.6316"/>
<polygon fill="#00ff00" stroke="#00ff00" stroke-width=".3902" points="2050.0517,-12.1274 2039.9452,-15.3066 2049.8284,-19.1238 2050.0517,-12.1274"/>
</g>
<!-- 530 -->
<g id="node31" class="node">
<title>530</title>
<ellipse fill="#ffffff" stroke="#000000" cx="2513" cy="-635.8965" rx="21.4286" ry="21.4286"/>
<text text-anchor="middle" x="2513" y="-633.6965" font-family="Times,serif" font-size="9.00" fill="#000000">530</text>
</g>
<!-- group_3_ped_1_location&#45;&gt;530 -->
<g id="edge117" class="edge">
<title>group_3_ped_1_location&#45;&gt;530</title>
<path fill="none" stroke="#ff0000" stroke-width=".3495" stroke-dasharray="1,5" d="M2426.6267,-705.0184C2441.7104,-692.9474 2468.427,-671.567 2488.1651,-655.7712"/>
<polygon fill="#ff0000" stroke="#ff0000" stroke-width=".3495" points="2490.522,-658.3678 2496.1427,-649.3869 2486.1482,-652.9025 2490.522,-658.3678"/>
</g>
<!-- group_3_ped_1_age -->
<g id="node18" class="node">
<title>group_3_ped_1_age</title>
<polygon fill="#d3d3d3" stroke="#000000" points="1075.5,-644.8965 986.5,-644.8965 986.5,-626.8965 1075.5,-626.8965 1075.5,-644.8965"/>
<text text-anchor="middle" x="1031" y="-633.6965" font-family="Times,serif" font-size="9.00" fill="#000000">group_3_ped_1_age</text>
</g>
<!-- group_3_ped_1_age&#45;&gt;0 -->
<g id="edge47" class="edge">
<title>group_3_ped_1_age&#45;&gt;0</title>
<path fill="none" stroke="#00ff00" stroke-width=".1277" d="M1034.2305,-626.6162C1044.8491,-595.2546 1078,-490.1737 1078,-400.6173 1078,-400.6173 1078,-400.6173 1078,-322.1909 1078,-248.8414 1164.7807,-196.7858 1207.1997,-175.7221"/>
<polygon fill="#00ff00" stroke="#00ff00" stroke-width=".1277" points="1208.7509,-178.8598 1216.2429,-171.3685 1205.7145,-172.5527 1208.7509,-178.8598"/>
</g>
<!-- group_3_ped_1_age&#45;&gt;1 -->
<g id="edge48" class="edge">
<title>group_3_ped_1_age&#45;&gt;1</title>
<path fill="none" stroke="#ff0000" stroke-width=".1295" d="M1049.6672,-626.7465C1079.1232,-612.3082 1136.3036,-584.2804 1168.1631,-568.664"/>
<polygon fill="#ff0000" stroke="#ff0000" stroke-width=".1295" points="1170.1113,-571.607 1177.5501,-564.0628 1167.0303,-565.3214 1170.1113,-571.607"/>
</g>
<!-- group_3_ped_2_location -->
<g id="node19" class="node">
<title>group_3_ped_2_location</title>
<polygon fill="#d3d3d3" stroke="#000000" points="2721.5,-644.8965 2616.5,-644.8965 2616.5,-626.8965 2721.5,-626.8965 2721.5,-644.8965"/>
<text text-anchor="middle" x="2669" y="-633.6965" font-family="Times,serif" font-size="9.00" fill="#000000">group_3_ped_2_location</text>
</g>
<!-- group_3_ped_2_location&#45;&gt;0 -->
<g id="edge49" class="edge">
<title>group_3_ped_2_location&#45;&gt;0</title>
<path fill="none" stroke="#00ff00" stroke-width=".3922" d="M2658.9503,-626.8523C2608.549,-582.0902 2376.6281,-383.1347 2147,-300.9777 2017.6504,-254.6986 1964.1792,-323.7367 1840,-264.9777 1815.4445,-253.3586 1820.6476,-233.9738 1796,-222.5513 1697.6279,-176.9626 1351.6691,-167.4883 1255.1641,-165.7147"/>
<polygon fill="#00ff00" stroke="#00ff00" stroke-width=".3922" points="1254.9637,-162.2108 1244.9051,-165.5385 1254.8434,-169.2098 1254.9637,-162.2108"/>
</g>
<!-- group_3_ped_2_location&#45;&gt;1 -->
<g id="edge50" class="edge">
<title>group_3_ped_2_location&#45;&gt;1</title>
<path fill="none" stroke="#ff0000" stroke-width=".1918" stroke-dasharray="1,5" d="M2623.6969,-626.866C2599.7931,-622.4576 2569.9153,-617.5074 2543,-614.6833 2271.4736,-586.1932 1378.5589,-562.2757 1216.3837,-558.1117"/>
<polygon fill="#ff0000" stroke="#ff0000" stroke-width=".1918" points="1216.0746,-554.6027 1205.9885,-557.8462 1215.8958,-561.6005 1216.0746,-554.6027"/>
</g>
<!-- group_3_ped_2_location&#45;&gt;2 -->
<g id="edge51" class="edge">
<title>group_3_ped_2_location&#45;&gt;2</title>
<path fill="none" stroke="#ff0000" stroke-width=".6951" d="M2682.525,-626.6572C2712.7224,-604.8134 2783,-546.7082 2783,-479.0437 2783,-479.0437 2783,-479.0437 2783,-165.3381 2783,-94.9851 2725.3244,-91.8188 2660,-65.6985 2602.603,-42.748 2161.1439,-21.1013 2050.2232,-15.9855"/>
<polygon fill="#ff0000" stroke="#ff0000" stroke-width=".6951" points="2050.1431,-12.4783 2039.9936,-15.5175 2049.8231,-19.471 2050.1431,-12.4783"/>
</g>
<!-- 555 -->
<g id="node35" class="node">
<title>555</title>
<ellipse fill="#ffffff" stroke="#000000" cx="2639" cy="-165.3381" rx="21.4286" ry="21.4286"/>
<text text-anchor="middle" x="2639" y="-163.1381" font-family="Times,serif" font-size="9.00" fill="#000000">555</text>
</g>
<!-- group_3_ped_2_location&#45;&gt;555 -->
<g id="edge89" class="edge">
<title>group_3_ped_2_location&#45;&gt;555</title>
<path fill="none" stroke="#ff0000" stroke-width=".1095" d="M2670.5926,-626.7365C2674.6396,-602.6358 2685,-535.4315 2685,-479.0437 2685,-479.0437 2685,-479.0437 2685,-322.1909 2685,-275.8423 2666.2768,-224.7901 2652.7207,-193.901"/>
<polygon fill="#ff0000" stroke="#ff0000" stroke-width=".1095" points="2655.8332,-192.2888 2648.5312,-184.6121 2649.4522,-195.1668 2655.8332,-192.2888"/>
</g>
<!-- 738 -->
<g id="node44" class="node">
<title>738</title>
<ellipse fill="#ffffff" stroke="#000000" cx="2734" cy="-243.7645" rx="21.4286" ry="21.4286"/>
<text text-anchor="middle" x="2734" y="-241.5645" font-family="Times,serif" font-size="9.00" fill="#000000">738</text>
</g>
<!-- group_3_ped_2_location&#45;&gt;738 -->
<g id="edge106" class="edge">
<title>group_3_ped_2_location&#45;&gt;738</title>
<path fill="none" stroke="#00ff00" stroke-width=".6219" d="M2675.1951,-626.8177C2690.525,-603.44 2729,-538.8129 2729,-479.0437 2729,-479.0437 2729,-479.0437 2729,-400.6173 2729,-357.2357 2730.9343,-307.1393 2732.3967,-275.4635"/>
<polygon fill="#00ff00" stroke="#00ff00" stroke-width=".6219" points="2735.9119,-275.2236 2732.8903,-265.0688 2728.9198,-274.8915 2735.9119,-275.2236"/>
</g>
<!-- 613 -->
<g id="node45" class="node">
<title>613</title>
<ellipse fill="#ffffff" stroke="#000000" cx="2598" cy="-243.7645" rx="21.4286" ry="21.4286"/>
<text text-anchor="middle" x="2598" y="-241.5645" font-family="Times,serif" font-size="9.00" fill="#000000">613</text>
</g>
<!-- group_3_ped_2_location&#45;&gt;613 -->
<g id="edge96" class="edge">
<title>group_3_ped_2_location&#45;&gt;613</title>
<path fill="none" stroke="#00ff00" stroke-width=".7672" d="M2667.315,-626.5901C2658.6039,-578.4792 2618.5092,-357.0364 2603.6023,-274.7057"/>
<polygon fill="#00ff00" stroke="#00ff00" stroke-width=".7672" points="2607.0177,-273.9239 2601.792,-264.7075 2600.1297,-275.1711 2607.0177,-273.9239"/>
</g>
<!-- group_3_ped_2_age -->
<g id="node20" class="node">
<title>group_3_ped_2_age</title>
<polygon fill="#d3d3d3" stroke="#000000" points="1667.5,-644.8965 1578.5,-644.8965 1578.5,-626.8965 1667.5,-626.8965 1667.5,-644.8965"/>
<text text-anchor="middle" x="1623" y="-633.6965" font-family="Times,serif" font-size="9.00" fill="#000000">group_3_ped_2_age</text>
</g>
<!-- group_3_ped_2_age&#45;&gt;0 -->
<g id="edge52" class="edge">
<title>group_3_ped_2_age&#45;&gt;0</title>
<path fill="none" stroke="#ff0000" stroke-width=".5127" d="M1601.1867,-626.8878C1590.1939,-622.6489 1576.5619,-617.843 1564,-614.6833 1511.2728,-601.421 1361.8014,-615.7225 1322,-578.6833 1269.7118,-530.024 1302.3107,-491.5971 1287,-421.8305 1267.578,-333.3296 1264.3255,-310.8491 1244,-222.5513 1241.5143,-211.753 1238.6246,-199.8455 1236.1182,-189.7024"/>
<polygon fill="#ff0000" stroke="#ff0000" stroke-width=".5127" points="1239.4883,-188.7511 1233.6781,-179.8915 1232.6953,-190.4406 1239.4883,-188.7511"/>
</g>
<!-- group_3_ped_2_age&#45;&gt;1 -->
<g id="edge53" class="edge">
<title>group_3_ped_2_age&#45;&gt;1</title>
<path fill="none" stroke="#ff0000" stroke-width=".1742" stroke-dasharray="1,5" d="M1584.8894,-626.8947C1567.0622,-622.8556 1545.5067,-618.216 1526,-614.6833 1415.5396,-594.6788 1386.1558,-600.3022 1276,-578.6833 1255.2358,-574.6082 1231.9361,-568.6972 1214.9894,-564.1493"/>
<polygon fill="#ff0000" stroke="#ff0000" stroke-width=".1742" points="1215.9064,-560.7716 1205.3382,-561.5223 1214.0679,-567.5259 1215.9064,-560.7716"/>
</g>
<!-- group_3_ped_2_age&#45;&gt;2 -->
<g id="edge54" class="edge">
<title>group_3_ped_2_age&#45;&gt;2</title>
<path fill="none" stroke="#00ff00" stroke-width=".1459" d="M1637.0904,-626.8022C1668.0641,-606.4251 1743.5677,-554.6146 1797,-500.2569 1888.7307,-406.9376 1919.5437,-383.9631 1974,-264.9777 2009.2592,-187.9375 2020.2983,-86.4713 2023.6282,-40.0234"/>
<polygon fill="#00ff00" stroke="#00ff00" stroke-width=".1459" points="2027.1265,-40.1619 2024.2889,-29.9542 2020.1415,-39.7035 2027.1265,-40.1619"/>
</g>
<!-- group_3_ped_3_location -->
<g id="node21" class="node">
<title>group_3_ped_3_location</title>
<polygon fill="#d3d3d3" stroke="#000000" points="968.5,-644.8965 863.5,-644.8965 863.5,-626.8965 968.5,-626.8965 968.5,-644.8965"/>
<text text-anchor="middle" x="916" y="-633.6965" font-family="Times,serif" font-size="9.00" fill="#000000">group_3_ped_3_location</text>
</g>
<!-- group_3_ped_3_location&#45;&gt;0 -->
<g id="edge55" class="edge">
<title>group_3_ped_3_location&#45;&gt;0</title>
<path fill="none" stroke="#ff0000" stroke-width=".3855" d="M935.0775,-626.8746C953.0336,-617.3901 979.3001,-600.7739 994,-578.6833 1019.2348,-540.7613 1018,-524.5945 1018,-479.0437 1018,-479.0437 1018,-479.0437 1018,-322.1909 1018,-229.7148 1149.9724,-185.5222 1205.6664,-170.9898"/>
<polygon fill="#ff0000" stroke="#ff0000" stroke-width=".3855" points="1206.5785,-174.3695 1215.4284,-168.5446 1204.8776,-167.5793 1206.5785,-174.3695"/>
</g>
<!-- group_3_ped_3_location&#45;&gt;1 -->
<g id="edge56" class="edge">
<title>group_3_ped_3_location&#45;&gt;1</title>
<path fill="none" stroke="#ff0000" stroke-width=".1492" stroke-dasharray="1,5" d="M940.794,-626.8109C951.8191,-622.8911 964.9955,-618.3699 977,-614.6833 1045.0247,-593.7929 1126.5139,-573.2115 1166.4653,-563.4062"/>
<polygon fill="#ff0000" stroke="#ff0000" stroke-width=".1492" points="1167.4799,-566.7613 1176.3642,-560.989 1165.8193,-559.9611 1167.4799,-566.7613"/>
</g>
<!-- group_3_ped_3_location&#45;&gt;2 -->
<g id="edge57" class="edge">
<title>group_3_ped_3_location&#45;&gt;2</title>
<path fill="none" stroke="#ff0000" stroke-width=".1633" d="M912.7665,-626.7626C896.5522,-582.4016 819.5459,-388.0274 686,-300.9777 613.6329,-253.8064 550.1361,-331.4768 495,-264.9777 482.9646,-250.462 483.394,-237.4126 495,-222.5513 583.535,-109.1835 668.3465,-174.2465 809,-144.1249 1002.378,-102.7121 1050.6886,-89.613 1247,-65.6985 1541.9822,-29.7639 1903.1936,-18.0662 2000.1014,-15.4631"/>
<polygon fill="#ff0000" stroke="#ff0000" stroke-width=".1633" points="2000.2039,-18.9617 2010.1091,-15.2017 2000.0211,-11.9641 2000.2039,-18.9617"/>
</g>
<!-- group_3_ped_3_location&#45;&gt;111 -->
<g id="edge72" class="edge">
<title>group_3_ped_3_location&#45;&gt;111</title>
<path fill="none" stroke="#00ff00" stroke-width=".3651" d="M942.9805,-626.8248C967.9468,-617.504 1005.1481,-601.1797 1032,-578.6833 1084.0713,-535.0583 1126.7614,-466.6354 1148.1503,-428.56"/>
<polygon fill="#00ff00" stroke="#00ff00" stroke-width=".3651" points="1151.3467,-430.0123 1153.122,-419.5673 1145.2206,-426.6254 1151.3467,-430.0123"/>
</g>
<!-- group_3_ped_3_age -->
<g id="node22" class="node">
<title>group_3_ped_3_age</title>
<polygon fill="#d3d3d3" stroke="#000000" points="845.5,-644.8965 756.5,-644.8965 756.5,-626.8965 845.5,-626.8965 845.5,-644.8965"/>
<text text-anchor="middle" x="801" y="-633.6965" font-family="Times,serif" font-size="9.00" fill="#000000">group_3_ped_3_age</text>
</g>
<!-- group_3_ped_3_age&#45;&gt;0 -->
<g id="edge58" class="edge">
<title>group_3_ped_3_age&#45;&gt;0</title>
<path fill="none" stroke="#ff0000" stroke-width=".2638" stroke-dasharray="1,5" d="M821.6947,-626.8544C853.4394,-612.8257 911.2164,-586.6051 918,-578.6833 1026.5459,-451.9243 912.6815,-333.8841 1037,-222.5513 1062.1265,-200.0494 1159.0871,-178.9535 1205.2702,-169.9362"/>
<polygon fill="#ff0000" stroke="#ff0000" stroke-width=".2638" points="1206.1736,-173.3269 1215.3353,-168.0059 1204.855,-166.4521 1206.1736,-173.3269"/>
</g>
<!-- group_3_ped_3_age&#45;&gt;1 -->
<g id="edge59" class="edge">
<title>group_3_ped_3_age&#45;&gt;1</title>
<path fill="none" stroke="#ff0000" stroke-width=".4127" d="M820.7854,-626.8126C830.6026,-622.6075 842.7426,-617.8528 854,-614.6833 968.0679,-582.5676 1109.2294,-565.7432 1165.8128,-559.8954"/>
<polygon fill="#ff0000" stroke="#ff0000" stroke-width=".4127" points="1166.3704,-563.357 1175.9686,-558.8709 1165.6678,-556.3923 1166.3704,-563.357"/>
</g>
<!-- 801 -->
<g id="node34" class="node">
<title>801</title>
<ellipse fill="#ffffff" stroke="#000000" cx="656" cy="-322.1909" rx="21.4286" ry="21.4286"/>
<text text-anchor="middle" x="656" y="-319.9909" font-family="Times,serif" font-size="9.00" fill="#000000">801</text>
</g>
<!-- group_3_ped_3_age&#45;&gt;801 -->
<g id="edge115" class="edge">
<title>group_3_ped_3_age&#45;&gt;801</title>
<path fill="none" stroke="#ff0000" stroke-width=".3174" d="M796.8168,-626.8463C777.9631,-586.0565 700.4533,-418.3651 669.1765,-350.6982"/>
<polygon fill="#ff0000" stroke="#ff0000" stroke-width=".3174" points="672.2826,-349.0761 664.9099,-341.4673 665.9286,-352.0131 672.2826,-349.0761"/>
</g>
<!-- group_3_ped_4_location -->
<g id="node23" class="node">
<title>group_3_ped_4_location</title>
<polygon fill="#d3d3d3" stroke="#000000" points="1790.5,-644.8965 1685.5,-644.8965 1685.5,-626.8965 1790.5,-626.8965 1790.5,-644.8965"/>
<text text-anchor="middle" x="1738" y="-633.6965" font-family="Times,serif" font-size="9.00" fill="#000000">group_3_ped_4_location</text>
</g>
<!-- group_3_ped_4_location&#45;&gt;0 -->
<g id="edge60" class="edge">
<title>group_3_ped_4_location&#45;&gt;0</title>
<path fill="none" stroke="#00ff00" stroke-width=".1" stroke-dasharray="1,5" d="M1713.8502,-626.8336C1702.7187,-622.8284 1689.2792,-618.2335 1677,-614.6833 1546.8464,-577.0536 1404,-614.5279 1404,-479.0437 1404,-479.0437 1404,-479.0437 1404,-322.1909 1404,-275.1049 1400.5151,-256.6081 1368,-222.5513 1337.2399,-190.3326 1285.6392,-175.5929 1255.0069,-169.3808"/>
<polygon fill="#00ff00" stroke="#00ff00" stroke-width=".1" points="1255.589,-165.929 1245.115,-167.5244 1254.2978,-172.8089 1255.589,-165.929"/>
</g>
<!-- group_3_ped_4_location&#45;&gt;1 -->
<g id="edge61" class="edge">
<title>group_3_ped_4_location&#45;&gt;1</title>
<path fill="none" stroke="#ff0000" stroke-width=".1022" stroke-dasharray="1,5" d="M1716.0542,-626.855C1704.6017,-622.4999 1690.2495,-617.6012 1677,-614.6833 1518.6691,-579.8152 1474.6536,-600.4745 1314,-578.6833 1279.7702,-574.0404 1240.4766,-566.9543 1215.6983,-562.268"/>
<polygon fill="#ff0000" stroke="#ff0000" stroke-width=".1022" points="1216.1942,-558.7996 1205.7151,-560.361 1214.8807,-565.6752 1216.1942,-558.7996"/>
</g>
<!-- group_3_ped_4_location&#45;&gt;2 -->
<g id="edge62" class="edge">
<title>group_3_ped_4_location&#45;&gt;2</title>
<path fill="none" stroke="#00ff00" stroke-width=".3227" d="M1790.8367,-627.0054C1824.0061,-619.1116 1865.8641,-604.6367 1895,-578.6833 1982.3525,-500.8724 1969.5086,-452.002 2013,-343.4041 2059.1713,-228.1145 2066.0867,-187.9101 2044,-65.6985 2042.2894,-56.2333 2038.9228,-46.233 2035.4925,-37.6287"/>
<polygon fill="#00ff00" stroke="#00ff00" stroke-width=".3227" points="2038.657,-36.1259 2031.5318,-28.2849 2032.2121,-38.8579 2038.657,-36.1259"/>
</g>
<!-- 340 -->
<g id="node42" class="node">
<title>340</title>
<ellipse fill="#ffffff" stroke="#000000" cx="1355" cy="-322.1909" rx="21.4286" ry="21.4286"/>
<text text-anchor="middle" x="1355" y="-319.9909" font-family="Times,serif" font-size="9.00" fill="#000000">340</text>
</g>
<!-- group_3_ped_4_location&#45;&gt;340 -->
<g id="edge76" class="edge">
<title>group_3_ped_4_location&#45;&gt;340</title>
<path fill="none" stroke="#ff0000" stroke-width=".348" d="M1715.737,-626.891C1704.3235,-622.5998 1690.1014,-617.7472 1677,-614.6833 1614.4111,-600.0464 1435.6967,-623.8875 1390,-578.6833 1358.8792,-547.8979 1354.8546,-415.4435 1354.7088,-353.8768"/>
<polygon fill="#ff0000" stroke="#ff0000" stroke-width=".348" points="1358.209,-353.5948 1354.7195,-343.5912 1351.209,-353.5875 1358.209,-353.5948"/>
</g>
<!-- 752 -->
<g id="node49" class="node">
<title>752</title>
<ellipse fill="#ffffff" stroke="#000000" cx="1317" cy="-400.6173" rx="21.4286" ry="21.4286"/>
<text text-anchor="middle" x="1317" y="-398.4173" font-family="Times,serif" font-size="9.00" fill="#000000">752</text>
</g>
<!-- group_3_ped_4_location&#45;&gt;752 -->
<g id="edge108" class="edge">
<title>group_3_ped_4_location&#45;&gt;752</title>
<path fill="none" stroke="#ff0000" stroke-width=".2326" d="M1715.7555,-626.8107C1704.3467,-622.499 1690.1232,-617.6524 1677,-614.6833 1606.1273,-598.6488 1405.4874,-627.8682 1352,-578.6833 1311.4449,-541.3905 1309.9642,-471.9574 1313.0986,-431.6955"/>
<polygon fill="#ff0000" stroke="#ff0000" stroke-width=".2326" points="1316.5923,-431.9235 1314.0248,-421.6445 1309.6218,-431.2811 1316.5923,-431.9235"/>
</g>
<!-- group_3_ped_4_age -->
<g id="node24" class="node">
<title>group_3_ped_4_age</title>
<polygon fill="#d3d3d3" stroke="#000000" points="1969.5,-723.3229 1880.5,-723.3229 1880.5,-705.3229 1969.5,-705.3229 1969.5,-723.3229"/>
<text text-anchor="middle" x="1925" y="-712.1229" font-family="Times,serif" font-size="9.00" fill="#000000">group_3_ped_4_age</text>
</g>
<!-- group_3_ped_4_age&#45;&gt;0 -->
<g id="edge63" class="edge">
<title>group_3_ped_4_age&#45;&gt;0</title>
<path fill="none" stroke="#ff0000" stroke-width=".1836" stroke-dasharray="1,5" d="M1880.4891,-711.6878C1812.1753,-706.6421 1678.0469,-692.7509 1570,-657.1097 1531.0318,-644.2554 1526.8313,-627.9453 1488,-614.6833 1403.7713,-585.917 1352.9204,-642.6196 1291,-578.6833 1237.0188,-522.9447 1230.6597,-271.6934 1230.0273,-190.6337"/>
<polygon fill="#ff0000" stroke="#ff0000" stroke-width=".1836" points="1233.5259,-190.3443 1229.9717,-180.3634 1226.526,-190.3822 1233.5259,-190.3443"/>
</g>
<!-- group_3_ped_4_age&#45;&gt;1 -->
<g id="edge64" class="edge">
<title>group_3_ped_4_age&#45;&gt;1</title>
<path fill="none" stroke="#ff0000" stroke-width=".6181" stroke-dasharray="1,5" d="M1880.2706,-711.6289C1785.0574,-705.3645 1565.5215,-687.9554 1498,-657.1097 1472.1022,-645.2789 1475.6868,-626.9657 1450,-614.6833 1363.7787,-573.4558 1329.4123,-606.5692 1238,-578.6833 1229.6914,-576.1487 1220.9291,-572.488 1213.2506,-568.9189"/>
<polygon fill="#ff0000" stroke="#ff0000" stroke-width=".6181" points="1214.7448,-565.7537 1204.2199,-564.5387 1211.6899,-572.0519 1214.7448,-565.7537"/>
</g>
<!-- group_3_ped_4_age&#45;&gt;2 -->
<g id="edge65" class="edge">
<title>group_3_ped_4_age&#45;&gt;2</title>
<path fill="none" stroke="#ff0000" stroke-width=".839" stroke-dasharray="1,5" d="M1969.6221,-712.8194C2054.8301,-709.0655 2236.3879,-696.5408 2283,-657.1097 2346.759,-603.1735 2343,-562.5561 2343,-479.0437 2343,-479.0437 2343,-479.0437 2343,-165.3381 2343,-96.6976 2286.0382,-97.0967 2225,-65.6985 2166.4667,-35.5888 2088.9365,-22.5067 2049.8255,-17.5199"/>
<polygon fill="#ff0000" stroke="#ff0000" stroke-width=".839" points="2050.2073,-14.0407 2039.8607,-16.3206 2049.3708,-20.9905 2050.2073,-14.0407"/>
</g>
<!-- group_3_ped_4_age&#45;&gt;530 -->
<g id="edge87" class="edge">
<title>group_3_ped_4_age&#45;&gt;530</title>
<path fill="none" stroke="#ff0000" stroke-width=".1709" stroke-dasharray="1,5" d="M1969.7954,-712.6591C2084.9968,-707.9161 2389.0841,-692.3343 2483,-657.1097 2484.6425,-656.4937 2486.2782,-655.7652 2487.8898,-654.9556"/>
<polygon fill="#ff0000" stroke="#ff0000" stroke-width=".1709" points="2489.9597,-657.7954 2496.7332,-649.6486 2486.3577,-651.7932 2489.9597,-657.7954"/>
</g>
<!-- ego_vehicle_velocity -->
<g id="node25" class="node">
<title>ego_vehicle_velocity</title>
<polygon fill="#d3d3d3" stroke="#000000" points="1939.5,-252.7645 1848.5,-252.7645 1848.5,-234.7645 1939.5,-234.7645 1939.5,-252.7645"/>
<text text-anchor="middle" x="1894" y="-241.5645" font-family="Times,serif" font-size="9.00" fill="#000000">ego_vehicle_velocity</text>
</g>
<!-- ego_vehicle_velocity&#45;&gt;0 -->
<g id="edge66" class="edge">
<title>ego_vehicle_velocity&#45;&gt;0</title>
<path fill="none" stroke="#00ff00" stroke-width=".5449" stroke-dasharray="1,5" d="M1872.4328,-234.6915C1861.173,-230.328 1847.0548,-225.4314 1834,-222.5513 1720.608,-197.535 1354.5011,-173.1704 1255.102,-166.8916"/>
<polygon fill="#00ff00" stroke="#00ff00" stroke-width=".5449" points="1255.2747,-163.3956 1245.0752,-166.2626 1254.8364,-170.3819 1255.2747,-163.3956"/>
</g>
<!-- ego_vehicle_velocity&#45;&gt;2 -->
<g id="edge67" class="edge">
<title>ego_vehicle_velocity&#45;&gt;2</title>
<path fill="none" stroke="#00ff00" stroke-width=".1353" d="M1895.0619,-234.7185C1898.7097,-206.9235 1912.8571,-121.288 1954,-65.6985 1966.698,-48.5417 1986.9019,-34.8771 2002.5161,-26.0523"/>
<polygon fill="#00ff00" stroke="#00ff00" stroke-width=".1353" points="2004.3915,-29.0177 2011.5369,-21.1951 2001.0728,-22.8543 2004.3915,-29.0177"/>
</g>
<!-- 1&#45;&gt;1 -->
<g id="edge68" class="edge">
<title>1&#45;&gt;1</title>
<path fill="none" stroke="#ff0000" stroke-width=".2045" stroke-dasharray="1,5" d="M1201.0894,-568.6638C1211.7861,-575.674 1223.8492,-571.9428 1223.8492,-557.4701 1223.8492,-547.294 1217.8854,-542.4284 1210.6261,-542.8731"/>
<polygon fill="#ff0000" stroke="#ff0000" stroke-width=".2045" points="1209.3312,-539.6189 1201.0894,-546.2764 1211.6841,-546.2116 1209.3312,-539.6189"/>
</g>
<!-- 835 -->
<g id="node39" class="node">
<title>835</title>
<ellipse fill="#ffffff" stroke="#000000" cx="1203" cy="-479.0437" rx="21.4286" ry="21.4286"/>
<text text-anchor="middle" x="1203" y="-476.8437" font-family="Times,serif" font-size="9.00" fill="#000000">835</text>
</g>
<!-- 1&#45;&gt;835 -->
<g id="edge120" class="edge">
<title>1&#45;&gt;835</title>
<path fill="none" stroke="#ff0000" stroke-width=".3965" stroke-dasharray="1,5" d="M1193.2571,-542.7187C1194.6606,-533.5463 1196.519,-521.4008 1198.2361,-510.1781"/>
<polygon fill="#ff0000" stroke="#ff0000" stroke-width=".3965" points="1201.7035,-510.6572 1199.7563,-500.2428 1194.784,-509.5984 1201.7035,-510.6572"/>
</g>
<!-- 1&#45;&gt;111 -->
<g id="edge75" class="edge">
<title>1&#45;&gt;111</title>
<path fill="none" stroke="#ff0000" stroke-width=".1187" d="M1185.7464,-543.5741C1181.6302,-532.1168 1176.0982,-515.3533 1173,-500.2569 1168.3782,-477.7368 1165.863,-451.8965 1164.5112,-432.1748"/>
<polygon fill="#ff0000" stroke="#ff0000" stroke-width=".1187" points="1168.0042,-431.9523 1163.8896,-422.1891 1161.0177,-432.3872 1168.0042,-431.9523"/>
</g>
<!-- 2&#45;&gt;2 -->
<g id="edge69" class="edge">
<title>2&#45;&gt;2</title>
<path fill="none" stroke="#ff0000" stroke-width=".5483" stroke-dasharray="1,5" d="M2035.7667,-25.5774C2046.2887,-31.5034 2057.8492,-27.9274 2057.8492,-14.8492 2057.8492,-5.858 2052.3851,-1.358 2045.5508,-1.3493"/>
<polygon fill="#ff0000" stroke="#ff0000" stroke-width=".5483" points="2044.434,1.9722 2035.7667,-4.1211 2046.3421,-4.7628 2044.434,1.9722"/>
</g>
<!-- 386&#45;&gt;0 -->
<g id="edge80" class="edge">
<title>386&#45;&gt;0</title>
<path fill="none" stroke="#ff0000" stroke-width=".2584" d="M1641.7176,-303.2826C1628.0942,-280.1981 1601.7909,-241.8547 1568,-222.5513 1514.1641,-191.797 1324.0683,-173.2052 1255.1723,-167.35"/>
<polygon fill="#ff0000" stroke="#ff0000" stroke-width=".2584" points="1255.4508,-163.8612 1245.1949,-166.5197 1254.8702,-170.837 1255.4508,-163.8612"/>
</g>
<!-- 530&#45;&gt;1 -->
<g id="edge128" class="edge">
<title>530&#45;&gt;1</title>
<path fill="none" stroke="#00ff00" stroke-width=".2776" stroke-dasharray="1,5" d="M2496.8039,-621.9473C2492.5681,-619.0278 2487.828,-616.3363 2483,-614.6833 2420.8069,-593.3899 1390.849,-563.1664 1216.0989,-558.1792"/>
<polygon fill="#00ff00" stroke="#00ff00" stroke-width=".2776" points="1216.1491,-554.6794 1206.0536,-557.8935 1215.9501,-561.6765 1216.1491,-554.6794"/>
</g>
<!-- 530&#45;&gt;2 -->
<g id="edge88" class="edge">
<title>530&#45;&gt;2</title>
<path fill="none" stroke="#ff0000" stroke-width=".1182" d="M2511.31,-614.6912C2503.369,-520.6617 2466.586,-142.6145 2383,-65.6985 2358.4537,-43.1109 2127.8856,-22.9784 2050.3201,-16.7947"/>
<polygon fill="#ff0000" stroke="#ff0000" stroke-width=".1182" points="2050.2727,-13.2802 2040.029,-15.9849 2049.7236,-20.2586 2050.2727,-13.2802"/>
</g>
<!-- 662 -->
<g id="node33" class="node">
<title>662</title>
<ellipse fill="#ffffff" stroke="#000000" cx="2468" cy="-86.9117" rx="21.4286" ry="21.4286"/>
<text text-anchor="middle" x="2468" y="-84.7117" font-family="Times,serif" font-size="9.00" fill="#000000">662</text>
</g>
<!-- 530&#45;&gt;662 -->
<g id="edge101" class="edge">
<title>530&#45;&gt;662</title>
<path fill="none" stroke="#00ff00" stroke-width=".4864" stroke-dasharray="1,5" d="M2517.3891,-614.9472C2523.2764,-584.9712 2533,-528.0453 2533,-479.0437 2533,-479.0437 2533,-479.0437 2533,-400.6173 2533,-355.0665 2521.547,-344.7664 2509,-300.9777 2504.3544,-284.7647 2501.0351,-281.3534 2497,-264.9777 2484.5381,-214.4037 2476.0293,-154.3955 2471.5964,-118.551"/>
<polygon fill="#00ff00" stroke="#00ff00" stroke-width=".4864" points="2475.025,-117.7482 2470.3517,-108.2398 2468.0754,-118.5872 2475.025,-117.7482"/>
</g>
<!-- 530&#45;&gt;555 -->
<g id="edge91" class="edge">
<title>530&#45;&gt;555</title>
<path fill="none" stroke="#00ff00" stroke-width=".1938" d="M2528.6338,-621.3254C2563.9815,-586.7124 2647,-495.3372 2647,-400.6173 2647,-400.6173 2647,-400.6173 2647,-322.1909 2647,-278.5854 2643.8781,-228.2493 2641.5347,-196.6086"/>
<polygon fill="#00ff00" stroke="#00ff00" stroke-width=".1938" points="2645.0243,-196.3373 2640.7755,-186.6317 2638.0444,-196.8685 2645.0243,-196.3373"/>
</g>
<!-- 662&#45;&gt;2 -->
<g id="edge102" class="edge">
<title>662&#45;&gt;2</title>
<path fill="none" stroke="#ff0000" stroke-width=".8607" stroke-dasharray="1,5" d="M2450.5555,-74.3683C2445.1596,-71.0425 2439.0405,-67.7975 2433,-65.6985 2361.3436,-40.7985 2127.4261,-22.1934 2050.0809,-16.5948"/>
<polygon fill="#ff0000" stroke="#ff0000" stroke-width=".8607" points="2050.0672,-13.085 2039.8433,-15.8639 2049.5687,-20.0672 2050.0672,-13.085"/>
</g>
<!-- 801&#45;&gt;2 -->
<g id="edge116" class="edge">
<title>801&#45;&gt;2</title>
<path fill="none" stroke="#00ff00" stroke-width=".1759" stroke-dasharray="1,5" d="M634.887,-319.1599C589.0751,-312.1062 482.9742,-293.0306 462,-264.9777 408.9648,-194.0435 400.3992,-129.336 462,-65.6985 489.9149,-36.8606 1800.5215,-17.9035 1999.7327,-15.1865"/>
<polygon fill="#00ff00" stroke="#00ff00" stroke-width=".1759" points="1999.8717,-18.6851 2009.8234,-15.0499 1999.7769,-11.6857 1999.8717,-18.6851"/>
</g>
<!-- 555&#45;&gt;2 -->
<g id="edge90" class="edge">
<title>555&#45;&gt;2</title>
<path fill="none" stroke="#00ff00" stroke-width=".6928" stroke-dasharray="1,5" d="M2636.2667,-144.2683C2632.0263,-120.9202 2621.4957,-84.136 2596,-65.6985 2551.2587,-33.3432 2155.0178,-18.8726 2050.2935,-15.5928"/>
<polygon fill="#00ff00" stroke="#00ff00" stroke-width=".6928" points="2050.1407,-12.0866 2040.0382,-15.2785 2049.9262,-19.0833 2050.1407,-12.0866"/>
</g>
<!-- 555&#45;&gt;755 -->
<g id="edge112" class="edge">
<title>555&#45;&gt;755</title>
<path fill="none" stroke="#00ff00" stroke-width=".3232" stroke-dasharray="1,5" d="M2624.2274,-149.4673C2613.67,-138.1252 2599.2997,-122.6867 2587.4769,-109.985"/>
<polygon fill="#00ff00" stroke="#00ff00" stroke-width=".3232" points="2589.8768,-107.4263 2580.5015,-102.4912 2584.7529,-112.1956 2589.8768,-107.4263"/>
</g>
<!-- 428&#45;&gt;386 -->
<g id="edge82" class="edge">
<title>428&#45;&gt;386</title>
<path fill="none" stroke="#ff0000" stroke-width=".3962" stroke-dasharray="1,5" d="M1523.9167,-390.525C1549.3862,-376.9367 1594.8886,-352.6606 1624.2397,-337.0014"/>
<polygon fill="#ff0000" stroke="#ff0000" stroke-width=".3962" points="1625.9805,-340.0397 1633.1559,-332.2445 1622.6855,-333.8637 1625.9805,-340.0397"/>
</g>
<!-- 428&#45;&gt;340 -->
<g id="edge83" class="edge">
<title>428&#45;&gt;340</title>
<path fill="none" stroke="#00ff00" stroke-width=".4661" stroke-dasharray="1,5" d="M1486.0024,-390.6846C1459.9669,-377.0721 1413.0129,-352.5225 1382.9592,-336.8092"/>
<polygon fill="#00ff00" stroke="#00ff00" stroke-width=".4661" points="1384.3269,-333.5748 1373.8434,-332.043 1381.0835,-339.7781 1384.3269,-333.5748"/>
</g>
<!-- 821&#45;&gt;1 -->
<g id="edge119" class="edge">
<title>821&#45;&gt;1</title>
<path fill="none" stroke="#00ff00" stroke-width=".5055" d="M1370.1414,-622.5601C1366.0013,-619.691 1361.4701,-616.8682 1357,-614.6833 1307.3565,-590.419 1289.736,-598.0902 1238,-578.6833 1229.8668,-575.6325 1221.1469,-571.8468 1213.4535,-568.3216"/>
<polygon fill="#00ff00" stroke="#00ff00" stroke-width=".5055" points="1214.9193,-565.1433 1204.3789,-564.0707 1211.9498,-571.4823 1214.9193,-565.1433"/>
</g>
<!-- 949&#45;&gt;150 -->
<g id="edge127" class="edge">
<title>949&#45;&gt;150</title>
<path fill="none" stroke="#ff0000" stroke-width=".1478" d="M2101.0522,-536.4533C2099.9178,-528.3656 2098.5973,-518.951 2097.3578,-510.1136"/>
<polygon fill="#ff0000" stroke="#ff0000" stroke-width=".1478" points="2100.8111,-509.5355 2095.9559,-500.1186 2093.8789,-510.5078 2100.8111,-509.5355"/>
</g>
<!-- 835&#45;&gt;111 -->
<g id="edge121" class="edge">
<title>835&#45;&gt;111</title>
<path fill="none" stroke="#00ff00" stroke-width=".1459" stroke-dasharray="1,5" d="M1193.3171,-460.0589C1188.5375,-450.6877 1182.6754,-439.194 1177.3839,-428.8193"/>
<polygon fill="#00ff00" stroke="#00ff00" stroke-width=".1459" points="1180.3938,-427.0172 1172.7324,-419.6992 1174.158,-430.1976 1180.3938,-427.0172"/>
</g>
<!-- 835&#45;&gt;752 -->
<g id="edge125" class="edge">
<title>835&#45;&gt;752</title>
<path fill="none" stroke="#ff0000" stroke-width=".3841" d="M1220.8125,-466.7896C1239.6358,-453.8401 1269.51,-433.2881 1290.9717,-418.5235"/>
<polygon fill="#ff0000" stroke="#ff0000" stroke-width=".3841" points="1293.0576,-421.3368 1299.3126,-412.7854 1289.0901,-415.5697 1293.0576,-421.3368"/>
</g>
<!-- 715&#45;&gt;1 -->
<g id="edge105" class="edge">
<title>715&#45;&gt;1</title>
<path fill="none" stroke="#ff0000" stroke-width=".1022" stroke-dasharray="1,5" d="M1308.8952,-624.7843C1303.4808,-621.4987 1297.517,-617.9169 1292,-614.6833 1264.9832,-598.8486 1233.5518,-581.1573 1213.0192,-569.6974"/>
<polygon fill="#ff0000" stroke="#ff0000" stroke-width=".1022" points="1214.5841,-566.5628 1204.1448,-564.7537 1211.1775,-572.6779 1214.5841,-566.5628"/>
</g>
<!-- 979&#45;&gt;386 -->
<g id="edge131" class="edge">
<title>979&#45;&gt;386</title>
<path fill="none" stroke="#00ff00" stroke-width=".3821" d="M1759.3597,-459.0773C1750.7355,-438.0196 1735.3508,-404.4818 1716,-379.4041 1704.9463,-365.0791 1689.9829,-351.4735 1677.3041,-341.1268"/>
<polygon fill="#00ff00" stroke="#00ff00" stroke-width=".3821" points="1679.374,-338.3012 1669.3663,-334.8233 1675.0208,-343.7831 1679.374,-338.3012"/>
</g>
<!-- 340&#45;&gt;0 -->
<g id="edge77" class="edge">
<title>340&#45;&gt;0</title>
<path fill="none" stroke="#00ff00" stroke-width=".3124" d="M1358.9588,-301.1521C1361.8281,-279.5148 1362.829,-245.7855 1347,-222.5513 1325.7585,-191.3725 1282.5047,-176.5322 1254.9556,-169.9773"/>
<polygon fill="#00ff00" stroke="#00ff00" stroke-width=".3124" points="1255.4191,-166.4962 1244.9031,-167.7861 1253.9283,-173.3357 1255.4191,-166.4962"/>
</g>
<!-- 596 -->
<g id="node43" class="node">
<title>596</title>
<ellipse fill="#ffffff" stroke="#000000" cx="1317" cy="-243.7645" rx="21.4286" ry="21.4286"/>
<text text-anchor="middle" x="1317" y="-241.5645" font-family="Times,serif" font-size="9.00" fill="#000000">596</text>
</g>
<!-- 340&#45;&gt;596 -->
<g id="edge93" class="edge">
<title>340&#45;&gt;596</title>
<path fill="none" stroke="#ff0000" stroke-width=".3764" stroke-dasharray="1,5" d="M1345.6067,-302.8046C1341.0971,-293.4973 1335.6075,-282.1677 1330.6478,-271.9316"/>
<polygon fill="#ff0000" stroke="#ff0000" stroke-width=".3764" points="1333.7954,-270.4009 1326.2852,-262.9278 1327.4959,-273.4532 1333.7954,-270.4009"/>
</g>
<!-- 340&#45;&gt;613 -->
<g id="edge122" class="edge">
<title>340&#45;&gt;613</title>
<path fill="none" stroke="#ff0000" stroke-width=".2177" stroke-dasharray="1,5" d="M1376.4464,-320.3352C1421.7642,-316.4474 1530.612,-307.286 1622,-300.9777 1993.4795,-275.3353 2445.0178,-251.6262 2566.6021,-245.3677"/>
<polygon fill="#ff0000" stroke="#ff0000" stroke-width=".2177" points="2566.8906,-248.8576 2576.6978,-244.8491 2566.5314,-241.8668 2566.8906,-248.8576"/>
</g>
<!-- 596&#45;&gt;0 -->
<g id="edge94" class="edge">
<title>596&#45;&gt;0</title>
<path fill="none" stroke="#00ff00" stroke-width=".3099" stroke-dasharray="1,5" d="M1301.0429,-229.3799C1286.2551,-216.0494 1264.2532,-196.2157 1248.6584,-182.1578"/>
<polygon fill="#00ff00" stroke="#00ff00" stroke-width=".3099" points="1250.9306,-179.4939 1241.1596,-175.3979 1246.2437,-184.6932 1250.9306,-179.4939"/>
</g>
<!-- 738&#45;&gt;2 -->
<g id="edge113" class="edge">
<title>738&#45;&gt;2</title>
<path fill="none" stroke="#ff0000" stroke-width=".6343" d="M2728.0537,-223.0922C2715.7622,-184.5522 2683.5947,-102.3231 2624,-65.6985 2574.5125,-35.2853 2158.1127,-19.3139 2050.3699,-15.6661"/>
<polygon fill="#ff0000" stroke="#ff0000" stroke-width=".6343" points="2050.2316,-12.1596 2040.1207,-15.325 2049.9987,-19.1558 2050.2316,-12.1596"/>
</g>
<!-- 738&#45;&gt;555 -->
<g id="edge107" class="edge">
<title>738&#45;&gt;555</title>
<path fill="none" stroke="#00ff00" stroke-width=".1262" d="M2717.4523,-230.1037C2702.559,-217.8087 2680.4753,-199.5776 2663.5291,-185.5879"/>
<polygon fill="#00ff00" stroke="#00ff00" stroke-width=".1262" points="2665.6168,-182.7728 2655.6769,-179.1055 2661.1603,-188.171 2665.6168,-182.7728"/>
</g>
<!-- 613&#45;&gt;555 -->
<g id="edge97" class="edge">
<title>613&#45;&gt;555</title>
<path fill="none" stroke="#00ff00" stroke-width=".3205" stroke-dasharray="1,5" d="M2607.925,-224.7797C2612.8603,-215.3391 2618.9218,-203.7444 2624.3769,-193.3097"/>
<polygon fill="#00ff00" stroke="#00ff00" stroke-width=".3205" points="2627.6352,-194.6317 2629.1664,-184.1481 2621.4317,-191.3886 2627.6352,-194.6317"/>
</g>
<!-- 997&#45;&gt;2 -->
<g id="edge133" class="edge">
<title>997&#45;&gt;2</title>
<path fill="none" stroke="#00ff00" stroke-width=".867" d="M275.7871,-144.1356C277.9195,-120.6658 285.2828,-83.7701 310,-65.6985 345.6932,-39.602 1791.2499,-18.1612 1999.9861,-15.1986"/>
<polygon fill="#00ff00" stroke="#00ff00" stroke-width=".867" points="2000.038,-18.6984 2009.9876,-15.0574 1999.9391,-11.6991 2000.038,-18.6984"/>
</g>
<!-- 236&#45;&gt;1 -->
<g id="edge74" class="edge">
<title>236&#45;&gt;1</title>
<path fill="none" stroke="#00ff00" stroke-width=".3575" d="M1191,-614.4662C1191,-604.6374 1191,-592.9175 1191,-582.6685"/>
<polygon fill="#00ff00" stroke="#00ff00" stroke-width=".3575" points="1194.5001,-582.6612 1191,-572.6613 1187.5001,-582.6613 1194.5001,-582.6612"/>
</g>
<!-- 111&#45;&gt;0 -->
<g id="edge70" class="edge">
<title>111&#45;&gt;0</title>
<path fill="none" stroke="#ff0000" stroke-width=".3276" stroke-dasharray="1,5" d="M1168.8286,-380.1494C1181.1749,-336.7939 1209.9108,-235.8838 1223.1265,-189.4754"/>
<polygon fill="#ff0000" stroke="#ff0000" stroke-width=".3276" points="1226.5445,-190.2518 1225.9171,-179.6756 1219.8121,-188.3346 1226.5445,-190.2518"/>
</g>
<!-- 111&#45;&gt;386 -->
<g id="edge103" class="edge">
<title>111&#45;&gt;386</title>
<path fill="none" stroke="#ff0000" stroke-width=".3084" d="M1184.0478,-396.9245C1208.704,-392.62 1250.7911,-385.3389 1287,-379.4041 1410.5606,-359.1521 1557.9131,-336.519 1620.9294,-326.9116"/>
<polygon fill="#ff0000" stroke="#ff0000" stroke-width=".3084" points="1621.6395,-330.3439 1630.9984,-325.378 1620.5854,-323.4237 1621.6395,-330.3439"/>
</g>
<!-- 752&#45;&gt;340 -->
<g id="edge109" class="edge">
<title>752&#45;&gt;340</title>
<path fill="none" stroke="#00ff00" stroke-width=".7504" d="M1326.3933,-381.231C1330.9029,-371.9237 1336.3925,-360.5941 1341.3522,-350.358"/>
<polygon fill="#00ff00" stroke="#00ff00" stroke-width=".7504" points="1344.5041,-351.8797 1345.7148,-341.3542 1338.2046,-348.8273 1344.5041,-351.8797"/>
</g>
<!-- 755&#45;&gt;2 -->
<g id="edge111" class="edge">
<title>755&#45;&gt;2</title>
<path fill="none" stroke="#00ff00" stroke-width=".3358" stroke-dasharray="1,5" d="M2548.5866,-74.2773C2543.1915,-70.949 2537.0651,-67.7254 2531,-65.6985 2440.1654,-35.3425 2139.8811,-19.918 2050.3871,-15.9187"/>
<polygon fill="#00ff00" stroke="#00ff00" stroke-width=".3358" points="2050.4632,-12.4188 2040.3196,-15.4777 2050.1568,-19.4121 2050.4632,-12.4188"/>
</g>
<!-- 630&#45;&gt;0 -->
<g id="edge99" class="edge">
<title>630&#45;&gt;0</title>
<path fill="none" stroke="#00ff00" stroke-width=".4099" stroke-dasharray="1,5" d="M2036.5297,-537.5578C2017.0615,-488.5894 1959.8149,-361.8674 1868,-300.9777 1801.4607,-256.8502 1763.4429,-300.6236 1692,-264.9777 1666.5229,-252.2661 1669.8733,-234.4356 1644,-222.5513 1573.7848,-190.2996 1333.8475,-172.1115 1255.1932,-166.9096"/>
<polygon fill="#00ff00" stroke="#00ff00" stroke-width=".4099" points="1255.4051,-163.4161 1245.1996,-166.2617 1254.9522,-170.4015 1255.4051,-163.4161"/>
</g>
<!-- 888&#45;&gt;821 -->
<g id="edge124" class="edge">
<title>888&#45;&gt;821</title>
<path fill="none" stroke="#00ff00" stroke-width=".1549" d="M1368.5685,-693.7173C1371.267,-685.2519 1374.4457,-675.2802 1377.3964,-666.0234"/>
<polygon fill="#00ff00" stroke="#00ff00" stroke-width=".1549" points="1380.7729,-666.9552 1380.4754,-656.3645 1374.1035,-664.8292 1380.7729,-666.9552"/>
</g>
</g>
</svg>
