<?xml version="1.0" encoding="UTF-8" standalone="no"?>
<!DOCTYPE svg PUBLIC "-//W3C//DTD SVG 1.1//EN"
 "http://www.w3.org/Graphics/SVG/1.1/DTD/svg11.dtd">
<!-- Generated by graphviz version 2.40.1 (20161225.0304)
 -->
<!-- Title: %3 Pages: 1 -->
<svg width="2728pt" height="683pt"
 viewBox="0.00 0.00 2727.53 683.11" xmlns="http://www.w3.org/2000/svg" xmlns:xlink="http://www.w3.org/1999/xlink">
<g id="graph0" class="graph" transform="scale(1 1) rotate(0) translate(4 679.1097)">
<title>%3</title>
<polygon fill="#ffffff" stroke="transparent" points="-4,4 -4,-679.1097 2723.5298,-679.1097 2723.5298,4 -4,4"/>
<!-- group_1_ped_1_location -->
<g id="node1" class="node">
<title>group_1_ped_1_location</title>
<polygon fill="#d3d3d3" stroke="#000000" points="514.0298,-441.4371 409.0298,-441.4371 409.0298,-423.4371 514.0298,-423.4371 514.0298,-441.4371"/>
<text text-anchor="middle" x="461.5298" y="-430.2371" font-family="Times,serif" font-size="9.00" fill="#000000">group_1_ped_1_location</text>
</g>
<!-- 0 -->
<g id="node26" class="node">
<title>0</title>
<ellipse fill="#add8e6" stroke="#000000" cx="919.5298" cy="-14.8492" rx="14.7" ry="14.7"/>
<text text-anchor="middle" x="919.5298" y="-12.6492" font-family="Times,serif" font-size="9.00" fill="#000000">0</text>
</g>
<!-- group_1_ped_1_location&#45;&gt;0 -->
<g id="edge1" class="edge">
<title>group_1_ped_1_location&#45;&gt;0</title>
<path fill="none" stroke="#00ff00" stroke-width=".1858" stroke-dasharray="1,5" d="M455.6809,-423.2124C440.413,-398.2191 400.5298,-326.6866 400.5298,-261.4422 400.5298,-261.4422 400.5298,-261.4422 400.5298,-175.9447 400.5298,-98.4796 464.4304,-96.4509 535.5298,-65.6985 600.6964,-37.5121 819.6198,-21.2283 894.3118,-16.3886"/>
<polygon fill="#00ff00" stroke="#00ff00" stroke-width=".1858" points="894.8759,-19.8599 904.6342,-15.7337 894.4326,-12.874 894.8759,-19.8599"/>
</g>
<!-- 1 -->
<g id="node27" class="node">
<title>1</title>
<ellipse fill="#add8e6" stroke="#000000" cx="1266.5298" cy="-346.9396" rx="14.7" ry="14.7"/>
<text text-anchor="middle" x="1266.5298" y="-344.7396" font-family="Times,serif" font-size="9.00" fill="#000000">1</text>
</g>
<!-- group_1_ped_1_location&#45;&gt;1 -->
<g id="edge2" class="edge">
<title>group_1_ped_1_location&#45;&gt;1</title>
<path fill="none" stroke="#ff0000" stroke-width=".2016" stroke-dasharray="1,5" d="M479.4406,-423.3403C491.3349,-417.7633 507.4752,-411.0656 522.5298,-407.6884 801.814,-345.0364 882.4384,-413.928 1165.5298,-371.6884 1192.2912,-367.6954 1222.3355,-359.8951 1242.6463,-354.1141"/>
<polygon fill="#ff0000" stroke="#ff0000" stroke-width=".2016" points="1243.6851,-357.4571 1252.3114,-351.306 1241.7319,-350.7351 1243.6851,-357.4571"/>
</g>
<!-- 111 -->
<g id="node49" class="node">
<title>111</title>
<ellipse fill="#ffffff" stroke="#000000" cx="533.5298" cy="-261.4422" rx="21.4286" ry="21.4286"/>
<text text-anchor="middle" x="533.5298" y="-259.2422" font-family="Times,serif" font-size="9.00" fill="#000000">111</text>
</g>
<!-- group_1_ped_1_location&#45;&gt;111 -->
<g id="edge72" class="edge">
<title>group_1_ped_1_location&#45;&gt;111</title>
<path fill="none" stroke="#00ff00" stroke-width=".3709" d="M458.4761,-423.2872C452.4758,-403.6268 441.0953,-356.3668 457.5298,-322.1909 467.3505,-301.7684 487.7498,-286.0674 504.9432,-275.748"/>
<polygon fill="#00ff00" stroke="#00ff00" stroke-width=".3709" points="507.1024,-278.5474 514.0778,-270.5727 503.6518,-272.4569 507.1024,-278.5474"/>
</g>
<!-- 1022 -->
<g id="node53" class="node">
<title>1022</title>
<ellipse fill="#ffffff" stroke="#000000" cx="1025.5298" cy="-346.9396" rx="25" ry="25"/>
<text text-anchor="middle" x="1025.5298" y="-344.7396" font-family="Times,serif" font-size="9.00" fill="#000000">1022</text>
</g>
<!-- group_1_ped_1_location&#45;&gt;1022 -->
<g id="edge112" class="edge">
<title>group_1_ped_1_location&#45;&gt;1022</title>
<path fill="none" stroke="#00ff00" stroke-width=".1272" d="M480.0425,-423.386C491.9107,-417.974 507.8,-411.4406 522.5298,-407.6884 659.5083,-372.7952 698.2363,-388.962 838.5298,-371.6884 891.7102,-365.1406 953.2992,-356.853 990.825,-351.7243"/>
<polygon fill="#00ff00" stroke="#00ff00" stroke-width=".1272" points="991.3117,-355.1904 1000.7442,-350.3655 990.3616,-348.2551 991.3117,-355.1904"/>
</g>
<!-- group_1_ped_1_age -->
<g id="node2" class="node">
<title>group_1_ped_1_age</title>
<polygon fill="#d3d3d3" stroke="#000000" points="1973.0298,-441.4371 1884.0298,-441.4371 1884.0298,-423.4371 1973.0298,-423.4371 1973.0298,-441.4371"/>
<text text-anchor="middle" x="1928.5298" y="-430.2371" font-family="Times,serif" font-size="9.00" fill="#000000">group_1_ped_1_age</text>
</g>
<!-- group_1_ped_1_age&#45;&gt;1 -->
<g id="edge3" class="edge">
<title>group_1_ped_1_age&#45;&gt;1</title>
<path fill="none" stroke="#ff0000" stroke-width=".4202" stroke-dasharray="1,5" d="M1912.5144,-423.3951C1902.0377,-417.9146 1887.8676,-411.3032 1874.5298,-407.6884 1761.5322,-377.0635 1391.3996,-354.0878 1291.5433,-348.3376"/>
<polygon fill="#ff0000" stroke="#ff0000" stroke-width=".4202" points="1291.6635,-344.8389 1281.4805,-347.7641 1291.2651,-351.8275 1291.6635,-344.8389"/>
</g>
<!-- 979 -->
<g id="node44" class="node">
<title>979</title>
<ellipse fill="#ffffff" stroke="#000000" cx="2057.5298" cy="-261.4422" rx="21.4286" ry="21.4286"/>
<text text-anchor="middle" x="2057.5298" y="-259.2422" font-family="Times,serif" font-size="9.00" fill="#000000">979</text>
</g>
<!-- group_1_ped_1_age&#45;&gt;979 -->
<g id="edge86" class="edge">
<title>group_1_ped_1_age&#45;&gt;979</title>
<path fill="none" stroke="#ff0000" stroke-width=".1873" stroke-dasharray="1,5" d="M1973.2172,-425.0816C2004.0736,-417.4226 2042.9473,-402.067 2062.5298,-371.6884 2077.8118,-347.9812 2073.8643,-315.0825 2067.7498,-291.4034"/>
<polygon fill="#ff0000" stroke="#ff0000" stroke-width=".1873" points="2071.0512,-290.217 2064.9482,-281.5565 2064.3184,-292.1326 2071.0512,-290.217"/>
</g>
<!-- 1271 -->
<g id="node52" class="node">
<title>1271</title>
<ellipse fill="#ffffff" stroke="#000000" cx="2028.5298" cy="-346.9396" rx="25" ry="25"/>
<text text-anchor="middle" x="2028.5298" y="-344.7396" font-family="Times,serif" font-size="9.00" fill="#000000">1271</text>
</g>
<!-- group_1_ped_1_age&#45;&gt;1271 -->
<g id="edge109" class="edge">
<title>group_1_ped_1_age&#45;&gt;1271</title>
<path fill="none" stroke="#ff0000" stroke-width=".1044" stroke-dasharray="1,5" d="M1939.2315,-423.2874C1953.9992,-410.6615 1981.1222,-387.472 2001.6156,-369.9506"/>
<polygon fill="#ff0000" stroke="#ff0000" stroke-width=".1044" points="2004.0556,-372.4693 2009.3819,-363.3106 1999.5067,-367.1488 2004.0556,-372.4693"/>
</g>
<!-- group_1_ped_2_location -->
<g id="node3" class="node">
<title>group_1_ped_2_location</title>
<polygon fill="#d3d3d3" stroke="#000000" points="245.0298,-441.4371 140.0298,-441.4371 140.0298,-423.4371 245.0298,-423.4371 245.0298,-441.4371"/>
<text text-anchor="middle" x="192.5298" y="-430.2371" font-family="Times,serif" font-size="9.00" fill="#000000">group_1_ped_2_location</text>
</g>
<!-- group_1_ped_2_location&#45;&gt;0 -->
<g id="edge4" class="edge">
<title>group_1_ped_2_location&#45;&gt;0</title>
<path fill="none" stroke="#00ff00" stroke-width=".2103" stroke-dasharray="1,5" d="M190.6841,-423.2137C185.7329,-397.639 172.5298,-323.6113 172.5298,-261.4422 172.5298,-261.4422 172.5298,-261.4422 172.5298,-175.9447 172.5298,-120.5793 184.2211,-96.0437 230.5298,-65.6985 287.0202,-28.6813 777.4531,-17.4395 894.516,-15.272"/>
<polygon fill="#00ff00" stroke="#00ff00" stroke-width=".2103" points="894.7164,-18.7691 904.652,-15.0901 894.5907,-11.7702 894.7164,-18.7691"/>
</g>
<!-- group_1_ped_2_location&#45;&gt;1 -->
<g id="edge5" class="edge">
<title>group_1_ped_2_location&#45;&gt;1</title>
<path fill="none" stroke="#ff0000" stroke-width=".2164" stroke-dasharray="1,5" d="M210.1588,-423.3816C222.0699,-417.7455 238.3362,-410.9656 253.5298,-407.6884 650.0596,-322.1594 763.8427,-428.2448 1165.5298,-371.6884 1192.3232,-367.916 1222.362,-360.078 1242.6628,-354.2279"/>
<polygon fill="#ff0000" stroke="#ff0000" stroke-width=".2164" points="1243.7193,-357.5654 1252.3224,-351.3819 1241.7409,-350.8508 1243.7193,-357.5654"/>
</g>
<!-- 2 -->
<g id="node28" class="node">
<title>2</title>
<ellipse fill="#add8e6" stroke="#000000" cx="1881.5298" cy="-14.8492" rx="14.7" ry="14.7"/>
<text text-anchor="middle" x="1881.5298" y="-12.6492" font-family="Times,serif" font-size="9.00" fill="#000000">2</text>
</g>
<!-- group_1_ped_2_location&#45;&gt;2 -->
<g id="edge6" class="edge">
<title>group_1_ped_2_location&#45;&gt;2</title>
<path fill="none" stroke="#ff0000" stroke-width=".7351" d="M203.5502,-423.0891C217.4326,-411.2641 241.9613,-390.2069 262.5298,-371.6884 286.4827,-350.1228 288.7306,-340.0968 315.5298,-322.1909 391.8516,-271.1966 414.4284,-258.7478 503.5298,-236.6934 636.4201,-203.8004 998.432,-266.4072 1118.5298,-200.6934 1134.79,-191.7964 1200.3496,-74.7403 1216.5298,-65.6985 1273.2651,-33.9936 1742.0045,-18.7883 1856.4148,-15.5285"/>
<polygon fill="#ff0000" stroke="#ff0000" stroke-width=".7351" points="1856.7391,-19.0209 1866.6373,-15.2424 1856.5432,-12.0236 1856.7391,-19.0209"/>
</g>
<!-- group_1_ped_2_age -->
<g id="node4" class="node">
<title>group_1_ped_2_age</title>
<polygon fill="#d3d3d3" stroke="#000000" points="1542.0298,-441.4371 1453.0298,-441.4371 1453.0298,-423.4371 1542.0298,-423.4371 1542.0298,-441.4371"/>
<text text-anchor="middle" x="1497.5298" y="-430.2371" font-family="Times,serif" font-size="9.00" fill="#000000">group_1_ped_2_age</text>
</g>
<!-- group_1_ped_2_age&#45;&gt;0 -->
<g id="edge7" class="edge">
<title>group_1_ped_2_age&#45;&gt;0</title>
<path fill="none" stroke="#00ff00" stroke-width=".2765" stroke-dasharray="1,5" d="M1492.2876,-423.329C1473.1583,-391.0649 1403.4495,-281.7412 1312.5298,-236.6934 1245.0441,-203.2565 1033.2314,-249.0967 975.5298,-200.6934 927.6835,-160.5573 955.1012,-125.3246 936.5298,-65.6985 933.7747,-56.853 930.5922,-47.1992 927.7311,-38.7028"/>
<polygon fill="#00ff00" stroke="#00ff00" stroke-width=".2765" points="930.9811,-37.3882 924.4509,-29.0451 924.353,-39.6395 930.9811,-37.3882"/>
</g>
<!-- group_1_ped_2_age&#45;&gt;1 -->
<g id="edge8" class="edge">
<title>group_1_ped_2_age&#45;&gt;1</title>
<path fill="none" stroke="#ff0000" stroke-width=".1228" stroke-dasharray="1,5" d="M1479.1045,-423.2352C1469.0102,-418.3463 1456.2104,-412.3928 1444.5298,-407.6884 1390.4551,-385.9096 1325.2322,-364.9622 1290.7096,-354.2787"/>
<polygon fill="#ff0000" stroke="#ff0000" stroke-width=".1228" points="1291.6146,-350.8953 1281.0276,-351.3031 1289.5581,-357.5865 1291.6146,-350.8953"/>
</g>
<!-- group_1_ped_2_age&#45;&gt;2 -->
<g id="edge9" class="edge">
<title>group_1_ped_2_age&#45;&gt;2</title>
<path fill="none" stroke="#ff0000" stroke-width=".5981" d="M1494.5526,-423.16C1480.1455,-376.2719 1422.6118,-163.7632 1529.5298,-65.6985 1553.6549,-43.5711 1779.3681,-23.2093 1856.1227,-16.8726"/>
<polygon fill="#ff0000" stroke="#ff0000" stroke-width=".5981" points="1856.642,-20.342 1866.3245,-16.041 1856.0732,-13.3652 1856.642,-20.342"/>
</g>
<!-- 1512 -->
<g id="node46" class="node">
<title>1512</title>
<ellipse fill="#ffffff" stroke="#000000" cx="1563.5298" cy="-90.4472" rx="25" ry="25"/>
<text text-anchor="middle" x="1563.5298" y="-88.2472" font-family="Times,serif" font-size="9.00" fill="#000000">1512</text>
</g>
<!-- group_1_ped_2_age&#45;&gt;1512 -->
<g id="edge120" class="edge">
<title>group_1_ped_2_age&#45;&gt;1512</title>
<path fill="none" stroke="#00ff00" stroke-width=".1873" stroke-dasharray="1,5" d="M1496.5885,-423.3236C1493.9281,-395.16 1487.4817,-307.1729 1502.5298,-236.6934 1511.4064,-195.1188 1531.7936,-150.4472 1546.5604,-121.5665"/>
<polygon fill="#00ff00" stroke="#00ff00" stroke-width=".1873" points="1549.8166,-122.8913 1551.3281,-112.4048 1543.607,-119.6598 1549.8166,-122.8913"/>
</g>
<!-- group_1_ped_3_location -->
<g id="node5" class="node">
<title>group_1_ped_3_location</title>
<polygon fill="#d3d3d3" stroke="#000000" points="1280.0298,-526.9346 1175.0298,-526.9346 1175.0298,-508.9346 1280.0298,-508.9346 1280.0298,-526.9346"/>
<text text-anchor="middle" x="1227.5298" y="-515.7346" font-family="Times,serif" font-size="9.00" fill="#000000">group_1_ped_3_location</text>
</g>
<!-- group_1_ped_3_location&#45;&gt;0 -->
<g id="edge10" class="edge">
<title>group_1_ped_3_location&#45;&gt;0</title>
<path fill="none" stroke="#00ff00" stroke-width=".2875" stroke-dasharray="1,5" d="M1209.296,-508.8971C1197.1945,-503.3446 1180.7873,-496.6517 1165.5298,-493.1859 1107.2148,-479.9392 674.1342,-495.8685 628.5298,-457.1859 594.4537,-428.2818 582.5298,-306.1257 582.5298,-261.4422 582.5298,-261.4422 582.5298,-261.4422 582.5298,-175.9447 582.5298,-123.821 582.5345,-99.124 622.5298,-65.6985 663.7951,-31.2116 830.3543,-19.3207 894.3308,-15.9756"/>
<polygon fill="#00ff00" stroke="#00ff00" stroke-width=".2875" points="894.5458,-19.4694 904.3601,-15.4782 894.199,-12.478 894.5458,-19.4694"/>
</g>
<!-- group_1_ped_3_location&#45;&gt;1 -->
<g id="edge11" class="edge">
<title>group_1_ped_3_location&#45;&gt;1</title>
<path fill="none" stroke="#ff0000" stroke-width=".3049" d="M1221.242,-508.7338C1208.8457,-489.3679 1183.7682,-443.2552 1199.5298,-407.6884 1200.8379,-404.7366 1228.1296,-380.4948 1247.4718,-363.5427"/>
<polygon fill="#ff0000" stroke="#ff0000" stroke-width=".3049" points="1249.9511,-366.0243 1255.1757,-356.8072 1245.3436,-360.7544 1249.9511,-366.0243"/>
</g>
<!-- group_1_ped_3_location&#45;&gt;2 -->
<g id="edge12" class="edge">
<title>group_1_ped_3_location&#45;&gt;2</title>
<path fill="none" stroke="#00ff00" stroke-width=".4145" stroke-dasharray="1,5" d="M1241.7173,-508.88C1257.6769,-498.124 1283.5769,-478.8831 1300.5298,-457.1859 1360.0082,-381.0621 1411.1874,-122.2226 1489.5298,-65.6985 1519.3921,-44.1528 1774.7329,-22.9916 1856.4715,-16.7155"/>
<polygon fill="#00ff00" stroke="#00ff00" stroke-width=".4145" points="1856.8977,-20.1933 1866.6039,-15.9458 1856.3674,-13.2134 1856.8977,-20.1933"/>
</g>
<!-- 1291 -->
<g id="node31" class="node">
<title>1291</title>
<ellipse fill="#ffffff" stroke="#000000" cx="2323.5298" cy="-432.4371" rx="25" ry="25"/>
<text text-anchor="middle" x="2323.5298" y="-430.2371" font-family="Times,serif" font-size="9.00" fill="#000000">1291</text>
</g>
<!-- group_1_ped_3_location&#45;&gt;1291 -->
<g id="edge102" class="edge">
<title>group_1_ped_3_location&#45;&gt;1291</title>
<path fill="none" stroke="#00ff00" stroke-width=".1136" stroke-dasharray="1,5" d="M1280.211,-514.2146C1351.9606,-509.1929 1484.4316,-500.0809 1597.5298,-493.1859 1888.097,-475.4714 1965.83,-513.0314 2251.5298,-457.1859 2264.7048,-454.6105 2278.7584,-450.1833 2290.9197,-445.779"/>
<polygon fill="#00ff00" stroke="#00ff00" stroke-width=".1136" points="2292.5024,-448.9231 2300.6293,-442.1258 2290.0373,-442.3715 2292.5024,-448.9231"/>
</g>
<!-- 1355 -->
<g id="node43" class="node">
<title>1355</title>
<ellipse fill="#ffffff" stroke="#000000" cx="556.5298" cy="-432.4371" rx="25" ry="25"/>
<text text-anchor="middle" x="556.5298" y="-430.2371" font-family="Times,serif" font-size="9.00" fill="#000000">1355</text>
</g>
<!-- group_1_ped_3_location&#45;&gt;1355 -->
<g id="edge127" class="edge">
<title>group_1_ped_3_location&#45;&gt;1355</title>
<path fill="none" stroke="#00ff00" stroke-width=".223" d="M1209.3004,-508.8774C1197.2009,-503.3167 1180.7939,-496.6222 1165.5298,-493.1859 917.8895,-437.4358 836.9357,-535.6523 595.5298,-457.1859 591.9645,-456.027 588.4007,-454.466 584.9569,-452.6885"/>
<polygon fill="#00ff00" stroke="#00ff00" stroke-width=".223" points="586.6075,-449.5997 576.2021,-447.6048 583.0923,-455.6531 586.6075,-449.5997"/>
</g>
<!-- group_1_ped_3_age -->
<g id="node6" class="node">
<title>group_1_ped_3_age</title>
<polygon fill="#d3d3d3" stroke="#000000" points="1696.0298,-526.9346 1607.0298,-526.9346 1607.0298,-508.9346 1696.0298,-508.9346 1696.0298,-526.9346"/>
<text text-anchor="middle" x="1651.5298" y="-515.7346" font-family="Times,serif" font-size="9.00" fill="#000000">group_1_ped_3_age</text>
</g>
<!-- group_1_ped_3_age&#45;&gt;1 -->
<g id="edge13" class="edge">
<title>group_1_ped_3_age&#45;&gt;1</title>
<path fill="none" stroke="#00ff00" stroke-width=".5159" stroke-dasharray="1,5" d="M1606.7077,-514.7125C1503.6554,-506.8501 1256.8212,-485.2531 1232.5298,-457.1859 1209.9991,-431.153 1233.0534,-390.3759 1250.6346,-366.3913"/>
<polygon fill="#00ff00" stroke="#00ff00" stroke-width=".5159" points="1253.4726,-368.4418 1256.7697,-358.373 1247.9133,-364.1881 1253.4726,-368.4418"/>
</g>
<!-- group_1_ped_3_age&#45;&gt;2 -->
<g id="edge14" class="edge">
<title>group_1_ped_3_age&#45;&gt;2</title>
<path fill="none" stroke="#00ff00" stroke-width=".8745" d="M1696.0762,-516.2135C1866.9508,-509.4258 2472.5112,-483.5887 2503.5298,-457.1859 2541.8651,-424.5551 2529.5298,-397.2821 2529.5298,-346.9396 2529.5298,-346.9396 2529.5298,-346.9396 2529.5298,-175.9447 2529.5298,-88.4859 2448.699,-95.6527 2366.5298,-65.6985 2280.5241,-34.3457 1993.7405,-19.6778 1906.7564,-15.8787"/>
<polygon fill="#00ff00" stroke="#00ff00" stroke-width=".8745" points="1906.8635,-12.3801 1896.7233,-15.4504 1906.5649,-19.3738 1906.8635,-12.3801"/>
</g>
<!-- 386 -->
<g id="node29" class="node">
<title>386</title>
<ellipse fill="#ffffff" stroke="#000000" cx="1618.5298" cy="-175.9447" rx="21.4286" ry="21.4286"/>
<text text-anchor="middle" x="1618.5298" y="-173.7447" font-family="Times,serif" font-size="9.00" fill="#000000">386</text>
</g>
<!-- group_1_ped_3_age&#45;&gt;386 -->
<g id="edge64" class="edge">
<title>group_1_ped_3_age&#45;&gt;386</title>
<path fill="none" stroke="#00ff00" stroke-width=".5697" d="M1665.8585,-508.8069C1680.7366,-498.3868 1703.1262,-479.8219 1712.5298,-457.1859 1720.9694,-436.8702 1725.1794,-425.6866 1712.5298,-407.6884 1685.368,-369.0419 1639.6915,-410.3348 1612.5298,-371.6884 1577.746,-322.1971 1594.2104,-246.9484 1607.4891,-205.6514"/>
<polygon fill="#00ff00" stroke="#00ff00" stroke-width=".5697" points="1610.8915,-206.5141 1610.7632,-195.92 1604.257,-204.2818 1610.8915,-206.5141"/>
</g>
<!-- 428 -->
<g id="node35" class="node">
<title>428</title>
<ellipse fill="#ffffff" stroke="#000000" cx="1532.5298" cy="-261.4422" rx="21.4286" ry="21.4286"/>
<text text-anchor="middle" x="1532.5298" y="-259.2422" font-family="Times,serif" font-size="9.00" fill="#000000">428</text>
</g>
<!-- group_1_ped_3_age&#45;&gt;428 -->
<g id="edge66" class="edge">
<title>group_1_ped_3_age&#45;&gt;428</title>
<path fill="none" stroke="#00ff00" stroke-width=".2446" d="M1638.9468,-508.8419C1624.9027,-498.0509 1602.4574,-478.7779 1589.5298,-457.1859 1557.9016,-404.3593 1542.9379,-332.9433 1536.5951,-292.5933"/>
<polygon fill="#00ff00" stroke="#00ff00" stroke-width=".2446" points="1540.0348,-291.9288 1535.0955,-282.5557 1533.1116,-292.9631 1540.0348,-291.9288"/>
</g>
<!-- 1223 -->
<g id="node41" class="node">
<title>1223</title>
<ellipse fill="#ffffff" stroke="#000000" cx="1266.5298" cy="-432.4371" rx="25" ry="25"/>
<text text-anchor="middle" x="1266.5298" y="-430.2371" font-family="Times,serif" font-size="9.00" fill="#000000">1223</text>
</g>
<!-- group_1_ped_3_age&#45;&gt;1223 -->
<g id="edge95" class="edge">
<title>group_1_ped_3_age&#45;&gt;1223</title>
<path fill="none" stroke="#ff0000" stroke-width=".5579" d="M1606.7895,-510.7902C1546.525,-500.7857 1436.1398,-481.1154 1343.5298,-457.1859 1329.0128,-453.4348 1313.2095,-448.5071 1299.7187,-444.037"/>
<polygon fill="#ff0000" stroke="#ff0000" stroke-width=".5579" points="1300.5067,-440.6092 1289.9126,-440.7349 1298.2727,-447.2432 1300.5067,-440.6092"/>
</g>
<!-- group_1_ped_3_age&#45;&gt;979 -->
<g id="edge81" class="edge">
<title>group_1_ped_3_age&#45;&gt;979</title>
<path fill="none" stroke="#ff0000" stroke-width=".2649" d="M1696.2511,-516.7889C1829.0884,-512.9286 2214.4085,-498.2554 2251.5298,-457.1859 2266.2811,-440.8656 2261.3438,-427.3769 2251.5298,-407.6884 2242.366,-389.3044 2134.8133,-314.2155 2083.9165,-279.3663"/>
<polygon fill="#ff0000" stroke="#ff0000" stroke-width=".2649" points="2085.6266,-276.2959 2075.395,-273.5453 2081.6781,-282.076 2085.6266,-276.2959"/>
</g>
<!-- group_1_ped_3_age&#45;&gt;1271 -->
<g id="edge99" class="edge">
<title>group_1_ped_3_age&#45;&gt;1271</title>
<path fill="none" stroke="#ff0000" stroke-width=".1595" d="M1696.1494,-514.8974C1775.7763,-508.6545 1938.0943,-491.9476 1981.5298,-457.1859 2004.8025,-438.5605 2016.7466,-406.2554 2022.7532,-381.4143"/>
<polygon fill="#ff0000" stroke="#ff0000" stroke-width=".1595" points="2026.1758,-382.1462 2024.9119,-371.627 2019.3401,-380.6385 2026.1758,-382.1462"/>
</g>
<!-- group_1_ped_3_age&#45;&gt;1022 -->
<g id="edge90" class="edge">
<title>group_1_ped_3_age&#45;&gt;1022</title>
<path fill="none" stroke="#00ff00" stroke-width=".2744" d="M1606.633,-515.2371C1482.2645,-507.4569 1139.6048,-483.823 1096.5298,-457.1859 1067.8573,-439.455 1048.5992,-405.3486 1037.4579,-379.744"/>
<polygon fill="#00ff00" stroke="#00ff00" stroke-width=".2744" points="1040.6462,-378.2954 1033.5826,-370.3989 1034.1802,-380.9769 1040.6462,-378.2954"/>
</g>
<!-- group_1_ped_4_location -->
<g id="node7" class="node">
<title>group_1_ped_4_location</title>
<polygon fill="#d3d3d3" stroke="#000000" points="743.0298,-441.4371 638.0298,-441.4371 638.0298,-423.4371 743.0298,-423.4371 743.0298,-441.4371"/>
<text text-anchor="middle" x="690.5298" y="-430.2371" font-family="Times,serif" font-size="9.00" fill="#000000">group_1_ped_4_location</text>
</g>
<!-- group_1_ped_4_location&#45;&gt;0 -->
<g id="edge15" class="edge">
<title>group_1_ped_4_location&#45;&gt;0</title>
<path fill="none" stroke="#00ff00" stroke-width=".2098" stroke-dasharray="1,5" d="M683.8179,-423.3395C666.2975,-398.6619 620.5298,-327.8432 620.5298,-261.4422 620.5298,-261.4422 620.5298,-261.4422 620.5298,-175.9447 620.5298,-123.6677 621.704,-99.5627 661.5298,-65.6985 696.6543,-35.8318 836.9607,-21.4401 894.6078,-16.6965"/>
<polygon fill="#00ff00" stroke="#00ff00" stroke-width=".2098" points="894.9816,-20.1779 904.6734,-15.898 894.4279,-13.1998 894.9816,-20.1779"/>
</g>
<!-- group_1_ped_4_location&#45;&gt;1 -->
<g id="edge16" class="edge">
<title>group_1_ped_4_location&#45;&gt;1</title>
<path fill="none" stroke="#ff0000" stroke-width=".2367" stroke-dasharray="1,5" d="M708.734,-423.3395C720.6138,-417.8368 736.6285,-411.2215 751.5298,-407.6884 945.894,-361.6038 1004.462,-414.6976 1199.5298,-371.6884 1214.6267,-368.3598 1230.9095,-362.4036 1243.6427,-357.1686"/>
<polygon fill="#ff0000" stroke="#ff0000" stroke-width=".2367" points="1245.1697,-360.3226 1253.0029,-353.1887 1242.4307,-353.8807 1245.1697,-360.3226"/>
</g>
<!-- group_1_ped_4_location&#45;&gt;2 -->
<g id="edge17" class="edge">
<title>group_1_ped_4_location&#45;&gt;2</title>
<path fill="none" stroke="#ff0000" stroke-width=".5373" d="M712.7595,-423.3867C753.7378,-406.6933 837.1633,-372.6574 838.5298,-371.6884 862.54,-354.6626 860.8693,-342.1206 882.5298,-322.1909 929.136,-279.3087 938.4883,-262.0354 996.5298,-236.6934 1078.4999,-200.9038 1115.8622,-243.2541 1194.5298,-200.6934 1267.2499,-161.3505 1248.129,-101.7623 1322.5298,-65.6985 1371.1263,-42.1426 1754.7003,-21.2545 1856.6937,-16.0763"/>
<polygon fill="#ff0000" stroke="#ff0000" stroke-width=".5373" points="1856.8799,-19.5714 1866.6914,-15.5734 1856.5282,-12.5803 1856.8799,-19.5714"/>
</g>
<!-- group_1_ped_4_age -->
<g id="node8" class="node">
<title>group_1_ped_4_age</title>
<polygon fill="#d3d3d3" stroke="#000000" points="122.0298,-441.4371 33.0298,-441.4371 33.0298,-423.4371 122.0298,-423.4371 122.0298,-441.4371"/>
<text text-anchor="middle" x="77.5298" y="-430.2371" font-family="Times,serif" font-size="9.00" fill="#000000">group_1_ped_4_age</text>
</g>
<!-- group_1_ped_4_age&#45;&gt;0 -->
<g id="edge18" class="edge">
<title>group_1_ped_4_age&#45;&gt;0</title>
<path fill="none" stroke="#ff0000" stroke-width=".281" d="M80.2061,-423.2623C87.3853,-397.8118 106.5298,-324.0721 106.5298,-261.4422 106.5298,-261.4422 106.5298,-261.4422 106.5298,-175.9447 106.5298,-117.1784 128.7448,-95.2681 179.5298,-65.6985 242.4587,-29.0581 771.8744,-17.4689 894.3223,-15.2667"/>
<polygon fill="#ff0000" stroke="#ff0000" stroke-width=".281" points="894.6365,-18.7618 904.5738,-15.0874 894.5141,-11.7629 894.6365,-18.7618"/>
</g>
<!-- group_1_ped_4_age&#45;&gt;1 -->
<g id="edge19" class="edge">
<title>group_1_ped_4_age&#45;&gt;1</title>
<path fill="none" stroke="#ff0000" stroke-width=".8526" d="M92.6967,-423.3484C102.9823,-417.6982 117.101,-410.9151 130.5298,-407.6884 354.2995,-353.9192 937.5639,-403.241 1165.5298,-371.6884 1192.3319,-367.9787 1222.3693,-360.13 1242.6673,-354.2602"/>
<polygon fill="#ff0000" stroke="#ff0000" stroke-width=".8526" points="1243.7289,-357.5962 1252.3254,-351.4035 1241.7433,-350.8837 1243.7289,-357.5962"/>
</g>
<!-- group_1_ped_4_age&#45;&gt;2 -->
<g id="edge20" class="edge">
<title>group_1_ped_4_age&#45;&gt;2</title>
<path fill="none" stroke="#ff0000" stroke-width=".1407" stroke-dasharray="1,5" d="M87.044,-423.0969C121.4235,-390.0493 243.8334,-278.4078 369.5298,-236.6934 520.5223,-186.5841 945.7974,-278.5587 1084.5298,-200.6934 1086.5084,-199.5829 1174.5634,-66.8304 1176.5298,-65.6985 1236.4801,-31.1902 1737.7309,-18.0231 1856.4091,-15.3738"/>
<polygon fill="#ff0000" stroke="#ff0000" stroke-width=".1407" points="1856.7509,-18.8673 1866.6722,-15.1499 1856.5982,-11.8689 1856.7509,-18.8673"/>
</g>
<!-- group_2_ped_1_location -->
<g id="node9" class="node">
<title>group_2_ped_1_location</title>
<polygon fill="#d3d3d3" stroke="#000000" points="2242.0298,-441.4371 2137.0298,-441.4371 2137.0298,-423.4371 2242.0298,-423.4371 2242.0298,-441.4371"/>
<text text-anchor="middle" x="2189.5298" y="-430.2371" font-family="Times,serif" font-size="9.00" fill="#000000">group_2_ped_1_location</text>
</g>
<!-- group_2_ped_1_location&#45;&gt;1 -->
<g id="edge21" class="edge">
<title>group_2_ped_1_location&#45;&gt;1</title>
<path fill="none" stroke="#00ff00" stroke-width=".2517" d="M2171.6032,-423.4095C2159.7024,-417.8609 2143.5609,-411.1688 2128.5298,-407.6884 1904.5646,-355.8293 1841.849,-387.8893 1612.5298,-371.6884 1492.2896,-363.1937 1348.5597,-352.8533 1291.575,-348.7462"/>
<polygon fill="#00ff00" stroke="#00ff00" stroke-width=".2517" points="1291.5931,-345.2385 1281.3673,-348.0103 1291.0897,-352.2204 1291.5931,-345.2385"/>
</g>
<!-- group_2_ped_1_location&#45;&gt;2 -->
<g id="edge22" class="edge">
<title>group_2_ped_1_location&#45;&gt;2</title>
<path fill="none" stroke="#00ff00" stroke-width=".5258" stroke-dasharray="1,5" d="M2198.2716,-423.1751C2239.8151,-378.0677 2411.1701,-178.9722 2310.5298,-65.6985 2283.539,-35.3195 1994.7689,-19.9329 1906.8113,-15.9272"/>
<polygon fill="#00ff00" stroke="#00ff00" stroke-width=".5258" points="1906.8095,-12.4237 1896.6637,-15.4754 1906.4981,-19.4168 1906.8095,-12.4237"/>
</g>
<!-- group_2_ped_1_age -->
<g id="node10" class="node">
<title>group_2_ped_1_age</title>
<polygon fill="#d3d3d3" stroke="#000000" points="1157.0298,-526.9346 1068.0298,-526.9346 1068.0298,-508.9346 1157.0298,-508.9346 1157.0298,-526.9346"/>
<text text-anchor="middle" x="1112.5298" y="-515.7346" font-family="Times,serif" font-size="9.00" fill="#000000">group_2_ped_1_age</text>
</g>
<!-- group_2_ped_1_age&#45;&gt;0 -->
<g id="edge23" class="edge">
<title>group_2_ped_1_age&#45;&gt;0</title>
<path fill="none" stroke="#ff0000" stroke-width=".5446" d="M1067.9141,-515.8193C864.3869,-506.1242 33.4529,-466.0293 23.5298,-457.1859 -13.5894,-424.1055 4.5298,-396.6603 4.5298,-346.9396 4.5298,-346.9396 4.5298,-346.9396 4.5298,-175.9447 4.5298,-105.7798 53.4114,-94.193 117.5298,-65.6985 190.0009,-33.492 766.4008,-18.3828 894.4053,-15.4064"/>
<polygon fill="#ff0000" stroke="#ff0000" stroke-width=".5446" points="894.5141,-18.9049 904.4313,-15.1769 894.3538,-11.9068 894.5141,-18.9049"/>
</g>
<!-- group_2_ped_1_age&#45;&gt;1 -->
<g id="edge24" class="edge">
<title>group_2_ped_1_age&#45;&gt;1</title>
<path fill="none" stroke="#00ff00" stroke-width=".1607" stroke-dasharray="1,5" d="M1107.1615,-508.8016C1095.9142,-488.3421 1072.8013,-438.2364 1096.5298,-407.6884 1136.2052,-356.6103 1180.1087,-401.4529 1237.5298,-371.6884 1241.2576,-369.7561 1244.9187,-367.2617 1248.3171,-364.6025"/>
<polygon fill="#00ff00" stroke="#00ff00" stroke-width=".1607" points="1250.8261,-367.0605 1256.1126,-357.8788 1246.2542,-361.7598 1250.8261,-367.0605"/>
</g>
<!-- 715 -->
<g id="node42" class="node">
<title>715</title>
<ellipse fill="#ffffff" stroke="#000000" cx="1126.5298" cy="-432.4371" rx="21.4286" ry="21.4286"/>
<text text-anchor="middle" x="1126.5298" y="-430.2371" font-family="Times,serif" font-size="9.00" fill="#000000">715</text>
</g>
<!-- group_2_ped_1_age&#45;&gt;715 -->
<g id="edge75" class="edge">
<title>group_2_ped_1_age&#45;&gt;715</title>
<path fill="none" stroke="#ff0000" stroke-width=".4061" stroke-dasharray="1,5" d="M1114.028,-508.7849C1115.7871,-498.0423 1118.7984,-479.6524 1121.4248,-463.6131"/>
<polygon fill="#ff0000" stroke="#ff0000" stroke-width=".4061" points="1124.9161,-463.9507 1123.0781,-453.5165 1118.0081,-462.8194 1124.9161,-463.9507"/>
</g>
<!-- group_2_ped_2_location -->
<g id="node11" class="node">
<title>group_2_ped_2_location</title>
<polygon fill="#d3d3d3" stroke="#000000" points="2281.0298,-99.4472 2176.0298,-99.4472 2176.0298,-81.4472 2281.0298,-81.4472 2281.0298,-99.4472"/>
<text text-anchor="middle" x="2228.5298" y="-88.2472" font-family="Times,serif" font-size="9.00" fill="#000000">group_2_ped_2_location</text>
</g>
<!-- group_2_ped_2_location&#45;&gt;2 -->
<g id="edge25" class="edge">
<title>group_2_ped_2_location&#45;&gt;2</title>
<path fill="none" stroke="#ff0000" stroke-width=".1746" d="M2206.8151,-81.331C2193.8524,-76.1662 2176.9603,-69.9149 2161.5298,-65.6985 2068.9262,-40.3942 1955.5915,-24.2085 1906.3432,-17.8767"/>
<polygon fill="#ff0000" stroke="#ff0000" stroke-width=".1746" points="1906.6653,-14.3897 1896.3056,-16.6095 1905.7885,-21.3345 1906.6653,-14.3897"/>
</g>
<!-- group_2_ped_2_age -->
<g id="node12" class="node">
<title>group_2_ped_2_age</title>
<polygon fill="#d3d3d3" stroke="#000000" points="1157.0298,-355.9396 1068.0298,-355.9396 1068.0298,-337.9396 1157.0298,-337.9396 1157.0298,-355.9396"/>
<text text-anchor="middle" x="1112.5298" y="-344.7396" font-family="Times,serif" font-size="9.00" fill="#000000">group_2_ped_2_age</text>
</g>
<!-- group_2_ped_2_age&#45;&gt;0 -->
<g id="edge26" class="edge">
<title>group_2_ped_2_age&#45;&gt;0</title>
<path fill="none" stroke="#00ff00" stroke-width=".1613" d="M1091.5788,-337.7764C1036.1015,-312.1939 885.7965,-233.9967 829.5298,-115.196 820.1134,-95.3143 818.4417,-84.6986 829.5298,-65.6985 843.5221,-41.7218 873.4652,-28.155 894.9738,-21.172"/>
<polygon fill="#00ff00" stroke="#00ff00" stroke-width=".1613" points="896.166,-24.4689 904.7481,-18.2561 894.1649,-17.761 896.166,-24.4689"/>
</g>
<!-- group_2_ped_2_age&#45;&gt;428 -->
<g id="edge106" class="edge">
<title>group_2_ped_2_age&#45;&gt;428</title>
<path fill="none" stroke="#00ff00" stroke-width=".4011" stroke-dasharray="1,5" d="M1130.996,-337.896C1142.4313,-332.6251 1157.5532,-326.2394 1171.5298,-322.1909 1290.4061,-287.7567 1437.316,-270.558 1500.8242,-264.2982"/>
<polygon fill="#00ff00" stroke="#00ff00" stroke-width=".4011" points="1501.3685,-267.7621 1510.9873,-263.3204 1500.698,-260.7943 1501.3685,-267.7621"/>
</g>
<!-- 949 -->
<g id="node38" class="node">
<title>949</title>
<ellipse fill="#ffffff" stroke="#000000" cx="1282.5298" cy="-261.4422" rx="21.4286" ry="21.4286"/>
<text text-anchor="middle" x="1282.5298" y="-259.2422" font-family="Times,serif" font-size="9.00" fill="#000000">949</text>
</g>
<!-- group_2_ped_2_age&#45;&gt;949 -->
<g id="edge80" class="edge">
<title>group_2_ped_2_age&#45;&gt;949</title>
<path fill="none" stroke="#ff0000" stroke-width=".2932" d="M1133.9534,-337.8976C1166.5707,-324.0303 1227.0561,-297.8906 1247.5298,-286.1909 1250.7565,-284.347 1254.0561,-282.2808 1257.2775,-280.1491"/>
<polygon fill="#ff0000" stroke="#ff0000" stroke-width=".2932" points="1259.2761,-283.0224 1265.5178,-274.4613 1255.2997,-277.2614 1259.2761,-283.0224"/>
</g>
<!-- group_2_ped_3_location -->
<g id="node13" class="node">
<title>group_2_ped_3_location</title>
<polygon fill="#d3d3d3" stroke="#000000" points="1727.0298,-355.9396 1622.0298,-355.9396 1622.0298,-337.9396 1727.0298,-337.9396 1727.0298,-355.9396"/>
<text text-anchor="middle" x="1674.5298" y="-344.7396" font-family="Times,serif" font-size="9.00" fill="#000000">group_2_ped_3_location</text>
</g>
<!-- group_2_ped_3_location&#45;&gt;0 -->
<g id="edge27" class="edge">
<title>group_2_ped_3_location&#45;&gt;0</title>
<path fill="none" stroke="#ff0000" stroke-width=".4606" stroke-dasharray="1,5" d="M1666.9145,-337.6726C1649.8776,-317.3709 1606.7017,-268.2663 1562.5298,-236.6934 1424.2756,-137.8732 1382.0822,-118.4287 1220.5298,-65.6985 1121.5192,-33.3817 997.1411,-20.7159 944.6903,-16.575"/>
<polygon fill="#ff0000" stroke="#ff0000" stroke-width=".4606" points="944.8593,-13.0779 934.6247,-15.8167 944.3335,-20.0581 944.8593,-13.0779"/>
</g>
<!-- group_2_ped_3_location&#45;&gt;2 -->
<g id="edge28" class="edge">
<title>group_2_ped_3_location&#45;&gt;2</title>
<path fill="none" stroke="#ff0000" stroke-width=".113" d="M1672.0412,-337.935C1667.1116,-318.1565 1658.0941,-270.0302 1676.5298,-236.6934 1700.422,-193.4896 1835.0766,-156.2293 1862.5298,-115.196 1877.5433,-92.7558 1881.4185,-61.5077 1882.0941,-39.8695"/>
<polygon fill="#ff0000" stroke="#ff0000" stroke-width=".113" points="1885.5944,-39.8505 1882.2008,-29.8139 1878.5948,-39.7762 1885.5944,-39.8505"/>
</g>
<!-- 1058 -->
<g id="node33" class="node">
<title>1058</title>
<ellipse fill="#ffffff" stroke="#000000" cx="1710.5298" cy="-261.4422" rx="25" ry="25"/>
<text text-anchor="middle" x="1710.5298" y="-259.2422" font-family="Times,serif" font-size="9.00" fill="#000000">1058</text>
</g>
<!-- group_2_ped_3_location&#45;&gt;1058 -->
<g id="edge85" class="edge">
<title>group_2_ped_3_location&#45;&gt;1058</title>
<path fill="none" stroke="#ff0000" stroke-width=".6735" d="M1678.3824,-337.7899C1682.7986,-327.3017 1690.2841,-309.5243 1696.9212,-293.7616"/>
<polygon fill="#ff0000" stroke="#ff0000" stroke-width=".6735" points="1700.254,-294.8653 1700.9091,-284.2907 1693.8026,-292.1488 1700.254,-294.8653"/>
</g>
<!-- group_2_ped_3_location&#45;&gt;428 -->
<g id="edge78" class="edge">
<title>group_2_ped_3_location&#45;&gt;428</title>
<path fill="none" stroke="#00ff00" stroke-width="1.1064" d="M1657.1722,-337.7732C1635.7465,-326.3024 1598.363,-305.7771 1567.5298,-286.1909 1564.3928,-284.1982 1561.1479,-282.0412 1557.9565,-279.8598"/>
<polygon fill="#00ff00" stroke="#00ff00" stroke-width="1.1064" points="1559.9472,-276.9811 1549.7446,-274.1248 1555.9391,-282.72 1559.9472,-276.9811"/>
</g>
<!-- 835 -->
<g id="node39" class="node">
<title>835</title>
<ellipse fill="#ffffff" stroke="#000000" cx="1812.5298" cy="-261.4422" rx="21.4286" ry="21.4286"/>
<text text-anchor="middle" x="1812.5298" y="-259.2422" font-family="Times,serif" font-size="9.00" fill="#000000">835</text>
</g>
<!-- group_2_ped_3_location&#45;&gt;835 -->
<g id="edge89" class="edge">
<title>group_2_ped_3_location&#45;&gt;835</title>
<path fill="none" stroke="#00ff00" stroke-width=".3256" stroke-dasharray="1,5" d="M1689.2982,-337.7899C1712.2616,-323.563 1756.8736,-295.9238 1785.6516,-278.0945"/>
<polygon fill="#00ff00" stroke="#00ff00" stroke-width=".3256" points="1787.7337,-280.9218 1794.3912,-272.6799 1784.0471,-274.9713 1787.7337,-280.9218"/>
</g>
<!-- group_2_ped_3_age -->
<g id="node14" class="node">
<title>group_2_ped_3_age</title>
<polygon fill="#d3d3d3" stroke="#000000" points="2394.0298,-526.9346 2305.0298,-526.9346 2305.0298,-508.9346 2394.0298,-508.9346 2394.0298,-526.9346"/>
<text text-anchor="middle" x="2349.5298" y="-515.7346" font-family="Times,serif" font-size="9.00" fill="#000000">group_2_ped_3_age</text>
</g>
<!-- group_2_ped_3_age&#45;&gt;0 -->
<g id="edge29" class="edge">
<title>group_2_ped_3_age&#45;&gt;0</title>
<path fill="none" stroke="#00ff00" stroke-width=".432" d="M2352.7769,-508.6867C2359.0643,-489.2316 2371.1367,-442.9596 2357.5298,-407.6884 2300.7895,-260.6083 2239.6538,-244.4243 2112.5298,-151.196 2085.8997,-131.6664 2075.4383,-132.8505 2047.5298,-115.196 2015.6346,-95.0195 2014.1713,-78.1112 1978.5298,-65.6985 1878.0523,-30.7056 1095.2123,-17.443 944.5638,-15.2029"/>
<polygon fill="#00ff00" stroke="#00ff00" stroke-width=".432" points="944.5123,-11.7018 934.4622,-15.0552 944.4099,-18.7011 944.5123,-11.7018"/>
</g>
<!-- group_2_ped_3_age&#45;&gt;1 -->
<g id="edge30" class="edge">
<title>group_2_ped_3_age&#45;&gt;1</title>
<path fill="none" stroke="#ff0000" stroke-width=".6756" d="M2304.8649,-516.0281C2119.6084,-508.0074 1419.33,-476.5274 1376.5298,-457.1859 1333.9923,-437.9631 1298.8001,-394.5271 1280.3923,-368.279"/>
<polygon fill="#ff0000" stroke="#ff0000" stroke-width=".6756" points="1283.1221,-366.0697 1274.5967,-359.7794 1277.3387,-370.0133 1283.1221,-366.0697"/>
</g>
<!-- group_2_ped_3_age&#45;&gt;2 -->
<g id="edge31" class="edge">
<title>group_2_ped_3_age&#45;&gt;2</title>
<path fill="none" stroke="#ff0000" stroke-width=".2431" stroke-dasharray="1,5" d="M2394.4154,-514.9887C2442.3529,-509.8544 2518.5657,-495.7768 2571.5298,-457.1859 2618.8283,-422.723 2643.5298,-405.4617 2643.5298,-346.9396 2643.5298,-346.9396 2643.5298,-346.9396 2643.5298,-175.9447 2643.5298,-117.4226 2621.9368,-95.4301 2571.5298,-65.6985 2513.2728,-31.3367 2023.4077,-18.0777 1906.5069,-15.3871"/>
<polygon fill="#ff0000" stroke="#ff0000" stroke-width=".2431" points="1906.4615,-11.8853 1896.3853,-15.1594 1906.304,-18.8835 1906.4615,-11.8853"/>
</g>
<!-- 1540 -->
<g id="node30" class="node">
<title>1540</title>
<ellipse fill="#ffffff" stroke="#000000" cx="1410.5298" cy="-432.4371" rx="25" ry="25"/>
<text text-anchor="middle" x="1410.5298" y="-430.2371" font-family="Times,serif" font-size="9.00" fill="#000000">1540</text>
</g>
<!-- group_2_ped_3_age&#45;&gt;1540 -->
<g id="edge118" class="edge">
<title>group_2_ped_3_age&#45;&gt;1540</title>
<path fill="none" stroke="#ff0000" stroke-width=".2872" d="M2304.7681,-516.427C2133.4168,-510.4524 1524.6831,-487.2896 1443.5298,-457.1859 1441.6162,-456.476 1439.7197,-455.6175 1437.8602,-454.6522"/>
<polygon fill="#ff0000" stroke="#ff0000" stroke-width=".2872" points="1439.3052,-451.4298 1428.963,-449.1298 1435.6137,-457.3772 1439.3052,-451.4298"/>
</g>
<!-- group_2_ped_3_age&#45;&gt;1291 -->
<g id="edge115" class="edge">
<title>group_2_ped_3_age&#45;&gt;1291</title>
<path fill="none" stroke="#ff0000" stroke-width=".2685" d="M2346.7473,-508.7849C2343.6524,-498.6077 2338.4703,-481.567 2333.7861,-466.1637"/>
<polygon fill="#ff0000" stroke="#ff0000" stroke-width=".2685" points="2337.0649,-464.9157 2330.8068,-456.3666 2330.3678,-466.9524 2337.0649,-464.9157"/>
</g>
<!-- 1456 -->
<g id="node36" class="node">
<title>1456</title>
<ellipse fill="#ffffff" stroke="#000000" cx="2582.5298" cy="-175.9447" rx="25" ry="25"/>
<text text-anchor="middle" x="2582.5298" y="-173.7447" font-family="Times,serif" font-size="9.00" fill="#000000">1456</text>
</g>
<!-- group_2_ped_3_age&#45;&gt;1456 -->
<g id="edge110" class="edge">
<title>group_2_ped_3_age&#45;&gt;1456</title>
<path fill="none" stroke="#ff0000" stroke-width=".5396" d="M2394.389,-509.6333C2445.421,-499.244 2524.2021,-480.0136 2543.5298,-457.1859 2603.202,-386.7076 2596.4239,-268.7689 2588.4957,-210.5754"/>
<polygon fill="#ff0000" stroke="#ff0000" stroke-width=".5396" points="2591.9228,-209.8206 2587.0177,-200.4296 2584.9959,-210.8298 2591.9228,-209.8206"/>
</g>
<!-- group_2_ped_4_location -->
<g id="node15" class="node">
<title>group_2_ped_4_location</title>
<polygon fill="#d3d3d3" stroke="#000000" points="866.0298,-441.4371 761.0298,-441.4371 761.0298,-423.4371 866.0298,-423.4371 866.0298,-441.4371"/>
<text text-anchor="middle" x="813.5298" y="-430.2371" font-family="Times,serif" font-size="9.00" fill="#000000">group_2_ped_4_location</text>
</g>
<!-- group_2_ped_4_location&#45;&gt;0 -->
<g id="edge32" class="edge">
<title>group_2_ped_4_location&#45;&gt;0</title>
<path fill="none" stroke="#00ff00" stroke-width=".2804" stroke-dasharray="1,5" d="M791.3179,-423.395C761.0111,-410.6691 708.928,-387.2894 695.5298,-371.6884 661.8567,-332.479 658.5298,-313.1264 658.5298,-261.4422 658.5298,-261.4422 658.5298,-261.4422 658.5298,-175.9447 658.5298,-123.5111 661.0228,-100.1728 700.5298,-65.6985 729.4359,-40.4747 843.079,-24.006 894.2802,-17.7195"/>
<polygon fill="#00ff00" stroke="#00ff00" stroke-width=".2804" points="894.9699,-21.1621 904.4842,-16.5007 894.1397,-14.2115 894.9699,-21.1621"/>
</g>
<!-- group_2_ped_4_location&#45;&gt;1 -->
<g id="edge33" class="edge">
<title>group_2_ped_4_location&#45;&gt;1</title>
<path fill="none" stroke="#00ff00" stroke-width=".836" stroke-dasharray="1,5" d="M832.0384,-423.3701C843.9051,-417.9519 859.7942,-411.4176 874.5298,-407.6884 1015.416,-372.0334 1058.0981,-405.114 1199.5298,-371.6884 1214.5748,-368.1327 1230.8563,-362.1706 1243.6017,-356.9893"/>
<polygon fill="#00ff00" stroke="#00ff00" stroke-width=".836" points="1245.1035,-360.1549 1252.974,-353.0622 1242.3983,-353.6987 1245.1035,-360.1549"/>
</g>
<!-- group_2_ped_4_location&#45;&gt;2 -->
<g id="edge34" class="edge">
<title>group_2_ped_4_location&#45;&gt;2</title>
<path fill="none" stroke="#00ff00" stroke-width=".2182" d="M823.8433,-423.4037C846.2217,-403.9696 901.1969,-357.1234 950.5298,-322.1909 1009.4129,-280.496 1021.3925,-263.1185 1088.5298,-236.6934 1165.2566,-206.4939 1201.7367,-246.1525 1270.5298,-200.6934 1300.8174,-180.6792 1331.3018,-84.2112 1362.5298,-65.6985 1405.4141,-40.2756 1758.709,-20.9575 1856.5163,-16.0592"/>
<polygon fill="#00ff00" stroke="#00ff00" stroke-width=".2182" points="1856.8391,-19.5476 1866.6539,-15.5576 1856.4931,-12.5561 1856.8391,-19.5476"/>
</g>
<!-- 1201 -->
<g id="node37" class="node">
<title>1201</title>
<ellipse fill="#ffffff" stroke="#000000" cx="711.5298" cy="-175.9447" rx="25" ry="25"/>
<text text-anchor="middle" x="711.5298" y="-173.7447" font-family="Times,serif" font-size="9.00" fill="#000000">1201</text>
</g>
<!-- group_2_ped_4_location&#45;&gt;1201 -->
<g id="edge91" class="edge">
<title>group_2_ped_4_location&#45;&gt;1201</title>
<path fill="none" stroke="#00ff00" stroke-width=".6955" d="M785.1501,-423.4139C761.9061,-414.3643 730.5004,-397.9472 715.5298,-371.6884 686.8186,-321.3283 694.5868,-251.1928 702.972,-209.9814"/>
<polygon fill="#00ff00" stroke="#00ff00" stroke-width=".6955" points="706.4039,-210.6705 705.0953,-200.1567 699.5618,-209.1917 706.4039,-210.6705"/>
</g>
<!-- group_2_ped_4_age -->
<g id="node16" class="node">
<title>group_2_ped_4_age</title>
<polygon fill="#d3d3d3" stroke="#000000" points="973.0298,-441.4371 884.0298,-441.4371 884.0298,-423.4371 973.0298,-423.4371 973.0298,-441.4371"/>
<text text-anchor="middle" x="928.5298" y="-430.2371" font-family="Times,serif" font-size="9.00" fill="#000000">group_2_ped_4_age</text>
</g>
<!-- group_2_ped_4_age&#45;&gt;0 -->
<g id="edge35" class="edge">
<title>group_2_ped_4_age&#45;&gt;0</title>
<path fill="none" stroke="#ff0000" stroke-width=".1864" stroke-dasharray="1,5" d="M924.0996,-423.3968C906.2419,-386.3781 839.5004,-242.3064 818.5298,-115.196 814.9488,-93.4905 806.9902,-84.4278 818.5298,-65.6985 835.0353,-38.9093 870.4646,-25.7326 894.6512,-19.6242"/>
<polygon fill="#ff0000" stroke="#ff0000" stroke-width=".1864" points="895.5868,-23.0006 904.5524,-17.3555 894.0233,-16.1774 895.5868,-23.0006"/>
</g>
<!-- group_2_ped_4_age&#45;&gt;1 -->
<g id="edge36" class="edge">
<title>group_2_ped_4_age&#45;&gt;1</title>
<path fill="none" stroke="#00ff00" stroke-width=".107" d="M961.1502,-423.4065C979.8966,-418.3949 1003.9378,-412.2682 1025.5298,-407.6884 1119.0209,-387.8583 1150.9536,-412.1655 1237.5298,-371.6884 1241.3335,-369.91 1245.0328,-367.4933 1248.4459,-364.8638"/>
<polygon fill="#00ff00" stroke="#00ff00" stroke-width=".107" points="1250.959,-367.318 1256.2371,-358.1315 1246.3822,-362.0214 1250.959,-367.318"/>
</g>
<!-- group_2_ped_4_age&#45;&gt;2 -->
<g id="edge37" class="edge">
<title>group_2_ped_4_age&#45;&gt;2</title>
<path fill="none" stroke="#00ff00" stroke-width=".3205" d="M931.3251,-423.3267C938.1731,-402.4709 957.7401,-350.8547 991.5298,-322.1909 1026.5965,-292.4438 1046.8061,-305.5222 1088.5298,-286.1909 1129.2455,-267.3267 1135.0141,-253.7252 1176.5298,-236.6934 1232.7889,-213.6132 1258.583,-235.3791 1308.5298,-200.6934 1338.8712,-179.6228 1373.6031,-84.2797 1405.5298,-65.6985 1444.787,-42.8509 1764.1166,-21.9435 1856.5502,-16.3241"/>
<polygon fill="#00ff00" stroke="#00ff00" stroke-width=".3205" points="1856.8921,-19.81 1866.6638,-15.7155 1856.4716,-12.8226 1856.8921,-19.81"/>
</g>
<!-- group_2_ped_4_age&#45;&gt;428 -->
<g id="edge70" class="edge">
<title>group_2_ped_4_age&#45;&gt;428</title>
<path fill="none" stroke="#ff0000" stroke-width=".2722" stroke-dasharray="1,5" d="M962.554,-423.35C981.1171,-418.4948 1004.5313,-412.5367 1025.5298,-407.6884 1102.4765,-389.922 1131.3838,-411.5955 1199.5298,-371.6884 1224.676,-356.9625 1217.4018,-336.9479 1242.5298,-322.1909 1286.3329,-296.4664 1435.1606,-274.2763 1500.8869,-265.4786"/>
<polygon fill="#ff0000" stroke="#ff0000" stroke-width=".2722" points="1501.603,-268.9145 1511.0587,-264.1356 1500.6866,-261.9748 1501.603,-268.9145"/>
</g>
<!-- group_3_ped_1_location -->
<g id="node17" class="node">
<title>group_3_ped_1_location</title>
<polygon fill="#d3d3d3" stroke="#000000" points="1704.0298,-441.4371 1599.0298,-441.4371 1599.0298,-423.4371 1704.0298,-423.4371 1704.0298,-441.4371"/>
<text text-anchor="middle" x="1651.5298" y="-430.2371" font-family="Times,serif" font-size="9.00" fill="#000000">group_3_ped_1_location</text>
</g>
<!-- group_3_ped_1_location&#45;&gt;0 -->
<g id="edge38" class="edge">
<title>group_3_ped_1_location&#45;&gt;0</title>
<path fill="none" stroke="#ff0000" stroke-width=".3078" stroke-dasharray="1,5" d="M1640.0284,-423.4016C1582.432,-378.5407 1318.4128,-177.451 1073.5298,-65.6985 1029.3074,-45.5176 974.6915,-29.4299 943.8132,-21.0929"/>
<polygon fill="#ff0000" stroke="#ff0000" stroke-width=".3078" points="944.5003,-17.6542 933.9372,-18.4732 942.7055,-24.4202 944.5003,-17.6542"/>
</g>
<!-- group_3_ped_1_location&#45;&gt;1 -->
<g id="edge39" class="edge">
<title>group_3_ped_1_location&#45;&gt;1</title>
<path fill="none" stroke="#ff0000" stroke-width=".3012" d="M1615.5979,-423.3587C1596.3346,-418.561 1572.1733,-412.6538 1550.5298,-407.6884 1455.0403,-385.7814 1340.8962,-362.1329 1291.4254,-352.0068"/>
<polygon fill="#ff0000" stroke="#ff0000" stroke-width=".3012" points="1291.8449,-348.5203 1281.3467,-349.9479 1290.4438,-355.3787 1291.8449,-348.5203"/>
</g>
<!-- group_3_ped_1_location&#45;&gt;2 -->
<g id="edge40" class="edge">
<title>group_3_ped_1_location&#45;&gt;2</title>
<path fill="none" stroke="#ff0000" stroke-width=".1205" stroke-dasharray="1,5" d="M1669.1494,-423.3611C1706.2575,-403.4134 1793.0992,-352.2224 1842.5298,-286.1909 1898.595,-211.2966 1891.5537,-91.4293 1885.2639,-39.8165"/>
<polygon fill="#ff0000" stroke="#ff0000" stroke-width=".1205" points="1888.6943,-39.0588 1883.9167,-29.6024 1881.7544,-39.9742 1888.6943,-39.0588"/>
</g>
<!-- 1256 -->
<g id="node45" class="node">
<title>1256</title>
<ellipse fill="#ffffff" stroke="#000000" cx="1846.5298" cy="-346.9396" rx="25" ry="25"/>
<text text-anchor="middle" x="1846.5298" y="-344.7396" font-family="Times,serif" font-size="9.00" fill="#000000">1256</text>
</g>
<!-- group_3_ped_1_location&#45;&gt;1256 -->
<g id="edge101" class="edge">
<title>group_3_ped_1_location&#45;&gt;1256</title>
<path fill="none" stroke="#ff0000" stroke-width=".3408" stroke-dasharray="1,5" d="M1679.5664,-423.3645C1711.3484,-412.6616 1764.3499,-393.5357 1807.5298,-371.6884 1810.7027,-370.083 1813.9466,-368.2912 1817.1417,-366.4258"/>
<polygon fill="#ff0000" stroke="#ff0000" stroke-width=".3408" points="1819.2068,-369.2657 1825.9174,-361.067 1815.5587,-363.2915 1819.2068,-369.2657"/>
</g>
<!-- group_3_ped_1_age -->
<g id="node18" class="node">
<title>group_3_ped_1_age</title>
<polygon fill="#d3d3d3" stroke="#000000" points="352.0298,-441.4371 263.0298,-441.4371 263.0298,-423.4371 352.0298,-423.4371 352.0298,-441.4371"/>
<text text-anchor="middle" x="307.5298" y="-430.2371" font-family="Times,serif" font-size="9.00" fill="#000000">group_3_ped_1_age</text>
</g>
<!-- group_3_ped_1_age&#45;&gt;0 -->
<g id="edge41" class="edge">
<title>group_3_ped_1_age&#45;&gt;0</title>
<path fill="none" stroke="#ff0000" stroke-width=".4306" d="M297.5144,-423.1123C272.7311,-398.9705 210.5298,-331.4097 210.5298,-261.4422 210.5298,-261.4422 210.5298,-261.4422 210.5298,-175.9447 210.5298,-70.1378 320.19,-96.1182 421.5298,-65.6985 511.7315,-38.6222 806.1382,-20.9461 894.3377,-16.1603"/>
<polygon fill="#ff0000" stroke="#ff0000" stroke-width=".4306" points="894.6921,-19.6465 904.4908,-15.6173 894.3182,-12.6565 894.6921,-19.6465"/>
</g>
<!-- group_3_ped_1_age&#45;&gt;1 -->
<g id="edge42" class="edge">
<title>group_3_ped_1_age&#45;&gt;1</title>
<path fill="none" stroke="#ff0000" stroke-width=".4215" stroke-dasharray="1,5" d="M334.974,-423.3853C353.0901,-417.8268 377.468,-411.1328 399.5298,-407.6884 736.2707,-355.1146 828.2191,-420.4731 1165.5298,-371.6884 1192.3088,-367.8154 1222.3501,-359.9946 1242.6554,-354.176"/>
<polygon fill="#ff0000" stroke="#ff0000" stroke-width=".4215" points="1243.7037,-357.5161 1252.3175,-351.3473 1241.7369,-350.7981 1243.7037,-357.5161"/>
</g>
<!-- group_3_ped_1_age&#45;&gt;111 -->
<g id="edge121" class="edge">
<title>group_3_ped_1_age&#45;&gt;111</title>
<path fill="none" stroke="#ff0000" stroke-width=".1391" d="M308.2179,-423.2129C310.2957,-402.118 318.3711,-350.0333 348.5298,-322.1909 391.6369,-282.3945 420.2153,-305.7431 475.5298,-286.1909 485.2591,-282.7519 495.6867,-278.4902 504.9795,-274.4779"/>
<polygon fill="#ff0000" stroke="#ff0000" stroke-width=".1391" points="506.4321,-277.6626 514.1759,-270.4318 503.6131,-271.2553 506.4321,-277.6626"/>
</g>
<!-- group_3_ped_2_location -->
<g id="node19" class="node">
<title>group_3_ped_2_location</title>
<polygon fill="#d3d3d3" stroke="#000000" points="1875.0298,-675.1097 1770.0298,-675.1097 1770.0298,-657.1097 1875.0298,-657.1097 1875.0298,-675.1097"/>
<text text-anchor="middle" x="1822.5298" y="-663.9097" font-family="Times,serif" font-size="9.00" fill="#000000">group_3_ped_2_location</text>
</g>
<!-- group_3_ped_2_location&#45;&gt;0 -->
<g id="edge43" class="edge">
<title>group_3_ped_2_location&#45;&gt;0</title>
<path fill="none" stroke="#ff0000" stroke-width=".3355" d="M1875.1205,-661.754C2050.6788,-646.5185 2605.5298,-592.4708 2605.5298,-517.9346 2605.5298,-517.9346 2605.5298,-517.9346 2605.5298,-432.4371 2605.5298,-367.7567 2557.4067,-366.7567 2510.5298,-322.1909 2420.7777,-236.8638 2400.7878,-207.5814 2290.5298,-151.196 2239.8165,-125.2614 2218.1751,-141.2631 2167.5298,-115.196 2135.8691,-98.9002 2137.925,-78.056 2104.5298,-65.6985 1992.3161,-24.175 1107.0893,-16.1357 944.9788,-15.0071"/>
<polygon fill="#ff0000" stroke="#ff0000" stroke-width=".3355" points="944.6003,-11.5046 934.5771,-14.9374 944.5534,-18.5044 944.6003,-11.5046"/>
</g>
<!-- group_3_ped_2_location&#45;&gt;1 -->
<g id="edge44" class="edge">
<title>group_3_ped_2_location&#45;&gt;1</title>
<path fill="none" stroke="#00ff00" stroke-width=".3216" stroke-dasharray="1,5" d="M1769.9051,-661.5225C1604.7651,-646.6024 1104.9927,-597.2549 1058.5298,-542.6833 1034.9055,-514.9361 1078.0915,-411.9416 1082.5298,-407.6884 1132.9664,-359.3547 1172.7007,-402.2254 1235.5298,-371.6884 1239.8268,-369.5999 1244.0714,-366.8258 1247.9766,-363.8912"/>
<polygon fill="#00ff00" stroke="#00ff00" stroke-width=".3216" points="1250.3604,-366.4626 1255.8716,-357.414 1245.9205,-361.0508 1250.3604,-366.4626"/>
</g>
<!-- group_3_ped_2_location&#45;&gt;2 -->
<g id="edge45" class="edge">
<title>group_3_ped_2_location&#45;&gt;2</title>
<path fill="none" stroke="#ff0000" stroke-width=".1243" stroke-dasharray="1,5" d="M1875.2789,-665.3481C2042.2576,-662.6312 2552.2131,-651.8778 2619.5298,-621.1097 2677.6102,-594.5633 2719.5298,-581.7942 2719.5298,-517.9346 2719.5298,-517.9346 2719.5298,-517.9346 2719.5298,-175.9447 2719.5298,-119.0641 2702.966,-95.5202 2654.5298,-65.6985 2589.5649,-25.7002 2032.5,-16.659 1906.7022,-15.1205"/>
<polygon fill="#ff0000" stroke="#ff0000" stroke-width=".1243" points="1906.5563,-11.6186 1896.5159,-15.001 1906.4742,-18.6181 1906.5563,-11.6186"/>
</g>
<!-- 555 -->
<g id="node34" class="node">
<title>555</title>
<ellipse fill="#ffffff" stroke="#000000" cx="990.5298" cy="-599.8965" rx="21.4286" ry="21.4286"/>
<text text-anchor="middle" x="990.5298" y="-597.6965" font-family="Times,serif" font-size="9.00" fill="#000000">555</text>
</g>
<!-- group_3_ped_2_location&#45;&gt;555 -->
<g id="edge68" class="edge">
<title>group_3_ped_2_location&#45;&gt;555</title>
<path fill="none" stroke="#00ff00" stroke-width=".4658" d="M1769.7664,-664.612C1603.3264,-659.6819 1096.1834,-643.0154 1025.5298,-621.1097 1022.5712,-620.1925 1019.6054,-618.9725 1016.7205,-617.5794"/>
<polygon fill="#00ff00" stroke="#00ff00" stroke-width=".4658" points="1018.3345,-614.4725 1007.8891,-612.6989 1014.9486,-620.5992 1018.3345,-614.4725"/>
</g>
<!-- group_3_ped_2_age -->
<g id="node20" class="node">
<title>group_3_ped_2_age</title>
<polygon fill="#d3d3d3" stroke="#000000" points="2119.0298,-441.4371 2030.0298,-441.4371 2030.0298,-423.4371 2119.0298,-423.4371 2119.0298,-441.4371"/>
<text text-anchor="middle" x="2074.5298" y="-430.2371" font-family="Times,serif" font-size="9.00" fill="#000000">group_3_ped_2_age</text>
</g>
<!-- group_3_ped_2_age&#45;&gt;0 -->
<g id="edge46" class="edge">
<title>group_3_ped_2_age&#45;&gt;0</title>
<path fill="none" stroke="#ff0000" stroke-width=".1265" d="M2078.2354,-423.2251C2089.3596,-394.034 2119.766,-301.6814 2087.5298,-236.6934 2073.5765,-208.5637 1892.0063,-76.5205 1862.5298,-65.6985 1774.212,-33.2733 1086.1703,-18.1152 944.8505,-15.3276"/>
<polygon fill="#ff0000" stroke="#ff0000" stroke-width=".1265" points="944.661,-11.8234 934.5948,-15.1283 944.5249,-18.8221 944.661,-11.8234"/>
</g>
<!-- group_3_ped_2_age&#45;&gt;1 -->
<g id="edge47" class="edge">
<title>group_3_ped_2_age&#45;&gt;1</title>
<path fill="none" stroke="#ff0000" stroke-width=".2542" stroke-dasharray="1,5" d="M2045.9142,-423.4278C2027.6683,-418.032 2003.4216,-411.5009 1981.5298,-407.6884 1912.3469,-395.64 1410.3695,-357.6893 1291.6493,-348.8107"/>
<polygon fill="#ff0000" stroke="#ff0000" stroke-width=".2542" points="1291.617,-345.2986 1281.3841,-348.0441 1291.0956,-352.2792 1291.617,-345.2986"/>
</g>
<!-- group_3_ped_2_age&#45;&gt;2 -->
<g id="edge48" class="edge">
<title>group_3_ped_2_age&#45;&gt;2</title>
<path fill="none" stroke="#ff0000" stroke-width=".5061" d="M2094.2538,-423.3315C2104.4705,-418.6316 2117.1563,-412.8219 2128.5298,-407.6884 2164.437,-391.4813 2183.2808,-401.0651 2209.5298,-371.6884 2256.3969,-319.2368 2337.0984,-118.4153 2290.5298,-65.6985 2264.9452,-36.7361 1991.285,-20.4441 1906.4556,-16.0628"/>
<polygon fill="#ff0000" stroke="#ff0000" stroke-width=".5061" points="1906.59,-12.5652 1896.4258,-15.5552 1906.2361,-19.5562 1906.59,-12.5652"/>
</g>
<!-- group_3_ped_2_age&#45;&gt;428 -->
<g id="edge107" class="edge">
<title>group_3_ped_2_age&#45;&gt;428</title>
<path fill="none" stroke="#ff0000" stroke-width=".1873" stroke-dasharray="1,5" d="M2076.8523,-423.4329C2081.692,-402.3442 2090.2412,-349.4782 2062.5298,-322.1909 2031.8371,-291.9681 1719.2323,-291.8432 1676.5298,-286.1909 1637.3355,-281.003 1592.4899,-272.9586 1563.4024,-267.4589"/>
<polygon fill="#ff0000" stroke="#ff0000" stroke-width=".1873" points="1563.9174,-263.9941 1553.4386,-265.5578 1562.6054,-270.87 1563.9174,-263.9941"/>
</g>
<!-- group_3_ped_3_location -->
<g id="node21" class="node">
<title>group_3_ped_3_location</title>
<polygon fill="#d3d3d3" stroke="#000000" points="830.0298,-355.9396 725.0298,-355.9396 725.0298,-337.9396 830.0298,-337.9396 830.0298,-355.9396"/>
<text text-anchor="middle" x="777.5298" y="-344.7396" font-family="Times,serif" font-size="9.00" fill="#000000">group_3_ped_3_location</text>
</g>
<!-- group_3_ped_3_location&#45;&gt;0 -->
<g id="edge49" class="edge">
<title>group_3_ped_3_location&#45;&gt;0</title>
<path fill="none" stroke="#00ff00" stroke-width=".2396" d="M775.3961,-337.8099C765.5003,-294.5221 725.9136,-110.204 758.5298,-65.6985 774.7932,-43.5066 853.7789,-26.5183 894.7532,-19.0351"/>
<polygon fill="#00ff00" stroke="#00ff00" stroke-width=".2396" points="895.5209,-22.4537 904.7553,-17.2598 894.2975,-15.5614 895.5209,-22.4537"/>
</g>
<!-- group_3_ped_3_location&#45;&gt;2 -->
<g id="edge50" class="edge">
<title>group_3_ped_3_location&#45;&gt;2</title>
<path fill="none" stroke="#00ff00" stroke-width=".7335" stroke-dasharray="1,5" d="M783.1695,-337.8482C797.219,-316.0889 836.1571,-261.02 884.5298,-236.6934 993.4724,-181.9063 1049.8029,-259.6807 1156.5298,-200.6934 1224.7607,-162.9827 1199.3987,-101.7325 1268.5298,-65.6985 1321.3443,-38.1694 1747.6254,-20.0049 1856.3587,-15.7895"/>
<polygon fill="#00ff00" stroke="#00ff00" stroke-width=".7335" points="1856.5512,-19.2847 1866.4099,-15.4047 1856.2833,-12.2899 1856.5512,-19.2847"/>
</g>
<!-- group_3_ped_3_location&#45;&gt;428 -->
<g id="edge122" class="edge">
<title>group_3_ped_3_location&#45;&gt;428</title>
<path fill="none" stroke="#ff0000" stroke-width=".6182" d="M830.2909,-340.7865C873.6012,-335.748 936.5328,-328.455 991.5298,-322.1909 1134.1686,-305.9446 1169.8658,-302.2152 1312.5298,-286.1909 1379.7831,-278.6369 1458.5988,-269.7662 1501.2556,-264.9637"/>
<polygon fill="#ff0000" stroke="#ff0000" stroke-width=".6182" points="1501.7468,-268.4306 1511.2924,-263.8337 1500.9636,-261.4746 1501.7468,-268.4306"/>
</g>
<!-- group_3_ped_3_location&#45;&gt;111 -->
<g id="edge62" class="edge">
<title>group_3_ped_3_location&#45;&gt;111</title>
<path fill="none" stroke="#00ff00" stroke-width=".181" stroke-dasharray="1,5" d="M751.4175,-337.7899C705.7366,-321.7834 611.6032,-288.7991 563.4025,-271.9096"/>
<polygon fill="#00ff00" stroke="#00ff00" stroke-width=".181" points="564.443,-268.5656 553.8482,-268.5617 562.1282,-275.1717 564.443,-268.5656"/>
</g>
<!-- group_3_ped_3_age -->
<g id="node22" class="node">
<title>group_3_ped_3_age</title>
<polygon fill="#d3d3d3" stroke="#000000" points="928.0298,-99.4472 839.0298,-99.4472 839.0298,-81.4472 928.0298,-81.4472 928.0298,-99.4472"/>
<text text-anchor="middle" x="883.5298" y="-88.2472" font-family="Times,serif" font-size="9.00" fill="#000000">group_3_ped_3_age</text>
</g>
<!-- group_3_ped_3_age&#45;&gt;0 -->
<g id="edge51" class="edge">
<title>group_3_ped_3_age&#45;&gt;0</title>
<path fill="none" stroke="#00ff00" stroke-width=".3028" stroke-dasharray="1,5" d="M887.9441,-81.1774C893.0698,-70.4137 901.7094,-52.271 908.6584,-37.6785"/>
<polygon fill="#00ff00" stroke="#00ff00" stroke-width=".3028" points="911.9957,-38.8109 913.1352,-28.2775 905.6757,-35.8013 911.9957,-38.8109"/>
</g>
<!-- group_3_ped_4_location -->
<g id="node23" class="node">
<title>group_3_ped_4_location</title>
<polygon fill="#d3d3d3" stroke="#000000" points="1866.0298,-441.4371 1761.0298,-441.4371 1761.0298,-423.4371 1866.0298,-423.4371 1866.0298,-441.4371"/>
<text text-anchor="middle" x="1813.5298" y="-430.2371" font-family="Times,serif" font-size="9.00" fill="#000000">group_3_ped_4_location</text>
</g>
<!-- group_3_ped_4_location&#45;&gt;0 -->
<g id="edge52" class="edge">
<title>group_3_ped_4_location&#45;&gt;0</title>
<path fill="none" stroke="#ff0000" stroke-width=".3024" stroke-dasharray="1,5" d="M1837.3057,-423.354C1858.2196,-413.9368 1887.3285,-397.0075 1900.5298,-371.6884 1946.0822,-284.3224 1940.6887,-226.8186 1877.5298,-151.196 1869.4551,-141.5279 1679.8024,-68.5366 1667.5298,-65.6985 1525.3195,-32.8121 1058.1622,-18.5198 944.5833,-15.4831"/>
<polygon fill="#ff0000" stroke="#ff0000" stroke-width=".3024" points="944.5266,-11.9805 934.4382,-15.2169 944.3429,-18.9781 944.5266,-11.9805"/>
</g>
<!-- group_3_ped_4_location&#45;&gt;1 -->
<g id="edge53" class="edge">
<title>group_3_ped_4_location&#45;&gt;1</title>
<path fill="none" stroke="#00ff00" stroke-width=".7507" d="M1780.514,-423.4187C1760.8764,-418.2875 1735.4091,-412.0373 1712.5298,-407.6884 1553.6312,-377.485 1360.1314,-356.4105 1291.8501,-349.4468"/>
<polygon fill="#00ff00" stroke="#00ff00" stroke-width=".7507" points="1291.9392,-345.9381 1281.6382,-348.4158 1291.236,-352.9027 1291.9392,-345.9381"/>
</g>
<!-- group_3_ped_4_location&#45;&gt;2 -->
<g id="edge54" class="edge">
<title>group_3_ped_4_location&#45;&gt;2</title>
<path fill="none" stroke="#ff0000" stroke-width=".2132" d="M1835.5293,-423.3624C1873.4749,-407.6252 1947.576,-376.4862 1951.5298,-371.6884 2025.8574,-281.4935 1996.5608,-231.349 2009.5298,-115.196 2011.9709,-93.3329 2021.8845,-83.9004 2009.5298,-65.6985 1986.5664,-31.867 1937.1693,-20.5443 1906.8982,-16.755"/>
<polygon fill="#ff0000" stroke="#ff0000" stroke-width=".2132" points="1907.009,-13.2471 1896.6954,-15.672 1906.2701,-20.208 1907.009,-13.2471"/>
</g>
<!-- group_3_ped_4_location&#45;&gt;1058 -->
<g id="edge93" class="edge">
<title>group_3_ped_4_location&#45;&gt;1058</title>
<path fill="none" stroke="#ff0000" stroke-width=".2839" d="M1807.9921,-423.2437C1793.2611,-398.7881 1752.6088,-331.2995 1728.7157,-291.6335"/>
<polygon fill="#ff0000" stroke="#ff0000" stroke-width=".2839" points="1731.6155,-289.6641 1723.4575,-282.9041 1725.6192,-293.276 1731.6155,-289.6641"/>
</g>
<!-- group_3_ped_4_location&#45;&gt;1256 -->
<g id="edge97" class="edge">
<title>group_3_ped_4_location&#45;&gt;1256</title>
<path fill="none" stroke="#ff0000" stroke-width=".7663" d="M1817.0614,-423.2874C1821.082,-412.8706 1827.878,-395.2633 1833.931,-379.5811"/>
<polygon fill="#ff0000" stroke="#ff0000" stroke-width=".7663" points="1837.2366,-380.7365 1837.5723,-370.147 1830.7062,-378.2158 1837.2366,-380.7365"/>
</g>
<!-- 752 -->
<g id="node50" class="node">
<title>752</title>
<ellipse fill="#ffffff" stroke="#000000" cx="1847.5298" cy="-175.9447" rx="21.4286" ry="21.4286"/>
<text text-anchor="middle" x="1847.5298" y="-173.7447" font-family="Times,serif" font-size="9.00" fill="#000000">752</text>
</g>
<!-- group_3_ped_4_location&#45;&gt;752 -->
<g id="edge77" class="edge">
<title>group_3_ped_4_location&#45;&gt;752</title>
<path fill="none" stroke="#00ff00" stroke-width=".369" stroke-dasharray="1,5" d="M1829.8276,-423.2866C1846.1314,-413.0933 1870.2242,-394.9435 1880.5298,-371.6884 1905.3082,-315.7747 1879.8758,-243.3187 1861.9386,-204.1234"/>
<polygon fill="#00ff00" stroke="#00ff00" stroke-width=".369" points="1865.0171,-202.4463 1857.575,-194.9054 1858.6902,-205.4414 1865.0171,-202.4463"/>
</g>
<!-- group_3_ped_4_age -->
<g id="node24" class="node">
<title>group_3_ped_4_age</title>
<polygon fill="#d3d3d3" stroke="#000000" points="2494.0298,-441.4371 2405.0298,-441.4371 2405.0298,-423.4371 2494.0298,-423.4371 2494.0298,-441.4371"/>
<text text-anchor="middle" x="2449.5298" y="-430.2371" font-family="Times,serif" font-size="9.00" fill="#000000">group_3_ped_4_age</text>
</g>
<!-- group_3_ped_4_age&#45;&gt;0 -->
<g id="edge55" class="edge">
<title>group_3_ped_4_age&#45;&gt;0</title>
<path fill="none" stroke="#00ff00" stroke-width=".8245" d="M2445.7967,-423.337C2430.7782,-386.8438 2374.9369,-252.3149 2361.5298,-236.6934 2316.0071,-183.6521 2291.9504,-182.65 2229.5298,-151.196 2188.8363,-130.6903 2174.7476,-134.6262 2133.5298,-115.196 2093.639,-96.3913 2089.8684,-78.0406 2047.5298,-65.6985 1938.4057,-33.8878 1101.1286,-17.9795 944.6692,-15.2695"/>
<polygon fill="#00ff00" stroke="#00ff00" stroke-width=".8245" points="944.6585,-11.7689 934.6,-15.0972 944.5386,-18.7679 944.6585,-11.7689"/>
</g>
<!-- group_3_ped_4_age&#45;&gt;1 -->
<g id="edge56" class="edge">
<title>group_3_ped_4_age&#45;&gt;1</title>
<path fill="none" stroke="#00ff00" stroke-width=".4072" stroke-dasharray="1,5" d="M2422.084,-423.3951C2403.9673,-417.8406 2379.5893,-411.1474 2357.5298,-407.6884 2030.0339,-356.3363 1943.4338,-391.5152 1612.5298,-371.6884 1492.2057,-364.4789 1348.5231,-353.414 1291.563,-348.9297"/>
<polygon fill="#00ff00" stroke="#00ff00" stroke-width=".4072" points="1291.6045,-345.4221 1281.3599,-348.1236 1291.0532,-352.4004 1291.6045,-345.4221"/>
</g>
<!-- group_3_ped_4_age&#45;&gt;2 -->
<g id="edge57" class="edge">
<title>group_3_ped_4_age&#45;&gt;2</title>
<path fill="none" stroke="#ff0000" stroke-width=".149" d="M2448.1362,-423.319C2439.9933,-371.3239 2396.8427,-112.9485 2336.5298,-65.6985 2302.518,-39.0532 1998.0539,-20.9882 1907.085,-16.1496"/>
<polygon fill="#ff0000" stroke="#ff0000" stroke-width=".149" points="1907.0211,-12.6416 1896.8517,-15.6136 1906.6548,-19.632 1907.0211,-12.6416"/>
</g>
<!-- 1476 -->
<g id="node40" class="node">
<title>1476</title>
<ellipse fill="#ffffff" stroke="#000000" cx="2476.5298" cy="-346.9396" rx="25" ry="25"/>
<text text-anchor="middle" x="2476.5298" y="-344.7396" font-family="Times,serif" font-size="9.00" fill="#000000">1476</text>
</g>
<!-- group_3_ped_4_age&#45;&gt;1476 -->
<g id="edge113" class="edge">
<title>group_3_ped_4_age&#45;&gt;1476</title>
<path fill="none" stroke="#ff0000" stroke-width=".1153" d="M2452.4193,-423.2874C2455.6332,-413.1102 2461.0146,-396.0695 2465.879,-380.6663"/>
<polygon fill="#ff0000" stroke="#ff0000" stroke-width=".1153" points="2469.299,-381.459 2468.9729,-370.8691 2462.6239,-379.3509 2469.299,-381.459"/>
</g>
<!-- ego_vehicle_velocity -->
<g id="node25" class="node">
<title>ego_vehicle_velocity</title>
<polygon fill="#d3d3d3" stroke="#000000" points="1076.0298,-184.9447 985.0298,-184.9447 985.0298,-166.9447 1076.0298,-166.9447 1076.0298,-184.9447"/>
<text text-anchor="middle" x="1030.5298" y="-173.7447" font-family="Times,serif" font-size="9.00" fill="#000000">ego_vehicle_velocity</text>
</g>
<!-- ego_vehicle_velocity&#45;&gt;0 -->
<g id="edge58" class="edge">
<title>ego_vehicle_velocity&#45;&gt;0</title>
<path fill="none" stroke="#00ff00" stroke-width=".5377" stroke-dasharray="1,5" d="M1026.6678,-166.8507C1018.139,-147.2989 996.3878,-100.2375 970.5298,-65.6985 961.1877,-53.2201 948.8492,-40.8358 938.6485,-31.4134"/>
<polygon fill="#00ff00" stroke="#00ff00" stroke-width=".5377" points="940.797,-28.6382 931.024,-24.5467 936.1124,-33.8397 940.797,-28.6382"/>
</g>
<!-- ego_vehicle_velocity&#45;&gt;2 -->
<g id="edge59" class="edge">
<title>ego_vehicle_velocity&#45;&gt;2</title>
<path fill="none" stroke="#ff0000" stroke-width=".2551" stroke-dasharray="1,5" d="M1037.0285,-166.7617C1055.0941,-141.3606 1105.3229,-71.638 1116.5298,-65.6985 1183.1727,-30.3786 1731.4979,-17.741 1856.3123,-15.3081"/>
<polygon fill="#ff0000" stroke="#ff0000" stroke-width=".2551" points="1856.4997,-18.8053 1866.4312,-15.1154 1856.3664,-11.8065 1856.4997,-18.8053"/>
</g>
<!-- 630 -->
<g id="node51" class="node">
<title>630</title>
<ellipse fill="#ffffff" stroke="#000000" cx="1043.5298" cy="-90.4472" rx="21.4286" ry="21.4286"/>
<text text-anchor="middle" x="1043.5298" y="-88.2472" font-family="Times,serif" font-size="9.00" fill="#000000">630</text>
</g>
<!-- ego_vehicle_velocity&#45;&gt;630 -->
<g id="edge123" class="edge">
<title>ego_vehicle_velocity&#45;&gt;630</title>
<path fill="none" stroke="#ff0000" stroke-width=".104" d="M1031.921,-166.795C1033.5544,-156.0524 1036.3506,-137.6625 1038.7894,-121.6232"/>
<polygon fill="#ff0000" stroke="#ff0000" stroke-width=".104" points="1042.2816,-121.9391 1040.3246,-111.5266 1035.3611,-120.8868 1042.2816,-121.9391"/>
</g>
<!-- 1&#45;&gt;1 -->
<g id="edge60" class="edge">
<title>1&#45;&gt;1</title>
<path fill="none" stroke="#00ff00" stroke-width=".8714" stroke-dasharray="1,5" d="M1275.9456,-358.5022C1286.8026,-366.7079 1299.379,-362.8537 1299.379,-346.9396 1299.379,-335.5014 1292.882,-330.2933 1285.1962,-331.3154"/>
<polygon fill="#00ff00" stroke="#00ff00" stroke-width=".8714" points="1283.6948,-328.152 1275.9456,-335.3771 1286.509,-334.5614 1283.6948,-328.152"/>
</g>
<!-- 1&#45;&gt;111 -->
<g id="edge63" class="edge">
<title>1&#45;&gt;111</title>
<path fill="none" stroke="#00ff00" stroke-width=".5456" stroke-dasharray="1,5" d="M1251.9493,-342.6618C1232.4382,-337.1003 1196.6782,-327.4757 1165.5298,-322.1909 937.1189,-283.4376 657.7597,-267.3699 565.0718,-262.8595"/>
<polygon fill="#00ff00" stroke="#00ff00" stroke-width=".5456" points="565.1101,-259.3574 554.9548,-262.3774 564.7769,-266.3495 565.1101,-259.3574"/>
</g>
<!-- 386&#45;&gt;0 -->
<g id="edge65" class="edge">
<title>386&#45;&gt;0</title>
<path fill="none" stroke="#00ff00" stroke-width=".1462" stroke-dasharray="1,5" d="M1621.3425,-154.8915C1623.4057,-129.6217 1622.3859,-87.8852 1597.5298,-65.6985 1547.9973,-21.4856 1061.8281,-15.7109 944.7811,-14.9606"/>
<polygon fill="#00ff00" stroke="#00ff00" stroke-width=".1462" points="944.6532,-11.4599 934.6333,-14.9026 944.6131,-18.4598 944.6532,-11.4599"/>
</g>
<!-- 662 -->
<g id="node32" class="node">
<title>662</title>
<ellipse fill="#ffffff" stroke="#000000" cx="1832.5298" cy="-90.4472" rx="21.4286" ry="21.4286"/>
<text text-anchor="middle" x="1832.5298" y="-88.2472" font-family="Times,serif" font-size="9.00" fill="#000000">662</text>
</g>
<!-- 386&#45;&gt;662 -->
<g id="edge87" class="edge">
<title>386&#45;&gt;662</title>
<path fill="none" stroke="#ff0000" stroke-width=".1348" d="M1638.2788,-168.0545C1676.1802,-152.9122 1759.2741,-119.7144 1803.4979,-102.0461"/>
<polygon fill="#ff0000" stroke="#ff0000" stroke-width=".1348" points="1804.8407,-105.2786 1812.8285,-98.3183 1802.2436,-98.7782 1804.8407,-105.2786"/>
</g>
<!-- 386&#45;&gt;1512 -->
<g id="edge116" class="edge">
<title>386&#45;&gt;1512</title>
<path fill="none" stroke="#00ff00" stroke-width=".1256" d="M1606.8657,-157.8129C1599.8625,-146.9264 1590.7807,-132.8088 1582.7415,-120.3118"/>
<polygon fill="#00ff00" stroke="#00ff00" stroke-width=".1256" points="1585.4702,-118.0843 1577.1165,-111.5677 1579.5831,-121.8714 1585.4702,-118.0843"/>
</g>
<!-- 1540&#45;&gt;1 -->
<g id="edge119" class="edge">
<title>1540&#45;&gt;1</title>
<path fill="none" stroke="#00ff00" stroke-width=".4628" d="M1389.5784,-418.9205C1383.7635,-415.2296 1377.4271,-411.2635 1371.5298,-407.6884 1343.1059,-390.4572 1309.8199,-371.3825 1288.4706,-359.2868"/>
<polygon fill="#00ff00" stroke="#00ff00" stroke-width=".4628" points="1289.9898,-356.1251 1279.5618,-354.2522 1286.5458,-362.2193 1289.9898,-356.1251"/>
</g>
<!-- 1291&#45;&gt;0 -->
<g id="edge103" class="edge">
<title>1291&#45;&gt;0</title>
<path fill="none" stroke="#ff0000" stroke-width=".4518" d="M2309.7307,-411.4737C2263.7967,-343.9618 2108.0173,-132.7141 1915.5298,-65.6985 1821.4057,-32.9287 1090.8756,-17.9717 944.8741,-15.2945"/>
<polygon fill="#ff0000" stroke="#ff0000" stroke-width=".4518" points="944.7365,-11.7915 934.6749,-15.1101 944.61,-18.7904 944.7365,-11.7915"/>
</g>
<!-- 662&#45;&gt;2 -->
<g id="edge73" class="edge">
<title>662&#45;&gt;2</title>
<path fill="none" stroke="#00ff00" stroke-width=".2456" stroke-dasharray="1,5" d="M1844.1421,-72.5316C1851.1987,-61.6445 1860.2494,-47.681 1867.6783,-36.2196"/>
<polygon fill="#00ff00" stroke="#00ff00" stroke-width=".2456" points="1870.7173,-37.9659 1873.2193,-27.6707 1864.8432,-34.1585 1870.7173,-37.9659"/>
</g>
<!-- 1058&#45;&gt;386 -->
<g id="edge88" class="edge">
<title>1058&#45;&gt;386</title>
<path fill="none" stroke="#00ff00" stroke-width=".1806" d="M1692.3535,-244.5506C1677.9053,-231.1236 1657.591,-212.2451 1641.9285,-197.6896"/>
<polygon fill="#00ff00" stroke="#00ff00" stroke-width=".1806" points="1643.9256,-194.7675 1634.2178,-190.5239 1639.1604,-199.8952 1643.9256,-194.7675"/>
</g>
<!-- 555&#45;&gt;2 -->
<g id="edge69" class="edge">
<title>555&#45;&gt;2</title>
<path fill="none" stroke="#ff0000" stroke-width=".7534" stroke-dasharray="1,5" d="M1011.9293,-599.4647C1178.2541,-596.0516 2261.6791,-572.7705 2403.5298,-542.6833 2533.5537,-515.1047 2681.5298,-565.3537 2681.5298,-432.4371 2681.5298,-432.4371 2681.5298,-432.4371 2681.5298,-175.9447 2681.5298,-118.3755 2662.7965,-95.4811 2613.5298,-65.6985 2551.9494,-28.472 2028.8522,-17.347 1906.8805,-15.2479"/>
<polygon fill="#ff0000" stroke="#ff0000" stroke-width=".7534" points="1906.7133,-11.7448 1896.6562,-15.0772 1906.5963,-18.7438 1906.7133,-11.7448"/>
</g>
<!-- 1004 -->
<g id="node47" class="node">
<title>1004</title>
<ellipse fill="#ffffff" stroke="#000000" cx="556.5298" cy="-517.9346" rx="25" ry="25"/>
<text text-anchor="middle" x="556.5298" y="-515.7346" font-family="Times,serif" font-size="9.00" fill="#000000">1004</text>
</g>
<!-- 555&#45;&gt;1004 -->
<g id="edge83" class="edge">
<title>555&#45;&gt;1004</title>
<path fill="none" stroke="#ff0000" stroke-width=".2476" stroke-dasharray="1,5" d="M969.5971,-595.9433C900.1912,-582.8359 677.1622,-540.7163 590.9747,-524.4396"/>
<polygon fill="#ff0000" stroke="#ff0000" stroke-width=".2476" points="591.4014,-520.9584 580.9255,-522.5418 590.1023,-527.8368 591.4014,-520.9584"/>
</g>
<!-- 428&#45;&gt;386 -->
<g id="edge67" class="edge">
<title>428&#45;&gt;386</title>
<path fill="none" stroke="#00ff00" stroke-width=".5983" stroke-dasharray="1,5" d="M1547.9049,-246.1569C1561.2349,-232.9048 1580.7072,-213.5462 1595.831,-198.5108"/>
<polygon fill="#00ff00" stroke="#00ff00" stroke-width=".5983" points="1598.6637,-200.6301 1603.2878,-191.0976 1593.7284,-195.6658 1598.6637,-200.6301"/>
</g>
<!-- 1456&#45;&gt;2 -->
<g id="edge111" class="edge">
<title>1456&#45;&gt;2</title>
<path fill="none" stroke="#00ff00" stroke-width=".3001" d="M2581.2293,-150.8351C2578.4275,-125.0157 2569.7997,-85.8236 2543.5298,-65.6985 2492.168,-26.3506 2021.6841,-16.9088 1906.7636,-15.1818"/>
<polygon fill="#00ff00" stroke="#00ff00" stroke-width=".3001" points="1906.5439,-11.6784 1896.4946,-15.0342 1906.4432,-18.6777 1906.5439,-11.6784"/>
</g>
<!-- 1201&#45;&gt;0 -->
<g id="edge92" class="edge">
<title>1201&#45;&gt;0</title>
<path fill="none" stroke="#00ff00" stroke-width=".1518" stroke-dasharray="1,5" d="M706.0893,-151.4273C702.1691,-126.8387 700.5874,-89.325 720.5298,-65.6985 742.9286,-39.1618 846.4346,-23.5705 894.6667,-17.6303"/>
<polygon fill="#00ff00" stroke="#00ff00" stroke-width=".1518" points="895.0865,-21.1051 904.6027,-16.4476 894.259,-14.1542 895.0865,-21.1051"/>
</g>
<!-- 835&#45;&gt;752 -->
<g id="edge79" class="edge">
<title>835&#45;&gt;752</title>
<path fill="none" stroke="#00ff00" stroke-width=".3435" d="M1820.6475,-241.6124C1825.0649,-230.8216 1830.6148,-217.2645 1835.523,-205.2746"/>
<polygon fill="#00ff00" stroke="#00ff00" stroke-width=".3435" points="1838.9066,-206.2475 1839.4561,-195.6669 1832.4284,-203.5955 1838.9066,-206.2475"/>
</g>
<!-- 1223&#45;&gt;1 -->
<g id="edge96" class="edge">
<title>1223&#45;&gt;1</title>
<path fill="none" stroke="#ff0000" stroke-width=".2961" stroke-dasharray="1,5" d="M1266.5298,-407.2475C1266.5298,-396.1646 1266.5298,-383.176 1266.5298,-372.0969"/>
<polygon fill="#ff0000" stroke="#ff0000" stroke-width=".2961" points="1270.0299,-371.7955 1266.5298,-361.7955 1263.0299,-371.7956 1270.0299,-371.7955"/>
</g>
<!-- 1223&#45;&gt;949 -->
<g id="edge108" class="edge">
<title>1223&#45;&gt;949</title>
<path fill="none" stroke="#00ff00" stroke-width=".4377" d="M1283.4294,-414.3384C1292.8117,-403.0171 1303.5648,-387.6002 1308.5298,-371.6884 1317.153,-344.0526 1307.2605,-311.7437 1297.2959,-289.2752"/>
<polygon fill="#00ff00" stroke="#00ff00" stroke-width=".4377" points="1300.3528,-287.5511 1292.9272,-279.9939 1294.0193,-290.5323 1300.3528,-287.5511"/>
</g>
<!-- 715&#45;&gt;1 -->
<g id="edge76" class="edge">
<title>715&#45;&gt;1</title>
<path fill="none" stroke="#ff0000" stroke-width=".5279" stroke-dasharray="1,5" d="M1143.5828,-419.4891C1149.167,-415.4928 1155.4902,-411.2184 1161.5298,-407.6884 1193.798,-388.8284 1206.1527,-391.9964 1237.5298,-371.6884 1241.0548,-369.4069 1244.6135,-366.7365 1247.9729,-364.0099"/>
<polygon fill="#ff0000" stroke="#ff0000" stroke-width=".5279" points="1250.4732,-366.4762 1255.7799,-357.3061 1245.9129,-361.1654 1250.4732,-366.4762"/>
</g>
<!-- 1355&#45;&gt;428 -->
<g id="edge114" class="edge">
<title>1355&#45;&gt;428</title>
<path fill="none" stroke="#ff0000" stroke-width=".2525" d="M579.4448,-422.8216C593.382,-417.4144 611.6857,-411.0855 628.5298,-407.6884 745.7704,-384.0434 1061.6146,-430.9005 1165.5298,-371.6884 1188.7184,-358.4753 1177.128,-336.6981 1199.5298,-322.1909 1249.3652,-289.918 1427.9904,-270.7448 1501.0484,-264.0981"/>
<polygon fill="#ff0000" stroke="#ff0000" stroke-width=".2525" points="1501.3838,-267.5821 1511.0336,-263.2082 1500.7624,-260.6098 1501.3838,-267.5821"/>
</g>
<!-- 1645 -->
<g id="node48" class="node">
<title>1645</title>
<ellipse fill="#ffffff" stroke="#000000" cx="491.5298" cy="-346.9396" rx="25" ry="25"/>
<text text-anchor="middle" x="491.5298" y="-344.7396" font-family="Times,serif" font-size="9.00" fill="#000000">1645</text>
</g>
<!-- 1355&#45;&gt;1645 -->
<g id="edge125" class="edge">
<title>1355&#45;&gt;1645</title>
<path fill="none" stroke="#00ff00" stroke-width=".3308" d="M541.4541,-412.6074C532.9221,-401.3849 522.1155,-387.1704 512.7401,-374.8386"/>
<polygon fill="#00ff00" stroke="#00ff00" stroke-width=".3308" points="515.3621,-372.5042 506.5237,-366.6618 509.7897,-376.7408 515.3621,-372.5042"/>
</g>
<!-- 1355&#45;&gt;111 -->
<g id="edge105" class="edge">
<title>1355&#45;&gt;111</title>
<path fill="none" stroke="#ff0000" stroke-width=".2742" stroke-dasharray="1,5" d="M553.1854,-407.573C549.0932,-377.1493 542.1624,-325.6219 537.7191,-292.5876"/>
<polygon fill="#ff0000" stroke="#ff0000" stroke-width=".2742" points="541.1725,-292.0064 536.3706,-282.5622 534.235,-292.9396 541.1725,-292.0064"/>
</g>
<!-- 979&#45;&gt;386 -->
<g id="edge82" class="edge">
<title>979&#45;&gt;386</title>
<path fill="none" stroke="#00ff00" stroke-width=".3359" d="M2036.6512,-257.376C1965.7321,-243.5641 1733.8218,-198.3984 1649.5189,-181.98"/>
<polygon fill="#00ff00" stroke="#00ff00" stroke-width=".3359" points="1650.0209,-178.5121 1639.5362,-180.0358 1648.6827,-185.383 1650.0209,-178.5121"/>
</g>
<!-- 1256&#45;&gt;0 -->
<g id="edge98" class="edge">
<title>1256&#45;&gt;0</title>
<path fill="none" stroke="#ff0000" stroke-width=".2817" d="M1827.7088,-330.7727C1814.459,-318.996 1796.6413,-302.3419 1782.5298,-286.1909 1703.0361,-195.2081 1729.0282,-124.5815 1623.5298,-65.6985 1563.2784,-32.0697 1064.0912,-18.2539 944.9785,-15.4189"/>
<polygon fill="#ff0000" stroke="#ff0000" stroke-width=".2817" points="944.7443,-11.9125 934.6655,-15.1785 944.5812,-18.9106 944.7443,-11.9125"/>
</g>
<!-- 1512&#45;&gt;0 -->
<g id="edge117" class="edge">
<title>1512&#45;&gt;0</title>
<path fill="none" stroke="#ff0000" stroke-width=".211" stroke-dasharray="1,5" d="M1538.9495,-86.0267C1508.7762,-80.7032 1456.0097,-71.7268 1410.5298,-65.6985 1232.7148,-42.1292 1017.4492,-23.1096 944.8321,-16.9551"/>
<polygon fill="#ff0000" stroke="#ff0000" stroke-width=".211" points="944.6884,-13.4307 934.4299,-16.0791 944.1009,-20.406 944.6884,-13.4307"/>
</g>
<!-- 1004&#45;&gt;1355 -->
<g id="edge104" class="edge">
<title>1004&#45;&gt;1355</title>
<path fill="none" stroke="#ff0000" stroke-width=".304" d="M556.5298,-492.745C556.5298,-484.8307 556.5298,-475.9447 556.5298,-467.4761"/>
<polygon fill="#ff0000" stroke="#ff0000" stroke-width=".304" points="560.0299,-467.4467 556.5298,-457.4467 553.0299,-467.4468 560.0299,-467.4467"/>
</g>
<!-- 1004&#45;&gt;111 -->
<g id="edge94" class="edge">
<title>1004&#45;&gt;111</title>
<path fill="none" stroke="#ff0000" stroke-width=".4393" d="M532.1497,-512.0684C492.0402,-501.8693 415.0189,-479.7873 399.5298,-457.1859 363.6978,-404.9004 403.2554,-369.4199 445.5298,-322.1909 462.5829,-303.1392 486.7585,-287.0035 505.4566,-276.1607"/>
<polygon fill="#ff0000" stroke="#ff0000" stroke-width=".4393" points="507.4027,-279.0818 514.4039,-271.1298 503.9719,-272.9803 507.4027,-279.0818"/>
</g>
<!-- 1645&#45;&gt;111 -->
<g id="edge126" class="edge">
<title>1645&#45;&gt;111</title>
<path fill="none" stroke="#ff0000" stroke-width=".5654" d="M502.5648,-324.4762C507.8054,-313.808 514.124,-300.9457 519.683,-289.6295"/>
<polygon fill="#ff0000" stroke="#ff0000" stroke-width=".5654" points="522.8658,-291.0883 524.1336,-280.5696 516.583,-288.0019 522.8658,-291.0883"/>
</g>
<!-- 111&#45;&gt;0 -->
<g id="edge61" class="edge">
<title>111&#45;&gt;0</title>
<path fill="none" stroke="#00ff00" stroke-width=".1721" stroke-dasharray="1,5" d="M530.1849,-240.4429C525.0913,-200.211 520.5202,-112.1462 568.5298,-65.6985 591.9917,-42.9999 817.4543,-23.0132 894.1423,-16.8222"/>
<polygon fill="#00ff00" stroke="#00ff00" stroke-width=".1721" points="894.6452,-20.2933 904.3357,-16.0102 894.0893,-13.3154 894.6452,-20.2933"/>
</g>
<!-- 111&#45;&gt;386 -->
<g id="edge74" class="edge">
<title>111&#45;&gt;386</title>
<path fill="none" stroke="#00ff00" stroke-width=".4017" stroke-dasharray="1,5" d="M554.7166,-259.7727C689.3317,-249.1651 1424.9636,-191.1976 1586.9632,-178.4321"/>
<polygon fill="#00ff00" stroke="#00ff00" stroke-width=".4017" points="1587.5131,-181.8997 1597.2072,-177.6249 1586.9631,-174.9214 1587.5131,-181.8997"/>
</g>
<!-- 630&#45;&gt;0 -->
<g id="edge71" class="edge">
<title>630&#45;&gt;0</title>
<path fill="none" stroke="#ff0000" stroke-width=".5595" d="M1026.3088,-77.7742C1020.7156,-73.7927 1014.4296,-69.4574 1008.5298,-65.6985 986.3694,-51.5793 960.1641,-36.8311 941.9523,-26.8766"/>
<polygon fill="#ff0000" stroke="#ff0000" stroke-width=".5595" points="943.1921,-23.5673 932.7334,-21.874 939.8534,-29.7198 943.1921,-23.5673"/>
</g>
<!-- 1271&#45;&gt;428 -->
<g id="edge124" class="edge">
<title>1271&#45;&gt;428</title>
<path fill="none" stroke="#00ff00" stroke-width=".1385" d="M2003.9331,-342.6998C1921.4824,-328.4875 1654.9449,-282.5433 1563.5904,-266.7962"/>
<polygon fill="#00ff00" stroke="#00ff00" stroke-width=".1385" points="1564.0346,-263.3212 1553.5853,-265.0716 1562.8454,-270.2195 1564.0346,-263.3212"/>
</g>
<!-- 1271&#45;&gt;979 -->
<g id="edge100" class="edge">
<title>1271&#45;&gt;979</title>
<path fill="none" stroke="#00ff00" stroke-width=".2032" d="M2036.6079,-323.1238C2039.9609,-313.2387 2043.8879,-301.661 2047.4285,-291.2227"/>
<polygon fill="#00ff00" stroke="#00ff00" stroke-width=".2032" points="2050.7756,-292.2508 2050.6733,-281.6565 2044.1465,-290.0023 2050.7756,-292.2508"/>
</g>
<!-- 1022&#45;&gt;2 -->
<g id="edge84" class="edge">
<title>1022&#45;&gt;2</title>
<path fill="none" stroke="#ff0000" stroke-width=".1625" stroke-dasharray="1,5" d="M1044.6869,-330.8369C1049.0537,-327.67 1053.8045,-324.59 1058.5298,-322.1909 1107.4203,-297.3688 1126.8446,-309.3815 1176.5298,-286.1909 1213.0568,-269.1419 1216.6184,-255.0036 1252.5298,-236.6934 1292.385,-216.3725 1310.1712,-226.7594 1346.5298,-200.6934 1409.8885,-155.2706 1390.0748,-103.0009 1458.5298,-65.6985 1527.8501,-27.9246 1775.6668,-17.7906 1856.1131,-15.4657"/>
<polygon fill="#ff0000" stroke="#ff0000" stroke-width=".1625" points="1856.4167,-18.9589 1866.3176,-15.1875 1856.2259,-11.9615 1856.4167,-18.9589"/>
</g>
</g>
</svg>
